<svg width="45" height="30" viewBox="0 0 45 30" fill="none" xmlns="http://www.w3.org/2000/svg">
<path d="M0 20V25.8571C0 28.2857 1.95968 30 4.35483 30H40.6451C43.0403 30 45 28.2857 45 25.8571V20H0Z" fill="#359846"/>
<path d="M40.6451 0H4.35483C1.95968 0 0 1.71429 0 4.14286V10H45V4.14286C45 1.71429 43.0403 0 40.6451 0Z" fill="#EA8634"/>
<path d="M45 10H0V20H45V10Z" fill="#FCFBF0"/>
<path d="M40.6448 0H4.35449L16.4029 10H44.9996V4.14286C44.9996 1.71429 43.0399 0 40.6448 0Z" fill="#E27423"/>
<path d="M28.6693 20H44.9999V10H16.3306L28.6693 20Z" fill="#F7F4E2"/>
<path d="M40.6448 0H4.35449L37.9593 10H44.9996V4.14286C44.9996 1.71429 43.0399 0 40.6448 0Z" fill="#D86619"/>
<path d="M44.9999 12V10H37.5967L44.9999 12Z" fill="#F2E9C2"/>
<path d="M45 19.7857C45 22.3571 43.0403 24 40.6451 24H4.35483C1.95968 24 0 22.1428 0 19.7142" fill="#167A20"/>
<path d="M22.4998 10.5C19.9595 10.5 17.9272 12.5 17.9272 15C17.9272 17.5 19.9595 19.5 22.4998 19.5C25.0401 19.5 27.0724 17.5 27.0724 15C27.0724 12.5 25.0401 10.5 22.4998 10.5ZM26.274 15.5C26.274 15.5714 26.3466 15.7143 26.4192 15.7143C26.3466 15.9286 26.3466 16.1429 26.274 16.3571C26.2014 16.2857 26.0563 16.3571 25.9837 16.4286C25.9111 16.5 25.9837 16.6429 26.0563 16.7143C25.9837 16.9286 25.8385 17.0714 25.7659 17.2857C25.6934 17.2143 25.5482 17.2143 25.4756 17.3571C25.403 17.4286 25.403 17.5714 25.4756 17.6429C25.403 17.7143 25.3305 17.7857 25.2579 17.8571L23.6611 16.0714L23.0079 15.5714L23.0805 15.5L23.7337 16L25.8385 17.0714L23.9514 15.6429L23.2256 15.3571C23.2256 15.2857 23.2256 15.2857 23.2982 15.2143L24.024 15.5L26.3466 16L24.0966 15.2857L23.2982 15.1429C23.2982 15.0714 23.2982 15.0714 23.2982 15L24.0966 15.0714L26.4918 14.9286L24.0966 14.7857L23.2982 14.8571C23.2982 14.7857 23.2982 14.7857 23.2982 14.7143L24.0966 14.5714L26.3466 13.8571L24.024 14.3571L23.2982 14.6429C23.2982 14.5714 23.2982 14.5714 23.2256 14.5L23.9514 14.2143L25.9837 12.9286L23.8789 14L23.2256 14.5L23.153 14.4286L23.8063 13.9286L25.403 12.1429C25.4756 12.2143 25.5482 12.2857 25.6208 12.3571C25.5482 12.4286 25.5482 12.5714 25.6208 12.6429C25.6934 12.7143 25.8385 12.7143 25.9111 12.7143C26.0563 12.8571 26.1289 13.0714 26.2014 13.2857C26.1289 13.3571 26.0563 13.4286 26.1289 13.5714C26.2014 13.6429 26.274 13.7143 26.4192 13.6429C26.4918 13.8571 26.5643 14.0714 26.5643 14.2857C26.4918 14.2857 26.4192 14.4286 26.4192 14.5C26.4192 14.5714 26.5643 14.7143 26.6369 14.6429C26.6369 14.7143 26.6369 14.8571 26.6369 14.9286C26.6369 15 26.6369 15.1429 26.6369 15.2143C26.3466 15.2857 26.274 15.3571 26.274 15.5ZM19.9595 12C20.0321 12.0714 20.1772 12.0714 20.2498 12C20.3224 11.9286 20.3224 11.7857 20.3224 11.7143C20.4676 11.5714 20.6853 11.5 20.903 11.4286C20.9756 11.5 21.0482 11.5714 21.1934 11.5C21.266 11.4286 21.3385 11.3571 21.266 11.2143C21.4837 11.1429 21.7014 11.0714 21.9192 11.0714C21.9192 11.1429 22.0643 11.2143 22.1369 11.2143C22.2095 11.2143 22.3547 11.0714 22.2821 11C22.3547 11 22.4998 11 22.5724 11C22.645 11 22.7901 11 22.8627 11C22.8627 11.0714 22.9353 11.2143 23.0079 11.2143C23.0805 11.2143 23.2256 11.1429 23.2256 11.0714C23.4434 11.1429 23.6611 11.1429 23.8789 11.2143C23.8063 11.2857 23.8789 11.4286 23.9514 11.5C24.024 11.5714 24.1692 11.5 24.2418 11.4286C24.4595 11.5 24.6047 11.6429 24.8224 11.7143C24.7498 11.7857 24.7498 11.9286 24.895 12C24.9676 12.0714 25.1127 12.0714 25.1853 12C25.2579 12.0714 25.3305 12.1429 25.403 12.2143L23.5885 13.7857L23.0805 14.4286L23.0079 14.3571L23.516 13.7143L24.6047 11.6429L23.153 13.5714L22.8627 14.2857C22.7901 14.2857 22.7901 14.2857 22.7176 14.2143L23.0079 13.5L23.516 11.2143L22.7901 13.4286L22.645 14.2143C22.5724 14.2143 22.5724 14.2143 22.4998 14.2143L22.5724 13.4286L22.4998 11.0714L22.3547 13.4286L22.4272 14.2143C22.3547 14.2143 22.3547 14.2143 22.2821 14.2143L22.1369 13.4286L21.4111 11.2143L21.9192 13.5L22.2095 14.2143C22.1369 14.2143 22.1369 14.2143 22.0643 14.2857L21.774 13.5714L20.4676 11.5714L21.5563 13.6429L22.0643 14.2857L21.9918 14.3571L21.4837 13.7143L19.6692 12.1429C19.7418 12.1429 19.8143 12.0714 19.9595 12ZM19.6692 17.7857C19.5966 17.7143 19.524 17.6429 19.4514 17.5714C19.524 17.5 19.524 17.3571 19.4514 17.2857C19.3789 17.2143 19.2337 17.2143 19.1611 17.2143C19.016 17.0714 18.9434 16.8571 18.8708 16.6429C18.9434 16.5714 19.016 16.5 18.9434 16.3571C18.8708 16.2857 18.7982 16.2143 18.6531 16.2857C18.5805 16.0714 18.5079 15.8571 18.5079 15.6429C18.5805 15.6429 18.6531 15.5 18.6531 15.4286C18.6531 15.3571 18.5079 15.2143 18.4353 15.2857C18.4353 15.2143 18.4353 15.0714 18.4353 15C18.4353 14.9286 18.4353 14.7857 18.4353 14.7143C18.5079 14.7143 18.6531 14.6429 18.6531 14.5714C18.6531 14.5 18.5805 14.3571 18.5079 14.3571C18.5805 14.1429 18.5805 13.9286 18.6531 13.7143C18.7256 13.7857 18.8708 13.7143 18.9434 13.6429C19.016 13.5714 18.9434 13.4286 18.8708 13.3571C18.9434 13.1429 19.0885 13 19.1611 12.7857C19.2337 12.8571 19.3789 12.8571 19.4514 12.7143C19.524 12.5714 19.524 12.5 19.4514 12.4286C19.524 12.3571 19.5966 12.2857 19.6692 12.2143L21.266 14L21.9192 14.5L21.8466 14.5714L21.1934 14.0714L19.0885 13L21.1208 14.2857L21.8466 14.5714C21.8466 14.6429 21.8466 14.6429 21.774 14.7143L21.0482 14.4286L18.7256 13.9286L20.9756 14.6429L21.774 14.7857C21.774 14.8571 21.774 14.8571 21.774 14.9286L20.9756 14.8571L18.5079 15L20.903 15.1429L21.7014 15.0714C21.7014 15.1429 21.7014 15.1429 21.7014 15.2143L20.903 15.3571L18.6531 16.0714L20.9756 15.5714L21.7014 15.2857C21.7014 15.3571 21.7014 15.3571 21.774 15.4286L21.0482 15.7143L19.016 17L21.1208 15.9286L21.774 15.4286L21.8466 15.5L21.1934 16L19.6692 17.7857ZM22.2095 18.9286C22.2095 18.8571 22.1369 18.7143 22.0643 18.7143C21.9918 18.7143 21.8466 18.7857 21.8466 18.8571C21.6289 18.7857 21.4111 18.7857 21.1934 18.7143C21.266 18.6429 21.1934 18.5 21.1208 18.4286C21.0482 18.3571 20.903 18.4286 20.8305 18.5C20.6127 18.4286 20.4676 18.2857 20.2498 18.2143C20.3224 18.1429 20.3224 18 20.1772 17.9286C20.1047 17.8571 19.9595 17.8571 19.8869 17.9286C19.8143 17.8571 19.7418 17.7857 19.6692 17.7143L21.4837 16.1429L21.9918 15.5L22.0643 15.5714L21.5563 16.2143L20.4676 18.2857L21.774 16.2857L22.0643 15.5714C22.1369 15.5714 22.1369 15.5714 22.2095 15.6429L21.9192 16.3571L21.4111 18.6429L22.1369 16.4286L22.2821 15.6429C22.3547 15.6429 22.3547 15.6429 22.4272 15.6429L22.3547 16.4286L22.4998 18.7857L22.645 16.4286L22.5724 15.6429C22.645 15.6429 22.645 15.6429 22.7176 15.6429L22.8627 16.4286L23.5885 18.6429L23.0805 16.3571L22.7901 15.6429C22.8627 15.6429 22.8627 15.6429 22.9353 15.5714L23.2256 16.2857L24.5321 18.2857L23.4434 16.2143L22.9353 15.5714L23.0079 15.5L23.516 16.1429L25.3305 17.7143C25.2579 17.7857 25.1853 17.8571 25.1127 17.9286C25.0401 17.8571 24.895 17.8571 24.8224 17.9286C24.7498 18 24.7498 18.1429 24.7498 18.2143C24.6047 18.3571 24.3869 18.4286 24.1692 18.5C24.0966 18.4286 24.024 18.3571 23.8789 18.4286C23.7337 18.5 23.7337 18.5714 23.8063 18.7143C23.5885 18.7857 23.3708 18.8571 23.153 18.8571C23.153 18.7857 23.0079 18.7143 22.9353 18.7143C22.8627 18.7143 22.7176 18.8571 22.7901 18.9286C22.7176 18.9286 22.5724 18.9286 22.4998 18.9286C22.4272 18.9286 22.2821 18.9286 22.2095 18.9286Z" fill="#7D7DBC"/>
<path d="M23.5162 15.8572L23.7339 16.0714V16L23.5162 15.8572Z" fill="#6060B2"/>
<path d="M22.5 10.5C21.1209 10.5 19.8871 11.1429 19.0161 12.0714L19.4516 12.4286C19.5242 12.3571 19.5968 12.2857 19.6693 12.2143C19.7419 12.1429 19.8145 12.0714 19.8871 12C19.9597 12.0714 20.1048 12.0714 20.1774 12C20.25 11.9286 20.25 11.7857 20.25 11.7143C20.3226 11.6429 20.4677 11.6429 20.5403 11.5714L21.629 13.6429L22.1371 14.2857L22.0645 14.3571L21.5564 13.7143L19.7419 12.1429L21.2661 13.8571L21.4839 14L21.9193 14.3571L23.1532 15.3571L23.2258 15.2857L23.879 15.7857L25.9838 16.8571C25.9113 16.9286 25.9113 17.0714 25.8387 17.1429C25.7661 17.0714 25.6209 17.0714 25.5484 17.2143C25.4758 17.2857 25.4758 17.4286 25.5484 17.5L25.9838 17.8571C26.6371 17.0714 27.0726 16.0714 27.0726 14.9286C27.0726 12.5 25.0403 10.5 22.5 10.5ZM22.1371 14.2857L21.8468 13.5714L20.5403 11.6429C20.6129 11.5714 20.6855 11.5 20.8306 11.5C20.9032 11.5714 20.9758 11.6429 21.1209 11.5714C21.1935 11.5 21.2661 11.4286 21.1935 11.2857C21.2661 11.2857 21.4113 11.2143 21.4839 11.2143L21.9919 13.5L22.2822 14.2143C22.2097 14.2857 22.2097 14.2857 22.1371 14.2857ZM22.5726 14.2143L22.6451 13.4286L22.5 11.0714L22.3548 13.4286L22.4274 14.2143C22.3548 14.2143 22.3548 14.2143 22.2822 14.2143L22.1371 13.4286L21.4113 11.2143C21.4839 11.2143 21.629 11.1429 21.7016 11.1429C21.7016 11.2143 21.8468 11.2857 21.9193 11.2857C21.9919 11.2857 22.1371 11.1429 22.0645 11.0714C22.1371 11.0714 22.2822 11.0714 22.3548 11.0714C22.4274 11.0714 22.5726 11.0714 22.6451 11.0714C22.6451 11.1429 22.7177 11.2857 22.7903 11.2857C22.8629 11.2857 23.008 11.2143 23.008 11.1429C23.0806 11.1429 23.2258 11.2143 23.2984 11.2143L22.5726 13.4286L22.4274 14.2143C22.6451 14.2143 22.5726 14.2143 22.5726 14.2143ZM22.7177 14.2857L23.008 13.5714L23.5161 11.2857C23.5887 11.2857 23.7338 11.3571 23.8064 11.3571C23.7338 11.4286 23.8064 11.5714 23.879 11.6429C23.9516 11.7143 24.0968 11.6429 24.1693 11.5714C24.2419 11.6429 24.3871 11.6429 24.4597 11.7143L23.1532 13.5714L22.8629 14.2857C22.7903 14.2857 22.7903 14.2857 22.7177 14.2857ZM25.9838 16.4286C25.9113 16.5 25.9838 16.6429 26.0564 16.7143C25.9838 16.7857 25.9838 16.9286 25.9113 17L23.9516 15.6429L23.2258 15.3571C23.2258 15.2857 23.2258 15.2857 23.2984 15.2143L24.0242 15.5L26.3468 16C26.3468 16.0714 26.2742 16.2143 26.2742 16.2857C26.129 16.2857 26.0564 16.3571 25.9838 16.4286ZM26.4919 14.7143C26.4919 14.7857 26.4919 14.9286 26.4919 15C26.4919 15.0714 26.4919 15.2143 26.4919 15.2857C26.4193 15.2857 26.2742 15.3571 26.2742 15.4286C26.2742 15.5 26.3468 15.6429 26.4193 15.6429C26.4193 15.7143 26.3468 15.8571 26.3468 15.9286L24.0968 15.2143L23.2984 15.0714C23.2984 15 23.2984 15 23.2984 14.9286L24.0968 15L26.4919 14.8571L24.0968 14.7143L23.2984 14.7857C23.2984 14.7143 23.2984 14.7143 23.2984 14.6429L24.0968 14.5L26.3468 13.7857C26.3468 13.8571 26.4193 14 26.4193 14.0714C26.3468 14.0714 26.2742 14.2143 26.2742 14.2857C26.2742 14.6429 26.3468 14.7143 26.4919 14.7143ZM25.9838 13.5714C26.0564 13.6429 26.129 13.7143 26.2742 13.6429C26.2742 13.7143 26.3468 13.8571 26.3468 13.9286L24.0242 14.4286L23.2984 14.7143C23.2984 14.6429 23.2984 14.6429 23.2258 14.5714L23.9516 14.2857L25.9113 13C25.9838 13.0714 26.0564 13.1429 26.0564 13.2857C25.9838 13.3571 25.9113 13.5 25.9838 13.5714ZM25.9113 13.0714L23.8064 14.1429L23.1532 14.6429L23.0806 14.5714L23.7339 14.0714L25.3306 12.2857L23.5161 13.8571L23.008 14.5L22.9355 14.4286L23.4435 13.7857L24.5322 11.7143C24.6048 11.7857 24.75 11.7857 24.8226 11.8571C24.75 11.9286 24.75 12.0714 24.8951 12.1429C24.9677 12.2143 25.1129 12.2143 25.1855 12.1429C25.258 12.2143 25.3306 12.2857 25.4032 12.3571C25.4758 12.4286 25.5484 12.5 25.6209 12.5714C25.5484 12.6429 25.5484 12.7857 25.6209 12.8571C25.6935 12.9286 25.8387 12.9286 25.9113 12.9286C25.8387 12.8571 25.9113 12.9286 25.9113 13.0714Z" fill="#6060B2"/>
</svg>
