<svg width="94" height="94" viewBox="0 0 94 94" fill="none" xmlns="http://www.w3.org/2000/svg">
<circle cx="47" cy="47" r="47" fill="black" fill-opacity="0.2"/>
<g clip-path="url(#clip0_1179_55)">
<path d="M68 45.5H58.895C58.5585 42.8605 57.3552 40.4075 55.4738 38.5259C53.5924 36.6443 51.1394 35.4407 48.5 35.1039V26H45.5V35.1039C42.8606 35.4407 40.4076 36.6443 38.5262 38.5259C36.6448 40.4075 35.4415 42.8605 35.105 45.5H26V48.5H35.105C35.4415 51.1395 36.6448 53.5925 38.5262 55.4741C40.4076 57.3557 42.8606 58.5593 45.5 58.8961V68H48.5V58.8961C51.1396 58.5595 53.5927 57.3559 55.4742 55.4743C57.3558 53.5927 58.5593 51.1396 58.8958 48.5H68V45.5ZM47 56C45.22 56 43.4799 55.4722 41.9999 54.4832C40.5198 53.4943 39.3663 52.0887 38.6851 50.4442C38.0039 48.7996 37.8257 46.99 38.1729 45.2442C38.5202 43.4984 39.3774 41.8947 40.636 40.636C41.8947 39.3774 43.4984 38.5202 45.2442 38.1729C46.99 37.8257 48.7996 38.0039 50.4442 38.6851C52.0887 39.3663 53.4943 40.5198 54.4832 41.9999C55.4722 43.4799 56 45.22 56 47C55.9974 49.3861 55.0483 51.6738 53.3611 53.3611C51.6738 55.0483 49.3861 55.9974 47 56Z" fill="white"/>
</g>
<defs>
<clipPath id="clip0_1179_55">
<rect width="48" height="48" fill="white" transform="translate(23 23)"/>
</clipPath>
</defs>
</svg>
