<svg width="94" height="94" viewBox="0 0 94 94" fill="none" xmlns="http://www.w3.org/2000/svg">
<circle cx="47" cy="47" r="47" fill="black" fill-opacity="0.2"/>
<path d="M58.8304 44.7356C58.8354 42.8944 58.8404 41.056 58.845 39.3334C58.8603 39.3334 58.8689 39.3334 58.8689 39.3334C58.8698 39.0722 58.9727 38.822 59.155 38.6379C59.3372 38.4538 59.5839 38.3508 59.8407 38.3515H69.7808C69.9977 38.3463 70.2131 38.3895 70.412 38.4779C70.66 38.6096 70.8725 38.8013 71.0307 39.0361C72.4591 41.0014 74.7977 44.5298 76.0823 46.7458C76.4173 47.2699 76.6084 47.8756 76.6357 48.5001C76.6442 50.6392 76.6742 52.6111 76.6927 55.2928C76.7399 55.2856 76.7881 55.2889 76.834 55.3024C76.8799 55.3159 76.9223 55.3393 76.9585 55.371C76.9947 55.4027 77.0237 55.442 77.0436 55.4861C77.0635 55.5303 77.0738 55.5783 77.0738 55.6269C77.075 56.2155 77.0808 56.8817 77.0855 57.7383C77.0863 57.9157 77.0528 58.0917 76.9868 58.256C76.9209 58.4202 76.8237 58.5697 76.7009 58.6958C76.5781 58.8219 76.4321 58.9222 76.2712 58.9909C76.1103 59.0597 75.9377 59.0955 75.7632 59.0963C74.3931 59.1028 72.6607 59.1132 72.4476 59.1132L60.7333 59.1431C60.4475 59.1431 59.9112 59.1431 58.7983 59.1419C58.7972 57.7214 58.8138 51.2238 58.8304 44.7356Z" fill="white"/>
<path d="M66.4988 35.9138C67.5171 36.519 68.4057 37.0614 68.9633 37.4255C69.3111 37.6273 69.5672 37.9599 69.6763 38.3517C67.2713 38.3517 61.9795 38.3517 59.8407 38.3517C59.5839 38.3509 59.3372 38.4539 59.155 38.638C58.9727 38.8222 58.8698 39.0723 58.8689 39.3336H58.845C58.8523 36.6546 58.8591 34.2583 58.8639 32.5816L59.3763 32.5455C59.5955 32.5282 59.8157 32.5282 60.0349 32.5455C60.5314 32.5916 61.0122 32.7462 61.4445 32.9987C62.9097 33.8164 64.8699 34.9456 66.4988 35.9138Z" fill="white"/>
<path d="M24.3911 59.1435C23.2406 59.1435 21.4512 59.1404 17.5914 59.1411C17.4152 59.1411 17.2462 59.0699 17.1216 58.9432C16.997 58.8165 16.927 58.6446 16.927 58.4654C16.931 51.5527 16.9587 37.5439 16.9629 31.3506C16.9629 31.262 16.98 31.1743 17.0133 31.0925C17.0467 31.0107 17.0956 30.9363 17.1572 30.8737C17.2188 30.8112 17.2919 30.7615 17.3724 30.7277C17.4529 30.6939 17.5392 30.6765 17.6263 30.6766C22.6529 30.6766 53.2892 30.669 58.2042 30.6682C58.2914 30.668 58.3779 30.6854 58.4585 30.7193C58.5391 30.7532 58.6123 30.803 58.6739 30.8658C58.7356 30.9286 58.7844 31.0031 58.8176 31.0852C58.8508 31.1672 58.8677 31.2551 58.8674 31.3438C58.853 36.5295 58.7968 56.5186 58.7978 59.1426C53.4263 59.1384 38.2993 59.1281 36.6955 59.1293" fill="white"/>
<path d="M30.3784 54.1891C30.9942 54.1766 31.6061 54.2902 32.1778 54.5232C32.7495 54.7562 33.2692 55.1037 33.7061 55.5452C34.143 55.9867 34.488 56.513 34.7207 57.0929C34.9534 57.6728 35.069 58.2944 35.0606 58.9207C35.0606 61.7753 33.1059 63.7416 30.3784 63.7416C27.546 63.7416 25.6964 61.7572 25.6964 58.9207C25.6964 56.3522 27.6201 54.1891 30.3784 54.1891Z" fill="#2D8B38"/>
<path d="M30.3784 54.1891C30.9942 54.1766 31.6061 54.2902 32.1778 54.5232C32.7495 54.7562 33.2692 55.1037 33.7061 55.5452C34.143 55.9867 34.488 56.513 34.7207 57.0929C34.9534 57.6728 35.069 58.2944 35.0606 58.9207C35.0606 61.7753 33.1059 63.7416 30.3784 63.7416C27.546 63.7416 25.6964 61.7572 25.6964 58.9207C25.6964 56.3522 27.6201 54.1891 30.3784 54.1891Z" fill="#064372"/>
<path d="M30.3784 57.3807C30.5828 57.3765 30.7859 57.4143 30.9757 57.4916C31.1654 57.569 31.3379 57.6844 31.4829 57.831C31.6278 57.9776 31.7423 58.1523 31.8194 58.3448C31.8966 58.5374 31.9348 58.7437 31.9319 58.9516C31.9319 59.8988 31.2833 60.5512 30.3783 60.5512C29.4385 60.5512 28.8248 59.8924 28.8248 58.9516C28.8217 58.7436 28.8599 58.5372 28.937 58.3446C29.0141 58.152 29.1285 57.9772 29.2735 57.8306C29.4186 57.6839 29.5911 57.5685 29.781 57.4912C29.9708 57.414 30.174 57.3763 30.3784 57.3807Z" fill="white"/>
<path d="M66.6368 54.1891C67.2526 54.1765 67.8646 54.2901 68.4363 54.523C69.008 54.756 69.5279 55.1035 69.9648 55.545C70.4017 55.9865 70.7468 56.5129 70.9795 57.0928C71.2123 57.6727 71.3279 58.2944 71.3195 58.9207C71.3195 61.7753 69.3647 63.7416 66.6373 63.7416C63.8049 63.7416 61.9553 61.7572 61.9553 58.9207C61.9553 56.3522 63.8788 54.1891 66.6368 54.1891Z" fill="#2D8B38"/>
<path d="M66.6368 54.1891C67.2526 54.1765 67.8646 54.2901 68.4363 54.523C69.008 54.756 69.5279 55.1035 69.9648 55.545C70.4017 55.9865 70.7468 56.5129 70.9795 57.0928C71.2123 57.6727 71.3279 58.2944 71.3195 58.9207C71.3195 61.7753 69.3647 63.7416 66.6373 63.7416C63.8049 63.7416 61.9553 61.7572 61.9553 58.9207C61.9553 56.3522 63.8788 54.1891 66.6368 54.1891Z" fill="#064372"/>
<path d="M66.6368 57.3807C66.8412 57.3765 67.0443 57.4143 67.2341 57.4916C67.4238 57.569 67.5963 57.6844 67.7412 57.831C67.8862 57.9776 68.0007 58.1523 68.0778 58.3448C68.155 58.5374 68.1932 58.7437 68.1903 58.9516C68.1903 59.8988 67.5417 60.5512 66.6367 60.5512C65.6969 60.5512 65.0832 59.8924 65.0832 58.9516C65.0801 58.7436 65.1183 58.5372 65.1954 58.3446C65.2725 58.152 65.3869 57.9772 65.5319 57.8306C65.6769 57.6839 65.8495 57.5685 66.0394 57.4912C66.2292 57.414 66.4324 57.3763 66.6368 57.3807Z" fill="white"/>
<path d="M61.2796 40.908C61.2804 40.7398 61.3467 40.5787 61.464 40.4601C61.5813 40.3414 61.74 40.2749 61.9054 40.2749C63.7574 40.2729 66.4642 40.2636 68.0953 40.2636C68.3232 40.2536 68.5506 40.292 68.7631 40.3763C69.0008 40.515 69.2009 40.7116 69.3455 40.9484C70.3153 42.2775 71.9116 44.7143 73.2027 46.7862C73.3057 46.9514 73.3582 47.1441 73.3533 47.3397C73.3484 47.5353 73.2864 47.725 73.1752 47.8847C73.064 48.0444 72.9086 48.1669 72.7288 48.2365C72.549 48.3061 72.3529 48.3198 72.1654 48.2758C68.8126 47.491 64.4654 46.4951 61.7254 45.8222C61.5919 45.7894 61.4733 45.7117 61.3887 45.6017C61.3041 45.4917 61.2585 45.3559 61.2593 45.2163C61.2656 43.89 61.2749 41.9152 61.2796 40.908Z" fill="white"/>
<path d="M76.2933 55.2022C76.2845 53.9513 76.2731 52.7003 76.2593 51.4495C76.2541 50.9117 76.2493 50.3739 76.245 49.836C76.2429 49.5698 76.2411 49.3035 76.2397 49.0371C76.2521 48.7487 76.2432 48.4598 76.2131 48.1728C76.1274 47.6258 75.857 47.1502 75.582 46.6826C75.3494 46.2885 75.1122 45.8968 74.8702 45.5075C74.3015 44.5893 73.7186 43.6803 73.1213 42.7806C72.5552 41.9234 71.9787 41.0732 71.3917 40.23C71.1436 39.8753 70.9074 39.4957 70.6277 39.1658C70.48 38.9699 70.2697 38.8325 70.0331 38.7773C69.8494 38.7529 69.6638 38.7461 69.4788 38.7569H60.0508C59.8695 38.7326 59.6851 38.7665 59.5236 38.8539C59.4463 38.9069 59.3827 38.9782 59.3384 39.0618C59.2941 39.1453 59.2704 39.2385 59.2694 39.3334C59.2527 39.8538 58.4555 39.857 58.4721 39.3334C58.4764 39.0522 58.563 38.7786 58.721 38.5477C58.879 38.3169 59.1012 38.1392 59.3591 38.0375C59.7118 37.898 60.1246 37.9461 60.497 37.9461H68.836C69.2071 37.9461 69.5903 37.9191 69.96 37.9546C70.6315 38.0191 71.0605 38.3964 71.4464 38.9299C72.0377 39.7469 72.609 40.5788 73.1726 41.4158C73.8024 42.3515 74.4201 43.2957 75.0255 44.2484C75.5698 45.1067 76.1603 45.969 76.6106 46.8834C76.8953 47.4575 77.0409 48.0924 77.0353 48.7352C77.0382 49.313 77.0422 49.8909 77.0474 50.4688C77.0582 51.6942 77.072 52.9197 77.0825 54.1452C77.0854 54.4973 77.0882 54.8495 77.0906 55.2017C77.0942 55.7235 76.297 55.7242 76.2933 55.2017V55.2022Z" fill="#2D8B38"/>
<path d="M76.2933 55.2022C76.2845 53.9513 76.2731 52.7003 76.2593 51.4495C76.2541 50.9117 76.2493 50.3739 76.245 49.836C76.2429 49.5698 76.2411 49.3035 76.2397 49.0371C76.2521 48.7487 76.2432 48.4598 76.2131 48.1728C76.1274 47.6258 75.857 47.1502 75.582 46.6826C75.3494 46.2885 75.1122 45.8968 74.8702 45.5075C74.3015 44.5893 73.7186 43.6803 73.1213 42.7806C72.5552 41.9234 71.9787 41.0732 71.3917 40.23C71.1436 39.8753 70.9074 39.4957 70.6277 39.1658C70.48 38.9699 70.2697 38.8325 70.0331 38.7773C69.8494 38.7529 69.6638 38.7461 69.4788 38.7569H60.0508C59.8695 38.7326 59.6851 38.7665 59.5236 38.8539C59.4463 38.9069 59.3827 38.9782 59.3384 39.0618C59.2941 39.1453 59.2704 39.2385 59.2694 39.3334C59.2527 39.8538 58.4555 39.857 58.4721 39.3334C58.4764 39.0522 58.563 38.7786 58.721 38.5477C58.879 38.3169 59.1012 38.1392 59.3591 38.0375C59.7118 37.898 60.1246 37.9461 60.497 37.9461H68.836C69.2071 37.9461 69.5903 37.9191 69.96 37.9546C70.6315 38.0191 71.0605 38.3964 71.4464 38.9299C72.0377 39.7469 72.609 40.5788 73.1726 41.4158C73.8024 42.3515 74.4201 43.2957 75.0255 44.2484C75.5698 45.1067 76.1603 45.969 76.6106 46.8834C76.8953 47.4575 77.0409 48.0924 77.0353 48.7352C77.0382 49.313 77.0422 49.8909 77.0474 50.4688C77.0582 51.6942 77.072 52.9197 77.0825 54.1452C77.0854 54.4973 77.0882 54.8495 77.0906 55.2017C77.0942 55.7235 76.297 55.7242 76.2933 55.2017V55.2022Z" fill="#064372"/>
<path d="M60.881 40.908C60.8842 40.7456 60.9238 40.586 60.9968 40.4414C61.0698 40.2969 61.1742 40.1711 61.3021 40.0737C61.5402 39.9156 61.8238 39.8437 62.1071 39.8694C62.691 39.8685 63.2748 39.8673 63.8584 39.866C65.0465 39.8633 66.2346 39.8609 67.4226 39.8587C67.9807 39.8587 68.6424 39.7743 69.1223 40.1226C69.5493 40.4323 69.8405 40.9469 70.1409 41.3767C70.845 42.3835 71.5213 43.4103 72.1887 44.4425C72.5512 45.0033 72.9103 45.5663 73.266 46.1316C73.5748 46.6232 73.882 47.102 73.6978 47.7091C73.6189 47.9705 73.467 48.203 73.2606 48.3782C73.0542 48.5535 72.8022 48.6639 72.5352 48.6962C72.2458 48.7066 71.9569 48.6666 71.6808 48.578L70.8021 48.3731C68.3421 47.8003 65.8806 47.2336 63.4234 46.6485C62.9085 46.5256 62.3936 46.4018 61.8787 46.2769C61.5964 46.208 61.3248 46.1399 61.1233 45.9097C60.9326 45.6762 60.8385 45.3765 60.8609 45.0739C60.8666 43.9082 60.8721 42.7427 60.8775 41.5774C60.8787 41.3547 60.8798 41.1318 60.8807 40.9088C60.8832 40.3874 61.6804 40.3862 61.6779 40.9088C61.6733 41.9099 61.6686 42.911 61.6638 43.9119C61.6627 44.1798 61.6614 44.4477 61.66 44.7156C61.66 44.8871 61.6004 45.185 61.6874 45.3306C61.7719 45.472 62.0239 45.4794 62.1706 45.5151C62.4017 45.5714 62.6328 45.6274 62.864 45.683C65.0699 46.2137 67.2804 46.7243 69.4902 47.237C70.0531 47.3677 70.616 47.4986 71.1788 47.6297L71.9877 47.8184C72.1749 47.89 72.3782 47.9065 72.5742 47.8658C72.7177 47.8129 72.8348 47.7046 72.9002 47.5643C72.9655 47.424 72.9737 47.2631 72.923 47.1167C72.8106 46.8818 72.6757 46.6587 72.5204 46.4507C72.3594 46.1945 72.1976 45.9392 72.0349 45.6847C71.3988 44.6869 70.7506 43.6971 70.0904 42.7155C69.8139 42.3063 69.5345 41.899 69.2485 41.4967C69.1241 41.3217 69.004 41.1396 68.8642 40.9767C68.7923 40.8839 68.701 40.8085 68.5969 40.756C68.4927 40.7036 68.3784 40.6755 68.2622 40.6737C67.7857 40.6462 67.302 40.6695 66.8249 40.6703C66.2783 40.6711 65.7317 40.6723 65.1852 40.6737L63.491 40.6776C62.9736 40.6786 62.4511 40.6577 61.9342 40.6803C61.9025 40.6773 61.8706 40.6808 61.8403 40.6907C61.81 40.7007 61.782 40.7168 61.7581 40.7381C61.7341 40.7594 61.7147 40.7855 61.701 40.8147C61.6873 40.8439 61.6796 40.8757 61.6784 40.908C61.653 41.4274 60.8556 41.4304 60.881 40.908Z" fill="#2D8B38"/>
<path d="M60.881 40.908C60.8842 40.7456 60.9238 40.586 60.9968 40.4414C61.0698 40.2969 61.1742 40.1711 61.3021 40.0737C61.5402 39.9156 61.8238 39.8437 62.1071 39.8694C62.691 39.8685 63.2748 39.8673 63.8584 39.866C65.0465 39.8633 66.2346 39.8609 67.4226 39.8587C67.9807 39.8587 68.6424 39.7743 69.1223 40.1226C69.5493 40.4323 69.8405 40.9469 70.1409 41.3767C70.845 42.3835 71.5213 43.4103 72.1887 44.4425C72.5512 45.0033 72.9103 45.5663 73.266 46.1316C73.5748 46.6232 73.882 47.102 73.6978 47.7091C73.6189 47.9705 73.467 48.203 73.2606 48.3782C73.0542 48.5535 72.8022 48.6639 72.5352 48.6962C72.2458 48.7066 71.9569 48.6666 71.6808 48.578L70.8021 48.3731C68.3421 47.8003 65.8806 47.2336 63.4234 46.6485C62.9085 46.5256 62.3936 46.4018 61.8787 46.2769C61.5964 46.208 61.3248 46.1399 61.1233 45.9097C60.9326 45.6762 60.8385 45.3765 60.8609 45.0739C60.8666 43.9082 60.8721 42.7427 60.8775 41.5774C60.8787 41.3547 60.8798 41.1318 60.8807 40.9088C60.8832 40.3874 61.6804 40.3862 61.6779 40.9088C61.6733 41.9099 61.6686 42.911 61.6638 43.9119C61.6627 44.1798 61.6614 44.4477 61.66 44.7156C61.66 44.8871 61.6004 45.185 61.6874 45.3306C61.7719 45.472 62.0239 45.4794 62.1706 45.5151C62.4017 45.5714 62.6328 45.6274 62.864 45.683C65.0699 46.2137 67.2804 46.7243 69.4902 47.237C70.0531 47.3677 70.616 47.4986 71.1788 47.6297L71.9877 47.8184C72.1749 47.89 72.3782 47.9065 72.5742 47.8658C72.7177 47.8129 72.8348 47.7046 72.9002 47.5643C72.9655 47.424 72.9737 47.2631 72.923 47.1167C72.8106 46.8818 72.6757 46.6587 72.5204 46.4507C72.3594 46.1945 72.1976 45.9392 72.0349 45.6847C71.3988 44.6869 70.7506 43.6971 70.0904 42.7155C69.8139 42.3063 69.5345 41.899 69.2485 41.4967C69.1241 41.3217 69.004 41.1396 68.8642 40.9767C68.7923 40.8839 68.701 40.8085 68.5969 40.756C68.4927 40.7036 68.3784 40.6755 68.2622 40.6737C67.7857 40.6462 67.302 40.6695 66.8249 40.6703C66.2783 40.6711 65.7317 40.6723 65.1852 40.6737L63.491 40.6776C62.9736 40.6786 62.4511 40.6577 61.9342 40.6803C61.9025 40.6773 61.8706 40.6808 61.8403 40.6907C61.81 40.7007 61.782 40.7168 61.7581 40.7381C61.7341 40.7594 61.7147 40.7855 61.701 40.8147C61.6873 40.8439 61.6796 40.8757 61.6784 40.908C61.653 41.4274 60.8556 41.4304 60.881 40.908Z" fill="#064372"/>
<path d="M24.3911 59.5488C22.5543 59.5488 20.7175 59.5481 18.8807 59.5465C18.4788 59.5465 18.0765 59.5488 17.6744 59.5465C17.5081 59.5547 17.342 59.525 17.1884 59.4596C17.0348 59.3942 16.8975 59.2948 16.7865 59.1686C16.4332 58.7423 16.5288 58.1323 16.5293 57.6124C16.53 56.5913 16.531 55.5703 16.5323 54.5494C16.5352 52.1519 16.5386 49.7546 16.5425 47.3574C16.5462 44.8332 16.5501 42.3089 16.5541 39.7846C16.5574 37.6 16.5604 35.4154 16.5629 33.2308C16.5629 32.7928 16.5633 32.355 16.5642 31.9171C16.5642 31.3612 16.531 30.7768 17.06 30.438C17.4563 30.1832 18.0543 30.2707 18.5095 30.2707H21.7679L26.3334 30.2691L31.7524 30.268L37.6407 30.2667L43.5477 30.2655L49.0222 30.2643L53.6806 30.2633H57.0689C57.429 30.2633 57.7893 30.2599 58.1485 30.2633C58.2946 30.2592 58.4399 30.2851 58.5759 30.3394C58.7118 30.3937 58.8356 30.4753 58.9399 30.5794C59.0441 30.6834 59.1266 30.8078 59.1825 30.945C59.2384 31.0823 59.2665 31.2296 59.2652 31.3781C59.268 31.6325 59.2637 31.8872 59.263 32.1418C59.2589 33.617 59.2548 35.0921 59.2507 36.5673L59.2341 42.4015C59.2285 44.4673 59.223 46.5331 59.2175 48.5989C59.2129 50.4634 59.2083 52.3278 59.2037 54.1923C59.2008 55.5064 59.1981 56.8206 59.1958 58.1349C59.1958 58.4711 59.1954 58.8074 59.1948 59.1436C59.1933 59.2507 59.1508 59.3529 59.0764 59.4286C59.0019 59.5043 58.9014 59.5475 58.7961 59.549L54.6994 59.546L49.4343 59.5423L43.9925 59.5389C42.4814 59.5381 40.9703 59.5372 39.4591 59.5363C38.5834 59.5363 37.7076 59.5363 36.8319 59.5363H36.6933C36.1804 59.5363 36.1796 58.7256 36.6933 58.7256C37.4661 58.7256 38.239 58.7256 39.012 58.7256L43.3653 58.7279L48.7541 58.7313L54.0932 58.7349L58.3927 58.7381H58.7956L58.397 59.1435C58.397 58.2374 58.3984 57.3314 58.4012 56.4255C58.4044 54.823 58.408 53.2205 58.4121 51.6182C58.4171 49.635 58.4222 47.6517 58.4274 45.6685L58.444 39.6005C58.4487 37.855 58.4535 36.1096 58.4585 34.3642L58.4663 32.3676L58.4686 31.5629C58.4928 31.4307 58.4732 31.2941 58.413 31.1744C58.3729 31.1328 58.3235 31.1018 58.2689 31.0841C58.2144 31.0664 58.1564 31.0626 58.1 31.0731H55.5118H51.4737L46.4525 31.0741L40.7759 31.0768L34.9208 31.0781L29.2736 31.0793L24.2441 31.0803L20.2412 31.0812C19.3835 31.0812 18.5253 31.0716 17.6677 31.0812C17.2514 31.0861 17.361 31.5996 17.3608 31.8958C17.3608 32.3253 17.3604 32.7548 17.3595 33.1841C17.3585 34.1894 17.3573 35.1945 17.3558 36.1996C17.3526 38.5643 17.3491 40.9297 17.3452 43.2956C17.3413 45.7816 17.3376 48.2677 17.3341 50.7537C17.3309 52.9249 17.3282 55.0962 17.3261 57.2675V57.9476C17.3261 58.1291 17.2728 58.4161 17.3489 58.5811C17.4568 58.8156 17.8001 58.7352 17.9998 58.7352H19.1687C20.276 58.7352 21.3839 58.7356 22.4923 58.7364C23.1252 58.7364 23.7581 58.7368 24.3911 58.7376C24.904 58.7376 24.905 59.5483 24.3911 59.5483V59.5488Z" fill="#2D8B38"/>
<path d="M24.3911 59.5488C22.5543 59.5488 20.7175 59.5481 18.8807 59.5465C18.4788 59.5465 18.0765 59.5488 17.6744 59.5465C17.5081 59.5547 17.342 59.525 17.1884 59.4596C17.0348 59.3942 16.8975 59.2948 16.7865 59.1686C16.4332 58.7423 16.5288 58.1323 16.5293 57.6124C16.53 56.5913 16.531 55.5703 16.5323 54.5494C16.5352 52.1519 16.5386 49.7546 16.5425 47.3574C16.5462 44.8332 16.5501 42.3089 16.5541 39.7846C16.5574 37.6 16.5604 35.4154 16.5629 33.2308C16.5629 32.7928 16.5633 32.355 16.5642 31.9171C16.5642 31.3612 16.531 30.7768 17.06 30.438C17.4563 30.1832 18.0543 30.2707 18.5095 30.2707H21.7679L26.3334 30.2691L31.7524 30.268L37.6407 30.2667L43.5477 30.2655L49.0222 30.2643L53.6806 30.2633H57.0689C57.429 30.2633 57.7893 30.2599 58.1485 30.2633C58.2946 30.2592 58.4399 30.2851 58.5759 30.3394C58.7118 30.3937 58.8356 30.4753 58.9399 30.5794C59.0441 30.6834 59.1266 30.8078 59.1825 30.945C59.2384 31.0823 59.2665 31.2296 59.2652 31.3781C59.268 31.6325 59.2637 31.8872 59.263 32.1418C59.2589 33.617 59.2548 35.0921 59.2507 36.5673L59.2341 42.4015C59.2285 44.4673 59.223 46.5331 59.2175 48.5989C59.2129 50.4634 59.2083 52.3278 59.2037 54.1923C59.2008 55.5064 59.1981 56.8206 59.1958 58.1349C59.1958 58.4711 59.1954 58.8074 59.1948 59.1436C59.1933 59.2507 59.1508 59.3529 59.0764 59.4286C59.0019 59.5043 58.9014 59.5475 58.7961 59.549L54.6994 59.546L49.4343 59.5423L43.9925 59.5389C42.4814 59.5381 40.9703 59.5372 39.4591 59.5363C38.5834 59.5363 37.7076 59.5363 36.8319 59.5363H36.6933C36.1804 59.5363 36.1796 58.7256 36.6933 58.7256C37.4661 58.7256 38.239 58.7256 39.012 58.7256L43.3653 58.7279L48.7541 58.7313L54.0932 58.7349L58.3927 58.7381H58.7956L58.397 59.1435C58.397 58.2374 58.3984 57.3314 58.4012 56.4255C58.4044 54.823 58.408 53.2205 58.4121 51.6182C58.4171 49.635 58.4222 47.6517 58.4274 45.6685L58.444 39.6005C58.4487 37.855 58.4535 36.1096 58.4585 34.3642L58.4663 32.3676L58.4686 31.5629C58.4928 31.4307 58.4732 31.2941 58.413 31.1744C58.3729 31.1328 58.3235 31.1018 58.2689 31.0841C58.2144 31.0664 58.1564 31.0626 58.1 31.0731H55.5118H51.4737L46.4525 31.0741L40.7759 31.0768L34.9208 31.0781L29.2736 31.0793L24.2441 31.0803L20.2412 31.0812C19.3835 31.0812 18.5253 31.0716 17.6677 31.0812C17.2514 31.0861 17.361 31.5996 17.3608 31.8958C17.3608 32.3253 17.3604 32.7548 17.3595 33.1841C17.3585 34.1894 17.3573 35.1945 17.3558 36.1996C17.3526 38.5643 17.3491 40.9297 17.3452 43.2956C17.3413 45.7816 17.3376 48.2677 17.3341 50.7537C17.3309 52.9249 17.3282 55.0962 17.3261 57.2675V57.9476C17.3261 58.1291 17.2728 58.4161 17.3489 58.5811C17.4568 58.8156 17.8001 58.7352 17.9998 58.7352H19.1687C20.276 58.7352 21.3839 58.7356 22.4923 58.7364C23.1252 58.7364 23.7581 58.7368 24.3911 58.7376C24.904 58.7376 24.905 59.5483 24.3911 59.5483V59.5488Z" fill="#064372"/>
<path d="M60.7333 59.5488C60.0866 59.5488 59.44 59.5484 58.7933 59.5477C58.6876 59.5477 58.5862 59.505 58.5115 59.4289C58.4367 59.3529 58.3947 59.2498 58.3947 59.1423C58.3947 59.0348 58.4367 58.9316 58.5115 58.8556C58.5862 58.7796 58.6876 58.7369 58.7933 58.7369C59.44 58.7369 60.0866 58.7373 60.7333 58.7381C60.839 58.7381 60.9404 58.7808 61.0152 58.8568C61.0899 58.9328 61.1319 59.0359 61.1319 59.1435C61.1319 59.251 61.0899 59.3541 61.0152 59.4301C60.9404 59.5061 60.839 59.5488 60.7333 59.5488Z" fill="#2D8B38"/>
<path d="M60.7333 59.5488C60.0866 59.5488 59.44 59.5484 58.7933 59.5477C58.6876 59.5477 58.5862 59.505 58.5115 59.4289C58.4367 59.3529 58.3947 59.2498 58.3947 59.1423C58.3947 59.0348 58.4367 58.9316 58.5115 58.8556C58.5862 58.7796 58.6876 58.7369 58.7933 58.7369C59.44 58.7369 60.0866 58.7373 60.7333 58.7381C60.839 58.7381 60.9404 58.7808 61.0152 58.8568C61.0899 58.9328 61.1319 59.0359 61.1319 59.1435C61.1319 59.251 61.0899 59.3541 61.0152 59.4301C60.9404 59.5061 60.839 59.5488 60.7333 59.5488Z" fill="#064372"/>
<path d="M72.9748 54.8918C73.7831 54.8918 74.5915 54.8901 75.3998 54.8867L76.113 54.885C76.376 54.8612 76.6408 54.8668 76.9026 54.9019C77.0111 54.9275 77.1123 54.9779 77.1987 55.0494C77.285 55.1208 77.3542 55.2114 77.4009 55.3142C77.5035 55.5368 77.4726 55.7978 77.4738 56.0375C77.476 56.5235 77.479 57.0092 77.4828 57.4947C77.4856 57.9602 77.4329 58.393 77.1517 58.7776C76.8971 59.1337 76.5203 59.3796 76.0959 59.4666C75.6395 59.5532 75.143 59.5048 74.6801 59.5071C73.9362 59.5112 73.1919 59.5184 72.4478 59.5189C71.9349 59.5189 71.9341 58.7082 72.4478 58.7082C72.9808 58.7082 73.5136 58.7028 74.0465 58.6999L75.2958 58.6931C75.6343 58.6914 75.9741 58.7308 76.2703 58.5344C76.3835 58.4584 76.479 58.3583 76.5502 58.2409C76.6214 58.1236 76.6666 57.9919 76.6827 57.855C76.7079 57.3975 76.7068 56.9389 76.6792 56.4816C76.6781 56.2936 76.6771 56.1056 76.6762 55.9174C76.6762 55.8409 76.6681 55.7595 76.6762 55.6833C76.696 55.4787 76.7069 55.7936 76.7427 55.6944C76.5331 55.7109 76.3226 55.7113 76.113 55.6958L75.3998 55.6975C74.5915 55.6995 73.7831 55.7012 72.9748 55.7025C72.4617 55.7025 72.4609 54.8918 72.9748 54.8918Z" fill="#2D8B38"/>
<path d="M72.9748 54.8918C73.7831 54.8918 74.5915 54.8901 75.3998 54.8867L76.113 54.885C76.376 54.8612 76.6408 54.8668 76.9026 54.9019C77.0111 54.9275 77.1123 54.9779 77.1987 55.0494C77.285 55.1208 77.3542 55.2114 77.4009 55.3142C77.5035 55.5368 77.4726 55.7978 77.4738 56.0375C77.476 56.5235 77.479 57.0092 77.4828 57.4947C77.4856 57.9602 77.4329 58.393 77.1517 58.7776C76.8971 59.1337 76.5203 59.3796 76.0959 59.4666C75.6395 59.5532 75.143 59.5048 74.6801 59.5071C73.9362 59.5112 73.1919 59.5184 72.4478 59.5189C71.9349 59.5189 71.9341 58.7082 72.4478 58.7082C72.9808 58.7082 73.5136 58.7028 74.0465 58.6999L75.2958 58.6931C75.6343 58.6914 75.9741 58.7308 76.2703 58.5344C76.3835 58.4584 76.479 58.3583 76.5502 58.2409C76.6214 58.1236 76.6666 57.9919 76.6827 57.855C76.7079 57.3975 76.7068 56.9389 76.6792 56.4816C76.6781 56.2936 76.6771 56.1056 76.6762 55.9174C76.6762 55.8409 76.6681 55.7595 76.6762 55.6833C76.696 55.4787 76.7069 55.7936 76.7427 55.6944C76.5331 55.7109 76.3226 55.7113 76.113 55.6958L75.3998 55.6975C74.5915 55.6995 73.7831 55.7012 72.9748 55.7025C72.4617 55.7025 72.4609 54.8918 72.9748 54.8918Z" fill="#064372"/>
<path d="M61.0321 49.242C61.0334 49.0721 61.0803 48.9058 61.1677 48.761C61.2551 48.6162 61.3797 48.4985 61.5281 48.4204C61.8169 48.2728 62.1689 48.3204 62.4823 48.3204H63.5368C63.8335 48.3204 64.1906 48.2697 64.4731 48.3756C64.6289 48.4371 64.7654 48.5406 64.8679 48.6749C64.9704 48.8092 65.0351 48.9693 65.055 49.1381C65.0749 49.3069 65.0494 49.478 64.981 49.6332C64.9127 49.7883 64.8042 49.9217 64.6671 50.019C64.3916 50.2115 64.0507 50.1732 63.7338 50.1732H62.2021C62.024 50.1873 61.8448 50.1739 61.6706 50.1335C61.4849 50.0729 61.3229 49.9539 61.208 49.7936C61.0932 49.6333 61.0313 49.44 61.0315 49.2416C61.024 48.8067 61.6884 48.8067 61.6958 49.2416C61.6933 49.3041 61.7141 49.3652 61.7542 49.4126C61.7943 49.4599 61.8507 49.49 61.9118 49.4967C62.1418 49.5112 62.3724 49.5112 62.6024 49.4967H64.0833C64.2313 49.4967 64.3713 49.4665 64.4028 49.294C64.4149 49.2367 64.4067 49.1769 64.3799 49.1251C64.353 49.0732 64.3091 49.0326 64.2559 49.0102C64.1685 48.9891 64.0783 48.9834 63.9891 48.9933H62.0214C61.8566 48.9933 61.7007 49.0416 61.6965 49.2393C61.6872 49.6757 61.0228 49.6773 61.0321 49.242Z" fill="#2D8B38"/>
<path d="M61.0321 49.242C61.0334 49.0721 61.0803 48.9058 61.1677 48.761C61.2551 48.6162 61.3797 48.4985 61.5281 48.4204C61.8169 48.2728 62.1689 48.3204 62.4823 48.3204H63.5368C63.8335 48.3204 64.1906 48.2697 64.4731 48.3756C64.6289 48.4371 64.7654 48.5406 64.8679 48.6749C64.9704 48.8092 65.0351 48.9693 65.055 49.1381C65.0749 49.3069 65.0494 49.478 64.981 49.6332C64.9127 49.7883 64.8042 49.9217 64.6671 50.019C64.3916 50.2115 64.0507 50.1732 63.7338 50.1732H62.2021C62.024 50.1873 61.8448 50.1739 61.6706 50.1335C61.4849 50.0729 61.3229 49.9539 61.208 49.7936C61.0932 49.6333 61.0313 49.44 61.0315 49.2416C61.024 48.8067 61.6884 48.8067 61.6958 49.2416C61.6933 49.3041 61.7141 49.3652 61.7542 49.4126C61.7943 49.4599 61.8507 49.49 61.9118 49.4967C62.1418 49.5112 62.3724 49.5112 62.6024 49.4967H64.0833C64.2313 49.4967 64.3713 49.4665 64.4028 49.294C64.4149 49.2367 64.4067 49.1769 64.3799 49.1251C64.353 49.0732 64.3091 49.0326 64.2559 49.0102C64.1685 48.9891 64.0783 48.9834 63.9891 48.9933H62.0214C61.8566 48.9933 61.7007 49.0416 61.6965 49.2393C61.6872 49.6757 61.0228 49.6773 61.0321 49.242Z" fill="#064372"/>
<path d="M56.86 56.539C56.057 56.539 55.2539 56.5393 54.4507 56.54L49.8831 56.5424L44.4978 56.5452L39.562 56.5476C38.5129 56.5476 37.4639 56.548 36.415 56.5488H36.2157C35.7028 56.5488 35.702 55.738 36.2157 55.738C37.1611 55.738 38.1065 55.738 39.0519 55.738L43.8389 55.7356L49.237 55.7328L53.9788 55.7302C54.894 55.7302 55.8092 55.7298 56.7243 55.7291H56.8597C57.3726 55.7291 57.3736 56.5398 56.8597 56.5398L56.86 56.539Z" fill="#2D8B38"/>
<path d="M56.86 56.539C56.057 56.539 55.2539 56.5393 54.4507 56.54L49.8831 56.5424L44.4978 56.5452L39.562 56.5476C38.5129 56.5476 37.4639 56.548 36.415 56.5488H36.2157C35.7028 56.5488 35.702 55.738 36.2157 55.738C37.1611 55.738 38.1065 55.738 39.0519 55.738L43.8389 55.7356L49.237 55.7328L53.9788 55.7302C54.894 55.7302 55.8092 55.7298 56.7243 55.7291H56.8597C57.3726 55.7291 57.3736 56.5398 56.8597 56.5398L56.86 56.539Z" fill="#064372"/>
<path d="M56.86 33.9287H55.5442H52.7269L48.7852 33.9297L44.0432 33.9311L38.8734 33.9324L33.656 33.9339L28.7042 33.9353L24.3986 33.9365H21.0973H19.159H18.9346C18.4217 33.9365 18.4209 33.1257 18.9346 33.1257H20.4899H23.4945L27.5715 33.1259L32.3977 33.1245L37.5996 33.1232L42.7983 33.1216L47.6787 33.1203L51.8612 33.1191H54.9875H56.6982H56.8595C57.3724 33.1191 57.3734 33.9299 56.8595 33.9299L56.86 33.9287Z" fill="#2D8B38"/>
<path d="M56.86 33.9287H55.5442H52.7269L48.7852 33.9297L44.0432 33.9311L38.8734 33.9324L33.656 33.9339L28.7042 33.9353L24.3986 33.9365H21.0973H19.159H18.9346C18.4217 33.9365 18.4209 33.1257 18.9346 33.1257H20.4899H23.4945L27.5715 33.1259L32.3977 33.1245L37.5996 33.1232L42.7983 33.1216L47.6787 33.1203L51.8612 33.1191H54.9875H56.6982H56.8595C57.3724 33.1191 57.3734 33.9299 56.8595 33.9299L56.86 33.9287Z" fill="#064372"/>
<path d="M24.8063 56.539C22.8492 56.539 20.8922 56.5488 18.9351 56.5488C18.4222 56.5488 18.4213 55.738 18.9351 55.738C20.8922 55.738 22.8492 55.7284 24.8063 55.7282C25.3194 55.7282 25.3202 56.539 24.8063 56.539Z" fill="#2D8B38"/>
<path d="M24.8063 56.539C22.8492 56.539 20.8922 56.5488 18.9351 56.5488C18.4222 56.5488 18.4213 55.738 18.9351 55.738C20.8922 55.738 22.8492 55.7284 24.8063 55.7282C25.3194 55.7282 25.3202 56.539 24.8063 56.539Z" fill="#064372"/>
<path d="M76.5455 51.66C76.2839 51.66 76.0225 51.6637 75.761 51.6669L75.3215 51.6725C75.2436 51.6608 75.1641 51.6709 75.0913 51.7015C74.9656 51.786 75.0005 51.9615 75.0005 52.1069V55.2029C75.0005 55.7247 74.2032 55.7255 74.2032 55.2029V52.4162C74.2032 51.8873 74.17 51.3125 74.6902 51.0044C74.9862 50.8287 75.3305 50.8615 75.6599 50.8575C75.955 50.8537 76.2502 50.8495 76.5455 50.8492C77.0584 50.8492 77.0592 51.66 76.5455 51.66Z" fill="#2D8B38"/>
<path d="M76.5455 51.66C76.2839 51.66 76.0225 51.6637 75.761 51.6669L75.3215 51.6725C75.2436 51.6608 75.1641 51.6709 75.0913 51.7015C74.9656 51.786 75.0005 51.9615 75.0005 52.1069V55.2029C75.0005 55.7247 74.2032 55.7255 74.2032 55.2029V52.4162C74.2032 51.8873 74.17 51.3125 74.6902 51.0044C74.9862 50.8287 75.3305 50.8615 75.6599 50.8575C75.955 50.8537 76.2502 50.8495 76.5455 50.8492C77.0584 50.8492 77.0592 51.66 76.5455 51.66Z" fill="#064372"/>
<path d="M69.2962 38.4743C69.2021 38.11 68.9474 37.8941 68.6447 37.6993C68.3956 37.5392 68.1456 37.383 67.8943 37.2279C67.2308 36.8188 66.5617 36.4192 65.8909 36.0227C64.414 35.1499 62.9277 34.2937 61.4321 33.4542C61.0716 33.2329 60.6765 33.076 60.264 32.9902C60.1156 32.9591 59.9649 32.9412 59.8135 32.9367C59.668 32.935 59.5222 32.9412 59.377 32.9512C59.3247 32.9512 59.2728 32.9407 59.2245 32.9204C59.1761 32.9 59.1322 32.8701 59.0951 32.8325C59.0581 32.7948 59.0288 32.7501 59.0087 32.701C58.9887 32.6518 58.9784 32.5991 58.9784 32.5458C58.9784 32.4926 58.9887 32.4399 59.0087 32.3907C59.0288 32.3415 59.0581 32.2968 59.0951 32.2592C59.1322 32.2215 59.1761 32.1917 59.2245 32.1713C59.2728 32.1509 59.3247 32.1404 59.377 32.1404C60.0874 32.0863 60.7992 32.2241 61.4402 32.5399C62.2219 32.9284 62.9736 33.396 63.731 33.8309C65.2496 34.7028 66.764 35.584 68.2559 36.5026C68.9756 36.9458 69.8338 37.362 70.065 38.2593C70.1954 38.7643 69.4267 38.9799 69.2962 38.4748V38.4743Z" fill="#2D8B38"/>
<path d="M69.2962 38.4743C69.2021 38.11 68.9474 37.8941 68.6447 37.6993C68.3956 37.5392 68.1456 37.383 67.8943 37.2279C67.2308 36.8188 66.5617 36.4192 65.8909 36.0227C64.414 35.1499 62.9277 34.2937 61.4321 33.4542C61.0716 33.2329 60.6765 33.076 60.264 32.9902C60.1156 32.9591 59.9649 32.9412 59.8135 32.9367C59.668 32.935 59.5222 32.9412 59.377 32.9512C59.3247 32.9512 59.2728 32.9407 59.2245 32.9204C59.1761 32.9 59.1322 32.8701 59.0951 32.8325C59.0581 32.7948 59.0288 32.7501 59.0087 32.701C58.9887 32.6518 58.9784 32.5991 58.9784 32.5458C58.9784 32.4926 58.9887 32.4399 59.0087 32.3907C59.0288 32.3415 59.0581 32.2968 59.0951 32.2592C59.1322 32.2215 59.1761 32.1917 59.2245 32.1713C59.2728 32.1509 59.3247 32.1404 59.377 32.1404C60.0874 32.0863 60.7992 32.2241 61.4402 32.5399C62.2219 32.9284 62.9736 33.396 63.731 33.8309C65.2496 34.7028 66.764 35.584 68.2559 36.5026C68.9756 36.9458 69.8338 37.362 70.065 38.2593C70.1954 38.7643 69.4267 38.9799 69.2962 38.4748V38.4743Z" fill="#064372"/>
</svg>
