<svg width="94" height="95" viewBox="0 0 94 95" fill="none" xmlns="http://www.w3.org/2000/svg">
<circle cx="47" cy="47.199" r="47" fill="black" fill-opacity="0.2"/>
<path d="M62.3669 61.9244L62.4399 61.6853L62.4394 61.6852C61.4981 61.3981 60.5043 61.0949 58.823 61.0949C57.2144 61.0949 55.1075 61.3693 52.2043 61.951C46.5519 63.0835 44.3751 63.4533 42.4784 63.4533C41.3431 63.4534 40.2469 63.3119 38.8001 63.1082L38.7652 63.3557L38.8001 63.1082C37.3465 62.9035 35.1134 62.2995 32.8636 61.5468C30.6151 60.7945 28.3715 59.901 26.8968 59.1248C26.3077 58.8147 25.9483 58.5914 25.7365 58.4015C25.5364 58.222 25.4927 58.0953 25.4927 57.967V57.894C25.4927 57.6851 25.5754 57.4718 25.6892 57.3098C25.7455 57.2297 25.8042 57.1697 25.8542 57.1323C25.8894 57.106 25.9108 57.0978 25.9181 57.0952C29.5519 58.0098 33.7467 58.9795 37.1685 59.1932L62.3669 61.9244ZM62.3669 61.9244L62.4399 61.6853C62.5839 61.7292 62.7283 61.7733 62.8777 61.817L62.8778 61.817L63.0496 61.8673C63.0496 61.8673 63.0496 61.8673 63.0496 61.8673C64.7121 62.3537 65.5516 62.5994 68.5074 63.6434V56.1652C66.2954 56.1013 64.8304 55.8754 63.7368 55.5151C62.5955 55.1391 61.8726 54.6211 61.1406 54.0202C60.9074 53.8287 60.6472 53.6254 60.3428 53.3875L60.3354 53.3817L60.4893 53.1847L60.3354 53.3817L60.3305 53.3779C59.8281 52.9853 59.2012 52.4954 58.3284 51.7745L58.3284 51.7745M62.3669 61.9244L58.3284 51.7745M58.3284 51.7745C57.5241 51.1101 56.3932 50.6187 55.1768 50.2939C53.9631 49.9699 52.6832 49.8168 51.5964 49.8168C51.3469 49.8168 51.1115 49.8252 50.897 49.8418L50.8969 49.8419M58.3284 51.7745L50.8969 49.8419M50.8969 49.8419C49.6943 49.9343 47.918 50.1498 46.0278 50.3791L46.0272 50.3792C43.9357 50.633 41.7611 50.8968 40.348 50.9883L40.3333 50.7612M50.8969 49.8419L40.3333 50.7612M40.3333 50.7612L40.348 50.9883C40.1799 50.9991 40.053 51.0604 39.9648 51.15M40.3333 50.7612L39.9648 51.15M39.9648 51.15C39.8764 51.24 39.8125 51.3731 39.7978 51.552M39.9648 51.15L39.7978 51.552M39.7978 51.552C39.7933 51.6249 39.7876 51.9688 39.7853 52.246C39.7857 52.2878 39.8119 52.3513 39.9419 52.4183C40.0685 52.4835 40.2375 52.5182 40.3726 52.5182H47.4052C48.1362 52.5182 48.7386 53.0915 48.7749 53.8216C48.7815 53.9544 48.878 56.6469 46.0897 58.1074C45.6946 58.3144 45.0863 58.4816 44.3931 58.6186C43.693 58.757 42.8823 58.8689 42.067 58.9566C40.4372 59.132 38.7725 59.2127 37.9068 59.2127C37.6255 59.2127 37.3768 59.2063 37.1686 59.1932L39.7978 51.552ZM37.3395 56.4559L37.3396 56.4559C37.4877 56.4652 37.6781 56.4701 37.9068 56.4701C39.119 56.4701 40.6897 56.3579 42.0458 56.1995C42.7235 56.1203 43.3441 56.03 43.8369 55.9372C44.3429 55.842 44.6798 55.7498 44.8171 55.6779C45.061 55.5501 45.255 55.4075 45.4097 55.2608H40.3726C38.9487 55.2608 37.7382 54.4843 37.2598 53.3311H26.2862C24.6901 53.3311 23.392 52.033 23.392 50.4369V30.3338C23.392 28.7377 24.6901 27.4396 26.2862 27.4396H49.4322C51.0282 27.4396 52.3263 28.7377 52.3263 30.3337V47.0927C54.7336 47.2115 57.9695 47.9205 60.075 49.6598C60.9218 50.3592 61.5322 50.8362 62.0239 51.2204C62.3418 51.4688 62.6191 51.6855 62.8808 51.9003L62.7324 52.0811L62.8808 51.9003C63.395 52.3226 63.8497 52.6958 64.8075 52.9737C65.7806 53.256 67.2805 53.4411 69.8787 53.4411C70.6361 53.4411 71.25 54.0551 71.25 54.8124V65.587C71.25 66.0331 71.033 66.4514 70.6682 66.7082L70.6682 66.7083C70.4339 66.8732 70.1576 66.9583 69.8786 66.9583C69.723 66.9583 69.5667 66.9318 69.4165 66.878L69.5007 66.6427L69.4165 66.878C64.9804 65.2897 64.1893 65.0583 62.2865 64.5015L62.2794 64.4995L62.2794 64.4994L62.1073 64.4491L62.1071 64.4491C61.9463 64.402 61.7911 64.3547 61.6397 64.3085L61.6396 64.3085L61.6391 64.3083C60.7644 64.0415 60.0954 63.8375 58.8229 63.8375C57.4164 63.8375 55.4887 64.09 52.7429 64.6402C47.3694 65.7168 44.7493 66.196 42.4784 66.196H42.4783C41.1577 66.196 39.9537 66.0403 38.4176 65.824C36.7932 65.5953 34.4006 64.9511 32.0187 64.1558C29.6356 63.3602 27.2432 62.4065 25.6192 61.5517L25.6099 61.5468C25.1024 61.2797 24.3926 60.9062 23.811 60.3486C23.2193 59.7813 22.7498 59.0136 22.7498 57.967V57.8939C22.7499 57.0552 23.0709 56.1767 23.6203 55.5054C24.1715 54.8319 24.9671 54.3515 25.9168 54.3515C26.1409 54.3515 26.3658 54.3797 26.5852 54.435C30.124 55.3257 34.1515 56.2569 37.3395 56.4559ZM49.5836 30.3338V30.3337C49.5836 30.2505 49.5155 30.1823 49.4322 30.1823H42.917V40.3719C42.917 41.1293 42.3031 41.7433 41.5456 41.7433H34.1728C33.4154 41.7433 32.8015 41.1293 32.8015 40.3719V30.1822H26.2862C26.2029 30.1822 26.1346 30.2504 26.1346 30.3338V50.4369C26.1346 50.5202 26.2029 50.5884 26.2862 50.5884H37.2047C37.6029 49.2703 38.7407 48.3437 40.1708 48.2512C41.5038 48.165 43.6297 47.9073 45.6974 47.6564C47.1075 47.4853 48.4624 47.321 49.5836 47.2075V30.3338ZM40.1743 30.1823H35.5442V39.0007H40.1743V30.1823Z" fill="white" stroke="white" stroke-width="0.5"/>
</svg>
