<svg width="94" height="95" viewBox="0 0 94 95" fill="none" xmlns="http://www.w3.org/2000/svg">
<circle cx="47" cy="47.199" r="47" fill="black" fill-opacity="0.2"/>
<path d="M35.1696 44.9345C35.1647 43.0934 35.1597 41.255 35.155 39.5324C35.1397 39.5324 35.1311 39.5324 35.1311 39.5324C35.1302 39.2711 35.0273 39.021 34.8451 38.8369C34.6628 38.6527 34.4162 38.5497 34.1593 38.5505H24.2192C24.0023 38.5453 23.7869 38.5885 23.5881 38.6768C23.34 38.8086 23.1276 39.0003 22.9694 39.2351C21.541 41.2004 19.2023 44.7288 17.9178 46.9448C17.5828 47.4689 17.3917 48.0746 17.3644 48.6991C17.3559 50.8382 17.3258 52.8101 17.3074 55.4917C17.2601 55.4846 17.2119 55.4879 17.1661 55.5014C17.1202 55.5149 17.0777 55.5383 17.0415 55.57C17.0053 55.6017 16.9763 55.641 16.9564 55.6851C16.9365 55.7293 16.9262 55.7773 16.9262 55.8258C16.925 56.4145 16.9192 57.0807 16.9146 57.9373C16.9137 58.1147 16.9472 58.2906 17.0132 58.4549C17.0792 58.6192 17.1763 58.7687 17.2991 58.8948C17.4219 59.0209 17.5679 59.1212 17.7288 59.1899C17.8897 59.2586 18.0623 59.2944 18.2368 59.2953C19.607 59.3017 21.3393 59.3122 21.5524 59.3122L33.2667 59.3421C33.5525 59.3421 34.0889 59.3421 35.2017 59.3409C35.2029 57.9204 35.1863 51.4228 35.1696 44.9345Z" fill="white"/>
<path d="M27.5012 36.1127C26.4829 36.7179 25.5943 37.2603 25.0367 37.6245C24.6889 37.8263 24.4328 38.1588 24.3237 38.5506C26.7287 38.5506 32.0205 38.5506 34.1593 38.5506C34.4161 38.5499 34.6628 38.6529 34.845 38.837C35.0273 39.0211 35.1302 39.2713 35.1311 39.5325H35.155C35.1477 36.8536 35.1409 34.4572 35.1361 32.7806L34.6237 32.7445C34.4045 32.7272 34.1843 32.7272 33.9651 32.7445C33.4686 32.7906 32.9878 32.9452 32.5555 33.1976C31.0903 34.0153 29.1301 35.1445 27.5012 36.1127Z" fill="white"/>
<path d="M69.6089 59.3424C70.7594 59.3424 72.5488 59.3394 76.4086 59.3401C76.5848 59.3401 76.7538 59.2689 76.8784 59.1422C77.003 59.0155 77.073 58.8436 77.073 58.6644C77.069 51.7517 77.0413 37.7429 77.0371 31.5496C77.0371 31.461 77.02 31.3733 76.9867 31.2915C76.9533 31.2096 76.9044 31.1353 76.8428 31.0727C76.7812 31.0101 76.7081 30.9605 76.6276 30.9267C76.5471 30.8928 76.4608 30.8755 76.3737 30.8756C71.3471 30.8756 40.7108 30.868 35.7958 30.8672C35.7086 30.867 35.6221 30.8844 35.5415 30.9183C35.4609 30.9522 35.3877 31.002 35.3261 31.0648C35.2644 31.1276 35.2156 31.2021 35.1824 31.2842C35.1492 31.3662 35.1323 31.4541 35.1326 31.5428C35.147 36.7284 35.2032 56.7175 35.2022 59.3416C40.5737 59.3374 55.7007 59.3271 57.3045 59.3282" fill="white"/>
<path d="M63.6215 54.3881C63.0058 54.3756 62.3938 54.4892 61.8222 54.7222C61.2505 54.9551 60.7307 55.3027 60.2939 55.7442C59.857 56.1857 59.512 56.712 59.2792 57.2919C59.0465 57.8718 58.9309 58.4934 58.9393 59.1196C58.9393 61.9743 60.8941 63.9406 63.6215 63.9406C66.4539 63.9406 68.3036 61.9562 68.3036 59.1196C68.3036 56.5512 66.3798 54.3881 63.6215 54.3881Z" fill="#2D8B38"/>
<path d="M63.6216 57.5797C63.4172 57.5755 63.2141 57.6132 63.0243 57.6906C62.8346 57.768 62.6621 57.8834 62.5171 58.03C62.3722 58.1765 62.2577 58.3513 62.1806 58.5438C62.1034 58.7363 62.0652 58.9427 62.0681 59.1505C62.0681 60.0978 62.7167 60.7501 63.6217 60.7501C64.5615 60.7501 65.1752 60.0914 65.1752 59.1505C65.1783 58.9426 65.1401 58.7362 65.063 58.5436C64.9859 58.351 64.8715 58.1761 64.7265 58.0295C64.5814 57.8829 64.4089 57.7675 64.219 57.6902C64.0292 57.6129 63.826 57.5753 63.6216 57.5797Z" fill="white"/>
<path d="M27.3632 54.3881C26.7474 54.3755 26.1354 54.4891 25.5637 54.722C24.9919 54.955 24.4721 55.3025 24.0352 55.744C23.5983 56.1855 23.2532 56.7118 23.0204 57.2918C22.7877 57.8717 22.6721 58.4933 22.6805 59.1196C22.6805 61.9743 24.6352 63.9406 27.3627 63.9406C30.1951 63.9406 32.0447 61.9562 32.0447 59.1196C32.0447 56.5511 30.1212 54.3881 27.3632 54.3881Z" fill="#2D8B38"/>
<path d="M27.3631 57.5797C27.1588 57.5755 26.9557 57.6132 26.7659 57.6906C26.5762 57.768 26.4037 57.8834 26.2587 58.03C26.1138 58.1765 25.9993 58.3513 25.9222 58.5438C25.845 58.7363 25.8067 58.9427 25.8097 59.1505C25.8097 60.0978 26.4583 60.7501 27.3633 60.7501C28.3031 60.7501 28.9168 60.0914 28.9168 59.1505C28.9199 58.9426 28.8817 58.7362 28.8046 58.5436C28.7275 58.351 28.613 58.1761 28.468 58.0295C28.323 57.8829 28.1504 57.7675 27.9606 57.6902C27.7708 57.6129 27.5676 57.5753 27.3631 57.5797Z" fill="white"/>
<path d="M32.7204 41.107C32.7195 40.9387 32.6532 40.7777 32.5359 40.6591C32.4187 40.5404 32.26 40.4738 32.0945 40.4739C30.2426 40.4719 27.5357 40.4626 25.9047 40.4626C25.6768 40.4526 25.4494 40.491 25.2368 40.5752C24.9992 40.714 24.7991 40.9106 24.6545 41.1473C23.6847 42.4765 22.0884 44.9132 20.7973 46.9851C20.6942 47.1504 20.6418 47.343 20.6467 47.5386C20.6516 47.7343 20.7135 47.924 20.8247 48.0837C20.9359 48.2434 21.0913 48.3658 21.2711 48.4355C21.451 48.5051 21.6471 48.5188 21.8346 48.4748C25.1873 47.69 29.5345 46.6941 32.2746 46.0211C32.408 45.9884 32.5267 45.9107 32.6113 45.8007C32.6959 45.6907 32.7415 45.5549 32.7406 45.4153C32.7343 44.089 32.725 42.1142 32.7204 41.107Z" fill="white"/>
<path d="M17.7066 55.4012C17.7155 54.1502 17.7268 52.8993 17.7407 51.6485C17.7459 51.1106 17.7506 50.5728 17.755 50.035C17.7571 49.7688 17.7588 49.5025 17.7603 49.2361C17.7478 48.9477 17.7567 48.6588 17.7869 48.3717C17.8726 47.8248 18.143 47.3491 18.418 46.8816C18.6505 46.4875 18.8878 46.0957 19.1297 45.7065C19.6984 44.7882 20.2814 43.8793 20.8787 42.9795C21.4447 42.1224 22.0213 41.2722 22.6082 40.429C22.8564 40.0742 23.0926 39.6947 23.3723 39.3648C23.5199 39.1688 23.7302 39.0314 23.9669 38.9763C24.1506 38.9519 24.3362 38.9451 24.5211 38.9559H33.9491C34.1305 38.9315 34.3148 38.9654 34.4763 39.0528C34.5537 39.1059 34.6173 39.1772 34.6616 39.2607C34.7059 39.3443 34.7296 39.4375 34.7306 39.5324C34.7472 40.0528 35.5445 40.056 35.5279 39.5324C35.5236 39.2511 35.4369 38.9776 35.2789 38.7467C35.1209 38.5159 34.8988 38.3382 34.6409 38.2365C34.2881 38.097 33.8754 38.1451 33.503 38.1451H25.1639C24.7929 38.1451 24.4097 38.1181 24.04 38.1535C23.3684 38.2181 22.9394 38.5954 22.5536 39.1288C21.9623 39.9459 21.3909 40.7778 20.8274 41.6147C20.1975 42.5505 19.5799 43.4947 18.9744 44.4474C18.4301 45.3056 17.8397 46.1679 17.3894 47.0824C17.1047 47.6564 16.9591 48.2913 16.9647 48.9342C16.9618 49.512 16.9578 50.0898 16.9526 50.6678C16.9418 51.8932 16.928 53.1187 16.9175 54.3441C16.9145 54.6963 16.9118 55.0484 16.9094 55.4007C16.9057 55.9225 17.703 55.9231 17.7066 55.4007V55.4012Z" fill="#2D8B38"/>
<path d="M33.119 41.107C33.1158 40.9445 33.0762 40.785 33.0032 40.6404C32.9303 40.4959 32.8259 40.3701 32.698 40.2727C32.4598 40.1146 32.1762 40.0426 31.8929 40.0683C31.309 40.0674 30.7253 40.0663 30.1416 40.065C28.9535 40.0623 27.7654 40.0598 26.5774 40.0577C26.0193 40.0577 25.3576 39.9732 24.8778 40.3215C24.4507 40.6313 24.1596 41.1458 23.8591 41.5757C23.155 42.5824 22.4787 43.6093 21.8113 44.6415C21.4488 45.2023 21.0897 45.7653 20.734 46.3306C20.4253 46.8221 20.118 47.301 20.3022 47.9081C20.3811 48.1695 20.533 48.4019 20.7394 48.5772C20.9458 48.7524 21.1979 48.8629 21.4649 48.8952C21.7542 48.9056 22.0432 48.8656 22.3193 48.777L23.1979 48.5721C25.6579 47.9993 28.1194 47.4326 30.5766 46.8475C31.0915 46.7246 31.6064 46.6007 32.1213 46.4759C32.4037 46.4069 32.6752 46.3389 32.8767 46.1086C33.0674 45.8752 33.1615 45.5755 33.1391 45.2729C33.1335 44.1071 33.1279 42.9417 33.1225 41.7764C33.1213 41.5536 33.1202 41.3308 33.1194 41.1078C33.1169 40.5864 32.3196 40.5852 32.3221 41.1078C32.3268 42.1089 32.3315 43.1099 32.3362 44.1109C32.3373 44.3788 32.3386 44.6467 32.34 44.9146C32.34 45.0861 32.3997 45.384 32.3126 45.5296C32.2281 45.671 31.9761 45.6784 31.8295 45.7141C31.5984 45.7704 31.3672 45.8263 31.136 45.882C28.9301 46.4127 26.7196 46.9233 24.5099 47.436C23.9469 47.5667 23.384 47.6976 22.8212 47.8287L22.0123 48.0174C21.8251 48.089 21.6218 48.1054 21.4258 48.0648C21.2823 48.0119 21.1652 47.9035 21.0999 47.7632C21.0346 47.623 21.0263 47.4621 21.077 47.3157C21.1894 47.0808 21.3243 46.8577 21.4796 46.6497C21.6406 46.3935 21.8025 46.1382 21.9651 45.8837C22.6013 44.8858 23.2494 43.8961 23.9096 42.9145C24.1861 42.5052 24.4655 42.098 24.7515 41.6956C24.8759 41.5206 24.996 41.3386 25.1359 41.1757C25.2077 41.0828 25.299 41.0074 25.4032 40.955C25.5073 40.9026 25.6216 40.8745 25.7378 40.8727C26.2143 40.8452 26.698 40.8685 27.1752 40.8693C27.7217 40.8701 28.2683 40.8712 28.8149 40.8727L30.509 40.8766C31.0264 40.8776 31.5489 40.8567 32.0658 40.8793C32.0975 40.8762 32.1295 40.8798 32.1597 40.8897C32.19 40.8997 32.218 40.9158 32.2419 40.9371C32.2659 40.9584 32.2853 40.9845 32.299 41.0137C32.3127 41.0429 32.3204 41.0746 32.3216 41.107C32.347 41.6264 33.1444 41.6294 33.119 41.107Z" fill="#2D8B38"/>
<path d="M69.6089 59.7478C71.4457 59.7478 73.2825 59.747 75.1192 59.7455C75.5212 59.7455 75.9235 59.7478 76.3256 59.7455C76.4919 59.7536 76.6579 59.7239 76.8115 59.6586C76.9651 59.5932 77.1025 59.4938 77.2135 59.3676C77.5668 58.9413 77.4711 58.3313 77.4706 57.8114C77.47 56.7903 77.469 55.7693 77.4676 54.7483C77.4648 52.3509 77.4614 49.9536 77.4575 47.5564C77.4537 45.0322 77.4499 42.5079 77.4459 39.9835C77.4426 37.7989 77.4396 35.6143 77.4371 33.4297C77.4371 32.9918 77.4366 32.5539 77.4357 32.1161C77.4357 31.5602 77.469 30.9758 76.94 30.6369C76.5437 30.3822 75.9457 30.4697 75.4905 30.4697H72.232L67.6666 30.468L62.2476 30.467L56.3592 30.4657L50.4523 30.4645L44.9778 30.4633L40.3194 30.4623H36.931C36.5709 30.4623 36.2107 30.4589 35.8514 30.4623C35.7054 30.4582 35.5601 30.484 35.4241 30.5383C35.2881 30.5926 35.1643 30.6743 35.0601 30.7783C34.9559 30.8824 34.8733 31.0068 34.8174 31.144C34.7615 31.2813 34.7334 31.4286 34.7348 31.5771C34.732 31.8315 34.7363 32.0862 34.7369 32.3408C34.741 33.8159 34.7451 35.2911 34.7492 36.7663L34.7658 42.6005C34.7715 44.6663 34.777 46.7321 34.7824 48.7979C34.7871 50.6624 34.7917 52.5268 34.7962 54.3913C34.7992 55.7054 34.8019 57.0196 34.8042 58.3339C34.8042 58.6701 34.8045 59.0063 34.8052 59.3426C34.8067 59.4496 34.8492 59.5519 34.9236 59.6276C34.998 59.7033 35.0986 59.7465 35.2038 59.748L39.3005 59.7449L44.5657 59.7412L50.0075 59.7379C51.5186 59.7371 53.0297 59.7362 54.5408 59.7353C55.4166 59.7353 56.2924 59.7353 57.1681 59.7353H57.3066C57.8195 59.7353 57.8204 58.9245 57.3066 58.9245C56.5339 58.9245 55.761 58.9245 54.988 58.9245L50.6346 58.9269L45.2459 58.9303L39.9068 58.9338L35.6073 58.937H35.2043L35.6029 59.3424C35.6029 58.4364 35.6016 57.5304 35.5988 56.6245C35.5956 55.0219 35.5919 53.4195 35.5878 51.8172C35.5829 49.8339 35.5778 47.8507 35.5726 45.8674L35.5559 39.7994C35.5513 38.054 35.5465 36.3086 35.5415 34.5631L35.5337 32.5666L35.5314 31.7619C35.5072 31.6297 35.5267 31.4931 35.587 31.3734C35.627 31.3317 35.6765 31.3007 35.731 31.2831C35.7856 31.2654 35.8436 31.2616 35.8999 31.272H38.4882H42.5262L47.5474 31.2731L53.224 31.2758L59.0792 31.2771L64.7264 31.2783L69.7559 31.2793L73.7588 31.2802C74.6165 31.2802 75.4747 31.2705 76.3322 31.2802C76.7486 31.2851 76.639 31.7985 76.6392 32.0948C76.6392 32.5243 76.6396 32.9537 76.6405 33.3831C76.6415 34.3884 76.6427 35.3935 76.6441 36.3985C76.6474 38.7633 76.6509 41.1286 76.6548 43.4946C76.6586 45.9806 76.6624 48.4667 76.6659 50.9527C76.6691 53.1239 76.6718 55.2952 76.6739 57.4665V58.1465C76.6739 58.3281 76.7272 58.6151 76.6511 58.7801C76.5432 59.0146 76.1998 58.9342 76.0002 58.9342H74.8312C73.7239 58.9342 72.6161 58.9346 71.5077 58.9353C70.8748 58.9353 70.2418 58.9357 69.6089 58.9365C69.096 58.9365 69.095 59.7473 69.6089 59.7473V59.7478Z" fill="#2D8B38"/>
<path d="M33.2667 59.7478C33.9133 59.7478 34.56 59.7474 35.2066 59.7466C35.3124 59.7466 35.4138 59.7039 35.4885 59.6279C35.5633 59.5519 35.6053 59.4488 35.6053 59.3412C35.6053 59.2337 35.5633 59.1306 35.4885 59.0546C35.4138 58.9786 35.3124 58.9359 35.2066 58.9359C34.56 58.9359 33.9133 58.9362 33.2667 58.937C33.1609 58.937 33.0596 58.9797 32.9848 59.0558C32.91 59.1318 32.868 59.2349 32.868 59.3424C32.868 59.4499 32.91 59.5531 32.9848 59.6291C33.0596 59.7051 33.1609 59.7478 33.2667 59.7478Z" fill="#2D8B38"/>
<path d="M21.0252 55.0907C20.2169 55.0907 19.4086 55.089 18.6002 55.0857L17.887 55.084C17.624 55.0602 17.3592 55.0658 17.0974 55.1009C16.989 55.1265 16.8877 55.1769 16.8013 55.2484C16.715 55.3198 16.6458 55.4104 16.5991 55.5132C16.4965 55.7358 16.5274 55.9968 16.5262 56.2365C16.524 56.7225 16.521 57.2082 16.5173 57.6937C16.5144 58.1592 16.5671 58.5919 16.8483 58.9766C17.1029 59.3327 17.4797 59.5786 17.9041 59.6656C18.3606 59.7522 18.857 59.7037 19.3199 59.7061C20.0639 59.7101 20.8081 59.7174 21.5522 59.7179C22.0651 59.7179 22.066 58.9071 21.5522 58.9071C21.0192 58.9071 20.4864 58.9017 19.9536 58.8989L18.7042 58.8921C18.3657 58.8904 18.0259 58.9298 17.7297 58.7333C17.6166 58.6574 17.5211 58.5572 17.4498 58.4399C17.3786 58.3226 17.3334 58.1909 17.3173 58.054C17.2921 57.5965 17.2933 57.1379 17.3208 56.6805C17.3219 56.4926 17.3229 56.3045 17.3238 56.1164C17.3238 56.0398 17.3319 55.9584 17.3238 55.8823C17.304 55.6777 17.2931 55.9926 17.2574 55.8934C17.4669 55.9098 17.6774 55.9103 17.887 55.8948L18.6002 55.8964C19.4086 55.8985 20.2169 55.9002 21.0252 55.9015C21.5383 55.9015 21.5391 55.0907 21.0252 55.0907Z" fill="#2D8B38"/>
<path d="M32.9679 49.441C32.9666 49.2711 32.9197 49.1048 32.8323 48.96C32.7449 48.8152 32.6203 48.6974 32.4719 48.6194C32.1831 48.4717 31.8311 48.5194 31.5177 48.5194H30.4632C30.1665 48.5194 29.8094 48.4687 29.5269 48.5746C29.3711 48.6361 29.2346 48.7396 29.1321 48.8739C29.0296 49.0082 28.9649 49.1683 28.945 49.3371C28.9251 49.5059 28.9506 49.677 29.019 49.8322C29.0873 49.9873 29.1958 50.1207 29.3329 50.2179C29.6084 50.4105 29.9493 50.3722 30.2662 50.3722H31.7979C31.976 50.3863 32.1552 50.3729 32.3294 50.3325C32.5151 50.2719 32.6771 50.1528 32.792 49.9925C32.9068 49.8322 32.9687 49.639 32.9685 49.4406C32.976 49.0057 32.3116 49.0057 32.3042 49.4406C32.3067 49.5031 32.2859 49.5642 32.2458 49.6115C32.2057 49.6589 32.1493 49.689 32.0882 49.6957C31.8582 49.7102 31.6276 49.7102 31.3976 49.6957H29.9167C29.7687 49.6957 29.6287 49.6654 29.5972 49.493C29.5851 49.4357 29.5933 49.3759 29.6201 49.324C29.647 49.2722 29.6909 49.2315 29.7441 49.2092C29.8315 49.1881 29.9217 49.1824 30.0109 49.1923H31.9786C32.1434 49.1923 32.2993 49.2406 32.3035 49.4382C32.3128 49.8747 32.9772 49.8762 32.9679 49.441Z" fill="#2D8B38"/>
<path d="M37.14 56.738C37.943 56.738 38.7461 56.7383 39.5493 56.739L44.1169 56.7414L49.5022 56.7442L54.438 56.7466C55.4871 56.7466 56.5361 56.747 57.585 56.7478H57.7843C58.2972 56.7478 58.298 55.937 57.7843 55.937C56.8389 55.937 55.8935 55.937 54.9481 55.937L50.1611 55.9346L44.763 55.9318L40.0212 55.9292C39.106 55.9292 38.1908 55.9288 37.2757 55.928H37.1403C36.6274 55.928 36.6264 56.7388 37.1403 56.7388L37.14 56.738Z" fill="#2D8B38"/>
<path d="M37.14 34.1277H38.4558H41.2731L45.2148 34.1287L49.9568 34.13L55.1266 34.1314L60.344 34.1329L65.2958 34.1343L69.6014 34.1355H72.9027H74.841H75.0654C75.5783 34.1355 75.5791 33.3247 75.0654 33.3247H73.5101H70.5055L66.4285 33.3248L61.6023 33.3235L56.4004 33.3221L51.2017 33.3206L46.3213 33.3193L42.1388 33.3181H39.0125H37.3018H37.1405C36.6276 33.3181 36.6266 34.1289 37.1405 34.1289L37.14 34.1277Z" fill="#2D8B38"/>
<path d="M69.1936 56.738C71.1507 56.738 73.1078 56.7478 75.0649 56.7478C75.5778 56.7478 75.5786 55.937 75.0649 55.937C73.1078 55.937 71.1507 55.9274 69.1936 55.9272C68.6806 55.9272 68.6797 56.738 69.1936 56.738Z" fill="#2D8B38"/>
<path d="M17.4545 51.8589C17.7161 51.8589 17.9775 51.8627 18.239 51.8659L18.6785 51.8714C18.7564 51.8598 18.8359 51.8698 18.9087 51.9005C19.0344 51.9849 18.9995 52.1604 18.9995 52.3059V55.4019C18.9995 55.9236 19.7968 55.9245 19.7968 55.4019V52.6152C19.7968 52.0863 19.83 51.5115 19.3098 51.2034C19.0138 51.0277 18.6695 51.0605 18.3401 51.0564C18.045 51.0527 17.7498 51.0485 17.4545 51.0482C16.9416 51.0482 16.9408 51.8589 17.4545 51.8589Z" fill="#2D8B38"/>
<path d="M24.7038 38.6733C24.7979 38.3089 25.0526 38.0931 25.3553 37.8983C25.6044 37.7382 25.8544 37.5819 26.1057 37.4269C26.7692 37.0178 27.4383 36.6181 28.1091 36.2217C29.586 35.3489 31.0723 34.4927 32.5679 33.6532C32.9284 33.4319 33.3235 33.275 33.736 33.1892C33.8844 33.1581 34.0351 33.1402 34.1865 33.1357C34.332 33.134 34.4778 33.1402 34.623 33.1502C34.6753 33.1502 34.7272 33.1397 34.7755 33.1193C34.8239 33.099 34.8678 33.0691 34.9049 33.0315C34.9419 32.9938 34.9712 32.9491 34.9913 32.8999C35.0113 32.8508 35.0216 32.798 35.0216 32.7448C35.0216 32.6916 35.0113 32.6388 34.9913 32.5897C34.9712 32.5405 34.9419 32.4958 34.9049 32.4581C34.8678 32.4205 34.8239 32.3906 34.7755 32.3703C34.7272 32.3499 34.6753 32.3394 34.623 32.3394C33.9126 32.2852 33.2008 32.4231 32.5598 32.7389C31.7781 33.1274 31.0264 33.5949 30.269 34.0299C28.7504 34.9018 27.236 35.783 25.7441 36.7016C25.0244 37.1448 24.1662 37.561 23.935 38.4583C23.8046 38.9633 24.5733 39.1788 24.7038 38.6738V38.6733Z" fill="#2D8B38"/>
</svg>
