<svg width="94" height="95" viewBox="0 0 94 95" fill="none" xmlns="http://www.w3.org/2000/svg">
<circle cx="47" cy="47.199" r="47" fill="black" fill-opacity="0.2"/>
<path d="M33.6491 42.3109V43.3109H34.6491H42.1341H43.8474L43.0048 41.8191L37.7348 32.4885L37.4478 31.9803H36.8641H34.6491H33.6491V32.9803V42.3109ZM37.4723 31.9378L43.9203 43.3535H33.6065V31.9378H37.4723Z" fill="white" stroke="white" stroke-width="2"/>
<path d="M71.5 56.0822V55.5822H71H56.6898V31.7906V31.2906H56.1898H54.1473H53.6473V31.7906V49.1943L40.3052 26.5758L40.1601 26.3298H39.8745H29.1931H28.6931V26.8298V46.1394H28.3418C25.6582 46.1394 23.476 48.3216 23.476 51.0048V57.0528C22.8557 58.1309 22.5 59.3802 22.5 60.7105C22.5 64.7681 25.8002 68.0681 29.8577 68.0681C33.7473 68.0681 36.9408 65.0356 37.1986 61.2104H42.9671C43.2249 65.0357 46.4185 68.0681 50.3081 68.0681C54.3656 68.0681 57.6657 64.7679 57.6657 60.7105C57.6657 59.9865 57.5601 59.2865 57.3639 58.6249H71H71.5V58.1249V56.0822ZM29.8577 53.3527C28.6566 53.3527 27.5212 53.6423 26.5184 54.1551V51.0047C26.5184 50.0003 27.3367 49.1819 28.3417 49.1819H31.2355H31.7355V48.6819V29.3724H38.4261L52.8419 53.8025C52.0515 53.5117 51.1978 53.3528 50.3081 53.3528C47.1428 53.3527 44.4402 55.3607 43.4035 58.1678H36.7624C35.7256 55.3607 33.0231 53.3527 29.8577 53.3527ZM29.8577 65.0256C27.4789 65.0256 25.5425 63.0892 25.5425 60.7105C25.5425 58.3316 27.4789 56.3953 29.8577 56.3953C32.2365 56.3953 34.1728 58.3316 34.1728 60.7105C34.1729 63.0892 32.2366 65.0256 29.8577 65.0256ZM50.3082 65.0256C47.9294 65.0256 45.993 63.0892 45.993 60.7105C45.993 58.3316 47.9294 56.3953 50.3082 56.3953C52.6869 56.3953 54.6233 58.3316 54.6233 60.7105C54.6234 63.0892 52.6869 65.0256 50.3082 65.0256Z" fill="white" stroke="white"/>
<path d="M59.9475 45.5487H59.3615C59.4361 45.5213 59.5166 45.5063 59.6004 45.5063H68.9813C69.0652 45.5063 69.1457 45.5213 69.2202 45.5487H68.6343H59.9475ZM58.9049 46.2017C58.9049 46.1178 58.9199 46.0372 58.9475 45.9626V46.5487V52.5083V53.0945C58.9199 53.0199 58.9049 52.9393 58.9049 52.8554V46.2017ZM59.6004 53.5508C59.5165 53.5508 59.4359 53.5358 59.3613 53.5083H59.9475H68.6343H69.2205C69.1459 53.5358 69.0653 53.5508 68.9813 53.5508H59.6004ZM69.6768 52.8554C69.6768 52.9393 69.6618 53.0199 69.6343 53.0945V52.5083V46.5487V45.9626C69.6618 46.0372 69.6768 46.1177 69.6768 46.2017V52.8554Z" fill="white" stroke="white" stroke-width="2"/>
<path d="M59.9475 34.2508H59.3615C59.4361 34.2233 59.5166 34.2083 59.6004 34.2083H68.9813C69.0652 34.2083 69.1456 34.2233 69.2202 34.2508H68.6343H59.9475ZM58.9049 34.9037C58.9049 34.8198 58.9199 34.7393 58.9475 34.6647V35.2508V41.2103V41.7966C58.9199 41.722 58.9049 41.6415 58.9049 41.5576V34.9037ZM59.6004 42.253C59.5164 42.253 59.4357 42.2379 59.361 42.2103H59.9475H68.6343H69.2208C69.146 42.2379 69.0654 42.253 68.9813 42.253H59.6004ZM69.6768 41.5576C69.6768 41.6415 69.6618 41.7221 69.6343 41.7967V41.2103V35.2508V34.6647C69.6618 34.7393 69.6768 34.8198 69.6768 34.9037V41.5576Z" fill="white" stroke="white" stroke-width="2"/>
</svg>
