<svg width="68" height="68" viewBox="0 0 68 68" fill="none" xmlns="http://www.w3.org/2000/svg">
<circle cx="34" cy="34" r="34" fill="url(#paint0_linear_1177_70)"/>
<circle cx="34" cy="34" r="34" fill="url(#paint1_linear_1177_70)"/>
<circle cx="34" cy="34" r="34" fill="#2D903E"/>
<circle cx="34" cy="34" r="34" fill="#6F97B6"/>
<circle cx="34" cy="34" r="34" fill="#DFF1FF"/>
<path d="M44.5 24H23.5C22.1193 24 21 25.1193 21 26.5V41.5C21 42.8807 22.1193 44 23.5 44H44.5C45.8807 44 47 42.8807 47 41.5V26.5C47 25.1193 45.8807 24 44.5 24Z" stroke="white" stroke-width="2" stroke-linecap="round" stroke-linejoin="round"/>
<path d="M44.5 24H23.5C22.1193 24 21 25.1193 21 26.5V41.5C21 42.8807 22.1193 44 23.5 44H44.5C45.8807 44 47 42.8807 47 41.5V26.5C47 25.1193 45.8807 24 44.5 24Z" stroke="#064372" stroke-width="2" stroke-linecap="round" stroke-linejoin="round"/>
<path d="M25 28L34 35L43 28" stroke="white" stroke-width="2" stroke-linecap="round" stroke-linejoin="round"/>
<path d="M25 28L34 35L43 28" stroke="#064372" stroke-width="2" stroke-linecap="round" stroke-linejoin="round"/>
<defs>
<linearGradient id="paint0_linear_1177_70" x1="34" y1="0" x2="34" y2="68" gradientUnits="userSpaceOnUse">
<stop stop-color="#0E3988"/>
<stop offset="1" stop-color="#FD3626"/>
</linearGradient>
<linearGradient id="paint1_linear_1177_70" x1="35.8133" y1="-1.08956e-07" x2="35.8133" y2="68" gradientUnits="userSpaceOnUse">
<stop stop-color="#2D8B38"/>
<stop offset="1" stop-color="#0B5361"/>
</linearGradient>
</defs>
</svg>
