<svg width="94" height="94" viewBox="0 0 94 94" fill="none" xmlns="http://www.w3.org/2000/svg">
<circle cx="47" cy="47" r="47" fill="black" fill-opacity="0.2"/>
<g clip-path="url(#clip0_1179_50)">
<path d="M33.649 42.1119V43.1119H34.649H42.1341H43.8474L43.0048 41.6201L37.7348 32.2895L37.4478 31.7813H36.8641H34.649H33.649V32.7813V42.1119ZM37.4723 31.7388L43.9203 43.1545H33.6065V31.7388H37.4723Z" fill="white" stroke="white" stroke-width="2"/>
<path d="M71.5 55.8832V55.3832H71H56.6898V31.5916V31.0916H56.1898H54.1473H53.6473V31.5916V48.9953L40.3052 26.3768L40.1601 26.1309H39.8745H29.1931H28.6931V26.6309V45.9405H28.3418C25.6582 45.9405 23.476 48.1226 23.476 50.8058V56.8538C22.8557 57.9319 22.5 59.1812 22.5 60.5115C22.5 64.5691 25.8002 67.8691 29.8577 67.8691C33.7473 67.8691 36.9408 64.8366 37.1986 61.0114H42.9671C43.2249 64.8367 46.4185 67.8691 50.3081 67.8691C54.3656 67.8691 57.6657 64.569 57.6657 60.5115C57.6657 59.7875 57.5601 59.0875 57.3639 58.4259H71H71.5V57.9259V55.8832ZM29.8577 53.1537C28.6566 53.1537 27.5212 53.4433 26.5184 53.9561V50.8057C26.5184 49.8013 27.3367 48.9829 28.3417 48.9829H31.2355H31.7355V48.4829V29.1734H38.4261L52.8419 53.6035C52.0515 53.3127 51.1978 53.1538 50.3081 53.1538C47.1428 53.1537 44.4402 55.1617 43.4035 57.9689H36.7624C35.7256 55.1617 33.0231 53.1537 29.8577 53.1537ZM29.8577 64.8266C27.4789 64.8266 25.5425 62.8903 25.5425 60.5115C25.5425 58.1327 27.4789 56.1963 29.8577 56.1963C32.2365 56.1963 34.1728 58.1327 34.1728 60.5115C34.1729 62.8903 32.2366 64.8266 29.8577 64.8266ZM50.3082 64.8266C47.9294 64.8266 45.993 62.8902 45.993 60.5115C45.993 58.1327 47.9294 56.1963 50.3082 56.1963C52.6869 56.1963 54.6233 58.1327 54.6233 60.5115C54.6234 62.8902 52.6869 64.8266 50.3082 64.8266Z" fill="white" stroke="white"/>
<path d="M59.9475 45.3497H59.3616C59.4361 45.3223 59.5166 45.3073 59.6004 45.3073H68.9814C69.0652 45.3073 69.1457 45.3223 69.2202 45.3497H68.6343H59.9475ZM58.9049 46.0027C58.9049 45.9188 58.92 45.8383 58.9475 45.7636V46.3497V52.3093V52.8955C58.92 52.8209 58.9049 52.7404 58.9049 52.6565V46.0027ZM59.6004 53.3518C59.5165 53.3518 59.4359 53.3368 59.3613 53.3093H59.9475H68.6343H69.2205C69.1459 53.3368 69.0653 53.3518 68.9814 53.3518H59.6004ZM69.6768 52.6565C69.6768 52.7404 69.6618 52.8209 69.6343 52.8955V52.3093V46.3497V45.7636C69.6618 45.8382 69.6768 45.9188 69.6768 46.0027V52.6565Z" fill="white" stroke="white" stroke-width="2"/>
<path d="M59.9475 34.0518H59.3616C59.4361 34.0244 59.5166 34.0094 59.6004 34.0094H68.9814C69.0652 34.0094 69.1457 34.0244 69.2202 34.0518H68.6343H59.9475ZM58.9049 34.7048C58.9049 34.6209 58.92 34.5403 58.9475 34.4657V35.0518V41.0114V41.5977C58.92 41.5231 58.9049 41.4425 58.9049 41.3586V34.7048ZM59.6004 42.054C59.5164 42.054 59.4357 42.0389 59.361 42.0114H59.9475H68.6343H69.2208C69.1461 42.0389 69.0654 42.054 68.9814 42.054H59.6004ZM69.6768 41.3586C69.6768 41.4425 69.6618 41.5231 69.6343 41.5977V41.0114V35.0518V34.4657C69.6618 34.5403 69.6768 34.6209 69.6768 34.7048V41.3586Z" fill="white" stroke="white" stroke-width="2"/>
</g>
<defs>
<clipPath id="clip0_1179_50">
<rect width="52" height="48" fill="white" transform="translate(19 23)"/>
</clipPath>
</defs>
</svg>
