<svg width="94" height="94" viewBox="0 0 94 94" fill="none" xmlns="http://www.w3.org/2000/svg">
<circle cx="47" cy="47" r="47" fill="black" fill-opacity="0.2"/>
<g clip-path="url(#clip0_1179_8)">
<path d="M46.937 26.2994C47.2146 26.8835 47.9115 27.3338 48.5581 27.3465L50.1498 27.3781C50.0574 27.7822 50.0069 28.2022 50.0069 28.6339C50.0069 31.7405 52.5342 34.268 55.6409 34.268C58.7475 34.268 61.2749 31.7405 61.2749 28.6339C61.2751 25.5273 58.7476 23 55.6411 23C54.5364 23 53.5058 23.3209 52.6352 23.8724L47.4519 23.8605C47.0494 23.8605 46.7105 24.0317 46.5218 24.3302C46.333 24.6289 46.3239 25.0089 46.4968 25.3729L46.937 26.2994Z" fill="black"/>
<path d="M46.937 26.2994C47.2146 26.8835 47.9115 27.3338 48.5581 27.3465L50.1498 27.3781C50.0574 27.7822 50.0069 28.2022 50.0069 28.6339C50.0069 31.7405 52.5342 34.268 55.6409 34.268C58.7475 34.268 61.2749 31.7405 61.2749 28.6339C61.2751 25.5273 58.7476 23 55.6411 23C54.5364 23 53.5058 23.3209 52.6352 23.8724L47.4519 23.8605C47.0494 23.8605 46.7105 24.0317 46.5218 24.3302C46.333 24.6289 46.3239 25.0089 46.4968 25.3729L46.937 26.2994Z" fill="white"/>
<path d="M44.685 53.0714H27.9608C27.0309 53.0714 26.2744 53.8279 26.2744 54.7578V69.3137C26.2744 70.2436 27.0309 71.0001 27.9608 71.0001H44.6851C45.615 71.0001 46.3715 70.2436 46.3715 69.3137V54.7578C46.3714 53.8279 45.6149 53.0714 44.685 53.0714ZM37.9933 63.1517V68.061H34.6521V63.1519H32.8286L36.323 59.2115L39.8172 63.1517H37.9933Z" fill="black"/>
<path d="M44.685 53.0714H27.9608C27.0309 53.0714 26.2744 53.8279 26.2744 54.7578V69.3137C26.2744 70.2436 27.0309 71.0001 27.9608 71.0001H44.6851C45.615 71.0001 46.3715 70.2436 46.3715 69.3137V54.7578C46.3714 53.8279 45.6149 53.0714 44.685 53.0714ZM37.9933 63.1517V68.061H34.6521V63.1519H32.8286L36.323 59.2115L39.8172 63.1517H37.9933Z" fill="white"/>
<path d="M67.3375 43.1054L63.0249 37.0966C62.5552 36.4423 61.858 35.949 60.7883 35.949H60.7872H37.5607C36.6308 35.949 35.8743 36.7055 35.8743 37.6353V38.6097C35.8743 39.5396 36.6308 40.2961 37.5607 40.2961H49.7084V68.9765C49.7084 70.0923 50.6162 71.0001 51.7321 71.0001H53.116C54.2318 71.0001 55.1397 70.0923 55.1397 68.9765V54.9292H56.1431V68.9763C56.1431 70.0922 57.0509 71 58.1667 71H59.5506C60.6664 71 61.5743 70.0922 61.5743 68.9763V52.4753V52.0292H61.8202C62.6358 52.0292 63.5841 51.5123 64.0263 50.8269L67.3996 45.5961C67.8574 44.8859 67.8301 43.7919 67.3375 43.1054ZM61.5741 41.6338L63.3516 44.1845C63.5697 44.4977 63.5676 45.0665 63.3469 45.3779L61.5741 47.8798V41.6338Z" fill="white"/>
<path d="M67.3375 43.1054L63.0249 37.0966C62.5552 36.4423 61.858 35.949 60.7883 35.949H60.7872H37.5607C36.6308 35.949 35.8743 36.7055 35.8743 37.6353V38.6097C35.8743 39.5396 36.6308 40.2961 37.5607 40.2961H49.7084V68.9765C49.7084 70.0923 50.6162 71.0001 51.7321 71.0001H53.116C54.2318 71.0001 55.1397 70.0923 55.1397 68.9765V54.9292H56.1431V68.9763C56.1431 70.0922 57.0509 71 58.1667 71H59.5506C60.6664 71 61.5743 70.0922 61.5743 68.9763V52.4753V52.0292H61.8202C62.6358 52.0292 63.5841 51.5123 64.0263 50.8269L67.3996 45.5961C67.8574 44.8859 67.8301 43.7919 67.3375 43.1054ZM61.5741 41.6338L63.3516 44.1845C63.5697 44.4977 63.5676 45.0665 63.3469 45.3779L61.5741 47.8798V41.6338Z" fill="white"/>
</g>
<defs>
<clipPath id="clip0_1179_8">
<rect width="48" height="48" fill="white" transform="translate(23 23)"/>
</clipPath>
</defs>
</svg>
