<svg width="27" height="12" viewBox="0 0 27 12" fill="none" xmlns="http://www.w3.org/2000/svg">
<path d="M26.5303 6.53033C26.8232 6.23743 26.8232 5.76256 26.5303 5.46967L21.7574 0.696697C21.4645 0.403804 20.9896 0.403804 20.6967 0.696697C20.4038 0.989591 20.4038 1.46446 20.6967 1.75736L24.9393 6L20.6967 10.2426C20.4038 10.5355 20.4038 11.0104 20.6967 11.3033C20.9896 11.5962 21.4645 11.5962 21.7574 11.3033L26.5303 6.53033ZM6.55671e-08 6.75L26 6.75L26 5.25L-6.55671e-08 5.25L6.55671e-08 6.75Z" fill="#2D8B38"/>
<path d="M26.5303 6.53033C26.8232 6.23743 26.8232 5.76256 26.5303 5.46967L21.7574 0.696697C21.4645 0.403804 20.9896 0.403804 20.6967 0.696697C20.4038 0.989591 20.4038 1.46446 20.6967 1.75736L24.9393 6L20.6967 10.2426C20.4038 10.5355 20.4038 11.0104 20.6967 11.3033C20.9896 11.5962 21.4645 11.5962 21.7574 11.3033L26.5303 6.53033ZM6.55671e-08 6.75L26 6.75L26 5.25L-6.55671e-08 5.25L6.55671e-08 6.75Z" fill="#1C6F4D"/>
</svg>
