<svg width="230" height="160" viewBox="0 0 230 160" fill="none" xmlns="http://www.w3.org/2000/svg">
<mask id="path-1-inside-1_1180_84" fill="white">
<path fill-rule="evenodd" clip-rule="evenodd" d="M9.76415 159.22C4.37156 159.22 0 154.849 0 149.456V24.6922C0 19.2996 4.37156 14.928 9.76415 14.928H22.3366L30.5438 0.80127L38.6489 14.928H220.236C225.628 14.928 230 19.2996 230 24.6922V149.456C230 154.849 225.628 159.22 220.236 159.22H9.76415Z"/>
</mask>
<path fill-rule="evenodd" clip-rule="evenodd" d="M9.76415 159.22C4.37156 159.22 0 154.849 0 149.456V24.6922C0 19.2996 4.37156 14.928 9.76415 14.928H22.3366L30.5438 0.80127L38.6489 14.928H220.236C225.628 14.928 230 19.2996 230 24.6922V149.456C230 154.849 225.628 159.22 220.236 159.22H9.76415Z" fill="#F3F8FF"/>
<path d="M22.3366 14.928L23.2747 15.473L22.961 16.0129H22.3366V14.928ZM30.5438 0.80127L29.6057 0.256271L30.5497 -1.36853L31.4848 0.261367L30.5438 0.80127ZM38.6489 14.928V16.0129H38.0206L37.7079 15.4679L38.6489 14.928ZM1.08491 149.456C1.08491 154.25 4.97073 158.136 9.76415 158.136V160.305C3.77238 160.305 -1.08491 155.448 -1.08491 149.456H1.08491ZM1.08491 24.6922V149.456H-1.08491V24.6922H1.08491ZM9.76415 16.0129C4.97073 16.0129 1.08491 19.8987 1.08491 24.6922H-1.08491C-1.08491 18.7004 3.77238 13.8431 9.76415 13.8431V16.0129ZM22.3366 16.0129H9.76415V13.8431H22.3366V16.0129ZM31.4819 1.34627L23.2747 15.473L21.3985 14.383L29.6057 0.256271L31.4819 1.34627ZM37.7079 15.4679L29.6028 1.34117L31.4848 0.261367L39.5899 14.3881L37.7079 15.4679ZM220.236 16.0129H38.6489V13.8431H220.236V16.0129ZM228.915 24.6922C228.915 19.8987 225.029 16.0129 220.236 16.0129V13.8431C226.228 13.8431 231.085 18.7004 231.085 24.6922H228.915ZM228.915 149.456V24.6922H231.085V149.456H228.915ZM220.236 158.136C225.029 158.136 228.915 154.25 228.915 149.456H231.085C231.085 155.448 226.228 160.305 220.236 160.305V158.136ZM9.76415 158.136H220.236V160.305H9.76415V158.136Z" fill="black" mask="url(#path-1-inside-1_1180_84)"/>
<path d="M21.993 51.6067C21.1598 51.6067 20.3729 51.4447 19.6323 51.1207C18.8916 50.7966 18.2436 50.3511 17.6881 49.784C17.1326 49.2054 16.6929 48.54 16.3689 47.7878C16.0564 47.024 15.9002 46.2082 15.9002 45.3403C15.9002 44.4724 16.0564 43.6623 16.3689 42.9101C16.6929 42.1579 17.1326 41.4983 17.6881 40.9312C18.2551 40.3526 18.9148 39.9071 19.667 39.5946C20.4307 39.2706 21.2524 39.1086 22.1319 39.1086C23.0924 39.1086 23.9834 39.2937 24.8051 39.664C25.6267 40.0344 26.3153 40.5609 26.8707 41.2437L25.5168 42.5976C25.158 42.0885 24.6778 41.7008 24.076 41.4346C23.4743 41.1569 22.8262 41.018 22.1319 41.018C21.2987 41.018 20.5638 41.2032 19.9273 41.5735C19.3024 41.9322 18.8164 42.4356 18.4692 43.0837C18.1221 43.7317 17.9485 44.4839 17.9485 45.3403C17.9485 46.1966 18.1221 46.9546 18.4692 47.6142C18.828 48.2623 19.3082 48.7715 19.91 49.1418C20.5117 49.5121 21.1945 49.6973 21.9583 49.6973C22.7684 49.6973 23.4627 49.5526 24.0413 49.2633C24.6315 48.9624 25.0828 48.5227 25.3953 47.944C25.7077 47.3539 25.8639 46.6306 25.8639 45.7742L27.1138 46.6769H21.9236V44.8542H27.9296V45.132C27.9296 46.5785 27.6692 47.782 27.1485 48.7425C26.6393 49.703 25.9392 50.4205 25.0481 50.895C24.157 51.3695 23.1387 51.6067 21.993 51.6067ZM29.6561 51.4331V43.101H31.5655V51.4331H29.6561ZM31.5655 46.7984L30.9059 46.4686C30.9059 45.4155 31.1374 44.5649 31.6003 43.9169C32.0747 43.2573 32.7864 42.9274 33.7353 42.9274C34.1519 42.9274 34.528 43.0027 34.8636 43.1531C35.1992 43.3035 35.5117 43.5466 35.801 43.8822L34.5512 45.1667C34.4008 45.0047 34.233 44.889 34.0478 44.8195C33.8626 44.7501 33.6486 44.7154 33.4055 44.7154C32.8732 44.7154 32.4335 44.8832 32.0863 45.2188C31.7391 45.5544 31.5655 46.0809 31.5655 46.7984ZM40.2895 51.6067C39.4795 51.6067 38.7446 51.4157 38.085 51.0339C37.4254 50.6404 36.8988 50.1139 36.5054 49.4542C36.1235 48.7946 35.9325 48.0598 35.9325 47.2497C35.9325 46.4396 36.1235 45.7106 36.5054 45.0625C36.8988 44.4145 37.4254 43.8995 38.085 43.5176C38.7446 43.1242 39.4795 42.9274 40.2895 42.9274C41.1112 42.9274 41.8518 43.1184 42.5114 43.5003C43.171 43.8822 43.6918 44.4029 44.0737 45.0625C44.4671 45.7106 44.6639 46.4396 44.6639 47.2497C44.6639 48.0598 44.4671 48.7946 44.0737 49.4542C43.6918 50.1139 43.171 50.6404 42.5114 51.0339C41.8518 51.4157 41.1112 51.6067 40.2895 51.6067ZM40.2895 49.7667C40.764 49.7667 41.1806 49.6625 41.5393 49.4542C41.9097 49.2344 42.1932 48.9335 42.3899 48.5516C42.5982 48.1697 42.7024 47.7357 42.7024 47.2497C42.7024 46.7637 42.5982 46.3355 42.3899 45.9652C42.1816 45.5949 41.8981 45.3056 41.5393 45.0973C41.1806 44.8774 40.764 44.7674 40.2895 44.7674C39.8266 44.7674 39.41 44.8774 39.0397 45.0973C38.681 45.3056 38.3975 45.5949 38.1892 45.9652C37.9924 46.3355 37.8941 46.7637 37.8941 47.2497C37.8941 47.7357 37.9924 48.1697 38.1892 48.5516C38.3975 48.9335 38.681 49.2344 39.0397 49.4542C39.41 49.6625 39.8266 49.7667 40.2895 49.7667ZM49.6714 51.6067C48.9655 51.6067 48.3348 51.4505 47.7793 51.138C47.2354 50.8256 46.8072 50.3974 46.4948 49.8535C46.1939 49.298 46.0435 48.6615 46.0435 47.944V43.101H47.9529V47.8573C47.9529 48.2623 48.0165 48.6095 48.1438 48.8988C48.2827 49.1765 48.4794 49.3906 48.734 49.541C49.0002 49.6915 49.3126 49.7667 49.6714 49.7667C50.2269 49.7667 50.6493 49.6047 50.9386 49.2807C51.2394 48.9451 51.3899 48.4706 51.3899 47.8573V43.101H53.2993V47.944C53.2993 48.6731 53.1431 49.3154 52.8306 49.8708C52.5298 50.4147 52.1074 50.8429 51.5635 51.1554C51.0196 51.4563 50.3889 51.6067 49.6714 51.6067ZM60.9301 51.4331V46.6248C60.9301 46.0693 60.7508 45.6122 60.392 45.2535C60.0448 44.8947 59.5935 44.7154 59.0381 44.7154C58.6677 44.7154 58.3379 44.7964 58.0486 44.9584C57.7593 45.1204 57.5337 45.3461 57.3716 45.6354C57.2096 45.9247 57.1286 46.2545 57.1286 46.6248L56.3822 46.2082C56.3822 45.5717 56.5211 45.0105 56.7988 44.5244C57.0765 44.0268 57.4584 43.6391 57.9445 43.3614C58.4421 43.0721 58.9976 42.9274 59.6109 42.9274C60.2358 42.9274 60.7913 43.0895 61.2773 43.4135C61.7633 43.7259 62.1452 44.1368 62.423 44.6459C62.7007 45.1435 62.8396 45.6643 62.8396 46.2082V51.4331H60.9301ZM55.2192 51.4331V43.101H57.1286V51.4331H55.2192ZM68.269 51.6067C67.5168 51.6067 66.834 51.4157 66.2207 51.0339C65.6189 50.652 65.1387 50.137 64.7799 49.489C64.4327 48.8293 64.2592 48.0945 64.2592 47.2844C64.2592 46.4628 64.4327 45.7279 64.7799 45.0799C65.1387 44.4203 65.6189 43.8995 66.2207 43.5176C66.834 43.1242 67.5168 42.9274 68.269 42.9274C68.9055 42.9274 69.4667 43.0663 69.9527 43.344C70.4504 43.6102 70.8438 43.9805 71.1331 44.455C71.4224 44.9295 71.5671 45.4676 71.5671 46.0693V48.4648C71.5671 49.0666 71.4224 49.6047 71.1331 50.0791C70.8554 50.5536 70.4677 50.9297 69.9701 51.2074C69.4725 51.4736 68.9055 51.6067 68.269 51.6067ZM68.5814 49.8014C69.0559 49.8014 69.4667 49.6973 69.8139 49.489C70.1726 49.2691 70.4504 48.9682 70.6471 48.5863C70.8438 48.2044 70.9422 47.7647 70.9422 47.2671C70.9422 46.7695 70.8438 46.3297 70.6471 45.9478C70.4504 45.5659 70.1726 45.2708 69.8139 45.0625C69.4667 44.8427 69.0559 44.7327 68.5814 44.7327C68.1185 44.7327 67.7077 44.8427 67.349 45.0625C67.0018 45.2708 66.7241 45.5659 66.5158 45.9478C66.319 46.3297 66.2207 46.7695 66.2207 47.2671C66.2207 47.7647 66.319 48.2044 66.5158 48.5863C66.7241 48.9682 67.0018 49.2691 67.349 49.489C67.7077 49.6973 68.1185 49.8014 68.5814 49.8014ZM72.7301 51.4331H70.8207V49.1939L71.1505 47.1629L70.8207 45.1493V38.935H72.7301V51.4331ZM78.5847 51.4331V39.2822H80.5809V51.4331H78.5847ZM86.3092 51.4331V39.2822H88.3054V51.4331H86.3092ZM79.956 46.052V44.2293H86.7432V46.052H79.956ZM94.1711 51.6067C93.4189 51.6067 92.7361 51.4157 92.1228 51.0339C91.521 50.652 91.0408 50.137 90.682 49.489C90.3349 48.8293 90.1613 48.0945 90.1613 47.2844C90.1613 46.4628 90.3349 45.7279 90.682 45.0799C91.0408 44.4203 91.521 43.8995 92.1228 43.5176C92.7361 43.1242 93.4189 42.9274 94.1711 42.9274C94.8076 42.9274 95.3688 43.0663 95.8549 43.344C96.3525 43.6102 96.7459 43.9805 97.0353 44.455C97.3246 44.9295 97.4692 45.4676 97.4692 46.0693V48.4648C97.4692 49.0666 97.3246 49.6047 97.0353 50.0791C96.7575 50.5536 96.3698 50.9297 95.8722 51.2074C95.3746 51.4736 94.8076 51.6067 94.1711 51.6067ZM94.4836 49.8014C95.1895 49.8014 95.7565 49.5642 96.1847 49.0897C96.6244 48.6152 96.8443 48.0077 96.8443 47.2671C96.8443 46.7695 96.7459 46.3297 96.5492 45.9478C96.3525 45.5659 96.0747 45.2708 95.716 45.0625C95.3688 44.8427 94.958 44.7327 94.4836 44.7327C94.0207 44.7327 93.6098 44.8427 93.2511 45.0625C92.9039 45.2708 92.6262 45.5659 92.4179 45.9478C92.2212 46.3297 92.1228 46.7695 92.1228 47.2671C92.1228 47.7647 92.2212 48.2044 92.4179 48.5863C92.6262 48.9682 92.9039 49.2691 93.2511 49.489C93.6098 49.6973 94.0207 49.8014 94.4836 49.8014ZM96.7228 51.4331V49.1939L97.0526 47.1629L96.7228 45.1493V43.101H98.6322V51.4331H96.7228ZM106.462 51.4331V46.6248C106.462 46.0693 106.283 45.6122 105.924 45.2535C105.577 44.8947 105.126 44.7154 104.57 44.7154C104.2 44.7154 103.87 44.7964 103.581 44.9584C103.291 45.1204 103.066 45.3461 102.904 45.6354C102.742 45.9247 102.661 46.2545 102.661 46.6248L101.914 46.2082C101.914 45.5717 102.053 45.0105 102.331 44.5244C102.609 44.0268 102.991 43.6391 103.477 43.3614C103.974 43.0721 104.53 42.9274 105.143 42.9274C105.768 42.9274 106.323 43.0895 106.809 43.4135C107.295 43.7259 107.677 44.1368 107.955 44.6459C108.233 45.1435 108.372 45.6643 108.372 46.2082V51.4331H106.462ZM100.751 51.4331V43.101H102.661V51.4331H100.751ZM113.801 51.6067C113.049 51.6067 112.366 51.4157 111.753 51.0339C111.151 50.652 110.671 50.137 110.312 49.489C109.965 48.8293 109.791 48.0945 109.791 47.2844C109.791 46.4628 109.965 45.7279 110.312 45.0799C110.671 44.4203 111.151 43.8995 111.753 43.5176C112.366 43.1242 113.049 42.9274 113.801 42.9274C114.438 42.9274 114.999 43.0663 115.485 43.344C115.982 43.6102 116.376 43.9805 116.665 44.455C116.955 44.9295 117.099 45.4676 117.099 46.0693V48.4648C117.099 49.0666 116.955 49.6047 116.665 50.0791C116.388 50.5536 116 50.9297 115.502 51.2074C115.005 51.4736 114.438 51.6067 113.801 51.6067ZM114.114 49.8014C114.588 49.8014 114.999 49.6973 115.346 49.489C115.705 49.2691 115.982 48.9682 116.179 48.5863C116.376 48.2044 116.474 47.7647 116.474 47.2671C116.474 46.7695 116.376 46.3297 116.179 45.9478C115.982 45.5659 115.705 45.2708 115.346 45.0625C114.999 44.8427 114.588 44.7327 114.114 44.7327C113.651 44.7327 113.24 44.8427 112.881 45.0625C112.534 45.2708 112.256 45.5659 112.048 45.9478C111.851 46.3297 111.753 46.7695 111.753 47.2671C111.753 47.7647 111.851 48.2044 112.048 48.5863C112.256 48.9682 112.534 49.2691 112.881 49.489C113.24 49.6973 113.651 49.8014 114.114 49.8014ZM118.262 51.4331H116.353V49.1939L116.683 47.1629L116.353 45.1493V38.935H118.262V51.4331ZM120.381 51.4331V38.935H122.291V51.4331H120.381ZM124.433 51.4331V43.101H126.343V51.4331H124.433ZM125.388 41.5735C125.064 41.5735 124.792 41.4635 124.572 41.2437C124.364 41.0238 124.26 40.7518 124.26 40.4278C124.26 40.1038 124.364 39.8318 124.572 39.612C124.792 39.3921 125.064 39.2822 125.388 39.2822C125.723 39.2822 125.995 39.3921 126.204 39.612C126.412 39.8318 126.516 40.1038 126.516 40.4278C126.516 40.7518 126.412 41.0238 126.204 41.2437C125.995 41.4635 125.723 41.5735 125.388 41.5735ZM134.195 51.4331V46.6248C134.195 46.0693 134.016 45.6122 133.657 45.2535C133.31 44.8947 132.859 44.7154 132.303 44.7154C131.933 44.7154 131.603 44.7964 131.314 44.9584C131.024 45.1204 130.799 45.3461 130.637 45.6354C130.475 45.9247 130.394 46.2545 130.394 46.6248L129.647 46.2082C129.647 45.5717 129.786 45.0105 130.064 44.5244C130.342 44.0268 130.723 43.6391 131.21 43.3614C131.707 43.0721 132.263 42.9274 132.876 42.9274C133.501 42.9274 134.056 43.0895 134.542 43.4135C135.028 43.7259 135.41 44.1368 135.688 44.6459C135.966 45.1435 136.105 45.6643 136.105 46.2082V51.4331H134.195ZM128.484 51.4331V43.101H130.394V51.4331H128.484ZM141.517 55.0784C140.637 55.0784 139.868 54.9164 139.208 54.5924C138.548 54.2799 138.016 53.8344 137.611 53.2557L138.861 52.0059C139.196 52.4225 139.578 52.735 140.006 52.9433C140.435 53.1516 140.95 53.2557 141.551 53.2557C142.304 53.2557 142.9 53.059 143.339 52.6656C143.779 52.2837 143.999 51.7571 143.999 51.0859V49.0376L144.329 47.1976L143.999 45.3403V43.101H145.908V51.0859C145.908 51.8844 145.723 52.5788 145.353 53.169C144.983 53.7707 144.468 54.2394 143.808 54.575C143.148 54.9106 142.385 55.0784 141.517 55.0784ZM141.43 51.2595C140.689 51.2595 140.018 51.0801 139.416 50.7214C138.826 50.3511 138.357 49.8477 138.01 49.2112C137.675 48.5747 137.507 47.863 137.507 47.0761C137.507 46.2892 137.675 45.5833 138.01 44.9584C138.357 44.3335 138.826 43.8417 139.416 43.4829C140.018 43.1126 140.689 42.9274 141.43 42.9274C142.089 42.9274 142.668 43.0605 143.166 43.3267C143.663 43.5929 144.051 43.9632 144.329 44.4376C144.606 44.9005 144.745 45.4444 144.745 46.0693V48.1176C144.745 48.731 144.601 49.2749 144.311 49.7493C144.034 50.2238 143.646 50.5941 143.148 50.8603C142.651 51.1264 142.078 51.2595 141.43 51.2595ZM141.812 49.4542C142.275 49.4542 142.68 49.3559 143.027 49.1591C143.374 48.9624 143.64 48.6905 143.825 48.3433C144.022 47.9846 144.12 47.5679 144.12 47.0935C144.12 46.619 144.022 46.2082 143.825 45.861C143.64 45.5023 143.374 45.2246 143.027 45.0278C142.68 44.8311 142.275 44.7327 141.812 44.7327C141.349 44.7327 140.938 44.8311 140.579 45.0278C140.232 45.2246 139.96 45.5023 139.763 45.861C139.567 46.2082 139.468 46.619 139.468 47.0935C139.468 47.5564 139.567 47.9672 139.763 48.3259C139.96 48.6847 140.232 48.9624 140.579 49.1591C140.938 49.3559 141.349 49.4542 141.812 49.4542Z" fill="black"/>
<path d="M16.256 79.8953V70.8602H17.1153L20.9428 77.1483H20.357L24.1845 70.8602H25.0438V79.8953H23.82V73.0083L24.1064 73.0864L21.086 78.0466H20.2268L17.2064 73.0864L17.4798 73.0083V79.8953H16.256ZM26.9818 79.8953V73.7113H28.1535V79.8953H26.9818ZM27.5677 72.4745C27.3507 72.4745 27.1728 72.4051 27.0339 72.2662C26.895 72.1187 26.8256 71.9364 26.8256 71.7194C26.8256 71.5111 26.895 71.3375 27.0339 71.1987C27.1728 71.0511 27.3507 70.9773 27.5677 70.9773C27.7847 70.9773 27.9626 71.0511 28.1015 71.1987C28.2403 71.3375 28.3098 71.5111 28.3098 71.7194C28.3098 71.9364 28.2403 72.1187 28.1015 72.2662C27.9626 72.4051 27.7847 72.4745 27.5677 72.4745ZM30.8306 79.8953V71.1205H32.0023V79.8953H30.8306ZM29.3074 74.7788V73.7113H33.5256V74.7788H29.3074ZM34.6864 79.8953V73.7113H35.8581V79.8953H34.6864ZM35.2722 72.4745C35.0552 72.4745 34.8773 72.4051 34.7384 72.2662C34.5996 72.1187 34.5301 71.9364 34.5301 71.7194C34.5301 71.5111 34.5996 71.3375 34.7384 71.1987C34.8773 71.0511 35.0552 70.9773 35.2722 70.9773C35.4892 70.9773 35.6671 71.0511 35.806 71.1987C35.9449 71.3375 36.0143 71.5111 36.0143 71.7194C36.0143 71.9364 35.9449 72.1187 35.806 72.2662C35.6671 72.4051 35.4892 72.4745 35.2722 72.4745ZM40.1495 82.6162C39.5159 82.6162 38.9518 82.499 38.4571 82.2647C37.971 82.0304 37.5805 81.7005 37.2854 81.2753L38.0405 80.5072C38.2922 80.8283 38.5916 81.0713 38.9388 81.2362C39.2859 81.4098 39.6982 81.4966 40.1755 81.4966C40.8091 81.4966 41.3082 81.3273 41.6727 80.9888C42.0459 80.659 42.2325 80.2121 42.2325 79.6479V78.1117L42.4408 76.7187L42.2325 75.3387V73.7113H43.4042V79.6479C43.4042 80.2381 43.2654 80.7545 42.9876 81.1972C42.7186 81.6398 42.3367 81.987 41.842 82.2387C41.3559 82.4904 40.7918 82.6162 40.1495 82.6162ZM40.1495 79.7911C39.5854 79.7911 39.0776 79.6566 38.6263 79.3875C38.1837 79.1185 37.8322 78.7496 37.5718 78.2809C37.3114 77.8036 37.1812 77.2698 37.1812 76.6796C37.1812 76.0894 37.3114 75.5643 37.5718 75.1043C37.8322 74.6356 38.1837 74.2668 38.6263 73.9977C39.0776 73.72 39.5854 73.5811 40.1495 73.5811C40.6355 73.5811 41.0652 73.6766 41.4384 73.8675C41.8116 74.0585 42.1067 74.3275 42.3237 74.6747C42.5493 75.0132 42.6708 75.4124 42.6882 75.8724V77.5128C42.6622 77.9641 42.5363 78.3634 42.3106 78.7105C42.0937 79.049 41.7986 79.3138 41.4254 79.5047C41.0522 79.6956 40.6269 79.7911 40.1495 79.7911ZM40.3838 78.6845C40.7657 78.6845 41.0999 78.6021 41.3863 78.4372C41.6814 78.2722 41.9071 78.0422 42.0633 77.7472C42.2195 77.4434 42.2976 77.0919 42.2976 76.6926C42.2976 76.2934 42.2152 75.9462 42.0503 75.6511C41.894 75.3473 41.6727 75.113 41.3863 74.9481C41.0999 74.7745 40.7614 74.6877 40.3708 74.6877C39.9803 74.6877 39.6374 74.7745 39.3423 74.9481C39.0472 75.113 38.8129 75.3473 38.6393 75.6511C38.4744 75.9462 38.392 76.289 38.392 76.6796C38.392 77.0702 38.4744 77.4173 38.6393 77.7211C38.8129 78.0249 39.0472 78.2636 39.3423 78.4372C39.6461 78.6021 39.9933 78.6845 40.3838 78.6845ZM47.7539 80.0255C47.1897 80.0255 46.6776 79.8866 46.2176 79.6088C45.7576 79.3224 45.3931 78.9362 45.124 78.4502C44.8637 77.9641 44.7335 77.4173 44.7335 76.8098C44.7335 76.2022 44.8637 75.6555 45.124 75.1694C45.3931 74.6834 45.7533 74.2972 46.2046 74.0107C46.6646 73.7243 47.181 73.5811 47.7539 73.5811C48.2225 73.5811 48.6391 73.6809 49.0037 73.8805C49.3769 74.0715 49.6763 74.3405 49.902 74.6877C50.1276 75.0262 50.2535 75.4211 50.2795 75.8724V77.7341C50.2535 78.1768 50.1276 78.5717 49.902 78.9188C49.685 79.266 49.3899 79.5394 49.0167 79.739C48.6522 79.93 48.2312 80.0255 47.7539 80.0255ZM47.9491 78.9188C48.5306 78.9188 48.9993 78.7236 49.3552 78.333C49.711 77.9338 49.8889 77.426 49.8889 76.8098C49.8889 76.3845 49.8065 76.0156 49.6416 75.7032C49.4854 75.3821 49.2597 75.1347 48.9646 74.9611C48.6695 74.7788 48.3267 74.6877 47.9361 74.6877C47.5456 74.6877 47.1984 74.7788 46.8946 74.9611C46.5995 75.1434 46.3652 75.3951 46.1916 75.7162C46.0267 76.0287 45.9442 76.3888 45.9442 76.7968C45.9442 77.2134 46.0267 77.5822 46.1916 77.9034C46.3652 78.2158 46.6039 78.4632 46.9076 78.6455C47.2114 78.8277 47.5586 78.9188 47.9491 78.9188ZM49.8108 79.8953V78.2288L50.0322 76.7187L49.8108 75.2215V73.7113H50.9956V79.8953H49.8108ZM53.6264 79.8953V71.1205H54.7981V79.8953H53.6264ZM52.1032 74.7788V73.7113H56.3213V74.7788H52.1032ZM60.1425 80.0255C59.5263 80.0255 58.9708 79.8866 58.4761 79.6088C57.9814 79.3224 57.5908 78.9362 57.3044 78.4502C57.018 77.9641 56.8748 77.413 56.8748 76.7968C56.8748 76.1892 57.0137 75.6424 57.2914 75.1564C57.5778 74.6704 57.9597 74.2885 58.4371 74.0107C58.9231 73.7243 59.4655 73.5811 60.0644 73.5811C60.6372 73.5811 61.1406 73.7113 61.5746 73.9717C62.0172 74.2321 62.3601 74.5922 62.6031 75.0522C62.8548 75.5122 62.9806 76.033 62.9806 76.6145C62.9806 76.7013 62.9763 76.7968 62.9676 76.9009C62.9589 76.9964 62.9416 77.1092 62.9155 77.2394H57.695V76.263H62.2906L61.861 76.6405C61.861 76.2239 61.7872 75.8724 61.6397 75.586C61.4921 75.2909 61.2838 75.0653 61.0148 74.909C60.7457 74.7441 60.4203 74.6617 60.0384 74.6617C59.6391 74.6617 59.2876 74.7485 58.9838 74.9221C58.6801 75.0956 58.4457 75.3387 58.2808 75.6511C58.1159 75.9636 58.0335 76.3324 58.0335 76.7577C58.0335 77.1917 58.1203 77.5736 58.2938 77.9034C58.4674 78.2245 58.7148 78.4762 59.0359 78.6585C59.3571 78.8321 59.7259 78.9188 60.1425 78.9188C60.4897 78.9188 60.8065 78.8581 61.0929 78.7366C61.388 78.6151 61.6397 78.4328 61.848 78.1898L62.6031 78.9579C62.308 79.3051 61.9435 79.5698 61.5095 79.7521C61.0842 79.9343 60.6286 80.0255 60.1425 80.0255ZM69.7913 80.0255C69.1838 80.0255 68.6327 79.8822 68.1379 79.5958C67.6519 79.3094 67.2657 78.9232 66.9793 78.4372C66.7015 77.9424 66.5627 77.3956 66.5627 76.7968C66.5627 76.1892 66.7015 75.6424 66.9793 75.1564C67.2657 74.6704 67.6519 74.2885 68.1379 74.0107C68.6327 73.7243 69.1838 73.5811 69.7913 73.5811C70.2687 73.5811 70.7113 73.6722 71.1193 73.8545C71.5272 74.0281 71.8787 74.2841 72.1738 74.6226L71.3927 75.4038C71.2017 75.1781 70.9674 75.0088 70.6896 74.896C70.4206 74.7745 70.1211 74.7138 69.7913 74.7138C69.4008 74.7138 69.0536 74.8049 68.7498 74.9872C68.4461 75.1607 68.2074 75.4038 68.0338 75.7162C67.8602 76.0287 67.7734 76.3888 67.7734 76.7968C67.7734 77.2047 67.8602 77.5649 68.0338 77.8773C68.2074 78.1898 68.4461 78.4372 68.7498 78.6194C69.0536 78.8017 69.4008 78.8928 69.7913 78.8928C70.1211 78.8928 70.4206 78.8364 70.6896 78.7236C70.9674 78.6021 71.2061 78.4285 71.4057 78.2028L72.1738 78.9839C71.8874 79.3138 71.5359 79.5698 71.1193 79.7521C70.7113 79.9343 70.2687 80.0255 69.7913 80.0255ZM76.0338 80.0255C75.4262 80.0255 74.8794 79.8822 74.3934 79.5958C73.9074 79.3094 73.5211 78.9232 73.2347 78.4372C72.9483 77.9424 72.8051 77.3913 72.8051 76.7838C72.8051 76.1849 72.9483 75.6468 73.2347 75.1694C73.5211 74.6834 73.9074 74.2972 74.3934 74.0107C74.8794 73.7243 75.4262 73.5811 76.0338 73.5811C76.6326 73.5811 77.1751 73.7243 77.6611 74.0107C78.1559 74.2885 78.5464 74.6704 78.8328 75.1564C79.1193 75.6424 79.2625 76.1849 79.2625 76.7838C79.2625 77.3913 79.1193 77.9424 78.8328 78.4372C78.5464 78.9232 78.1559 79.3094 77.6611 79.5958C77.1751 79.8822 76.6326 80.0255 76.0338 80.0255ZM76.0338 78.8928C76.4243 78.8928 76.7715 78.8017 77.0753 78.6194C77.3791 78.4372 77.6177 78.1898 77.7913 77.8773C77.9649 77.5562 78.0517 77.1917 78.0517 76.7838C78.0517 76.3845 77.9606 76.0287 77.7783 75.7162C77.6047 75.4038 77.366 75.1607 77.0623 74.9872C76.7672 74.8049 76.4243 74.7138 76.0338 74.7138C75.6432 74.7138 75.296 74.8049 74.9923 74.9872C74.6885 75.1607 74.4498 75.4038 74.2762 75.7162C74.1026 76.0287 74.0159 76.3845 74.0159 76.7838C74.0159 77.1917 74.1026 77.5562 74.2762 77.8773C74.4498 78.1898 74.6885 78.4372 74.9923 78.6194C75.296 78.8017 75.6432 78.8928 76.0338 78.8928ZM84.957 79.8953V76.289C84.957 75.8204 84.8094 75.4341 84.5144 75.1304C84.2193 74.8266 83.8374 74.6747 83.3687 74.6747C83.0562 74.6747 82.7785 74.7441 82.5355 74.883C82.2925 75.0219 82.1015 75.2128 81.9627 75.4558C81.8238 75.6988 81.7544 75.9766 81.7544 76.289L81.2727 76.0156C81.2727 75.547 81.3768 75.1304 81.5851 74.7658C81.7934 74.4013 82.0842 74.1149 82.4574 73.9066C82.8306 73.6896 83.2515 73.5811 83.7202 73.5811C84.1889 73.5811 84.6011 73.6983 84.957 73.9326C85.3215 74.167 85.6079 74.4751 85.8162 74.857C86.0245 75.2302 86.1287 75.6294 86.1287 76.0547V79.8953H84.957ZM80.5827 79.8953V73.7113H81.7544V79.8953H80.5827ZM88.5241 79.8953V72.8781C88.5241 72.4441 88.6239 72.0449 88.8235 71.6804C89.0231 71.3158 89.3095 71.0251 89.6827 70.8081C90.0646 70.5824 90.5029 70.4696 90.9976 70.4696V71.5632C90.5724 71.5632 90.2469 71.6934 90.0212 71.9538C89.8043 72.2055 89.6958 72.5136 89.6958 72.8781V79.8953H88.5241ZM87.0009 74.7788V73.7113H92.6901V74.7788H87.0009ZM92.2084 79.8953V70.5477H93.3801V79.8953H92.2084ZM95.1148 79.8953V73.7113H96.2865V79.8953H95.1148ZM95.7006 72.4745C95.4836 72.4745 95.3057 72.4051 95.1668 72.2662C95.028 72.1187 94.9585 71.9364 94.9585 71.7194C94.9585 71.5111 95.028 71.3375 95.1668 71.1987C95.3057 71.0511 95.4836 70.9773 95.7006 70.9773C95.9176 70.9773 96.0955 71.0511 96.2344 71.1987C96.3733 71.3375 96.4427 71.5111 96.4427 71.7194C96.4427 71.9364 96.3733 72.1187 96.2344 72.2662C96.0955 72.4051 95.9176 72.4745 95.7006 72.4745ZM100.838 80.0255C100.231 80.0255 99.6796 79.8822 99.1849 79.5958C98.6989 79.3094 98.3126 78.9232 98.0262 78.4372C97.7485 77.9424 97.6096 77.3956 97.6096 76.7968C97.6096 76.1892 97.7485 75.6424 98.0262 75.1564C98.3126 74.6704 98.6989 74.2885 99.1849 74.0107C99.6796 73.7243 100.231 73.5811 100.838 73.5811C101.316 73.5811 101.758 73.6722 102.166 73.8545C102.574 74.0281 102.926 74.2841 103.221 74.6226L102.44 75.4038C102.249 75.1781 102.014 75.0088 101.737 74.896C101.468 74.7745 101.168 74.7138 100.838 74.7138C100.448 74.7138 100.101 74.8049 99.7968 74.9872C99.493 75.1607 99.2543 75.4038 99.0807 75.7162C98.9072 76.0287 98.8204 76.3888 98.8204 76.7968C98.8204 77.2047 98.9072 77.5649 99.0807 77.8773C99.2543 78.1898 99.493 78.4372 99.7968 78.6194C100.101 78.8017 100.448 78.8928 100.838 78.8928C101.168 78.8928 101.468 78.8364 101.737 78.7236C102.014 78.6021 102.253 78.4285 102.453 78.2028L103.221 78.9839C102.934 79.3138 102.583 79.5698 102.166 79.7521C101.758 79.9343 101.316 80.0255 100.838 80.0255ZM105.257 79.8953V71.1205H106.429V79.8953H105.257ZM103.734 74.7788V73.7113H107.952V74.7788H103.734ZM110.938 80.0255C110.591 80.0255 110.261 79.9821 109.949 79.8953C109.645 79.7998 109.363 79.6696 109.103 79.5047C108.842 79.3311 108.617 79.1272 108.426 78.8928L109.181 78.1377C109.406 78.4155 109.667 78.6238 109.962 78.7626C110.257 78.8928 110.587 78.9579 110.951 78.9579C111.316 78.9579 111.598 78.8972 111.798 78.7756C111.997 78.6455 112.097 78.4675 112.097 78.2419C112.097 78.0162 112.015 77.8426 111.85 77.7211C111.693 77.5909 111.489 77.4868 111.238 77.4087C110.986 77.3219 110.717 77.2394 110.431 77.1613C110.153 77.0745 109.888 76.966 109.636 76.8358C109.385 76.7056 109.176 76.5277 109.011 76.3021C108.855 76.0764 108.777 75.777 108.777 75.4038C108.777 75.0305 108.868 74.7094 109.051 74.4404C109.233 74.1626 109.485 73.95 109.806 73.8024C110.135 73.6549 110.53 73.5811 110.99 73.5811C111.476 73.5811 111.906 73.6679 112.279 73.8415C112.661 74.0064 112.974 74.2581 113.217 74.5966L112.461 75.3517C112.288 75.126 112.071 74.9524 111.811 74.8309C111.559 74.7094 111.272 74.6487 110.951 74.6487C110.613 74.6487 110.352 74.7094 110.17 74.8309C109.997 74.9438 109.91 75.1043 109.91 75.3126C109.91 75.5209 109.988 75.6815 110.144 75.7943C110.3 75.9072 110.504 76.0026 110.756 76.0807C111.016 76.1588 111.285 76.2413 111.563 76.3281C111.841 76.4062 112.106 76.5147 112.357 76.6536C112.609 76.7924 112.813 76.979 112.969 77.2134C113.134 77.4477 113.217 77.7558 113.217 78.1377C113.217 78.7192 113.008 79.1792 112.592 79.5177C112.184 79.8562 111.633 80.0255 110.938 80.0255ZM119.866 80.0255C119.302 80.0255 118.79 79.8866 118.33 79.6088C117.87 79.3224 117.505 78.9362 117.236 78.4502C116.976 77.9641 116.846 77.4173 116.846 76.8098C116.846 76.2022 116.976 75.6555 117.236 75.1694C117.505 74.6834 117.866 74.2972 118.317 74.0107C118.777 73.7243 119.293 73.5811 119.866 73.5811C120.335 73.5811 120.751 73.6809 121.116 73.8805C121.489 74.0715 121.789 74.3405 122.014 74.6877C122.24 75.0262 122.366 75.4211 122.392 75.8724V77.7341C122.366 78.1768 122.24 78.5717 122.014 78.9188C121.797 79.266 121.502 79.5394 121.129 79.739C120.764 79.93 120.344 80.0255 119.866 80.0255ZM120.061 78.9188C120.643 78.9188 121.112 78.7236 121.467 78.333C121.823 77.9338 122.001 77.426 122.001 76.8098C122.001 76.3845 121.919 76.0156 121.754 75.7032C121.598 75.3821 121.372 75.1347 121.077 74.9611C120.782 74.7788 120.439 74.6877 120.048 74.6877C119.658 74.6877 119.311 74.7788 119.007 74.9611C118.712 75.1434 118.477 75.3951 118.304 75.7162C118.139 76.0287 118.057 76.3888 118.057 76.7968C118.057 77.2134 118.139 77.5822 118.304 77.9034C118.477 78.2158 118.716 78.4632 119.02 78.6455C119.324 78.8277 119.671 78.9188 120.061 78.9188ZM121.923 79.8953V78.2288L122.144 76.7187L121.923 75.2215V73.7113H123.108V79.8953H121.923ZM129.188 79.8953V76.289C129.188 75.8204 129.041 75.4341 128.745 75.1304C128.45 74.8266 128.068 74.6747 127.6 74.6747C127.287 74.6747 127.01 74.7441 126.767 74.883C126.524 75.0219 126.333 75.2128 126.194 75.4558C126.055 75.6988 125.985 75.9766 125.985 76.289L125.504 76.0156C125.504 75.547 125.608 75.1304 125.816 74.7658C126.025 74.4013 126.315 74.1149 126.688 73.9066C127.062 73.6896 127.483 73.5811 127.951 73.5811C128.42 73.5811 128.832 73.6983 129.188 73.9326C129.553 74.167 129.839 74.4751 130.047 74.857C130.256 75.2302 130.36 75.6294 130.36 76.0547V79.8953H129.188ZM124.814 79.8953V73.7113H125.985V79.8953H124.814ZM134.563 80.0255C133.99 80.0255 133.478 79.8866 133.027 79.6088C132.575 79.3224 132.215 78.9362 131.946 78.4502C131.686 77.9641 131.556 77.4173 131.556 76.8098C131.556 76.2022 131.686 75.6555 131.946 75.1694C132.215 74.6834 132.575 74.2972 133.027 74.0107C133.478 73.7243 133.99 73.5811 134.563 73.5811C135.023 73.5811 135.44 73.6809 135.813 73.8805C136.186 74.0715 136.485 74.3405 136.711 74.6877C136.945 75.0262 137.076 75.4211 137.102 75.8724V77.7341C137.076 78.1768 136.95 78.5717 136.724 78.9188C136.498 79.266 136.199 79.5394 135.826 79.739C135.453 79.93 135.032 80.0255 134.563 80.0255ZM134.758 78.9188C135.149 78.9188 135.487 78.8277 135.774 78.6455C136.069 78.4632 136.299 78.2158 136.464 77.9034C136.629 77.5822 136.711 77.2177 136.711 76.8098C136.711 76.3845 136.624 76.0156 136.451 75.7032C136.286 75.3907 136.056 75.1434 135.761 74.9611C135.474 74.7788 135.136 74.6877 134.745 74.6877C134.355 74.6877 134.012 74.7788 133.717 74.9611C133.422 75.1434 133.187 75.3951 133.014 75.7162C132.849 76.0287 132.766 76.3888 132.766 76.7968C132.766 77.2134 132.849 77.5822 133.014 77.9034C133.187 78.2158 133.422 78.4632 133.717 78.6455C134.02 78.8277 134.368 78.9188 134.758 78.9188ZM137.818 79.8953H136.633V78.2288L136.854 76.7187L136.633 75.2215V70.5998H137.818V79.8953ZM143.117 79.8953V72.5917C143.117 72.1838 143.204 71.8236 143.377 71.5111C143.559 71.19 143.811 70.9383 144.132 70.756C144.453 70.5651 144.822 70.4696 145.239 70.4696C145.56 70.4696 145.842 70.526 146.085 70.6388C146.328 70.743 146.554 70.8905 146.762 71.0815L145.994 71.8496C145.881 71.7541 145.764 71.6847 145.643 71.6413C145.521 71.5892 145.386 71.5632 145.239 71.5632C144.935 71.5632 144.701 71.6587 144.536 71.8496C144.371 72.0319 144.289 72.2792 144.289 72.5917V79.8953H143.117ZM141.594 74.7788V73.7113H147.465V74.7788H141.594ZM146.788 79.8953V73.7113H147.973V79.8953H146.788ZM147.374 73.0604C147.166 73.0604 146.992 72.9909 146.853 72.8521C146.714 72.7045 146.645 72.5222 146.645 72.3053C146.645 72.097 146.714 71.9234 146.853 71.7845C146.992 71.637 147.166 71.5632 147.374 71.5632C147.6 71.5632 147.778 71.637 147.908 71.7845C148.047 71.9234 148.116 72.097 148.116 72.3053C148.116 72.5222 148.047 72.7045 147.908 72.8521C147.778 72.9909 147.6 73.0604 147.374 73.0604ZM154.069 79.8953V76.289C154.069 75.8204 153.921 75.4341 153.626 75.1304C153.331 74.8266 152.949 74.6747 152.481 74.6747C152.168 74.6747 151.89 74.7441 151.647 74.883C151.404 75.0219 151.213 75.2128 151.075 75.4558C150.936 75.6988 150.866 75.9766 150.866 76.289L150.385 76.0156C150.385 75.547 150.489 75.1304 150.697 74.7658C150.905 74.4013 151.196 74.1149 151.569 73.9066C151.942 73.6896 152.363 73.5811 152.832 73.5811C153.301 73.5811 153.713 73.6983 154.069 73.9326C154.433 74.167 154.72 74.4751 154.928 74.857C155.136 75.2302 155.241 75.6294 155.241 76.0547V79.8953H154.069ZM149.695 79.8953V73.7113H150.866V79.8953H149.695ZM159.457 80.0255C158.893 80.0255 158.381 79.8866 157.921 79.6088C157.461 79.3224 157.096 78.9362 156.827 78.4502C156.567 77.9641 156.436 77.4173 156.436 76.8098C156.436 76.2022 156.567 75.6555 156.827 75.1694C157.096 74.6834 157.456 74.2972 157.908 74.0107C158.368 73.7243 158.884 73.5811 159.457 73.5811C159.925 73.5811 160.342 73.6809 160.707 73.8805C161.08 74.0715 161.379 74.3405 161.605 74.6877C161.831 75.0262 161.956 75.4211 161.982 75.8724V77.7341C161.956 78.1768 161.831 78.5717 161.605 78.9188C161.388 79.266 161.093 79.5394 160.72 79.739C160.355 79.93 159.934 80.0255 159.457 80.0255ZM159.652 78.9188C160.234 78.9188 160.702 78.7236 161.058 78.333C161.414 77.9338 161.592 77.426 161.592 76.8098C161.592 76.3845 161.509 76.0156 161.344 75.7032C161.188 75.3821 160.963 75.1347 160.668 74.9611C160.372 74.7788 160.03 74.6877 159.639 74.6877C159.248 74.6877 158.901 74.7788 158.598 74.9611C158.302 75.1434 158.068 75.3951 157.894 75.7162C157.73 76.0287 157.647 76.3888 157.647 76.7968C157.647 77.2134 157.73 77.5822 157.894 77.9034C158.068 78.2158 158.307 78.4632 158.611 78.6455C158.914 78.8277 159.261 78.9188 159.652 78.9188ZM161.514 79.8953V78.2288L161.735 76.7187L161.514 75.2215V73.7113H162.698V79.8953H161.514ZM168.779 79.8953V76.289C168.779 75.8204 168.631 75.4341 168.336 75.1304C168.041 74.8266 167.659 74.6747 167.19 74.6747C166.878 74.6747 166.6 74.7441 166.357 74.883C166.114 75.0219 165.923 75.2128 165.784 75.4558C165.645 75.6988 165.576 75.9766 165.576 76.289L165.094 76.0156C165.094 75.547 165.198 75.1304 165.407 74.7658C165.615 74.4013 165.906 74.1149 166.279 73.9066C166.652 73.6896 167.073 73.5811 167.542 73.5811C168.011 73.5811 168.423 73.6983 168.779 73.9326C169.143 74.167 169.43 74.4751 169.638 74.857C169.846 75.2302 169.95 75.6294 169.95 76.0547V79.8953H168.779ZM164.404 79.8953V73.7113H165.576V79.8953H164.404ZM174.362 80.0255C173.754 80.0255 173.203 79.8822 172.708 79.5958C172.222 79.3094 171.836 78.9232 171.55 78.4372C171.272 77.9424 171.133 77.3956 171.133 76.7968C171.133 76.1892 171.272 75.6424 171.55 75.1564C171.836 74.6704 172.222 74.2885 172.708 74.0107C173.203 73.7243 173.754 73.5811 174.362 73.5811C174.839 73.5811 175.282 73.6722 175.69 73.8545C176.098 74.0281 176.449 74.2841 176.744 74.6226L175.963 75.4038C175.772 75.1781 175.538 75.0088 175.26 74.896C174.991 74.7745 174.692 74.7138 174.362 74.7138C173.971 74.7138 173.624 74.8049 173.32 74.9872C173.017 75.1607 172.778 75.4038 172.604 75.7162C172.431 76.0287 172.344 76.3888 172.344 76.7968C172.344 77.2047 172.431 77.5649 172.604 77.8773C172.778 78.1898 173.017 78.4372 173.32 78.6194C173.624 78.8017 173.971 78.8928 174.362 78.8928C174.692 78.8928 174.991 78.8364 175.26 78.7236C175.538 78.6021 175.777 78.4285 175.976 78.2028L176.744 78.9839C176.458 79.3138 176.106 79.5698 175.69 79.7521C175.282 79.9343 174.839 80.0255 174.362 80.0255ZM177.919 79.8953V73.7113H179.091V79.8953H177.919ZM178.505 72.4745C178.288 72.4745 178.11 72.4051 177.971 72.2662C177.833 72.1187 177.763 71.9364 177.763 71.7194C177.763 71.5111 177.833 71.3375 177.971 71.1987C178.11 71.0511 178.288 70.9773 178.505 70.9773C178.722 70.9773 178.9 71.0511 179.039 71.1987C179.178 71.3375 179.247 71.5111 179.247 71.7194C179.247 71.9364 179.178 72.1187 179.039 72.2662C178.9 72.4051 178.722 72.4745 178.505 72.4745ZM183.448 80.0255C182.883 80.0255 182.371 79.8866 181.911 79.6088C181.451 79.3224 181.087 78.9362 180.818 78.4502C180.557 77.9641 180.427 77.4173 180.427 76.8098C180.427 76.2022 180.557 75.6555 180.818 75.1694C181.087 74.6834 181.447 74.2972 181.898 74.0107C182.358 73.7243 182.875 73.5811 183.448 73.5811C183.916 73.5811 184.333 73.6809 184.697 73.8805C185.071 74.0715 185.37 74.3405 185.596 74.6877C185.821 75.0262 185.947 75.4211 185.973 75.8724V77.7341C185.947 78.1768 185.821 78.5717 185.596 78.9188C185.379 79.266 185.084 79.5394 184.71 79.739C184.346 79.93 183.925 80.0255 183.448 80.0255ZM183.643 78.9188C184.224 78.9188 184.693 78.7236 185.049 78.333C185.405 77.9338 185.583 77.426 185.583 76.8098C185.583 76.3845 185.5 76.0156 185.335 75.7032C185.179 75.3821 184.953 75.1347 184.658 74.9611C184.363 74.7788 184.02 74.6877 183.63 74.6877C183.239 74.6877 182.892 74.7788 182.588 74.9611C182.293 75.1434 182.059 75.3951 181.885 75.7162C181.72 76.0287 181.638 76.3888 181.638 76.7968C181.638 77.2134 181.72 77.5822 181.885 77.9034C182.059 78.2158 182.298 78.4632 182.601 78.6455C182.905 78.8277 183.252 78.9188 183.643 78.9188ZM185.505 79.8953V78.2288L185.726 76.7187L185.505 75.2215V73.7113H186.689V79.8953H185.505ZM188.395 79.8953V70.5998H189.567V79.8953H188.395ZM16.933 98.8953V91.787C16.933 91.327 17.0328 90.9277 17.2324 90.5892C17.4321 90.2421 17.7055 89.9687 18.0526 89.769C18.4085 89.5694 18.8207 89.4696 19.2894 89.4696C19.6453 89.4696 19.9534 89.5304 20.2138 89.6519C20.4741 89.7734 20.7128 89.9513 20.9298 90.1856L20.1617 90.9407C20.0489 90.8192 19.923 90.7281 19.7841 90.6673C19.6453 90.5979 19.476 90.5632 19.2764 90.5632C18.9032 90.5632 18.6124 90.6717 18.4041 90.8887C18.2045 91.1056 18.1047 91.4051 18.1047 91.787V98.8953H16.933ZM15.4098 93.7788V92.7113H20.0706V93.7788H15.4098ZM21.0188 98.8953V92.7113H22.1905V98.8953H21.0188ZM22.1905 95.3672L21.7478 95.1719C21.7478 94.3821 21.9301 93.7528 22.2946 93.2841C22.6592 92.8155 23.1843 92.5811 23.8699 92.5811C24.1824 92.5811 24.4645 92.6375 24.7162 92.7504C24.9678 92.8545 25.2022 93.0324 25.4192 93.2841L24.6511 94.0783C24.5209 93.9394 24.3777 93.8396 24.2214 93.7788C24.0652 93.7181 23.8829 93.6877 23.6746 93.6877C23.2407 93.6877 22.8848 93.8266 22.6071 94.1043C22.3294 94.3821 22.1905 94.803 22.1905 95.3672ZM28.6705 99.0255C28.1064 99.0255 27.5943 98.8866 27.1343 98.6088C26.6743 98.3224 26.3098 97.9362 26.0407 97.4502C25.7803 96.9641 25.6502 96.4173 25.6502 95.8098C25.6502 95.2022 25.7803 94.6555 26.0407 94.1694C26.3098 93.6834 26.67 93.2972 27.1213 93.0107C27.5813 92.7243 28.0977 92.5811 28.6705 92.5811C29.1392 92.5811 29.5558 92.6809 29.9203 92.8805C30.2936 93.0715 30.593 93.3405 30.8186 93.6877C31.0443 94.0262 31.1702 94.4211 31.1962 94.8724V96.7341C31.1702 97.1768 31.0443 97.5717 30.8186 97.9188C30.6017 98.266 30.3066 98.5394 29.9334 98.739C29.5688 98.93 29.1479 99.0255 28.6705 99.0255ZM28.8658 97.9188C29.4473 97.9188 29.916 97.7236 30.2719 97.333C30.6277 96.9338 30.8056 96.426 30.8056 95.8098C30.8056 95.3845 30.7232 95.0156 30.5583 94.7032C30.402 94.3821 30.1764 94.1347 29.8813 93.9611C29.5862 93.7788 29.2434 93.6877 28.8528 93.6877C28.4622 93.6877 28.1151 93.7788 27.8113 93.9611C27.5162 94.1434 27.2819 94.3951 27.1083 94.7162C26.9434 95.0287 26.8609 95.3888 26.8609 95.7968C26.8609 96.2134 26.9434 96.5822 27.1083 96.9034C27.2819 97.2158 27.5205 97.4632 27.8243 97.6455C28.1281 97.8277 28.4752 97.9188 28.8658 97.9188ZM30.7275 98.8953V97.2288L30.9488 95.7187L30.7275 94.2215V92.7113H31.9122V98.8953H30.7275ZM36.1047 99.0255C35.6013 99.0255 35.1457 98.9126 34.7377 98.687C34.3385 98.4526 34.026 98.1315 33.8004 97.7236C33.5747 97.3156 33.4619 96.8426 33.4619 96.3045V92.7113H34.6336V96.2524C34.6336 96.5909 34.69 96.886 34.8028 97.1377C34.9243 97.3807 35.0979 97.5673 35.3236 97.6975C35.5492 97.8277 35.814 97.8928 36.1177 97.8928C36.5777 97.8928 36.9379 97.7496 37.1983 97.4632C37.4587 97.1681 37.5889 96.7645 37.5889 96.2524V92.7113H38.7606V96.3045C38.7606 96.8426 38.6477 97.3156 38.4221 97.7236C38.1964 98.1315 37.884 98.4526 37.4847 98.687C37.0941 98.9126 36.6341 99.0255 36.1047 99.0255ZM42.9478 99.0255C42.3749 99.0255 41.8628 98.8866 41.4115 98.6088C40.9602 98.3224 40.6 97.9362 40.331 97.4502C40.0706 96.9641 39.9404 96.4173 39.9404 95.8098C39.9404 95.2022 40.0706 94.6555 40.331 94.1694C40.6 93.6834 40.9602 93.2972 41.4115 93.0107C41.8628 92.7243 42.3749 92.5811 42.9478 92.5811C43.4078 92.5811 43.8244 92.6809 44.1976 92.8805C44.5708 93.0715 44.8702 93.3405 45.0959 93.6877C45.3302 94.0262 45.4604 94.4211 45.4864 94.8724V96.7341C45.4604 97.1768 45.3345 97.5717 45.1089 97.9188C44.8832 98.266 44.5838 98.5394 44.2106 98.739C43.8374 98.93 43.4164 99.0255 42.9478 99.0255ZM43.143 97.9188C43.5336 97.9188 43.8721 97.8277 44.1585 97.6455C44.4536 97.4632 44.6836 97.2158 44.8485 96.9034C45.0134 96.5822 45.0959 96.2177 45.0959 95.8098C45.0959 95.3845 45.0091 95.0156 44.8355 94.7032C44.6706 94.3907 44.4406 94.1434 44.1455 93.9611C43.8591 93.7788 43.5206 93.6877 43.13 93.6877C42.7395 93.6877 42.3966 93.7788 42.1015 93.9611C41.8064 94.1434 41.5721 94.3951 41.3985 94.7162C41.2336 95.0287 41.1511 95.3888 41.1511 95.7968C41.1511 96.2134 41.2336 96.5822 41.3985 96.9034C41.5721 97.2158 41.8064 97.4632 42.1015 97.6455C42.4053 97.8277 42.7525 97.9188 43.143 97.9188ZM46.2025 98.8953H45.0178V97.2288L45.2391 95.7187L45.0178 94.2215V89.5998H46.2025V98.8953ZM50.6164 98.8953V92.7113H51.7881V98.8953H50.6164ZM51.7881 95.3672L51.3454 95.1719C51.3454 94.3821 51.5277 93.7528 51.8922 93.2841C52.2568 92.8155 52.7818 92.5811 53.4675 92.5811C53.78 92.5811 54.062 92.6375 54.3137 92.7504C54.5654 92.8545 54.7998 93.0324 55.0168 93.2841L54.2486 94.0783C54.1185 93.9394 53.9752 93.8396 53.819 93.7788C53.6628 93.7181 53.4805 93.6877 53.2722 93.6877C52.8383 93.6877 52.4824 93.8266 52.2047 94.1043C51.9269 94.3821 51.7881 94.803 51.7881 95.3672ZM55.8547 98.8953V92.7113H57.0264V98.8953H55.8547ZM56.4406 91.4745C56.2236 91.4745 56.0457 91.4051 55.9068 91.2662C55.7679 91.1187 55.6985 90.9364 55.6985 90.7194C55.6985 90.5111 55.7679 90.3375 55.9068 90.1987C56.0457 90.0511 56.2236 89.9773 56.4406 89.9773C56.6576 89.9773 56.8355 90.0511 56.9744 90.1987C57.1132 90.3375 57.1827 90.5111 57.1827 90.7194C57.1827 90.9364 57.1132 91.1187 56.9744 91.2662C56.8355 91.4051 56.6576 91.4745 56.4406 91.4745ZM60.719 99.0255C60.3718 99.0255 60.042 98.9821 59.7296 98.8953C59.4258 98.7998 59.1437 98.6696 58.8834 98.5047C58.623 98.3311 58.3973 98.1272 58.2064 97.8928L58.9615 97.1377C59.1871 97.4155 59.4475 97.6238 59.7426 97.7626C60.0377 97.8928 60.3675 97.9579 60.732 97.9579C61.0966 97.9579 61.3786 97.8972 61.5783 97.7756C61.7779 97.6455 61.8777 97.4675 61.8777 97.2419C61.8777 97.0162 61.7952 96.8426 61.6303 96.7211C61.4741 96.5909 61.2701 96.4868 61.0184 96.4087C60.7668 96.3219 60.4977 96.2394 60.2113 96.1613C59.9335 96.0745 59.6688 95.966 59.4171 95.8358C59.1654 95.7056 58.9571 95.5277 58.7922 95.3021C58.636 95.0764 58.5579 94.777 58.5579 94.4038C58.5579 94.0305 58.649 93.7094 58.8313 93.4404C59.0135 93.1626 59.2652 92.95 59.5864 92.8024C59.9162 92.6549 60.3111 92.5811 60.7711 92.5811C61.2571 92.5811 61.6868 92.6679 62.06 92.8415C62.4418 93.0064 62.7543 93.2581 62.9973 93.5966L62.2422 94.3517C62.0686 94.126 61.8517 93.9524 61.5913 93.8309C61.3396 93.7094 61.0532 93.6487 60.732 93.6487C60.3935 93.6487 60.1332 93.7094 59.9509 93.8309C59.7773 93.9438 59.6905 94.1043 59.6905 94.3126C59.6905 94.5209 59.7686 94.6815 59.9249 94.7943C60.0811 94.9072 60.2851 95.0026 60.5368 95.0807C60.7971 95.1588 61.0662 95.2413 61.3439 95.3281C61.6217 95.4062 61.8864 95.5147 62.1381 95.6536C62.3898 95.7924 62.5937 95.979 62.75 96.2134C62.9149 96.4477 62.9973 96.7558 62.9973 97.1377C62.9973 97.7192 62.789 98.1792 62.3724 98.5177C61.9645 98.8562 61.4134 99.0255 60.719 99.0255ZM68.2668 98.8953L65.3766 95.7317L68.2408 92.7113H69.6598L66.4702 96.0441L66.5223 95.3672L69.777 98.8953H68.2668ZM64.3091 98.8953V89.5998H65.4808V98.8953H64.3091ZM72.3902 99.0255C72.0431 99.0255 71.7132 98.9821 71.4008 98.8953C71.097 98.7998 70.8149 98.6696 70.5546 98.5047C70.2942 98.3311 70.0685 98.1272 69.8776 97.8928L70.6327 97.1377C70.8583 97.4155 71.1187 97.6238 71.4138 97.7626C71.7089 97.8928 72.0387 97.9579 72.4032 97.9579C72.7678 97.9579 73.0498 97.8972 73.2495 97.7756C73.4491 97.6455 73.5489 97.4675 73.5489 97.2419C73.5489 97.0162 73.4665 96.8426 73.3015 96.7211C73.1453 96.5909 72.9414 96.4868 72.6897 96.4087C72.438 96.3219 72.1689 96.2394 71.8825 96.1613C71.6048 96.0745 71.34 95.966 71.0883 95.8358C70.8366 95.7056 70.6283 95.5277 70.4634 95.3021C70.3072 95.0764 70.2291 94.777 70.2291 94.4038C70.2291 94.0305 70.3202 93.7094 70.5025 93.4404C70.6848 93.1626 70.9365 92.95 71.2576 92.8024C71.5874 92.6549 71.9823 92.5811 72.4423 92.5811C72.9283 92.5811 73.358 92.6679 73.7312 92.8415C74.1131 93.0064 74.4255 93.2581 74.6685 93.5966L73.9134 94.3517C73.7398 94.126 73.5229 93.9524 73.2625 93.8309C73.0108 93.7094 72.7244 93.6487 72.4032 93.6487C72.0648 93.6487 71.8044 93.7094 71.6221 93.8309C71.4485 93.9438 71.3617 94.1043 71.3617 94.3126C71.3617 94.5209 71.4398 94.6815 71.5961 94.7943C71.7523 94.9072 71.9563 95.0026 72.208 95.0807C72.4683 95.1588 72.7374 95.2413 73.0151 95.3281C73.2929 95.4062 73.5576 95.5147 73.8093 95.6536C74.061 95.7924 74.2649 95.979 74.4212 96.2134C74.5861 96.4477 74.6685 96.7558 74.6685 97.1377C74.6685 97.7192 74.4602 98.1792 74.0436 98.5177C73.6357 98.8562 73.0846 99.0255 72.3902 99.0255ZM81.943 99.0255C81.4743 99.0255 81.0491 98.93 80.6672 98.739C80.294 98.5394 79.9945 98.266 79.7689 97.9188C79.5432 97.5717 79.4174 97.1768 79.3913 96.7341V94.8724C79.4174 94.4211 79.5432 94.0262 79.7689 93.6877C80.0032 93.3405 80.307 93.0715 80.6802 92.8805C81.0621 92.6809 81.483 92.5811 81.943 92.5811C82.5072 92.5811 83.0149 92.7243 83.4662 93.0107C83.9262 93.2972 84.2864 93.6834 84.5468 94.1694C84.8072 94.6555 84.9374 95.2022 84.9374 95.8098C84.9374 96.4173 84.8072 96.9641 84.5468 97.4502C84.2864 97.9362 83.9262 98.3224 83.4662 98.6088C83.0149 98.8866 82.5072 99.0255 81.943 99.0255ZM81.7477 97.9188C82.1383 97.9188 82.4811 97.8277 82.7762 97.6455C83.0713 97.4632 83.3057 97.2158 83.4793 96.9034C83.6528 96.5822 83.7396 96.2134 83.7396 95.7968C83.7396 95.3888 83.6528 95.0243 83.4793 94.7032C83.3057 94.3821 83.0713 94.1347 82.7762 93.9611C82.4811 93.7788 82.1426 93.6877 81.7608 93.6877C81.3702 93.6877 81.0274 93.7788 80.7323 93.9611C80.4372 94.1347 80.2072 94.3821 80.0423 94.7032C79.8774 95.0243 79.7949 95.3932 79.7949 95.8098C79.7949 96.2177 79.873 96.5822 80.0293 96.9034C80.1942 97.2158 80.4242 97.4632 80.7193 97.6455C81.023 97.8277 81.3659 97.9188 81.7477 97.9188ZM78.6883 98.8953V89.5998H79.86V94.2215L79.6387 95.7187L79.86 97.2288V98.8953H78.6883ZM88.0551 98.9473L85.3732 92.7113H86.6751L88.667 97.5934H88.2504L90.3464 92.7113H91.6483L88.7581 98.9473H88.0551ZM86.2845 101.486L88.1072 97.7496L88.7581 98.9473L87.5864 101.486H86.2845ZM95.4196 98.8953V89.5998H96.5913V98.8953H95.4196ZM101.17 99.0255C100.554 99.0255 99.9981 98.8866 99.5033 98.6088C99.0086 98.3224 98.6181 97.9362 98.3316 97.4502C98.0452 96.9641 97.902 96.413 97.902 95.7968C97.902 95.1892 98.0409 94.6424 98.3186 94.1564C98.605 93.6704 98.9869 93.2885 99.4643 93.0107C99.9503 92.7243 100.493 92.5811 101.092 92.5811C101.664 92.5811 102.168 92.7113 102.602 92.9717C103.044 93.2321 103.387 93.5922 103.63 94.0522C103.882 94.5122 104.008 95.033 104.008 95.6145C104.008 95.7013 104.004 95.7968 103.995 95.9009C103.986 95.9964 103.969 96.1092 103.943 96.2394H98.7222V95.263H103.318L102.888 95.6405C102.888 95.2239 102.814 94.8724 102.667 94.586C102.519 94.2909 102.311 94.0653 102.042 93.909C101.773 93.7441 101.447 93.6617 101.066 93.6617C100.666 93.6617 100.315 93.7485 100.011 93.9221C99.7073 94.0956 99.473 94.3387 99.3081 94.6511C99.1432 94.9636 99.0607 95.3324 99.0607 95.7577C99.0607 96.1917 99.1475 96.5736 99.3211 96.9034C99.4947 97.2245 99.742 97.4762 100.063 97.6585C100.384 97.8321 100.753 97.9188 101.17 97.9188C101.517 97.9188 101.834 97.8581 102.12 97.7366C102.415 97.6151 102.667 97.4328 102.875 97.1898L103.63 97.9579C103.335 98.3051 102.971 98.5698 102.537 98.7521C102.111 98.9343 101.656 99.0255 101.17 99.0255ZM107.306 98.8953L104.468 92.7113H105.77L108.048 97.9319H107.293L109.584 92.7113H110.834L107.996 98.8953H107.306ZM114.456 99.0255C113.839 99.0255 113.284 98.8866 112.789 98.6088C112.294 98.3224 111.904 97.9362 111.617 97.4502C111.331 96.9641 111.188 96.413 111.188 95.7968C111.188 95.1892 111.327 94.6424 111.604 94.1564C111.891 93.6704 112.273 93.2885 112.75 93.0107C113.236 92.7243 113.779 92.5811 114.377 92.5811C114.95 92.5811 115.454 92.7113 115.888 92.9717C116.33 93.2321 116.673 93.5922 116.916 94.0522C117.168 94.5122 117.294 95.033 117.294 95.6145C117.294 95.7013 117.289 95.7968 117.281 95.9009C117.272 95.9964 117.255 96.1092 117.229 96.2394H112.008V95.263H116.604L116.174 95.6405C116.174 95.2239 116.1 94.8724 115.953 94.586C115.805 94.2909 115.597 94.0653 115.328 93.909C115.059 93.7441 114.733 93.6617 114.351 93.6617C113.952 93.6617 113.601 93.7485 113.297 93.9221C112.993 94.0956 112.759 94.3387 112.594 94.6511C112.429 94.9636 112.347 95.3324 112.347 95.7577C112.347 96.1917 112.433 96.5736 112.607 96.9034C112.781 97.2245 113.028 97.4762 113.349 97.6585C113.67 97.8321 114.039 97.9188 114.456 97.9188C114.803 97.9188 115.12 97.8581 115.406 97.7366C115.701 97.6151 115.953 97.4328 116.161 97.1898L116.916 97.9579C116.621 98.3051 116.257 98.5698 115.823 98.7521C115.397 98.9343 114.942 99.0255 114.456 99.0255ZM118.571 98.8953V92.7113H119.743V98.8953H118.571ZM119.743 95.3672L119.3 95.1719C119.3 94.3821 119.483 93.7528 119.847 93.2841C120.212 92.8155 120.737 92.5811 121.422 92.5811C121.735 92.5811 122.017 92.6375 122.269 92.7504C122.52 92.8545 122.755 93.0324 122.972 93.2841L122.204 94.0783C122.073 93.9394 121.93 93.8396 121.774 93.7788C121.618 93.7181 121.435 93.6877 121.227 93.6877C120.793 93.6877 120.437 93.8266 120.16 94.1043C119.882 94.3821 119.743 94.803 119.743 95.3672ZM126.223 99.0255C125.659 99.0255 125.147 98.8866 124.687 98.6088C124.227 98.3224 123.862 97.9362 123.593 97.4502C123.333 96.9641 123.203 96.4173 123.203 95.8098C123.203 95.2022 123.333 94.6555 123.593 94.1694C123.862 93.6834 124.222 93.2972 124.674 93.0107C125.134 92.7243 125.65 92.5811 126.223 92.5811C126.692 92.5811 127.108 92.6809 127.473 92.8805C127.846 93.0715 128.145 93.3405 128.371 93.6877C128.597 94.0262 128.723 94.4211 128.749 94.8724V96.7341C128.723 97.1768 128.597 97.5717 128.371 97.9188C128.154 98.266 127.859 98.5394 127.486 98.739C127.121 98.93 126.7 99.0255 126.223 99.0255ZM126.418 97.9188C127 97.9188 127.469 97.7236 127.824 97.333C128.18 96.9338 128.358 96.426 128.358 95.8098C128.358 95.3845 128.276 95.0156 128.111 94.7032C127.955 94.3821 127.729 94.1347 127.434 93.9611C127.139 93.7788 126.796 93.6877 126.405 93.6877C126.015 93.6877 125.668 93.7788 125.364 93.9611C125.069 94.1434 124.834 94.3951 124.661 94.7162C124.496 95.0287 124.413 95.3888 124.413 95.7968C124.413 96.2134 124.496 96.5822 124.661 96.9034C124.834 97.2158 125.073 97.4632 125.377 97.6455C125.681 97.8277 126.028 97.9188 126.418 97.9188ZM128.28 98.8953V97.2288L128.501 95.7187L128.28 94.2215V92.7113H129.465V98.8953H128.28ZM133.735 101.616C133.102 101.616 132.538 101.499 132.043 101.265C131.557 101.03 131.166 100.701 130.871 100.275L131.626 99.5072C131.878 99.8283 132.177 100.071 132.525 100.236C132.872 100.41 133.284 100.497 133.761 100.497C134.395 100.497 134.894 100.327 135.259 99.9888C135.632 99.659 135.818 99.2121 135.818 98.6479V97.1117L136.027 95.7187L135.818 94.3387V92.7113H136.99V98.6479C136.99 99.2381 136.851 99.7545 136.573 100.197C136.304 100.64 135.923 100.987 135.428 101.239C134.942 101.49 134.378 101.616 133.735 101.616ZM133.735 98.7911C133.171 98.7911 132.663 98.6566 132.212 98.3875C131.769 98.1185 131.418 97.7496 131.158 97.2809C130.897 96.8036 130.767 96.2698 130.767 95.6796C130.767 95.0894 130.897 94.5643 131.158 94.1043C131.418 93.6356 131.769 93.2668 132.212 92.9977C132.663 92.72 133.171 92.5811 133.735 92.5811C134.221 92.5811 134.651 92.6766 135.024 92.8675C135.397 93.0585 135.693 93.3275 135.909 93.6747C136.135 94.0132 136.257 94.4124 136.274 94.8724V96.5128C136.248 96.9641 136.122 97.3634 135.896 97.7105C135.679 98.049 135.384 98.3138 135.011 98.5047C134.638 98.6956 134.213 98.7911 133.735 98.7911ZM133.97 97.6845C134.352 97.6845 134.686 97.6021 134.972 97.4372C135.267 97.2722 135.493 97.0422 135.649 96.7472C135.805 96.4434 135.883 96.0919 135.883 95.6926C135.883 95.2934 135.801 94.9462 135.636 94.6511C135.48 94.3473 135.259 94.113 134.972 93.9481C134.686 93.7745 134.347 93.6877 133.957 93.6877C133.566 93.6877 133.223 93.7745 132.928 93.9481C132.633 94.113 132.399 94.3473 132.225 94.6511C132.06 94.9462 131.978 95.289 131.978 95.6796C131.978 96.0702 132.06 96.4173 132.225 96.7211C132.399 97.0249 132.633 97.2636 132.928 97.4372C133.232 97.6021 133.579 97.6845 133.97 97.6845ZM138.723 98.8953V92.7113H139.895V98.8953H138.723ZM139.309 91.4745C139.092 91.4745 138.914 91.4051 138.775 91.2662C138.636 91.1187 138.567 90.9364 138.567 90.7194C138.567 90.5111 138.636 90.3375 138.775 90.1987C138.914 90.0511 139.092 89.9773 139.309 89.9773C139.526 89.9773 139.704 90.0511 139.843 90.1987C139.981 90.3375 140.051 90.5111 140.051 90.7194C140.051 90.9364 139.981 91.1187 139.843 91.2662C139.704 91.4051 139.526 91.4745 139.309 91.4745ZM145.996 98.8953V95.289C145.996 94.8204 145.848 94.4341 145.553 94.1304C145.258 93.8266 144.876 93.6747 144.407 93.6747C144.095 93.6747 143.817 93.7441 143.574 93.883C143.331 94.0219 143.14 94.2128 143.001 94.4558C142.862 94.6988 142.793 94.9766 142.793 95.289L142.311 95.0156C142.311 94.547 142.415 94.1304 142.624 93.7658C142.832 93.4013 143.123 93.1149 143.496 92.9066C143.869 92.6896 144.29 92.5811 144.759 92.5811C145.228 92.5811 145.64 92.6983 145.996 92.9326C146.36 93.167 146.647 93.4751 146.855 93.857C147.063 94.2302 147.167 94.6294 147.167 95.0547V98.8953H145.996ZM141.621 98.8953V92.7113H142.793V98.8953H141.621ZM151.318 101.616C150.685 101.616 150.121 101.499 149.626 101.265C149.14 101.03 148.749 100.701 148.454 100.275L149.209 99.5072C149.461 99.8283 149.761 100.071 150.108 100.236C150.455 100.41 150.867 100.497 151.344 100.497C151.978 100.497 152.477 100.327 152.842 99.9888C153.215 99.659 153.401 99.2121 153.401 98.6479V97.1117L153.61 95.7187L153.401 94.3387V92.7113H154.573V98.6479C154.573 99.2381 154.434 99.7545 154.157 100.197C153.887 100.64 153.506 100.987 153.011 101.239C152.525 101.49 151.961 101.616 151.318 101.616ZM151.318 98.7911C150.754 98.7911 150.247 98.6566 149.795 98.3875C149.353 98.1185 149.001 97.7496 148.741 97.2809C148.48 96.8036 148.35 96.2698 148.35 95.6796C148.35 95.0894 148.48 94.5643 148.741 94.1043C149.001 93.6356 149.353 93.2668 149.795 92.9977C150.247 92.72 150.754 92.5811 151.318 92.5811C151.804 92.5811 152.234 92.6766 152.607 92.8675C152.981 93.0585 153.276 93.3275 153.493 93.6747C153.718 94.0132 153.84 94.4124 153.857 94.8724V96.5128C153.831 96.9641 153.705 97.3634 153.48 97.7105C153.263 98.049 152.967 98.3138 152.594 98.5047C152.221 98.6956 151.796 98.7911 151.318 98.7911ZM151.553 97.6845C151.935 97.6845 152.269 97.6021 152.555 97.4372C152.85 97.2722 153.076 97.0422 153.232 96.7472C153.388 96.4434 153.467 96.0919 153.467 95.6926C153.467 95.2934 153.384 94.9462 153.219 94.6511C153.063 94.3473 152.842 94.113 152.555 93.9481C152.269 93.7745 151.93 93.6877 151.54 93.6877C151.149 93.6877 150.806 93.7745 150.511 93.9481C150.216 94.113 149.982 94.3473 149.808 94.6511C149.643 94.9462 149.561 95.289 149.561 95.6796C149.561 96.0702 149.643 96.4173 149.808 96.7211C149.982 97.0249 150.216 97.2636 150.511 97.4372C150.815 97.6021 151.162 97.6845 151.553 97.6845ZM16.0607 117.895V111.711H17.2324V117.895H16.0607ZM16.6466 110.475C16.4296 110.475 16.2517 110.405 16.1128 110.266C15.9739 110.119 15.9045 109.936 15.9045 109.719C15.9045 109.511 15.9739 109.338 16.1128 109.199C16.2517 109.051 16.4296 108.977 16.6466 108.977C16.8636 108.977 17.0415 109.051 17.1804 109.199C17.3192 109.338 17.3887 109.511 17.3887 109.719C17.3887 109.936 17.3192 110.119 17.1804 110.266C17.0415 110.405 16.8636 110.475 16.6466 110.475ZM23.3335 117.895V114.289C23.3335 113.82 23.186 113.434 22.8909 113.13C22.5958 112.827 22.2139 112.675 21.7452 112.675C21.4328 112.675 21.155 112.744 20.912 112.883C20.669 113.022 20.478 113.213 20.3392 113.456C20.2003 113.699 20.1309 113.977 20.1309 114.289L19.6492 114.016C19.6492 113.547 19.7533 113.13 19.9616 112.766C20.1699 112.401 20.4607 112.115 20.8339 111.907C21.2071 111.69 21.628 111.581 22.0967 111.581C22.5654 111.581 22.9777 111.698 23.3335 111.933C23.698 112.167 23.9845 112.475 24.1928 112.857C24.4011 113.23 24.5052 113.629 24.5052 114.055V117.895H23.3335ZM18.9592 117.895V111.711H20.1309V117.895H18.9592ZM28.7084 118.025C28.1355 118.025 27.6235 117.887 27.1721 117.609C26.7208 117.322 26.3606 116.936 26.0916 116.45C25.8312 115.964 25.701 115.417 25.701 114.81C25.701 114.202 25.8312 113.655 26.0916 113.169C26.3606 112.683 26.7208 112.297 27.1721 112.011C27.6235 111.724 28.1355 111.581 28.7084 111.581C29.1684 111.581 29.585 111.681 29.9582 111.881C30.3314 112.071 30.6308 112.341 30.8565 112.688C31.0908 113.026 31.221 113.421 31.247 113.872V115.734C31.221 116.177 31.0952 116.572 30.8695 116.919C30.6438 117.266 30.3444 117.539 29.9712 117.739C29.598 117.93 29.177 118.025 28.7084 118.025ZM28.9037 116.919C29.2942 116.919 29.6327 116.828 29.9191 116.645C30.2142 116.463 30.4442 116.216 30.6091 115.903C30.774 115.582 30.8565 115.218 30.8565 114.81C30.8565 114.385 30.7697 114.016 30.5961 113.703C30.4312 113.391 30.2012 113.143 29.9061 112.961C29.6197 112.779 29.2812 112.688 28.8906 112.688C28.5001 112.688 28.1572 112.779 27.8621 112.961C27.567 113.143 27.3327 113.395 27.1591 113.716C26.9942 114.029 26.9118 114.389 26.9118 114.797C26.9118 115.213 26.9942 115.582 27.1591 115.903C27.3327 116.216 27.567 116.463 27.8621 116.645C28.1659 116.828 28.5131 116.919 28.9037 116.919ZM31.9631 117.895H30.7784V116.229L30.9997 114.719L30.7784 113.221V108.6H31.9631V117.895ZM36.5331 118.025C35.9169 118.025 35.3614 117.887 34.8667 117.609C34.372 117.322 33.9814 116.936 33.695 116.45C33.4086 115.964 33.2654 115.413 33.2654 114.797C33.2654 114.189 33.4042 113.642 33.682 113.156C33.9684 112.67 34.3503 112.288 34.8276 112.011C35.3137 111.724 35.8561 111.581 36.455 111.581C37.0278 111.581 37.5312 111.711 37.9652 111.972C38.4078 112.232 38.7507 112.592 38.9937 113.052C39.2454 113.512 39.3712 114.033 39.3712 114.615C39.3712 114.701 39.3669 114.797 39.3582 114.901C39.3495 114.996 39.3322 115.109 39.3061 115.239H34.0856V114.263H38.6812L38.2516 114.641C38.2516 114.224 38.1778 113.872 38.0303 113.586C37.8827 113.291 37.6744 113.065 37.4054 112.909C37.1363 112.744 36.8108 112.662 36.429 112.662C36.0297 112.662 35.6782 112.748 35.3744 112.922C35.0707 113.096 34.8363 113.339 34.6714 113.651C34.5065 113.964 34.4241 114.332 34.4241 114.758C34.4241 115.192 34.5108 115.574 34.6844 115.903C34.858 116.225 35.1054 116.476 35.4265 116.658C35.7476 116.832 36.1165 116.919 36.5331 116.919C36.8803 116.919 37.1971 116.858 37.4835 116.737C37.7786 116.615 38.0303 116.433 38.2386 116.19L38.9937 116.958C38.6986 117.305 38.3341 117.57 37.9001 117.752C37.4748 117.934 37.0192 118.025 36.5331 118.025ZM43.9035 118.025C43.4348 118.025 43.0096 117.93 42.6277 117.739C42.2545 117.539 41.955 117.266 41.7294 116.919C41.5037 116.572 41.3779 116.177 41.3518 115.734V113.872C41.3779 113.421 41.5037 113.026 41.7294 112.688C41.9637 112.341 42.2675 112.071 42.6407 111.881C43.0226 111.681 43.4435 111.581 43.9035 111.581C44.4677 111.581 44.9754 111.724 45.4267 112.011C45.8867 112.297 46.2469 112.683 46.5073 113.169C46.7677 113.655 46.8979 114.202 46.8979 114.81C46.8979 115.417 46.7677 115.964 46.5073 116.45C46.2469 116.936 45.8867 117.322 45.4267 117.609C44.9754 117.887 44.4677 118.025 43.9035 118.025ZM43.7082 116.919C44.0988 116.919 44.4416 116.828 44.7367 116.645C45.0318 116.463 45.2662 116.216 45.4397 115.903C45.6133 115.582 45.7001 115.213 45.7001 114.797C45.7001 114.389 45.6133 114.024 45.4397 113.703C45.2662 113.382 45.0318 113.135 44.7367 112.961C44.4416 112.779 44.1031 112.688 43.7213 112.688C43.3307 112.688 42.9879 112.779 42.6928 112.961C42.3977 113.135 42.1677 113.382 42.0028 113.703C41.8379 114.024 41.7554 114.393 41.7554 114.81C41.7554 115.218 41.8335 115.582 41.9897 115.903C42.1547 116.216 42.3847 116.463 42.6797 116.645C42.9835 116.828 43.3264 116.919 43.7082 116.919ZM40.6488 120.486V111.711H41.8205V113.339L41.5992 114.836L41.8205 116.346V120.486H40.6488ZM51.0903 118.025C50.4741 118.025 49.9186 117.887 49.4239 117.609C48.9292 117.322 48.5386 116.936 48.2522 116.45C47.9658 115.964 47.8226 115.413 47.8226 114.797C47.8226 114.189 47.9615 113.642 48.2392 113.156C48.5256 112.67 48.9075 112.288 49.3849 112.011C49.8709 111.724 50.4134 111.581 51.0122 111.581C51.5851 111.581 52.0885 111.711 52.5224 111.972C52.9651 112.232 53.3079 112.592 53.5509 113.052C53.8026 113.512 53.9285 114.033 53.9285 114.615C53.9285 114.701 53.9241 114.797 53.9154 114.901C53.9068 114.996 53.8894 115.109 53.8634 115.239H48.6428V114.263H53.2385L52.8088 114.641C52.8088 114.224 52.7351 113.872 52.5875 113.586C52.44 113.291 52.2317 113.065 51.9626 112.909C51.6936 112.744 51.3681 112.662 50.9862 112.662C50.5869 112.662 50.2354 112.748 49.9317 112.922C49.6279 113.096 49.3936 113.339 49.2286 113.651C49.0637 113.964 48.9813 114.332 48.9813 114.758C48.9813 115.192 49.0681 115.574 49.2417 115.903C49.4152 116.225 49.6626 116.476 49.9837 116.658C50.3049 116.832 50.6737 116.919 51.0903 116.919C51.4375 116.919 51.7543 116.858 52.0407 116.737C52.3358 116.615 52.5875 116.433 52.7958 116.19L53.5509 116.958C53.2558 117.305 52.8913 117.57 52.4573 117.752C52.032 117.934 51.5764 118.025 51.0903 118.025ZM59.5804 117.895V114.289C59.5804 113.82 59.4328 113.434 59.1377 113.13C58.8426 112.827 58.4608 112.675 57.9921 112.675C57.6796 112.675 57.4019 112.744 57.1589 112.883C56.9158 113.022 56.7249 113.213 56.586 113.456C56.4472 113.699 56.3777 113.977 56.3777 114.289L55.896 114.016C55.896 113.547 56.0002 113.13 56.2085 112.766C56.4168 112.401 56.7075 112.115 57.0808 111.907C57.454 111.69 57.8749 111.581 58.3436 111.581C58.8123 111.581 59.2245 111.698 59.5804 111.933C59.9449 112.167 60.2313 112.475 60.4396 112.857C60.6479 113.23 60.7521 113.629 60.7521 114.055V117.895H59.5804ZM55.206 117.895V111.711H56.3777V117.895H55.206ZM64.9552 118.025C64.3824 118.025 63.8703 117.887 63.419 117.609C62.9677 117.322 62.6075 116.936 62.3384 116.45C62.0781 115.964 61.9479 115.417 61.9479 114.81C61.9479 114.202 62.0781 113.655 62.3384 113.169C62.6075 112.683 62.9677 112.297 63.419 112.011C63.8703 111.724 64.3824 111.581 64.9552 111.581C65.4152 111.581 65.8318 111.681 66.205 111.881C66.5783 112.071 66.8777 112.341 67.1033 112.688C67.3377 113.026 67.4679 113.421 67.4939 113.872V115.734C67.4679 116.177 67.342 116.572 67.1164 116.919C66.8907 117.266 66.5913 117.539 66.2181 117.739C65.8449 117.93 65.4239 118.025 64.9552 118.025ZM65.1505 116.919C65.5411 116.919 65.8796 116.828 66.166 116.645C66.4611 116.463 66.6911 116.216 66.856 115.903C67.0209 115.582 67.1033 115.218 67.1033 114.81C67.1033 114.385 67.0166 114.016 66.843 113.703C66.6781 113.391 66.4481 113.143 66.153 112.961C65.8666 112.779 65.5281 112.688 65.1375 112.688C64.7469 112.688 64.4041 112.779 64.109 112.961C63.8139 113.143 63.5796 113.395 63.406 113.716C63.2411 114.029 63.1586 114.389 63.1586 114.797C63.1586 115.213 63.2411 115.582 63.406 115.903C63.5796 116.216 63.8139 116.463 64.109 116.645C64.4128 116.828 64.7599 116.919 65.1505 116.919ZM68.2099 117.895H67.0252V116.229L67.2466 114.719L67.0252 113.221V108.6H68.2099V117.895ZM72.78 118.025C72.1638 118.025 71.6083 117.887 71.1136 117.609C70.6188 117.322 70.2283 116.936 69.9419 116.45C69.6555 115.964 69.5122 115.413 69.5122 114.797C69.5122 114.189 69.6511 113.642 69.9288 113.156C70.2153 112.67 70.5971 112.288 71.0745 112.011C71.5605 111.724 72.103 111.581 72.7019 111.581C73.2747 111.581 73.7781 111.711 74.2121 111.972C74.6547 112.232 74.9975 112.592 75.2405 113.052C75.4922 113.512 75.6181 114.033 75.6181 114.615C75.6181 114.701 75.6138 114.797 75.6051 114.901C75.5964 114.996 75.579 115.109 75.553 115.239H70.3324V114.263H74.9281L74.4985 114.641C74.4985 114.224 74.4247 113.872 74.2771 113.586C74.1296 113.291 73.9213 113.065 73.6522 112.909C73.3832 112.744 73.0577 112.662 72.6758 112.662C72.2766 112.662 71.9251 112.748 71.6213 112.922C71.3175 113.096 71.0832 113.339 70.9183 113.651C70.7534 113.964 70.6709 114.332 70.6709 114.758C70.6709 115.192 70.7577 115.574 70.9313 115.903C71.1049 116.225 71.3522 116.476 71.6734 116.658C71.9945 116.832 72.3634 116.919 72.78 116.919C73.1271 116.919 73.4439 116.858 73.7304 116.737C74.0255 116.615 74.2771 116.433 74.4855 116.19L75.2405 116.958C74.9455 117.305 74.5809 117.57 74.147 117.752C73.7217 117.934 73.266 118.025 72.78 118.025ZM81.27 117.895V114.289C81.27 113.82 81.1225 113.434 80.8274 113.13C80.5323 112.827 80.1504 112.675 79.6817 112.675C79.3693 112.675 79.0915 112.744 78.8485 112.883C78.6055 113.022 78.4145 113.213 78.2757 113.456C78.1368 113.699 78.0674 113.977 78.0674 114.289L77.5857 114.016C77.5857 113.547 77.6898 113.13 77.8981 112.766C78.1064 112.401 78.3972 112.115 78.7704 111.907C79.1436 111.69 79.5645 111.581 80.0332 111.581C80.5019 111.581 80.9142 111.698 81.27 111.933C81.6345 112.167 81.921 112.475 82.1293 112.857C82.3376 113.23 82.4417 113.629 82.4417 114.055V117.895H81.27ZM76.8957 117.895V111.711H78.0674V117.895H76.8957ZM84.9022 117.895V109.121H86.0739V117.895H84.9022ZM83.379 112.779V111.711H87.5971V112.779H83.379ZM94.0827 118.025C93.5186 118.025 93.0065 117.887 92.5465 117.609C92.0865 117.322 91.722 116.936 91.4529 116.45C91.1925 115.964 91.0623 115.417 91.0623 114.81C91.0623 114.202 91.1925 113.655 91.4529 113.169C91.722 112.683 92.0821 112.297 92.5335 112.011C92.9935 111.724 93.5099 111.581 94.0827 111.581C94.5514 111.581 94.968 111.681 95.3325 111.881C95.7057 112.071 96.0052 112.341 96.2308 112.688C96.4565 113.026 96.5823 113.421 96.6084 113.872V115.734C96.5823 116.177 96.4565 116.572 96.2308 116.919C96.0138 117.266 95.7188 117.539 95.3455 117.739C94.981 117.93 94.5601 118.025 94.0827 118.025ZM94.278 116.919C94.8595 116.919 95.3282 116.724 95.684 116.333C96.0399 115.934 96.2178 115.426 96.2178 114.81C96.2178 114.385 96.1354 114.016 95.9705 113.703C95.8142 113.382 95.5886 113.135 95.2935 112.961C94.9984 112.779 94.6555 112.688 94.265 112.688C93.8744 112.688 93.5272 112.779 93.2235 112.961C92.9284 113.143 92.694 113.395 92.5205 113.716C92.3555 114.029 92.2731 114.389 92.2731 114.797C92.2731 115.213 92.3555 115.582 92.5205 115.903C92.694 116.216 92.9327 116.463 93.2365 116.645C93.5403 116.828 93.8874 116.919 94.278 116.919ZM96.1397 117.895V116.229L96.361 114.719L96.1397 113.221V111.711H97.3244V117.895H96.1397ZM101.855 118.025C101.248 118.025 100.697 117.882 100.202 117.596C99.7159 117.309 99.3297 116.923 99.0433 116.437C98.7656 115.942 98.6267 115.396 98.6267 114.797C98.6267 114.189 98.7656 113.642 99.0433 113.156C99.3297 112.67 99.7159 112.288 100.202 112.011C100.697 111.724 101.248 111.581 101.855 111.581C102.333 111.581 102.775 111.672 103.183 111.855C103.591 112.028 103.943 112.284 104.238 112.623L103.457 113.404C103.266 113.178 103.031 113.009 102.754 112.896C102.485 112.775 102.185 112.714 101.855 112.714C101.465 112.714 101.118 112.805 100.814 112.987C100.51 113.161 100.271 113.404 100.098 113.716C99.9243 114.029 99.8375 114.389 99.8375 114.797C99.8375 115.205 99.9243 115.565 100.098 115.877C100.271 116.19 100.51 116.437 100.814 116.619C101.118 116.802 101.465 116.893 101.855 116.893C102.185 116.893 102.485 116.836 102.754 116.724C103.031 116.602 103.27 116.428 103.47 116.203L104.238 116.984C103.951 117.314 103.6 117.57 103.183 117.752C102.775 117.934 102.333 118.025 101.855 118.025ZM108.098 118.025C107.49 118.025 106.939 117.882 106.444 117.596C105.958 117.309 105.572 116.923 105.286 116.437C105.008 115.942 104.869 115.396 104.869 114.797C104.869 114.189 105.008 113.642 105.286 113.156C105.572 112.67 105.958 112.288 106.444 112.011C106.939 111.724 107.49 111.581 108.098 111.581C108.575 111.581 109.018 111.672 109.426 111.855C109.834 112.028 110.185 112.284 110.48 112.623L109.699 113.404C109.508 113.178 109.274 113.009 108.996 112.896C108.727 112.775 108.428 112.714 108.098 112.714C107.707 112.714 107.36 112.805 107.056 112.987C106.753 113.161 106.514 113.404 106.34 113.716C106.167 114.029 106.08 114.389 106.08 114.797C106.08 115.205 106.167 115.565 106.34 115.877C106.514 116.19 106.753 116.437 107.056 116.619C107.36 116.802 107.707 116.893 108.098 116.893C108.428 116.893 108.727 116.836 108.996 116.724C109.274 116.602 109.513 116.428 109.712 116.203L110.48 116.984C110.194 117.314 109.842 117.57 109.426 117.752C109.018 117.934 108.575 118.025 108.098 118.025ZM114.34 118.025C113.733 118.025 113.186 117.882 112.7 117.596C112.214 117.309 111.828 116.923 111.541 116.437C111.255 115.942 111.112 115.391 111.112 114.784C111.112 114.185 111.255 113.647 111.541 113.169C111.828 112.683 112.214 112.297 112.7 112.011C113.186 111.724 113.733 111.581 114.34 111.581C114.939 111.581 115.482 111.724 115.968 112.011C116.462 112.288 116.853 112.67 117.139 113.156C117.426 113.642 117.569 114.185 117.569 114.784C117.569 115.391 117.426 115.942 117.139 116.437C116.853 116.923 116.462 117.309 115.968 117.596C115.482 117.882 114.939 118.025 114.34 118.025ZM114.34 116.893C114.731 116.893 115.078 116.802 115.382 116.619C115.686 116.437 115.924 116.19 116.098 115.877C116.271 115.556 116.358 115.192 116.358 114.784C116.358 114.385 116.267 114.029 116.085 113.716C115.911 113.404 115.673 113.161 115.369 112.987C115.074 112.805 114.731 112.714 114.34 112.714C113.95 112.714 113.603 112.805 113.299 112.987C112.995 113.161 112.756 113.404 112.583 113.716C112.409 114.029 112.322 114.385 112.322 114.784C112.322 115.192 112.409 115.556 112.583 115.877C112.756 116.19 112.995 116.437 113.299 116.619C113.603 116.802 113.95 116.893 114.34 116.893ZM121.376 118.025C120.872 118.025 120.417 117.913 120.009 117.687C119.61 117.453 119.297 117.131 119.071 116.724C118.846 116.316 118.733 115.843 118.733 115.305V111.711H119.905V115.252C119.905 115.591 119.961 115.886 120.074 116.138C120.195 116.381 120.369 116.567 120.595 116.698C120.82 116.828 121.085 116.893 121.389 116.893C121.849 116.893 122.209 116.75 122.469 116.463C122.73 116.168 122.86 115.765 122.86 115.252V111.711H124.032V115.305C124.032 115.843 123.919 116.316 123.693 116.724C123.467 117.131 123.155 117.453 122.756 117.687C122.365 117.913 121.905 118.025 121.376 118.025ZM129.976 117.895V114.289C129.976 113.82 129.829 113.434 129.534 113.13C129.239 112.827 128.857 112.675 128.388 112.675C128.076 112.675 127.798 112.744 127.555 112.883C127.312 113.022 127.121 113.213 126.982 113.456C126.843 113.699 126.774 113.977 126.774 114.289L126.292 114.016C126.292 113.547 126.396 113.13 126.604 112.766C126.813 112.401 127.104 112.115 127.477 111.907C127.85 111.69 128.271 111.581 128.74 111.581C129.208 111.581 129.62 111.698 129.976 111.933C130.341 112.167 130.627 112.475 130.836 112.857C131.044 113.23 131.148 113.629 131.148 114.055V117.895H129.976ZM125.602 117.895V111.711H126.774V117.895H125.602ZM133.609 117.895V109.121H134.78V117.895H133.609ZM132.085 112.779V111.711H136.303V112.779H132.085ZM137.464 117.895V111.711H138.636V117.895H137.464ZM138.05 110.475C137.833 110.475 137.655 110.405 137.516 110.266C137.377 110.119 137.308 109.936 137.308 109.719C137.308 109.511 137.377 109.338 137.516 109.199C137.655 109.051 137.833 108.977 138.05 108.977C138.267 108.977 138.445 109.051 138.584 109.199C138.723 109.338 138.792 109.511 138.792 109.719C138.792 109.936 138.723 110.119 138.584 110.266C138.445 110.405 138.267 110.475 138.05 110.475ZM144.737 117.895V114.289C144.737 113.82 144.589 113.434 144.294 113.13C143.999 112.827 143.617 112.675 143.149 112.675C142.836 112.675 142.558 112.744 142.315 112.883C142.072 113.022 141.882 113.213 141.743 113.456C141.604 113.699 141.534 113.977 141.534 114.289L141.053 114.016C141.053 113.547 141.157 113.13 141.365 112.766C141.573 112.401 141.864 112.115 142.237 111.907C142.611 111.69 143.032 111.581 143.5 111.581C143.969 111.581 144.381 111.698 144.737 111.933C145.102 112.167 145.388 112.475 145.596 112.857C145.805 113.23 145.909 113.629 145.909 114.055V117.895H144.737ZM140.363 117.895V111.711H141.534V117.895H140.363ZM150.06 120.616C149.426 120.616 148.862 120.499 148.367 120.265C147.881 120.03 147.491 119.701 147.196 119.275L147.951 118.507C148.202 118.828 148.502 119.071 148.849 119.236C149.196 119.41 149.608 119.497 150.086 119.497C150.719 119.497 151.218 119.327 151.583 118.989C151.956 118.659 152.143 118.212 152.143 117.648V116.112L152.351 114.719L152.143 113.339V111.711H153.314V117.648C153.314 118.238 153.176 118.755 152.898 119.197C152.629 119.64 152.247 119.987 151.752 120.239C151.266 120.49 150.702 120.616 150.06 120.616ZM150.06 117.791C149.496 117.791 148.988 117.657 148.537 117.388C148.094 117.118 147.742 116.75 147.482 116.281C147.222 115.804 147.091 115.27 147.091 114.68C147.091 114.089 147.222 113.564 147.482 113.104C147.742 112.636 148.094 112.267 148.537 111.998C148.988 111.72 149.496 111.581 150.06 111.581C150.546 111.581 150.975 111.677 151.349 111.868C151.722 112.058 152.017 112.328 152.234 112.675C152.46 113.013 152.581 113.412 152.598 113.872V115.513C152.572 115.964 152.447 116.363 152.221 116.711C152.004 117.049 151.709 117.314 151.336 117.505C150.962 117.696 150.537 117.791 150.06 117.791ZM150.294 116.685C150.676 116.685 151.01 116.602 151.297 116.437C151.592 116.272 151.817 116.042 151.974 115.747C152.13 115.443 152.208 115.092 152.208 114.693C152.208 114.293 152.125 113.946 151.961 113.651C151.804 113.347 151.583 113.113 151.297 112.948C151.01 112.775 150.672 112.688 150.281 112.688C149.891 112.688 149.548 112.775 149.253 112.948C148.958 113.113 148.723 113.347 148.55 113.651C148.385 113.946 148.302 114.289 148.302 114.68C148.302 115.07 148.385 115.417 148.55 115.721C148.723 116.025 148.958 116.264 149.253 116.437C149.556 116.602 149.904 116.685 150.294 116.685ZM159.708 118.025C159.361 118.025 159.031 117.982 158.719 117.895C158.415 117.8 158.133 117.67 157.873 117.505C157.612 117.331 157.386 117.127 157.196 116.893L157.951 116.138C158.176 116.415 158.437 116.624 158.732 116.763C159.027 116.893 159.357 116.958 159.721 116.958C160.086 116.958 160.368 116.897 160.567 116.776C160.767 116.645 160.867 116.468 160.867 116.242C160.867 116.016 160.784 115.843 160.62 115.721C160.463 115.591 160.259 115.487 160.008 115.409C159.756 115.322 159.487 115.239 159.2 115.161C158.923 115.075 158.658 114.966 158.406 114.836C158.155 114.706 157.946 114.528 157.781 114.302C157.625 114.076 157.547 113.777 157.547 113.404C157.547 113.031 157.638 112.709 157.82 112.44C158.003 112.163 158.254 111.95 158.576 111.802C158.905 111.655 159.3 111.581 159.76 111.581C160.246 111.581 160.676 111.668 161.049 111.841C161.431 112.006 161.743 112.258 161.986 112.597L161.231 113.352C161.058 113.126 160.841 112.952 160.58 112.831C160.329 112.709 160.042 112.649 159.721 112.649C159.383 112.649 159.122 112.709 158.94 112.831C158.766 112.944 158.68 113.104 158.68 113.313C158.68 113.521 158.758 113.681 158.914 113.794C159.07 113.907 159.274 114.003 159.526 114.081C159.786 114.159 160.055 114.241 160.333 114.328C160.611 114.406 160.876 114.515 161.127 114.654C161.379 114.792 161.583 114.979 161.739 115.213C161.904 115.448 161.986 115.756 161.986 116.138C161.986 116.719 161.778 117.179 161.362 117.518C160.954 117.856 160.403 118.025 159.708 118.025ZM166.162 118.025C165.546 118.025 164.991 117.887 164.496 117.609C164.001 117.322 163.611 116.936 163.324 116.45C163.038 115.964 162.895 115.413 162.895 114.797C162.895 114.189 163.034 113.642 163.311 113.156C163.598 112.67 163.98 112.288 164.457 112.011C164.943 111.724 165.485 111.581 166.084 111.581C166.657 111.581 167.161 111.711 167.594 111.972C168.037 112.232 168.38 112.592 168.623 113.052C168.875 113.512 169.001 114.033 169.001 114.615C169.001 114.701 168.996 114.797 168.987 114.901C168.979 114.996 168.961 115.109 168.935 115.239H163.715V114.263H168.311L167.881 114.641C167.881 114.224 167.807 113.872 167.66 113.586C167.512 113.291 167.304 113.065 167.035 112.909C166.766 112.744 166.44 112.662 166.058 112.662C165.659 112.662 165.307 112.748 165.004 112.922C164.7 113.096 164.466 113.339 164.301 113.651C164.136 113.964 164.053 114.332 164.053 114.758C164.053 115.192 164.14 115.574 164.314 115.903C164.487 116.225 164.735 116.476 165.056 116.658C165.377 116.832 165.746 116.919 166.162 116.919C166.51 116.919 166.826 116.858 167.113 116.737C167.408 116.615 167.66 116.433 167.868 116.19L168.623 116.958C168.328 117.305 167.963 117.57 167.529 117.752C167.104 117.934 166.648 118.025 166.162 118.025ZM170.278 117.895V111.711H171.45V117.895H170.278ZM171.45 114.367L171.007 114.172C171.007 113.382 171.189 112.753 171.554 112.284C171.918 111.815 172.444 111.581 173.129 111.581C173.442 111.581 173.724 111.638 173.975 111.75C174.227 111.855 174.461 112.032 174.678 112.284L173.91 113.078C173.78 112.939 173.637 112.84 173.481 112.779C173.324 112.718 173.142 112.688 172.934 112.688C172.5 112.688 172.144 112.827 171.866 113.104C171.589 113.382 171.45 113.803 171.45 114.367ZM177.511 117.895L174.673 111.711H175.975L178.253 116.932H177.498L179.789 111.711H181.039L178.201 117.895H177.511ZM182.051 117.895V111.711H183.223V117.895H182.051ZM182.637 110.475C182.42 110.475 182.242 110.405 182.103 110.266C181.965 110.119 181.895 109.936 181.895 109.719C181.895 109.511 181.965 109.338 182.103 109.199C182.242 109.051 182.42 108.977 182.637 108.977C182.854 108.977 183.032 109.051 183.171 109.199C183.31 109.338 183.379 109.511 183.379 109.719C183.379 109.936 183.31 110.119 183.171 110.266C183.032 110.405 182.854 110.475 182.637 110.475ZM187.775 118.025C187.167 118.025 186.616 117.882 186.121 117.596C185.635 117.309 185.249 116.923 184.963 116.437C184.685 115.942 184.546 115.396 184.546 114.797C184.546 114.189 184.685 113.642 184.963 113.156C185.249 112.67 185.635 112.288 186.121 112.011C186.616 111.724 187.167 111.581 187.775 111.581C188.252 111.581 188.695 111.672 189.103 111.855C189.511 112.028 189.862 112.284 190.157 112.623L189.376 113.404C189.185 113.178 188.951 113.009 188.673 112.896C188.404 112.775 188.105 112.714 187.775 112.714C187.384 112.714 187.037 112.805 186.733 112.987C186.43 113.161 186.191 113.404 186.017 113.716C185.844 114.029 185.757 114.389 185.757 114.797C185.757 115.205 185.844 115.565 186.017 115.877C186.191 116.19 186.43 116.437 186.733 116.619C187.037 116.802 187.384 116.893 187.775 116.893C188.105 116.893 188.404 116.836 188.673 116.724C188.951 116.602 189.19 116.428 189.389 116.203L190.157 116.984C189.871 117.314 189.519 117.57 189.103 117.752C188.695 117.934 188.252 118.025 187.775 118.025ZM194.056 118.025C193.44 118.025 192.885 117.887 192.39 117.609C191.895 117.322 191.505 116.936 191.218 116.45C190.932 115.964 190.789 115.413 190.789 114.797C190.789 114.189 190.927 113.642 191.205 113.156C191.492 112.67 191.873 112.288 192.351 112.011C192.837 111.724 193.379 111.581 193.978 111.581C194.551 111.581 195.054 111.711 195.488 111.972C195.931 112.232 196.274 112.592 196.517 113.052C196.769 113.512 196.894 114.033 196.894 114.615C196.894 114.701 196.89 114.797 196.881 114.901C196.873 114.996 196.855 115.109 196.829 115.239H191.609V114.263H196.204L195.775 114.641C195.775 114.224 195.701 113.872 195.553 113.586C195.406 113.291 195.198 113.065 194.929 112.909C194.66 112.744 194.334 112.662 193.952 112.662C193.553 112.662 193.201 112.748 192.898 112.922C192.594 113.096 192.36 113.339 192.195 113.651C192.03 113.964 191.947 114.332 191.947 114.758C191.947 115.192 192.034 115.574 192.208 115.903C192.381 116.225 192.629 116.476 192.95 116.658C193.271 116.832 193.64 116.919 194.056 116.919C194.403 116.919 194.72 116.858 195.007 116.737C195.302 116.615 195.553 116.433 195.762 116.19L196.517 116.958C196.222 117.305 195.857 117.57 195.423 117.752C194.998 117.934 194.542 118.025 194.056 118.025ZM200.138 118.025C199.791 118.025 199.461 117.982 199.148 117.895C198.845 117.8 198.563 117.67 198.302 117.505C198.042 117.331 197.816 117.127 197.625 116.893L198.38 116.138C198.606 116.415 198.866 116.624 199.161 116.763C199.457 116.893 199.786 116.958 200.151 116.958C200.515 116.958 200.797 116.897 200.997 116.776C201.197 116.645 201.297 116.468 201.297 116.242C201.297 116.016 201.214 115.843 201.049 115.721C200.893 115.591 200.689 115.487 200.437 115.409C200.186 115.322 199.917 115.239 199.63 115.161C199.352 115.075 199.088 114.966 198.836 114.836C198.584 114.706 198.376 114.528 198.211 114.302C198.055 114.076 197.977 113.777 197.977 113.404C197.977 113.031 198.068 112.709 198.25 112.44C198.432 112.163 198.684 111.95 199.005 111.802C199.335 111.655 199.73 111.581 200.19 111.581C200.676 111.581 201.106 111.668 201.479 111.841C201.861 112.006 202.173 112.258 202.416 112.597L201.661 113.352C201.487 113.126 201.271 112.952 201.01 112.831C200.758 112.709 200.472 112.649 200.151 112.649C199.812 112.649 199.552 112.709 199.37 112.831C199.196 112.944 199.109 113.104 199.109 113.313C199.109 113.521 199.187 113.681 199.344 113.794C199.5 113.907 199.704 114.003 199.956 114.081C200.216 114.159 200.485 114.241 200.763 114.328C201.041 114.406 201.305 114.515 201.557 114.654C201.809 114.792 202.013 114.979 202.169 115.213C202.334 115.448 202.416 115.756 202.416 116.138C202.416 116.719 202.208 117.179 201.791 117.518C201.383 117.856 200.832 118.025 200.138 118.025ZM204.756 118.025C204.513 118.025 204.309 117.943 204.145 117.778C203.988 117.605 203.91 117.401 203.91 117.166C203.91 116.923 203.988 116.724 204.145 116.567C204.309 116.402 204.513 116.32 204.756 116.32C204.999 116.32 205.199 116.402 205.355 116.567C205.52 116.724 205.603 116.923 205.603 117.166C205.603 117.401 205.52 117.605 205.355 117.778C205.199 117.943 204.999 118.025 204.756 118.025Z" fill="#7D7D7D"/>
</svg>
