<svg width="230" height="160" viewBox="0 0 230 160" fill="none" xmlns="http://www.w3.org/2000/svg">
<mask id="path-1-inside-1_1180_64" fill="white">
<path fill-rule="evenodd" clip-rule="evenodd" d="M9.76415 0.801025C4.37156 0.801025 0 5.17257 0 10.5652V135.329C0 140.722 4.37156 145.093 9.76415 145.093H22.3366L30.5438 159.22L38.6489 145.093H220.236C225.628 145.093 230 140.722 230 135.329V10.5652C230 5.17258 225.628 0.801025 220.236 0.801025H9.76415Z"/>
</mask>
<path fill-rule="evenodd" clip-rule="evenodd" d="M9.76415 0.801025C4.37156 0.801025 0 5.17257 0 10.5652V135.329C0 140.722 4.37156 145.093 9.76415 145.093H22.3366L30.5438 159.22L38.6489 145.093H220.236C225.628 145.093 230 140.722 230 135.329V10.5652C230 5.17258 225.628 0.801025 220.236 0.801025H9.76415Z" fill="#F3F8FF"/>
<path d="M22.3366 145.093L23.2747 144.548L22.961 144.009H22.3366V145.093ZM30.5438 159.22L29.6057 159.765L30.5497 161.39L31.4848 159.76L30.5438 159.22ZM38.6489 145.093V144.009H38.0206L37.7079 144.554L38.6489 145.093ZM1.08491 10.5652C1.08491 5.77175 4.97073 1.88593 9.76415 1.88593V-0.28388C3.77238 -0.28388 -1.08491 4.5734 -1.08491 10.5652H1.08491ZM1.08491 135.329V10.5652H-1.08491V135.329H1.08491ZM9.76415 144.009C4.97073 144.009 1.08491 140.123 1.08491 135.329H-1.08491C-1.08491 141.321 3.77238 146.178 9.76415 146.178V144.009ZM22.3366 144.009H9.76415V146.178H22.3366V144.009ZM31.4819 158.675L23.2747 144.548L21.3985 145.638L29.6057 159.765L31.4819 158.675ZM37.7079 144.554L29.6028 158.68L31.4848 159.76L39.5899 145.633L37.7079 144.554ZM220.236 144.009H38.6489V146.178H220.236V144.009ZM228.915 135.329C228.915 140.123 225.029 144.009 220.236 144.009V146.178C226.228 146.178 231.085 141.321 231.085 135.329H228.915ZM228.915 10.5652V135.329H231.085V10.5652H228.915ZM220.236 1.88593C225.029 1.88593 228.915 5.77176 228.915 10.5652H231.085C231.085 4.57341 226.228 -0.28388 220.236 -0.28388V1.88593ZM9.76415 1.88593H220.236V-0.28388H9.76415V1.88593Z" fill="black" mask="url(#path-1-inside-1_1180_64)"/>
<path d="M17.0111 44.9236V32.7726H21.75C22.8146 32.7726 23.7231 32.9404 24.4753 33.276C25.2275 33.6116 25.8061 34.0977 26.2111 34.7342C26.6161 35.3706 26.8187 36.1286 26.8187 37.0081C26.8187 37.8876 26.6161 38.6456 26.2111 39.2821C25.8061 39.907 25.2275 40.393 24.4753 40.7402C23.7231 41.0758 22.8146 41.2436 21.75 41.2436H17.9658L18.747 40.4277V44.9236H17.0111ZM18.747 40.6013L17.9658 39.7334H21.6979C22.8089 39.7334 23.6478 39.4962 24.2149 39.0217C24.7935 38.5472 25.0828 37.876 25.0828 37.0081C25.0828 36.1402 24.7935 35.469 24.2149 34.9945C23.6478 34.5201 22.8089 34.2828 21.6979 34.2828H17.9658L18.747 33.4149V40.6013ZM29.2954 44.9236V35.7236H30.9618V44.9236H29.2954ZM30.1286 33.953C29.8046 33.953 29.5326 33.8489 29.3127 33.6406C29.1044 33.4323 29.0003 33.1777 29.0003 32.8768C29.0003 32.5643 29.1044 32.304 29.3127 32.0957C29.5326 31.8874 29.8046 31.7832 30.1286 31.7832C30.4526 31.7832 30.7188 31.8874 30.9271 32.0957C31.1469 32.2924 31.2569 32.5412 31.2569 32.8421C31.2569 33.1545 31.1527 33.4207 30.9444 33.6406C30.7361 33.8489 30.4642 33.953 30.1286 33.953ZM38.1534 45.0277C37.216 45.0277 36.377 44.8252 35.6364 44.4202C34.9073 44.0152 34.3345 43.4597 33.9179 42.7538C33.5013 42.0479 33.293 41.2378 33.293 40.3236C33.293 39.4094 33.5013 38.5993 33.9179 37.8934C34.3345 37.1875 34.9073 36.6378 35.6364 36.2443C36.377 35.8393 37.216 35.6368 38.1534 35.6368C38.9866 35.6368 39.7272 35.8046 40.3752 36.1402C41.0349 36.4642 41.544 36.9503 41.9028 37.5983L40.6356 38.4141C40.3347 37.9628 39.9644 37.633 39.5247 37.4247C39.0965 37.2048 38.6336 37.0949 38.136 37.0949C37.5342 37.0949 36.9961 37.228 36.5217 37.4941C36.0472 37.7603 35.6711 38.1364 35.3934 38.6225C35.1156 39.0969 34.9767 39.664 34.9767 40.3236C34.9767 40.9832 35.1156 41.556 35.3934 42.0421C35.6711 42.5281 36.0472 42.9042 36.5217 43.1704C36.9961 43.4365 37.5342 43.5696 38.136 43.5696C38.6336 43.5696 39.0965 43.4655 39.5247 43.2572C39.9644 43.0373 40.3347 42.7017 40.6356 42.2504L41.9028 43.0489C41.544 43.6853 41.0349 44.1772 40.3752 44.5243C39.7272 44.8599 38.9866 45.0277 38.1534 45.0277ZM45.2956 42.7017L45.3303 40.5666L50.6246 35.7236H52.6382L48.5763 39.716L47.6737 40.4798L45.2956 42.7017ZM43.9416 44.9236V32.0436H45.608V44.9236H43.9416ZM50.9718 44.9236L47.3612 40.4451L48.4374 39.1085L53.0201 44.9236H50.9718ZM53.658 40.8791V39.4383H58.3274V40.8791H53.658ZM64.7642 45.0277C63.9773 45.0277 63.2829 44.8831 62.6812 44.5938C62.091 44.3045 61.6281 43.8647 61.2925 43.2745C60.9685 42.6728 60.8065 41.9206 60.8065 41.0179V35.7236H62.4729V40.827C62.4729 41.7296 62.687 42.4066 63.1151 42.8579C63.5549 43.3092 64.1682 43.5349 64.9551 43.5349C65.5337 43.5349 66.0371 43.4192 66.4653 43.1877C66.8935 42.9447 67.2233 42.5975 67.4548 42.1462C67.6862 41.6833 67.8019 41.1279 67.8019 40.4798V35.7236H69.4683V44.9236H67.8887V42.4413L68.1491 43.1009C67.8482 43.7143 67.3969 44.1887 66.7951 44.5243C66.1934 44.8599 65.5164 45.0277 64.7642 45.0277ZM77.5185 45.0277C76.7547 45.0277 76.0546 44.8542 75.4181 44.507C74.7932 44.1482 74.2898 43.6217 73.9079 42.9274C73.5376 42.233 73.3524 41.3651 73.3524 40.3236C73.3524 39.2821 73.5318 38.4141 73.8905 37.7198C74.2609 37.0255 74.7585 36.5047 75.3834 36.1575C76.0199 35.8104 76.7316 35.6368 77.5185 35.6368C78.4211 35.6368 79.2196 35.8335 79.9139 36.227C80.6083 36.6204 81.158 37.1701 81.563 37.876C81.968 38.5704 82.1705 39.3862 82.1705 40.3236C82.1705 41.2609 81.968 42.0826 81.563 42.7885C81.158 43.4944 80.6083 44.0441 79.9139 44.4375C79.2196 44.831 78.4211 45.0277 77.5185 45.0277ZM72.6407 48.2911V35.7236H74.2377V38.2058L74.1336 40.3409L74.3072 42.476V48.2911H72.6407ZM77.3796 43.5696C77.9698 43.5696 78.4963 43.4365 78.9592 43.1704C79.4337 42.9042 79.804 42.5281 80.0702 42.0421C80.3479 41.5445 80.4868 40.9716 80.4868 40.3236C80.4868 39.664 80.3479 39.0969 80.0702 38.6225C79.804 38.1364 79.4337 37.7603 78.9592 37.4941C78.4963 37.228 77.9698 37.0949 77.3796 37.0949C76.801 37.0949 76.2744 37.228 75.8 37.4941C75.3371 37.7603 74.9668 38.1364 74.689 38.6225C74.4229 39.0969 74.2898 39.664 74.2898 40.3236C74.2898 40.9716 74.4229 41.5445 74.689 42.0421C74.9668 42.5281 75.3371 42.9042 75.8 43.1704C76.2744 43.4365 76.801 43.5696 77.3796 43.5696ZM94.8456 44.9236V42.9794L94.7588 42.6149V39.2994C94.7588 38.5935 94.5505 38.0496 94.1339 37.6677C93.7289 37.2743 93.1156 37.0775 92.2939 37.0775C91.75 37.0775 91.2177 37.1701 90.697 37.3553C90.1762 37.5289 89.7365 37.7661 89.3777 38.067L88.6834 36.8172C89.1578 36.4353 89.7249 36.146 90.3845 35.9492C91.0557 35.7409 91.7558 35.6368 92.4849 35.6368C93.7463 35.6368 94.7183 35.9435 95.4011 36.5568C96.0839 37.1701 96.4253 38.1075 96.4253 39.3689V44.9236H94.8456ZM91.8253 45.0277C91.1425 45.0277 90.5407 44.912 90.02 44.6806C89.5108 44.4491 89.1173 44.1309 88.8396 43.7258C88.5619 43.3092 88.423 42.8406 88.423 42.3198C88.423 41.8222 88.5387 41.3709 88.7702 40.9658C89.0132 40.5608 89.4009 40.2368 89.9332 39.9938C90.4771 39.7508 91.2061 39.6292 92.1204 39.6292H95.0366V40.827H92.1898C91.3566 40.827 90.7953 40.9658 90.506 41.2436C90.2167 41.5213 90.0721 41.8569 90.0721 42.2504C90.0721 42.7017 90.2514 43.0662 90.6102 43.344C90.9689 43.6101 91.4665 43.7432 92.103 43.7432C92.7279 43.7432 93.2718 43.6043 93.7347 43.3266C94.2092 43.0489 94.5505 42.6438 94.7588 42.1115L95.0887 43.2572C94.8688 43.8011 94.4811 44.235 93.9256 44.5591C93.3702 44.8715 92.67 45.0277 91.8253 45.0277ZM102.668 45.0277C101.743 45.0277 101.025 44.7789 100.516 44.2813C100.007 43.7837 99.7521 43.072 99.7521 42.1462V33.71H101.419V42.0768C101.419 42.5744 101.54 42.9563 101.783 43.2225C102.038 43.4886 102.396 43.6217 102.859 43.6217C103.38 43.6217 103.814 43.477 104.161 43.1877L104.682 44.3855C104.427 44.6053 104.121 44.7674 103.762 44.8715C103.415 44.9757 103.05 45.0277 102.668 45.0277ZM98.1899 37.0949V35.7236H104.057V37.0949H98.1899ZM115.16 45.0277C114.269 45.0277 113.47 44.831 112.764 44.4375C112.07 44.0441 111.52 43.4944 111.115 42.7885C110.71 42.0826 110.508 41.2609 110.508 40.3236C110.508 39.3862 110.71 38.5704 111.115 37.876C111.52 37.1701 112.07 36.6204 112.764 36.227C113.47 35.8335 114.269 35.6368 115.16 35.6368C115.935 35.6368 116.635 35.8104 117.26 36.1575C117.885 36.5047 118.383 37.0255 118.753 37.7198C119.135 38.4141 119.326 39.2821 119.326 40.3236C119.326 41.3651 119.141 42.233 118.77 42.9274C118.412 43.6217 117.92 44.1482 117.295 44.507C116.67 44.8542 115.958 45.0277 115.16 45.0277ZM115.299 43.5696C115.877 43.5696 116.398 43.4365 116.861 43.1704C117.335 42.9042 117.706 42.5281 117.972 42.0421C118.25 41.5445 118.388 40.9716 118.388 40.3236C118.388 39.664 118.25 39.0969 117.972 38.6225C117.706 38.1364 117.335 37.7603 116.861 37.4941C116.398 37.228 115.877 37.0949 115.299 37.0949C114.708 37.0949 114.182 37.228 113.719 37.4941C113.256 37.7603 112.886 38.1364 112.608 38.6225C112.33 39.0969 112.192 39.664 112.192 40.3236C112.192 40.9716 112.33 41.5445 112.608 42.0421C112.886 42.5281 113.256 42.9042 113.719 43.1704C114.182 43.4365 114.708 43.5696 115.299 43.5696ZM118.441 44.9236V42.4413L118.545 40.3062L118.371 38.1711V32.0436H120.038V44.9236H118.441ZM127.131 45.0277C126.205 45.0277 125.384 44.8252 124.666 44.4202C123.949 44.0152 123.382 43.4597 122.965 42.7538C122.548 42.0363 122.34 41.2262 122.34 40.3236C122.34 39.4094 122.548 38.5993 122.965 37.8934C123.382 37.1875 123.949 36.6378 124.666 36.2443C125.384 35.8393 126.205 35.6368 127.131 35.6368C128.045 35.6368 128.861 35.8393 129.578 36.2443C130.308 36.6378 130.875 37.1875 131.28 37.8934C131.696 38.5877 131.905 39.3978 131.905 40.3236C131.905 41.2378 131.696 42.0479 131.28 42.7538C130.875 43.4597 130.308 44.0152 129.578 44.4202C128.861 44.8252 128.045 45.0277 127.131 45.0277ZM127.131 43.5696C127.721 43.5696 128.248 43.4365 128.711 43.1704C129.185 42.9042 129.555 42.5281 129.822 42.0421C130.088 41.5445 130.221 40.9716 130.221 40.3236C130.221 39.664 130.088 39.0969 129.822 38.6225C129.555 38.1364 129.185 37.7603 128.711 37.4941C128.248 37.228 127.721 37.0949 127.131 37.0949C126.541 37.0949 126.014 37.228 125.551 37.4941C125.088 37.7603 124.718 38.1364 124.44 38.6225C124.163 39.0969 124.024 39.664 124.024 40.3236C124.024 40.9716 124.163 41.5445 124.44 42.0421C124.718 42.5281 125.088 42.9042 125.551 43.1704C126.014 43.4365 126.541 43.5696 127.131 43.5696ZM138.15 45.0277C137.224 45.0277 136.402 44.8252 135.685 44.4202C134.967 44.0152 134.4 43.4597 133.983 42.7538C133.567 42.0363 133.359 41.2262 133.359 40.3236C133.359 39.4094 133.567 38.5993 133.983 37.8934C134.4 37.1875 134.967 36.6378 135.685 36.2443C136.402 35.8393 137.224 35.6368 138.15 35.6368C139.064 35.6368 139.88 35.8393 140.597 36.2443C141.326 36.6378 141.893 37.1875 142.298 37.8934C142.715 38.5877 142.923 39.3978 142.923 40.3236C142.923 41.2378 142.715 42.0479 142.298 42.7538C141.893 43.4597 141.326 44.0152 140.597 44.4202C139.88 44.8252 139.064 45.0277 138.15 45.0277ZM138.15 43.5696C138.74 43.5696 139.266 43.4365 139.729 43.1704C140.204 42.9042 140.574 42.5281 140.84 42.0421C141.106 41.5445 141.239 40.9716 141.239 40.3236C141.239 39.664 141.106 39.0969 140.84 38.6225C140.574 38.1364 140.204 37.7603 139.729 37.4941C139.266 37.228 138.74 37.0949 138.15 37.0949C137.559 37.0949 137.033 37.228 136.57 37.4941C136.107 37.7603 135.737 38.1364 135.459 38.6225C135.181 39.0969 135.042 39.664 135.042 40.3236C135.042 40.9716 135.181 41.5445 135.459 42.0421C135.737 42.5281 136.107 42.9042 136.57 43.1704C137.033 43.4365 137.559 43.5696 138.15 43.5696ZM145.228 44.9236V35.7236H146.825V38.2232L146.668 37.5983C146.923 36.9618 147.351 36.4758 147.953 36.1402C148.555 35.8046 149.295 35.6368 150.175 35.6368V37.2511C150.105 37.2396 150.036 37.2338 149.967 37.2338C149.909 37.2338 149.851 37.2338 149.793 37.2338C148.902 37.2338 148.196 37.4999 147.675 38.0323C147.155 38.5646 146.894 39.3342 146.894 40.3409V44.9236H145.228Z" fill="#252B42"/>
<path d="M17.0762 69.454V68.4256H19.5238C20.0532 68.4256 20.4611 68.291 20.7475 68.022C21.0339 67.7529 21.1772 67.3884 21.1772 66.9284C21.1772 66.4944 21.0339 66.1342 20.7475 65.8478C20.4698 65.5614 20.0662 65.4182 19.5368 65.4182H17.0762V64.3506H19.5758C20.1487 64.3506 20.6477 64.4635 21.073 64.6891C21.4983 64.9061 21.8238 65.2056 22.0494 65.5874C22.2838 65.9693 22.4009 66.4076 22.4009 66.9023C22.4009 67.4144 22.2838 67.8614 22.0494 68.2433C21.8238 68.6252 21.4983 68.9246 21.073 69.1416C20.6477 69.3499 20.1487 69.454 19.5758 69.454H17.0762ZM16.256 73.3857V64.3506H17.4798V73.3857H16.256ZM21.4636 73.3857L18.1828 69.3369L19.3415 68.9333L23.0128 73.3857H21.4636ZM26.7308 73.5159C26.1146 73.5159 25.5591 73.3771 25.0644 73.0993C24.5697 72.8129 24.1791 72.4267 23.8927 71.9406C23.6063 71.4546 23.4631 70.9035 23.4631 70.2873C23.4631 69.6797 23.602 69.1329 23.8797 68.6469C24.1661 68.1608 24.548 67.7789 25.0253 67.5012C25.5114 67.2148 26.0538 67.0716 26.6527 67.0716C27.2255 67.0716 27.7289 67.2018 28.1629 67.4622C28.6055 67.7225 28.9484 68.0827 29.1914 68.5427C29.4431 69.0027 29.5689 69.5235 29.5689 70.105C29.5689 70.1918 29.5646 70.2873 29.5559 70.3914C29.5472 70.4869 29.5299 70.5997 29.5038 70.7299H24.2833V69.7535H28.8789L28.4493 70.131C28.4493 69.7144 28.3755 69.3629 28.228 69.0765C28.0804 68.7814 27.8721 68.5557 27.6031 68.3995C27.334 68.2346 27.0086 68.1522 26.6267 68.1522C26.2274 68.1522 25.8759 68.2389 25.5721 68.4125C25.2684 68.5861 25.034 68.8291 24.8691 69.1416C24.7042 69.454 24.6218 69.8229 24.6218 70.2482C24.6218 70.6822 24.7086 71.064 24.8821 71.3939C25.0557 71.715 25.3031 71.9667 25.6242 72.1489C25.9453 72.3225 26.3142 72.4093 26.7308 72.4093C27.078 72.4093 27.3948 72.3486 27.6812 72.2271C27.9763 72.1056 28.228 71.9233 28.4363 71.6803L29.1914 72.4484C28.8963 72.7956 28.5318 73.0603 28.0978 73.2425C27.6725 73.4248 27.2169 73.5159 26.7308 73.5159ZM33.4633 73.5159C32.8905 73.5159 32.3784 73.3771 31.9271 73.0993C31.4758 72.8129 31.1156 72.4267 30.8465 71.9406C30.5861 71.4546 30.4559 70.9078 30.4559 70.3003C30.4559 69.6927 30.5861 69.1459 30.8465 68.6599C31.1156 68.1739 31.4758 67.7876 31.9271 67.5012C32.3784 67.2148 32.8905 67.0716 33.4633 67.0716C33.9233 67.0716 34.3399 67.1714 34.7131 67.371C35.0863 67.562 35.3858 67.831 35.6114 68.1782C35.8458 68.5167 35.9759 68.9116 36.002 69.3629V71.2246C35.9759 71.6673 35.8501 72.0622 35.6244 72.4093C35.3988 72.7565 35.0993 73.0299 34.7261 73.2295C34.3529 73.4205 33.932 73.5159 33.4633 73.5159ZM33.6586 72.4093C34.0492 72.4093 34.3876 72.3182 34.6741 72.1359C34.9692 71.9537 35.1992 71.7063 35.3641 71.3939C35.529 71.0727 35.6114 70.7082 35.6114 70.3003C35.6114 69.875 35.5246 69.5061 35.351 69.1937C35.1861 68.8812 34.9561 68.6339 34.661 68.4516C34.3746 68.2693 34.0361 68.1782 33.6456 68.1782C33.255 68.1782 32.9122 68.2693 32.6171 68.4516C32.322 68.6339 32.0876 68.8856 31.9141 69.2067C31.7492 69.5191 31.6667 69.8793 31.6667 70.2873C31.6667 70.7039 31.7492 71.0727 31.9141 71.3939C32.0876 71.7063 32.322 71.9537 32.6171 72.1359C32.9209 72.3182 33.268 72.4093 33.6586 72.4093ZM36.718 73.3857H35.5333V71.7193L35.7546 70.2091L35.5333 68.712V64.0903H36.718V73.3857ZM40.9105 73.5159C40.4071 73.5159 39.9514 73.4031 39.5435 73.1774C39.1443 72.9431 38.8318 72.622 38.6062 72.214C38.3805 71.8061 38.2677 71.3331 38.2677 70.795V67.2018H39.4394V70.7429C39.4394 71.0814 39.4958 71.3765 39.6086 71.6282C39.7301 71.8712 39.9037 72.0578 40.1294 72.188C40.355 72.3182 40.6197 72.3833 40.9235 72.3833C41.3835 72.3833 41.7437 72.2401 42.0041 71.9537C42.2645 71.6586 42.3947 71.255 42.3947 70.7429V67.2018H43.5664V70.795C43.5664 71.3331 43.4535 71.8061 43.2279 72.214C43.0022 72.622 42.6897 72.9431 42.2905 73.1774C41.8999 73.4031 41.4399 73.5159 40.9105 73.5159ZM47.9618 73.5159C47.3543 73.5159 46.8032 73.3727 46.3085 73.0863C45.8224 72.7999 45.4362 72.4137 45.1498 71.9276C44.872 71.4329 44.7332 70.8861 44.7332 70.2873C44.7332 69.6797 44.872 69.1329 45.1498 68.6469C45.4362 68.1608 45.8224 67.7789 46.3085 67.5012C46.8032 67.2148 47.3543 67.0716 47.9618 67.0716C48.4392 67.0716 48.8818 67.1627 49.2898 67.345C49.6977 67.5186 50.0492 67.7746 50.3443 68.1131L49.5632 68.8942C49.3722 68.6686 49.1379 68.4993 48.8601 68.3865C48.5911 68.265 48.2917 68.2042 47.9618 68.2042C47.5713 68.2042 47.2241 68.2954 46.9203 68.4776C46.6166 68.6512 46.3779 68.8942 46.2043 69.2067C46.0307 69.5191 45.9439 69.8793 45.9439 70.2873C45.9439 70.6952 46.0307 71.0554 46.2043 71.3678C46.3779 71.6803 46.6166 71.9276 46.9203 72.1099C47.2241 72.2922 47.5713 72.3833 47.9618 72.3833C48.2917 72.3833 48.5911 72.3269 48.8601 72.214C49.1379 72.0925 49.3766 71.9189 49.5762 71.6933L50.3443 72.4744C50.0579 72.8042 49.7064 73.0603 49.2898 73.2425C48.8818 73.4248 48.4392 73.5159 47.9618 73.5159ZM54.2434 73.5159C53.6271 73.5159 53.0717 73.3771 52.5769 73.0993C52.0822 72.8129 51.6917 72.4267 51.4052 71.9406C51.1188 71.4546 50.9756 70.9035 50.9756 70.2873C50.9756 69.6797 51.1145 69.1329 51.3922 68.6469C51.6786 68.1608 52.0605 67.7789 52.5379 67.5012C53.0239 67.2148 53.5664 67.0716 54.1652 67.0716C54.7381 67.0716 55.2415 67.2018 55.6754 67.4622C56.1181 67.7225 56.4609 68.0827 56.7039 68.5427C56.9556 69.0027 57.0815 69.5235 57.0815 70.105C57.0815 70.1918 57.0771 70.2873 57.0684 70.3914C57.0598 70.4869 57.0424 70.5997 57.0164 70.7299H51.7958V69.7535H56.3915L55.9618 70.131C55.9618 69.7144 55.8881 69.3629 55.7405 69.0765C55.593 68.7814 55.3847 68.5557 55.1156 68.3995C54.8466 68.2346 54.5211 68.1522 54.1392 68.1522C53.74 68.1522 53.3884 68.2389 53.0847 68.4125C52.7809 68.5861 52.5466 68.8291 52.3817 69.1416C52.2167 69.454 52.1343 69.8229 52.1343 70.2482C52.1343 70.6822 52.2211 71.064 52.3947 71.3939C52.5683 71.715 52.8156 71.9667 53.1367 72.1489C53.4579 72.3225 53.8267 72.4093 54.2434 72.4093C54.5905 72.4093 54.9073 72.3486 55.1937 72.2271C55.4888 72.1056 55.7405 71.9233 55.9488 71.6803L56.7039 72.4484C56.4088 72.7956 56.0443 73.0603 55.6103 73.2425C55.185 73.4248 54.7294 73.5159 54.2434 73.5159ZM63.8922 73.5159C63.2846 73.5159 62.7335 73.3727 62.2388 73.0863C61.7527 72.7999 61.3665 72.4137 61.0801 71.9276C60.8023 71.4329 60.6635 70.8861 60.6635 70.2873C60.6635 69.6797 60.8023 69.1329 61.0801 68.6469C61.3665 68.1608 61.7527 67.7789 62.2388 67.5012C62.7335 67.2148 63.2846 67.0716 63.8922 67.0716C64.3695 67.0716 64.8122 67.1627 65.2201 67.345C65.628 67.5186 65.9795 67.7746 66.2746 68.1131L65.4935 68.8942C65.3025 68.6686 65.0682 68.4993 64.7905 68.3865C64.5214 68.265 64.222 68.2042 63.8922 68.2042C63.5016 68.2042 63.1544 68.2954 62.8507 68.4776C62.5469 68.6512 62.3082 68.8942 62.1346 69.2067C61.961 69.5191 61.8742 69.8793 61.8742 70.2873C61.8742 70.6952 61.961 71.0554 62.1346 71.3678C62.3082 71.6803 62.5469 71.9276 62.8507 72.1099C63.1544 72.2922 63.5016 72.3833 63.8922 72.3833C64.222 72.3833 64.5214 72.3269 64.7905 72.214C65.0682 72.0925 65.3069 71.9189 65.5065 71.6933L66.2746 72.4744C65.9882 72.8042 65.6367 73.0603 65.2201 73.2425C64.8122 73.4248 64.3695 73.5159 63.8922 73.5159ZM70.1346 73.5159C69.5271 73.5159 68.9803 73.3727 68.4942 73.0863C68.0082 72.7999 67.622 72.4137 67.3356 71.9276C67.0491 71.4329 66.9059 70.8818 66.9059 70.2742C66.9059 69.6754 67.0491 69.1373 67.3356 68.6599C67.622 68.1739 68.0082 67.7876 68.4942 67.5012C68.9803 67.2148 69.5271 67.0716 70.1346 67.0716C70.7335 67.0716 71.2759 67.2148 71.762 67.5012C72.2567 67.7789 72.6472 68.1608 72.9337 68.6469C73.2201 69.1329 73.3633 69.6754 73.3633 70.2742C73.3633 70.8818 73.2201 71.4329 72.9337 71.9276C72.6472 72.4137 72.2567 72.7999 71.762 73.0863C71.2759 73.3727 70.7335 73.5159 70.1346 73.5159ZM70.1346 72.3833C70.5252 72.3833 70.8723 72.2922 71.1761 72.1099C71.4799 71.9276 71.7186 71.6803 71.8922 71.3678C72.0657 71.0467 72.1525 70.6822 72.1525 70.2742C72.1525 69.875 72.0614 69.5191 71.8791 69.2067C71.7056 68.8942 71.4669 68.6512 71.1631 68.4776C70.868 68.2954 70.5252 68.2042 70.1346 68.2042C69.744 68.2042 69.3969 68.2954 69.0931 68.4776C68.7893 68.6512 68.5506 68.8942 68.3771 69.2067C68.2035 69.5191 68.1167 69.875 68.1167 70.2742C68.1167 70.6822 68.2035 71.0467 68.3771 71.3678C68.5506 71.6803 68.7893 71.9276 69.0931 72.1099C69.3969 72.2922 69.744 72.3833 70.1346 72.3833ZM76.6493 73.5159C76.3022 73.5159 75.9724 73.4725 75.6599 73.3857C75.3561 73.2903 75.074 73.1601 74.8137 72.9952C74.5533 72.8216 74.3276 72.6176 74.1367 72.3833L74.8918 71.6282C75.1174 71.9059 75.3778 72.1142 75.6729 72.2531C75.968 72.3833 76.2978 72.4484 76.6624 72.4484C77.0269 72.4484 77.309 72.3876 77.5086 72.2661C77.7082 72.1359 77.808 71.958 77.808 71.7323C77.808 71.5067 77.7256 71.3331 77.5607 71.2116C77.4044 71.0814 77.2005 70.9773 76.9488 70.8991C76.6971 70.8123 76.428 70.7299 76.1416 70.6518C75.8639 70.565 75.5991 70.4565 75.3474 70.3263C75.0957 70.1961 74.8874 70.0182 74.7225 69.7925C74.5663 69.5669 74.4882 69.2674 74.4882 68.8942C74.4882 68.521 74.5793 68.1999 74.7616 67.9308C74.9439 67.6531 75.1956 67.4405 75.5167 67.2929C75.8465 67.1454 76.2414 67.0716 76.7014 67.0716C77.1874 67.0716 77.6171 67.1584 77.9903 67.332C78.3722 67.4969 78.6846 67.7486 78.9276 68.0871L78.1725 68.8422C77.999 68.6165 77.782 68.4429 77.5216 68.3214C77.2699 68.1999 76.9835 68.1391 76.6624 68.1391C76.3239 68.1391 76.0635 68.1999 75.8812 68.3214C75.7076 68.4342 75.6208 68.5948 75.6208 68.8031C75.6208 69.0114 75.699 69.172 75.8552 69.2848C76.0114 69.3976 76.2154 69.4931 76.4671 69.5712C76.7274 69.6493 76.9965 69.7318 77.2742 69.8186C77.552 69.8967 77.8167 70.0052 78.0684 70.144C78.3201 70.2829 78.524 70.4695 78.6803 70.7039C78.8452 70.9382 78.9276 71.2463 78.9276 71.6282C78.9276 72.2097 78.7193 72.6697 78.3027 73.0082C77.8948 73.3467 77.3437 73.5159 76.6493 73.5159ZM81.1898 73.3857V64.611H82.3615V73.3857H81.1898ZM79.6666 68.2693V67.2018H83.8847V68.2693H79.6666ZM86.8712 73.5159C86.524 73.5159 86.1942 73.4725 85.8817 73.3857C85.578 73.2903 85.2959 73.1601 85.0355 72.9952C84.7751 72.8216 84.5495 72.6176 84.3585 72.3833L85.1136 71.6282C85.3393 71.9059 85.5997 72.1142 85.8948 72.2531C86.1899 72.3833 86.5197 72.4484 86.8842 72.4484C87.2487 72.4484 87.5308 72.3876 87.7304 72.2661C87.93 72.1359 88.0299 71.958 88.0299 71.7323C88.0299 71.5067 87.9474 71.3331 87.7825 71.2116C87.6263 71.0814 87.4223 70.9773 87.1706 70.8991C86.9189 70.8123 86.6499 70.7299 86.3634 70.6518C86.0857 70.565 85.821 70.4565 85.5693 70.3263C85.3176 70.1961 85.1093 70.0182 84.9444 69.7925C84.7882 69.5669 84.71 69.2674 84.71 68.8942C84.71 68.521 84.8012 68.1999 84.9834 67.9308C85.1657 67.6531 85.4174 67.4405 85.7385 67.2929C86.0683 67.1454 86.4633 67.0716 86.9233 67.0716C87.4093 67.0716 87.8389 67.1584 88.2121 67.332C88.594 67.4969 88.9065 67.7486 89.1495 68.0871L88.3944 68.8422C88.2208 68.6165 88.0038 68.4429 87.7434 68.3214C87.4917 68.1999 87.2053 68.1391 86.8842 68.1391C86.5457 68.1391 86.2853 68.1999 86.1031 68.3214C85.9295 68.4342 85.8427 68.5948 85.8427 68.8031C85.8427 69.0114 85.9208 69.172 86.077 69.2848C86.2333 69.3976 86.4372 69.4931 86.6889 69.5712C86.9493 69.6493 87.2183 69.7318 87.4961 69.8186C87.7738 69.8967 88.0385 70.0052 88.2902 70.144C88.5419 70.2829 88.7459 70.4695 88.9021 70.7039C89.067 70.9382 89.1495 71.2463 89.1495 71.6282C89.1495 72.2097 88.9412 72.6697 88.5246 73.0082C88.1166 73.3467 87.5655 73.5159 86.8712 73.5159ZM95.7991 73.5159C95.2349 73.5159 94.7228 73.3771 94.2628 73.0993C93.8028 72.8129 93.4383 72.4267 93.1693 71.9406C92.9089 71.4546 92.7787 70.9078 92.7787 70.3003C92.7787 69.6927 92.9089 69.1459 93.1693 68.6599C93.4383 68.1739 93.7985 67.7876 94.2498 67.5012C94.7098 67.2148 95.2262 67.0716 95.7991 67.0716C96.2677 67.0716 96.6844 67.1714 97.0489 67.371C97.4221 67.562 97.7215 67.831 97.9472 68.1782C98.1728 68.5167 98.2987 68.9116 98.3247 69.3629V71.2246C98.2987 71.6673 98.1728 72.0622 97.9472 72.4093C97.7302 72.7565 97.4351 73.0299 97.0619 73.2295C96.6974 73.4205 96.2764 73.5159 95.7991 73.5159ZM95.9944 72.4093C96.5759 72.4093 97.0445 72.214 97.4004 71.8235C97.7562 71.4242 97.9342 70.9165 97.9342 70.3003C97.9342 69.875 97.8517 69.5061 97.6868 69.1937C97.5306 68.8725 97.3049 68.6252 97.0098 68.4516C96.7147 68.2693 96.3719 68.1782 95.9813 68.1782C95.5908 68.1782 95.2436 68.2693 94.9398 68.4516C94.6447 68.6339 94.4104 68.8856 94.2368 69.2067C94.0719 69.5191 93.9894 69.8793 93.9894 70.2873C93.9894 70.7039 94.0719 71.0727 94.2368 71.3939C94.4104 71.7063 94.6491 71.9537 94.9528 72.1359C95.2566 72.3182 95.6038 72.4093 95.9944 72.4093ZM97.8561 73.3857V71.7193L98.0774 70.2091L97.8561 68.712V67.2018H99.0408V73.3857H97.8561ZM105.121 73.3857V69.7795C105.121 69.3108 104.973 68.9246 104.678 68.6208C104.383 68.3171 104.001 68.1652 103.533 68.1652C103.22 68.1652 102.942 68.2346 102.699 68.3735C102.456 68.5123 102.266 68.7033 102.127 68.9463C101.988 69.1893 101.918 69.4671 101.918 69.7795L101.437 69.5061C101.437 69.0374 101.541 68.6208 101.749 68.2563C101.957 67.8918 102.248 67.6054 102.621 67.3971C102.995 67.1801 103.416 67.0716 103.884 67.0716C104.353 67.0716 104.765 67.1888 105.121 67.4231C105.486 67.6574 105.772 67.9656 105.98 68.3474C106.189 68.7206 106.293 69.1199 106.293 69.5452V73.3857H105.121ZM100.747 73.3857V67.2018H101.918V73.3857H100.747ZM110.496 73.5159C109.923 73.5159 109.411 73.3771 108.96 73.0993C108.508 72.8129 108.148 72.4267 107.879 71.9406C107.619 71.4546 107.488 70.9078 107.488 70.3003C107.488 69.6927 107.619 69.1459 107.879 68.6599C108.148 68.1739 108.508 67.7876 108.96 67.5012C109.411 67.2148 109.923 67.0716 110.496 67.0716C110.956 67.0716 111.372 67.1714 111.746 67.371C112.119 67.562 112.418 67.831 112.644 68.1782C112.878 68.5167 113.008 68.9116 113.035 69.3629V71.2246C113.008 71.6673 112.883 72.0622 112.657 72.4093C112.431 72.7565 112.132 73.0299 111.759 73.2295C111.385 73.4205 110.965 73.5159 110.496 73.5159ZM110.691 72.4093C111.082 72.4093 111.42 72.3182 111.707 72.1359C112.002 71.9537 112.232 71.7063 112.397 71.3939C112.562 71.0727 112.644 70.7082 112.644 70.3003C112.644 69.875 112.557 69.5061 112.384 69.1937C112.219 68.8812 111.989 68.6339 111.694 68.4516C111.407 68.2693 111.069 68.1782 110.678 68.1782C110.288 68.1782 109.945 68.2693 109.65 68.4516C109.355 68.6339 109.12 68.8856 108.947 69.2067C108.782 69.5191 108.699 69.8793 108.699 70.2873C108.699 70.7039 108.782 71.0727 108.947 71.3939C109.12 71.7063 109.355 71.9537 109.65 72.1359C109.953 72.3182 110.301 72.4093 110.691 72.4093ZM113.751 73.3857H112.566V71.7193L112.787 70.2091L112.566 68.712V64.0903H113.751V73.3857ZM120.99 73.5159C120.382 73.5159 119.831 73.3727 119.336 73.0863C118.85 72.7999 118.464 72.4137 118.177 71.9276C117.9 71.4329 117.761 70.8861 117.761 70.2873C117.761 69.6797 117.9 69.1329 118.177 68.6469C118.464 68.1608 118.85 67.7789 119.336 67.5012C119.831 67.2148 120.382 67.0716 120.99 67.0716C121.467 67.0716 121.91 67.1627 122.317 67.345C122.725 67.5186 123.077 67.7746 123.372 68.1131L122.591 68.8942C122.4 68.6686 122.166 68.4993 121.888 68.3865C121.619 68.265 121.319 68.2042 120.99 68.2042C120.599 68.2042 120.252 68.2954 119.948 68.4776C119.644 68.6512 119.406 68.8942 119.232 69.2067C119.058 69.5191 118.972 69.8793 118.972 70.2873C118.972 70.6952 119.058 71.0554 119.232 71.3678C119.406 71.6803 119.644 71.9276 119.948 72.1099C120.252 72.2922 120.599 72.3833 120.99 72.3833C121.319 72.3833 121.619 72.3269 121.888 72.214C122.166 72.0925 122.404 71.9189 122.604 71.6933L123.372 72.4744C123.086 72.8042 122.734 73.0603 122.317 73.2425C121.91 73.4248 121.467 73.5159 120.99 73.5159ZM127.232 73.5159C126.624 73.5159 126.078 73.3727 125.592 73.0863C125.106 72.7999 124.719 72.4137 124.433 71.9276C124.147 71.4329 124.003 70.8818 124.003 70.2742C124.003 69.6754 124.147 69.1373 124.433 68.6599C124.719 68.1739 125.106 67.7876 125.592 67.5012C126.078 67.2148 126.624 67.0716 127.232 67.0716C127.831 67.0716 128.373 67.2148 128.859 67.5012C129.354 67.7789 129.745 68.1608 130.031 68.6469C130.317 69.1329 130.461 69.6754 130.461 70.2742C130.461 70.8818 130.317 71.4329 130.031 71.9276C129.745 72.4137 129.354 72.7999 128.859 73.0863C128.373 73.3727 127.831 73.5159 127.232 73.5159ZM127.232 72.3833C127.623 72.3833 127.97 72.2922 128.274 72.1099C128.577 71.9276 128.816 71.6803 128.99 71.3678C129.163 71.0467 129.25 70.6822 129.25 70.2742C129.25 69.875 129.159 69.5191 128.977 69.2067C128.803 68.8942 128.564 68.6512 128.26 68.4776C127.965 68.2954 127.623 68.2042 127.232 68.2042C126.841 68.2042 126.494 68.2954 126.19 68.4776C125.887 68.6512 125.648 68.8942 125.474 69.2067C125.301 69.5191 125.214 69.875 125.214 70.2742C125.214 70.6822 125.301 71.0467 125.474 71.3678C125.648 71.6803 125.887 71.9276 126.19 72.1099C126.494 72.2922 126.841 72.3833 127.232 72.3833ZM136.155 73.3857V69.7795C136.155 69.3108 136.008 68.9246 135.713 68.6208C135.417 68.3171 135.036 68.1652 134.567 68.1652C134.254 68.1652 133.977 68.2346 133.734 68.3735C133.491 68.5123 133.3 68.7033 133.161 68.9463C133.022 69.1893 132.953 69.4671 132.953 69.7795L132.471 69.5061C132.471 69.0374 132.575 68.6208 132.783 68.2563C132.992 67.8918 133.282 67.6054 133.656 67.3971C134.029 67.1801 134.45 67.0716 134.918 67.0716C135.387 67.0716 135.799 67.1888 136.155 67.4231C136.52 67.6574 136.806 67.9656 137.014 68.3474C137.223 68.7206 137.327 69.1199 137.327 69.5452V73.3857H136.155ZM131.781 73.3857V67.2018H132.953V73.3857H131.781ZM141.738 73.5159C141.131 73.5159 140.58 73.3727 140.085 73.0863C139.599 72.7999 139.213 72.4137 138.926 71.9276C138.649 71.4329 138.51 70.8861 138.51 70.2873C138.51 69.6797 138.649 69.1329 138.926 68.6469C139.213 68.1608 139.599 67.7789 140.085 67.5012C140.58 67.2148 141.131 67.0716 141.738 67.0716C142.216 67.0716 142.658 67.1627 143.066 67.345C143.474 67.5186 143.826 67.7746 144.121 68.1131L143.34 68.8942C143.149 68.6686 142.914 68.4993 142.637 68.3865C142.368 68.265 142.068 68.2042 141.738 68.2042C141.348 68.2042 141.001 68.2954 140.697 68.4776C140.393 68.6512 140.154 68.8942 139.981 69.2067C139.807 69.5191 139.72 69.8793 139.72 70.2873C139.72 70.6952 139.807 71.0554 139.981 71.3678C140.154 71.6803 140.393 71.9276 140.697 72.1099C141.001 72.2922 141.348 72.3833 141.738 72.3833C142.068 72.3833 142.368 72.3269 142.637 72.214C142.914 72.0925 143.153 71.9189 143.353 71.6933L144.121 72.4744C143.834 72.8042 143.483 73.0603 143.066 73.2425C142.658 73.4248 142.216 73.5159 141.738 73.5159ZM148.02 73.5159C147.404 73.5159 146.848 73.3771 146.353 73.0993C145.859 72.8129 145.468 72.4267 145.182 71.9406C144.895 71.4546 144.752 70.9035 144.752 70.2873C144.752 69.6797 144.891 69.1329 145.169 68.6469C145.455 68.1608 145.837 67.7789 146.314 67.5012C146.8 67.2148 147.343 67.0716 147.942 67.0716C148.515 67.0716 149.018 67.2018 149.452 67.4622C149.895 67.7225 150.237 68.0827 150.48 68.5427C150.732 69.0027 150.858 69.5235 150.858 70.105C150.858 70.1918 150.854 70.2873 150.845 70.3914C150.836 70.4869 150.819 70.5997 150.793 70.7299H145.572V69.7535H150.168L149.738 70.131C149.738 69.7144 149.665 69.3629 149.517 69.0765C149.369 68.7814 149.161 68.5557 148.892 68.3995C148.623 68.2346 148.298 68.1522 147.916 68.1522C147.516 68.1522 147.165 68.2389 146.861 68.4125C146.557 68.5861 146.323 68.8291 146.158 69.1416C145.993 69.454 145.911 69.8229 145.911 70.2482C145.911 70.6822 145.998 71.064 146.171 71.3939C146.345 71.715 146.592 71.9667 146.913 72.1489C147.234 72.3225 147.603 72.4093 148.02 72.4093C148.367 72.4093 148.684 72.3486 148.97 72.2271C149.265 72.1056 149.517 71.9233 149.725 71.6803L150.48 72.4484C150.185 72.7956 149.821 73.0603 149.387 73.2425C148.962 73.4248 148.506 73.5159 148.02 73.5159ZM156.51 73.3857V69.7795C156.51 69.3108 156.362 68.9246 156.067 68.6208C155.772 68.3171 155.39 68.1652 154.922 68.1652C154.609 68.1652 154.331 68.2346 154.088 68.3735C153.845 68.5123 153.654 68.7033 153.516 68.9463C153.377 69.1893 153.307 69.4671 153.307 69.7795L152.826 69.5061C152.826 69.0374 152.93 68.6208 153.138 68.2563C153.346 67.8918 153.637 67.6054 154.01 67.3971C154.383 67.1801 154.804 67.0716 155.273 67.0716C155.742 67.0716 156.154 67.1888 156.51 67.4231C156.874 67.6574 157.161 67.9656 157.369 68.3474C157.577 68.7206 157.682 69.1199 157.682 69.5452V73.3857H156.51ZM152.136 73.3857V67.2018H153.307V73.3857H152.136ZM160.142 73.3857V64.611H161.314V73.3857H160.142ZM158.619 68.2693V67.2018H162.837V68.2693H158.619ZM163.985 73.3857V67.2018H165.156V73.3857H163.985ZM165.156 69.8576L164.714 69.6623C164.714 68.8725 164.896 68.2433 165.261 67.7746C165.625 67.3059 166.15 67.0716 166.836 67.0716C167.148 67.0716 167.43 67.128 167.682 67.2408C167.934 67.345 168.168 67.5229 168.385 67.7746L167.617 68.5688C167.487 68.4299 167.344 68.3301 167.187 68.2693C167.031 68.2086 166.849 68.1782 166.641 68.1782C166.207 68.1782 165.851 68.3171 165.573 68.5948C165.295 68.8725 165.156 69.2935 165.156 69.8576ZM171.637 73.5159C171.072 73.5159 170.56 73.3771 170.1 73.0993C169.64 72.8129 169.276 72.4267 169.007 71.9406C168.746 71.4546 168.616 70.9078 168.616 70.3003C168.616 69.6927 168.746 69.1459 169.007 68.6599C169.276 68.1739 169.636 67.7876 170.087 67.5012C170.547 67.2148 171.064 67.0716 171.637 67.0716C172.105 67.0716 172.522 67.1714 172.886 67.371C173.26 67.562 173.559 67.831 173.785 68.1782C174.01 68.5167 174.136 68.9116 174.162 69.3629V71.2246C174.136 71.6673 174.01 72.0622 173.785 72.4093C173.568 72.7565 173.273 73.0299 172.899 73.2295C172.535 73.4205 172.114 73.5159 171.637 73.5159ZM171.832 72.4093C172.413 72.4093 172.882 72.214 173.238 71.8235C173.594 71.4242 173.772 70.9165 173.772 70.3003C173.772 69.875 173.689 69.5061 173.524 69.1937C173.368 68.8725 173.142 68.6252 172.847 68.4516C172.552 68.2693 172.209 68.1782 171.819 68.1782C171.428 68.1782 171.081 68.2693 170.777 68.4516C170.482 68.6339 170.248 68.8856 170.074 69.2067C169.909 69.5191 169.827 69.8793 169.827 70.2873C169.827 70.7039 169.909 71.0727 170.074 71.3939C170.248 71.7063 170.487 71.9537 170.79 72.1359C171.094 72.3182 171.441 72.4093 171.832 72.4093ZM173.693 73.3857V71.7193L173.915 70.2091L173.693 68.712V67.2018H174.878V73.3857H173.693ZM177.509 73.3857V64.611H178.681V73.3857H177.509ZM175.986 68.2693V67.2018H180.204V68.2693H175.986ZM184.025 73.5159C183.409 73.5159 182.853 73.3771 182.359 73.0993C181.864 72.8129 181.473 72.4267 181.187 71.9406C180.901 71.4546 180.757 70.9035 180.757 70.2873C180.757 69.6797 180.896 69.1329 181.174 68.6469C181.46 68.1608 181.842 67.7789 182.32 67.5012C182.806 67.2148 183.348 67.0716 183.947 67.0716C184.52 67.0716 185.023 67.2018 185.457 67.4622C185.9 67.7225 186.243 68.0827 186.486 68.5427C186.737 69.0027 186.863 69.5235 186.863 70.105C186.863 70.1918 186.859 70.2873 186.85 70.3914C186.842 70.4869 186.824 70.5997 186.798 70.7299H181.578V69.7535H186.173L185.744 70.131C185.744 69.7144 185.67 69.3629 185.522 69.0765C185.375 68.7814 185.167 68.5557 184.897 68.3995C184.628 68.2346 184.303 68.1522 183.921 68.1522C183.522 68.1522 183.17 68.2389 182.867 68.4125C182.563 68.5861 182.328 68.8291 182.163 69.1416C181.999 69.454 181.916 69.8229 181.916 70.2482C181.916 70.6822 182.003 71.064 182.177 71.3939C182.35 71.715 182.597 71.9667 182.919 72.1489C183.24 72.3225 183.609 72.4093 184.025 72.4093C184.372 72.4093 184.689 72.3486 184.976 72.2271C185.271 72.1056 185.522 71.9233 185.731 71.6803L186.486 72.4484C186.191 72.7956 185.826 73.0603 185.392 73.2425C184.967 73.4248 184.511 73.5159 184.025 73.5159ZM193.674 73.5159C193.066 73.5159 192.52 73.3727 192.034 73.0863C191.548 72.7999 191.161 72.4137 190.875 71.9276C190.589 71.4329 190.445 70.8818 190.445 70.2742C190.445 69.6754 190.589 69.1373 190.875 68.6599C191.161 68.1739 191.548 67.7876 192.034 67.5012C192.52 67.2148 193.066 67.0716 193.674 67.0716C194.273 67.0716 194.815 67.2148 195.301 67.5012C195.796 67.7789 196.187 68.1608 196.473 68.6469C196.759 69.1329 196.903 69.6754 196.903 70.2742C196.903 70.8818 196.759 71.4329 196.473 71.9276C196.187 72.4137 195.796 72.7999 195.301 73.0863C194.815 73.3727 194.273 73.5159 193.674 73.5159ZM193.674 72.3833C194.065 72.3833 194.412 72.2922 194.716 72.1099C195.019 71.9276 195.258 71.6803 195.432 71.3678C195.605 71.0467 195.692 70.6822 195.692 70.2742C195.692 69.875 195.601 69.5191 195.419 69.2067C195.245 68.8942 195.006 68.6512 194.702 68.4776C194.407 68.2954 194.065 68.2042 193.674 68.2042C193.283 68.2042 192.936 68.2954 192.632 68.4776C192.329 68.6512 192.09 68.8942 191.916 69.2067C191.743 69.5191 191.656 69.875 191.656 70.2742C191.656 70.6822 191.743 71.0467 191.916 71.3678C192.09 71.6803 192.329 71.9276 192.632 72.1099C192.936 72.2922 193.283 72.3833 193.674 72.3833ZM202.597 73.3857V69.7795C202.597 69.3108 202.45 68.9246 202.155 68.6208C201.859 68.3171 201.478 68.1652 201.009 68.1652C200.696 68.1652 200.419 68.2346 200.176 68.3735C199.933 68.5123 199.742 68.7033 199.603 68.9463C199.464 69.1893 199.395 69.4671 199.395 69.7795L198.913 69.5061C198.913 69.0374 199.017 68.6208 199.225 68.2563C199.434 67.8918 199.724 67.6054 200.098 67.3971C200.471 67.1801 200.892 67.0716 201.36 67.0716C201.829 67.0716 202.241 67.1888 202.597 67.4231C202.962 67.6574 203.248 67.9656 203.456 68.3474C203.665 68.7206 203.769 69.1199 203.769 69.5452V73.3857H202.597ZM198.223 73.3857V67.2018H199.395V73.3857H198.223ZM16.0477 92.3857V86.2018H17.2194V92.3857H16.0477ZM17.2194 88.8576L16.7768 88.6623C16.7768 87.8725 16.959 87.2433 17.3236 86.7746C17.6881 86.3059 18.2132 86.0716 18.8989 86.0716C19.2113 86.0716 19.4934 86.128 19.7451 86.2408C19.9968 86.345 20.2311 86.5229 20.4481 86.7746L19.68 87.5688C19.5498 87.4299 19.4066 87.3301 19.2504 87.2693C19.0941 87.2086 18.9119 87.1782 18.7036 87.1782C18.2696 87.1782 17.9138 87.3171 17.636 87.5948C17.3583 87.8725 17.2194 88.2935 17.2194 88.8576ZM23.9338 92.5159C23.3176 92.5159 22.7621 92.3771 22.2674 92.0993C21.7727 91.8129 21.3821 91.4267 21.0957 90.9406C20.8093 90.4546 20.6661 89.9035 20.6661 89.2873C20.6661 88.6797 20.8049 88.1329 21.0827 87.6469C21.3691 87.1608 21.751 86.7789 22.2283 86.5012C22.7144 86.2148 23.2568 86.0716 23.8557 86.0716C24.4285 86.0716 24.9319 86.2018 25.3659 86.4622C25.8085 86.7225 26.1513 87.0827 26.3944 87.5427C26.6461 88.0027 26.7719 88.5235 26.7719 89.105C26.7719 89.1918 26.7676 89.2873 26.7589 89.3914C26.7502 89.4869 26.7329 89.5997 26.7068 89.7299H21.4863V88.7535H26.0819L25.6523 89.131C25.6523 88.7144 25.5785 88.3629 25.431 88.0765C25.2834 87.7814 25.0751 87.5557 24.8061 87.3995C24.537 87.2346 24.2115 87.1522 23.8296 87.1522C23.4304 87.1522 23.0789 87.2389 22.7751 87.4125C22.4713 87.5861 22.237 87.8291 22.0721 88.1416C21.9072 88.454 21.8247 88.8229 21.8247 89.2482C21.8247 89.6822 21.9115 90.064 22.0851 90.3939C22.2587 90.715 22.5061 90.9667 22.8272 91.1489C23.1483 91.3225 23.5172 91.4093 23.9338 91.4093C24.281 91.4093 24.5978 91.3486 24.8842 91.2271C25.1793 91.1056 25.431 90.9233 25.6393 90.6803L26.3944 91.4484C26.0993 91.7956 25.7347 92.0603 25.3008 92.2425C24.8755 92.4248 24.4198 92.5159 23.9338 92.5159ZM30.0699 92.3857L27.2317 86.2018H28.5336L30.8119 91.4223H30.0568L32.3482 86.2018H33.598L30.7599 92.3857H30.0699ZM37.2197 92.5159C36.6034 92.5159 36.048 92.3771 35.5532 92.0993C35.0585 91.8129 34.668 91.4267 34.3815 90.9406C34.0951 90.4546 33.9519 89.9035 33.9519 89.2873C33.9519 88.6797 34.0908 88.1329 34.3685 87.6469C34.6549 87.1608 35.0368 86.7789 35.5142 86.5012C36.0002 86.2148 36.5427 86.0716 37.1415 86.0716C37.7144 86.0716 38.2178 86.2018 38.6517 86.4622C39.0944 86.7225 39.4372 87.0827 39.6802 87.5427C39.9319 88.0027 40.0578 88.5235 40.0578 89.105C40.0578 89.1918 40.0534 89.2873 40.0448 89.3914C40.0361 89.4869 40.0187 89.5997 39.9927 89.7299H34.7721V88.7535H39.3678L38.9381 89.131C38.9381 88.7144 38.8644 88.3629 38.7168 88.0765C38.5693 87.7814 38.361 87.5557 38.0919 87.3995C37.8229 87.2346 37.4974 87.1522 37.1155 87.1522C36.7163 87.1522 36.3648 87.2389 36.061 87.4125C35.7572 87.5861 35.5229 87.8291 35.358 88.1416C35.1931 88.454 35.1106 88.8229 35.1106 89.2482C35.1106 89.6822 35.1974 90.064 35.371 90.3939C35.5446 90.715 35.7919 90.9667 36.1131 91.1489C36.4342 91.3225 36.8031 91.4093 37.2197 91.4093C37.5668 91.4093 37.8836 91.3486 38.17 91.2271C38.4651 91.1056 38.7168 90.9233 38.9251 90.6803L39.6802 91.4484C39.3851 91.7956 39.0206 92.0603 38.5866 92.2425C38.1614 92.4248 37.7057 92.5159 37.2197 92.5159ZM45.7097 92.3857V88.7795C45.7097 88.3108 45.5621 87.9246 45.267 87.6208C44.972 87.3171 44.5901 87.1652 44.1214 87.1652C43.8089 87.1652 43.5312 87.2346 43.2882 87.3735C43.0452 87.5123 42.8542 87.7033 42.7153 87.9463C42.5765 88.1893 42.507 88.4671 42.507 88.7795L42.0253 88.5061C42.0253 88.0374 42.1295 87.6208 42.3378 87.2563C42.5461 86.8918 42.8369 86.6054 43.2101 86.3971C43.5833 86.1801 44.0042 86.0716 44.4729 86.0716C44.9416 86.0716 45.3538 86.1888 45.7097 86.4231C46.0742 86.6574 46.3606 86.9656 46.5689 87.3474C46.7772 87.7206 46.8814 88.1199 46.8814 88.5452V92.3857H45.7097ZM41.3353 92.3857V86.2018H42.507V92.3857H41.3353ZM50.9544 92.5159C50.451 92.5159 49.9953 92.4031 49.5874 92.1774C49.1881 91.9431 48.8757 91.622 48.65 91.214C48.4244 90.8061 48.3115 90.3331 48.3115 89.795V86.2018H49.4832V89.7429C49.4832 90.0814 49.5396 90.3765 49.6525 90.6282C49.774 90.8712 49.9476 91.0578 50.1732 91.188C50.3989 91.3182 50.6636 91.3833 50.9674 91.3833C51.4274 91.3833 51.7876 91.2401 52.0479 90.9537C52.3083 90.6586 52.4385 90.255 52.4385 89.7429V86.2018H53.6102V89.795C53.6102 90.3331 53.4974 90.8061 53.2717 91.214C53.0461 91.622 52.7336 91.9431 52.3344 92.1774C51.9438 92.4031 51.4838 92.5159 50.9544 92.5159ZM58.0448 92.5159C57.4285 92.5159 56.8731 92.3771 56.3783 92.0993C55.8836 91.8129 55.4931 91.4267 55.2066 90.9406C54.9202 90.4546 54.777 89.9035 54.777 89.2873C54.777 88.6797 54.9159 88.1329 55.1936 87.6469C55.48 87.1608 55.8619 86.7789 56.3393 86.5012C56.8253 86.2148 57.3678 86.0716 57.9666 86.0716C58.5395 86.0716 59.0429 86.2018 59.4768 86.4622C59.9195 86.7225 60.2623 87.0827 60.5053 87.5427C60.757 88.0027 60.8829 88.5235 60.8829 89.105C60.8829 89.1918 60.8785 89.2873 60.8699 89.3914C60.8612 89.4869 60.8438 89.5997 60.8178 89.7299H55.5972V88.7535H60.1929L59.7632 89.131C59.7632 88.7144 59.6895 88.3629 59.5419 88.0765C59.3944 87.7814 59.1861 87.5557 58.917 87.3995C58.648 87.2346 58.3225 87.1522 57.9406 87.1522C57.5414 87.1522 57.1899 87.2389 56.8861 87.4125C56.5823 87.5861 56.348 87.8291 56.1831 88.1416C56.0182 88.454 55.9357 88.8229 55.9357 89.2482C55.9357 89.6822 56.0225 90.064 56.1961 90.3939C56.3697 90.715 56.617 90.9667 56.9382 91.1489C57.2593 91.3225 57.6282 91.4093 58.0448 91.4093C58.3919 91.4093 58.7087 91.3486 58.9951 91.2271C59.2902 91.1056 59.5419 90.9233 59.7502 90.6803L60.5053 91.4484C60.2102 91.7956 59.8457 92.0603 59.4117 92.2425C58.9865 92.4248 58.5308 92.5159 58.0448 92.5159ZM62.3639 89.6257V88.5191H66.6471V89.6257H62.3639ZM71.1329 95.1067C70.4993 95.1067 69.9352 94.9895 69.4404 94.7552C68.9544 94.5208 68.5638 94.191 68.2687 93.7657L69.0238 92.9976C69.2755 93.3188 69.575 93.5618 69.9221 93.7267C70.2693 93.9003 70.6816 93.9871 71.1589 93.9871C71.7925 93.9871 72.2916 93.8178 72.6561 93.4793C73.0293 93.1495 73.2159 92.7025 73.2159 92.1384V90.6022L73.4242 89.2091L73.2159 87.8291V86.2018H74.3876V92.1384C74.3876 92.7286 74.2487 93.245 73.971 93.6876C73.7019 94.1303 73.3201 94.4774 72.8253 94.7291C72.3393 94.9808 71.7752 95.1067 71.1329 95.1067ZM71.1329 92.2816C70.5687 92.2816 70.061 92.1471 69.6097 91.878C69.167 91.6089 68.8155 91.2401 68.5552 90.7714C68.2948 90.294 68.1646 89.7603 68.1646 89.1701C68.1646 88.5799 68.2948 88.0548 68.5552 87.5948C68.8155 87.1261 69.167 86.7573 69.6097 86.4882C70.061 86.2105 70.5687 86.0716 71.1329 86.0716C71.6189 86.0716 72.0485 86.1671 72.4218 86.358C72.795 86.5489 73.0901 86.818 73.307 87.1652C73.5327 87.5037 73.6542 87.9029 73.6716 88.3629V90.0033C73.6455 90.4546 73.5197 90.8539 73.294 91.201C73.077 91.5395 72.7819 91.8042 72.4087 91.9952C72.0355 92.1861 71.6102 92.2816 71.1329 92.2816ZM71.3672 91.175C71.7491 91.175 72.0833 91.0925 72.3697 90.9276C72.6648 90.7627 72.8904 90.5327 73.0467 90.2376C73.2029 89.9339 73.281 89.5823 73.281 89.1831C73.281 88.7839 73.1985 88.4367 73.0336 88.1416C72.8774 87.8378 72.6561 87.6035 72.3697 87.4386C72.0833 87.265 71.7448 87.1782 71.3542 87.1782C70.9636 87.1782 70.6208 87.265 70.3257 87.4386C70.0306 87.6035 69.7963 87.8378 69.6227 88.1416C69.4578 88.4367 69.3753 88.7795 69.3753 89.1701C69.3753 89.5606 69.4578 89.9078 69.6227 90.2116C69.7963 90.5154 70.0306 90.754 70.3257 90.9276C70.6295 91.0925 70.9767 91.175 71.3672 91.175ZM78.9716 92.5159C78.3553 92.5159 77.7999 92.3771 77.3052 92.0993C76.8104 91.8129 76.4199 91.4267 76.1335 90.9406C75.847 90.4546 75.7038 89.9035 75.7038 89.2873C75.7038 88.6797 75.8427 88.1329 76.1204 87.6469C76.4069 87.1608 76.7887 86.7789 77.2661 86.5012C77.7521 86.2148 78.2946 86.0716 78.8935 86.0716C79.4663 86.0716 79.9697 86.2018 80.4036 86.4622C80.8463 86.7225 81.1891 87.0827 81.4321 87.5427C81.6838 88.0027 81.8097 88.5235 81.8097 89.105C81.8097 89.1918 81.8053 89.2873 81.7967 89.3914C81.788 89.4869 81.7706 89.5997 81.7446 89.7299H76.524V88.7535H81.1197L80.6901 89.131C80.6901 88.7144 80.6163 88.3629 80.4687 88.0765C80.3212 87.7814 80.1129 87.5557 79.8438 87.3995C79.5748 87.2346 79.2493 87.1522 78.8674 87.1522C78.4682 87.1522 78.1167 87.2389 77.8129 87.4125C77.5091 87.5861 77.2748 87.8291 77.1099 88.1416C76.945 88.454 76.8625 88.8229 76.8625 89.2482C76.8625 89.6822 76.9493 90.064 77.1229 90.3939C77.2965 90.715 77.5438 90.9667 77.865 91.1489C78.1861 91.3225 78.555 91.4093 78.9716 91.4093C79.3187 91.4093 79.6355 91.3486 79.9219 91.2271C80.217 91.1056 80.4687 90.9233 80.677 90.6803L81.4321 91.4484C81.137 91.7956 80.7725 92.0603 80.3386 92.2425C79.9133 92.4248 79.4576 92.5159 78.9716 92.5159ZM87.4616 92.3857V88.7795C87.4616 88.3108 87.3141 87.9246 87.019 87.6208C86.7239 87.3171 86.342 87.1652 85.8733 87.1652C85.5608 87.1652 85.2831 87.2346 85.0401 87.3735C84.7971 87.5123 84.6061 87.7033 84.4673 87.9463C84.3284 88.1893 84.259 88.4671 84.259 88.7795L83.7773 88.5061C83.7773 88.0374 83.8814 87.6208 84.0897 87.2563C84.298 86.8918 84.5888 86.6054 84.962 86.3971C85.3352 86.1801 85.7561 86.0716 86.2248 86.0716C86.6935 86.0716 87.1058 86.1888 87.4616 86.4231C87.8261 86.6574 88.1125 86.9656 88.3209 87.3474C88.5292 87.7206 88.6333 88.1199 88.6333 88.5452V92.3857H87.4616ZM83.0873 92.3857V86.2018H84.259V92.3857H83.0873ZM93.0838 92.5159C92.4676 92.5159 91.9121 92.3771 91.4174 92.0993C90.9227 91.8129 90.5321 91.4267 90.2457 90.9406C89.9593 90.4546 89.8161 89.9035 89.8161 89.2873C89.8161 88.6797 89.9549 88.1329 90.2327 87.6469C90.5191 87.1608 90.901 86.7789 91.3783 86.5012C91.8644 86.2148 92.4068 86.0716 93.0057 86.0716C93.5785 86.0716 94.0819 86.2018 94.5159 86.4622C94.9585 86.7225 95.3014 87.0827 95.5444 87.5427C95.7961 88.0027 95.9219 88.5235 95.9219 89.105C95.9219 89.1918 95.9176 89.2873 95.9089 89.3914C95.9002 89.4869 95.8829 89.5997 95.8568 89.7299H90.6363V88.7535H95.2319L94.8023 89.131C94.8023 88.7144 94.7285 88.3629 94.581 88.0765C94.4334 87.7814 94.2251 87.5557 93.9561 87.3995C93.687 87.2346 93.3616 87.1522 92.9797 87.1522C92.5804 87.1522 92.2289 87.2389 91.9251 87.4125C91.6214 87.5861 91.387 87.8291 91.2221 88.1416C91.0572 88.454 90.9748 88.8229 90.9748 89.2482C90.9748 89.6822 91.0616 90.064 91.2351 90.3939C91.4087 90.715 91.6561 90.9667 91.9772 91.1489C92.2983 91.3225 92.6672 91.4093 93.0838 91.4093C93.431 91.4093 93.7478 91.3486 94.0342 91.2271C94.3293 91.1056 94.581 90.9233 94.7893 90.6803L95.5444 91.4484C95.2493 91.7956 94.8848 92.0603 94.4508 92.2425C94.0255 92.4248 93.5699 92.5159 93.0838 92.5159ZM97.1995 92.3857V86.2018H98.3712V92.3857H97.1995ZM98.3712 88.8576L97.9286 88.6623C97.9286 87.8725 98.1108 87.2433 98.4754 86.7746C98.8399 86.3059 99.365 86.0716 100.051 86.0716C100.363 86.0716 100.645 86.128 100.897 86.2408C101.149 86.345 101.383 86.5229 101.6 86.7746L100.832 87.5688C100.702 87.4299 100.558 87.3301 100.402 87.2693C100.246 87.2086 100.064 87.1782 99.8554 87.1782C99.4214 87.1782 99.0655 87.3171 98.7878 87.5948C98.5101 87.8725 98.3712 88.2935 98.3712 88.8576ZM104.851 92.5159C104.287 92.5159 103.775 92.3771 103.315 92.0993C102.855 91.8129 102.49 91.4267 102.221 90.9406C101.961 90.4546 101.831 89.9078 101.831 89.3003C101.831 88.6927 101.961 88.1459 102.221 87.6599C102.49 87.1739 102.851 86.7876 103.302 86.5012C103.762 86.2148 104.278 86.0716 104.851 86.0716C105.32 86.0716 105.737 86.1714 106.101 86.371C106.474 86.562 106.774 86.831 106.999 87.1782C107.225 87.5167 107.351 87.9116 107.377 88.3629V90.2246C107.351 90.6673 107.225 91.0622 106.999 91.4093C106.782 91.7565 106.487 92.0299 106.114 92.2295C105.75 92.4205 105.329 92.5159 104.851 92.5159ZM105.047 91.4093C105.628 91.4093 106.097 91.214 106.453 90.8235C106.808 90.4242 106.986 89.9165 106.986 89.3003C106.986 88.875 106.904 88.5061 106.739 88.1937C106.583 87.8725 106.357 87.6252 106.062 87.4516C105.767 87.2693 105.424 87.1782 105.034 87.1782C104.643 87.1782 104.296 87.2693 103.992 87.4516C103.697 87.6339 103.463 87.8856 103.289 88.2067C103.124 88.5191 103.042 88.8793 103.042 89.2873C103.042 89.7039 103.124 90.0727 103.289 90.3939C103.463 90.7063 103.701 90.9537 104.005 91.1359C104.309 91.3182 104.656 91.4093 105.047 91.4093ZM106.908 92.3857V90.7193L107.13 89.2091L106.908 87.712V86.2018H108.093V92.3857H106.908ZM110.724 92.3857V83.611H111.895V92.3857H110.724ZM109.201 87.2693V86.2018H113.419V87.2693H109.201ZM114.579 92.3857V86.2018H115.751V92.3857H114.579ZM115.165 84.965C114.948 84.965 114.77 84.8956 114.632 84.7567C114.493 84.6091 114.423 84.4269 114.423 84.2099C114.423 84.0016 114.493 83.828 114.632 83.6891C114.77 83.5416 114.948 83.4678 115.165 83.4678C115.382 83.4678 115.56 83.5416 115.699 83.6891C115.838 83.828 115.907 84.0016 115.907 84.2099C115.907 84.4269 115.838 84.6091 115.699 84.7567C115.56 84.8956 115.382 84.965 115.165 84.965ZM121.852 92.3857V88.7795C121.852 88.3108 121.705 87.9246 121.41 87.6208C121.115 87.3171 120.733 87.1652 120.264 87.1652C119.952 87.1652 119.674 87.2346 119.431 87.3735C119.188 87.5123 118.997 87.7033 118.858 87.9463C118.719 88.1893 118.65 88.4671 118.65 88.7795L118.168 88.5061C118.168 88.0374 118.272 87.6208 118.48 87.2563C118.689 86.8918 118.979 86.6054 119.353 86.3971C119.726 86.1801 120.147 86.0716 120.615 86.0716C121.084 86.0716 121.496 86.1888 121.852 86.4231C122.217 86.6574 122.503 86.9656 122.712 87.3474C122.92 87.7206 123.024 88.1199 123.024 88.5452V92.3857H121.852ZM117.478 92.3857V86.2018H118.65V92.3857H117.478ZM127.175 95.1067C126.541 95.1067 125.977 94.9895 125.483 94.7552C124.997 94.5208 124.606 94.191 124.311 93.7657L125.066 92.9976C125.318 93.3188 125.617 93.5618 125.964 93.7267C126.311 93.9003 126.724 93.9871 127.201 93.9871C127.835 93.9871 128.334 93.8178 128.698 93.4793C129.071 93.1495 129.258 92.7025 129.258 92.1384V90.6022L129.466 89.2091L129.258 87.8291V86.2018H130.43V92.1384C130.43 92.7286 130.291 93.245 130.013 93.6876C129.744 94.1303 129.362 94.4774 128.867 94.7291C128.381 94.9808 127.817 95.1067 127.175 95.1067ZM127.175 92.2816C126.611 92.2816 126.103 92.1471 125.652 91.878C125.209 91.6089 124.858 91.2401 124.597 90.7714C124.337 90.294 124.207 89.7603 124.207 89.1701C124.207 88.5799 124.337 88.0548 124.597 87.5948C124.858 87.1261 125.209 86.7573 125.652 86.4882C126.103 86.2105 126.611 86.0716 127.175 86.0716C127.661 86.0716 128.091 86.1671 128.464 86.358C128.837 86.5489 129.132 86.818 129.349 87.1652C129.575 87.5037 129.696 87.9029 129.714 88.3629V90.0033C129.688 90.4546 129.562 90.8539 129.336 91.201C129.119 91.5395 128.824 91.8042 128.451 91.9952C128.078 92.1861 127.652 92.2816 127.175 92.2816ZM127.409 91.175C127.791 91.175 128.125 91.0925 128.412 90.9276C128.707 90.7627 128.933 90.5327 129.089 90.2376C129.245 89.9339 129.323 89.5823 129.323 89.1831C129.323 88.7839 129.241 88.4367 129.076 88.1416C128.92 87.8378 128.698 87.6035 128.412 87.4386C128.125 87.265 127.787 87.1782 127.396 87.1782C127.006 87.1782 126.663 87.265 126.368 87.4386C126.073 87.6035 125.838 87.8378 125.665 88.1416C125.5 88.4367 125.417 88.7795 125.417 89.1701C125.417 89.5606 125.5 89.9078 125.665 90.2116C125.838 90.5154 126.073 90.754 126.368 90.9276C126.672 91.0925 127.019 91.175 127.409 91.175ZM137.487 92.5159C136.923 92.5159 136.411 92.3771 135.951 92.0993C135.491 91.8129 135.127 91.4267 134.858 90.9406C134.597 90.4546 134.467 89.9078 134.467 89.3003C134.467 88.6927 134.597 88.1459 134.858 87.6599C135.127 87.1739 135.487 86.7876 135.938 86.5012C136.398 86.2148 136.915 86.0716 137.487 86.0716C137.956 86.0716 138.373 86.1714 138.737 86.371C139.11 86.562 139.41 86.831 139.636 87.1782C139.861 87.5167 139.987 87.9116 140.013 88.3629V90.2246C139.987 90.6673 139.861 91.0622 139.636 91.4093C139.419 91.7565 139.123 92.0299 138.75 92.2295C138.386 92.4205 137.965 92.5159 137.487 92.5159ZM137.683 91.4093C138.264 91.4093 138.733 91.214 139.089 90.8235C139.445 90.4242 139.623 89.9165 139.623 89.3003C139.623 88.875 139.54 88.5061 139.375 88.1937C139.219 87.8725 138.993 87.6252 138.698 87.4516C138.403 87.2693 138.06 87.1782 137.67 87.1782C137.279 87.1782 136.932 87.2693 136.628 87.4516C136.333 87.6339 136.099 87.8856 135.925 88.2067C135.76 88.5191 135.678 88.8793 135.678 89.2873C135.678 89.7039 135.76 90.0727 135.925 90.3939C136.099 90.7063 136.337 90.9537 136.641 91.1359C136.945 91.3182 137.292 91.4093 137.683 91.4093ZM139.544 92.3857V90.7193L139.766 89.2091L139.544 87.712V86.2018H140.729V92.3857H139.544ZM145.26 92.5159C144.653 92.5159 144.101 92.3727 143.607 92.0863C143.121 91.7999 142.734 91.4137 142.448 90.9276C142.17 90.4329 142.031 89.8861 142.031 89.2873C142.031 88.6797 142.17 88.1329 142.448 87.6469C142.734 87.1608 143.121 86.7789 143.607 86.5012C144.101 86.2148 144.653 86.0716 145.26 86.0716C145.737 86.0716 146.18 86.1627 146.588 86.345C146.996 86.5186 147.347 86.7746 147.643 87.1131L146.861 87.8942C146.67 87.6686 146.436 87.4993 146.158 87.3865C145.889 87.265 145.59 87.2042 145.26 87.2042C144.87 87.2042 144.522 87.2954 144.219 87.4776C143.915 87.6512 143.676 87.8942 143.503 88.2067C143.329 88.5191 143.242 88.8793 143.242 89.2873C143.242 89.6952 143.329 90.0554 143.503 90.3678C143.676 90.6803 143.915 90.9276 144.219 91.1099C144.522 91.2922 144.87 91.3833 145.26 91.3833C145.59 91.3833 145.889 91.3269 146.158 91.214C146.436 91.0925 146.675 90.9189 146.874 90.6933L147.643 91.4744C147.356 91.8042 147.005 92.0603 146.588 92.2425C146.18 92.4248 145.737 92.5159 145.26 92.5159ZM149.679 92.3857V83.611H150.85V92.3857H149.679ZM148.155 87.2693V86.2018H152.374V87.2693H148.155ZM153.534 92.3857V86.2018H154.706V92.3857H153.534ZM154.12 84.965C153.903 84.965 153.725 84.8956 153.586 84.7567C153.448 84.6091 153.378 84.4269 153.378 84.2099C153.378 84.0016 153.448 83.828 153.586 83.6891C153.725 83.5416 153.903 83.4678 154.12 83.4678C154.337 83.4678 154.515 83.5416 154.654 83.6891C154.793 83.828 154.862 84.0016 154.862 84.2099C154.862 84.4269 154.793 84.6091 154.654 84.7567C154.515 84.8956 154.337 84.965 154.12 84.965ZM158.555 92.3857L155.717 86.2018H157.019L159.297 91.4223H158.542L160.833 86.2018H162.083L159.245 92.3857H158.555ZM163.095 92.3857V86.2018H164.267V92.3857H163.095ZM163.681 84.965C163.464 84.965 163.286 84.8956 163.147 84.7567C163.008 84.6091 162.939 84.4269 162.939 84.2099C162.939 84.0016 163.008 83.828 163.147 83.6891C163.286 83.5416 163.464 83.4678 163.681 83.4678C163.898 83.4678 164.076 83.5416 164.215 83.6891C164.354 83.828 164.423 84.0016 164.423 84.2099C164.423 84.4269 164.354 84.6091 164.215 84.7567C164.076 84.8956 163.898 84.965 163.681 84.965ZM166.944 92.3857V83.611H168.116V92.3857H166.944ZM165.421 87.2693V86.2018H169.639V87.2693H165.421ZM170.8 92.3857V86.2018H171.971V92.3857H170.8ZM171.385 84.965C171.169 84.965 170.991 84.8956 170.852 84.7567C170.713 84.6091 170.643 84.4269 170.643 84.2099C170.643 84.0016 170.713 83.828 170.852 83.6891C170.991 83.5416 171.169 83.4678 171.385 83.4678C171.602 83.4678 171.78 83.5416 171.919 83.6891C172.058 83.828 172.128 84.0016 172.128 84.2099C172.128 84.4269 172.058 84.6091 171.919 84.7567C171.78 84.8956 171.602 84.965 171.385 84.965ZM176.562 92.5159C175.946 92.5159 175.391 92.3771 174.896 92.0993C174.401 91.8129 174.011 91.4267 173.724 90.9406C173.438 90.4546 173.294 89.9035 173.294 89.2873C173.294 88.6797 173.433 88.1329 173.711 87.6469C173.998 87.1608 174.379 86.7789 174.857 86.5012C175.343 86.2148 175.885 86.0716 176.484 86.0716C177.057 86.0716 177.56 86.2018 177.994 86.4622C178.437 86.7225 178.78 87.0827 179.023 87.5427C179.274 88.0027 179.4 88.5235 179.4 89.105C179.4 89.1918 179.396 89.2873 179.387 89.3914C179.379 89.4869 179.361 89.5997 179.335 89.7299H174.115V88.7535H178.71L178.281 89.131C178.281 88.7144 178.207 88.3629 178.059 88.0765C177.912 87.7814 177.704 87.5557 177.434 87.3995C177.165 87.2346 176.84 87.1522 176.458 87.1522C176.059 87.1522 175.707 87.2389 175.404 87.4125C175.1 87.5861 174.865 87.8291 174.701 88.1416C174.536 88.454 174.453 88.8229 174.453 89.2482C174.453 89.6822 174.54 90.064 174.714 90.3939C174.887 90.715 175.134 90.9667 175.456 91.1489C175.777 91.3225 176.146 91.4093 176.562 91.4093C176.909 91.4093 177.226 91.3486 177.513 91.2271C177.808 91.1056 178.059 90.9233 178.268 90.6803L179.023 91.4484C178.728 91.7956 178.363 92.0603 177.929 92.2425C177.504 92.4248 177.048 92.5159 176.562 92.5159ZM182.644 92.5159C182.297 92.5159 181.967 92.4725 181.654 92.3857C181.351 92.2903 181.068 92.1601 180.808 91.9952C180.548 91.8216 180.322 91.6176 180.131 91.3833L180.886 90.6282C181.112 90.9059 181.372 91.1142 181.667 91.2531C181.962 91.3833 182.292 91.4484 182.657 91.4484C183.021 91.4484 183.303 91.3876 183.503 91.2661C183.703 91.1359 183.802 90.958 183.802 90.7323C183.802 90.5067 183.72 90.3331 183.555 90.2116C183.399 90.0814 183.195 89.9773 182.943 89.8991C182.691 89.8123 182.422 89.7299 182.136 89.6518C181.858 89.565 181.594 89.4565 181.342 89.3263C181.09 89.1961 180.882 89.0182 180.717 88.7925C180.561 88.5669 180.483 88.2674 180.483 87.8942C180.483 87.521 180.574 87.1999 180.756 86.9308C180.938 86.6531 181.19 86.4405 181.511 86.2929C181.841 86.1454 182.236 86.0716 182.696 86.0716C183.182 86.0716 183.611 86.1584 183.985 86.332C184.367 86.4969 184.679 86.7486 184.922 87.0871L184.167 87.8422C183.993 87.6165 183.776 87.4429 183.516 87.3214C183.264 87.1999 182.978 87.1391 182.657 87.1391C182.318 87.1391 182.058 87.1999 181.876 87.3214C181.702 87.4342 181.615 87.5948 181.615 87.8031C181.615 88.0114 181.693 88.172 181.85 88.2848C182.006 88.3976 182.21 88.4931 182.461 88.5712C182.722 88.6493 182.991 88.7318 183.269 88.8186C183.546 88.8967 183.811 89.0052 184.063 89.144C184.315 89.2829 184.518 89.4695 184.675 89.7039C184.84 89.9382 184.922 90.2463 184.922 90.6282C184.922 91.2097 184.714 91.6697 184.297 92.0082C183.889 92.3467 183.338 92.5159 182.644 92.5159ZM189.892 92.3857V83.611H191.064V92.3857H189.892ZM188.369 87.2693V86.2018H192.587V87.2693H188.369ZM196.369 92.5159C195.762 92.5159 195.215 92.3727 194.729 92.0863C194.243 91.7999 193.857 91.4137 193.57 90.9276C193.284 90.4329 193.141 89.8818 193.141 89.2742C193.141 88.6754 193.284 88.1373 193.57 87.6599C193.857 87.1739 194.243 86.7876 194.729 86.5012C195.215 86.2148 195.762 86.0716 196.369 86.0716C196.968 86.0716 197.511 86.2148 197.997 86.5012C198.491 86.7789 198.882 87.1608 199.168 87.6469C199.455 88.1329 199.598 88.6754 199.598 89.2742C199.598 89.8818 199.455 90.4329 199.168 90.9276C198.882 91.4137 198.491 91.7999 197.997 92.0863C197.511 92.3727 196.968 92.5159 196.369 92.5159ZM196.369 91.3833C196.76 91.3833 197.107 91.2922 197.411 91.1099C197.715 90.9276 197.953 90.6803 198.127 90.3678C198.3 90.0467 198.387 89.6822 198.387 89.2742C198.387 88.875 198.296 88.5191 198.114 88.2067C197.94 87.8942 197.702 87.6512 197.398 87.4776C197.103 87.2954 196.76 87.2042 196.369 87.2042C195.979 87.2042 195.632 87.2954 195.328 87.4776C195.024 87.6512 194.785 87.8942 194.612 88.2067C194.438 88.5191 194.351 88.875 194.351 89.2742C194.351 89.6822 194.438 90.0467 194.612 90.3678C194.785 90.6803 195.024 90.9276 195.328 91.1099C195.632 91.2922 195.979 91.3833 196.369 91.3833ZM19.3024 111.516C18.8338 111.516 18.4085 111.42 18.0266 111.23C17.6534 111.03 17.3539 110.756 17.1283 110.409C16.9026 110.062 16.7768 109.667 16.7507 109.225V107.363C16.7768 106.912 16.9026 106.517 17.1283 106.178C17.3626 105.831 17.6664 105.562 18.0396 105.371C18.4215 105.171 18.8424 105.072 19.3024 105.072C19.8666 105.072 20.3743 105.215 20.8256 105.501C21.2856 105.788 21.6458 106.174 21.9062 106.66C22.1666 107.146 22.2968 107.693 22.2968 108.3C22.2968 108.908 22.1666 109.455 21.9062 109.941C21.6458 110.427 21.2856 110.813 20.8256 111.099C20.3743 111.377 19.8666 111.516 19.3024 111.516ZM19.1072 110.409C19.4977 110.409 19.8406 110.318 20.1356 110.136C20.4307 109.954 20.6651 109.706 20.8387 109.394C21.0123 109.073 21.099 108.704 21.099 108.287C21.099 107.879 21.0123 107.515 20.8387 107.194C20.6651 106.873 20.4307 106.625 20.1356 106.452C19.8406 106.269 19.5021 106.178 19.1202 106.178C18.7296 106.178 18.3868 106.269 18.0917 106.452C17.7966 106.625 17.5666 106.873 17.4017 107.194C17.2368 107.515 17.1543 107.884 17.1543 108.3C17.1543 108.708 17.2324 109.073 17.3887 109.394C17.5536 109.706 17.7836 109.954 18.0787 110.136C18.3824 110.318 18.7253 110.409 19.1072 110.409ZM16.0477 111.386V102.09H17.2194V106.712L16.9981 108.209L17.2194 109.719V111.386H16.0477ZM26.4502 111.516C25.8427 111.516 25.2959 111.373 24.8098 111.086C24.3238 110.8 23.9376 110.414 23.6511 109.928C23.3647 109.433 23.2215 108.882 23.2215 108.274C23.2215 107.675 23.3647 107.137 23.6511 106.66C23.9376 106.174 24.3238 105.788 24.8098 105.501C25.2959 105.215 25.8427 105.072 26.4502 105.072C27.0491 105.072 27.5915 105.215 28.0776 105.501C28.5723 105.779 28.9628 106.161 29.2493 106.647C29.5357 107.133 29.6789 107.675 29.6789 108.274C29.6789 108.882 29.5357 109.433 29.2493 109.928C28.9628 110.414 28.5723 110.8 28.0776 111.086C27.5915 111.373 27.0491 111.516 26.4502 111.516ZM26.4502 110.383C26.8408 110.383 27.1879 110.292 27.4917 110.11C27.7955 109.928 28.0342 109.68 28.2078 109.368C28.3813 109.047 28.4681 108.682 28.4681 108.274C28.4681 107.875 28.377 107.519 28.1947 107.207C28.0211 106.894 27.7825 106.651 27.4787 106.478C27.1836 106.295 26.8408 106.204 26.4502 106.204C26.0596 106.204 25.7125 106.295 25.4087 106.478C25.1049 106.651 24.8662 106.894 24.6927 107.207C24.5191 107.519 24.4323 107.875 24.4323 108.274C24.4323 108.682 24.5191 109.047 24.6927 109.368C24.8662 109.68 25.1049 109.928 25.4087 110.11C25.7125 110.292 26.0596 110.383 26.4502 110.383ZM33.8242 111.516C33.2166 111.516 32.6698 111.373 32.1838 111.086C31.6978 110.8 31.3115 110.414 31.0251 109.928C30.7387 109.433 30.5955 108.882 30.5955 108.274C30.5955 107.675 30.7387 107.137 31.0251 106.66C31.3115 106.174 31.6978 105.788 32.1838 105.501C32.6698 105.215 33.2166 105.072 33.8242 105.072C34.423 105.072 34.9655 105.215 35.4515 105.501C35.9462 105.779 36.3368 106.161 36.6232 106.647C36.9096 107.133 37.0529 107.675 37.0529 108.274C37.0529 108.882 36.9096 109.433 36.6232 109.928C36.3368 110.414 35.9462 110.8 35.4515 111.086C34.9655 111.373 34.423 111.516 33.8242 111.516ZM33.8242 110.383C34.2147 110.383 34.5619 110.292 34.8657 110.11C35.1695 109.928 35.4081 109.68 35.5817 109.368C35.7553 109.047 35.8421 108.682 35.8421 108.274C35.8421 107.875 35.751 107.519 35.5687 107.207C35.3951 106.894 35.1564 106.651 34.8527 106.478C34.5576 106.295 34.2147 106.204 33.8242 106.204C33.4336 106.204 33.0864 106.295 32.7827 106.478C32.4789 106.651 32.2402 106.894 32.0666 107.207C31.893 107.519 31.8062 107.875 31.8062 108.274C31.8062 108.682 31.893 109.047 32.0666 109.368C32.2402 109.68 32.4789 109.928 32.7827 110.11C33.0864 110.292 33.4336 110.383 33.8242 110.383ZM40.3389 111.516C39.9917 111.516 39.6619 111.473 39.3495 111.386C39.0457 111.29 38.7636 111.16 38.5032 110.995C38.2429 110.822 38.0172 110.618 37.8263 110.383L38.5813 109.628C38.807 109.906 39.0674 110.114 39.3625 110.253C39.6576 110.383 39.9874 110.448 40.3519 110.448C40.7164 110.448 40.9985 110.388 41.1981 110.266C41.3978 110.136 41.4976 109.958 41.4976 109.732C41.4976 109.507 41.4151 109.333 41.2502 109.212C41.094 109.081 40.89 108.977 40.6383 108.899C40.3866 108.812 40.1176 108.73 39.8312 108.652C39.5534 108.565 39.2887 108.456 39.037 108.326C38.7853 108.196 38.577 108.018 38.4121 107.793C38.2559 107.567 38.1778 107.267 38.1778 106.894C38.1778 106.521 38.2689 106.2 38.4512 105.931C38.6334 105.653 38.8851 105.44 39.2063 105.293C39.5361 105.145 39.931 105.072 40.391 105.072C40.877 105.072 41.3066 105.158 41.6798 105.332C42.0617 105.497 42.3742 105.749 42.6172 106.087L41.8621 106.842C41.6885 106.616 41.4715 106.443 41.2112 106.321C40.9595 106.2 40.673 106.139 40.3519 106.139C40.0134 106.139 39.753 106.2 39.5708 106.321C39.3972 106.434 39.3104 106.595 39.3104 106.803C39.3104 107.011 39.3885 107.172 39.5447 107.285C39.701 107.398 39.9049 107.493 40.1566 107.571C40.417 107.649 40.6861 107.732 40.9638 107.819C41.2415 107.897 41.5063 108.005 41.758 108.144C42.0097 108.283 42.2136 108.47 42.3698 108.704C42.5347 108.938 42.6172 109.246 42.6172 109.628C42.6172 110.21 42.4089 110.67 41.9923 111.008C41.5844 111.347 41.0332 111.516 40.3389 111.516ZM44.8793 111.386V102.611H46.051V111.386H44.8793ZM43.3561 106.269V105.202H47.5742V106.269H43.3561ZM54.6848 111.516C54.2161 111.516 53.7908 111.42 53.4089 111.23C53.0357 111.03 52.7363 110.756 52.5106 110.409C52.285 110.062 52.1591 109.667 52.1331 109.225V107.363C52.1591 106.912 52.285 106.517 52.5106 106.178C52.745 105.831 53.0487 105.562 53.4219 105.371C53.8038 105.171 54.2248 105.072 54.6848 105.072C55.2489 105.072 55.7567 105.215 56.208 105.501C56.668 105.788 57.0282 106.174 57.2885 106.66C57.5489 107.146 57.6791 107.693 57.6791 108.3C57.6791 108.908 57.5489 109.455 57.2885 109.941C57.0282 110.427 56.668 110.813 56.208 111.099C55.7567 111.377 55.2489 111.516 54.6848 111.516ZM54.4895 110.409C54.8801 110.409 55.2229 110.318 55.518 110.136C55.8131 109.954 56.0474 109.706 56.221 109.394C56.3946 109.073 56.4814 108.704 56.4814 108.287C56.4814 107.879 56.3946 107.515 56.221 107.194C56.0474 106.873 55.8131 106.625 55.518 106.452C55.2229 106.269 54.8844 106.178 54.5025 106.178C54.1119 106.178 53.7691 106.269 53.474 106.452C53.1789 106.625 52.9489 106.873 52.784 107.194C52.6191 107.515 52.5367 107.884 52.5367 108.3C52.5367 108.708 52.6148 109.073 52.771 109.394C52.9359 109.706 53.1659 109.954 53.461 110.136C53.7648 110.318 54.1076 110.409 54.4895 110.409ZM51.4301 113.976V105.202H52.6018V106.829L52.3804 108.326L52.6018 109.836V113.976H51.4301ZM59.0074 111.386V105.202H60.1791V111.386H59.0074ZM60.1791 107.858L59.7365 107.662C59.7365 106.873 59.9188 106.243 60.2833 105.775C60.6478 105.306 61.1729 105.072 61.8586 105.072C62.171 105.072 62.4531 105.128 62.7048 105.241C62.9565 105.345 63.1908 105.523 63.4078 105.775L62.6397 106.569C62.5095 106.43 62.3663 106.33 62.2101 106.269C62.0539 106.209 61.8716 106.178 61.6633 106.178C61.2293 106.178 60.8735 106.317 60.5957 106.595C60.318 106.873 60.1791 107.293 60.1791 107.858ZM66.8545 111.516C66.2469 111.516 65.7001 111.373 65.2141 111.086C64.728 110.8 64.3418 110.414 64.0554 109.928C63.769 109.433 63.6258 108.882 63.6258 108.274C63.6258 107.675 63.769 107.137 64.0554 106.66C64.3418 106.174 64.728 105.788 65.2141 105.501C65.7001 105.215 66.2469 105.072 66.8545 105.072C67.4533 105.072 67.9958 105.215 68.4818 105.501C68.9765 105.779 69.3671 106.161 69.6535 106.647C69.9399 107.133 70.0831 107.675 70.0831 108.274C70.0831 108.882 69.9399 109.433 69.6535 109.928C69.3671 110.414 68.9765 110.8 68.4818 111.086C67.9958 111.373 67.4533 111.516 66.8545 111.516ZM66.8545 110.383C67.245 110.383 67.5922 110.292 67.896 110.11C68.1997 109.928 68.4384 109.68 68.612 109.368C68.7856 109.047 68.8724 108.682 68.8724 108.274C68.8724 107.875 68.7813 107.519 68.599 107.207C68.4254 106.894 68.1867 106.651 67.883 106.478C67.5879 106.295 67.245 106.204 66.8545 106.204C66.4639 106.204 66.1167 106.295 65.813 106.478C65.5092 106.651 65.2705 106.894 65.0969 107.207C64.9233 107.519 64.8365 107.875 64.8365 108.274C64.8365 108.682 64.9233 109.047 65.0969 109.368C65.2705 109.68 65.5092 109.928 65.813 110.11C66.1167 110.292 66.4639 110.383 66.8545 110.383ZM72.0979 111.386V104.082C72.0979 103.674 72.1847 103.314 72.3583 103.002C72.5406 102.68 72.7923 102.429 73.1134 102.246C73.4345 102.056 73.8034 101.96 74.22 101.96C74.5411 101.96 74.8232 102.016 75.0662 102.129C75.3092 102.233 75.5349 102.381 75.7432 102.572L74.9751 103.34C74.8623 103.245 74.7451 103.175 74.6236 103.132C74.5021 103.08 74.3675 103.054 74.22 103.054C73.9162 103.054 73.6819 103.149 73.517 103.34C73.3521 103.522 73.2696 103.77 73.2696 104.082V111.386H72.0979ZM70.5747 106.269V105.202H76.4462V106.269H70.5747ZM75.7692 111.386V105.202H76.954V111.386H75.7692ZM76.3551 104.551C76.1468 104.551 75.9732 104.481 75.8343 104.343C75.6955 104.195 75.626 104.013 75.626 103.796C75.626 103.587 75.6955 103.414 75.8343 103.275C75.9732 103.127 76.1468 103.054 76.3551 103.054C76.5807 103.054 76.7587 103.127 76.8889 103.275C77.0277 103.414 77.0972 103.587 77.0972 103.796C77.0972 104.013 77.0277 104.195 76.8889 104.343C76.7587 104.481 76.5807 104.551 76.3551 104.551ZM79.626 111.386V102.611H80.7977V111.386H79.626ZM78.1028 106.269V105.202H82.3209V106.269H78.1028ZM86.1767 111.386V105.202H87.3484V111.386H86.1767ZM90.3558 111.386V107.649C90.3558 107.189 90.2126 106.829 89.9261 106.569C89.6484 106.3 89.2969 106.165 88.8716 106.165C88.5852 106.165 88.3292 106.226 88.1035 106.347C87.8778 106.469 87.6956 106.638 87.5567 106.855C87.4178 107.072 87.3484 107.333 87.3484 107.636L86.8667 107.402C86.8667 106.933 86.9665 106.525 87.1661 106.178C87.3744 105.831 87.6565 105.562 88.0124 105.371C88.3682 105.171 88.7675 105.072 89.2101 105.072C89.6441 105.072 90.0346 105.167 90.3818 105.358C90.7376 105.549 91.0154 105.818 91.215 106.165C91.4233 106.512 91.5275 106.925 91.5275 107.402V111.386H90.3558ZM94.5348 111.386V107.649C94.5348 107.189 94.3916 106.829 94.1052 106.569C93.8275 106.3 93.4803 106.165 93.0637 106.165C92.7773 106.165 92.5169 106.226 92.2826 106.347C92.0569 106.469 91.8746 106.638 91.7358 106.855C91.5969 107.072 91.5275 107.333 91.5275 107.636L90.8635 107.402C90.8895 106.925 91.0154 106.517 91.241 106.178C91.4754 105.831 91.7748 105.562 92.1393 105.371C92.5039 105.171 92.9031 105.072 93.3371 105.072C93.7884 105.072 94.192 105.167 94.5478 105.358C94.9037 105.549 95.1858 105.818 95.3941 106.165C95.611 106.512 95.7195 106.929 95.7195 107.415V111.386H94.5348ZM99.9437 111.516C99.3796 111.516 98.8675 111.377 98.4075 111.099C97.9475 110.813 97.583 110.427 97.3139 109.941C97.0536 109.455 96.9234 108.908 96.9234 108.3C96.9234 107.693 97.0536 107.146 97.3139 106.66C97.583 106.174 97.9432 105.788 98.3945 105.501C98.8545 105.215 99.3709 105.072 99.9437 105.072C100.412 105.072 100.829 105.171 101.194 105.371C101.567 105.562 101.866 105.831 102.092 106.178C102.318 106.517 102.443 106.912 102.469 107.363V109.225C102.443 109.667 102.318 110.062 102.092 110.409C101.875 110.756 101.58 111.03 101.207 111.23C100.842 111.42 100.421 111.516 99.9437 111.516ZM100.139 110.409C100.721 110.409 101.189 110.214 101.545 109.823C101.901 109.424 102.079 108.916 102.079 108.3C102.079 107.875 101.996 107.506 101.831 107.194C101.675 106.873 101.45 106.625 101.155 106.452C100.859 106.269 100.517 106.178 100.126 106.178C99.7354 106.178 99.3883 106.269 99.0845 106.452C98.7894 106.634 98.5551 106.886 98.3815 107.207C98.2166 107.519 98.1341 107.879 98.1341 108.287C98.1341 108.704 98.2166 109.073 98.3815 109.394C98.5551 109.706 98.7937 109.954 99.0975 110.136C99.4013 110.318 99.7485 110.409 100.139 110.409ZM102.001 111.386V109.719L102.222 108.209L102.001 106.712V105.202H103.185V111.386H102.001ZM104.891 111.386V105.202H106.063V111.386H104.891ZM106.063 107.858L105.62 107.662C105.62 106.873 105.803 106.243 106.167 105.775C106.532 105.306 107.057 105.072 107.742 105.072C108.055 105.072 108.337 105.128 108.589 105.241C108.84 105.345 109.075 105.523 109.292 105.775L108.524 106.569C108.393 106.43 108.25 106.33 108.094 106.269C107.938 106.209 107.755 106.178 107.547 106.178C107.113 106.178 106.757 106.317 106.48 106.595C106.202 106.873 106.063 107.293 106.063 107.858ZM112.478 114.107C111.844 114.107 111.28 113.99 110.786 113.755C110.299 113.521 109.909 113.191 109.614 112.766L110.369 111.998C110.621 112.319 110.92 112.562 111.267 112.727C111.614 112.9 112.027 112.987 112.504 112.987C113.138 112.987 113.637 112.818 114.001 112.479C114.374 112.15 114.561 111.703 114.561 111.138V109.602L114.769 108.209L114.561 106.829V105.202H115.733V111.138C115.733 111.729 115.594 112.245 115.316 112.688C115.047 113.13 114.665 113.477 114.17 113.729C113.684 113.981 113.12 114.107 112.478 114.107ZM112.478 111.282C111.914 111.282 111.406 111.147 110.955 110.878C110.512 110.609 110.161 110.24 109.9 109.771C109.64 109.294 109.51 108.76 109.51 108.17C109.51 107.58 109.64 107.055 109.9 106.595C110.161 106.126 110.512 105.757 110.955 105.488C111.406 105.21 111.914 105.072 112.478 105.072C112.964 105.072 113.394 105.167 113.767 105.358C114.14 105.549 114.435 105.818 114.652 106.165C114.878 106.504 114.999 106.903 115.017 107.363V109.003C114.991 109.455 114.865 109.854 114.639 110.201C114.422 110.54 114.127 110.804 113.754 110.995C113.381 111.186 112.955 111.282 112.478 111.282ZM112.712 110.175C113.094 110.175 113.428 110.093 113.715 109.928C114.01 109.763 114.236 109.533 114.392 109.238C114.548 108.934 114.626 108.582 114.626 108.183C114.626 107.784 114.544 107.437 114.379 107.142C114.222 106.838 114.001 106.603 113.715 106.439C113.428 106.265 113.09 106.178 112.699 106.178C112.309 106.178 111.966 106.265 111.671 106.439C111.376 106.603 111.141 106.838 110.968 107.142C110.803 107.437 110.72 107.78 110.72 108.17C110.72 108.561 110.803 108.908 110.968 109.212C111.141 109.515 111.376 109.754 111.671 109.928C111.975 110.093 112.322 110.175 112.712 110.175ZM117.466 111.386V105.202H118.637V111.386H117.466ZM118.051 103.965C117.834 103.965 117.656 103.896 117.518 103.757C117.379 103.609 117.309 103.427 117.309 103.21C117.309 103.002 117.379 102.828 117.518 102.689C117.656 102.542 117.834 102.468 118.051 102.468C118.268 102.468 118.446 102.542 118.585 102.689C118.724 102.828 118.793 103.002 118.793 103.21C118.793 103.427 118.724 103.609 118.585 103.757C118.446 103.896 118.268 103.965 118.051 103.965ZM124.738 111.386V107.78C124.738 107.311 124.591 106.925 124.296 106.621C124.001 106.317 123.619 106.165 123.15 106.165C122.838 106.165 122.56 106.235 122.317 106.373C122.074 106.512 121.883 106.703 121.744 106.946C121.605 107.189 121.536 107.467 121.536 107.78L121.054 107.506C121.054 107.037 121.158 106.621 121.366 106.256C121.575 105.892 121.865 105.605 122.239 105.397C122.612 105.18 123.033 105.072 123.501 105.072C123.97 105.072 124.382 105.189 124.738 105.423C125.103 105.657 125.389 105.966 125.598 106.347C125.806 106.721 125.91 107.12 125.91 107.545V111.386H124.738ZM120.364 111.386V105.202H121.536V111.386H120.364ZM129.462 111.516C129.115 111.516 128.785 111.473 128.473 111.386C128.169 111.29 127.887 111.16 127.627 110.995C127.366 110.822 127.14 110.618 126.95 110.383L127.705 109.628C127.93 109.906 128.191 110.114 128.486 110.253C128.781 110.383 129.111 110.448 129.475 110.448C129.84 110.448 130.122 110.388 130.321 110.266C130.521 110.136 130.621 109.958 130.621 109.732C130.621 109.507 130.538 109.333 130.374 109.212C130.217 109.081 130.013 108.977 129.762 108.899C129.51 108.812 129.241 108.73 128.954 108.652C128.677 108.565 128.412 108.456 128.16 108.326C127.909 108.196 127.7 108.018 127.535 107.793C127.379 107.567 127.301 107.267 127.301 106.894C127.301 106.521 127.392 106.2 127.574 105.931C127.757 105.653 128.008 105.44 128.33 105.293C128.659 105.145 129.054 105.072 129.514 105.072C130 105.072 130.43 105.158 130.803 105.332C131.185 105.497 131.497 105.749 131.74 106.087L130.985 106.842C130.812 106.616 130.595 106.443 130.334 106.321C130.083 106.2 129.796 106.139 129.475 106.139C129.137 106.139 128.876 106.2 128.694 106.321C128.52 106.434 128.434 106.595 128.434 106.803C128.434 107.011 128.512 107.172 128.668 107.285C128.824 107.398 129.028 107.493 129.28 107.571C129.54 107.649 129.809 107.732 130.087 107.819C130.365 107.897 130.63 108.005 130.881 108.144C131.133 108.283 131.337 108.47 131.493 108.704C131.658 108.938 131.74 109.246 131.74 109.628C131.74 110.21 131.532 110.67 131.116 111.008C130.708 111.347 130.157 111.516 129.462 111.516ZM134.081 111.516C133.838 111.516 133.634 111.433 133.469 111.269C133.313 111.095 133.235 110.891 133.235 110.657C133.235 110.414 133.313 110.214 133.469 110.058C133.634 109.893 133.838 109.81 134.081 109.81C134.324 109.81 134.523 109.893 134.68 110.058C134.845 110.214 134.927 110.414 134.927 110.657C134.927 110.891 134.845 111.095 134.68 111.269C134.523 111.433 134.324 111.516 134.081 111.516Z" fill="#7D7D7D"/>
</svg>
