<svg width="230" height="159" viewBox="0 0 230 159" fill="none" xmlns="http://www.w3.org/2000/svg">
<mask id="path-1-inside-1_1188_71" fill="white">
<path fill-rule="evenodd" clip-rule="evenodd" d="M9.76415 158.419C4.37156 158.419 0 154.048 0 148.655V23.8912C0 18.4986 4.37156 14.127 9.76415 14.127H22.3366L30.5438 0.000259399L38.6489 14.127H220.236C225.628 14.127 230 18.4986 230 23.8912V148.655C230 154.048 225.628 158.419 220.236 158.419H9.76415Z"/>
</mask>
<path fill-rule="evenodd" clip-rule="evenodd" d="M9.76415 158.419C4.37156 158.419 0 154.048 0 148.655V23.8912C0 18.4986 4.37156 14.127 9.76415 14.127H22.3366L30.5438 0.000259399L38.6489 14.127H220.236C225.628 14.127 230 18.4986 230 23.8912V148.655C230 154.048 225.628 158.419 220.236 158.419H9.76415Z" fill="#F3F8FF"/>
<path d="M22.3366 14.127L23.2746 14.672L22.961 15.212H22.3366V14.127ZM30.5438 0.000259399L29.6057 -0.544739L30.5497 -2.16954L31.4848 -0.539643L30.5438 0.000259399ZM38.6489 14.127V15.212H38.0206L37.7079 14.6669L38.6489 14.127ZM1.08491 148.655C1.08491 153.449 4.97073 157.335 9.76415 157.335V159.504C3.77238 159.504 -1.08491 154.647 -1.08491 148.655H1.08491ZM1.08491 23.8912V148.655H-1.08491V23.8912H1.08491ZM9.76415 15.212C4.97073 15.212 1.08491 19.0978 1.08491 23.8912H-1.08491C-1.08491 17.8994 3.77238 13.0421 9.76415 13.0421V15.212ZM22.3366 15.212H9.76415V13.0421H22.3366V15.212ZM31.4819 0.545258L23.2746 14.672L21.3985 13.582L29.6057 -0.544739L31.4819 0.545258ZM37.7079 14.6669L29.6028 0.540162L31.4848 -0.539643L39.5899 13.5871L37.7079 14.6669ZM220.236 15.212H38.6489V13.0421H220.236V15.212ZM228.915 23.8912C228.915 19.0978 225.029 15.212 220.236 15.212V13.0421C226.228 13.0421 231.085 17.8994 231.085 23.8912H228.915ZM228.915 148.655V23.8912H231.085V148.655H228.915ZM220.236 157.335C225.029 157.335 228.915 153.449 228.915 148.655H231.085C231.085 154.647 226.228 159.504 220.236 159.504V157.335ZM9.76415 157.335H220.236V159.504H9.76415V157.335Z" fill="black" mask="url(#path-1-inside-1_1188_71)"/>
<path d="M18.0961 50.632V38.4811H19.8319V49.1218H26.4108V50.632H18.0961ZM33.8706 50.632V48.6879L33.7838 48.3233V45.0079C33.7838 44.302 33.5755 43.7581 33.1589 43.3762C32.7539 42.9827 32.1405 42.786 31.3189 42.786C30.775 42.786 30.2427 42.8786 29.7219 43.0637C29.2012 43.2373 28.7614 43.4745 28.4027 43.7754L27.7083 42.5256C28.1828 42.1437 28.7499 41.8544 29.4095 41.6577C30.0807 41.4494 30.7808 41.3452 31.5099 41.3452C32.7712 41.3452 33.7433 41.6519 34.4261 42.2652C35.1088 42.8786 35.4502 43.8159 35.4502 45.0773V50.632H33.8706ZM30.8502 50.7362C30.1675 50.7362 29.5657 50.6204 29.0449 50.389C28.5358 50.1576 28.1423 49.8393 27.8646 49.4343C27.5868 49.0177 27.448 48.549 27.448 48.0282C27.448 47.5306 27.5637 47.0793 27.7951 46.6743C28.0382 46.2693 28.4258 45.9452 28.9582 45.7022C29.5021 45.4592 30.2311 45.3377 31.1453 45.3377H34.0616V46.5354H31.2148C30.3816 46.5354 29.8203 46.6743 29.531 46.952C29.2417 47.2298 29.097 47.5654 29.097 47.9588C29.097 48.4101 29.2764 48.7747 29.6351 49.0524C29.9939 49.3186 30.4915 49.4516 31.128 49.4516C31.7529 49.4516 32.2968 49.3128 32.7597 49.035C33.2341 48.7573 33.5755 48.3523 33.7838 47.8199L34.1136 48.9656C33.8938 49.5095 33.5061 49.9435 32.9506 50.2675C32.3951 50.5799 31.695 50.7362 30.8502 50.7362ZM41.1726 50.7362C40.4088 50.7362 39.6797 50.632 38.9854 50.4237C38.3026 50.2154 37.7645 49.9608 37.3711 49.6599L38.0654 48.3407C38.4589 48.6069 38.9449 48.8325 39.5235 49.0177C40.1021 49.2028 40.6923 49.2954 41.2941 49.2954C42.0694 49.2954 42.6249 49.1855 42.9605 48.9656C43.3077 48.7457 43.4812 48.4391 43.4812 48.0456C43.4812 47.7563 43.3771 47.5306 43.1688 47.3686C42.9605 47.2066 42.6828 47.0851 42.3356 47.0041C42 46.9231 41.6239 46.8537 41.2073 46.7958C40.7907 46.7264 40.3741 46.6454 39.9575 46.5528C39.5409 46.4486 39.159 46.3098 38.8118 46.1362C38.4646 45.951 38.1869 45.7022 37.9786 45.3898C37.7703 45.0657 37.6661 44.6376 37.6661 44.1052C37.6661 43.5498 37.8224 43.0637 38.1348 42.6471C38.4473 42.2305 38.887 41.9123 39.4541 41.6924C40.0327 41.4609 40.7155 41.3452 41.5024 41.3452C42.1041 41.3452 42.7117 41.4204 43.325 41.5709C43.9499 41.7098 44.4591 41.9123 44.8526 42.1784L44.1409 43.4977C43.7243 43.2199 43.2903 43.029 42.839 42.9248C42.3877 42.8207 41.9363 42.7686 41.485 42.7686C40.756 42.7686 40.2121 42.8901 39.8533 43.1332C39.4946 43.3646 39.3152 43.6655 39.3152 44.0358C39.3152 44.3482 39.4194 44.5913 39.6277 44.7648C39.8475 44.9269 40.1253 45.0542 40.4609 45.1467C40.808 45.2393 41.1899 45.3203 41.6065 45.3898C42.0231 45.4476 42.4397 45.5286 42.8563 45.6328C43.2729 45.7254 43.649 45.8584 43.9846 46.032C44.3318 46.2056 44.6095 46.4486 44.8178 46.7611C45.0377 47.0735 45.1477 47.4901 45.1477 48.0109C45.1477 48.5664 44.9856 49.0466 44.6616 49.4516C44.3376 49.8567 43.8805 50.1749 43.2903 50.4064C42.7001 50.6262 41.9942 50.7362 41.1726 50.7362ZM50.3895 50.7362C49.4637 50.7362 48.7462 50.4874 48.2371 49.9898C47.7279 49.4921 47.4733 48.7804 47.4733 47.8547V39.4184H49.1397V47.7852C49.1397 48.2828 49.2612 48.6647 49.5042 48.9309C49.7588 49.1971 50.1176 49.3301 50.5805 49.3301C51.1012 49.3301 51.5352 49.1855 51.8823 48.8962L52.4031 50.0939C52.1485 50.3138 51.8418 50.4758 51.4831 50.5799C51.1359 50.6841 50.7714 50.7362 50.3895 50.7362ZM45.911 42.8033V41.432H51.7782V42.8033H45.911ZM53.6581 46.5875V45.1467H58.3275V46.5875H53.6581ZM72.402 41.3452C73.1426 41.3452 73.7964 41.4899 74.3635 41.7792C74.9305 42.0685 75.3703 42.5082 75.6827 43.0984C76.0068 43.6886 76.1688 44.435 76.1688 45.3377V50.632H74.5024V45.5286C74.5024 44.6376 74.2941 43.9664 73.8775 43.515C73.4608 43.0637 72.8764 42.8381 72.1242 42.8381C71.5688 42.8381 71.0827 42.9538 70.6661 43.1852C70.2495 43.4167 69.9255 43.7581 69.6941 44.2094C69.4742 44.6607 69.3642 45.222 69.3642 45.8932V50.632H67.6978V45.5286C67.6978 44.6376 67.4895 43.9664 67.0729 43.515C66.6679 43.0637 66.0835 42.8381 65.3197 42.8381C64.7758 42.8381 64.2956 42.9538 63.879 43.1852C63.4624 43.4167 63.1383 43.7581 62.9069 44.2094C62.6754 44.6607 62.5597 45.222 62.5597 45.8932V50.632H60.8933V41.432H62.4903V43.8796L62.2299 43.2547C62.5192 42.6529 62.9647 42.1842 63.5665 41.8486C64.1683 41.513 64.8684 41.3452 65.6669 41.3452C66.5464 41.3452 67.3044 41.5651 67.9408 42.0048C68.5773 42.433 68.9939 43.0869 69.1907 43.9664L68.5137 43.6886C68.7914 42.9827 69.2775 42.4157 69.9718 41.9875C70.6661 41.5593 71.4762 41.3452 72.402 41.3452ZM79.235 50.632V41.432H80.9014V50.632H79.235ZM80.0682 39.6615C79.7442 39.6615 79.4722 39.5573 79.2523 39.349C79.044 39.1407 78.9399 38.8861 78.9399 38.5852C78.9399 38.2728 79.044 38.0124 79.2523 37.8041C79.4722 37.5958 79.7442 37.4916 80.0682 37.4916C80.3922 37.4916 80.6584 37.5958 80.8667 37.8041C81.0866 38.0008 81.1965 38.2496 81.1965 38.5505C81.1965 38.863 81.0923 39.1291 80.884 39.349C80.6757 39.5573 80.4038 39.6615 80.0682 39.6615ZM84.0832 50.632V37.752H85.7496V50.632H84.0832ZM93.0279 50.7362C92.0443 50.7362 91.1764 50.5337 90.4242 50.1286C89.6835 49.7236 89.1049 49.1681 88.6883 48.4622C88.2833 47.7563 88.0808 46.9462 88.0808 46.032C88.0808 45.1178 88.2775 44.3077 88.671 43.6018C89.076 42.8959 89.6257 42.3462 90.32 41.9528C91.0259 41.5477 91.8186 41.3452 92.6981 41.3452C93.5892 41.3452 94.3761 41.542 95.0589 41.9354C95.7416 42.3289 96.274 42.8843 96.6559 43.6018C97.0493 44.3077 97.246 45.1352 97.246 46.0841C97.246 46.1535 97.2403 46.2345 97.2287 46.3271C97.2287 46.4197 97.2229 46.5065 97.2113 46.5875H89.3827V45.3898H96.3434L95.6664 45.8064C95.678 45.2162 95.5565 44.6896 95.3019 44.2267C95.0473 43.7638 94.6943 43.4051 94.243 43.1505C93.8033 42.8843 93.2883 42.7513 92.6981 42.7513C92.1195 42.7513 91.6045 42.8843 91.1532 43.1505C90.7019 43.4051 90.3489 43.7696 90.0943 44.2441C89.8398 44.707 89.7125 45.2393 89.7125 45.8411V46.1188C89.7125 46.7321 89.8513 47.2818 90.1291 47.7679C90.4184 48.2423 90.8176 48.6126 91.3268 48.8788C91.836 49.145 92.4204 49.2781 93.08 49.2781C93.6239 49.2781 94.1157 49.1855 94.5555 49.0003C95.0068 48.8152 95.4003 48.5374 95.7359 48.1671L96.6559 49.2433C96.2393 49.7294 95.7185 50.0997 95.0936 50.3543C94.4803 50.6089 93.7917 50.7362 93.0279 50.7362ZM107.381 50.7362C106.455 50.7362 105.738 50.4874 105.229 49.9898C104.719 49.4921 104.465 48.7804 104.465 47.8547V39.4184H106.131V47.7852C106.131 48.2828 106.253 48.6647 106.496 48.9309C106.75 49.1971 107.109 49.3301 107.572 49.3301C108.093 49.3301 108.527 49.1855 108.874 48.8962L109.395 50.0939C109.14 50.3138 108.833 50.4758 108.475 50.5799C108.127 50.6841 107.763 50.7362 107.381 50.7362ZM102.902 42.8033V41.432H108.77V42.8033H102.902ZM111.409 50.632V41.432H113.006V43.9316L112.85 43.3067C113.105 42.6703 113.533 42.1842 114.135 41.8486C114.736 41.513 115.477 41.3452 116.356 41.3452V42.9596C116.287 42.948 116.218 42.9422 116.148 42.9422C116.09 42.9422 116.032 42.9422 115.975 42.9422C115.083 42.9422 114.378 43.2084 113.857 43.7407C113.336 44.273 113.076 45.0426 113.076 46.0494V50.632H111.409ZM123.443 50.632V48.6879L123.356 48.3233V45.0079C123.356 44.302 123.148 43.7581 122.731 43.3762C122.326 42.9827 121.713 42.786 120.891 42.786C120.348 42.786 119.815 42.8786 119.294 43.0637C118.774 43.2373 118.334 43.4745 117.975 43.7754L117.281 42.5256C117.755 42.1437 118.322 41.8544 118.982 41.6577C119.653 41.4494 120.353 41.3452 121.082 41.3452C122.344 41.3452 123.316 41.6519 123.999 42.2652C124.681 42.8786 125.023 43.8159 125.023 45.0773V50.632H123.443ZM120.423 50.7362C119.74 50.7362 119.138 50.6204 118.617 50.389C118.108 50.1576 117.715 49.8393 117.437 49.4343C117.159 49.0177 117.02 48.549 117.02 48.0282C117.02 47.5306 117.136 47.0793 117.368 46.6743C117.611 46.2693 117.998 45.9452 118.531 45.7022C119.075 45.4592 119.804 45.3377 120.718 45.3377H123.634V46.5354H120.787C119.954 46.5354 119.393 46.6743 119.104 46.952C118.814 47.2298 118.67 47.5654 118.67 47.9588C118.67 48.4101 118.849 48.7747 119.208 49.0524C119.566 49.3186 120.064 49.4516 120.7 49.4516C121.325 49.4516 121.869 49.3128 122.332 49.035C122.807 48.7573 123.148 48.3523 123.356 47.8199L123.686 48.9656C123.466 49.5095 123.079 49.9435 122.523 50.2675C121.968 50.5799 121.268 50.7362 120.423 50.7362ZM133.019 41.3452C133.771 41.3452 134.431 41.4899 134.998 41.7792C135.577 42.0685 136.028 42.5082 136.352 43.0984C136.676 43.6886 136.838 44.435 136.838 45.3377V50.632H135.171V45.5286C135.171 44.6376 134.952 43.9664 134.512 43.515C134.084 43.0637 133.476 42.8381 132.689 42.8381C132.099 42.8381 131.584 42.9538 131.144 43.1852C130.705 43.4167 130.363 43.7581 130.12 44.2094C129.889 44.6607 129.773 45.222 129.773 45.8932V50.632H128.107V41.432H129.704V43.9143L129.443 43.2547C129.744 42.6529 130.207 42.1842 130.832 41.8486C131.457 41.513 132.186 41.3452 133.019 41.3452ZM142.56 50.7362C141.797 50.7362 141.068 50.632 140.373 50.4237C139.69 50.2154 139.152 49.9608 138.759 49.6599L139.453 48.3407C139.847 48.6069 140.333 48.8325 140.911 49.0177C141.49 49.2028 142.08 49.2954 142.682 49.2954C143.457 49.2954 144.013 49.1855 144.348 48.9656C144.695 48.7457 144.869 48.4391 144.869 48.0456C144.869 47.7563 144.765 47.5306 144.557 47.3686C144.348 47.2066 144.071 47.0851 143.723 47.0041C143.388 46.9231 143.012 46.8537 142.595 46.7958C142.178 46.7264 141.762 46.6454 141.345 46.5528C140.929 46.4486 140.547 46.3098 140.2 46.1362C139.852 45.951 139.575 45.7022 139.366 45.3898C139.158 45.0657 139.054 44.6376 139.054 44.1052C139.054 43.5498 139.21 43.0637 139.523 42.6471C139.835 42.2305 140.275 41.9123 140.842 41.6924C141.421 41.4609 142.103 41.3452 142.89 41.3452C143.492 41.3452 144.1 41.4204 144.713 41.5709C145.338 41.7098 145.847 41.9123 146.24 42.1784L145.529 43.4977C145.112 43.2199 144.678 43.029 144.227 42.9248C143.775 42.8207 143.324 42.7686 142.873 42.7686C142.144 42.7686 141.6 42.8901 141.241 43.1332C140.882 43.3646 140.703 43.6655 140.703 44.0358C140.703 44.3482 140.807 44.5913 141.015 44.7648C141.235 44.9269 141.513 45.0542 141.849 45.1467C142.196 45.2393 142.578 45.3203 142.994 45.3898C143.411 45.4476 143.828 45.5286 144.244 45.6328C144.661 45.7254 145.037 45.8584 145.372 46.032C145.72 46.2056 145.997 46.4486 146.206 46.7611C146.426 47.0735 146.535 47.4901 146.535 48.0109C146.535 48.5664 146.373 49.0466 146.049 49.4516C145.725 49.8567 145.268 50.1749 144.678 50.4064C144.088 50.6262 143.382 50.7362 142.56 50.7362ZM153.496 50.7362C152.732 50.7362 152.032 50.5626 151.395 50.2154C150.771 49.8567 150.267 49.3301 149.885 48.6358C149.515 47.9415 149.33 47.0735 149.33 46.032C149.33 44.9905 149.509 44.1226 149.868 43.4282C150.238 42.7339 150.736 42.2132 151.361 41.866C151.997 41.5188 152.709 41.3452 153.496 41.3452C154.398 41.3452 155.197 41.542 155.891 41.9354C156.586 42.3289 157.135 42.8786 157.54 43.5845C157.945 44.2788 158.148 45.0947 158.148 46.032C158.148 46.9694 157.945 47.791 157.54 48.4969C157.135 49.2028 156.586 49.7525 155.891 50.146C155.197 50.5394 154.398 50.7362 153.496 50.7362ZM148.618 53.9996V41.432H150.215V43.9143L150.111 46.0494L150.285 48.1845V53.9996H148.618ZM153.357 49.2781C153.947 49.2781 154.474 49.145 154.937 48.8788C155.411 48.6126 155.781 48.2365 156.048 47.7505C156.325 47.2529 156.464 46.6801 156.464 46.032C156.464 45.3724 156.325 44.8054 156.048 44.3309C155.781 43.8448 155.411 43.4687 154.937 43.2026C154.474 42.9364 153.947 42.8033 153.357 42.8033C152.778 42.8033 152.252 42.9364 151.777 43.2026C151.314 43.4687 150.944 43.8448 150.666 44.3309C150.4 44.8054 150.267 45.3724 150.267 46.032C150.267 46.6801 150.4 47.2529 150.666 47.7505C150.944 48.2365 151.314 48.6126 151.777 48.8788C152.252 49.145 152.778 49.2781 153.357 49.2781ZM164.391 50.7362C163.465 50.7362 162.643 50.5337 161.926 50.1286C161.208 49.7236 160.641 49.1681 160.225 48.4622C159.808 47.7447 159.6 46.9347 159.6 46.032C159.6 45.1178 159.808 44.3077 160.225 43.6018C160.641 42.8959 161.208 42.3462 161.926 41.9528C162.643 41.5477 163.465 41.3452 164.391 41.3452C165.305 41.3452 166.121 41.5477 166.838 41.9528C167.567 42.3462 168.134 42.8959 168.539 43.6018C168.956 44.2962 169.164 45.1062 169.164 46.032C169.164 46.9462 168.956 47.7563 168.539 48.4622C168.134 49.1681 167.567 49.7236 166.838 50.1286C166.121 50.5337 165.305 50.7362 164.391 50.7362ZM164.391 49.2781C164.981 49.2781 165.507 49.145 165.97 48.8788C166.445 48.6126 166.815 48.2365 167.081 47.7505C167.347 47.2529 167.481 46.6801 167.481 46.032C167.481 45.3724 167.347 44.8054 167.081 44.3309C166.815 43.8448 166.445 43.4687 165.97 43.2026C165.507 42.9364 164.981 42.8033 164.391 42.8033C163.801 42.8033 163.274 42.9364 162.811 43.2026C162.348 43.4687 161.978 43.8448 161.7 44.3309C161.422 44.8054 161.284 45.3724 161.284 46.032C161.284 46.6801 161.422 47.2529 161.7 47.7505C161.978 48.2365 162.348 48.6126 162.811 48.8788C163.274 49.145 163.801 49.2781 164.391 49.2781ZM171.469 50.632V41.432H173.066V43.9316L172.91 43.3067C173.164 42.6703 173.592 42.1842 174.194 41.8486C174.796 41.513 175.537 41.3452 176.416 41.3452V42.9596C176.347 42.948 176.277 42.9422 176.208 42.9422C176.15 42.9422 176.092 42.9422 176.034 42.9422C175.143 42.9422 174.437 43.2084 173.916 43.7407C173.396 44.273 173.135 45.0426 173.135 46.0494V50.632H171.469ZM182.002 50.7362C181.076 50.7362 180.359 50.4874 179.85 49.9898C179.34 49.4921 179.086 48.7804 179.086 47.8547V39.4184H180.752V47.7852C180.752 48.2828 180.874 48.6647 181.117 48.9309C181.371 49.1971 181.73 49.3301 182.193 49.3301C182.714 49.3301 183.148 49.1855 183.495 48.8962L184.016 50.0939C183.761 50.3138 183.454 50.4758 183.096 50.5799C182.749 50.6841 182.384 50.7362 182.002 50.7362ZM177.524 42.8033V41.432H183.391V42.8033H177.524Z" fill="#252B42"/>
<path d="M16.677 79.0943L20.3744 70.0592H21.2597L24.944 79.0943H23.6161L20.5827 71.4522H21.0383L17.9789 79.0943H16.677ZM18.4346 77.0503V75.9828H23.1865V77.0503H18.4346ZM28.6285 79.2245C28.021 79.2245 27.4699 79.0813 26.9751 78.7949C26.4891 78.5085 26.1029 78.1222 25.8165 77.6362C25.5387 77.1415 25.3999 76.5947 25.3999 75.9958C25.3999 75.3883 25.5387 74.8415 25.8165 74.3554C26.1029 73.8694 26.4891 73.4875 26.9751 73.2098C27.4699 72.9234 28.021 72.7801 28.6285 72.7801C29.1059 72.7801 29.5485 72.8713 29.9565 73.0535C30.3644 73.2271 30.7159 73.4832 31.011 73.8217L30.2299 74.6028C30.0389 74.3771 29.8046 74.2079 29.5268 74.0951C29.2578 73.9735 28.9584 73.9128 28.6285 73.9128C28.238 73.9128 27.8908 74.0039 27.587 74.1862C27.2833 74.3598 27.0446 74.6028 26.871 74.9152C26.6974 75.2277 26.6106 75.5879 26.6106 75.9958C26.6106 76.4037 26.6974 76.7639 26.871 77.0764C27.0446 77.3888 27.2833 77.6362 27.587 77.8185C27.8908 78.0007 28.238 78.0918 28.6285 78.0918C28.9584 78.0918 29.2578 78.0354 29.5268 77.9226C29.8046 77.8011 30.0433 77.6275 30.2429 77.4018L31.011 78.183C30.7246 78.5128 30.3731 78.7688 29.9565 78.9511C29.5485 79.1334 29.1059 79.2245 28.6285 79.2245ZM34.871 79.2245C34.2634 79.2245 33.7123 79.0813 33.2176 78.7949C32.7316 78.5085 32.3453 78.1222 32.0589 77.6362C31.7812 77.1415 31.6423 76.5947 31.6423 75.9958C31.6423 75.3883 31.7812 74.8415 32.0589 74.3554C32.3453 73.8694 32.7316 73.4875 33.2176 73.2098C33.7123 72.9234 34.2634 72.7801 34.871 72.7801C35.3483 72.7801 35.791 72.8713 36.1989 73.0535C36.6068 73.2271 36.9583 73.4832 37.2534 73.8217L36.4723 74.6028C36.2814 74.3771 36.047 74.2079 35.7693 74.0951C35.5002 73.9735 35.2008 73.9128 34.871 73.9128C34.4804 73.9128 34.1333 74.0039 33.8295 74.1862C33.5257 74.3598 33.287 74.6028 33.1134 74.9152C32.9399 75.2277 32.8531 75.5879 32.8531 75.9958C32.8531 76.4037 32.9399 76.7639 33.1134 77.0764C33.287 77.3888 33.5257 77.6362 33.8295 77.8185C34.1333 78.0007 34.4804 78.0918 34.871 78.0918C35.2008 78.0918 35.5002 78.0354 35.7693 77.9226C36.047 77.8011 36.2857 77.6275 36.4853 77.4018L37.2534 78.183C36.967 78.5128 36.6155 78.7688 36.1989 78.9511C35.791 79.1334 35.3483 79.2245 34.871 79.2245ZM41.1525 79.2245C40.5363 79.2245 39.9808 79.0856 39.4861 78.8079C38.9914 78.5215 38.6008 78.1352 38.3144 77.6492C38.028 77.1632 37.8848 76.612 37.8848 75.9958C37.8848 75.3883 38.0236 74.8415 38.3014 74.3554C38.5878 73.8694 38.9697 73.4875 39.447 73.2098C39.9331 72.9234 40.4755 72.7801 41.0744 72.7801C41.6472 72.7801 42.1506 72.9103 42.5846 73.1707C43.0272 73.4311 43.37 73.7913 43.6131 74.2513C43.8648 74.7113 43.9906 75.232 43.9906 75.8135C43.9906 75.9003 43.9863 75.9958 43.9776 76.1C43.9689 76.1954 43.9515 76.3083 43.9255 76.4385H38.7049V75.462H43.3006L42.871 75.8396C42.871 75.423 42.7972 75.0715 42.6497 74.7851C42.5021 74.49 42.2938 74.2643 42.0248 74.1081C41.7557 73.9432 41.4302 73.8607 41.0483 73.8607C40.6491 73.8607 40.2976 73.9475 39.9938 74.1211C39.69 74.2947 39.4557 74.5377 39.2908 74.8501C39.1259 75.1626 39.0434 75.5315 39.0434 75.9568C39.0434 76.3907 39.1302 76.7726 39.3038 77.1024C39.4774 77.4235 39.7248 77.6752 40.0459 77.8575C40.367 78.0311 40.7359 78.1179 41.1525 78.1179C41.4997 78.1179 41.8165 78.0571 42.1029 77.9356C42.398 77.8141 42.6497 77.6318 42.858 77.3888L43.6131 78.1569C43.318 78.5041 42.9534 78.7688 42.5195 78.9511C42.0942 79.1334 41.6385 79.2245 41.1525 79.2245ZM47.234 79.2245C46.8869 79.2245 46.5571 79.1811 46.2446 79.0943C45.9408 78.9988 45.6588 78.8686 45.3984 78.7037C45.138 78.5301 44.9123 78.3262 44.7214 78.0918L45.4765 77.3368C45.7021 77.6145 45.9625 77.8228 46.2576 77.9617C46.5527 78.0918 46.8825 78.1569 47.2471 78.1569C47.6116 78.1569 47.8937 78.0962 48.0933 77.9747C48.2929 77.8445 48.3927 77.6666 48.3927 77.4409C48.3927 77.2152 48.3103 77.0417 48.1454 76.9201C47.9891 76.79 47.7852 76.6858 47.5335 76.6077C47.2818 76.5209 47.0127 76.4385 46.7263 76.3603C46.4486 76.2735 46.1838 76.1651 45.9321 76.0349C45.6804 75.9047 45.4721 75.7268 45.3072 75.5011C45.151 75.2754 45.0729 74.976 45.0729 74.6028C45.0729 74.2296 45.164 73.9085 45.3463 73.6394C45.5286 73.3617 45.7803 73.149 46.1014 73.0015C46.4312 72.8539 46.8261 72.7801 47.2861 72.7801C47.7721 72.7801 48.2018 72.8669 48.575 73.0405C48.9569 73.2054 49.2693 73.4571 49.5123 73.7956L48.7572 74.5507C48.5837 74.3251 48.3667 74.1515 48.1063 74.03C47.8546 73.9085 47.5682 73.8477 47.2471 73.8477C46.9086 73.8477 46.6482 73.9085 46.4659 74.03C46.2923 74.1428 46.2055 74.3034 46.2055 74.5117C46.2055 74.72 46.2837 74.8805 46.4399 74.9934C46.5961 75.1062 46.8001 75.2017 47.0518 75.2798C47.3121 75.3579 47.5812 75.4403 47.8589 75.5271C48.1367 75.6052 48.4014 75.7137 48.6531 75.8526C48.9048 75.9915 49.1088 76.1781 49.265 76.4124C49.4299 76.6468 49.5123 76.9549 49.5123 77.3368C49.5123 77.9183 49.304 78.3783 48.8874 78.7168C48.4795 79.0552 47.9284 79.2245 47.234 79.2245ZM52.7899 79.2245C52.4428 79.2245 52.113 79.1811 51.8005 79.0943C51.4967 78.9988 51.2147 78.8686 50.9543 78.7037C50.6939 78.5301 50.4682 78.3262 50.2773 78.0918L51.0324 77.3368C51.2581 77.6145 51.5184 77.8228 51.8135 77.9617C52.1086 78.0918 52.4384 78.1569 52.803 78.1569C53.1675 78.1569 53.4496 78.0962 53.6492 77.9747C53.8488 77.8445 53.9486 77.6666 53.9486 77.4409C53.9486 77.2152 53.8662 77.0417 53.7013 76.9201C53.545 76.79 53.3411 76.6858 53.0894 76.6077C52.8377 76.5209 52.5686 76.4385 52.2822 76.3603C52.0045 76.2735 51.7397 76.1651 51.4881 76.0349C51.2364 75.9047 51.0281 75.7268 50.8631 75.5011C50.7069 75.2754 50.6288 74.976 50.6288 74.6028C50.6288 74.2296 50.7199 73.9085 50.9022 73.6394C51.0845 73.3617 51.3362 73.149 51.6573 73.0015C51.9871 72.8539 52.382 72.7801 52.842 72.7801C53.3281 72.7801 53.7577 72.8669 54.1309 73.0405C54.5128 73.2054 54.8252 73.4571 55.0682 73.7956L54.3131 74.5507C54.1396 74.3251 53.9226 74.1515 53.6622 74.03C53.4105 73.9085 53.1241 73.8477 52.803 73.8477C52.4645 73.8477 52.2041 73.9085 52.0218 74.03C51.8482 74.1428 51.7614 74.3034 51.7614 74.5117C51.7614 74.72 51.8396 74.8805 51.9958 74.9934C52.152 75.1062 52.356 75.2017 52.6077 75.2798C52.8681 75.3579 53.1371 75.4403 53.4148 75.5271C53.6926 75.6052 53.9573 75.7137 54.209 75.8526C54.4607 75.9915 54.6647 76.1781 54.8209 76.4124C54.9858 76.6468 55.0682 76.9549 55.0682 77.3368C55.0682 77.9183 54.8599 78.3783 54.4433 78.7168C54.0354 79.0552 53.4843 79.2245 52.7899 79.2245ZM61.0539 79.2245C60.7067 79.2245 60.3769 79.1811 60.0644 79.0943C59.7607 78.9988 59.4786 78.8686 59.2182 78.7037C58.9578 78.5301 58.7322 78.3262 58.5412 78.0918L59.2963 77.3368C59.522 77.6145 59.7824 77.8228 60.0775 77.9617C60.3725 78.0918 60.7024 78.1569 61.0669 78.1569C61.4314 78.1569 61.7135 78.0962 61.9131 77.9747C62.1127 77.8445 62.2125 77.6666 62.2125 77.4409C62.2125 77.2152 62.1301 77.0417 61.9652 76.9201C61.809 76.79 61.605 76.6858 61.3533 76.6077C61.1016 76.5209 60.8325 76.4385 60.5461 76.3603C60.2684 76.2735 60.0037 76.1651 59.752 76.0349C59.5003 75.9047 59.292 75.7268 59.1271 75.5011C58.9708 75.2754 58.8927 74.976 58.8927 74.6028C58.8927 74.2296 58.9839 73.9085 59.1661 73.6394C59.3484 73.3617 59.6001 73.149 59.9212 73.0015C60.251 72.8539 60.6459 72.7801 61.1059 72.7801C61.592 72.7801 62.0216 72.8669 62.3948 73.0405C62.7767 73.2054 63.0891 73.4571 63.3322 73.7956L62.5771 74.5507C62.4035 74.3251 62.1865 74.1515 61.9261 74.03C61.6744 73.9085 61.388 73.8477 61.0669 73.8477C60.7284 73.8477 60.468 73.9085 60.2858 74.03C60.1122 74.1428 60.0254 74.3034 60.0254 74.5117C60.0254 74.72 60.1035 74.8805 60.2597 74.9934C60.4159 75.1062 60.6199 75.2017 60.8716 75.2798C61.132 75.3579 61.401 75.4403 61.6788 75.5271C61.9565 75.6052 62.2212 75.7137 62.4729 75.8526C62.7246 75.9915 62.9286 76.1781 63.0848 76.4124C63.2497 76.6468 63.3322 76.9549 63.3322 77.3368C63.3322 77.9183 63.1239 78.3783 62.7073 78.7168C62.2993 79.0552 61.7482 79.2245 61.0539 79.2245ZM68.6017 79.0943L65.7115 75.9307L68.5756 72.9103H69.9947L66.8051 76.2432L66.8571 75.5662L70.1118 79.0943H68.6017ZM64.6439 79.0943V69.7988H65.8156V79.0943H64.6439ZM70.9121 79.0943V72.9103H72.0838V79.0943H70.9121ZM71.4979 71.6735C71.281 71.6735 71.103 71.6041 70.9642 71.4652C70.8253 71.3177 70.7559 71.1354 70.7559 70.9185C70.7559 70.7101 70.8253 70.5366 70.9642 70.3977C71.103 70.2501 71.281 70.1764 71.4979 70.1764C71.7149 70.1764 71.8929 70.2501 72.0317 70.3977C72.1706 70.5366 72.24 70.7101 72.24 70.9185C72.24 71.1354 72.1706 71.3177 72.0317 71.4652C71.8929 71.6041 71.7149 71.6735 71.4979 71.6735ZM73.8105 79.0943V69.7988H74.9822V79.0943H73.8105ZM76.6965 79.0943V69.7988H77.8682V79.0943H76.6965ZM82.4467 79.2245C81.8305 79.2245 81.275 79.0856 80.7803 78.8079C80.2856 78.5215 79.895 78.1352 79.6086 77.6492C79.3222 77.1632 79.179 76.612 79.179 75.9958C79.179 75.3883 79.3178 74.8415 79.5956 74.3554C79.882 73.8694 80.2639 73.4875 80.7412 73.2098C81.2273 72.9234 81.7697 72.7801 82.3686 72.7801C82.9414 72.7801 83.4448 72.9103 83.8788 73.1707C84.3214 73.4311 84.6643 73.7913 84.9073 74.2513C85.159 74.7113 85.2848 75.232 85.2848 75.8135C85.2848 75.9003 85.2805 75.9958 85.2718 76.1C85.2631 76.1954 85.2458 76.3083 85.2197 76.4385H79.9992V75.462H84.5948L84.1652 75.8396C84.1652 75.423 84.0914 75.0715 83.9439 74.7851C83.7963 74.49 83.588 74.2643 83.319 74.1081C83.0499 73.9432 82.7244 73.8607 82.3426 73.8607C81.9433 73.8607 81.5918 73.9475 81.288 74.1211C80.9843 74.2947 80.7499 74.5377 80.585 74.8501C80.4201 75.1626 80.3377 75.5315 80.3377 75.9568C80.3377 76.3907 80.4244 76.7726 80.598 77.1024C80.7716 77.4235 81.019 77.6752 81.3401 77.8575C81.6612 78.0311 82.0301 78.1179 82.4467 78.1179C82.7939 78.1179 83.1107 78.0571 83.3971 77.9356C83.6922 77.8141 83.9439 77.6318 84.1522 77.3888L84.9073 78.1569C84.6122 78.5041 84.2477 78.7688 83.8137 78.9511C83.3884 79.1334 82.9328 79.2245 82.4467 79.2245ZM89.1792 79.2245C88.6064 79.2245 88.0943 79.0856 87.643 78.8079C87.1917 78.5215 86.8315 78.1352 86.5624 77.6492C86.302 77.1632 86.1718 76.6164 86.1718 76.0088C86.1718 75.4013 86.302 74.8545 86.5624 74.3685C86.8315 73.8824 87.1917 73.4962 87.643 73.2098C88.0943 72.9234 88.6064 72.7801 89.1792 72.7801C89.6392 72.7801 90.0558 72.88 90.429 73.0796C90.8022 73.2705 91.1017 73.5396 91.3273 73.8868C91.5617 74.2252 91.6918 74.6201 91.7179 75.0715V76.9332C91.6918 77.3758 91.566 77.7707 91.3403 78.1179C91.1147 78.4651 90.8152 78.7385 90.442 78.9381C90.0688 79.129 89.6479 79.2245 89.1792 79.2245ZM89.3745 78.1179C89.7651 78.1179 90.1035 78.0268 90.39 77.8445C90.6851 77.6622 90.9151 77.4149 91.08 77.1024C91.2449 76.7813 91.3273 76.4168 91.3273 76.0088C91.3273 75.5835 91.2405 75.2147 91.0669 74.9022C90.902 74.5898 90.672 74.3424 90.3769 74.1601C90.0905 73.9779 89.752 73.8868 89.3615 73.8868C88.9709 73.8868 88.6281 73.9779 88.333 74.1601C88.0379 74.3424 87.8035 74.5941 87.63 74.9152C87.465 75.2277 87.3826 75.5879 87.3826 75.9958C87.3826 76.4124 87.465 76.7813 87.63 77.1024C87.8035 77.4149 88.0379 77.6622 88.333 77.8445C88.6367 78.0268 88.9839 78.1179 89.3745 78.1179ZM92.4339 79.0943H91.2492V77.4279L91.4705 75.9177L91.2492 74.4205V69.7988H92.4339V79.0943ZM99.4776 79.2245C98.9135 79.2245 98.4014 79.0856 97.9414 78.8079C97.4814 78.5215 97.1169 78.1352 96.8478 77.6492C96.5874 77.1632 96.4573 76.6164 96.4573 76.0088C96.4573 75.4013 96.5874 74.8545 96.8478 74.3685C97.1169 73.8824 97.4771 73.4962 97.9284 73.2098C98.3884 72.9234 98.9048 72.7801 99.4776 72.7801C99.9463 72.7801 100.363 72.88 100.727 73.0796C101.101 73.2705 101.4 73.5396 101.626 73.8868C101.851 74.2252 101.977 74.6201 102.003 75.0715V76.9332C101.977 77.3758 101.851 77.7707 101.626 78.1179C101.409 78.4651 101.114 78.7385 100.74 78.9381C100.376 79.129 99.955 79.2245 99.4776 79.2245ZM99.6729 78.1179C100.254 78.1179 100.723 77.9226 101.079 77.532C101.435 77.1328 101.613 76.6251 101.613 76.0088C101.613 75.5835 101.53 75.2147 101.365 74.9022C101.209 74.5811 100.983 74.3337 100.688 74.1601C100.393 73.9779 100.05 73.8868 99.6599 73.8868C99.2693 73.8868 98.9222 73.9779 98.6184 74.1601C98.3233 74.3424 98.0889 74.5941 97.9154 74.9152C97.7505 75.2277 97.668 75.5879 97.668 75.9958C97.668 76.4124 97.7505 76.7813 97.9154 77.1024C98.0889 77.4149 98.3276 77.6622 98.6314 77.8445C98.9352 78.0268 99.2823 78.1179 99.6729 78.1179ZM101.535 79.0943V77.4279L101.756 75.9177L101.535 74.4205V72.9103H102.719V79.0943H101.535ZM108.8 79.0943V75.4881C108.8 75.0194 108.652 74.6332 108.357 74.3294C108.062 74.0256 107.68 73.8737 107.211 73.8737C106.899 73.8737 106.621 73.9432 106.378 74.082C106.135 74.2209 105.944 74.4118 105.805 74.6549C105.666 74.8979 105.597 75.1756 105.597 75.4881L105.115 75.2147C105.115 74.746 105.219 74.3294 105.428 73.9649C105.636 73.6003 105.927 73.3139 106.3 73.1056C106.673 72.8886 107.094 72.7801 107.563 72.7801C108.031 72.7801 108.444 72.8973 108.8 73.1317C109.164 73.366 109.45 73.6741 109.659 74.056C109.867 74.4292 109.971 74.8285 109.971 75.2537V79.0943H108.8ZM104.425 79.0943V72.9103H105.597V79.0943H104.425ZM114.174 79.2245C113.602 79.2245 113.09 79.0856 112.638 78.8079C112.187 78.5215 111.827 78.1352 111.558 77.6492C111.297 77.1632 111.167 76.6164 111.167 76.0088C111.167 75.4013 111.297 74.8545 111.558 74.3685C111.827 73.8824 112.187 73.4962 112.638 73.2098C113.09 72.9234 113.602 72.7801 114.174 72.7801C114.634 72.7801 115.051 72.88 115.424 73.0796C115.797 73.2705 116.097 73.5396 116.323 73.8868C116.557 74.2252 116.687 74.6201 116.713 75.0715V76.9332C116.687 77.3758 116.561 77.7707 116.336 78.1179C116.11 78.4651 115.81 78.7385 115.437 78.9381C115.064 79.129 114.643 79.2245 114.174 79.2245ZM114.37 78.1179C114.76 78.1179 115.099 78.0268 115.385 77.8445C115.68 77.6622 115.91 77.4149 116.075 77.1024C116.24 76.7813 116.323 76.4168 116.323 76.0088C116.323 75.5835 116.236 75.2147 116.062 74.9022C115.897 74.5898 115.667 74.3424 115.372 74.1601C115.086 73.9779 114.747 73.8868 114.357 73.8868C113.966 73.8868 113.623 73.9779 113.328 74.1601C113.033 74.3424 112.799 74.5941 112.625 74.9152C112.46 75.2277 112.378 75.5879 112.378 75.9958C112.378 76.4124 112.46 76.7813 112.625 77.1024C112.799 77.4149 113.033 77.6622 113.328 77.8445C113.632 78.0268 113.979 78.1179 114.37 78.1179ZM117.429 79.0943H116.244V77.4279L116.466 75.9177L116.244 74.4205V69.7988H117.429V79.0943ZM125.098 79.2245C124.629 79.2245 124.204 79.129 123.822 78.9381C123.449 78.7385 123.149 78.4651 122.924 78.1179C122.698 77.7707 122.572 77.3758 122.546 76.9332V75.0715C122.572 74.6201 122.698 74.2252 122.924 73.8868C123.158 73.5396 123.462 73.2705 123.835 73.0796C124.217 72.88 124.638 72.7801 125.098 72.7801C125.662 72.7801 126.17 72.9234 126.621 73.2098C127.081 73.4962 127.441 73.8824 127.702 74.3685C127.962 74.8545 128.092 75.4013 128.092 76.0088C128.092 76.6164 127.962 77.1632 127.702 77.6492C127.441 78.1352 127.081 78.5215 126.621 78.8079C126.17 79.0856 125.662 79.2245 125.098 79.2245ZM124.902 78.1179C125.293 78.1179 125.636 78.0268 125.931 77.8445C126.226 77.6622 126.46 77.4149 126.634 77.1024C126.808 76.7813 126.894 76.4124 126.894 75.9958C126.894 75.5879 126.808 75.2234 126.634 74.9022C126.46 74.5811 126.226 74.3337 125.931 74.1601C125.636 73.9779 125.297 73.8868 124.915 73.8868C124.525 73.8868 124.182 73.9779 123.887 74.1601C123.592 74.3337 123.362 74.5811 123.197 74.9022C123.032 75.2234 122.95 75.5922 122.95 76.0088C122.95 76.4168 123.028 76.7813 123.184 77.1024C123.349 77.4149 123.579 77.6622 123.874 77.8445C124.178 78.0268 124.521 78.1179 124.902 78.1179ZM121.843 81.6851V72.9103H123.015V74.5377L122.793 76.0349L123.015 77.5451V81.6851H121.843ZM129.42 79.0943V72.9103H130.592V79.0943H129.42ZM130.592 75.5662L130.149 75.3709C130.149 74.5811 130.332 73.9518 130.696 73.4832C131.061 73.0145 131.586 72.7801 132.272 72.7801C132.584 72.7801 132.866 72.8366 133.118 72.9494C133.369 73.0535 133.604 73.2315 133.821 73.4832L133.053 74.2773C132.922 74.1385 132.779 74.0386 132.623 73.9779C132.467 73.9171 132.285 73.8868 132.076 73.8868C131.642 73.8868 131.286 74.0256 131.009 74.3034C130.731 74.5811 130.592 75.002 130.592 75.5662ZM137.267 79.2245C136.66 79.2245 136.113 79.0813 135.627 78.7949C135.141 78.5085 134.755 78.1222 134.468 77.6362C134.182 77.1415 134.039 76.5903 134.039 75.9828C134.039 75.3839 134.182 74.8458 134.468 74.3685C134.755 73.8824 135.141 73.4962 135.627 73.2098C136.113 72.9234 136.66 72.7801 137.267 72.7801C137.866 72.7801 138.409 72.9234 138.895 73.2098C139.39 73.4875 139.78 73.8694 140.066 74.3554C140.353 74.8415 140.496 75.3839 140.496 75.9828C140.496 76.5903 140.353 77.1415 140.066 77.6362C139.78 78.1222 139.39 78.5085 138.895 78.7949C138.409 79.0813 137.866 79.2245 137.267 79.2245ZM137.267 78.0918C137.658 78.0918 138.005 78.0007 138.309 77.8185C138.613 77.6362 138.851 77.3888 139.025 77.0764C139.199 76.7552 139.285 76.3907 139.285 75.9828C139.285 75.5835 139.194 75.2277 139.012 74.9152C138.838 74.6028 138.6 74.3598 138.296 74.1862C138.001 74.0039 137.658 73.9128 137.267 73.9128C136.877 73.9128 136.53 74.0039 136.226 74.1862C135.922 74.3598 135.683 74.6028 135.51 74.9152C135.336 75.2277 135.25 75.5835 135.25 75.9828C135.25 76.3907 135.336 76.7552 135.51 77.0764C135.683 77.3888 135.922 77.6362 136.226 77.8185C136.53 78.0007 136.877 78.0918 137.267 78.0918ZM142.511 79.0943V71.986C142.511 71.526 142.611 71.1268 142.81 70.7883C143.01 70.4411 143.283 70.1677 143.631 69.9681C143.986 69.7685 144.399 69.6686 144.867 69.6686C145.223 69.6686 145.531 69.7294 145.792 69.8509C146.052 69.9724 146.291 70.1503 146.508 70.3847L145.74 71.1398C145.627 71.0183 145.501 70.9271 145.362 70.8664C145.223 70.7969 145.054 70.7622 144.854 70.7622C144.481 70.7622 144.19 70.8707 143.982 71.0877C143.782 71.3047 143.683 71.6041 143.683 71.986V79.0943H142.511ZM140.988 73.9779V72.9103H145.648V73.9779H140.988ZM149.334 79.2245C148.717 79.2245 148.162 79.0856 147.667 78.8079C147.173 78.5215 146.782 78.1352 146.496 77.6492C146.209 77.1632 146.066 76.612 146.066 75.9958C146.066 75.3883 146.205 74.8415 146.483 74.3554C146.769 73.8694 147.151 73.4875 147.628 73.2098C148.114 72.9234 148.657 72.7801 149.256 72.7801C149.828 72.7801 150.332 72.9103 150.766 73.1707C151.208 73.4311 151.551 73.7913 151.794 74.2513C152.046 74.7113 152.172 75.232 152.172 75.8135C152.172 75.9003 152.167 75.9958 152.159 76.1C152.15 76.1954 152.133 76.3083 152.107 76.4385H146.886V75.462H151.482L151.052 75.8396C151.052 75.423 150.978 75.0715 150.831 74.7851C150.683 74.49 150.475 74.2643 150.206 74.1081C149.937 73.9432 149.611 73.8607 149.23 73.8607C148.83 73.8607 148.479 73.9475 148.175 74.1211C147.871 74.2947 147.637 74.5377 147.472 74.8501C147.307 75.1626 147.225 75.5315 147.225 75.9568C147.225 76.3907 147.311 76.7726 147.485 77.1024C147.659 77.4235 147.906 77.6752 148.227 77.8575C148.548 78.0311 148.917 78.1179 149.334 78.1179C149.681 78.1179 149.998 78.0571 150.284 77.9356C150.579 77.8141 150.831 77.6318 151.039 77.3888L151.794 78.1569C151.499 78.5041 151.135 78.7688 150.701 78.9511C150.275 79.1334 149.82 79.2245 149.334 79.2245ZM155.415 79.2245C155.068 79.2245 154.738 79.1811 154.426 79.0943C154.122 78.9988 153.84 78.8686 153.58 78.7037C153.319 78.5301 153.094 78.3262 152.903 78.0918L153.658 77.3368C153.883 77.6145 154.144 77.8228 154.439 77.9617C154.734 78.0918 155.064 78.1569 155.428 78.1569C155.793 78.1569 156.075 78.0962 156.274 77.9747C156.474 77.8445 156.574 77.6666 156.574 77.4409C156.574 77.2152 156.491 77.0417 156.327 76.9201C156.17 76.79 155.966 76.6858 155.715 76.6077C155.463 76.5209 155.194 76.4385 154.907 76.3603C154.63 76.2735 154.365 76.1651 154.113 76.0349C153.862 75.9047 153.653 75.7268 153.488 75.5011C153.332 75.2754 153.254 74.976 153.254 74.6028C153.254 74.2296 153.345 73.9085 153.527 73.6394C153.71 73.3617 153.961 73.149 154.283 73.0015C154.612 72.8539 155.007 72.7801 155.467 72.7801C155.953 72.7801 156.383 72.8669 156.756 73.0405C157.138 73.2054 157.451 73.4571 157.694 73.7956L156.938 74.5507C156.765 74.3251 156.548 74.1515 156.287 74.03C156.036 73.9085 155.749 73.8477 155.428 73.8477C155.09 73.8477 154.829 73.9085 154.647 74.03C154.474 74.1428 154.387 74.3034 154.387 74.5117C154.387 74.72 154.465 74.8805 154.621 74.9934C154.777 75.1062 154.981 75.2017 155.233 75.2798C155.493 75.3579 155.762 75.4403 156.04 75.5271C156.318 75.6052 156.583 75.7137 156.834 75.8526C157.086 75.9915 157.29 76.1781 157.446 76.4124C157.611 76.6468 157.694 76.9549 157.694 77.3368C157.694 77.9183 157.485 78.3783 157.069 78.7168C156.661 79.0552 156.11 79.2245 155.415 79.2245ZM160.971 79.2245C160.624 79.2245 160.294 79.1811 159.982 79.0943C159.678 78.9988 159.396 78.8686 159.135 78.7037C158.875 78.5301 158.649 78.3262 158.458 78.0918L159.214 77.3368C159.439 77.6145 159.7 77.8228 159.995 77.9617C160.29 78.0918 160.62 78.1569 160.984 78.1569C161.349 78.1569 161.631 78.0962 161.83 77.9747C162.03 77.8445 162.13 77.6666 162.13 77.4409C162.13 77.2152 162.047 77.0417 161.882 76.9201C161.726 76.79 161.522 76.6858 161.271 76.6077C161.019 76.5209 160.75 76.4385 160.463 76.3603C160.186 76.2735 159.921 76.1651 159.669 76.0349C159.418 75.9047 159.209 75.7268 159.044 75.5011C158.888 75.2754 158.81 74.976 158.81 74.6028C158.81 74.2296 158.901 73.9085 159.083 73.6394C159.266 73.3617 159.517 73.149 159.838 73.0015C160.168 72.8539 160.563 72.7801 161.023 72.7801C161.509 72.7801 161.939 72.8669 162.312 73.0405C162.694 73.2054 163.006 73.4571 163.249 73.7956L162.494 74.5507C162.321 74.3251 162.104 74.1515 161.843 74.03C161.592 73.9085 161.305 73.8477 160.984 73.8477C160.646 73.8477 160.385 73.9085 160.203 74.03C160.029 74.1428 159.943 74.3034 159.943 74.5117C159.943 74.72 160.021 74.8805 160.177 74.9934C160.333 75.1062 160.537 75.2017 160.789 75.2798C161.049 75.3579 161.318 75.4403 161.596 75.5271C161.874 75.6052 162.138 75.7137 162.39 75.8526C162.642 75.9915 162.846 76.1781 163.002 76.4124C163.167 76.6468 163.249 76.9549 163.249 77.3368C163.249 77.9183 163.041 78.3783 162.625 78.7168C162.217 79.0552 161.665 79.2245 160.971 79.2245ZM164.574 79.0943V72.9103H165.746V79.0943H164.574ZM165.16 71.6735C164.943 71.6735 164.765 71.6041 164.626 71.4652C164.487 71.3177 164.418 71.1354 164.418 70.9185C164.418 70.7101 164.487 70.5366 164.626 70.3977C164.765 70.2501 164.943 70.1764 165.16 70.1764C165.377 70.1764 165.555 70.2501 165.694 70.3977C165.833 70.5366 165.902 70.7101 165.902 70.9185C165.902 71.1354 165.833 71.3177 165.694 71.4652C165.555 71.6041 165.377 71.6735 165.16 71.6735ZM170.298 79.2245C169.69 79.2245 169.143 79.0813 168.657 78.7949C168.171 78.5085 167.785 78.1222 167.499 77.6362C167.212 77.1415 167.069 76.5903 167.069 75.9828C167.069 75.3839 167.212 74.8458 167.499 74.3685C167.785 73.8824 168.171 73.4962 168.657 73.2098C169.143 72.9234 169.69 72.7801 170.298 72.7801C170.897 72.7801 171.439 72.9234 171.925 73.2098C172.42 73.4875 172.81 73.8694 173.097 74.3554C173.383 74.8415 173.526 75.3839 173.526 75.9828C173.526 76.5903 173.383 77.1415 173.097 77.6362C172.81 78.1222 172.42 78.5085 171.925 78.7949C171.439 79.0813 170.897 79.2245 170.298 79.2245ZM170.298 78.0918C170.688 78.0918 171.035 78.0007 171.339 77.8185C171.643 77.6362 171.882 77.3888 172.055 77.0764C172.229 76.7552 172.316 76.3907 172.316 75.9828C172.316 75.5835 172.225 75.2277 172.042 74.9152C171.869 74.6028 171.63 74.3598 171.326 74.1862C171.031 74.0039 170.688 73.9128 170.298 73.9128C169.907 73.9128 169.56 74.0039 169.256 74.1862C168.952 74.3598 168.714 74.6028 168.54 74.9152C168.367 75.2277 168.28 75.5835 168.28 75.9828C168.28 76.3907 168.367 76.7552 168.54 77.0764C168.714 77.3888 168.952 77.6362 169.256 77.8185C169.56 78.0007 169.907 78.0918 170.298 78.0918ZM179.221 79.0943V75.4881C179.221 75.0194 179.073 74.6332 178.778 74.3294C178.483 74.0256 178.101 73.8737 177.633 73.8737C177.32 73.8737 177.042 73.9432 176.799 74.082C176.556 74.2209 176.365 74.4118 176.227 74.6549C176.088 74.8979 176.018 75.1756 176.018 75.4881L175.537 75.2147C175.537 74.746 175.641 74.3294 175.849 73.9649C176.057 73.6003 176.348 73.3139 176.721 73.1056C177.095 72.8886 177.515 72.7801 177.984 72.7801C178.453 72.7801 178.865 72.8973 179.221 73.1317C179.585 73.366 179.872 73.6741 180.08 74.056C180.288 74.4292 180.393 74.8285 180.393 75.2537V79.0943H179.221ZM174.847 79.0943V72.9103H176.018V79.0943H174.847ZM184.609 79.2245C184.045 79.2245 183.533 79.0856 183.073 78.8079C182.613 78.5215 182.248 78.1352 181.979 77.6492C181.719 77.1632 181.588 76.6164 181.588 76.0088C181.588 75.4013 181.719 74.8545 181.979 74.3685C182.248 73.8824 182.608 73.4962 183.06 73.2098C183.52 72.9234 184.036 72.7801 184.609 72.7801C185.078 72.7801 185.494 72.88 185.859 73.0796C186.232 73.2705 186.531 73.5396 186.757 73.8868C186.983 74.2252 187.108 74.6201 187.134 75.0715V76.9332C187.108 77.3758 186.983 77.7707 186.757 78.1179C186.54 78.4651 186.245 78.7385 185.872 78.9381C185.507 79.129 185.086 79.2245 184.609 79.2245ZM184.804 78.1179C185.386 78.1179 185.854 77.9226 186.21 77.532C186.566 77.1328 186.744 76.6251 186.744 76.0088C186.744 75.5835 186.661 75.2147 186.497 74.9022C186.34 74.5811 186.115 74.3337 185.82 74.1601C185.524 73.9779 185.182 73.8868 184.791 73.8868C184.401 73.8868 184.053 73.9779 183.75 74.1601C183.454 74.3424 183.22 74.5941 183.047 74.9152C182.882 75.2277 182.799 75.5879 182.799 75.9958C182.799 76.4124 182.882 76.7813 183.047 77.1024C183.22 77.4149 183.459 77.6622 183.763 77.8445C184.066 78.0268 184.414 78.1179 184.804 78.1179ZM186.666 79.0943V77.4279L186.887 75.9177L186.666 74.4205V72.9103H187.851V79.0943H186.666ZM189.556 79.0943V69.7988H190.728V79.0943H189.556ZM17.1327 98.0943V91.9103H18.3044V98.0943H17.1327ZM18.3044 94.5662L17.8617 94.3709C17.8617 93.5811 18.044 92.9518 18.4085 92.4832C18.7731 92.0145 19.2982 91.7801 19.9838 91.7801C20.2963 91.7801 20.5783 91.8366 20.83 91.9494C21.0817 92.0535 21.3161 92.2315 21.5331 92.4832L20.7649 93.2773C20.6348 93.1385 20.4916 93.0386 20.3353 92.9779C20.1791 92.9171 19.9968 92.8868 19.7885 92.8868C19.3546 92.8868 18.9987 93.0256 18.721 93.3034C18.4432 93.5811 18.3044 94.002 18.3044 94.5662ZM25.0188 98.2245C24.4025 98.2245 23.8471 98.0856 23.3523 97.8079C22.8576 97.5215 22.4671 97.1352 22.1806 96.6492C21.8942 96.1632 21.751 95.612 21.751 94.9958C21.751 94.3883 21.8899 93.8415 22.1676 93.3554C22.454 92.8694 22.8359 92.4875 23.3133 92.2098C23.7993 91.9234 24.3418 91.7801 24.9406 91.7801C25.5135 91.7801 26.0169 91.9103 26.4508 92.1707C26.8935 92.4311 27.2363 92.7913 27.4793 93.2513C27.731 93.7113 27.8569 94.232 27.8569 94.8135C27.8569 94.9003 27.8525 94.9958 27.8439 95.1C27.8352 95.1954 27.8178 95.3083 27.7918 95.4385H22.5712V94.462H27.1669L26.7373 94.8396C26.7373 94.423 26.6635 94.0715 26.5159 93.7851C26.3684 93.49 26.1601 93.2643 25.891 93.1081C25.622 92.9432 25.2965 92.8607 24.9146 92.8607C24.5154 92.8607 24.1639 92.9475 23.8601 93.1211C23.5563 93.2947 23.322 93.5377 23.1571 93.8501C22.9922 94.1626 22.9097 94.5315 22.9097 94.9568C22.9097 95.3907 22.9965 95.7726 23.1701 96.1024C23.3437 96.4235 23.591 96.6752 23.9122 96.8575C24.2333 97.0311 24.6022 97.1179 25.0188 97.1179C25.3659 97.1179 25.6827 97.0571 25.9691 96.9356C26.2642 96.8141 26.5159 96.6318 26.7242 96.3888L27.4793 97.1569C27.1842 97.5041 26.8197 97.7688 26.3857 97.9511C25.9605 98.1334 25.5048 98.2245 25.0188 98.2245ZM31.1003 98.2245C30.7531 98.2245 30.4233 98.1811 30.1109 98.0943C29.8071 97.9988 29.525 97.8686 29.2646 97.7037C29.0043 97.5301 28.7786 97.3262 28.5877 97.0918L29.3428 96.3368C29.5684 96.6145 29.8288 96.8228 30.1239 96.9617C30.419 97.0918 30.7488 97.1569 31.1133 97.1569C31.4778 97.1569 31.7599 97.0962 31.9595 96.9747C32.1592 96.8445 32.259 96.6666 32.259 96.4409C32.259 96.2152 32.1765 96.0417 32.0116 95.9201C31.8554 95.79 31.6514 95.6858 31.3997 95.6077C31.148 95.5209 30.879 95.4385 30.5926 95.3603C30.3148 95.2735 30.0501 95.1651 29.7984 95.0349C29.5467 94.9047 29.3384 94.7268 29.1735 94.5011C29.0173 94.2754 28.9392 93.976 28.9392 93.6028C28.9392 93.2296 29.0303 92.9085 29.2126 92.6394C29.3948 92.3617 29.6465 92.149 29.9677 92.0015C30.2975 91.8539 30.6924 91.7801 31.1524 91.7801C31.6384 91.7801 32.068 91.8669 32.4412 92.0405C32.8231 92.2054 33.1356 92.4571 33.3786 92.7956L32.6235 93.5507C32.4499 93.3251 32.2329 93.1515 31.9726 93.03C31.7209 92.9085 31.4345 92.8477 31.1133 92.8477C30.7748 92.8477 30.5145 92.9085 30.3322 93.03C30.1586 93.1428 30.0718 93.3034 30.0718 93.5117C30.0718 93.72 30.1499 93.8805 30.3061 93.9934C30.4624 94.1062 30.6663 94.2017 30.918 94.2798C31.1784 94.3579 31.4475 94.4403 31.7252 94.5271C32.0029 94.6052 32.2677 94.7137 32.5194 94.8526C32.7711 94.9915 32.975 95.1781 33.1312 95.4124C33.2961 95.6468 33.3786 95.9549 33.3786 96.3368C33.3786 96.9183 33.1703 97.3783 32.7537 97.7168C32.3458 98.0552 31.7946 98.2245 31.1003 98.2245ZM37.5154 98.2245C36.9079 98.2245 36.3611 98.0813 35.8751 97.7949C35.389 97.5085 35.0028 97.1222 34.7164 96.6362C34.43 96.1415 34.2868 95.5903 34.2868 94.9828C34.2868 94.3839 34.43 93.8458 34.7164 93.3685C35.0028 92.8824 35.389 92.4962 35.8751 92.2098C36.3611 91.9234 36.9079 91.7801 37.5154 91.7801C38.1143 91.7801 38.6568 91.9234 39.1428 92.2098C39.6375 92.4875 40.0281 92.8694 40.3145 93.3554C40.6009 93.8415 40.7441 94.3839 40.7441 94.9828C40.7441 95.5903 40.6009 96.1415 40.3145 96.6362C40.0281 97.1222 39.6375 97.5085 39.1428 97.7949C38.6568 98.0813 38.1143 98.2245 37.5154 98.2245ZM37.5154 97.0918C37.906 97.0918 38.2532 97.0007 38.557 96.8185C38.8607 96.6362 39.0994 96.3888 39.273 96.0764C39.4466 95.7552 39.5334 95.3907 39.5334 94.9828C39.5334 94.5835 39.4422 94.2277 39.26 93.9152C39.0864 93.6028 38.8477 93.3598 38.5439 93.1862C38.2488 93.0039 37.906 92.9128 37.5154 92.9128C37.1249 92.9128 36.7777 93.0039 36.4739 93.1862C36.1702 93.3598 35.9315 93.6028 35.7579 93.9152C35.5843 94.2277 35.4975 94.5835 35.4975 94.9828C35.4975 95.3907 35.5843 95.7552 35.7579 96.0764C35.9315 96.3888 36.1702 96.6362 36.4739 96.8185C36.7777 97.0007 37.1249 97.0918 37.5154 97.0918ZM44.5509 98.2245C44.0475 98.2245 43.5919 98.1117 43.1839 97.886C42.7847 97.6517 42.4722 97.3305 42.2466 96.9226C42.0209 96.5147 41.9081 96.0417 41.9081 95.5035V91.9103H43.0798V95.4515C43.0798 95.79 43.1362 96.0851 43.249 96.3368C43.3705 96.5798 43.5441 96.7664 43.7698 96.8966C43.9955 97.0268 44.2602 97.0918 44.5639 97.0918C45.0239 97.0918 45.3841 96.9486 45.6445 96.6622C45.9049 96.3671 46.0351 95.9635 46.0351 95.4515V91.9103H47.2068V95.5035C47.2068 96.0417 47.0939 96.5147 46.8683 96.9226C46.6426 97.3305 46.3302 97.6517 45.9309 97.886C45.5404 98.1117 45.0804 98.2245 44.5509 98.2245ZM48.7772 98.0943V91.9103H49.9489V98.0943H48.7772ZM49.9489 94.5662L49.5062 94.3709C49.5062 93.5811 49.6885 92.9518 50.053 92.4832C50.4176 92.0145 50.9426 91.7801 51.6283 91.7801C51.9408 91.7801 52.2228 91.8366 52.4745 91.9494C52.7262 92.0535 52.9606 92.2315 53.1776 92.4832L52.4094 93.2773C52.2793 93.1385 52.136 93.0386 51.9798 92.9779C51.8236 92.9171 51.6413 92.8868 51.433 92.8868C50.9991 92.8868 50.6432 93.0256 50.3655 93.3034C50.0877 93.5811 49.9489 94.002 49.9489 94.5662ZM56.6242 98.2245C56.0167 98.2245 55.4655 98.0813 54.9708 97.7949C54.4848 97.5085 54.0985 97.1222 53.8121 96.6362C53.5344 96.1415 53.3955 95.5947 53.3955 94.9958C53.3955 94.3883 53.5344 93.8415 53.8121 93.3554C54.0985 92.8694 54.4848 92.4875 54.9708 92.2098C55.4655 91.9234 56.0167 91.7801 56.6242 91.7801C57.1016 91.7801 57.5442 91.8713 57.9521 92.0535C58.36 92.2271 58.7116 92.4832 59.0067 92.8217L58.2255 93.6028C58.0346 93.3771 57.8002 93.2079 57.5225 93.0951C57.2534 92.9735 56.954 92.9128 56.6242 92.9128C56.2336 92.9128 55.8865 93.0039 55.5827 93.1862C55.2789 93.3598 55.0402 93.6028 54.8666 93.9152C54.6931 94.2277 54.6063 94.5879 54.6063 94.9958C54.6063 95.4037 54.6931 95.7639 54.8666 96.0764C55.0402 96.3888 55.2789 96.6362 55.5827 96.8185C55.8865 97.0007 56.2336 97.0918 56.6242 97.0918C56.954 97.0918 57.2534 97.0354 57.5225 96.9226C57.8002 96.8011 58.0389 96.6275 58.2385 96.4018L59.0067 97.183C58.7202 97.5128 58.3687 97.7688 57.9521 97.9511C57.5442 98.1334 57.1016 98.2245 56.6242 98.2245ZM62.9057 98.2245C62.2895 98.2245 61.734 98.0856 61.2393 97.8079C60.7446 97.5215 60.354 97.1352 60.0676 96.6492C59.7812 96.1632 59.638 95.612 59.638 94.9958C59.638 94.3883 59.7768 93.8415 60.0546 93.3554C60.341 92.8694 60.7229 92.4875 61.2002 92.2098C61.6863 91.9234 62.2287 91.7801 62.8276 91.7801C63.4004 91.7801 63.9038 91.9103 64.3378 92.1707C64.7804 92.4311 65.1232 92.7913 65.3663 93.2513C65.618 93.7113 65.7438 94.232 65.7438 94.8135C65.7438 94.9003 65.7395 94.9958 65.7308 95.1C65.7221 95.1954 65.7048 95.3083 65.6787 95.4385H60.4582V94.462H65.0538L64.6242 94.8396C64.6242 94.423 64.5504 94.0715 64.4029 93.7851C64.2553 93.49 64.047 93.2643 63.778 93.1081C63.5089 92.9432 63.1834 92.8607 62.8015 92.8607C62.4023 92.8607 62.0508 92.9475 61.747 93.1211C61.4432 93.2947 61.2089 93.5377 61.044 93.8501C60.8791 94.1626 60.7966 94.5315 60.7966 94.9568C60.7966 95.3907 60.8834 95.7726 61.057 96.1024C61.2306 96.4235 61.478 96.6752 61.7991 96.8575C62.1202 97.0311 62.4891 97.1179 62.9057 97.1179C63.2529 97.1179 63.5697 97.0571 63.8561 96.9356C64.1512 96.8141 64.4029 96.6318 64.6112 96.3888L65.3663 97.1569C65.0712 97.5041 64.7066 97.7688 64.2727 97.9511C63.8474 98.1334 63.3917 98.2245 62.9057 98.2245ZM68.9872 98.2245C68.6401 98.2245 68.3103 98.1811 67.9978 98.0943C67.694 97.9988 67.412 97.8686 67.1516 97.7037C66.8912 97.5301 66.6655 97.3262 66.4746 97.0918L67.2297 96.3368C67.4554 96.6145 67.7157 96.8228 68.0108 96.9617C68.3059 97.0918 68.6357 97.1569 69.0003 97.1569C69.3648 97.1569 69.6469 97.0962 69.8465 96.9747C70.0461 96.8445 70.1459 96.6666 70.1459 96.4409C70.1459 96.2152 70.0635 96.0417 69.8986 95.9201C69.7423 95.79 69.5384 95.6858 69.2867 95.6077C69.035 95.5209 68.7659 95.4385 68.4795 95.3603C68.2018 95.2735 67.937 95.1651 67.6854 95.0349C67.4337 94.9047 67.2254 94.7268 67.0604 94.5011C66.9042 94.2754 66.8261 93.976 66.8261 93.6028C66.8261 93.2296 66.9172 92.9085 67.0995 92.6394C67.2818 92.3617 67.5335 92.149 67.8546 92.0015C68.1844 91.8539 68.5793 91.7801 69.0393 91.7801C69.5254 91.7801 69.955 91.8669 70.3282 92.0405C70.7101 92.2054 71.0225 92.4571 71.2655 92.7956L70.5104 93.5507C70.3369 93.3251 70.1199 93.1515 69.8595 93.03C69.6078 92.9085 69.3214 92.8477 69.0003 92.8477C68.6618 92.8477 68.4014 92.9085 68.2191 93.03C68.0455 93.1428 67.9587 93.3034 67.9587 93.5117C67.9587 93.72 68.0369 93.8805 68.1931 93.9934C68.3493 94.1062 68.5533 94.2017 68.805 94.2798C69.0654 94.3579 69.3344 94.4403 69.6121 94.5271C69.8899 94.6052 70.1546 94.7137 70.4063 94.8526C70.658 94.9915 70.862 95.1781 71.0182 95.4124C71.1831 95.6468 71.2655 95.9549 71.2655 96.3368C71.2655 96.9183 71.0572 97.3783 70.6406 97.7168C70.2327 98.0552 69.6816 98.2245 68.9872 98.2245ZM76.2357 98.0943V89.3196H77.4074V98.0943H76.2357ZM74.7125 92.9779V91.9103H78.9306V92.9779H74.7125ZM82.7128 98.2245C82.1052 98.2245 81.5584 98.0813 81.0724 97.7949C80.5864 97.5085 80.2001 97.1222 79.9137 96.6362C79.6273 96.1415 79.4841 95.5903 79.4841 94.9828C79.4841 94.3839 79.6273 93.8458 79.9137 93.3685C80.2001 92.8824 80.5864 92.4962 81.0724 92.2098C81.5584 91.9234 82.1052 91.7801 82.7128 91.7801C83.3117 91.7801 83.8541 91.9234 84.3401 92.2098C84.8349 92.4875 85.2254 92.8694 85.5118 93.3554C85.7983 93.8415 85.9415 94.3839 85.9415 94.9828C85.9415 95.5903 85.7983 96.1415 85.5118 96.6362C85.2254 97.1222 84.8349 97.5085 84.3401 97.7949C83.8541 98.0813 83.3117 98.2245 82.7128 98.2245ZM82.7128 97.0918C83.1034 97.0918 83.4505 97.0007 83.7543 96.8185C84.0581 96.6362 84.2967 96.3888 84.4703 96.0764C84.6439 95.7552 84.7307 95.3907 84.7307 94.9828C84.7307 94.5835 84.6396 94.2277 84.4573 93.9152C84.2837 93.6028 84.0451 93.3598 83.7413 93.1862C83.4462 93.0039 83.1034 92.9128 82.7128 92.9128C82.3222 92.9128 81.975 93.0039 81.6713 93.1862C81.3675 93.3598 81.1288 93.6028 80.9552 93.9152C80.7817 94.2277 80.6949 94.5835 80.6949 94.9828C80.6949 95.3907 80.7817 95.7552 80.9552 96.0764C81.1288 96.3888 81.3675 96.6362 81.6713 96.8185C81.975 97.0007 82.3222 97.0918 82.7128 97.0918ZM92.8338 98.2245C92.2176 98.2245 91.6621 98.0856 91.1674 97.8079C90.6727 97.5215 90.2821 97.1352 89.9957 96.6492C89.7093 96.1632 89.5661 95.612 89.5661 94.9958C89.5661 94.3883 89.705 93.8415 89.9827 93.3554C90.2691 92.8694 90.651 92.4875 91.1284 92.2098C91.6144 91.9234 92.1569 91.7801 92.7557 91.7801C93.3286 91.7801 93.832 91.9103 94.2659 92.1707C94.7086 92.4311 95.0514 92.7913 95.2944 93.2513C95.5461 93.7113 95.672 94.232 95.672 94.8135C95.672 94.9003 95.6676 94.9958 95.6589 95.1C95.6503 95.1954 95.6329 95.3083 95.6069 95.4385H90.3863V94.462H94.982L94.5523 94.8396C94.5523 94.423 94.4786 94.0715 94.331 93.7851C94.1835 93.49 93.9752 93.2643 93.7061 93.1081C93.437 92.9432 93.1116 92.8607 92.7297 92.8607C92.3304 92.8607 91.9789 92.9475 91.6752 93.1211C91.3714 93.2947 91.137 93.5377 90.9721 93.8501C90.8072 94.1626 90.7248 94.5315 90.7248 94.9568C90.7248 95.3907 90.8116 95.7726 90.9852 96.1024C91.1587 96.4235 91.4061 96.6752 91.7272 96.8575C92.0484 97.0311 92.4172 97.1179 92.8338 97.1179C93.181 97.1179 93.4978 97.0571 93.7842 96.9356C94.0793 96.8141 94.331 96.6318 94.5393 96.3888L95.2944 97.1569C94.9993 97.5041 94.6348 97.7688 94.2008 97.9511C93.7755 98.1334 93.3199 98.2245 92.8338 98.2245ZM96.9495 98.0943V88.7988H98.1212V98.0943H96.9495ZM102.7 98.2245C102.083 98.2245 101.528 98.0856 101.033 97.8079C100.539 97.5215 100.148 97.1352 99.8616 96.6492C99.5752 96.1632 99.432 95.612 99.432 94.9958C99.432 94.3883 99.5708 93.8415 99.8486 93.3554C100.135 92.8694 100.517 92.4875 100.994 92.2098C101.48 91.9234 102.023 91.7801 102.622 91.7801C103.194 91.7801 103.698 91.9103 104.132 92.1707C104.574 92.4311 104.917 92.7913 105.16 93.2513C105.412 93.7113 105.538 94.232 105.538 94.8135C105.538 94.9003 105.533 94.9958 105.525 95.1C105.516 95.1954 105.499 95.3083 105.473 95.4385H100.252V94.462H104.848L104.418 94.8396C104.418 94.423 104.344 94.0715 104.197 93.7851C104.049 93.49 103.841 93.2643 103.572 93.1081C103.303 92.9432 102.977 92.8607 102.596 92.8607C102.196 92.8607 101.845 92.9475 101.541 93.1211C101.237 93.2947 101.003 93.5377 100.838 93.8501C100.673 94.1626 100.591 94.5315 100.591 94.9568C100.591 95.3907 100.677 95.7726 100.851 96.1024C101.025 96.4235 101.272 96.6752 101.593 96.8575C101.914 97.0311 102.283 97.1179 102.7 97.1179C103.047 97.1179 103.364 97.0571 103.65 96.9356C103.945 96.8141 104.197 96.6318 104.405 96.3888L105.16 97.1569C104.865 97.5041 104.501 97.7688 104.067 97.9511C103.641 98.1334 103.186 98.2245 102.7 98.2245ZM108.836 98.0943L105.998 91.9103H107.3L109.578 97.1309H108.823L111.114 91.9103H112.364L109.526 98.0943H108.836ZM115.751 98.2245C115.187 98.2245 114.675 98.0856 114.215 97.8079C113.755 97.5215 113.39 97.1352 113.121 96.6492C112.861 96.1632 112.731 95.6164 112.731 95.0088C112.731 94.4013 112.861 93.8545 113.121 93.3685C113.39 92.8824 113.751 92.4962 114.202 92.2098C114.662 91.9234 115.178 91.7801 115.751 91.7801C116.22 91.7801 116.637 91.88 117.001 92.0796C117.374 92.2705 117.674 92.5396 117.899 92.8868C118.125 93.2252 118.251 93.6201 118.277 94.0715V95.9332C118.251 96.3758 118.125 96.7707 117.899 97.1179C117.682 97.4651 117.387 97.7385 117.014 97.9381C116.65 98.129 116.229 98.2245 115.751 98.2245ZM115.947 97.1179C116.528 97.1179 116.997 96.9226 117.353 96.532C117.708 96.1328 117.886 95.6251 117.886 95.0088C117.886 94.5835 117.804 94.2147 117.639 93.9022C117.483 93.5811 117.257 93.3337 116.962 93.1601C116.667 92.9779 116.324 92.8868 115.933 92.8868C115.543 92.8868 115.196 92.9779 114.892 93.1601C114.597 93.3424 114.363 93.5941 114.189 93.9152C114.024 94.2277 113.942 94.5879 113.942 94.9958C113.942 95.4124 114.024 95.7813 114.189 96.1024C114.363 96.4149 114.601 96.6622 114.905 96.8445C115.209 97.0268 115.556 97.1179 115.947 97.1179ZM117.808 98.0943V96.4279L118.03 94.9177L117.808 93.4205V91.9103H118.993V98.0943H117.808ZM121.624 98.0943V89.3196H122.795V98.0943H121.624ZM120.101 92.9779V91.9103H124.319V92.9779H120.101ZM128.14 98.2245C127.524 98.2245 126.968 98.0856 126.473 97.8079C125.979 97.5215 125.588 97.1352 125.302 96.6492C125.015 96.1632 124.872 95.612 124.872 94.9958C124.872 94.3883 125.011 93.8415 125.289 93.3554C125.575 92.8694 125.957 92.4875 126.434 92.2098C126.92 91.9234 127.463 91.7801 128.062 91.7801C128.635 91.7801 129.138 91.9103 129.572 92.1707C130.015 92.4311 130.357 92.7913 130.6 93.2513C130.852 93.7113 130.978 94.232 130.978 94.8135C130.978 94.9003 130.974 94.9958 130.965 95.1C130.956 95.1954 130.939 95.3083 130.913 95.4385H125.692V94.462H130.288L129.858 94.8396C129.858 94.423 129.785 94.0715 129.637 93.7851C129.49 93.49 129.281 93.2643 129.012 93.1081C128.743 92.9432 128.418 92.8607 128.036 92.8607C127.636 92.8607 127.285 92.9475 126.981 93.1211C126.677 93.2947 126.443 93.5377 126.278 93.8501C126.113 94.1626 126.031 94.5315 126.031 94.9568C126.031 95.3907 126.118 95.7726 126.291 96.1024C126.465 96.4235 126.712 96.6752 127.033 96.8575C127.354 97.0311 127.723 97.1179 128.14 97.1179C128.487 97.1179 128.804 97.0571 129.09 96.9356C129.385 96.8141 129.637 96.6318 129.845 96.3888L130.6 97.1569C130.305 97.5041 129.941 97.7688 129.507 97.9511C129.082 98.1334 128.626 98.2245 128.14 98.2245ZM136.995 98.1464L134.313 91.9103H135.615L137.606 96.7924H137.19L139.286 91.9103H140.588L137.698 98.1464H136.995ZM135.224 100.685L137.047 96.9486L137.698 98.1464L136.526 100.685H135.224ZM144.133 98.2245C143.525 98.2245 142.979 98.0813 142.492 97.7949C142.006 97.5085 141.62 97.1222 141.334 96.6362C141.047 96.1415 140.904 95.5903 140.904 94.9828C140.904 94.3839 141.047 93.8458 141.334 93.3685C141.62 92.8824 142.006 92.4962 142.492 92.2098C142.979 91.9234 143.525 91.7801 144.133 91.7801C144.732 91.7801 145.274 91.9234 145.76 92.2098C146.255 92.4875 146.645 92.8694 146.932 93.3554C147.218 93.8415 147.362 94.3839 147.362 94.9828C147.362 95.5903 147.218 96.1415 146.932 96.6362C146.645 97.1222 146.255 97.5085 145.76 97.7949C145.274 98.0813 144.732 98.2245 144.133 98.2245ZM144.133 97.0918C144.523 97.0918 144.871 97.0007 145.174 96.8185C145.478 96.6362 145.717 96.3888 145.89 96.0764C146.064 95.7552 146.151 95.3907 146.151 94.9828C146.151 94.5835 146.06 94.2277 145.877 93.9152C145.704 93.6028 145.465 93.3598 145.161 93.1862C144.866 93.0039 144.523 92.9128 144.133 92.9128C143.742 92.9128 143.395 93.0039 143.091 93.1862C142.788 93.3598 142.549 93.6028 142.375 93.9152C142.202 94.2277 142.115 94.5835 142.115 94.9828C142.115 95.3907 142.202 95.7552 142.375 96.0764C142.549 96.3888 142.788 96.6362 143.091 96.8185C143.395 97.0007 143.742 97.0918 144.133 97.0918ZM151.168 98.2245C150.665 98.2245 150.209 98.1117 149.801 97.886C149.402 97.6517 149.09 97.3305 148.864 96.9226C148.638 96.5147 148.525 96.0417 148.525 95.5035V91.9103H149.697V95.4515C149.697 95.79 149.754 96.0851 149.866 96.3368C149.988 96.5798 150.162 96.7664 150.387 96.8966C150.613 97.0268 150.878 97.0918 151.181 97.0918C151.641 97.0918 152.002 96.9486 152.262 96.6622C152.522 96.3671 152.652 95.9635 152.652 95.4515V91.9103H153.824V95.5035C153.824 96.0417 153.711 96.5147 153.486 96.9226C153.26 97.3305 152.948 97.6517 152.548 97.886C152.158 98.1117 151.698 98.2245 151.168 98.2245ZM155.395 98.0943V91.9103H156.566V98.0943H155.395ZM156.566 94.5662L156.124 94.3709C156.124 93.5811 156.306 92.9518 156.67 92.4832C157.035 92.0145 157.56 91.7801 158.246 91.7801C158.558 91.7801 158.84 91.8366 159.092 91.9494C159.344 92.0535 159.578 92.2315 159.795 92.4832L159.027 93.2773C158.897 93.1385 158.753 93.0386 158.597 92.9779C158.441 92.9171 158.259 92.8868 158.05 92.8868C157.616 92.8868 157.261 93.0256 156.983 93.3034C156.705 93.5811 156.566 94.002 156.566 94.5662ZM19.9578 117.224C19.3502 117.224 18.8034 117.081 18.3174 116.795C17.8314 116.508 17.4451 116.122 17.1587 115.636C16.8723 115.141 16.7291 114.59 16.7291 113.983C16.7291 113.384 16.8723 112.846 17.1587 112.368C17.4451 111.882 17.8314 111.496 18.3174 111.21C18.8034 110.923 19.3502 110.78 19.9578 110.78C20.5566 110.78 21.0991 110.923 21.5851 111.21C22.0799 111.488 22.4704 111.869 22.7568 112.355C23.0432 112.841 23.1865 113.384 23.1865 113.983C23.1865 114.59 23.0432 115.141 22.7568 115.636C22.4704 116.122 22.0799 116.508 21.5851 116.795C21.0991 117.081 20.5566 117.224 19.9578 117.224ZM19.9578 116.092C20.3483 116.092 20.6955 116.001 20.9993 115.818C21.3031 115.636 21.5417 115.389 21.7153 115.076C21.8889 114.755 21.9757 114.391 21.9757 113.983C21.9757 113.584 21.8846 113.228 21.7023 112.915C21.5287 112.603 21.29 112.36 20.9863 112.186C20.6912 112.004 20.3483 111.913 19.9578 111.913C19.5672 111.913 19.22 112.004 18.9163 112.186C18.6125 112.36 18.3738 112.603 18.2002 112.915C18.0266 113.228 17.9399 113.584 17.9399 113.983C17.9399 114.391 18.0266 114.755 18.2002 115.076C18.3738 115.389 18.6125 115.636 18.9163 115.818C19.22 116.001 19.5672 116.092 19.9578 116.092ZM27.7614 117.224C27.2927 117.224 26.8674 117.129 26.4855 116.938C26.1123 116.738 25.8129 116.465 25.5872 116.118C25.3616 115.771 25.2357 115.376 25.2097 114.933V113.071C25.2357 112.62 25.3616 112.225 25.5872 111.887C25.8216 111.54 26.1253 111.271 26.4985 111.08C26.8804 110.88 27.3014 110.78 27.7614 110.78C28.3255 110.78 28.8333 110.923 29.2846 111.21C29.7446 111.496 30.1048 111.882 30.3651 112.368C30.6255 112.854 30.7557 113.401 30.7557 114.009C30.7557 114.616 30.6255 115.163 30.3651 115.649C30.1048 116.135 29.7446 116.521 29.2846 116.808C28.8333 117.086 28.3255 117.224 27.7614 117.224ZM27.5661 116.118C27.9567 116.118 28.2995 116.027 28.5946 115.844C28.8897 115.662 29.124 115.415 29.2976 115.102C29.4712 114.781 29.558 114.412 29.558 113.996C29.558 113.588 29.4712 113.223 29.2976 112.902C29.124 112.581 28.8897 112.334 28.5946 112.16C28.2995 111.978 27.961 111.887 27.5791 111.887C27.1885 111.887 26.8457 111.978 26.5506 112.16C26.2555 112.334 26.0255 112.581 25.8606 112.902C25.6957 113.223 25.6133 113.592 25.6133 114.009C25.6133 114.417 25.6914 114.781 25.8476 115.102C26.0125 115.415 26.2425 115.662 26.5376 115.844C26.8414 116.027 27.1842 116.118 27.5661 116.118ZM24.5067 119.685V110.91H25.6783V112.538L25.457 114.035L25.6783 115.545V119.685H24.5067ZM34.9482 117.224C34.332 117.224 33.7765 117.086 33.2818 116.808C32.7871 116.521 32.3965 116.135 32.1101 115.649C31.8237 115.163 31.6805 114.612 31.6805 113.996C31.6805 113.388 31.8193 112.841 32.0971 112.355C32.3835 111.869 32.7654 111.488 33.2427 111.21C33.7288 110.923 34.2712 110.78 34.8701 110.78C35.4429 110.78 35.9463 110.91 36.3803 111.171C36.8229 111.431 37.1657 111.791 37.4088 112.251C37.6605 112.711 37.7863 113.232 37.7863 113.814C37.7863 113.9 37.782 113.996 37.7733 114.1C37.7646 114.195 37.7472 114.308 37.7212 114.438H32.5006V113.462H37.0963L36.6667 113.84C36.6667 113.423 36.5929 113.071 36.4454 112.785C36.2978 112.49 36.0895 112.264 35.8205 112.108C35.5514 111.943 35.2259 111.861 34.844 111.861C34.4448 111.861 34.0933 111.948 33.7895 112.121C33.4857 112.295 33.2514 112.538 33.0865 112.85C32.9216 113.163 32.8391 113.531 32.8391 113.957C32.8391 114.391 32.9259 114.773 33.0995 115.102C33.2731 115.424 33.5205 115.675 33.8416 115.858C34.1627 116.031 34.5316 116.118 34.9482 116.118C35.2954 116.118 35.6122 116.057 35.8986 115.936C36.1937 115.814 36.4454 115.632 36.6537 115.389L37.4088 116.157C37.1137 116.504 36.7491 116.769 36.3152 116.951C35.8899 117.133 35.4342 117.224 34.9482 117.224ZM39.0639 117.094V110.91H40.2356V117.094H39.0639ZM40.2356 113.566L39.7929 113.371C39.7929 112.581 39.9752 111.952 40.3397 111.483C40.7043 111.014 41.2294 110.78 41.915 110.78C42.2275 110.78 42.5095 110.837 42.7612 110.949C43.0129 111.054 43.2473 111.231 43.4643 111.483L42.6961 112.277C42.566 112.138 42.4227 112.039 42.2665 111.978C42.1103 111.917 41.928 111.887 41.7197 111.887C41.2858 111.887 40.9299 112.026 40.6522 112.303C40.3744 112.581 40.2356 113.002 40.2356 113.566ZM46.7156 117.224C46.1515 117.224 45.6394 117.086 45.1794 116.808C44.7194 116.521 44.3549 116.135 44.0858 115.649C43.8254 115.163 43.6952 114.616 43.6952 114.009C43.6952 113.401 43.8254 112.854 44.0858 112.368C44.3549 111.882 44.7151 111.496 45.1664 111.21C45.6264 110.923 46.1428 110.78 46.7156 110.78C47.1843 110.78 47.6009 110.88 47.9654 111.08C48.3386 111.271 48.6381 111.54 48.8637 111.887C49.0894 112.225 49.2152 112.62 49.2413 113.071V114.933C49.2152 115.376 49.0894 115.771 48.8637 116.118C48.6468 116.465 48.3517 116.738 47.9784 116.938C47.6139 117.129 47.193 117.224 46.7156 117.224ZM46.9109 116.118C47.4924 116.118 47.9611 115.923 48.3169 115.532C48.6728 115.133 48.8507 114.625 48.8507 114.009C48.8507 113.584 48.7683 113.215 48.6034 112.902C48.4471 112.581 48.2215 112.334 47.9264 112.16C47.6313 111.978 47.2884 111.887 46.8979 111.887C46.5073 111.887 46.1601 111.978 45.8564 112.16C45.5613 112.342 45.3269 112.594 45.1534 112.915C44.9884 113.228 44.906 113.588 44.906 113.996C44.906 114.412 44.9884 114.781 45.1534 115.102C45.3269 115.415 45.5656 115.662 45.8694 115.844C46.1732 116.027 46.5203 116.118 46.9109 116.118ZM48.7726 117.094V115.428L48.9939 113.918L48.7726 112.421V110.91H49.9573V117.094H48.7726ZM52.5881 117.094V108.32H53.7598V117.094H52.5881ZM51.0649 111.978V110.91H55.2831V111.978H51.0649ZM56.4439 117.094V110.91H57.6156V117.094H56.4439ZM57.0297 109.674C56.8127 109.674 56.6348 109.604 56.4959 109.465C56.3571 109.318 56.2876 109.135 56.2876 108.918C56.2876 108.71 56.3571 108.537 56.4959 108.398C56.6348 108.25 56.8127 108.176 57.0297 108.176C57.2467 108.176 57.4246 108.25 57.5635 108.398C57.7024 108.537 57.7718 108.71 57.7718 108.918C57.7718 109.135 57.7024 109.318 57.5635 109.465C57.4246 109.604 57.2467 109.674 57.0297 109.674ZM62.1674 117.224C61.5598 117.224 61.013 117.081 60.527 116.795C60.041 116.508 59.6547 116.122 59.3683 115.636C59.0819 115.141 58.9387 114.59 58.9387 113.983C58.9387 113.384 59.0819 112.846 59.3683 112.368C59.6547 111.882 60.041 111.496 60.527 111.21C61.013 110.923 61.5598 110.78 62.1674 110.78C62.7663 110.78 63.3087 110.923 63.7947 111.21C64.2895 111.488 64.68 111.869 64.9664 112.355C65.2529 112.841 65.3961 113.384 65.3961 113.983C65.3961 114.59 65.2529 115.141 64.9664 115.636C64.68 116.122 64.2895 116.508 63.7947 116.795C63.3087 117.081 62.7663 117.224 62.1674 117.224ZM62.1674 116.092C62.558 116.092 62.9051 116.001 63.2089 115.818C63.5127 115.636 63.7513 115.389 63.9249 115.076C64.0985 114.755 64.1853 114.391 64.1853 113.983C64.1853 113.584 64.0942 113.228 63.9119 112.915C63.7383 112.603 63.4997 112.36 63.1959 112.186C62.9008 112.004 62.558 111.913 62.1674 111.913C61.7768 111.913 61.4297 112.004 61.1259 112.186C60.8221 112.36 60.5834 112.603 60.4098 112.915C60.2363 113.228 60.1495 113.584 60.1495 113.983C60.1495 114.391 60.2363 114.755 60.4098 115.076C60.5834 115.389 60.8221 115.636 61.1259 115.818C61.4297 116.001 61.7768 116.092 62.1674 116.092ZM71.0906 117.094V113.488C71.0906 113.019 70.9431 112.633 70.648 112.329C70.3529 112.026 69.971 111.874 69.5023 111.874C69.1898 111.874 68.9121 111.943 68.6691 112.082C68.4261 112.221 68.2351 112.412 68.0963 112.655C67.9574 112.898 67.888 113.176 67.888 113.488L67.4063 113.215C67.4063 112.746 67.5104 112.329 67.7187 111.965C67.927 111.6 68.2178 111.314 68.591 111.106C68.9642 110.889 69.3851 110.78 69.8538 110.78C70.3225 110.78 70.7348 110.897 71.0906 111.132C71.4551 111.366 71.7415 111.674 71.9498 112.056C72.1581 112.429 72.2623 112.828 72.2623 113.254V117.094H71.0906ZM66.7163 117.094V110.91H67.888V117.094H66.7163ZM75.8145 117.224C75.4673 117.224 75.1375 117.181 74.8251 117.094C74.5213 116.999 74.2392 116.869 73.9789 116.704C73.7185 116.53 73.4928 116.326 73.3019 116.092L74.057 115.337C74.2826 115.614 74.543 115.823 74.8381 115.962C75.1332 116.092 75.463 116.157 75.8275 116.157C76.1921 116.157 76.4741 116.096 76.6738 115.975C76.8734 115.844 76.9732 115.667 76.9732 115.441C76.9732 115.215 76.8907 115.042 76.7258 114.92C76.5696 114.79 76.3656 114.686 76.114 114.608C75.8623 114.521 75.5932 114.438 75.3068 114.36C75.029 114.274 74.7643 114.165 74.5126 114.035C74.2609 113.905 74.0526 113.727 73.8877 113.501C73.7315 113.275 73.6534 112.976 73.6534 112.603C73.6534 112.23 73.7445 111.908 73.9268 111.639C74.109 111.362 74.3607 111.149 74.6819 111.001C75.0117 110.854 75.4066 110.78 75.8666 110.78C76.3526 110.78 76.7823 110.867 77.1555 111.041C77.5373 111.205 77.8498 111.457 78.0928 111.796L77.3377 112.551C77.1641 112.325 76.9472 112.151 76.6868 112.03C76.4351 111.908 76.1487 111.848 75.8275 111.848C75.489 111.848 75.2287 111.908 75.0464 112.03C74.8728 112.143 74.786 112.303 74.786 112.512C74.786 112.72 74.8641 112.881 75.0204 112.993C75.1766 113.106 75.3806 113.202 75.6323 113.28C75.8926 113.358 76.1617 113.44 76.4394 113.527C76.7172 113.605 76.9819 113.714 77.2336 113.853C77.4853 113.991 77.6892 114.178 77.8455 114.412C78.0104 114.647 78.0928 114.955 78.0928 115.337C78.0928 115.918 77.8845 116.378 77.4679 116.717C77.06 117.055 76.5089 117.224 75.8145 117.224ZM80.4331 117.224C80.19 117.224 79.9861 117.142 79.8212 116.977C79.6649 116.804 79.5868 116.6 79.5868 116.365C79.5868 116.122 79.6649 115.923 79.8212 115.766C79.9861 115.601 80.19 115.519 80.4331 115.519C80.6761 115.519 80.8757 115.601 81.0319 115.766C81.1968 115.923 81.2793 116.122 81.2793 116.365C81.2793 116.6 81.1968 116.804 81.0319 116.977C80.8757 117.142 80.6761 117.224 80.4331 117.224Z" fill="#7D7D7D"/>
</svg>
