<svg width="230" height="160" viewBox="0 0 230 160" fill="none" xmlns="http://www.w3.org/2000/svg">
<mask id="path-1-inside-1_1180_70" fill="white">
<path fill-rule="evenodd" clip-rule="evenodd" d="M9.76415 159.22C4.37156 159.22 0 154.849 0 149.456V24.6922C0 19.2996 4.37156 14.928 9.76415 14.928H22.3366L30.5438 0.80127L38.6489 14.928H220.236C225.628 14.928 230 19.2996 230 24.6922V149.456C230 154.849 225.628 159.22 220.236 159.22H9.76415Z"/>
</mask>
<path fill-rule="evenodd" clip-rule="evenodd" d="M9.76415 159.22C4.37156 159.22 0 154.849 0 149.456V24.6922C0 19.2996 4.37156 14.928 9.76415 14.928H22.3366L30.5438 0.80127L38.6489 14.928H220.236C225.628 14.928 230 19.2996 230 24.6922V149.456C230 154.849 225.628 159.22 220.236 159.22H9.76415Z" fill="#F3F8FF"/>
<path d="M22.3366 14.928L23.2747 15.473L22.961 16.0129H22.3366V14.928ZM30.5438 0.80127L29.6057 0.256271L30.5497 -1.36853L31.4848 0.261367L30.5438 0.80127ZM38.6489 14.928V16.0129H38.0206L37.7079 15.4679L38.6489 14.928ZM1.08491 149.456C1.08491 154.25 4.97073 158.136 9.76415 158.136V160.305C3.77238 160.305 -1.08491 155.448 -1.08491 149.456H1.08491ZM1.08491 24.6922V149.456H-1.08491V24.6922H1.08491ZM9.76415 16.0129C4.97073 16.0129 1.08491 19.8987 1.08491 24.6922H-1.08491C-1.08491 18.7004 3.77238 13.8431 9.76415 13.8431V16.0129ZM22.3366 16.0129H9.76415V13.8431H22.3366V16.0129ZM31.4819 1.34627L23.2747 15.473L21.3985 14.383L29.6057 0.256271L31.4819 1.34627ZM37.7079 15.4679L29.6028 1.34117L31.4848 0.261367L39.5899 14.3881L37.7079 15.4679ZM220.236 16.0129H38.6489V13.8431H220.236V16.0129ZM228.915 24.6922C228.915 19.8987 225.029 16.0129 220.236 16.0129V13.8431C226.228 13.8431 231.085 18.7004 231.085 24.6922H228.915ZM228.915 149.456V24.6922H231.085V149.456H228.915ZM220.236 158.136C225.029 158.136 228.915 154.25 228.915 149.456H231.085C231.085 155.448 226.228 160.305 220.236 160.305V158.136ZM9.76415 158.136H220.236V160.305H9.76415V158.136Z" fill="black" mask="url(#path-1-inside-1_1180_70)"/>
<path d="M19.6583 45.0278H25.9248V46.5207H19.6583V45.0278ZM19.8319 51.4331H18.0961V39.2822H26.6712V40.7924H19.8319V51.4331ZM28.8716 51.4331V42.2331H30.538V51.4331H28.8716ZM29.7048 40.4625C29.3808 40.4625 29.1089 40.3584 28.889 40.1501C28.6807 39.9418 28.5765 39.6872 28.5765 39.3863C28.5765 39.0739 28.6807 38.8135 28.889 38.6052C29.1089 38.3969 29.3808 38.2927 29.7048 38.2927C30.0289 38.2927 30.295 38.3969 30.5033 38.6052C30.7232 38.8019 30.8331 39.0507 30.8331 39.3516C30.8331 39.664 30.729 39.9302 30.5207 40.1501C30.3124 40.3584 30.0404 40.4625 29.7048 40.4625ZM33.7198 51.4331V42.2331H35.3168V44.7327L35.1606 44.1078C35.4152 43.4713 35.8433 42.9853 36.4451 42.6497C37.0468 42.3141 37.7875 42.1463 38.667 42.1463V43.7607C38.5975 43.7491 38.5281 43.7433 38.4587 43.7433C38.4008 43.7433 38.3429 43.7433 38.2851 43.7433C37.394 43.7433 36.6881 44.0095 36.1674 44.5418C35.6466 45.0741 35.3862 45.8437 35.3862 46.8505V51.4331H33.7198ZM43.461 51.5373C42.6973 51.5373 41.9682 51.4331 41.2739 51.2248C40.5911 51.0165 40.053 50.7619 39.6595 50.461L40.3539 49.1418C40.7473 49.4079 41.2334 49.6336 41.812 49.8188C42.3906 50.0039 42.9808 50.0965 43.5825 50.0965C44.3579 50.0965 44.9134 49.9866 45.249 49.7667C45.5961 49.5468 45.7697 49.2401 45.7697 48.8467C45.7697 48.5574 45.6656 48.3317 45.4573 48.1697C45.249 48.0077 44.9712 47.8862 44.6241 47.8052C44.2885 47.7242 43.9124 47.6547 43.4958 47.5969C43.0792 47.5274 42.6625 47.4464 42.2459 47.3539C41.8293 47.2497 41.4475 47.1108 41.1003 46.9373C40.7531 46.7521 40.4754 46.5033 40.2671 46.1908C40.0588 45.8668 39.9546 45.4386 39.9546 44.9063C39.9546 44.3508 40.1108 43.8648 40.4233 43.4482C40.7358 43.0316 41.1755 42.7134 41.7425 42.4935C42.3212 42.262 43.0039 42.1463 43.7908 42.1463C44.3926 42.1463 45.0002 42.2215 45.6135 42.372C46.2384 42.5108 46.7476 42.7134 47.141 42.9795L46.4293 44.2988C46.0127 44.021 45.5788 43.8301 45.1275 43.7259C44.6761 43.6218 44.2248 43.5697 43.7735 43.5697C43.0444 43.5697 42.5005 43.6912 42.1418 43.9342C41.783 44.1657 41.6037 44.4666 41.6037 44.8369C41.6037 45.1493 41.7078 45.3924 41.9161 45.5659C42.136 45.7279 42.4137 45.8552 42.7493 45.9478C43.0965 46.0404 43.4784 46.1214 43.895 46.1908C44.3116 46.2487 44.7282 46.3297 45.1448 46.4339C45.5614 46.5264 45.9375 46.6595 46.2731 46.8331C46.6203 47.0067 46.898 47.2497 47.1063 47.5622C47.3262 47.8746 47.4361 48.2912 47.4361 48.812C47.4361 49.3674 47.2741 49.8477 46.9501 50.2527C46.6261 50.6578 46.169 50.976 45.5788 51.2074C44.9886 51.4273 44.2827 51.5373 43.461 51.5373ZM52.678 51.5373C51.7522 51.5373 51.0347 51.2885 50.5255 50.7908C50.0164 50.2932 49.7618 49.5815 49.7618 48.6557V40.2195H51.4282V48.5863C51.4282 49.0839 51.5497 49.4658 51.7927 49.732C52.0473 49.9981 52.406 50.1312 52.8689 50.1312C53.3897 50.1312 53.8236 49.9866 54.1708 49.6973L54.6916 50.895C54.437 51.1149 54.1303 51.2769 53.7716 51.381C53.4244 51.4852 53.0599 51.5373 52.678 51.5373ZM48.1995 43.6044V42.2331H54.0667V43.6044H48.1995ZM55.9465 47.3886V45.9478H60.616V47.3886H55.9465ZM74.6905 42.1463C75.4311 42.1463 76.0849 42.291 76.652 42.5803C77.219 42.8696 77.6588 43.3093 77.9712 43.8995C78.2952 44.4897 78.4572 45.2361 78.4572 46.1388V51.4331H76.7908V46.3297C76.7908 45.4386 76.5825 44.7674 76.1659 44.3161C75.7493 43.8648 75.1649 43.6391 74.4127 43.6391C73.8572 43.6391 73.3712 43.7549 72.9546 43.9863C72.538 44.2178 72.214 44.5591 71.9825 45.0105C71.7627 45.4618 71.6527 46.023 71.6527 46.6942V51.4331H69.9863V46.3297C69.9863 45.4386 69.778 44.7674 69.3614 44.3161C68.9564 43.8648 68.372 43.6391 67.6082 43.6391C67.0643 43.6391 66.584 43.7549 66.1674 43.9863C65.7508 44.2178 65.4268 44.5591 65.1954 45.0105C64.9639 45.4618 64.8482 46.023 64.8482 46.6942V51.4331H63.1818V42.2331H64.7788V44.6807L64.5184 44.0557C64.8077 43.454 65.2532 42.9853 65.855 42.6497C66.4567 42.3141 67.1569 42.1463 67.9554 42.1463C68.8349 42.1463 69.5928 42.3662 70.2293 42.8059C70.8658 43.2341 71.2824 43.8879 71.4791 44.7674L70.8022 44.4897C71.0799 43.7838 71.5659 43.2168 72.2603 42.7886C72.9546 42.3604 73.7647 42.1463 74.6905 42.1463ZM81.5235 51.4331V42.2331H83.1899V51.4331H81.5235ZM82.3567 40.4625C82.0326 40.4625 81.7607 40.3584 81.5408 40.1501C81.3325 39.9418 81.2284 39.6872 81.2284 39.3863C81.2284 39.0739 81.3325 38.8135 81.5408 38.6052C81.7607 38.3969 82.0326 38.2927 82.3567 38.2927C82.6807 38.2927 82.9469 38.3969 83.1552 38.6052C83.375 38.8019 83.485 39.0507 83.485 39.3516C83.485 39.664 83.3808 39.9302 83.1725 40.1501C82.9642 40.3584 82.6923 40.4625 82.3567 40.4625ZM86.3716 51.4331V38.5531H88.038V51.4331H86.3716ZM95.3164 51.5373C94.3328 51.5373 93.4648 51.3347 92.7126 50.9297C91.972 50.5247 91.3934 49.9692 90.9768 49.2633C90.5718 48.5574 90.3692 47.7473 90.3692 46.8331C90.3692 45.9189 90.566 45.1088 90.9594 44.4029C91.3645 43.697 91.9141 43.1473 92.6085 42.7539C93.3144 42.3488 94.1071 42.1463 94.9866 42.1463C95.8777 42.1463 96.6646 42.343 97.3474 42.7365C98.0301 43.13 98.5624 43.6854 98.9443 44.4029C99.3378 45.1088 99.5345 45.9363 99.5345 46.8852C99.5345 46.9546 99.5287 47.0356 99.5172 47.1282C99.5172 47.2208 99.5114 47.3076 99.4998 47.3886H91.6711V46.1908H98.6319L97.9549 46.6074C97.9665 46.0173 97.845 45.4907 97.5904 45.0278C97.3358 44.5649 96.9828 44.2062 96.5315 43.9516C96.0918 43.6854 95.5768 43.5524 94.9866 43.5524C94.408 43.5524 93.893 43.6854 93.4417 43.9516C92.9904 44.2062 92.6374 44.5707 92.3828 45.0452C92.1282 45.5081 92.0009 46.0404 92.0009 46.6422V46.9199C92.0009 47.5332 92.1398 48.0829 92.4175 48.569C92.7068 49.0434 93.1061 49.4137 93.6153 49.6799C94.1245 49.9461 94.7089 50.0791 95.3685 50.0791C95.9124 50.0791 96.4042 49.9866 96.844 49.8014C97.2953 49.6163 97.6887 49.3385 98.0243 48.9682L98.9443 50.0444C98.5277 50.5305 98.007 50.9008 97.3821 51.1554C96.7687 51.41 96.0802 51.5373 95.3164 51.5373ZM109.669 51.5373C108.744 51.5373 108.026 51.2885 107.517 50.7908C107.008 50.2932 106.753 49.5815 106.753 48.6557V40.2195H108.42V48.5863C108.42 49.0839 108.541 49.4658 108.784 49.732C109.039 49.9981 109.397 50.1312 109.86 50.1312C110.381 50.1312 110.815 49.9866 111.162 49.6973L111.683 50.895C111.428 51.1149 111.122 51.2769 110.763 51.381C110.416 51.4852 110.051 51.5373 109.669 51.5373ZM105.191 43.6044V42.2331H111.058V43.6044H105.191ZM113.698 51.4331V42.2331H115.295V44.7327L115.138 44.1078C115.393 43.4713 115.821 42.9853 116.423 42.6497C117.025 42.3141 117.765 42.1463 118.645 42.1463V43.7607C118.575 43.7491 118.506 43.7433 118.437 43.7433C118.379 43.7433 118.321 43.7433 118.263 43.7433C117.372 43.7433 116.666 44.0095 116.145 44.5418C115.624 45.0741 115.364 45.8437 115.364 46.8505V51.4331H113.698ZM125.732 51.4331V49.489L125.645 49.1244V45.809C125.645 45.103 125.437 44.5591 125.02 44.1773C124.615 43.7838 124.002 43.5871 123.18 43.5871C122.636 43.5871 122.104 43.6796 121.583 43.8648C121.062 44.0384 120.622 44.2756 120.264 44.5765L119.569 43.3267C120.044 42.9448 120.611 42.6555 121.27 42.4588C121.942 42.2505 122.642 42.1463 123.371 42.1463C124.632 42.1463 125.604 42.453 126.287 43.0663C126.97 43.6796 127.311 44.617 127.311 45.8784V51.4331H125.732ZM122.711 51.5373C122.028 51.5373 121.427 51.4215 120.906 51.1901C120.397 50.9586 120.003 50.6404 119.726 50.2354C119.448 49.8188 119.309 49.3501 119.309 48.8293C119.309 48.3317 119.425 47.8804 119.656 47.4754C119.899 47.0703 120.287 46.7463 120.819 46.5033C121.363 46.2603 122.092 46.1388 123.006 46.1388H125.923V47.3365H123.076C122.243 47.3365 121.681 47.4754 121.392 47.7531C121.103 48.0308 120.958 48.3664 120.958 48.7599C120.958 49.2112 121.137 49.5757 121.496 49.8535C121.855 50.1196 122.352 50.2527 122.989 50.2527C123.614 50.2527 124.158 50.1139 124.621 49.8361C125.095 49.5584 125.437 49.1534 125.645 48.621L125.975 49.7667C125.755 50.3106 125.367 50.7446 124.812 51.0686C124.256 51.381 123.556 51.5373 122.711 51.5373ZM135.308 42.1463C136.06 42.1463 136.719 42.291 137.286 42.5803C137.865 42.8696 138.316 43.3093 138.64 43.8995C138.964 44.4897 139.126 45.2361 139.126 46.1388V51.4331H137.46V46.3297C137.46 45.4386 137.24 44.7674 136.8 44.3161C136.372 43.8648 135.765 43.6391 134.978 43.6391C134.388 43.6391 133.873 43.7549 133.433 43.9863C132.993 44.2178 132.652 44.5591 132.409 45.0105C132.177 45.4618 132.061 46.023 132.061 46.6942V51.4331H130.395V42.2331H131.992V44.7154L131.732 44.0557C132.033 43.454 132.495 42.9853 133.12 42.6497C133.745 42.3141 134.474 42.1463 135.308 42.1463ZM144.849 51.5373C144.085 51.5373 143.356 51.4331 142.662 51.2248C141.979 51.0165 141.441 50.7619 141.047 50.461L141.742 49.1418C142.135 49.4079 142.621 49.6336 143.2 49.8188C143.778 50.0039 144.369 50.0965 144.97 50.0965C145.746 50.0965 146.301 49.9866 146.637 49.7667C146.984 49.5468 147.158 49.2401 147.158 48.8467C147.158 48.5574 147.053 48.3317 146.845 48.1697C146.637 48.0077 146.359 47.8862 146.012 47.8052C145.676 47.7242 145.3 47.6547 144.884 47.5969C144.467 47.5274 144.05 47.4464 143.634 47.3539C143.217 47.2497 142.835 47.1108 142.488 46.9373C142.141 46.7521 141.863 46.5033 141.655 46.1908C141.447 45.8668 141.342 45.4386 141.342 44.9063C141.342 44.3508 141.499 43.8648 141.811 43.4482C142.124 43.0316 142.563 42.7134 143.13 42.4935C143.709 42.262 144.392 42.1463 145.179 42.1463C145.78 42.1463 146.388 42.2215 147.001 42.372C147.626 42.5108 148.135 42.7134 148.529 42.9795L147.817 44.2988C147.401 44.021 146.967 43.8301 146.515 43.7259C146.064 43.6218 145.613 43.5697 145.161 43.5697C144.432 43.5697 143.888 43.6912 143.53 43.9342C143.171 44.1657 142.991 44.4666 142.991 44.8369C142.991 45.1493 143.096 45.3924 143.304 45.5659C143.524 45.7279 143.802 45.8552 144.137 45.9478C144.484 46.0404 144.866 46.1214 145.283 46.1908C145.699 46.2487 146.116 46.3297 146.533 46.4339C146.949 46.5264 147.325 46.6595 147.661 46.8331C148.008 47.0067 148.286 47.2497 148.494 47.5622C148.714 47.8746 148.824 48.2912 148.824 48.812C148.824 49.3674 148.662 49.8477 148.338 50.2527C148.014 50.6578 147.557 50.976 146.967 51.2074C146.376 51.4273 145.67 51.5373 144.849 51.5373ZM155.784 51.5373C155.021 51.5373 154.32 51.3637 153.684 51.0165C153.059 50.6578 152.556 50.1312 152.174 49.4369C151.803 48.7425 151.618 47.8746 151.618 46.8331C151.618 45.7916 151.798 44.9237 152.156 44.2293C152.527 43.535 153.024 43.0142 153.649 42.6671C154.286 42.3199 154.997 42.1463 155.784 42.1463C156.687 42.1463 157.485 42.343 158.18 42.7365C158.874 43.13 159.424 43.6796 159.829 44.3856C160.234 45.0799 160.436 45.8957 160.436 46.8331C160.436 47.7705 160.234 48.5921 159.829 49.298C159.424 50.0039 158.874 50.5536 158.18 50.9471C157.485 51.3405 156.687 51.5373 155.784 51.5373ZM150.907 54.8007V42.2331H152.504V44.7154L152.399 46.8505L152.573 48.9856V54.8007H150.907ZM155.645 50.0791C156.236 50.0791 156.762 49.9461 157.225 49.6799C157.7 49.4137 158.07 49.0376 158.336 48.5516C158.614 48.054 158.753 47.4812 158.753 46.8331C158.753 46.1735 158.614 45.6064 158.336 45.132C158.07 44.6459 157.7 44.2698 157.225 44.0037C156.762 43.7375 156.236 43.6044 155.645 43.6044C155.067 43.6044 154.54 43.7375 154.066 44.0037C153.603 44.2698 153.233 44.6459 152.955 45.132C152.689 45.6064 152.556 46.1735 152.556 46.8331C152.556 47.4812 152.689 48.054 152.955 48.5516C153.233 49.0376 153.603 49.4137 154.066 49.6799C154.54 49.9461 155.067 50.0791 155.645 50.0791ZM166.679 51.5373C165.753 51.5373 164.932 51.3347 164.214 50.9297C163.497 50.5247 162.93 49.9692 162.513 49.2633C162.097 48.5458 161.888 47.7357 161.888 46.8331C161.888 45.9189 162.097 45.1088 162.513 44.4029C162.93 43.697 163.497 43.1473 164.214 42.7539C164.932 42.3488 165.753 42.1463 166.679 42.1463C167.593 42.1463 168.409 42.3488 169.127 42.7539C169.856 43.1473 170.423 43.697 170.828 44.4029C171.244 45.0973 171.453 45.9073 171.453 46.8331C171.453 47.7473 171.244 48.5574 170.828 49.2633C170.423 49.9692 169.856 50.5247 169.127 50.9297C168.409 51.3347 167.593 51.5373 166.679 51.5373ZM166.679 50.0791C167.269 50.0791 167.796 49.9461 168.259 49.6799C168.733 49.4137 169.104 49.0376 169.37 48.5516C169.636 48.054 169.769 47.4812 169.769 46.8331C169.769 46.1735 169.636 45.6064 169.37 45.132C169.104 44.6459 168.733 44.2698 168.259 44.0037C167.796 43.7375 167.269 43.6044 166.679 43.6044C166.089 43.6044 165.562 43.7375 165.1 44.0037C164.637 44.2698 164.266 44.6459 163.989 45.132C163.711 45.6064 163.572 46.1735 163.572 46.8331C163.572 47.4812 163.711 48.054 163.989 48.5516C164.266 49.0376 164.637 49.4137 165.1 49.6799C165.562 49.9461 166.089 50.0791 166.679 50.0791ZM173.757 51.4331V42.2331H175.354V44.7327L175.198 44.1078C175.453 43.4713 175.881 42.9853 176.483 42.6497C177.084 42.3141 177.825 42.1463 178.705 42.1463V43.7607C178.635 43.7491 178.566 43.7433 178.496 43.7433C178.438 43.7433 178.381 43.7433 178.323 43.7433C177.432 43.7433 176.726 44.0095 176.205 44.5418C175.684 45.0741 175.424 45.8437 175.424 46.8505V51.4331H173.757ZM184.291 51.5373C183.365 51.5373 182.647 51.2885 182.138 50.7908C181.629 50.2932 181.374 49.5815 181.374 48.6557V40.2195H183.041V48.5863C183.041 49.0839 183.162 49.4658 183.405 49.732C183.66 49.9981 184.019 50.1312 184.482 50.1312C185.002 50.1312 185.436 49.9866 185.783 49.6973L186.304 50.895C186.05 51.1149 185.743 51.2769 185.384 51.381C185.037 51.4852 184.672 51.5373 184.291 51.5373ZM179.812 43.6044V42.2331H185.679V43.6044H179.812Z" fill="#252B42"/>
<path d="M21.4549 80.0255C20.8127 80.0255 20.2138 79.9083 19.6583 79.6739C19.1029 79.4309 18.6168 79.0968 18.2002 78.6715C17.7836 78.2375 17.4582 77.7385 17.2238 77.1743C16.9982 76.6102 16.8853 76.007 16.8853 75.3647C16.8853 74.7138 16.9982 74.1105 17.2238 73.5551C17.4582 72.9909 17.7793 72.4962 18.1872 72.0709C18.6038 71.6456 19.0855 71.3158 19.6323 71.0815C20.1878 70.8472 20.7866 70.73 21.4289 70.73C22.0712 70.73 22.6657 70.8472 23.2125 71.0815C23.768 71.3158 24.254 71.6456 24.6706 72.0709C25.0872 72.4962 25.4127 72.9909 25.647 73.5551C25.8814 74.1192 25.9985 74.7268 25.9985 75.3777C25.9985 76.02 25.8814 76.6232 25.647 77.1873C25.4127 77.7515 25.0872 78.2462 24.6706 78.6715C24.2627 79.0968 23.781 79.4309 23.2255 79.6739C22.6787 79.9083 22.0885 80.0255 21.4549 80.0255ZM21.4289 78.8538C22.0799 78.8538 22.6483 78.7062 23.1344 78.4111C23.6291 78.1073 24.0197 77.6951 24.3061 77.1743C24.5925 76.6449 24.7357 76.0417 24.7357 75.3647C24.7357 74.8613 24.6532 74.4013 24.4883 73.9847C24.3234 73.5594 24.0934 73.1905 23.7983 72.8781C23.5032 72.5656 23.1561 72.327 22.7568 72.1621C22.3576 71.9885 21.9149 71.9017 21.4289 71.9017C20.7866 71.9017 20.2182 72.0492 19.7234 72.3443C19.2374 72.6394 18.8512 73.0473 18.5648 73.5681C18.287 74.0888 18.1482 74.6877 18.1482 75.3647C18.1482 75.8681 18.2263 76.3368 18.3825 76.7707C18.5474 77.196 18.7731 77.5649 19.0595 77.8773C19.3546 78.1811 19.7017 78.4198 20.101 78.5934C20.5089 78.767 20.9516 78.8538 21.4289 78.8538ZM29.9556 80.0255C29.4522 80.0255 28.9965 79.9126 28.5886 79.687C28.1893 79.4526 27.8769 79.1315 27.6512 78.7236C27.4256 78.3156 27.3127 77.8426 27.3127 77.3045V73.7113H28.4844V77.2524C28.4844 77.5909 28.5408 77.886 28.6537 78.1377C28.7752 78.3807 28.9488 78.5673 29.1744 78.6975C29.4001 78.8277 29.6648 78.8928 29.9686 78.8928C30.4286 78.8928 30.7888 78.7496 31.0491 78.4632C31.3095 78.1681 31.4397 77.7645 31.4397 77.2524V73.7113H32.6114V77.3045C32.6114 77.8426 32.4986 78.3156 32.2729 78.7236C32.0473 79.1315 31.7348 79.4526 31.3356 79.687C30.945 79.9126 30.485 80.0255 29.9556 80.0255ZM35.1322 79.8953V71.1205H36.3039V79.8953H35.1322ZM33.609 74.7788V73.7113H37.8271V74.7788H33.609ZM40.8136 80.0255C40.4664 80.0255 40.1366 79.9821 39.8242 79.8953C39.5204 79.7998 39.2383 79.6696 38.9779 79.5047C38.7176 79.3311 38.4919 79.1272 38.301 78.8928L39.056 78.1377C39.2817 78.4155 39.5421 78.6238 39.8372 78.7626C40.1323 78.8928 40.4621 78.9579 40.8266 78.9579C41.1911 78.9579 41.4732 78.8972 41.6728 78.7756C41.8725 78.6455 41.9723 78.4675 41.9723 78.2419C41.9723 78.0162 41.8898 77.8426 41.7249 77.7211C41.5687 77.5909 41.3647 77.4868 41.113 77.4087C40.8613 77.3219 40.5923 77.2394 40.3059 77.1613C40.0281 77.0745 39.7634 76.966 39.5117 76.8358C39.26 76.7056 39.0517 76.5277 38.8868 76.3021C38.7306 76.0764 38.6525 75.777 38.6525 75.4038C38.6525 75.0305 38.7436 74.7094 38.9259 74.4404C39.1081 74.1626 39.3598 73.95 39.681 73.8024C40.0108 73.6549 40.4057 73.5811 40.8657 73.5811C41.3517 73.5811 41.7813 73.6679 42.1545 73.8415C42.5364 74.0064 42.8489 74.2581 43.0919 74.5966L42.3368 75.3517C42.1632 75.126 41.9462 74.9524 41.6859 74.8309C41.4342 74.7094 41.1477 74.6487 40.8266 74.6487C40.4881 74.6487 40.2277 74.7094 40.0455 74.8309C39.8719 74.9438 39.7851 75.1043 39.7851 75.3126C39.7851 75.5209 39.8632 75.6815 40.0194 75.7943C40.1757 75.9072 40.3796 76.0026 40.6313 76.0807C40.8917 76.1588 41.1608 76.2413 41.4385 76.3281C41.7162 76.4062 41.981 76.5147 42.2327 76.6536C42.4843 76.7924 42.6883 76.979 42.8445 77.2134C43.0094 77.4477 43.0919 77.7558 43.0919 78.1377C43.0919 78.7192 42.8836 79.1792 42.467 79.5177C42.0591 79.8562 41.5079 80.0255 40.8136 80.0255ZM47.2287 80.0255C46.6212 80.0255 46.0744 79.8822 45.5884 79.5958C45.1023 79.3094 44.7161 78.9232 44.4297 78.4372C44.1433 77.9424 44.0001 77.3913 44.0001 76.7838C44.0001 76.1849 44.1433 75.6468 44.4297 75.1694C44.7161 74.6834 45.1023 74.2972 45.5884 74.0107C46.0744 73.7243 46.6212 73.5811 47.2287 73.5811C47.8276 73.5811 48.3701 73.7243 48.8561 74.0107C49.3508 74.2885 49.7414 74.6704 50.0278 75.1564C50.3142 75.6424 50.4574 76.1849 50.4574 76.7838C50.4574 77.3913 50.3142 77.9424 50.0278 78.4372C49.7414 78.9232 49.3508 79.3094 48.8561 79.5958C48.3701 79.8822 47.8276 80.0255 47.2287 80.0255ZM47.2287 78.8928C47.6193 78.8928 47.9665 78.8017 48.2703 78.6194C48.574 78.4372 48.8127 78.1898 48.9863 77.8773C49.1599 77.5562 49.2467 77.1917 49.2467 76.7838C49.2467 76.3845 49.1555 76.0287 48.9733 75.7162C48.7997 75.4038 48.561 75.1607 48.2572 74.9872C47.9621 74.8049 47.6193 74.7138 47.2287 74.7138C46.8382 74.7138 46.491 74.8049 46.1872 74.9872C45.8835 75.1607 45.6448 75.4038 45.4712 75.7162C45.2976 76.0287 45.2108 76.3845 45.2108 76.7838C45.2108 77.1917 45.2976 77.5562 45.4712 77.8773C45.6448 78.1898 45.8835 78.4372 46.1872 78.6194C46.491 78.8017 46.8382 78.8928 47.2287 78.8928ZM54.2642 80.0255C53.7608 80.0255 53.3052 79.9126 52.8972 79.687C52.498 79.4526 52.1855 79.1315 51.9599 78.7236C51.7342 78.3156 51.6214 77.8426 51.6214 77.3045V73.7113H52.7931V77.2524C52.7931 77.5909 52.8495 77.886 52.9623 78.1377C53.0838 78.3807 53.2574 78.5673 53.4831 78.6975C53.7088 78.8277 53.9735 78.8928 54.2772 78.8928C54.7372 78.8928 55.0974 78.7496 55.3578 78.4632C55.6182 78.1681 55.7484 77.7645 55.7484 77.2524V73.7113H56.9201V77.3045C56.9201 77.8426 56.8072 78.3156 56.5816 78.7236C56.3559 79.1315 56.0435 79.4526 55.6442 79.687C55.2537 79.9126 54.7937 80.0255 54.2642 80.0255ZM58.4905 79.8953V73.7113H59.6622V79.8953H58.4905ZM59.6622 76.3672L59.2195 76.1719C59.2195 75.3821 59.4018 74.7528 59.7663 74.2841C60.1308 73.8155 60.6559 73.5811 61.3416 73.5811C61.6541 73.5811 61.9361 73.6375 62.1878 73.7504C62.4395 73.8545 62.6739 74.0324 62.8908 74.2841L62.1227 75.0783C61.9925 74.9394 61.8493 74.8396 61.6931 74.7788C61.5369 74.7181 61.3546 74.6877 61.1463 74.6877C60.7124 74.6877 60.3565 74.8266 60.0788 75.1043C59.801 75.3821 59.6622 75.803 59.6622 76.3672ZM66.3375 80.0255C65.7299 80.0255 65.1788 79.8822 64.6841 79.5958C64.1981 79.3094 63.8118 78.9232 63.5254 78.4372C63.2477 77.9424 63.1088 77.3956 63.1088 76.7968C63.1088 76.1892 63.2477 75.6424 63.5254 75.1564C63.8118 74.6704 64.1981 74.2885 64.6841 74.0107C65.1788 73.7243 65.7299 73.5811 66.3375 73.5811C66.8149 73.5811 67.2575 73.6722 67.6654 73.8545C68.0733 74.0281 68.4249 74.2841 68.7199 74.6226L67.9388 75.4038C67.7479 75.1781 67.5135 75.0088 67.2358 74.896C66.9667 74.7745 66.6673 74.7138 66.3375 74.7138C65.9469 74.7138 65.5998 74.8049 65.296 74.9872C64.9922 75.1607 64.7535 75.4038 64.5799 75.7162C64.4064 76.0287 64.3196 76.3888 64.3196 76.7968C64.3196 77.2047 64.4064 77.5649 64.5799 77.8773C64.7535 78.1898 64.9922 78.4372 65.296 78.6194C65.5998 78.8017 65.9469 78.8928 66.3375 78.8928C66.6673 78.8928 66.9667 78.8364 67.2358 78.7236C67.5135 78.6021 67.7522 78.4285 67.9518 78.2028L68.7199 78.9839C68.4335 79.3138 68.082 79.5698 67.6654 79.7521C67.2575 79.9343 66.8149 80.0255 66.3375 80.0255ZM72.619 80.0255C72.0028 80.0255 71.4473 79.8866 70.9526 79.6088C70.4579 79.3224 70.0673 78.9362 69.7809 78.4502C69.4945 77.9641 69.3513 77.413 69.3513 76.7968C69.3513 76.1892 69.4901 75.6424 69.7679 75.1564C70.0543 74.6704 70.4362 74.2885 70.9135 74.0107C71.3996 73.7243 71.942 73.5811 72.5409 73.5811C73.1137 73.5811 73.6171 73.7113 74.0511 73.9717C74.4937 74.2321 74.8365 74.5922 75.0796 75.0522C75.3313 75.5122 75.4571 76.033 75.4571 76.6145C75.4571 76.7013 75.4528 76.7968 75.4441 76.9009C75.4354 76.9964 75.4181 77.1092 75.392 77.2394H70.1714V76.263H74.7671L74.3375 76.6405C74.3375 76.2239 74.2637 75.8724 74.1162 75.586C73.9686 75.2909 73.7603 75.0653 73.4913 74.909C73.2222 74.7441 72.8967 74.6617 72.5148 74.6617C72.1156 74.6617 71.7641 74.7485 71.4603 74.9221C71.1565 75.0956 70.9222 75.3387 70.7573 75.6511C70.5924 75.9636 70.5099 76.3324 70.5099 76.7577C70.5099 77.1917 70.5967 77.5736 70.7703 77.9034C70.9439 78.2245 71.1913 78.4762 71.5124 78.6585C71.8335 78.8321 72.2024 78.9188 72.619 78.9188C72.9662 78.9188 73.283 78.8581 73.5694 78.7366C73.8645 78.6151 74.1162 78.4328 74.3245 78.1898L75.0796 78.9579C74.7845 79.3051 74.4199 79.5698 73.986 79.7521C73.5607 79.9343 73.105 80.0255 72.619 80.0255ZM81.2133 79.8953L78.7657 73.7113H79.9895L81.7601 78.5283H81.3695L83.1271 73.7113H83.804L85.5616 78.5283H85.171L86.9416 73.7113H88.1654L85.7308 79.8953H85.0408L83.2572 75.2215H83.6869L81.8903 79.8953H81.2133ZM91.854 80.0255C91.2464 80.0255 90.6996 79.8822 90.2136 79.5958C89.7275 79.3094 89.3413 78.9232 89.0549 78.4372C88.7685 77.9424 88.6253 77.3913 88.6253 76.7838C88.6253 76.1849 88.7685 75.6468 89.0549 75.1694C89.3413 74.6834 89.7275 74.2972 90.2136 74.0107C90.6996 73.7243 91.2464 73.5811 91.854 73.5811C92.4528 73.5811 92.9953 73.7243 93.4813 74.0107C93.976 74.2885 94.3666 74.6704 94.653 75.1564C94.9394 75.6424 95.0826 76.1849 95.0826 76.7838C95.0826 77.3913 94.9394 77.9424 94.653 78.4372C94.3666 78.9232 93.976 79.3094 93.4813 79.5958C92.9953 79.8822 92.4528 80.0255 91.854 80.0255ZM91.854 78.8928C92.2445 78.8928 92.5917 78.8017 92.8955 78.6194C93.1992 78.4372 93.4379 78.1898 93.6115 77.8773C93.7851 77.5562 93.8719 77.1917 93.8719 76.7838C93.8719 76.3845 93.7808 76.0287 93.5985 75.7162C93.4249 75.4038 93.1862 75.1607 92.8825 74.9872C92.5874 74.8049 92.2445 74.7138 91.854 74.7138C91.4634 74.7138 91.1162 74.8049 90.8125 74.9872C90.5087 75.1607 90.27 75.4038 90.0964 75.7162C89.9228 76.0287 89.836 76.3845 89.836 76.7838C89.836 77.1917 89.9228 77.5562 90.0964 77.8773C90.27 78.1898 90.5087 78.4372 90.8125 78.6194C91.1162 78.8017 91.4634 78.8928 91.854 78.8928ZM96.4028 79.8953V73.7113H97.5745V79.8953H96.4028ZM97.5745 76.3672L97.1319 76.1719C97.1319 75.3821 97.3142 74.7528 97.6787 74.2841C98.0432 73.8155 98.5683 73.5811 99.254 73.5811C99.5664 73.5811 99.8485 73.6375 100.1 73.7504C100.352 73.8545 100.586 74.0324 100.803 74.2841L100.035 75.0783C99.9049 74.9394 99.7617 74.8396 99.6055 74.7788C99.4493 74.7181 99.267 74.6877 99.0587 74.6877C98.6247 74.6877 98.2689 74.8266 97.9911 75.1043C97.7134 75.3821 97.5745 75.803 97.5745 76.3672ZM105.586 79.8953L102.696 76.7317L105.56 73.7113H106.979L103.789 77.0441L103.841 76.3672L107.096 79.8953H105.586ZM101.628 79.8953V70.5998H102.8V79.8953H101.628ZM113.437 80.0255C112.864 80.0255 112.352 79.8866 111.901 79.6088C111.449 79.3224 111.089 78.9362 110.82 78.4502C110.56 77.9641 110.43 77.4173 110.43 76.8098C110.43 76.2022 110.56 75.6555 110.82 75.1694C111.089 74.6834 111.449 74.2972 111.901 74.0107C112.352 73.7243 112.864 73.5811 113.437 73.5811C113.897 73.5811 114.314 73.6809 114.687 73.8805C115.06 74.0715 115.359 74.3405 115.585 74.6877C115.819 75.0262 115.95 75.4211 115.976 75.8724V77.7341C115.95 78.1768 115.824 78.5717 115.598 78.9188C115.372 79.266 115.073 79.5394 114.7 79.739C114.327 79.93 113.906 80.0255 113.437 80.0255ZM113.632 78.9188C114.023 78.9188 114.361 78.8277 114.648 78.6455C114.943 78.4632 115.173 78.2158 115.338 77.9034C115.503 77.5822 115.585 77.2177 115.585 76.8098C115.585 76.3845 115.498 76.0156 115.325 75.7032C115.16 75.3907 114.93 75.1434 114.635 74.9611C114.348 74.7788 114.01 74.6877 113.619 74.6877C113.229 74.6877 112.886 74.7788 112.591 74.9611C112.296 75.1434 112.061 75.3951 111.888 75.7162C111.723 76.0287 111.64 76.3888 111.64 76.7968C111.64 77.2134 111.723 77.5822 111.888 77.9034C112.061 78.2158 112.296 78.4632 112.591 78.6455C112.895 78.8277 113.242 78.9188 113.632 78.9188ZM116.692 79.8953H115.507V78.2288L115.728 76.7187L115.507 75.2215V70.5998H116.692V79.8953ZM120.884 80.0255C120.381 80.0255 119.925 79.9126 119.517 79.687C119.118 79.4526 118.806 79.1315 118.58 78.7236C118.354 78.3156 118.241 77.8426 118.241 77.3045V73.7113H119.413V77.2524C119.413 77.5909 119.469 77.886 119.582 78.1377C119.704 78.3807 119.877 78.5673 120.103 78.6975C120.329 78.8277 120.593 78.8928 120.897 78.8928C121.357 78.8928 121.717 78.7496 121.978 78.4632C122.238 78.1681 122.368 77.7645 122.368 77.2524V73.7113H123.54V77.3045C123.54 77.8426 123.427 78.3156 123.202 78.7236C122.976 79.1315 122.663 79.4526 122.264 79.687C121.874 79.9126 121.414 80.0255 120.884 80.0255ZM125.11 79.8953V73.7113H126.282V79.8953H125.11ZM126.282 76.3672L125.84 76.1719C125.84 75.3821 126.022 74.7528 126.386 74.2841C126.751 73.8155 127.276 73.5811 127.962 73.5811C128.274 73.5811 128.556 73.6375 128.808 73.7504C129.06 73.8545 129.294 74.0324 129.511 74.2841L128.743 75.0783C128.613 74.9394 128.469 74.8396 128.313 74.7788C128.157 74.7181 127.975 74.6877 127.766 74.6877C127.332 74.6877 126.976 74.8266 126.699 75.1043C126.421 75.3821 126.282 75.803 126.282 76.3672ZM130.349 79.8953V73.7113H131.521V79.8953H130.349ZM130.935 72.4745C130.718 72.4745 130.54 72.4051 130.401 72.2662C130.262 72.1187 130.193 71.9364 130.193 71.7194C130.193 71.5111 130.262 71.3375 130.401 71.1987C130.54 71.0511 130.718 70.9773 130.935 70.9773C131.152 70.9773 131.33 71.0511 131.468 71.1987C131.607 71.3375 131.677 71.5111 131.677 71.7194C131.677 71.9364 131.607 72.1187 131.468 72.2662C131.33 72.4051 131.152 72.4745 130.935 72.4745ZM137.622 79.8953V76.289C137.622 75.8204 137.474 75.4341 137.179 75.1304C136.884 74.8266 136.502 74.6747 136.033 74.6747C135.721 74.6747 135.443 74.7441 135.2 74.883C134.957 75.0219 134.766 75.2128 134.627 75.4558C134.488 75.6988 134.419 75.9766 134.419 76.289L133.937 76.0156C133.937 75.547 134.041 75.1304 134.25 74.7658C134.458 74.4013 134.749 74.1149 135.122 73.9066C135.495 73.6896 135.916 73.5811 136.385 73.5811C136.853 73.5811 137.266 73.6983 137.622 73.9326C137.986 74.167 138.273 74.4751 138.481 74.857C138.689 75.2302 138.793 75.6294 138.793 76.0547V79.8953H137.622ZM133.247 79.8953V73.7113H134.419V79.8953H133.247ZM142.944 82.6162C142.311 82.6162 141.747 82.499 141.252 82.2647C140.766 82.0304 140.375 81.7005 140.08 81.2753L140.835 80.5072C141.087 80.8283 141.386 81.0713 141.734 81.2362C142.081 81.4098 142.493 81.4966 142.97 81.4966C143.604 81.4966 144.103 81.3273 144.468 80.9888C144.841 80.659 145.027 80.2121 145.027 79.6479V78.1117L145.236 76.7187L145.027 75.3387V73.7113H146.199V79.6479C146.199 80.2381 146.06 80.7545 145.782 81.1972C145.513 81.6398 145.132 81.987 144.637 82.2387C144.151 82.4904 143.587 82.6162 142.944 82.6162ZM142.944 79.7911C142.38 79.7911 141.872 79.6566 141.421 79.3875C140.979 79.1185 140.627 78.7496 140.367 78.2809C140.106 77.8036 139.976 77.2698 139.976 76.6796C139.976 76.0894 140.106 75.5643 140.367 75.1043C140.627 74.6356 140.979 74.2668 141.421 73.9977C141.872 73.72 142.38 73.5811 142.944 73.5811C143.43 73.5811 143.86 73.6766 144.233 73.8675C144.606 74.0585 144.902 74.3275 145.119 74.6747C145.344 75.0132 145.466 75.4124 145.483 75.8724V77.5128C145.457 77.9641 145.331 78.3634 145.106 78.7105C144.889 79.049 144.593 79.3138 144.22 79.5047C143.847 79.6956 143.422 79.7911 142.944 79.7911ZM143.179 78.6845C143.561 78.6845 143.895 78.6021 144.181 78.4372C144.476 78.2722 144.702 78.0422 144.858 77.7472C145.014 77.4434 145.092 77.0919 145.092 76.6926C145.092 76.2934 145.01 75.9462 144.845 75.6511C144.689 75.3473 144.468 75.113 144.181 74.9481C143.895 74.7745 143.556 74.6877 143.166 74.6877C142.775 74.6877 142.432 74.7745 142.137 74.9481C141.842 75.113 141.608 75.3473 141.434 75.6511C141.269 75.9462 141.187 76.289 141.187 76.6796C141.187 77.0702 141.269 77.4173 141.434 77.7211C141.608 78.0249 141.842 78.2636 142.137 78.4372C142.441 78.6021 142.788 78.6845 143.179 78.6845ZM153.882 80.0255C153.413 80.0255 152.988 79.93 152.606 79.739C152.233 79.5394 151.933 79.266 151.707 78.9188C151.482 78.5717 151.356 78.1768 151.33 77.7341V75.8724C151.356 75.4211 151.482 75.0262 151.707 74.6877C151.942 74.3405 152.246 74.0715 152.619 73.8805C153.001 73.6809 153.422 73.5811 153.882 73.5811C154.446 73.5811 154.954 73.7243 155.405 74.0107C155.865 74.2972 156.225 74.6834 156.485 75.1694C156.746 75.6555 156.876 76.2022 156.876 76.8098C156.876 77.4173 156.746 77.9641 156.485 78.4502C156.225 78.9362 155.865 79.3224 155.405 79.6088C154.954 79.8866 154.446 80.0255 153.882 80.0255ZM153.686 78.9188C154.077 78.9188 154.42 78.8277 154.715 78.6455C155.01 78.4632 155.244 78.2158 155.418 77.9034C155.591 77.5822 155.678 77.2134 155.678 76.7968C155.678 76.3888 155.591 76.0243 155.418 75.7032C155.244 75.3821 155.01 75.1347 154.715 74.9611C154.42 74.7788 154.081 74.6877 153.699 74.6877C153.309 74.6877 152.966 74.7788 152.671 74.9611C152.376 75.1347 152.146 75.3821 151.981 75.7032C151.816 76.0243 151.734 76.3932 151.734 76.8098C151.734 77.2177 151.812 77.5822 151.968 77.9034C152.133 78.2158 152.363 78.4632 152.658 78.6455C152.962 78.8277 153.304 78.9188 153.686 78.9188ZM150.627 82.486V73.7113H151.799V75.3387L151.577 76.8358L151.799 78.346V82.486H150.627ZM161.068 80.0255C160.452 80.0255 159.897 79.8866 159.402 79.6088C158.907 79.3224 158.517 78.9362 158.23 78.4502C157.944 77.9641 157.801 77.413 157.801 76.7968C157.801 76.1892 157.94 75.6424 158.217 75.1564C158.504 74.6704 158.886 74.2885 159.363 74.0107C159.849 73.7243 160.391 73.5811 160.99 73.5811C161.563 73.5811 162.067 73.7113 162.501 73.9717C162.943 74.2321 163.286 74.5922 163.529 75.0522C163.781 75.5122 163.907 76.033 163.907 76.6145C163.907 76.7013 163.902 76.7968 163.894 76.9009C163.885 76.9964 163.868 77.1092 163.841 77.2394H158.621V76.263H163.217L162.787 76.6405C162.787 76.2239 162.713 75.8724 162.566 75.586C162.418 75.2909 162.21 75.0653 161.941 74.909C161.672 74.7441 161.346 74.6617 160.964 74.6617C160.565 74.6617 160.214 74.7485 159.91 74.9221C159.606 75.0956 159.372 75.3387 159.207 75.6511C159.042 75.9636 158.959 76.3324 158.959 76.7577C158.959 77.1917 159.046 77.5736 159.22 77.9034C159.393 78.2245 159.641 78.4762 159.962 78.6585C160.283 78.8321 160.652 78.9188 161.068 78.9188C161.416 78.9188 161.732 78.8581 162.019 78.7366C162.314 78.6151 162.566 78.4328 162.774 78.1898L163.529 78.9579C163.234 79.3051 162.869 79.5698 162.435 79.7521C162.01 79.9343 161.555 80.0255 161.068 80.0255ZM167.814 80.0255C167.25 80.0255 166.738 79.8866 166.278 79.6088C165.818 79.3224 165.453 78.9362 165.184 78.4502C164.924 77.9641 164.794 77.4173 164.794 76.8098C164.794 76.2022 164.924 75.6555 165.184 75.1694C165.453 74.6834 165.813 74.2972 166.265 74.0107C166.725 73.7243 167.241 73.5811 167.814 73.5811C168.283 73.5811 168.699 73.6809 169.064 73.8805C169.437 74.0715 169.736 74.3405 169.962 74.6877C170.188 75.0262 170.314 75.4211 170.34 75.8724V77.7341C170.314 78.1768 170.188 78.5717 169.962 78.9188C169.745 79.266 169.45 79.5394 169.077 79.739C168.712 79.93 168.291 80.0255 167.814 80.0255ZM168.009 78.9188C168.591 78.9188 169.059 78.7236 169.415 78.333C169.771 77.9338 169.949 77.426 169.949 76.8098C169.949 76.3845 169.867 76.0156 169.702 75.7032C169.545 75.3821 169.32 75.1347 169.025 74.9611C168.73 74.7788 168.387 74.6877 167.996 74.6877C167.606 74.6877 167.259 74.7788 166.955 74.9611C166.66 75.1434 166.425 75.3951 166.252 75.7162C166.087 76.0287 166.004 76.3888 166.004 76.7968C166.004 77.2134 166.087 77.5822 166.252 77.9034C166.425 78.2158 166.664 78.4632 166.968 78.6455C167.272 78.8277 167.619 78.9188 168.009 78.9188ZM169.871 79.8953V78.2288L170.092 76.7187L169.871 75.2215V73.7113H171.056V79.8953H169.871ZM176.719 79.8953L173.829 76.7317L176.693 73.7113H178.112L174.923 77.0441L174.975 76.3672L178.229 79.8953H176.719ZM172.762 79.8953V70.5998H173.933V79.8953H172.762ZM20.3874 99.0255C19.9187 99.0255 19.4934 98.93 19.1116 98.739C18.7383 98.5394 18.4389 98.266 18.2132 97.9188C17.9876 97.5717 17.8617 97.1768 17.8357 96.7341V94.8724C17.8617 94.4211 17.9876 94.0262 18.2132 93.6877C18.4476 93.3405 18.7514 93.0715 19.1246 92.8805C19.5065 92.6809 19.9274 92.5811 20.3874 92.5811C20.9516 92.5811 21.4593 92.7243 21.9106 93.0107C22.3706 93.2972 22.7308 93.6834 22.9912 94.1694C23.2516 94.6555 23.3817 95.2022 23.3817 95.8098C23.3817 96.4173 23.2516 96.9641 22.9912 97.4502C22.7308 97.9362 22.3706 98.3224 21.9106 98.6088C21.4593 98.8866 20.9516 99.0255 20.3874 99.0255ZM20.1921 97.9188C20.5827 97.9188 20.9255 97.8277 21.2206 97.6455C21.5157 97.4632 21.75 97.2158 21.9236 96.9034C22.0972 96.5822 22.184 96.2134 22.184 95.7968C22.184 95.3888 22.0972 95.0243 21.9236 94.7032C21.75 94.3821 21.5157 94.1347 21.2206 93.9611C20.9255 93.7788 20.587 93.6877 20.2051 93.6877C19.8146 93.6877 19.4717 93.7788 19.1766 93.9611C18.8816 94.1347 18.6516 94.3821 18.4866 94.7032C18.3217 95.0243 18.2393 95.3932 18.2393 95.8098C18.2393 96.2177 18.3174 96.5822 18.4736 96.9034C18.6385 97.2158 18.8685 97.4632 19.1636 97.6455C19.4674 97.8277 19.8102 97.9188 20.1921 97.9188ZM17.1327 101.486V92.7113H18.3044V94.3387L18.0831 95.8358L18.3044 97.346V101.486H17.1327ZM27.5742 99.0255C26.958 99.0255 26.4025 98.8866 25.9078 98.6088C25.4131 98.3224 25.0225 97.9362 24.7361 97.4502C24.4497 96.9641 24.3065 96.413 24.3065 95.7968C24.3065 95.1892 24.4454 94.6424 24.7231 94.1564C25.0095 93.6704 25.3914 93.2885 25.8687 93.0107C26.3548 92.7243 26.8972 92.5811 27.4961 92.5811C28.0689 92.5811 28.5723 92.7113 29.0063 92.9717C29.4489 93.2321 29.7918 93.5922 30.0348 94.0522C30.2865 94.5122 30.4123 95.033 30.4123 95.6145C30.4123 95.7013 30.408 95.7968 30.3993 95.9009C30.3906 95.9964 30.3733 96.1092 30.3472 96.2394H25.1267V95.263H29.7223L29.2927 95.6405C29.2927 95.2239 29.2189 94.8724 29.0714 94.586C28.9238 94.2909 28.7155 94.0653 28.4465 93.909C28.1774 93.7441 27.852 93.6617 27.4701 93.6617C27.0708 93.6617 26.7193 93.7485 26.4155 93.9221C26.1118 94.0956 25.8774 94.3387 25.7125 94.6511C25.5476 94.9636 25.4652 95.3324 25.4652 95.7577C25.4652 96.1917 25.552 96.5736 25.7255 96.9034C25.8991 97.2245 26.1465 97.4762 26.4676 97.6585C26.7887 97.8321 27.1576 97.9188 27.5742 97.9188C27.9214 97.9188 28.2382 97.8581 28.5246 97.7366C28.8197 97.6151 29.0714 97.4328 29.2797 97.1898L30.0348 97.9579C29.7397 98.3051 29.3752 98.5698 28.9412 98.7521C28.5159 98.9343 28.0603 99.0255 27.5742 99.0255ZM31.6899 98.8953V92.7113H32.8616V98.8953H31.6899ZM32.8616 95.3672L32.419 95.1719C32.419 94.3821 32.6012 93.7528 32.9658 93.2841C33.3303 92.8155 33.8554 92.5811 34.541 92.5811C34.8535 92.5811 35.1356 92.6375 35.3873 92.7504C35.639 92.8545 35.8733 93.0324 36.0903 93.2841L35.3222 94.0783C35.192 93.9394 35.0488 93.8396 34.8926 93.7788C34.7363 93.7181 34.5541 93.6877 34.3458 93.6877C33.9118 93.6877 33.556 93.8266 33.2782 94.1043C33.0005 94.3821 32.8616 94.803 32.8616 95.3672ZM36.9283 98.8953V92.7113H38.1V98.8953H36.9283ZM37.5141 91.4745C37.2971 91.4745 37.1192 91.4051 36.9804 91.2662C36.8415 91.1187 36.7721 90.9364 36.7721 90.7194C36.7721 90.5111 36.8415 90.3375 36.9804 90.1987C37.1192 90.0511 37.2971 89.9773 37.5141 89.9773C37.7311 89.9773 37.909 90.0511 38.0479 90.1987C38.1868 90.3375 38.2562 90.5111 38.2562 90.7194C38.2562 90.9364 38.1868 91.1187 38.0479 91.2662C37.909 91.4051 37.7311 91.4745 37.5141 91.4745ZM42.6518 99.0255C42.0443 99.0255 41.4975 98.8822 41.0114 98.5958C40.5254 98.3094 40.1392 97.9232 39.8527 97.4372C39.5663 96.9424 39.4231 96.3913 39.4231 95.7838C39.4231 95.1849 39.5663 94.6468 39.8527 94.1694C40.1392 93.6834 40.5254 93.2972 41.0114 93.0107C41.4975 92.7243 42.0443 92.5811 42.6518 92.5811C43.2507 92.5811 43.7931 92.7243 44.2792 93.0107C44.7739 93.2885 45.1644 93.6704 45.4509 94.1564C45.7373 94.6424 45.8805 95.1849 45.8805 95.7838C45.8805 96.3913 45.7373 96.9424 45.4509 97.4372C45.1644 97.9232 44.7739 98.3094 44.2792 98.5958C43.7931 98.8822 43.2507 99.0255 42.6518 99.0255ZM42.6518 97.8928C43.0424 97.8928 43.3895 97.8017 43.6933 97.6194C43.9971 97.4372 44.2358 97.1898 44.4093 96.8773C44.5829 96.5562 44.6697 96.1917 44.6697 95.7838C44.6697 95.3845 44.5786 95.0287 44.3963 94.7162C44.2227 94.4038 43.9841 94.1607 43.6803 93.9872C43.3852 93.8049 43.0424 93.7138 42.6518 93.7138C42.2612 93.7138 41.9141 93.8049 41.6103 93.9872C41.3065 94.1607 41.0678 94.4038 40.8943 94.7162C40.7207 95.0287 40.6339 95.3845 40.6339 95.7838C40.6339 96.1917 40.7207 96.5562 40.8943 96.8773C41.0678 97.1898 41.3065 97.4372 41.6103 97.6194C41.9141 97.8017 42.2612 97.8928 42.6518 97.8928ZM49.8175 99.0255C49.2446 99.0255 48.7326 98.8866 48.2812 98.6088C47.8299 98.3224 47.4697 97.9362 47.2007 97.4502C46.9403 96.9641 46.8101 96.4173 46.8101 95.8098C46.8101 95.2022 46.9403 94.6555 47.2007 94.1694C47.4697 93.6834 47.8299 93.2972 48.2812 93.0107C48.7326 92.7243 49.2446 92.5811 49.8175 92.5811C50.2775 92.5811 50.6941 92.6809 51.0673 92.8805C51.4405 93.0715 51.7399 93.3405 51.9656 93.6877C52.1999 94.0262 52.3301 94.4211 52.3561 94.8724V96.7341C52.3301 97.1768 52.2043 97.5717 51.9786 97.9188C51.7529 98.266 51.4535 98.5394 51.0803 98.739C50.7071 98.93 50.2861 99.0255 49.8175 99.0255ZM50.0127 97.9188C50.4033 97.9188 50.7418 97.8277 51.0282 97.6455C51.3233 97.4632 51.5533 97.2158 51.7182 96.9034C51.8831 96.5822 51.9656 96.2177 51.9656 95.8098C51.9656 95.3845 51.8788 95.0156 51.7052 94.7032C51.5403 94.3907 51.3103 94.1434 51.0152 93.9611C50.7288 93.7788 50.3903 93.6877 49.9997 93.6877C49.6092 93.6877 49.2663 93.7788 48.9712 93.9611C48.6761 94.1434 48.4418 94.3951 48.2682 94.7162C48.1033 95.0287 48.0209 95.3888 48.0209 95.7968C48.0209 96.2134 48.1033 96.5822 48.2682 96.9034C48.4418 97.2158 48.6761 97.4632 48.9712 97.6455C49.275 97.8277 49.6222 97.9188 50.0127 97.9188ZM53.0722 98.8953H51.8875V97.2288L52.1088 95.7187L51.8875 94.2215V89.5998H53.0722V98.8953ZM56.7439 99.0255C56.3967 99.0255 56.0669 98.9821 55.7545 98.8953C55.4507 98.7998 55.1686 98.6696 54.9082 98.5047C54.6479 98.3311 54.4222 98.1272 54.2313 97.8928L54.9864 97.1377C55.212 97.4155 55.4724 97.6238 55.7675 97.7626C56.0626 97.8928 56.3924 97.9579 56.7569 97.9579C57.1215 97.9579 57.4035 97.8972 57.6032 97.7756C57.8028 97.6455 57.9026 97.4675 57.9026 97.2419C57.9026 97.0162 57.8201 96.8426 57.6552 96.7211C57.499 96.5909 57.295 96.4868 57.0433 96.4087C56.7916 96.3219 56.5226 96.2394 56.2362 96.1613C55.9584 96.0745 55.6937 95.966 55.442 95.8358C55.1903 95.7056 54.982 95.5277 54.8171 95.3021C54.6609 95.0764 54.5828 94.777 54.5828 94.4038C54.5828 94.0305 54.6739 93.7094 54.8562 93.4404C55.0384 93.1626 55.2901 92.95 55.6113 92.8024C55.9411 92.6549 56.336 92.5811 56.796 92.5811C57.282 92.5811 57.7116 92.6679 58.0849 92.8415C58.4667 93.0064 58.7792 93.2581 59.0222 93.5966L58.2671 94.3517C58.0935 94.126 57.8766 93.9524 57.6162 93.8309C57.3645 93.7094 57.0781 93.6487 56.7569 93.6487C56.4184 93.6487 56.1581 93.7094 55.9758 93.8309C55.8022 93.9438 55.7154 94.1043 55.7154 94.3126C55.7154 94.5209 55.7935 94.6815 55.9498 94.7943C56.106 94.9072 56.3099 95.0026 56.5616 95.0807C56.822 95.1588 57.0911 95.2413 57.3688 95.3281C57.6466 95.4062 57.9113 95.5147 58.163 95.6536C58.4147 95.7924 58.6186 95.979 58.7749 96.2134C58.9398 96.4477 59.0222 96.7558 59.0222 97.1377C59.0222 97.7192 58.8139 98.1792 58.3973 98.5177C57.9894 98.8562 57.4382 99.0255 56.7439 99.0255ZM65.6718 99.0255C65.1077 99.0255 64.5956 98.8866 64.1356 98.6088C63.6756 98.3224 63.311 97.9362 63.042 97.4502C62.7816 96.9641 62.6514 96.4173 62.6514 95.8098C62.6514 95.2022 62.7816 94.6555 63.042 94.1694C63.311 93.6834 63.6712 93.2972 64.1226 93.0107C64.5826 92.7243 65.099 92.5811 65.6718 92.5811C66.1405 92.5811 66.5571 92.6809 66.9216 92.8805C67.2948 93.0715 67.5943 93.3405 67.8199 93.6877C68.0456 94.0262 68.1714 94.4211 68.1975 94.8724V96.7341C68.1714 97.1768 68.0456 97.5717 67.8199 97.9188C67.6029 98.266 67.3078 98.5394 66.9346 98.739C66.5701 98.93 66.1492 99.0255 65.6718 99.0255ZM65.8671 97.9188C66.4486 97.9188 66.9173 97.7236 67.2731 97.333C67.629 96.9338 67.8069 96.426 67.8069 95.8098C67.8069 95.3845 67.7244 95.0156 67.5595 94.7032C67.4033 94.3821 67.1777 94.1347 66.8826 93.9611C66.5875 93.7788 66.2446 93.6877 65.8541 93.6877C65.4635 93.6877 65.1163 93.7788 64.8126 93.9611C64.5175 94.1434 64.2831 94.3951 64.1095 94.7162C63.9446 95.0287 63.8622 95.3888 63.8622 95.7968C63.8622 96.2134 63.9446 96.5822 64.1095 96.9034C64.2831 97.2158 64.5218 97.4632 64.8256 97.6455C65.1294 97.8277 65.4765 97.9188 65.8671 97.9188ZM67.7288 98.8953V97.2288L67.9501 95.7187L67.7288 94.2215V92.7113H68.9135V98.8953H67.7288ZM74.9937 98.8953V95.289C74.9937 94.8204 74.8462 94.4341 74.5511 94.1304C74.256 93.8266 73.8741 93.6747 73.4054 93.6747C73.093 93.6747 72.8152 93.7441 72.5722 93.883C72.3292 94.0219 72.1382 94.2128 71.9994 94.4558C71.8605 94.6988 71.7911 94.9766 71.7911 95.289L71.3094 95.0156C71.3094 94.547 71.4135 94.1304 71.6218 93.7658C71.8301 93.4013 72.1209 93.1149 72.4941 92.9066C72.8673 92.6896 73.2882 92.5811 73.7569 92.5811C74.2256 92.5811 74.6379 92.6983 74.9937 92.9326C75.3582 93.167 75.6447 93.4751 75.853 93.857C76.0613 94.2302 76.1654 94.6294 76.1654 95.0547V98.8953H74.9937ZM70.6194 98.8953V92.7113H71.7911V98.8953H70.6194ZM80.3686 99.0255C79.7957 99.0255 79.2837 98.8866 78.8324 98.6088C78.381 98.3224 78.0208 97.9362 77.7518 97.4502C77.4914 96.9641 77.3612 96.4173 77.3612 95.8098C77.3612 95.2022 77.4914 94.6555 77.7518 94.1694C78.0208 93.6834 78.381 93.2972 78.8324 93.0107C79.2837 92.7243 79.7957 92.5811 80.3686 92.5811C80.8286 92.5811 81.2452 92.6809 81.6184 92.8805C81.9916 93.0715 82.291 93.3405 82.5167 93.6877C82.751 94.0262 82.8812 94.4211 82.9073 94.8724V96.7341C82.8812 97.1768 82.7554 97.5717 82.5297 97.9188C82.304 98.266 82.0046 98.5394 81.6314 98.739C81.2582 98.93 80.8373 99.0255 80.3686 99.0255ZM80.5639 97.9188C80.9544 97.9188 81.2929 97.8277 81.5793 97.6455C81.8744 97.4632 82.1044 97.2158 82.2693 96.9034C82.4342 96.5822 82.5167 96.2177 82.5167 95.8098C82.5167 95.3845 82.4299 95.0156 82.2563 94.7032C82.0914 94.3907 81.8614 94.1434 81.5663 93.9611C81.2799 93.7788 80.9414 93.6877 80.5508 93.6877C80.1603 93.6877 79.8174 93.7788 79.5224 93.9611C79.2273 94.1434 78.9929 94.3951 78.8193 94.7162C78.6544 95.0287 78.572 95.3888 78.572 95.7968C78.572 96.2134 78.6544 96.5822 78.8193 96.9034C78.9929 97.2158 79.2273 97.4632 79.5224 97.6455C79.8261 97.8277 80.1733 97.9188 80.5639 97.9188ZM83.6233 98.8953H82.4386V97.2288L82.6599 95.7187L82.4386 94.2215V89.5998H83.6233V98.8953ZM88.9876 98.8953V90.1205H90.1593V98.8953H88.9876ZM87.4644 93.7788V92.7113H91.6825V93.7788H87.4644ZM95.2694 99.0255C94.7052 99.0255 94.1932 98.8866 93.7332 98.6088C93.2732 98.3224 92.9086 97.9362 92.6396 97.4502C92.3792 96.9641 92.249 96.4173 92.249 95.8098C92.249 95.2022 92.3792 94.6555 92.6396 94.1694C92.9086 93.6834 93.2688 93.2972 93.7201 93.0107C94.1801 92.7243 94.6966 92.5811 95.2694 92.5811C95.7381 92.5811 96.1547 92.6809 96.5192 92.8805C96.8924 93.0715 97.1918 93.3405 97.4175 93.6877C97.6432 94.0262 97.769 94.4211 97.795 94.8724V96.7341C97.769 97.1768 97.6432 97.5717 97.4175 97.9188C97.2005 98.266 96.9054 98.5394 96.5322 98.739C96.1677 98.93 95.7467 99.0255 95.2694 99.0255ZM95.4647 97.9188C96.0462 97.9188 96.5149 97.7236 96.8707 97.333C97.2266 96.9338 97.4045 96.426 97.4045 95.8098C97.4045 95.3845 97.322 95.0156 97.1571 94.7032C97.0009 94.3821 96.7752 94.1347 96.4801 93.9611C96.185 93.7788 95.8422 93.6877 95.4516 93.6877C95.0611 93.6877 94.7139 93.7788 94.4101 93.9611C94.115 94.1434 93.8807 94.3951 93.7071 94.7162C93.5422 95.0287 93.4598 95.3888 93.4598 95.7968C93.4598 96.2134 93.5422 96.5822 93.7071 96.9034C93.8807 97.2158 94.1194 97.4632 94.4232 97.6455C94.7269 97.8277 95.0741 97.9188 95.4647 97.9188ZM97.3264 98.8953V97.2288L97.5477 95.7187L97.3264 94.2215V92.7113H98.5111V98.8953H97.3264ZM104.279 98.8953L102.352 96.1873L102.131 95.979L99.6962 92.7113H101.115L102.873 95.1198L103.094 95.3021L105.698 98.8953H104.279ZM99.579 98.8953L102.131 95.4583L102.795 96.3175L100.959 98.8953H99.579ZM103.185 95.966L102.508 95.1328L104.214 92.7113H105.581L103.185 95.966ZM111.451 99.0255C111.104 99.0255 110.774 98.9821 110.462 98.8953C110.158 98.7998 109.876 98.6696 109.615 98.5047C109.355 98.3311 109.129 98.1272 108.938 97.8928L109.694 97.1377C109.919 97.4155 110.18 97.6238 110.475 97.7626C110.77 97.8928 111.1 97.9579 111.464 97.9579C111.829 97.9579 112.111 97.8972 112.31 97.7756C112.51 97.6455 112.61 97.4675 112.61 97.2419C112.61 97.0162 112.527 96.8426 112.362 96.7211C112.206 96.5909 112.002 96.4868 111.751 96.4087C111.499 96.3219 111.23 96.2394 110.943 96.1613C110.666 96.0745 110.401 95.966 110.149 95.8358C109.898 95.7056 109.689 95.5277 109.524 95.3021C109.368 95.0764 109.29 94.777 109.29 94.4038C109.29 94.0305 109.381 93.7094 109.563 93.4404C109.746 93.1626 109.997 92.95 110.318 92.8024C110.648 92.6549 111.043 92.5811 111.503 92.5811C111.989 92.5811 112.419 92.6679 112.792 92.8415C113.174 93.0064 113.486 93.2581 113.729 93.5966L112.974 94.3517C112.801 94.126 112.584 93.9524 112.323 93.8309C112.072 93.7094 111.785 93.6487 111.464 93.6487C111.126 93.6487 110.865 93.7094 110.683 93.8309C110.509 93.9438 110.423 94.1043 110.423 94.3126C110.423 94.5209 110.501 94.6815 110.657 94.7943C110.813 94.9072 111.017 95.0026 111.269 95.0807C111.529 95.1588 111.798 95.2413 112.076 95.3281C112.354 95.4062 112.618 95.5147 112.87 95.6536C113.122 95.7924 113.326 95.979 113.482 96.2134C113.647 96.4477 113.729 96.7558 113.729 97.1377C113.729 97.7192 113.521 98.1792 113.105 98.5177C112.697 98.8562 112.145 99.0255 111.451 99.0255ZM117.905 99.0255C117.289 99.0255 116.734 98.8866 116.239 98.6088C115.744 98.3224 115.354 97.9362 115.067 97.4502C114.781 96.9641 114.638 96.413 114.638 95.7968C114.638 95.1892 114.776 94.6424 115.054 94.1564C115.341 93.6704 115.722 93.2885 116.2 93.0107C116.686 92.7243 117.228 92.5811 117.827 92.5811C118.4 92.5811 118.903 92.7113 119.337 92.9717C119.78 93.2321 120.123 93.5922 120.366 94.0522C120.618 94.5122 120.743 95.033 120.743 95.6145C120.743 95.7013 120.739 95.7968 120.73 95.9009C120.722 95.9964 120.704 96.1092 120.678 96.2394H115.458V95.263H120.053L119.624 95.6405C119.624 95.2239 119.55 94.8724 119.402 94.586C119.255 94.2909 119.047 94.0653 118.778 93.909C118.509 93.7441 118.183 93.6617 117.801 93.6617C117.402 93.6617 117.05 93.7485 116.747 93.9221C116.443 94.0956 116.209 94.3387 116.044 94.6511C115.879 94.9636 115.796 95.3324 115.796 95.7577C115.796 96.1917 115.883 96.5736 116.057 96.9034C116.23 97.2245 116.478 97.4762 116.799 97.6585C117.12 97.8321 117.489 97.9188 117.905 97.9188C118.252 97.9188 118.569 97.8581 118.856 97.7366C119.151 97.6151 119.402 97.4328 119.611 97.1898L120.366 97.9579C120.071 98.3051 119.706 98.5698 119.272 98.7521C118.847 98.9343 118.391 99.0255 117.905 99.0255ZM124.651 99.0255C124.087 99.0255 123.575 98.8866 123.115 98.6088C122.655 98.3224 122.29 97.9362 122.021 97.4502C121.761 96.9641 121.63 96.4173 121.63 95.8098C121.63 95.2022 121.761 94.6555 122.021 94.1694C122.29 93.6834 122.65 93.2972 123.102 93.0107C123.562 92.7243 124.078 92.5811 124.651 92.5811C125.12 92.5811 125.536 92.6809 125.901 92.8805C126.274 93.0715 126.573 93.3405 126.799 93.6877C127.025 94.0262 127.15 94.4211 127.176 94.8724V96.7341C127.15 97.1768 127.025 97.5717 126.799 97.9188C126.582 98.266 126.287 98.5394 125.914 98.739C125.549 98.93 125.128 99.0255 124.651 99.0255ZM124.846 97.9188C125.428 97.9188 125.896 97.7236 126.252 97.333C126.608 96.9338 126.786 96.426 126.786 95.8098C126.786 95.3845 126.703 95.0156 126.539 94.7032C126.382 94.3821 126.157 94.1347 125.862 93.9611C125.566 93.7788 125.224 93.6877 124.833 93.6877C124.443 93.6877 124.095 93.7788 123.792 93.9611C123.496 94.1434 123.262 94.3951 123.089 94.7162C122.924 95.0287 122.841 95.3888 122.841 95.7968C122.841 96.2134 122.924 96.5822 123.089 96.9034C123.262 97.2158 123.501 97.4632 123.805 97.6455C124.108 97.8277 124.456 97.9188 124.846 97.9188ZM126.708 98.8953V97.2288L126.929 95.7187L126.708 94.2215V92.7113H127.893V98.8953H126.708ZM131.564 99.0255C131.217 99.0255 130.887 98.9821 130.575 98.8953C130.271 98.7998 129.989 98.6696 129.729 98.5047C129.468 98.3311 129.243 98.1272 129.052 97.8928L129.807 97.1377C130.032 97.4155 130.293 97.6238 130.588 97.7626C130.883 97.8928 131.213 97.9579 131.577 97.9579C131.942 97.9579 132.224 97.8972 132.424 97.7756C132.623 97.6455 132.723 97.4675 132.723 97.2419C132.723 97.0162 132.64 96.8426 132.476 96.7211C132.319 96.5909 132.115 96.4868 131.864 96.4087C131.612 96.3219 131.343 96.2394 131.057 96.1613C130.779 96.0745 130.514 95.966 130.262 95.8358C130.011 95.7056 129.802 95.5277 129.637 95.3021C129.481 95.0764 129.403 94.777 129.403 94.4038C129.403 94.0305 129.494 93.7094 129.677 93.4404C129.859 93.1626 130.11 92.95 130.432 92.8024C130.761 92.6549 131.156 92.5811 131.616 92.5811C132.102 92.5811 132.532 92.6679 132.905 92.8415C133.287 93.0064 133.6 93.2581 133.843 93.5966L133.087 94.3517C132.914 94.126 132.697 93.9524 132.437 93.8309C132.185 93.7094 131.898 93.6487 131.577 93.6487C131.239 93.6487 130.978 93.7094 130.796 93.8309C130.623 93.9438 130.536 94.1043 130.536 94.3126C130.536 94.5209 130.614 94.6815 130.77 94.7943C130.926 94.9072 131.13 95.0026 131.382 95.0807C131.642 95.1588 131.911 95.2413 132.189 95.3281C132.467 95.4062 132.732 95.5147 132.983 95.6536C133.235 95.7924 133.439 95.979 133.595 96.2134C133.76 96.4477 133.843 96.7558 133.843 97.1377C133.843 97.7192 133.634 98.1792 133.218 98.5177C132.81 98.8562 132.259 99.0255 131.564 99.0255ZM137.979 99.0255C137.372 99.0255 136.825 98.8822 136.339 98.5958C135.853 98.3094 135.467 97.9232 135.18 97.4372C134.894 96.9424 134.751 96.3913 134.751 95.7838C134.751 95.1849 134.894 94.6468 135.18 94.1694C135.467 93.6834 135.853 93.2972 136.339 93.0107C136.825 92.7243 137.372 92.5811 137.979 92.5811C138.578 92.5811 139.121 92.7243 139.607 93.0107C140.101 93.2885 140.492 93.6704 140.778 94.1564C141.065 94.6424 141.208 95.1849 141.208 95.7838C141.208 96.3913 141.065 96.9424 140.778 97.4372C140.492 97.9232 140.101 98.3094 139.607 98.5958C139.121 98.8822 138.578 99.0255 137.979 99.0255ZM137.979 97.8928C138.37 97.8928 138.717 97.8017 139.021 97.6194C139.325 97.4372 139.563 97.1898 139.737 96.8773C139.911 96.5562 139.997 96.1917 139.997 95.7838C139.997 95.3845 139.906 95.0287 139.724 94.7162C139.55 94.4038 139.312 94.1607 139.008 93.9872C138.713 93.8049 138.37 93.7138 137.979 93.7138C137.589 93.7138 137.242 93.8049 136.938 93.9872C136.634 94.1607 136.395 94.4038 136.222 94.7162C136.048 95.0287 135.961 95.3845 135.961 95.7838C135.961 96.1917 136.048 96.5562 136.222 96.8773C136.395 97.1898 136.634 97.4372 136.938 97.6194C137.242 97.8017 137.589 97.8928 137.979 97.8928ZM146.903 98.8953V95.289C146.903 94.8204 146.755 94.4341 146.46 94.1304C146.165 93.8266 145.783 93.6747 145.314 93.6747C145.002 93.6747 144.724 93.7441 144.481 93.883C144.238 94.0219 144.047 94.2128 143.908 94.4558C143.769 94.6988 143.7 94.9766 143.7 95.289L143.218 95.0156C143.218 94.547 143.322 94.1304 143.531 93.7658C143.739 93.4013 144.03 93.1149 144.403 92.9066C144.776 92.6896 145.197 92.5811 145.666 92.5811C146.135 92.5811 146.547 92.6983 146.903 92.9326C147.267 93.167 147.554 93.4751 147.762 93.857C147.97 94.2302 148.074 94.6294 148.074 95.0547V98.8953H146.903ZM142.528 98.8953V92.7113H143.7V98.8953H142.528ZM151.627 99.0255C151.279 99.0255 150.95 98.9821 150.637 98.8953C150.333 98.7998 150.051 98.6696 149.791 98.5047C149.53 98.3311 149.305 98.1272 149.114 97.8928L149.869 97.1377C150.095 97.4155 150.355 97.6238 150.65 97.7626C150.945 97.8928 151.275 97.9579 151.64 97.9579C152.004 97.9579 152.286 97.8972 152.486 97.7756C152.685 97.6455 152.785 97.4675 152.785 97.2419C152.785 97.0162 152.703 96.8426 152.538 96.7211C152.382 96.5909 152.178 96.4868 151.926 96.4087C151.674 96.3219 151.405 96.2394 151.119 96.1613C150.841 96.0745 150.576 95.966 150.325 95.8358C150.073 95.7056 149.865 95.5277 149.7 95.3021C149.544 95.0764 149.465 94.777 149.465 94.4038C149.465 94.0305 149.557 93.7094 149.739 93.4404C149.921 93.1626 150.173 92.95 150.494 92.8024C150.824 92.6549 151.219 92.5811 151.679 92.5811C152.165 92.5811 152.594 92.6679 152.967 92.8415C153.349 93.0064 153.662 93.2581 153.905 93.5966L153.15 94.3517C152.976 94.126 152.759 93.9524 152.499 93.8309C152.247 93.7094 151.961 93.6487 151.64 93.6487C151.301 93.6487 151.041 93.7094 150.858 93.8309C150.685 93.9438 150.598 94.1043 150.598 94.3126C150.598 94.5209 150.676 94.6815 150.832 94.7943C150.989 94.9072 151.193 95.0026 151.444 95.0807C151.705 95.1588 151.974 95.2413 152.251 95.3281C152.529 95.4062 152.794 95.5147 153.046 95.6536C153.297 95.7924 153.501 95.979 153.657 96.2134C153.822 96.4477 153.905 96.7558 153.905 97.1377C153.905 97.7192 153.697 98.1792 153.28 98.5177C152.872 98.8562 152.321 99.0255 151.627 99.0255ZM158.81 98.8953V91.787C158.81 91.327 158.91 90.9277 159.109 90.5892C159.309 90.2421 159.582 89.9687 159.93 89.769C160.285 89.5694 160.698 89.4696 161.166 89.4696C161.522 89.4696 161.83 89.5304 162.091 89.6519C162.351 89.7734 162.59 89.9513 162.807 90.1856L162.039 90.9407C161.926 90.8192 161.8 90.7281 161.661 90.6673C161.522 90.5979 161.353 90.5632 161.153 90.5632C160.78 90.5632 160.489 90.6717 160.281 90.8887C160.081 91.1056 159.982 91.4051 159.982 91.787V98.8953H158.81ZM157.287 93.7788V92.7113H161.947V93.7788H157.287ZM165.594 99.0255C164.986 99.0255 164.439 98.8822 163.953 98.5958C163.467 98.3094 163.081 97.9232 162.795 97.4372C162.508 96.9424 162.365 96.3913 162.365 95.7838C162.365 95.1849 162.508 94.6468 162.795 94.1694C163.081 93.6834 163.467 93.2972 163.953 93.0107C164.439 92.7243 164.986 92.5811 165.594 92.5811C166.193 92.5811 166.735 92.7243 167.221 93.0107C167.716 93.2885 168.106 93.6704 168.393 94.1564C168.679 94.6424 168.822 95.1849 168.822 95.7838C168.822 96.3913 168.679 96.9424 168.393 97.4372C168.106 97.9232 167.716 98.3094 167.221 98.5958C166.735 98.8822 166.193 99.0255 165.594 99.0255ZM165.594 97.8928C165.984 97.8928 166.331 97.8017 166.635 97.6194C166.939 97.4372 167.178 97.1898 167.351 96.8773C167.525 96.5562 167.612 96.1917 167.612 95.7838C167.612 95.3845 167.52 95.0287 167.338 94.7162C167.165 94.4038 166.926 94.1607 166.622 93.9872C166.327 93.8049 165.984 93.7138 165.594 93.7138C165.203 93.7138 164.856 93.8049 164.552 93.9872C164.248 94.1607 164.01 94.4038 163.836 94.7162C163.663 95.0287 163.576 95.3845 163.576 95.7838C163.576 96.1917 163.663 96.5562 163.836 96.8773C164.01 97.1898 164.248 97.4372 164.552 97.6194C164.856 97.8017 165.203 97.8928 165.594 97.8928ZM170.143 98.8953V92.7113H171.314V98.8953H170.143ZM171.314 95.3672L170.872 95.1719C170.872 94.3821 171.054 93.7528 171.418 93.2841C171.783 92.8155 172.308 92.5811 172.994 92.5811C173.306 92.5811 173.588 92.6375 173.84 92.7504C174.092 92.8545 174.326 93.0324 174.543 93.2841L173.775 94.0783C173.645 93.9394 173.501 93.8396 173.345 93.7788C173.189 93.7181 173.007 93.6877 172.798 93.6877C172.364 93.6877 172.009 93.8266 171.731 94.1043C171.453 94.3821 171.314 94.803 171.314 95.3672ZM179.255 98.8953V90.1205H180.427V98.8953H179.255ZM177.732 93.7788V92.7113H181.95V93.7788H177.732ZM183.111 98.8953V92.7113H184.283V98.8953H183.111ZM183.697 91.4745C183.48 91.4745 183.302 91.4051 183.163 91.2662C183.024 91.1187 182.955 90.9364 182.955 90.7194C182.955 90.5111 183.024 90.3375 183.163 90.1987C183.302 90.0511 183.48 89.9773 183.697 89.9773C183.914 89.9773 184.092 90.0511 184.23 90.1987C184.369 90.3375 184.439 90.5111 184.439 90.7194C184.439 90.9364 184.369 91.1187 184.23 91.2662C184.092 91.4051 183.914 91.4745 183.697 91.4745ZM186.009 98.8953V92.7113H187.181V98.8953H186.009ZM190.188 98.8953V95.1588C190.188 94.6988 190.045 94.3387 189.759 94.0783C189.481 93.8092 189.129 93.6747 188.704 93.6747C188.418 93.6747 188.162 93.7355 187.936 93.857C187.71 93.9785 187.528 94.1477 187.389 94.3647C187.25 94.5817 187.181 94.8421 187.181 95.1458L186.699 94.9115C186.699 94.4428 186.799 94.0349 186.999 93.6877C187.207 93.3405 187.489 93.0715 187.845 92.8805C188.201 92.6809 188.6 92.5811 189.043 92.5811C189.477 92.5811 189.867 92.6766 190.214 92.8675C190.57 93.0585 190.848 93.3275 191.048 93.6747C191.256 94.0219 191.36 94.4341 191.36 94.9115V98.8953H190.188ZM194.367 98.8953V95.1588C194.367 94.6988 194.224 94.3387 193.938 94.0783C193.66 93.8092 193.313 93.6747 192.896 93.6747C192.61 93.6747 192.349 93.7355 192.115 93.857C191.889 93.9785 191.707 94.1477 191.568 94.3647C191.429 94.5817 191.36 94.8421 191.36 95.1458L190.696 94.9115C190.722 94.4341 190.848 94.0262 191.074 93.6877C191.308 93.3405 191.607 93.0715 191.972 92.8805C192.336 92.6809 192.736 92.5811 193.17 92.5811C193.621 92.5811 194.025 92.6766 194.38 92.8675C194.736 93.0585 195.018 93.3275 195.227 93.6747C195.444 94.0219 195.552 94.4385 195.552 94.9245V98.8953H194.367ZM200.011 99.0255C199.394 99.0255 198.839 98.8866 198.344 98.6088C197.85 98.3224 197.459 97.9362 197.173 97.4502C196.886 96.9641 196.743 96.413 196.743 95.7968C196.743 95.1892 196.882 94.6424 197.16 94.1564C197.446 93.6704 197.828 93.2885 198.305 93.0107C198.791 92.7243 199.334 92.5811 199.933 92.5811C200.505 92.5811 201.009 92.7113 201.443 92.9717C201.885 93.2321 202.228 93.5922 202.471 94.0522C202.723 94.5122 202.849 95.033 202.849 95.6145C202.849 95.7013 202.844 95.7968 202.836 95.9009C202.827 95.9964 202.81 96.1092 202.784 96.2394H197.563V95.263H202.159L201.729 95.6405C201.729 95.2239 201.655 94.8724 201.508 94.586C201.36 94.2909 201.152 94.0653 200.883 93.909C200.614 93.7441 200.288 93.6617 199.906 93.6617C199.507 93.6617 199.156 93.7485 198.852 93.9221C198.548 94.0956 198.314 94.3387 198.149 94.6511C197.984 94.9636 197.902 95.3324 197.902 95.7577C197.902 96.1917 197.988 96.5736 198.162 96.9034C198.336 97.2245 198.583 97.4762 198.904 97.6585C199.225 97.8321 199.594 97.9188 200.011 97.9188C200.358 97.9188 200.675 97.8581 200.961 97.7366C201.256 97.6151 201.508 97.4328 201.716 97.1898L202.471 97.9579C202.176 98.3051 201.812 98.5698 201.378 98.7521C200.952 98.9343 200.497 99.0255 200.011 99.0255ZM204.126 98.8953V89.5998H205.298V98.8953H204.126ZM209.043 98.9473L206.361 92.7113H207.663L209.655 97.5934H209.239L211.335 92.7113H212.637L209.746 98.9473H209.043ZM207.273 101.486L209.095 97.7496L209.746 98.9473L208.575 101.486H207.273ZM19.7625 118.025C19.1983 118.025 18.6863 117.887 18.2263 117.609C17.7663 117.322 17.4017 116.936 17.1327 116.45C16.8723 115.964 16.7421 115.417 16.7421 114.81C16.7421 114.202 16.8723 113.655 17.1327 113.169C17.4017 112.683 17.7619 112.297 18.2132 112.011C18.6732 111.724 19.1897 111.581 19.7625 111.581C20.2312 111.581 20.6478 111.681 21.0123 111.881C21.3855 112.071 21.6849 112.341 21.9106 112.688C22.1363 113.026 22.2621 113.421 22.2882 113.872V115.734C22.2621 116.177 22.1363 116.572 21.9106 116.919C21.6936 117.266 21.3985 117.539 21.0253 117.739C20.6608 117.93 20.2399 118.025 19.7625 118.025ZM19.9578 116.919C20.5393 116.919 21.008 116.724 21.3638 116.333C21.7197 115.934 21.8976 115.426 21.8976 114.81C21.8976 114.385 21.8151 114.016 21.6502 113.703C21.494 113.382 21.2683 113.135 20.9732 112.961C20.6782 112.779 20.3353 112.688 19.9448 112.688C19.5542 112.688 19.207 112.779 18.9032 112.961C18.6082 113.143 18.3738 113.395 18.2002 113.716C18.0353 114.029 17.9529 114.389 17.9529 114.797C17.9529 115.213 18.0353 115.582 18.2002 115.903C18.3738 116.216 18.6125 116.463 18.9163 116.645C19.22 116.828 19.5672 116.919 19.9578 116.919ZM21.8195 117.895V116.229L22.0408 114.719L21.8195 113.221V111.711H23.0042V117.895H21.8195ZM29.0844 117.895V114.289C29.0844 113.82 28.9369 113.434 28.6418 113.13C28.3467 112.827 27.9648 112.675 27.4961 112.675C27.1837 112.675 26.9059 112.744 26.6629 112.883C26.4199 113.022 26.2289 113.213 26.0901 113.456C25.9512 113.699 25.8818 113.977 25.8818 114.289L25.4001 114.016C25.4001 113.547 25.5042 113.13 25.7125 112.766C25.9208 112.401 26.2116 112.115 26.5848 111.907C26.958 111.69 27.3789 111.581 27.8476 111.581C28.3163 111.581 28.7286 111.698 29.0844 111.933C29.4489 112.167 29.7354 112.475 29.9437 112.857C30.152 113.23 30.2561 113.629 30.2561 114.055V117.895H29.0844ZM24.7101 117.895V111.711H25.8818V117.895H24.7101ZM34.4593 118.025C33.8864 118.025 33.3744 117.887 32.923 117.609C32.4717 117.322 32.1115 116.936 31.8425 116.45C31.5821 115.964 31.4519 115.417 31.4519 114.81C31.4519 114.202 31.5821 113.655 31.8425 113.169C32.1115 112.683 32.4717 112.297 32.923 112.011C33.3744 111.724 33.8864 111.581 34.4593 111.581C34.9193 111.581 35.3359 111.681 35.7091 111.881C36.0823 112.071 36.3817 112.341 36.6074 112.688C36.8417 113.026 36.9719 113.421 36.9979 113.872V115.734C36.9719 116.177 36.8461 116.572 36.6204 116.919C36.3947 117.266 36.0953 117.539 35.7221 117.739C35.3489 117.93 34.9279 118.025 34.4593 118.025ZM34.6546 116.919C35.0451 116.919 35.3836 116.828 35.67 116.645C35.9651 116.463 36.1951 116.216 36.36 115.903C36.5249 115.582 36.6074 115.218 36.6074 114.81C36.6074 114.385 36.5206 114.016 36.347 113.703C36.1821 113.391 35.9521 113.143 35.657 112.961C35.3706 112.779 35.0321 112.688 34.6415 112.688C34.251 112.688 33.9081 112.779 33.613 112.961C33.3179 113.143 33.0836 113.395 32.91 113.716C32.7451 114.029 32.6627 114.389 32.6627 114.797C32.6627 115.213 32.7451 115.582 32.91 115.903C33.0836 116.216 33.3179 116.463 33.613 116.645C33.9168 116.828 34.264 116.919 34.6546 116.919ZM37.714 117.895H36.5293V116.229L36.7506 114.719L36.5293 113.221V108.6H37.714V117.895ZM44.992 118.025C44.3758 118.025 43.8203 117.887 43.3256 117.609C42.8309 117.322 42.4403 116.936 42.1539 116.45C41.8675 115.964 41.7243 115.413 41.7243 114.797C41.7243 114.189 41.8632 113.642 42.1409 113.156C42.4273 112.67 42.8092 112.288 43.2866 112.011C43.7726 111.724 44.3151 111.581 44.9139 111.581C45.4868 111.581 45.9902 111.711 46.4241 111.972C46.8668 112.232 47.2096 112.592 47.4526 113.052C47.7043 113.512 47.8302 114.033 47.8302 114.615C47.8302 114.701 47.8258 114.797 47.8171 114.901C47.8085 114.996 47.7911 115.109 47.7651 115.239H42.5445V114.263H47.1402L46.7105 114.641C46.7105 114.224 46.6368 113.872 46.4892 113.586C46.3417 113.291 46.1334 113.065 45.8643 112.909C45.5953 112.744 45.2698 112.662 44.8879 112.662C44.4886 112.662 44.1371 112.748 43.8334 112.922C43.5296 113.096 43.2952 113.339 43.1303 113.651C42.9654 113.964 42.883 114.332 42.883 114.758C42.883 115.192 42.9698 115.574 43.1434 115.903C43.3169 116.225 43.5643 116.476 43.8854 116.658C44.2066 116.832 44.5754 116.919 44.992 116.919C45.3392 116.919 45.656 116.858 45.9424 116.737C46.2375 116.615 46.4892 116.433 46.6975 116.19L47.4526 116.958C47.1575 117.305 46.793 117.57 46.359 117.752C45.9337 117.934 45.4781 118.025 44.992 118.025ZM49.8023 117.895V111.034C49.8023 110.557 49.9021 110.14 50.1017 109.785C50.31 109.42 50.5965 109.134 50.961 108.925C51.3255 108.708 51.7465 108.6 52.2238 108.6C52.7099 108.6 53.1091 108.704 53.4216 108.912C53.734 109.121 53.964 109.407 54.1116 109.771C54.2678 110.127 54.3459 110.535 54.3459 110.995L53.4866 110.982C53.478 110.583 53.3695 110.266 53.1612 110.032C52.9529 109.789 52.6404 109.667 52.2238 109.667C51.8159 109.667 51.5034 109.789 51.2865 110.032C51.0782 110.266 50.974 110.592 50.974 111.008V117.895H49.8023ZM48.2791 112.779V111.711H56.6242V112.779H48.2791ZM53.4866 117.895V110.787C53.4866 110.327 53.5865 109.928 53.7861 109.589C53.9857 109.242 54.2591 108.969 54.6063 108.769C54.9621 108.569 55.3744 108.47 55.8431 108.47C56.1989 108.47 56.507 108.53 56.7674 108.652C57.0278 108.773 57.2665 108.951 57.4834 109.186L56.7153 109.941C56.6025 109.819 56.4766 109.728 56.3378 109.667C56.1989 109.598 56.0297 109.563 55.83 109.563C55.4568 109.563 55.1661 109.672 54.9578 109.889C54.7582 110.106 54.6583 110.405 54.6583 110.787V117.895H53.4866ZM57.8042 117.895V111.711H58.9759V117.895H57.8042ZM58.3901 110.475C58.1731 110.475 57.9952 110.405 57.8563 110.266C57.7174 110.119 57.648 109.936 57.648 109.719C57.648 109.511 57.7174 109.338 57.8563 109.199C57.9952 109.051 58.1731 108.977 58.3901 108.977C58.6071 108.977 58.785 109.051 58.9239 109.199C59.0627 109.338 59.1322 109.511 59.1322 109.719C59.1322 109.936 59.0627 110.119 58.9239 110.266C58.785 110.405 58.6071 110.475 58.3901 110.475ZM63.5278 118.025C62.9202 118.025 62.3691 117.882 61.8744 117.596C61.3883 117.309 61.0021 116.923 60.7157 116.437C60.4379 115.942 60.2991 115.396 60.2991 114.797C60.2991 114.189 60.4379 113.642 60.7157 113.156C61.0021 112.67 61.3883 112.288 61.8744 112.011C62.3691 111.724 62.9202 111.581 63.5278 111.581C64.0051 111.581 64.4478 111.672 64.8557 111.855C65.2636 112.028 65.6151 112.284 65.9102 112.623L65.1291 113.404C64.9381 113.178 64.7038 113.009 64.4261 112.896C64.157 112.775 63.8576 112.714 63.5278 112.714C63.1372 112.714 62.79 112.805 62.4862 112.987C62.1825 113.161 61.9438 113.404 61.7702 113.716C61.5966 114.029 61.5098 114.389 61.5098 114.797C61.5098 115.205 61.5966 115.565 61.7702 115.877C61.9438 116.19 62.1825 116.437 62.4862 116.619C62.79 116.802 63.1372 116.893 63.5278 116.893C63.8576 116.893 64.157 116.836 64.4261 116.724C64.7038 116.602 64.9425 116.428 65.1421 116.203L65.9102 116.984C65.6238 117.314 65.2723 117.57 64.8557 117.752C64.4478 117.934 64.0051 118.025 63.5278 118.025ZM67.0853 117.895V111.711H68.257V117.895H67.0853ZM67.6711 110.475C67.4541 110.475 67.2762 110.405 67.1373 110.266C66.9985 110.119 66.929 109.936 66.929 109.719C66.929 109.511 66.9985 109.338 67.1373 109.199C67.2762 109.051 67.4541 108.977 67.6711 108.977C67.8881 108.977 68.066 109.051 68.2049 109.199C68.3438 109.338 68.4132 109.511 68.4132 109.719C68.4132 109.936 68.3438 110.119 68.2049 110.266C68.066 110.405 67.8881 110.475 67.6711 110.475ZM72.8478 118.025C72.2316 118.025 71.6761 117.887 71.1814 117.609C70.6867 117.322 70.2961 116.936 70.0097 116.45C69.7233 115.964 69.5801 115.413 69.5801 114.797C69.5801 114.189 69.719 113.642 69.9967 113.156C70.2831 112.67 70.665 112.288 71.1424 112.011C71.6284 111.724 72.1709 111.581 72.7697 111.581C73.3426 111.581 73.846 111.711 74.2799 111.972C74.7226 112.232 75.0654 112.592 75.3084 113.052C75.5601 113.512 75.686 114.033 75.686 114.615C75.686 114.701 75.6816 114.797 75.6729 114.901C75.6643 114.996 75.6469 115.109 75.6209 115.239H70.4003V114.263H74.996L74.5663 114.641C74.5663 114.224 74.4926 113.872 74.345 113.586C74.1975 113.291 73.9892 113.065 73.7201 112.909C73.4511 112.744 73.1256 112.662 72.7437 112.662C72.3444 112.662 71.9929 112.748 71.6892 112.922C71.3854 113.096 71.1511 113.339 70.9861 113.651C70.8212 113.964 70.7388 114.332 70.7388 114.758C70.7388 115.192 70.8256 115.574 70.9992 115.903C71.1727 116.225 71.4201 116.476 71.7412 116.658C72.0624 116.832 72.4312 116.919 72.8478 116.919C73.195 116.919 73.5118 116.858 73.7982 116.737C74.0933 116.615 74.345 116.433 74.5533 116.19L75.3084 116.958C75.0133 117.305 74.6488 117.57 74.2148 117.752C73.7895 117.934 73.3339 118.025 72.8478 118.025ZM81.3379 117.895V114.289C81.3379 113.82 81.1903 113.434 80.8952 113.13C80.6001 112.827 80.2182 112.675 79.7496 112.675C79.4371 112.675 79.1594 112.744 78.9164 112.883C78.6733 113.022 78.4824 113.213 78.3435 113.456C78.2047 113.699 78.1352 113.977 78.1352 114.289L77.6535 114.016C77.6535 113.547 77.7577 113.13 77.966 112.766C78.1743 112.401 78.465 112.115 78.8382 111.907C79.2115 111.69 79.6324 111.581 80.1011 111.581C80.5698 111.581 80.982 111.698 81.3379 111.933C81.7024 112.167 81.9888 112.475 82.1971 112.857C82.4054 113.23 82.5096 113.629 82.5096 114.055V117.895H81.3379ZM76.9635 117.895V111.711H78.1352V117.895H76.9635ZM84.97 117.895V109.121H86.1417V117.895H84.97ZM83.4468 112.779V111.711H87.6649V112.779H83.4468ZM93.4866 118.025C93.1394 118.025 92.8096 117.982 92.4972 117.895C92.1934 117.8 91.9113 117.67 91.6509 117.505C91.3906 117.331 91.1649 117.127 90.974 116.893L91.7291 116.138C91.9547 116.415 92.2151 116.624 92.5102 116.763C92.8053 116.893 93.1351 116.958 93.4996 116.958C93.8642 116.958 94.1462 116.897 94.3459 116.776C94.5455 116.645 94.6453 116.468 94.6453 116.242C94.6453 116.016 94.5628 115.843 94.3979 115.721C94.2417 115.591 94.0377 115.487 93.786 115.409C93.5343 115.322 93.2653 115.239 92.9789 115.161C92.7011 115.075 92.4364 114.966 92.1847 114.836C91.933 114.706 91.7247 114.528 91.5598 114.302C91.4036 114.076 91.3255 113.777 91.3255 113.404C91.3255 113.031 91.4166 112.709 91.5989 112.44C91.7811 112.163 92.0328 111.95 92.354 111.802C92.6838 111.655 93.0787 111.581 93.5387 111.581C94.0247 111.581 94.4543 111.668 94.8276 111.841C95.2094 112.006 95.5219 112.258 95.7649 112.597L95.0098 113.352C94.8362 113.126 94.6193 112.952 94.3589 112.831C94.1072 112.709 93.8208 112.649 93.4996 112.649C93.1611 112.649 92.9008 112.709 92.7185 112.831C92.5449 112.944 92.4581 113.104 92.4581 113.313C92.4581 113.521 92.5362 113.681 92.6925 113.794C92.8487 113.907 93.0526 114.003 93.3043 114.081C93.5647 114.159 93.8338 114.241 94.1115 114.328C94.3893 114.406 94.654 114.515 94.9057 114.654C95.1574 114.792 95.3613 114.979 95.5176 115.213C95.6825 115.448 95.7649 115.756 95.7649 116.138C95.7649 116.719 95.5566 117.179 95.14 117.518C94.7321 117.856 94.1809 118.025 93.4866 118.025ZM99.9408 118.025C99.3246 118.025 98.7691 117.887 98.2744 117.609C97.7797 117.322 97.3891 116.936 97.1027 116.45C96.8163 115.964 96.6731 115.413 96.6731 114.797C96.6731 114.189 96.812 113.642 97.0897 113.156C97.3761 112.67 97.758 112.288 98.2353 112.011C98.7214 111.724 99.2638 111.581 99.8627 111.581C100.436 111.581 100.939 111.711 101.373 111.972C101.816 112.232 102.158 112.592 102.401 113.052C102.653 113.512 102.779 114.033 102.779 114.615C102.779 114.701 102.775 114.797 102.766 114.901C102.757 114.996 102.74 115.109 102.714 115.239H97.4933V114.263H102.089L101.659 114.641C101.659 114.224 101.586 113.872 101.438 113.586C101.29 113.291 101.082 113.065 100.813 112.909C100.544 112.744 100.219 112.662 99.8367 112.662C99.4374 112.662 99.0859 112.748 98.7821 112.922C98.4784 113.096 98.244 113.339 98.0791 113.651C97.9142 113.964 97.8318 114.332 97.8318 114.758C97.8318 115.192 97.9186 115.574 98.0921 115.903C98.2657 116.225 98.5131 116.476 98.8342 116.658C99.1553 116.832 99.5242 116.919 99.9408 116.919C100.288 116.919 100.605 116.858 100.891 116.737C101.186 116.615 101.438 116.433 101.646 116.19L102.401 116.958C102.106 117.305 101.742 117.57 101.308 117.752C100.883 117.934 100.427 118.025 99.9408 118.025ZM104.057 117.895V111.711H105.228V117.895H104.057ZM105.228 114.367L104.786 114.172C104.786 113.382 104.968 112.753 105.332 112.284C105.697 111.815 106.222 111.581 106.908 111.581C107.22 111.581 107.502 111.638 107.754 111.75C108.006 111.855 108.24 112.032 108.457 112.284L107.689 113.078C107.559 112.939 107.415 112.84 107.259 112.779C107.103 112.718 106.921 112.688 106.712 112.688C106.278 112.688 105.923 112.827 105.645 113.104C105.367 113.382 105.228 113.803 105.228 114.367ZM111.29 117.895L108.451 111.711H109.753L112.032 116.932H111.276L113.568 111.711H114.818L111.98 117.895H111.29ZM115.83 117.895V111.711H117.001V117.895H115.83ZM116.416 110.475C116.199 110.475 116.021 110.405 115.882 110.266C115.743 110.119 115.674 109.936 115.674 109.719C115.674 109.511 115.743 109.338 115.882 109.199C116.021 109.051 116.199 108.977 116.416 108.977C116.633 108.977 116.81 109.051 116.949 109.199C117.088 109.338 117.158 109.511 117.158 109.719C117.158 109.936 117.088 110.119 116.949 110.266C116.81 110.405 116.633 110.475 116.416 110.475ZM121.553 118.025C120.946 118.025 120.395 117.882 119.9 117.596C119.414 117.309 119.028 116.923 118.741 116.437C118.463 115.942 118.325 115.396 118.325 114.797C118.325 114.189 118.463 113.642 118.741 113.156C119.028 112.67 119.414 112.288 119.9 112.011C120.395 111.724 120.946 111.581 121.553 111.581C122.031 111.581 122.473 111.672 122.881 111.855C123.289 112.028 123.641 112.284 123.936 112.623L123.155 113.404C122.964 113.178 122.729 113.009 122.452 112.896C122.183 112.775 121.883 112.714 121.553 112.714C121.163 112.714 120.816 112.805 120.512 112.987C120.208 113.161 119.969 113.404 119.796 113.716C119.622 114.029 119.535 114.389 119.535 114.797C119.535 115.205 119.622 115.565 119.796 115.877C119.969 116.19 120.208 116.437 120.512 116.619C120.816 116.802 121.163 116.893 121.553 116.893C121.883 116.893 122.183 116.836 122.452 116.724C122.729 116.602 122.968 116.428 123.168 116.203L123.936 116.984C123.649 117.314 123.298 117.57 122.881 117.752C122.473 117.934 122.031 118.025 121.553 118.025ZM127.835 118.025C127.219 118.025 126.663 117.887 126.168 117.609C125.674 117.322 125.283 116.936 124.997 116.45C124.71 115.964 124.567 115.413 124.567 114.797C124.567 114.189 124.706 113.642 124.984 113.156C125.27 112.67 125.652 112.288 126.129 112.011C126.615 111.724 127.158 111.581 127.757 111.581C128.329 111.581 128.833 111.711 129.267 111.972C129.709 112.232 130.052 112.592 130.295 113.052C130.547 113.512 130.673 114.033 130.673 114.615C130.673 114.701 130.669 114.797 130.66 114.901C130.651 114.996 130.634 115.109 130.608 115.239H125.387V114.263H129.983L129.553 114.641C129.553 114.224 129.479 113.872 129.332 113.586C129.184 113.291 128.976 113.065 128.707 112.909C128.438 112.744 128.112 112.662 127.731 112.662C127.331 112.662 126.98 112.748 126.676 112.922C126.372 113.096 126.138 113.339 125.973 113.651C125.808 113.964 125.726 114.332 125.726 114.758C125.726 115.192 125.812 115.574 125.986 115.903C126.16 116.225 126.407 116.476 126.728 116.658C127.049 116.832 127.418 116.919 127.835 116.919C128.182 116.919 128.499 116.858 128.785 116.737C129.08 116.615 129.332 116.433 129.54 116.19L130.295 116.958C130 117.305 129.636 117.57 129.202 117.752C128.776 117.934 128.321 118.025 127.835 118.025ZM137.275 118.025C136.702 118.025 136.19 117.887 135.739 117.609C135.288 117.322 134.928 116.936 134.658 116.45C134.398 115.964 134.268 115.417 134.268 114.81C134.268 114.202 134.398 113.655 134.658 113.169C134.928 112.683 135.288 112.297 135.739 112.011C136.19 111.724 136.702 111.581 137.275 111.581C137.735 111.581 138.152 111.681 138.525 111.881C138.898 112.071 139.198 112.341 139.423 112.688C139.658 113.026 139.788 113.421 139.814 113.872V115.734C139.788 116.177 139.662 116.572 139.436 116.919C139.211 117.266 138.911 117.539 138.538 117.739C138.165 117.93 137.744 118.025 137.275 118.025ZM137.471 116.919C137.861 116.919 138.2 116.828 138.486 116.645C138.781 116.463 139.011 116.216 139.176 115.903C139.341 115.582 139.423 115.218 139.423 114.81C139.423 114.385 139.337 114.016 139.163 113.703C138.998 113.391 138.768 113.143 138.473 112.961C138.187 112.779 137.848 112.688 137.458 112.688C137.067 112.688 136.724 112.779 136.429 112.961C136.134 113.143 135.9 113.395 135.726 113.716C135.561 114.029 135.479 114.389 135.479 114.797C135.479 115.213 135.561 115.582 135.726 115.903C135.9 116.216 136.134 116.463 136.429 116.645C136.733 116.828 137.08 116.919 137.471 116.919ZM140.53 117.895H139.345V116.229L139.567 114.719L139.345 113.221V108.6H140.53V117.895ZM145.1 118.025C144.484 118.025 143.928 117.887 143.434 117.609C142.939 117.322 142.548 116.936 142.262 116.45C141.975 115.964 141.832 115.413 141.832 114.797C141.832 114.189 141.971 113.642 142.249 113.156C142.535 112.67 142.917 112.288 143.395 112.011C143.881 111.724 144.423 111.581 145.022 111.581C145.595 111.581 146.098 111.711 146.532 111.972C146.975 112.232 147.318 112.592 147.561 113.052C147.812 113.512 147.938 114.033 147.938 114.615C147.938 114.701 147.934 114.797 147.925 114.901C147.916 114.996 147.899 115.109 147.873 115.239H142.652V114.263H147.248L146.819 114.641C146.819 114.224 146.745 113.872 146.597 113.586C146.45 113.291 146.241 113.065 145.972 112.909C145.703 112.744 145.378 112.662 144.996 112.662C144.597 112.662 144.245 112.748 143.941 112.922C143.638 113.096 143.403 113.339 143.238 113.651C143.073 113.964 142.991 114.332 142.991 114.758C142.991 115.192 143.078 115.574 143.251 115.903C143.425 116.225 143.672 116.476 143.993 116.658C144.315 116.832 144.683 116.919 145.1 116.919C145.447 116.919 145.764 116.858 146.05 116.737C146.345 116.615 146.597 116.433 146.805 116.19L147.561 116.958C147.265 117.305 146.901 117.57 146.467 117.752C146.042 117.934 145.586 118.025 145.1 118.025ZM149.216 117.895V108.6H150.387V117.895H149.216ZM152.115 117.895V111.711H153.286V117.895H152.115ZM152.701 110.475C152.484 110.475 152.306 110.405 152.167 110.266C152.028 110.119 151.959 109.936 151.959 109.719C151.959 109.511 152.028 109.338 152.167 109.199C152.306 109.051 152.484 108.977 152.701 108.977C152.918 108.977 153.095 109.051 153.234 109.199C153.373 109.338 153.443 109.511 153.443 109.719C153.443 109.936 153.373 110.119 153.234 110.266C153.095 110.405 152.918 110.475 152.701 110.475ZM157.135 117.895L154.297 111.711H155.599L157.877 116.932H157.122L159.414 111.711H160.663L157.825 117.895H157.135ZM164.285 118.025C163.669 118.025 163.113 117.887 162.619 117.609C162.124 117.322 161.733 116.936 161.447 116.45C161.161 115.964 161.017 115.413 161.017 114.797C161.017 114.189 161.156 113.642 161.434 113.156C161.72 112.67 162.102 112.288 162.58 112.011C163.066 111.724 163.608 111.581 164.207 111.581C164.78 111.581 165.283 111.711 165.717 111.972C166.16 112.232 166.503 112.592 166.746 113.052C166.997 113.512 167.123 114.033 167.123 114.615C167.123 114.701 167.119 114.797 167.11 114.901C167.101 114.996 167.084 115.109 167.058 115.239H161.837V114.263H166.433L166.004 114.641C166.004 114.224 165.93 113.872 165.782 113.586C165.635 113.291 165.426 113.065 165.157 112.909C164.888 112.744 164.563 112.662 164.181 112.662C163.782 112.662 163.43 112.748 163.126 112.922C162.823 113.096 162.588 113.339 162.423 113.651C162.258 113.964 162.176 114.332 162.176 114.758C162.176 115.192 162.263 115.574 162.436 115.903C162.61 116.225 162.857 116.476 163.178 116.658C163.5 116.832 163.868 116.919 164.285 116.919C164.632 116.919 164.949 116.858 165.235 116.737C165.531 116.615 165.782 116.433 165.991 116.19L166.746 116.958C166.451 117.305 166.086 117.57 165.652 117.752C165.227 117.934 164.771 118.025 164.285 118.025ZM168.401 117.895V111.711H169.572V117.895H168.401ZM169.572 114.367L169.13 114.172C169.13 113.382 169.312 112.753 169.677 112.284C170.041 111.815 170.566 111.581 171.252 111.581C171.564 111.581 171.846 111.638 172.098 111.75C172.35 111.855 172.584 112.032 172.801 112.284L172.033 113.078C171.903 112.939 171.76 112.84 171.603 112.779C171.447 112.718 171.265 112.688 171.057 112.688C170.623 112.688 170.267 112.827 169.989 113.104C169.711 113.382 169.572 113.803 169.572 114.367ZM175.543 117.947L172.861 111.711H174.163L176.154 116.593H175.738L177.834 111.711H179.136L176.246 117.947H175.543ZM173.772 120.486L175.595 116.75L176.246 117.947L175.074 120.486H173.772ZM180.338 118.025C180.095 118.025 179.891 117.943 179.726 117.778C179.569 117.605 179.491 117.401 179.491 117.166C179.491 116.923 179.569 116.724 179.726 116.567C179.891 116.402 180.095 116.32 180.338 116.32C180.581 116.32 180.78 116.402 180.936 116.567C181.101 116.724 181.184 116.923 181.184 117.166C181.184 117.401 181.101 117.605 180.936 117.778C180.78 117.943 180.581 118.025 180.338 118.025Z" fill="#7D7D7D"/>
</svg>
