<svg width="230" height="159" viewBox="0 0 230 159" fill="none" xmlns="http://www.w3.org/2000/svg">
<mask id="path-1-inside-1_1188_62" fill="white">
<path fill-rule="evenodd" clip-rule="evenodd" d="M9.76415 0C4.37156 0 0 4.37155 0 9.76414V134.528C0 139.921 4.37156 144.292 9.76415 144.292H22.3366L30.5438 158.419L38.6489 144.292H220.236C225.628 144.292 230 139.921 230 134.528V9.76415C230 4.37156 225.628 0 220.236 0H9.76415Z"/>
</mask>
<path fill-rule="evenodd" clip-rule="evenodd" d="M9.76415 0C4.37156 0 0 4.37155 0 9.76414V134.528C0 139.921 4.37156 144.292 9.76415 144.292H22.3366L30.5438 158.419L38.6489 144.292H220.236C225.628 144.292 230 139.921 230 134.528V9.76415C230 4.37156 225.628 0 220.236 0H9.76415Z" fill="#F3F8FF"/>
<path d="M22.3366 144.292L23.2746 143.747L22.961 143.208H22.3366V144.292ZM30.5438 158.419L29.6057 158.964L30.5497 160.589L31.4848 158.959L30.5438 158.419ZM38.6489 144.292V143.208H38.0206L37.7079 143.753L38.6489 144.292ZM1.08491 9.76414C1.08491 4.97073 4.97073 1.08491 9.76415 1.08491V-1.08491C3.77238 -1.08491 -1.08491 3.77237 -1.08491 9.76414H1.08491ZM1.08491 134.528V9.76414H-1.08491V134.528H1.08491ZM9.76415 143.208C4.97073 143.208 1.08491 139.322 1.08491 134.528H-1.08491C-1.08491 140.52 3.77238 145.377 9.76415 145.377V143.208ZM22.3366 143.208H9.76415V145.377H22.3366V143.208ZM31.4819 157.874L23.2746 143.747L21.3985 144.837L29.6057 158.964L31.4819 157.874ZM37.7079 143.753L29.6028 157.879L31.4848 158.959L39.5899 144.832L37.7079 143.753ZM220.236 143.208H38.6489V145.377H220.236V143.208ZM228.915 134.528C228.915 139.322 225.029 143.208 220.236 143.208V145.377C226.228 145.377 231.085 140.52 231.085 134.528H228.915ZM228.915 9.76415V134.528H231.085V9.76415H228.915ZM220.236 1.08491C225.029 1.08491 228.915 4.97073 228.915 9.76415H231.085C231.085 3.77238 226.228 -1.08491 220.236 -1.08491V1.08491ZM9.76415 1.08491H220.236V-1.08491H9.76415V1.08491Z" fill="black" mask="url(#path-1-inside-1_1188_62)"/>
<path d="M22.4446 44.2614C21.5188 44.2614 20.6624 44.111 19.8755 43.8101C19.1002 43.4977 18.4232 43.0637 17.8446 42.5082C17.2775 41.9412 16.832 41.2816 16.508 40.5294C16.1839 39.7771 16.0219 38.9497 16.0219 38.0471C16.0219 37.1444 16.1839 36.317 16.508 35.5648C16.832 34.8126 17.2833 34.1588 17.8619 33.6033C18.4405 33.0363 19.1175 32.6023 19.8929 32.3014C20.6798 31.989 21.5361 31.8327 22.4619 31.8327C23.3993 31.8327 24.2614 31.9948 25.0483 32.3188C25.8468 32.6312 26.5238 33.0999 27.0793 33.7248L25.951 34.8184C25.4881 34.3324 24.9673 33.9736 24.3887 33.7422C23.8101 33.4992 23.191 33.3777 22.5314 33.3777C21.8486 33.3777 21.2121 33.4934 20.6219 33.7248C20.0433 33.9563 19.5399 34.2803 19.1117 34.6969C18.6836 35.1135 18.348 35.6111 18.1049 36.1897C17.8735 36.7568 17.7578 37.3759 17.7578 38.0471C17.7578 38.7183 17.8735 39.3432 18.1049 39.9218C18.348 40.4888 18.6836 40.9807 19.1117 41.3973C19.5399 41.8139 20.0433 42.1379 20.6219 42.3694C21.2121 42.6008 21.8486 42.7165 22.5314 42.7165C23.191 42.7165 23.8101 42.6008 24.3887 42.3694C24.9673 42.1263 25.4881 41.756 25.951 41.2584L27.0793 42.352C26.5238 42.9769 25.8468 43.4514 25.0483 43.7754C24.2614 44.0994 23.3935 44.2614 22.4446 44.2614ZM34.9048 44.1226V42.1784L34.8181 41.8139V38.4984C34.8181 37.7925 34.6098 37.2486 34.1931 36.8667C33.7881 36.4733 33.1748 36.2765 32.3531 36.2765C31.8092 36.2765 31.2769 36.3691 30.7562 36.5543C30.2354 36.7278 29.7957 36.9651 29.4369 37.266L28.7426 36.0161C29.217 35.6343 29.7841 35.3449 30.4437 35.1482C31.1149 34.9399 31.815 34.8358 32.5441 34.8358C33.8055 34.8358 34.7776 35.1424 35.4603 35.7558C36.1431 36.3691 36.4845 37.3065 36.4845 38.5678V44.1226H34.9048ZM31.8845 44.2267C31.2017 44.2267 30.5999 44.111 30.0792 43.8795C29.57 43.6481 29.1765 43.3299 28.8988 42.9248C28.6211 42.5082 28.4822 42.0395 28.4822 41.5188C28.4822 41.0212 28.5979 40.5699 28.8294 40.1648C29.0724 39.7598 29.4601 39.4358 29.9924 39.1927C30.5363 38.9497 31.2654 38.8282 32.1796 38.8282H35.0958V40.026H32.249C31.4158 40.026 30.8545 40.1648 30.5652 40.4426C30.2759 40.7203 30.1313 41.0559 30.1313 41.4494C30.1313 41.9007 30.3106 42.2652 30.6694 42.5429C31.0281 42.8091 31.5257 42.9422 32.1622 42.9422C32.7871 42.9422 33.331 42.8033 33.7939 42.5256C34.2684 42.2478 34.6098 41.8428 34.8181 41.3105L35.1479 42.4561C34.928 43 34.5403 43.434 33.9848 43.758C33.4294 44.0705 32.7292 44.2267 31.8845 44.2267ZM39.5683 44.1226V34.9226H41.1653V37.4222L41.0091 36.7973C41.2637 36.1608 41.6918 35.6748 42.2936 35.3392C42.8954 35.0036 43.636 34.8358 44.5155 34.8358V36.4501C44.446 36.4385 44.3766 36.4327 44.3072 36.4327C44.2493 36.4327 44.1915 36.4327 44.1336 36.4327C43.2425 36.4327 42.5366 36.6989 42.0159 37.2312C41.4951 37.7636 41.2347 38.5331 41.2347 39.5399V44.1226H39.5683ZM50.5118 47.5943C49.667 47.5943 48.8453 47.4727 48.0469 47.2297C47.2599 46.9983 46.6177 46.6627 46.1201 46.2229L46.9185 44.9384C47.3467 45.3087 47.8733 45.598 48.4982 45.8063C49.1231 46.0262 49.7769 46.1361 50.4597 46.1361C51.5475 46.1361 52.346 45.8816 52.8552 45.3724C53.3643 44.8632 53.6189 44.0878 53.6189 43.0463V41.1022L53.7925 39.2795L53.7057 37.4395V34.9226H55.2853V42.8727C55.2853 44.4929 54.8803 45.6848 54.0702 46.4486C53.2602 47.2124 52.074 47.5943 50.5118 47.5943ZM50.3035 43.7407C49.4124 43.7407 48.6139 43.5555 47.908 43.1852C47.2136 42.8033 46.6582 42.2768 46.2416 41.6056C45.8365 40.9344 45.634 40.159 45.634 39.2795C45.634 38.3885 45.8365 37.6131 46.2416 36.9535C46.6582 36.2823 47.2136 35.7616 47.908 35.3912C48.6139 35.0209 49.4124 34.8358 50.3035 34.8358C51.0904 34.8358 51.8079 34.9978 52.4559 35.3218C53.104 35.6343 53.6189 36.1203 54.0008 36.7799C54.3943 37.4395 54.591 38.2727 54.591 39.2795C54.591 40.2748 54.3943 41.1022 54.0008 41.7618C53.6189 42.4214 53.104 42.919 52.4559 43.2546C51.8079 43.5787 51.0904 43.7407 50.3035 43.7407ZM50.4944 42.2826C51.1077 42.2826 51.6516 42.1553 52.1261 41.9007C52.6006 41.6461 52.9709 41.2931 53.237 40.8418C53.5148 40.3905 53.6536 39.8697 53.6536 39.2795C53.6536 38.6894 53.5148 38.1686 53.237 37.7173C52.9709 37.266 52.6006 36.9188 52.1261 36.6758C51.6516 36.4212 51.1077 36.2939 50.4944 36.2939C49.8811 36.2939 49.3314 36.4212 48.8453 36.6758C48.3709 36.9188 47.9948 37.266 47.717 37.7173C47.4509 38.1686 47.3178 38.6894 47.3178 39.2795C47.3178 39.8697 47.4509 40.3905 47.717 40.8418C47.9948 41.2931 48.3709 41.6461 48.8453 41.9007C49.3314 42.1553 49.8811 42.2826 50.4944 42.2826ZM62.4098 44.2267C61.484 44.2267 60.6624 44.0242 59.9449 43.6192C59.2274 43.2141 58.6603 42.6587 58.2437 41.9527C57.8271 41.2353 57.6188 40.4252 57.6188 39.5226C57.6188 38.6083 57.8271 37.7983 58.2437 37.0924C58.6603 36.3865 59.2274 35.8368 59.9449 35.4433C60.6624 35.0383 61.484 34.8358 62.4098 34.8358C63.324 34.8358 64.1398 35.0383 64.8573 35.4433C65.5864 35.8368 66.1534 36.3865 66.5585 37.0924C66.9751 37.7867 67.1834 38.5968 67.1834 39.5226C67.1834 40.4368 66.9751 41.2468 66.5585 41.9527C66.1534 42.6587 65.5864 43.2141 64.8573 43.6192C64.1398 44.0242 63.324 44.2267 62.4098 44.2267ZM62.4098 42.7686C63 42.7686 63.5265 42.6355 63.9894 42.3694C64.4639 42.1032 64.8342 41.7271 65.1003 41.241C65.3665 40.7434 65.4996 40.1706 65.4996 39.5226C65.4996 38.8629 65.3665 38.2959 65.1003 37.8214C64.8342 37.3354 64.4639 36.9593 63.9894 36.6931C63.5265 36.427 63 36.2939 62.4098 36.2939C61.8196 36.2939 61.293 36.427 60.8302 36.6931C60.3673 36.9593 59.9969 37.3354 59.7192 37.8214C59.4415 38.2959 59.3026 38.8629 59.3026 39.5226C59.3026 40.1706 59.4415 40.7434 59.7192 41.241C59.9969 41.7271 60.3673 42.1032 60.8302 42.3694C61.293 42.6355 61.8196 42.7686 62.4098 42.7686ZM83.1067 31.9716H84.8425V44.1226H83.1067V31.9716ZM76.1285 44.1226H74.3927V31.9716H76.1285V44.1226ZM83.2629 38.7067H75.955V37.1965H83.2629V38.7067ZM93.9474 44.1226V42.1784L93.8606 41.8139V38.4984C93.8606 37.7925 93.6523 37.2486 93.2357 36.8667C92.8307 36.4733 92.2174 36.2765 91.3957 36.2765C90.8518 36.2765 90.3195 36.3691 89.7988 36.5543C89.278 36.7278 88.8383 36.9651 88.4795 37.266L87.7852 36.0161C88.2596 35.6343 88.8267 35.3449 89.4863 35.1482C90.1575 34.9399 90.8576 34.8358 91.5867 34.8358C92.8481 34.8358 93.8201 35.1424 94.5029 35.7558C95.1857 36.3691 95.5271 37.3065 95.5271 38.5678V44.1226H93.9474ZM90.9271 44.2267C90.2443 44.2267 89.6425 44.111 89.1218 43.8795C88.6126 43.6481 88.2191 43.3299 87.9414 42.9248C87.6637 42.5082 87.5248 42.0395 87.5248 41.5188C87.5248 41.0212 87.6405 40.5699 87.872 40.1648C88.115 39.7598 88.5027 39.4358 89.035 39.1927C89.5789 38.9497 90.3079 38.8282 91.2222 38.8282H94.1384V40.026H91.2916C90.4584 40.026 89.8971 40.1648 89.6078 40.4426C89.3185 40.7203 89.1739 41.0559 89.1739 41.4494C89.1739 41.9007 89.3532 42.2652 89.712 42.5429C90.0707 42.8091 90.5683 42.9422 91.2048 42.9422C91.8297 42.9422 92.3736 42.8033 92.8365 42.5256C93.311 42.2478 93.6523 41.8428 93.8606 41.3105L94.1905 42.4561C93.9706 43 93.5829 43.434 93.0274 43.758C92.472 44.0705 91.7718 44.2267 90.9271 44.2267ZM103.523 34.8358C104.276 34.8358 104.935 34.9804 105.502 35.2697C106.081 35.559 106.532 35.9988 106.856 36.589C107.18 37.1792 107.342 37.9256 107.342 38.8282V44.1226H105.676V39.0192C105.676 38.1281 105.456 37.4569 105.016 37.0056C104.588 36.5543 103.98 36.3286 103.194 36.3286C102.603 36.3286 102.088 36.4443 101.649 36.6758C101.209 36.9072 100.868 37.2486 100.624 37.6999C100.393 38.1512 100.277 38.7125 100.277 39.3837V44.1226H98.6109V34.9226H100.208V37.4048L99.9475 36.7452C100.248 36.1434 100.711 35.6748 101.336 35.3392C101.961 35.0036 102.69 34.8358 103.523 34.8358ZM114.228 44.2267C113.337 44.2267 112.538 44.03 111.832 43.6365C111.138 43.2431 110.588 42.6934 110.183 41.9875C109.778 41.2816 109.576 40.4599 109.576 39.5226C109.576 38.5852 109.778 37.7694 110.183 37.075C110.588 36.3691 111.138 35.8194 111.832 35.426C112.538 35.0325 113.337 34.8358 114.228 34.8358C115.003 34.8358 115.703 35.0094 116.328 35.3565C116.953 35.7037 117.451 36.2244 117.821 36.9188C118.203 37.6131 118.394 38.481 118.394 39.5226C118.394 40.5641 118.209 41.432 117.838 42.1263C117.48 42.8207 116.988 43.3472 116.363 43.706C115.738 44.0531 115.026 44.2267 114.228 44.2267ZM114.367 42.7686C114.945 42.7686 115.466 42.6355 115.929 42.3694C116.403 42.1032 116.774 41.7271 117.04 41.241C117.318 40.7434 117.456 40.1706 117.456 39.5226C117.456 38.8629 117.318 38.2959 117.04 37.8214C116.774 37.3354 116.403 36.9593 115.929 36.6931C115.466 36.427 114.945 36.2939 114.367 36.2939C113.776 36.2939 113.25 36.427 112.787 36.6931C112.324 36.9593 111.954 37.3354 111.676 37.8214C111.398 38.2959 111.259 38.8629 111.259 39.5226C111.259 40.1706 111.398 40.7434 111.676 41.241C111.954 41.7271 112.324 42.1032 112.787 42.3694C113.25 42.6355 113.776 42.7686 114.367 42.7686ZM117.508 44.1226V41.6403L117.613 39.5052L117.439 37.3701V31.2426H119.105V44.1226H117.508ZM122.258 44.1226V31.2426H123.925V44.1226H122.258ZM127.107 44.1226V34.9226H128.773V44.1226H127.107ZM127.94 33.152C127.616 33.152 127.344 33.0478 127.124 32.8395C126.916 32.6312 126.812 32.3766 126.812 32.0758C126.812 31.7633 126.916 31.5029 127.124 31.2946C127.344 31.0863 127.616 30.9822 127.94 30.9822C128.264 30.9822 128.53 31.0863 128.738 31.2946C128.958 31.4914 129.068 31.7402 129.068 32.041C129.068 32.3535 128.964 32.6197 128.756 32.8395C128.547 33.0478 128.275 33.152 127.94 33.152ZM136.867 34.8358C137.619 34.8358 138.279 34.9804 138.846 35.2697C139.425 35.559 139.876 35.9988 140.2 36.589C140.524 37.1792 140.686 37.9256 140.686 38.8282V44.1226H139.02V39.0192C139.02 38.1281 138.8 37.4569 138.36 37.0056C137.932 36.5543 137.324 36.3286 136.537 36.3286C135.947 36.3286 135.432 36.4443 134.993 36.6758C134.553 36.9072 134.211 37.2486 133.968 37.6999C133.737 38.1512 133.621 38.7125 133.621 39.3837V44.1226H131.955V34.9226H133.552V37.4048L133.291 36.7452C133.592 36.1434 134.055 35.6748 134.68 35.3392C135.305 35.0036 136.034 34.8358 136.867 34.8358ZM147.797 47.5943C146.952 47.5943 146.131 47.4727 145.332 47.2297C144.545 46.9983 143.903 46.6627 143.406 46.2229L144.204 44.9384C144.632 45.3087 145.159 45.598 145.784 45.8063C146.409 46.0262 147.062 46.1361 147.745 46.1361C148.833 46.1361 149.631 45.8816 150.141 45.3724C150.65 44.8632 150.904 44.0878 150.904 43.0463V41.1022L151.078 39.2795L150.991 37.4395V34.9226H152.571V42.8727C152.571 44.4929 152.166 45.6848 151.356 46.4486C150.546 47.2124 149.36 47.5943 147.797 47.5943ZM147.589 43.7407C146.698 43.7407 145.899 43.5555 145.194 43.1852C144.499 42.8033 143.944 42.2768 143.527 41.6056C143.122 40.9344 142.92 40.159 142.92 39.2795C142.92 38.3885 143.122 37.6131 143.527 36.9535C143.944 36.2823 144.499 35.7616 145.194 35.3912C145.899 35.0209 146.698 34.8358 147.589 34.8358C148.376 34.8358 149.093 34.9978 149.741 35.3218C150.389 35.6343 150.904 36.1203 151.286 36.7799C151.68 37.4395 151.877 38.2727 151.877 39.2795C151.877 40.2748 151.68 41.1022 151.286 41.7618C150.904 42.4214 150.389 42.919 149.741 43.2546C149.093 43.5787 148.376 43.7407 147.589 43.7407ZM147.78 42.2826C148.393 42.2826 148.937 42.1553 149.412 41.9007C149.886 41.6461 150.256 41.2931 150.523 40.8418C150.8 40.3905 150.939 39.8697 150.939 39.2795C150.939 38.6894 150.8 38.1686 150.523 37.7173C150.256 37.266 149.886 36.9188 149.412 36.6758C148.937 36.4212 148.393 36.2939 147.78 36.2939C147.167 36.2939 146.617 36.4212 146.131 36.6758C145.656 36.9188 145.28 37.266 145.003 37.7173C144.736 38.1686 144.603 38.6894 144.603 39.2795C144.603 39.8697 144.736 40.3905 145.003 40.8418C145.28 41.2931 145.656 41.6461 146.131 41.9007C146.617 42.1553 147.167 42.2826 147.78 42.2826Z" fill="#252B42"/>
<path d="M20.3702 72.715C19.728 72.715 19.1291 72.5979 18.5736 72.3635C18.0182 72.1205 17.5321 71.7863 17.1155 71.3611C16.6989 70.9271 16.3734 70.428 16.1391 69.8639C15.9134 69.2997 15.8006 68.6965 15.8006 68.0543C15.8006 67.4033 15.9134 66.8001 16.1391 66.2447C16.3734 65.6805 16.6946 65.1858 17.1025 64.7605C17.5191 64.3352 18.0008 64.0054 18.5476 63.7711C19.1031 63.5367 19.7019 63.4196 20.3442 63.4196C20.9865 63.4196 21.581 63.5367 22.1278 63.7711C22.6832 64.0054 23.1693 64.3352 23.5859 64.7605C24.0025 65.1858 24.328 65.6805 24.5623 66.2447C24.7966 66.8088 24.9138 67.4163 24.9138 68.0673C24.9138 68.7096 24.7966 69.3128 24.5623 69.8769C24.328 70.4411 24.0025 70.9358 23.5859 71.3611C23.178 71.7863 22.6963 72.1205 22.1408 72.3635C21.594 72.5979 21.0038 72.715 20.3702 72.715ZM20.3442 71.5433C20.9951 71.5433 21.5636 71.3958 22.0497 71.1007C22.5444 70.7969 22.9349 70.3847 23.2214 69.8639C23.5078 69.3345 23.651 68.7313 23.651 68.0543C23.651 67.5509 23.5685 67.0909 23.4036 66.6743C23.2387 66.249 23.0087 65.8801 22.7136 65.5677C22.4185 65.2552 22.0714 65.0165 21.6721 64.8516C21.2729 64.678 20.8302 64.5913 20.3442 64.5913C19.7019 64.5913 19.1334 64.7388 18.6387 65.0339C18.1527 65.329 17.7665 65.7369 17.48 66.2577C17.2023 66.7784 17.0634 67.3773 17.0634 68.0543C17.0634 68.5577 17.1416 69.0263 17.2978 69.4603C17.4627 69.8856 17.6883 70.2545 17.9748 70.5669C18.2699 70.8707 18.617 71.1094 19.0163 71.283C19.4242 71.4565 19.8668 71.5433 20.3442 71.5433ZM28.8708 72.715C28.3674 72.715 27.9118 72.6022 27.5039 72.3765C27.1046 72.1422 26.7922 71.8211 26.5665 71.4131C26.3408 71.0052 26.228 70.5322 26.228 69.9941V66.4009H27.3997V69.942C27.3997 70.2805 27.4561 70.5756 27.569 70.8273C27.6905 71.0703 27.864 71.2569 28.0897 71.3871C28.3154 71.5173 28.5801 71.5824 28.8839 71.5824C29.3439 71.5824 29.704 71.4392 29.9644 71.1528C30.2248 70.8577 30.355 70.4541 30.355 69.942V66.4009H31.5267V69.9941C31.5267 70.5322 31.4139 71.0052 31.1882 71.4131C30.9625 71.8211 30.6501 72.1422 30.2508 72.3765C29.8603 72.6022 29.4003 72.715 28.8708 72.715ZM34.0475 72.5848V63.8101H35.2192V72.5848H34.0475ZM32.5243 67.4684V66.4009H36.7424V67.4684H32.5243ZM39.7289 72.715C39.3817 72.715 39.0519 72.6716 38.7394 72.5848C38.4357 72.4894 38.1536 72.3592 37.8932 72.1943C37.6328 72.0207 37.4072 71.8167 37.2162 71.5824L37.9713 70.8273C38.197 71.105 38.4574 71.3133 38.7525 71.4522C39.0476 71.5824 39.3774 71.6475 39.7419 71.6475C40.1064 71.6475 40.3885 71.5867 40.5881 71.4652C40.7877 71.335 40.8876 71.1571 40.8876 70.9314C40.8876 70.7058 40.8051 70.5322 40.6402 70.4107C40.484 70.2805 40.28 70.1763 40.0283 70.0982C39.7766 70.0114 39.5076 69.929 39.2211 69.8509C38.9434 69.7641 38.6787 69.6556 38.427 69.5254C38.1753 69.3952 37.967 69.2173 37.8021 68.9916C37.6459 68.766 37.5677 68.4665 37.5677 68.0933C37.5677 67.7201 37.6589 67.399 37.8411 67.1299C38.0234 66.8522 38.2751 66.6396 38.5962 66.492C38.926 66.3445 39.321 66.2707 39.781 66.2707C40.267 66.2707 40.6966 66.3575 41.0698 66.5311C41.4517 66.696 41.7642 66.9477 42.0072 67.2862L41.2521 68.0413C41.0785 67.8156 40.8615 67.642 40.6011 67.5205C40.3494 67.399 40.063 67.3382 39.7419 67.3382C39.4034 67.3382 39.143 67.399 38.9608 67.5205C38.7872 67.6333 38.7004 67.7939 38.7004 68.0022C38.7004 68.2105 38.7785 68.3711 38.9347 68.4839C39.091 68.5967 39.2949 68.6922 39.5466 68.7703C39.807 68.8484 40.076 68.9309 40.3538 69.0177C40.6315 69.0958 40.8962 69.2043 41.1479 69.3431C41.3996 69.482 41.6036 69.6686 41.7598 69.903C41.9247 70.1373 42.0072 70.4454 42.0072 70.8273C42.0072 71.4088 41.7989 71.8688 41.3823 72.2073C40.9743 72.5458 40.4232 72.715 39.7289 72.715ZM46.144 72.715C45.5365 72.715 44.9897 72.5718 44.5037 72.2854C44.0176 71.999 43.6314 71.6128 43.345 71.1267C43.0586 70.632 42.9153 70.0809 42.9153 69.4733C42.9153 68.8745 43.0586 68.3363 43.345 67.859C43.6314 67.373 44.0176 66.9867 44.5037 66.7003C44.9897 66.4139 45.5365 66.2707 46.144 66.2707C46.7429 66.2707 47.2853 66.4139 47.7714 66.7003C48.2661 66.978 48.6567 67.3599 48.9431 67.846C49.2295 68.332 49.3727 68.8745 49.3727 69.4733C49.3727 70.0809 49.2295 70.632 48.9431 71.1267C48.6567 71.6128 48.2661 71.999 47.7714 72.2854C47.2853 72.5718 46.7429 72.715 46.144 72.715ZM46.144 71.5824C46.5346 71.5824 46.8818 71.4913 47.1855 71.309C47.4893 71.1267 47.728 70.8794 47.9016 70.5669C48.0752 70.2458 48.162 69.8813 48.162 69.4733C48.162 69.0741 48.0708 68.7182 47.8886 68.4058C47.715 68.0933 47.4763 67.8503 47.1725 67.6767C46.8774 67.4945 46.5346 67.4033 46.144 67.4033C45.7535 67.4033 45.4063 67.4945 45.1025 67.6767C44.7987 67.8503 44.5601 68.0933 44.3865 68.4058C44.2129 68.7182 44.1261 69.0741 44.1261 69.4733C44.1261 69.8813 44.2129 70.2458 44.3865 70.5669C44.5601 70.8794 44.7987 71.1267 45.1025 71.309C45.4063 71.4913 45.7535 71.5824 46.144 71.5824ZM53.1795 72.715C52.6761 72.715 52.2204 72.6022 51.8125 72.3765C51.4133 72.1422 51.1008 71.8211 50.8752 71.4131C50.6495 71.0052 50.5367 70.5322 50.5367 69.9941V66.4009H51.7084V69.942C51.7084 70.2805 51.7648 70.5756 51.8776 70.8273C51.9991 71.0703 52.1727 71.2569 52.3984 71.3871C52.624 71.5173 52.8888 71.5824 53.1925 71.5824C53.6525 71.5824 54.0127 71.4392 54.2731 71.1528C54.5335 70.8577 54.6637 70.4541 54.6637 69.942V66.4009H55.8354V69.9941C55.8354 70.5322 55.7225 71.0052 55.4969 71.4131C55.2712 71.8211 54.9588 72.1422 54.5595 72.3765C54.1689 72.6022 53.7089 72.715 53.1795 72.715ZM57.4058 72.5848V66.4009H58.5775V72.5848H57.4058ZM58.5775 69.0567L58.1348 68.8614C58.1348 68.0716 58.3171 67.4424 58.6816 66.9737C59.0461 66.505 59.5712 66.2707 60.2569 66.2707C60.5693 66.2707 60.8514 66.3271 61.1031 66.4399C61.3548 66.5441 61.5892 66.722 61.8061 66.9737L61.038 67.7679C60.9078 67.629 60.7646 67.5292 60.6084 67.4684C60.4522 67.4077 60.2699 67.3773 60.0616 67.3773C59.6276 67.3773 59.2718 67.5162 58.9941 67.7939C58.7163 68.0716 58.5775 68.4926 58.5775 69.0567ZM65.2528 72.715C64.6452 72.715 64.0941 72.5718 63.5994 72.2854C63.1133 71.999 62.7271 71.6128 62.4407 71.1267C62.163 70.632 62.0241 70.0852 62.0241 69.4863C62.0241 68.8788 62.163 68.332 62.4407 67.846C62.7271 67.3599 63.1133 66.978 63.5994 66.7003C64.0941 66.4139 64.6452 66.2707 65.2528 66.2707C65.7301 66.2707 66.1728 66.3618 66.5807 66.5441C66.9886 66.7177 67.3401 66.9737 67.6352 67.3122L66.8541 68.0933C66.6632 67.8677 66.4288 67.6984 66.1511 67.5856C65.882 67.4641 65.5826 67.4033 65.2528 67.4033C64.8622 67.4033 64.515 67.4945 64.2113 67.6767C63.9075 67.8503 63.6688 68.0933 63.4952 68.4058C63.3216 68.7182 63.2349 69.0784 63.2349 69.4863C63.2349 69.8943 63.3216 70.2545 63.4952 70.5669C63.6688 70.8794 63.9075 71.1267 64.2113 71.309C64.515 71.4913 64.8622 71.5824 65.2528 71.5824C65.5826 71.5824 65.882 71.526 66.1511 71.4131C66.4288 71.2916 66.6675 71.118 66.8671 70.8924L67.6352 71.6735C67.3488 72.0033 66.9973 72.2594 66.5807 72.4416C66.1728 72.6239 65.7301 72.715 65.2528 72.715ZM71.5343 72.715C70.9181 72.715 70.3626 72.5762 69.8679 72.2984C69.3731 72.012 68.9826 71.6258 68.6962 71.1397C68.4098 70.6537 68.2665 70.1026 68.2665 69.4863C68.2665 68.8788 68.4054 68.332 68.6831 67.846C68.9696 67.3599 69.3514 66.978 69.8288 66.7003C70.3148 66.4139 70.8573 66.2707 71.4562 66.2707C72.029 66.2707 72.5324 66.4009 72.9664 66.6613C73.409 66.9216 73.7518 67.2818 73.9948 67.7418C74.2465 68.2018 74.3724 68.7226 74.3724 69.3041C74.3724 69.3909 74.3681 69.4863 74.3594 69.5905C74.3507 69.686 74.3333 69.7988 74.3073 69.929H69.0867V68.9526H73.6824L73.2528 69.3301C73.2528 68.9135 73.179 68.562 73.0314 68.2756C72.8839 67.9805 72.6756 67.7548 72.4065 67.5986C72.1375 67.4337 71.812 67.3513 71.4301 67.3513C71.0309 67.3513 70.6794 67.438 70.3756 67.6116C70.0718 67.7852 69.8375 68.0282 69.6726 68.3407C69.5077 68.6531 69.4252 69.022 69.4252 69.4473C69.4252 69.8813 69.512 70.2631 69.6856 70.593C69.8592 70.9141 70.1065 71.1658 70.4277 71.348C70.7488 71.5216 71.1177 71.6084 71.5343 71.6084C71.8814 71.6084 72.1982 71.5477 72.4847 71.4262C72.7798 71.3047 73.0314 71.1224 73.2398 70.8794L73.9948 71.6475C73.6998 71.9947 73.3352 72.2594 72.9013 72.4416C72.476 72.6239 72.0203 72.715 71.5343 72.715ZM80.1286 72.5848L77.681 66.4009H78.9048L80.6754 71.2179H80.2848L82.0423 66.4009H82.7193L84.4769 71.2179H84.0863L85.8569 66.4009H87.0806L84.6461 72.5848H83.9561L82.1725 67.9111H82.6021L80.8055 72.5848H80.1286ZM90.7692 72.715C90.1617 72.715 89.6149 72.5718 89.1289 72.2854C88.6428 71.999 88.2566 71.6128 87.9702 71.1267C87.6838 70.632 87.5406 70.0809 87.5406 69.4733C87.5406 68.8745 87.6838 68.3363 87.9702 67.859C88.2566 67.373 88.6428 66.9867 89.1289 66.7003C89.6149 66.4139 90.1617 66.2707 90.7692 66.2707C91.3681 66.2707 91.9106 66.4139 92.3966 66.7003C92.8913 66.978 93.2819 67.3599 93.5683 67.846C93.8547 68.332 93.9979 68.8745 93.9979 69.4733C93.9979 70.0809 93.8547 70.632 93.5683 71.1267C93.2819 71.6128 92.8913 71.999 92.3966 72.2854C91.9106 72.5718 91.3681 72.715 90.7692 72.715ZM90.7692 71.5824C91.1598 71.5824 91.507 71.4913 91.8108 71.309C92.1145 71.1267 92.3532 70.8794 92.5268 70.5669C92.7004 70.2458 92.7872 69.8813 92.7872 69.4733C92.7872 69.0741 92.696 68.7182 92.5138 68.4058C92.3402 68.0933 92.1015 67.8503 91.7977 67.6767C91.5026 67.4945 91.1598 67.4033 90.7692 67.4033C90.3787 67.4033 90.0315 67.4945 89.7277 67.6767C89.424 67.8503 89.1853 68.0933 89.0117 68.4058C88.8381 68.7182 88.7513 69.0741 88.7513 69.4733C88.7513 69.8813 88.8381 70.2458 89.0117 70.5669C89.1853 70.8794 89.424 71.1267 89.7277 71.309C90.0315 71.4913 90.3787 71.5824 90.7692 71.5824ZM95.3181 72.5848V66.4009H96.4898V72.5848H95.3181ZM96.4898 69.0567L96.0472 68.8614C96.0472 68.0716 96.2294 67.4424 96.594 66.9737C96.9585 66.505 97.4836 66.2707 98.1693 66.2707C98.4817 66.2707 98.7638 66.3271 99.0155 66.4399C99.2672 66.5441 99.5015 66.722 99.7185 66.9737L98.9504 67.7679C98.8202 67.629 98.677 67.5292 98.5208 67.4684C98.3645 67.4077 98.1823 67.3773 97.974 67.3773C97.54 67.3773 97.1842 67.5162 96.9064 67.7939C96.6287 68.0716 96.4898 68.4926 96.4898 69.0567ZM104.501 72.5848L101.611 69.4213L104.475 66.4009H105.894L102.705 69.7337L102.757 69.0567L106.011 72.5848H104.501ZM100.543 72.5848V63.2894H101.715V72.5848H100.543ZM112.352 72.715C111.779 72.715 111.267 72.5762 110.816 72.2984C110.365 72.012 110.005 71.6258 109.735 71.1397C109.475 70.6537 109.345 70.1069 109.345 69.4994C109.345 68.8918 109.475 68.345 109.735 67.859C110.005 67.373 110.365 66.9867 110.816 66.7003C111.267 66.4139 111.779 66.2707 112.352 66.2707C112.812 66.2707 113.229 66.3705 113.602 66.5701C113.975 66.7611 114.275 67.0301 114.5 67.3773C114.735 67.7158 114.865 68.1107 114.891 68.562V70.4237C114.865 70.8663 114.739 71.2613 114.513 71.6084C114.288 71.9556 113.988 72.229 113.615 72.4286C113.242 72.6196 112.821 72.715 112.352 72.715ZM112.548 71.6084C112.938 71.6084 113.277 71.5173 113.563 71.335C113.858 71.1528 114.088 70.9054 114.253 70.593C114.418 70.2718 114.5 69.9073 114.5 69.4994C114.5 69.0741 114.414 68.7052 114.24 68.3928C114.075 68.0803 113.845 67.833 113.55 67.6507C113.264 67.4684 112.925 67.3773 112.535 67.3773C112.144 67.3773 111.801 67.4684 111.506 67.6507C111.211 67.833 110.977 68.0847 110.803 68.4058C110.638 68.7182 110.556 69.0784 110.556 69.4863C110.556 69.903 110.638 70.2718 110.803 70.593C110.977 70.9054 111.211 71.1528 111.506 71.335C111.81 71.5173 112.157 71.6084 112.548 71.6084ZM115.607 72.5848H114.422V70.9184L114.644 69.4082L114.422 67.9111V63.2894H115.607V72.5848ZM119.799 72.715C119.296 72.715 118.84 72.6022 118.433 72.3765C118.033 72.1422 117.721 71.8211 117.495 71.4131C117.269 71.0052 117.157 70.5322 117.157 69.9941V66.4009H118.328V69.942C118.328 70.2805 118.385 70.5756 118.498 70.8273C118.619 71.0703 118.793 71.2569 119.018 71.3871C119.244 71.5173 119.509 71.5824 119.813 71.5824C120.273 71.5824 120.633 71.4392 120.893 71.1528C121.153 70.8577 121.284 70.4541 121.284 69.942V66.4009H122.455V69.9941C122.455 70.5322 122.343 71.0052 122.117 71.4131C121.891 71.8211 121.579 72.1422 121.179 72.3765C120.789 72.6022 120.329 72.715 119.799 72.715ZM124.026 72.5848V66.4009H125.197V72.5848H124.026ZM125.197 69.0567L124.755 68.8614C124.755 68.0716 124.937 67.4424 125.302 66.9737C125.666 66.505 126.191 66.2707 126.877 66.2707C127.189 66.2707 127.471 66.3271 127.723 66.4399C127.975 66.5441 128.209 66.722 128.426 66.9737L127.658 67.7679C127.528 67.629 127.385 67.5292 127.228 67.4684C127.072 67.4077 126.89 67.3773 126.682 67.3773C126.248 67.3773 125.892 67.5162 125.614 67.7939C125.336 68.0716 125.197 68.4926 125.197 69.0567ZM129.264 72.5848V66.4009H130.436V72.5848H129.264ZM129.85 65.1641C129.633 65.1641 129.455 65.0946 129.316 64.9558C129.177 64.8082 129.108 64.626 129.108 64.409C129.108 64.2007 129.177 64.0271 129.316 63.8882C129.455 63.7407 129.633 63.6669 129.85 63.6669C130.067 63.6669 130.245 63.7407 130.384 63.8882C130.523 64.0271 130.592 64.2007 130.592 64.409C130.592 64.626 130.523 64.8082 130.384 64.9558C130.245 65.0946 130.067 65.1641 129.85 65.1641ZM136.537 72.5848V68.9786C136.537 68.5099 136.389 68.1237 136.094 67.8199C135.799 67.5162 135.417 67.3643 134.949 67.3643C134.636 67.3643 134.358 67.4337 134.115 67.5726C133.872 67.7114 133.681 67.9024 133.543 68.1454C133.404 68.3884 133.334 68.6662 133.334 68.9786L132.853 68.7052C132.853 68.2365 132.957 67.8199 133.165 67.4554C133.373 67.0909 133.664 66.8045 134.037 66.5962C134.41 66.3792 134.831 66.2707 135.3 66.2707C135.769 66.2707 136.181 66.3879 136.537 66.6222C136.901 66.8565 137.188 67.1647 137.396 67.5465C137.604 67.9197 137.709 68.319 137.709 68.7443V72.5848H136.537ZM132.163 72.5848V66.4009H133.334V72.5848H132.163ZM141.86 75.3058C141.226 75.3058 140.662 75.1886 140.167 74.9543C139.681 74.7199 139.291 74.3901 138.996 73.9648L139.751 73.1967C140.002 73.5179 140.302 73.7609 140.649 73.9258C140.996 74.0994 141.408 74.1862 141.886 74.1862C142.519 74.1862 143.018 74.0169 143.383 73.6784C143.756 73.3486 143.943 72.9016 143.943 72.3375V70.8013L144.151 69.4082L143.943 68.0282V66.4009H145.114V72.3375C145.114 72.9277 144.976 73.4441 144.698 73.8867C144.429 74.3294 144.047 74.6765 143.552 74.9282C143.066 75.1799 142.502 75.3058 141.86 75.3058ZM141.86 72.4807C141.296 72.4807 140.788 72.3462 140.336 72.0771C139.894 71.808 139.542 71.4392 139.282 70.9705C139.022 70.4931 138.891 69.9594 138.891 69.3692C138.891 68.779 139.022 68.2539 139.282 67.7939C139.542 67.3252 139.894 66.9563 140.336 66.6873C140.788 66.4096 141.296 66.2707 141.86 66.2707C142.346 66.2707 142.775 66.3662 143.149 66.5571C143.522 66.748 143.817 67.0171 144.034 67.3643C144.259 67.7028 144.381 68.102 144.398 68.562V70.2024C144.372 70.6537 144.246 71.053 144.021 71.4001C143.804 71.7386 143.509 72.0033 143.136 72.1943C142.762 72.3852 142.337 72.4807 141.86 72.4807ZM142.094 71.3741C142.476 71.3741 142.81 71.2916 143.096 71.1267C143.392 70.9618 143.617 70.7318 143.773 70.4367C143.93 70.133 144.008 69.7814 144.008 69.3822C144.008 68.983 143.925 68.6358 143.76 68.3407C143.604 68.0369 143.383 67.8026 143.096 67.6377C142.81 67.4641 142.472 67.3773 142.081 67.3773C141.69 67.3773 141.348 67.4641 141.052 67.6377C140.757 67.8026 140.523 68.0369 140.349 68.3407C140.185 68.6358 140.102 68.9786 140.102 69.3692C140.102 69.7597 140.185 70.1069 140.349 70.4107C140.523 70.7145 140.757 70.9531 141.052 71.1267C141.356 71.2916 141.703 71.3741 142.094 71.3741ZM152.797 72.715C152.328 72.715 151.903 72.6196 151.521 72.4286C151.148 72.229 150.848 71.9556 150.623 71.6084C150.397 71.2613 150.271 70.8663 150.245 70.4237V68.562C150.271 68.1107 150.397 67.7158 150.623 67.3773C150.857 67.0301 151.161 66.7611 151.534 66.5701C151.916 66.3705 152.337 66.2707 152.797 66.2707C153.361 66.2707 153.869 66.4139 154.32 66.7003C154.78 66.9867 155.14 67.373 155.401 67.859C155.661 68.345 155.791 68.8918 155.791 69.4994C155.791 70.1069 155.661 70.6537 155.401 71.1397C155.14 71.6258 154.78 72.012 154.32 72.2984C153.869 72.5762 153.361 72.715 152.797 72.715ZM152.602 71.6084C152.992 71.6084 153.335 71.5173 153.63 71.335C153.925 71.1528 154.16 70.9054 154.333 70.593C154.507 70.2718 154.594 69.903 154.594 69.4863C154.594 69.0784 154.507 68.7139 154.333 68.3928C154.16 68.0716 153.925 67.8243 153.63 67.6507C153.335 67.4684 152.997 67.3773 152.615 67.3773C152.224 67.3773 151.881 67.4684 151.586 67.6507C151.291 67.8243 151.061 68.0716 150.896 68.3928C150.731 68.7139 150.649 69.0828 150.649 69.4994C150.649 69.9073 150.727 70.2718 150.883 70.593C151.048 70.9054 151.278 71.1528 151.573 71.335C151.877 71.5173 152.22 71.6084 152.602 71.6084ZM149.542 75.1756V66.4009H150.714V68.0282L150.493 69.5254L150.714 71.0356V75.1756H149.542ZM159.984 72.715C159.368 72.715 158.812 72.5762 158.317 72.2984C157.823 72.012 157.432 71.6258 157.146 71.1397C156.859 70.6537 156.716 70.1026 156.716 69.4863C156.716 68.8788 156.855 68.332 157.133 67.846C157.419 67.3599 157.801 66.978 158.278 66.7003C158.764 66.4139 159.307 66.2707 159.906 66.2707C160.478 66.2707 160.982 66.4009 161.416 66.6613C161.858 66.9216 162.201 67.2818 162.444 67.7418C162.696 68.2018 162.822 68.7226 162.822 69.3041C162.822 69.3909 162.818 69.4863 162.809 69.5905C162.8 69.686 162.783 69.7988 162.757 69.929H157.536V68.9526H162.132L161.702 69.3301C161.702 68.9135 161.628 68.562 161.481 68.2756C161.333 67.9805 161.125 67.7548 160.856 67.5986C160.587 67.4337 160.261 67.3513 159.88 67.3513C159.48 67.3513 159.129 67.438 158.825 67.6116C158.521 67.7852 158.287 68.0282 158.122 68.3407C157.957 68.6531 157.875 69.022 157.875 69.4473C157.875 69.8813 157.961 70.2631 158.135 70.593C158.309 70.9141 158.556 71.1658 158.877 71.348C159.198 71.5216 159.567 71.6084 159.984 71.6084C160.331 71.6084 160.648 71.5477 160.934 71.4262C161.229 71.3047 161.481 71.1224 161.689 70.8794L162.444 71.6475C162.149 71.9947 161.785 72.2594 161.351 72.4416C160.925 72.6239 160.47 72.715 159.984 72.715ZM166.729 72.715C166.165 72.715 165.653 72.5762 165.193 72.2984C164.733 72.012 164.369 71.6258 164.099 71.1397C163.839 70.6537 163.709 70.1069 163.709 69.4994C163.709 68.8918 163.839 68.345 164.099 67.859C164.369 67.373 164.729 66.9867 165.18 66.7003C165.64 66.4139 166.156 66.2707 166.729 66.2707C167.198 66.2707 167.615 66.3705 167.979 66.5701C168.352 66.7611 168.652 67.0301 168.877 67.3773C169.103 67.7158 169.229 68.1107 169.255 68.562V70.4237C169.229 70.8663 169.103 71.2613 168.877 71.6084C168.66 71.9556 168.365 72.229 167.992 72.4286C167.628 72.6196 167.207 72.715 166.729 72.715ZM166.925 71.6084C167.506 71.6084 167.975 71.4131 168.331 71.0226C168.686 70.6233 168.864 70.1156 168.864 69.4994C168.864 69.0741 168.782 68.7052 168.617 68.3928C168.461 68.0716 168.235 67.8243 167.94 67.6507C167.645 67.4684 167.302 67.3773 166.912 67.3773C166.521 67.3773 166.174 67.4684 165.87 67.6507C165.575 67.833 165.341 68.0847 165.167 68.4058C165.002 68.7182 164.92 69.0784 164.92 69.4863C164.92 69.903 165.002 70.2718 165.167 70.593C165.341 70.9054 165.579 71.1528 165.883 71.335C166.187 71.5173 166.534 71.6084 166.925 71.6084ZM168.786 72.5848V70.9184L169.008 69.4082L168.786 67.9111V66.4009H169.971V72.5848H168.786ZM175.635 72.5848L172.744 69.4213L175.609 66.4009H177.028L173.838 69.7337L173.89 69.0567L177.145 72.5848H175.635ZM171.677 72.5848V63.2894H172.849V72.5848H171.677ZM19.3027 91.715C18.834 91.715 18.4087 91.6196 18.0268 91.4286C17.6536 91.229 17.3542 90.9556 17.1285 90.6084C16.9029 90.2613 16.777 89.8663 16.751 89.4237V87.562C16.777 87.1107 16.9029 86.7158 17.1285 86.3773C17.3629 86.0301 17.6666 85.7611 18.0399 85.5701C18.4217 85.3705 18.8427 85.2707 19.3027 85.2707C19.8668 85.2707 20.3746 85.4139 20.8259 85.7003C21.2859 85.9867 21.6461 86.373 21.9065 86.859C22.1668 87.345 22.297 87.8918 22.297 88.4994C22.297 89.1069 22.1668 89.6537 21.9065 90.1397C21.6461 90.6258 21.2859 91.012 20.8259 91.2984C20.3746 91.5762 19.8668 91.715 19.3027 91.715ZM19.1074 90.6084C19.498 90.6084 19.8408 90.5173 20.1359 90.335C20.431 90.1528 20.6653 89.9054 20.8389 89.593C21.0125 89.2718 21.0993 88.903 21.0993 88.4863C21.0993 88.0784 21.0125 87.7139 20.8389 87.3928C20.6653 87.0716 20.431 86.8243 20.1359 86.6507C19.8408 86.4684 19.5023 86.3773 19.1204 86.3773C18.7299 86.3773 18.387 86.4684 18.0919 86.6507C17.7968 86.8243 17.5668 87.0716 17.4019 87.3928C17.237 87.7139 17.1546 88.0828 17.1546 88.4994C17.1546 88.9073 17.2327 89.2718 17.3889 89.593C17.5538 89.9054 17.7838 90.1528 18.0789 90.335C18.3827 90.5173 18.7255 90.6084 19.1074 90.6084ZM16.048 94.1756V85.4009H17.2197V87.0282L16.9983 88.5254L17.2197 90.0356V94.1756H16.048ZM26.4895 91.715C25.8733 91.715 25.3178 91.5762 24.8231 91.2984C24.3284 91.012 23.9378 90.6258 23.6514 90.1397C23.365 89.6537 23.2218 89.1026 23.2218 88.4863C23.2218 87.8788 23.3606 87.332 23.6384 86.846C23.9248 86.3599 24.3067 85.978 24.784 85.7003C25.2701 85.4139 25.8125 85.2707 26.4114 85.2707C26.9842 85.2707 27.4876 85.4009 27.9216 85.6613C28.3642 85.9216 28.7071 86.2818 28.9501 86.7418C29.2018 87.2018 29.3276 87.7226 29.3276 88.3041C29.3276 88.3909 29.3233 88.4863 29.3146 88.5905C29.3059 88.686 29.2886 88.7988 29.2625 88.929H24.042V87.9526H28.6376L28.208 88.3301C28.208 87.9135 28.1342 87.562 27.9867 87.2756C27.8391 86.9805 27.6308 86.7548 27.3618 86.5986C27.0927 86.4337 26.7672 86.3513 26.3854 86.3513C25.9861 86.3513 25.6346 86.438 25.3308 86.6116C25.0271 86.7852 24.7927 87.0282 24.6278 87.3407C24.4629 87.6531 24.3804 88.022 24.3804 88.4473C24.3804 88.8813 24.4672 89.2631 24.6408 89.593C24.8144 89.9141 25.0618 90.1658 25.3829 90.348C25.704 90.5216 26.0729 90.6084 26.4895 90.6084C26.8367 90.6084 27.1535 90.5477 27.4399 90.4262C27.735 90.3047 27.9867 90.1224 28.195 89.8794L28.9501 90.6475C28.655 90.9947 28.2904 91.2594 27.8565 91.4416C27.4312 91.6239 26.9755 91.715 26.4895 91.715ZM30.6052 91.5848V85.4009H31.7769V91.5848H30.6052ZM31.7769 88.0567L31.3343 87.8614C31.3343 87.0716 31.5165 86.4424 31.881 85.9737C32.2456 85.505 32.7707 85.2707 33.4563 85.2707C33.7688 85.2707 34.0509 85.3271 34.3026 85.4399C34.5543 85.5441 34.7886 85.722 35.0056 85.9737L34.2375 86.7679C34.1073 86.629 33.9641 86.5292 33.8078 86.4684C33.6516 86.4077 33.4693 86.3773 33.261 86.3773C32.8271 86.3773 32.4712 86.5162 32.1935 86.7939C31.9158 87.0716 31.7769 87.4926 31.7769 88.0567ZM35.8436 91.5848V85.4009H37.0153V91.5848H35.8436ZM36.4294 84.1641C36.2124 84.1641 36.0345 84.0946 35.8956 83.9558C35.7568 83.8082 35.6873 83.626 35.6873 83.409C35.6873 83.2007 35.7568 83.0271 35.8956 82.8882C36.0345 82.7407 36.2124 82.6669 36.4294 82.6669C36.6464 82.6669 36.8243 82.7407 36.9632 82.8882C37.1021 83.0271 37.1715 83.2007 37.1715 83.409C37.1715 83.626 37.1021 83.8082 36.9632 83.9558C36.8243 84.0946 36.6464 84.1641 36.4294 84.1641ZM41.5671 91.715C40.9595 91.715 40.4127 91.5718 39.9267 91.2854C39.4407 90.999 39.0544 90.6128 38.768 90.1267C38.4816 89.632 38.3384 89.0809 38.3384 88.4733C38.3384 87.8745 38.4816 87.3363 38.768 86.859C39.0544 86.373 39.4407 85.9867 39.9267 85.7003C40.4127 85.4139 40.9595 85.2707 41.5671 85.2707C42.1659 85.2707 42.7084 85.4139 43.1944 85.7003C43.6892 85.978 44.0797 86.3599 44.3661 86.846C44.6526 87.332 44.7958 87.8745 44.7958 88.4733C44.7958 89.0809 44.6526 89.632 44.3661 90.1267C44.0797 90.6128 43.6892 90.999 43.1944 91.2854C42.7084 91.5718 42.1659 91.715 41.5671 91.715ZM41.5671 90.5824C41.9576 90.5824 42.3048 90.4913 42.6086 90.309C42.9124 90.1267 43.151 89.8794 43.3246 89.5669C43.4982 89.2458 43.585 88.8813 43.585 88.4733C43.585 88.0741 43.4939 87.7182 43.3116 87.4058C43.138 87.0933 42.8993 86.8503 42.5956 86.6767C42.3005 86.4945 41.9576 86.4033 41.5671 86.4033C41.1765 86.4033 40.8293 86.4945 40.5256 86.6767C40.2218 86.8503 39.9831 87.0933 39.8095 87.4058C39.6359 87.7182 39.5492 88.0741 39.5492 88.4733C39.5492 88.8813 39.6359 89.2458 39.8095 89.5669C39.9831 89.8794 40.2218 90.1267 40.5256 90.309C40.8293 90.4913 41.1765 90.5824 41.5671 90.5824ZM48.7327 91.715C48.1599 91.715 47.6478 91.5762 47.1965 91.2984C46.7452 91.012 46.385 90.6258 46.116 90.1397C45.8556 89.6537 45.7254 89.1069 45.7254 88.4994C45.7254 87.8918 45.8556 87.345 46.116 86.859C46.385 86.373 46.7452 85.9867 47.1965 85.7003C47.6478 85.4139 48.1599 85.2707 48.7327 85.2707C49.1927 85.2707 49.6094 85.3705 49.9826 85.5701C50.3558 85.7611 50.6552 86.0301 50.8809 86.3773C51.1152 86.7158 51.2454 87.1107 51.2714 87.562V89.4237C51.2454 89.8663 51.1195 90.2613 50.8939 90.6084C50.6682 90.9556 50.3688 91.229 49.9956 91.4286C49.6224 91.6196 49.2014 91.715 48.7327 91.715ZM48.928 90.6084C49.3186 90.6084 49.6571 90.5173 49.9435 90.335C50.2386 90.1528 50.4686 89.9054 50.6335 89.593C50.7984 89.2718 50.8809 88.9073 50.8809 88.4994C50.8809 88.0741 50.7941 87.7052 50.6205 87.3928C50.4556 87.0803 50.2256 86.833 49.9305 86.6507C49.6441 86.4684 49.3056 86.3773 48.915 86.3773C48.5244 86.3773 48.1816 86.4684 47.8865 86.6507C47.5914 86.833 47.3571 87.0847 47.1835 87.4058C47.0186 87.7182 46.9361 88.0784 46.9361 88.4863C46.9361 88.903 47.0186 89.2718 47.1835 89.593C47.3571 89.9054 47.5914 90.1528 47.8865 90.335C48.1903 90.5173 48.5375 90.6084 48.928 90.6084ZM51.9875 91.5848H50.8027V89.9184L51.0241 88.4082L50.8027 86.9111V82.2894H51.9875V91.5848ZM55.6592 91.715C55.312 91.715 54.9822 91.6716 54.6698 91.5848C54.366 91.4894 54.0839 91.3592 53.8235 91.1943C53.5632 91.0207 53.3375 90.8167 53.1466 90.5824L53.9016 89.8273C54.1273 90.105 54.3877 90.3133 54.6828 90.4522C54.9779 90.5824 55.3077 90.6475 55.6722 90.6475C56.0367 90.6475 56.3188 90.5867 56.5184 90.4652C56.7181 90.335 56.8179 90.1571 56.8179 89.9314C56.8179 89.7058 56.7354 89.5322 56.5705 89.4107C56.4143 89.2805 56.2103 89.1763 55.9586 89.0982C55.7069 89.0114 55.4379 88.929 55.1515 88.8509C54.8737 88.7641 54.609 88.6556 54.3573 88.5254C54.1056 88.3952 53.8973 88.2173 53.7324 87.9916C53.5762 87.766 53.4981 87.4665 53.4981 87.0933C53.4981 86.7201 53.5892 86.399 53.7715 86.1299C53.9537 85.8522 54.2054 85.6396 54.5266 85.492C54.8564 85.3445 55.2513 85.2707 55.7113 85.2707C56.1973 85.2707 56.6269 85.3575 57.0001 85.5311C57.382 85.696 57.6945 85.9477 57.9375 86.2862L57.1824 87.0413C57.0088 86.8156 56.7918 86.642 56.5315 86.5205C56.2798 86.399 55.9933 86.3382 55.6722 86.3382C55.3337 86.3382 55.0733 86.399 54.8911 86.5205C54.7175 86.6333 54.6307 86.7939 54.6307 87.0022C54.6307 87.2105 54.7088 87.3711 54.865 87.4839C55.0213 87.5967 55.2252 87.6922 55.4769 87.7703C55.7373 87.8484 56.0064 87.9309 56.2841 88.0177C56.5618 88.0958 56.8266 88.2043 57.0782 88.3431C57.3299 88.482 57.5339 88.6686 57.6901 88.903C57.855 89.1373 57.9375 89.4454 57.9375 89.8273C57.9375 90.4088 57.7292 90.8688 57.3126 91.2073C56.9047 91.5458 56.3535 91.715 55.6592 91.715ZM64.5871 91.715C64.0229 91.715 63.5109 91.5762 63.0509 91.2984C62.5909 91.012 62.2263 90.6258 61.9573 90.1397C61.6969 89.6537 61.5667 89.1069 61.5667 88.4994C61.5667 87.8918 61.6969 87.345 61.9573 86.859C62.2263 86.373 62.5865 85.9867 63.0378 85.7003C63.4978 85.4139 64.0143 85.2707 64.5871 85.2707C65.0558 85.2707 65.4724 85.3705 65.8369 85.5701C66.2101 85.7611 66.5095 86.0301 66.7352 86.3773C66.9609 86.7158 67.0867 87.1107 67.1127 87.562V89.4237C67.0867 89.8663 66.9609 90.2613 66.7352 90.6084C66.5182 90.9556 66.2231 91.229 65.8499 91.4286C65.4854 91.6196 65.0644 91.715 64.5871 91.715ZM64.7824 90.6084C65.3639 90.6084 65.8326 90.4131 66.1884 90.0226C66.5443 89.6233 66.7222 89.1156 66.7222 88.4994C66.7222 88.0741 66.6397 87.7052 66.4748 87.3928C66.3186 87.0716 66.0929 86.8243 65.7978 86.6507C65.5027 86.4684 65.1599 86.3773 64.7694 86.3773C64.3788 86.3773 64.0316 86.4684 63.7278 86.6507C63.4327 86.833 63.1984 87.0847 63.0248 87.4058C62.8599 87.7182 62.7775 88.0784 62.7775 88.4863C62.7775 88.903 62.8599 89.2718 63.0248 89.593C63.1984 89.9054 63.4371 90.1528 63.7409 90.335C64.0446 90.5173 64.3918 90.6084 64.7824 90.6084ZM66.6441 91.5848V89.9184L66.8654 88.4082L66.6441 86.9111V85.4009H67.8288V91.5848H66.6441ZM73.909 91.5848V87.9786C73.909 87.5099 73.7615 87.1237 73.4664 86.8199C73.1713 86.5162 72.7894 86.3643 72.3207 86.3643C72.0082 86.3643 71.7305 86.4337 71.4875 86.5726C71.2445 86.7114 71.0535 86.9024 70.9147 87.1454C70.7758 87.3884 70.7064 87.6662 70.7064 87.9786L70.2247 87.7052C70.2247 87.2365 70.3288 86.8199 70.5371 86.4554C70.7454 86.0909 71.0362 85.8045 71.4094 85.5962C71.7826 85.3792 72.2035 85.2707 72.6722 85.2707C73.1409 85.2707 73.5532 85.3879 73.909 85.6222C74.2735 85.8565 74.5599 86.1647 74.7682 86.5465C74.9765 86.9197 75.0807 87.319 75.0807 87.7443V91.5848H73.909ZM69.5347 91.5848V85.4009H70.7064V91.5848H69.5347ZM79.2839 91.715C78.711 91.715 78.199 91.5762 77.7476 91.2984C77.2963 91.012 76.9361 90.6258 76.6671 90.1397C76.4067 89.6537 76.2765 89.1069 76.2765 88.4994C76.2765 87.8918 76.4067 87.345 76.6671 86.859C76.9361 86.373 77.2963 85.9867 77.7476 85.7003C78.199 85.4139 78.711 85.2707 79.2839 85.2707C79.7439 85.2707 80.1605 85.3705 80.5337 85.5701C80.9069 85.7611 81.2063 86.0301 81.432 86.3773C81.6663 86.7158 81.7965 87.1107 81.8225 87.562V89.4237C81.7965 89.8663 81.6707 90.2613 81.445 90.6084C81.2193 90.9556 80.9199 91.229 80.5467 91.4286C80.1735 91.6196 79.7525 91.715 79.2839 91.715ZM79.4791 90.6084C79.8697 90.6084 80.2082 90.5173 80.4946 90.335C80.7897 90.1528 81.0197 89.9054 81.1846 89.593C81.3495 89.2718 81.432 88.9073 81.432 88.4994C81.432 88.0741 81.3452 87.7052 81.1716 87.3928C81.0067 87.0803 80.7767 86.833 80.4816 86.6507C80.1952 86.4684 79.8567 86.3773 79.4661 86.3773C79.0756 86.3773 78.7327 86.4684 78.4376 86.6507C78.1425 86.833 77.9082 87.0847 77.7346 87.4058C77.5697 87.7182 77.4873 88.0784 77.4873 88.4863C77.4873 88.903 77.5697 89.2718 77.7346 89.593C77.9082 89.9054 78.1425 90.1528 78.4376 90.335C78.7414 90.5173 79.0886 90.6084 79.4791 90.6084ZM82.5386 91.5848H81.3539V89.9184L81.5752 88.4082L81.3539 86.9111V82.2894H82.5386V91.5848ZM87.9029 91.5848V82.8101H89.0746V91.5848H87.9029ZM86.3797 86.4684V85.4009H90.5978V86.4684H86.3797ZM94.1847 91.715C93.6205 91.715 93.1084 91.5762 92.6484 91.2984C92.1884 91.012 91.8239 90.6258 91.5549 90.1397C91.2945 89.6537 91.1643 89.1069 91.1643 88.4994C91.1643 87.8918 91.2945 87.345 91.5549 86.859C91.8239 86.373 92.1841 85.9867 92.6354 85.7003C93.0954 85.4139 93.6118 85.2707 94.1847 85.2707C94.6533 85.2707 95.0699 85.3705 95.4345 85.5701C95.8077 85.7611 96.1071 86.0301 96.3328 86.3773C96.5584 86.7158 96.6843 87.1107 96.7103 87.562V89.4237C96.6843 89.8663 96.5584 90.2613 96.3328 90.6084C96.1158 90.9556 95.8207 91.229 95.4475 91.4286C95.083 91.6196 94.662 91.715 94.1847 91.715ZM94.3799 90.6084C94.9615 90.6084 95.4301 90.4131 95.786 90.0226C96.1418 89.6233 96.3198 89.1156 96.3198 88.4994C96.3198 88.0741 96.2373 87.7052 96.0724 87.3928C95.9162 87.0716 95.6905 86.8243 95.3954 86.6507C95.1003 86.4684 94.7575 86.3773 94.3669 86.3773C93.9764 86.3773 93.6292 86.4684 93.3254 86.6507C93.0303 86.833 92.796 87.0847 92.6224 87.4058C92.4575 87.7182 92.375 88.0784 92.375 88.4863C92.375 88.903 92.4575 89.2718 92.6224 89.593C92.796 89.9054 93.0347 90.1528 93.3384 90.335C93.6422 90.5173 93.9894 90.6084 94.3799 90.6084ZM96.2416 91.5848V89.9184L96.463 88.4082L96.2416 86.9111V85.4009H97.4264V91.5848H96.2416ZM103.194 91.5848L101.267 88.8769L101.046 88.6686L98.6115 85.4009H100.031L101.788 87.8094L102.009 87.9916L104.613 91.5848H103.194ZM98.4943 91.5848L101.046 88.1479L101.71 89.0071L99.8743 91.5848H98.4943ZM102.101 88.6556L101.424 87.8224L103.129 85.4009H104.496L102.101 88.6556ZM110.366 91.715C110.019 91.715 109.689 91.6716 109.377 91.5848C109.073 91.4894 108.791 91.3592 108.531 91.1943C108.27 91.0207 108.045 90.8167 107.854 90.5824L108.609 89.8273C108.835 90.105 109.095 90.3133 109.39 90.4522C109.685 90.5824 110.015 90.6475 110.379 90.6475C110.744 90.6475 111.026 90.5867 111.226 90.4652C111.425 90.335 111.525 90.1571 111.525 89.9314C111.525 89.7058 111.443 89.5322 111.278 89.4107C111.122 89.2805 110.918 89.1763 110.666 89.0982C110.414 89.0114 110.145 88.929 109.859 88.8509C109.581 88.7641 109.316 88.6556 109.065 88.5254C108.813 88.3952 108.605 88.2173 108.44 87.9916C108.283 87.766 108.205 87.4665 108.205 87.0933C108.205 86.7201 108.296 86.399 108.479 86.1299C108.661 85.8522 108.913 85.6396 109.234 85.492C109.564 85.3445 109.958 85.2707 110.418 85.2707C110.905 85.2707 111.334 85.3575 111.707 85.5311C112.089 85.696 112.402 85.9477 112.645 86.2862L111.89 87.0413C111.716 86.8156 111.499 86.642 111.239 86.5205C110.987 86.399 110.701 86.3382 110.379 86.3382C110.041 86.3382 109.781 86.399 109.598 86.5205C109.425 86.6333 109.338 86.7939 109.338 87.0022C109.338 87.2105 109.416 87.3711 109.572 87.4839C109.728 87.5967 109.932 87.6922 110.184 87.7703C110.445 87.8484 110.714 87.9309 110.991 88.0177C111.269 88.0958 111.534 88.2043 111.785 88.3431C112.037 88.482 112.241 88.6686 112.397 88.903C112.562 89.1373 112.645 89.4454 112.645 89.8273C112.645 90.4088 112.436 90.8688 112.02 91.2073C111.612 91.5458 111.061 91.715 110.366 91.715ZM116.821 91.715C116.204 91.715 115.649 91.5762 115.154 91.2984C114.659 91.012 114.269 90.6258 113.982 90.1397C113.696 89.6537 113.553 89.1026 113.553 88.4863C113.553 87.8788 113.692 87.332 113.969 86.846C114.256 86.3599 114.638 85.978 115.115 85.7003C115.601 85.4139 116.144 85.2707 116.742 85.2707C117.315 85.2707 117.819 85.4009 118.253 85.6613C118.695 85.9216 119.038 86.2818 119.281 86.7418C119.533 87.2018 119.659 87.7226 119.659 88.3041C119.659 88.3909 119.654 88.4863 119.646 88.5905C119.637 88.686 119.62 88.7988 119.594 88.929H114.373V87.9526H118.969L118.539 88.3301C118.539 87.9135 118.465 87.562 118.318 87.2756C118.17 86.9805 117.962 86.7548 117.693 86.5986C117.424 86.4337 117.098 86.3513 116.716 86.3513C116.317 86.3513 115.966 86.438 115.662 86.6116C115.358 86.7852 115.124 87.0282 114.959 87.3407C114.794 87.6531 114.712 88.022 114.712 88.4473C114.712 88.8813 114.798 89.2631 114.972 89.593C115.146 89.9141 115.393 90.1658 115.714 90.348C116.035 90.5216 116.404 90.6084 116.821 90.6084C117.168 90.6084 117.485 90.5477 117.771 90.4262C118.066 90.3047 118.318 90.1224 118.526 89.8794L119.281 90.6475C118.986 90.9947 118.622 91.2594 118.188 91.4416C117.762 91.6239 117.307 91.715 116.821 91.715ZM123.566 91.715C123.002 91.715 122.49 91.5762 122.03 91.2984C121.57 91.012 121.205 90.6258 120.936 90.1397C120.676 89.6537 120.546 89.1069 120.546 88.4994C120.546 87.8918 120.676 87.345 120.936 86.859C121.205 86.373 121.566 85.9867 122.017 85.7003C122.477 85.4139 122.993 85.2707 123.566 85.2707C124.035 85.2707 124.451 85.3705 124.816 85.5701C125.189 85.7611 125.489 86.0301 125.714 86.3773C125.94 86.7158 126.066 87.1107 126.092 87.562V89.4237C126.066 89.8663 125.94 90.2613 125.714 90.6084C125.497 90.9556 125.202 91.229 124.829 91.4286C124.464 91.6196 124.043 91.715 123.566 91.715ZM123.761 90.6084C124.343 90.6084 124.812 90.4131 125.167 90.0226C125.523 89.6233 125.701 89.1156 125.701 88.4994C125.701 88.0741 125.619 87.7052 125.454 87.3928C125.298 87.0716 125.072 86.8243 124.777 86.6507C124.482 86.4684 124.139 86.3773 123.748 86.3773C123.358 86.3773 123.011 86.4684 122.707 86.6507C122.412 86.833 122.177 87.0847 122.004 87.4058C121.839 87.7182 121.756 88.0784 121.756 88.4863C121.756 88.903 121.839 89.2718 122.004 89.593C122.177 89.9054 122.416 90.1528 122.72 90.335C123.024 90.5173 123.371 90.6084 123.761 90.6084ZM125.623 91.5848V89.9184L125.844 88.4082L125.623 86.9111V85.4009H126.808V91.5848H125.623ZM130.48 91.715C130.132 91.715 129.803 91.6716 129.49 91.5848C129.186 91.4894 128.904 91.3592 128.644 91.1943C128.384 91.0207 128.158 90.8167 127.967 90.5824L128.722 89.8273C128.948 90.105 129.208 90.3133 129.503 90.4522C129.798 90.5824 130.128 90.6475 130.493 90.6475C130.857 90.6475 131.139 90.5867 131.339 90.4652C131.538 90.335 131.638 90.1571 131.638 89.9314C131.638 89.7058 131.556 89.5322 131.391 89.4107C131.235 89.2805 131.031 89.1763 130.779 89.0982C130.527 89.0114 130.258 88.929 129.972 88.8509C129.694 88.7641 129.429 88.6556 129.178 88.5254C128.926 88.3952 128.718 88.2173 128.553 87.9916C128.397 87.766 128.318 87.4665 128.318 87.0933C128.318 86.7201 128.41 86.399 128.592 86.1299C128.774 85.8522 129.026 85.6396 129.347 85.492C129.677 85.3445 130.072 85.2707 130.532 85.2707C131.018 85.2707 131.447 85.3575 131.82 85.5311C132.202 85.696 132.515 85.9477 132.758 86.2862L132.003 87.0413C131.829 86.8156 131.612 86.642 131.352 86.5205C131.1 86.399 130.814 86.3382 130.493 86.3382C130.154 86.3382 129.894 86.399 129.711 86.5205C129.538 86.6333 129.451 86.7939 129.451 87.0022C129.451 87.2105 129.529 87.3711 129.685 87.4839C129.842 87.5967 130.046 87.6922 130.297 87.7703C130.558 87.8484 130.827 87.9309 131.104 88.0177C131.382 88.0958 131.647 88.2043 131.899 88.3431C132.15 88.482 132.354 88.6686 132.51 88.903C132.675 89.1373 132.758 89.4454 132.758 89.8273C132.758 90.4088 132.55 90.8688 132.133 91.2073C131.725 91.5458 131.174 91.715 130.48 91.715ZM136.895 91.715C136.287 91.715 135.74 91.5718 135.254 91.2854C134.768 90.999 134.382 90.6128 134.096 90.1267C133.809 89.632 133.666 89.0809 133.666 88.4733C133.666 87.8745 133.809 87.3363 134.096 86.859C134.382 86.373 134.768 85.9867 135.254 85.7003C135.74 85.4139 136.287 85.2707 136.895 85.2707C137.494 85.2707 138.036 85.4139 138.522 85.7003C139.017 85.978 139.407 86.3599 139.694 86.846C139.98 87.332 140.123 87.8745 140.123 88.4733C140.123 89.0809 139.98 89.632 139.694 90.1267C139.407 90.6128 139.017 90.999 138.522 91.2854C138.036 91.5718 137.494 91.715 136.895 91.715ZM136.895 90.5824C137.285 90.5824 137.632 90.4913 137.936 90.309C138.24 90.1267 138.479 89.8794 138.652 89.5669C138.826 89.2458 138.913 88.8813 138.913 88.4733C138.913 88.0741 138.821 87.7182 138.639 87.4058C138.466 87.0933 138.227 86.8503 137.923 86.6767C137.628 86.4945 137.285 86.4033 136.895 86.4033C136.504 86.4033 136.157 86.4945 135.853 86.6767C135.549 86.8503 135.311 87.0933 135.137 87.4058C134.964 87.7182 134.877 88.0741 134.877 88.4733C134.877 88.8813 134.964 89.2458 135.137 89.5669C135.311 89.8794 135.549 90.1267 135.853 90.309C136.157 90.4913 136.504 90.5824 136.895 90.5824ZM145.818 91.5848V87.9786C145.818 87.5099 145.67 87.1237 145.375 86.8199C145.08 86.5162 144.698 86.3643 144.23 86.3643C143.917 86.3643 143.639 86.4337 143.396 86.5726C143.153 86.7114 142.962 86.9024 142.824 87.1454C142.685 87.3884 142.615 87.6662 142.615 87.9786L142.134 87.7052C142.134 87.2365 142.238 86.8199 142.446 86.4554C142.654 86.0909 142.945 85.8045 143.318 85.5962C143.691 85.3792 144.112 85.2707 144.581 85.2707C145.05 85.2707 145.462 85.3879 145.818 85.6222C146.182 85.8565 146.469 86.1647 146.677 86.5465C146.885 86.9197 146.99 87.319 146.99 87.7443V91.5848H145.818ZM141.444 91.5848V85.4009H142.615V91.5848H141.444ZM150.542 91.715C150.195 91.715 149.865 91.6716 149.552 91.5848C149.249 91.4894 148.967 91.3592 148.706 91.1943C148.446 91.0207 148.22 90.8167 148.029 90.5824L148.784 89.8273C149.01 90.105 149.27 90.3133 149.565 90.4522C149.86 90.5824 150.19 90.6475 150.555 90.6475C150.919 90.6475 151.201 90.5867 151.401 90.4652C151.601 90.335 151.7 90.1571 151.7 89.9314C151.7 89.7058 151.618 89.5322 151.453 89.4107C151.297 89.2805 151.093 89.1763 150.841 89.0982C150.59 89.0114 150.32 88.929 150.034 88.8509C149.756 88.7641 149.492 88.6556 149.24 88.5254C148.988 88.3952 148.78 88.2173 148.615 87.9916C148.459 87.766 148.381 87.4665 148.381 87.0933C148.381 86.7201 148.472 86.399 148.654 86.1299C148.836 85.8522 149.088 85.6396 149.409 85.492C149.739 85.3445 150.134 85.2707 150.594 85.2707C151.08 85.2707 151.51 85.3575 151.883 85.5311C152.265 85.696 152.577 85.9477 152.82 86.2862L152.065 87.0413C151.891 86.8156 151.674 86.642 151.414 86.5205C151.162 86.399 150.876 86.3382 150.555 86.3382C150.216 86.3382 149.956 86.399 149.774 86.5205C149.6 86.6333 149.513 86.7939 149.513 87.0022C149.513 87.2105 149.591 87.3711 149.748 87.4839C149.904 87.5967 150.108 87.6922 150.36 87.7703C150.62 87.8484 150.889 87.9309 151.167 88.0177C151.444 88.0958 151.709 88.2043 151.961 88.3431C152.213 88.482 152.417 88.6686 152.573 88.903C152.738 89.1373 152.82 89.4454 152.82 89.8273C152.82 90.4088 152.612 90.8688 152.195 91.2073C151.787 91.5458 151.236 91.715 150.542 91.715ZM157.725 91.5848V84.4765C157.725 84.0165 157.825 83.6173 158.025 83.2788C158.224 82.9316 158.498 82.6582 158.845 82.4586C159.201 82.259 159.613 82.1592 160.082 82.1592C160.437 82.1592 160.746 82.2199 161.006 82.3414C161.266 82.463 161.505 82.6409 161.722 82.8752L160.954 83.6303C160.841 83.5088 160.715 83.4177 160.576 83.3569C160.437 83.2875 160.268 83.2528 160.069 83.2528C159.695 83.2528 159.405 83.3613 159.196 83.5782C158.997 83.7952 158.897 84.0947 158.897 84.4765V91.5848H157.725ZM156.202 86.4684V85.4009H160.863V86.4684H156.202ZM164.509 91.715C163.901 91.715 163.355 91.5718 162.869 91.2854C162.383 90.999 161.996 90.6128 161.71 90.1267C161.423 89.632 161.28 89.0809 161.28 88.4733C161.28 87.8745 161.423 87.3363 161.71 86.859C161.996 86.373 162.383 85.9867 162.869 85.7003C163.355 85.4139 163.901 85.2707 164.509 85.2707C165.108 85.2707 165.65 85.4139 166.136 85.7003C166.631 85.978 167.022 86.3599 167.308 86.846C167.594 87.332 167.738 87.8745 167.738 88.4733C167.738 89.0809 167.594 89.632 167.308 90.1267C167.022 90.6128 166.631 90.999 166.136 91.2854C165.65 91.5718 165.108 91.715 164.509 91.715ZM164.509 90.5824C164.899 90.5824 165.247 90.4913 165.55 90.309C165.854 90.1267 166.093 89.8794 166.266 89.5669C166.44 89.2458 166.527 88.8813 166.527 88.4733C166.527 88.0741 166.436 87.7182 166.253 87.4058C166.08 87.0933 165.841 86.8503 165.537 86.6767C165.242 86.4945 164.899 86.4033 164.509 86.4033C164.118 86.4033 163.771 86.4945 163.467 86.6767C163.164 86.8503 162.925 87.0933 162.751 87.4058C162.578 87.7182 162.491 88.0741 162.491 88.4733C162.491 88.8813 162.578 89.2458 162.751 89.5669C162.925 89.8794 163.164 90.1267 163.467 90.309C163.771 90.4913 164.118 90.5824 164.509 90.5824ZM169.058 91.5848V85.4009H170.23V91.5848H169.058ZM170.23 88.0567L169.787 87.8614C169.787 87.0716 169.969 86.4424 170.334 85.9737C170.698 85.505 171.223 85.2707 171.909 85.2707C172.221 85.2707 172.503 85.3271 172.755 85.4399C173.007 85.5441 173.241 85.722 173.458 85.9737L172.69 86.7679C172.56 86.629 172.417 86.5292 172.26 86.4684C172.104 86.4077 171.922 86.3773 171.714 86.3773C171.28 86.3773 170.924 86.5162 170.646 86.7939C170.368 87.0716 170.23 87.4926 170.23 88.0567ZM178.17 91.5848V82.8101H179.342V91.5848H178.17ZM176.647 86.4684V85.4009H180.865V86.4684H176.647ZM182.026 91.5848V85.4009H183.198V91.5848H182.026ZM182.612 84.1641C182.395 84.1641 182.217 84.0946 182.078 83.9558C181.939 83.8082 181.87 83.626 181.87 83.409C181.87 83.2007 181.939 83.0271 182.078 82.8882C182.217 82.7407 182.395 82.6669 182.612 82.6669C182.829 82.6669 183.007 82.7407 183.146 82.8882C183.285 83.0271 183.354 83.2007 183.354 83.409C183.354 83.626 183.285 83.8082 183.146 83.9558C183.007 84.0946 182.829 84.1641 182.612 84.1641ZM184.925 91.5848V85.4009H186.096V91.5848H184.925ZM189.104 91.5848V87.8484C189.104 87.3884 188.96 87.0282 188.674 86.7679C188.396 86.4988 188.045 86.3643 187.619 86.3643C187.333 86.3643 187.077 86.425 186.851 86.5465C186.626 86.668 186.443 86.8373 186.305 87.0543C186.166 87.2713 186.096 87.5316 186.096 87.8354L185.615 87.6011C185.615 87.1324 185.714 86.7245 185.914 86.3773C186.122 86.0301 186.404 85.7611 186.76 85.5701C187.116 85.3705 187.515 85.2707 187.958 85.2707C188.392 85.2707 188.782 85.3662 189.13 85.5571C189.485 85.748 189.763 86.0171 189.963 86.3643C190.171 86.7114 190.275 87.1237 190.275 87.6011V91.5848H189.104ZM193.283 91.5848V87.8484C193.283 87.3884 193.139 87.0282 192.853 86.7679C192.575 86.4988 192.228 86.3643 191.812 86.3643C191.525 86.3643 191.265 86.425 191.03 86.5465C190.805 86.668 190.622 86.8373 190.484 87.0543C190.345 87.2713 190.275 87.5316 190.275 87.8354L189.611 87.6011C189.637 87.1237 189.763 86.7158 189.989 86.3773C190.223 86.0301 190.523 85.7611 190.887 85.5701C191.252 85.3705 191.651 85.2707 192.085 85.2707C192.536 85.2707 192.94 85.3662 193.296 85.5571C193.652 85.748 193.934 86.0171 194.142 86.3643C194.359 86.7114 194.467 87.128 194.467 87.6141V91.5848H193.283ZM198.926 91.715C198.31 91.715 197.754 91.5762 197.26 91.2984C196.765 91.012 196.374 90.6258 196.088 90.1397C195.801 89.6537 195.658 89.1026 195.658 88.4863C195.658 87.8788 195.797 87.332 196.075 86.846C196.361 86.3599 196.743 85.978 197.22 85.7003C197.706 85.4139 198.249 85.2707 198.848 85.2707C199.421 85.2707 199.924 85.4009 200.358 85.6613C200.801 85.9216 201.143 86.2818 201.386 86.7418C201.638 87.2018 201.764 87.7226 201.764 88.3041C201.764 88.3909 201.76 88.4863 201.751 88.5905C201.742 88.686 201.725 88.7988 201.699 88.929H196.478V87.9526H201.074L200.644 88.3301C200.644 87.9135 200.571 87.562 200.423 87.2756C200.276 86.9805 200.067 86.7548 199.798 86.5986C199.529 86.4337 199.204 86.3513 198.822 86.3513C198.423 86.3513 198.071 86.438 197.767 86.6116C197.463 86.7852 197.229 87.0282 197.064 87.3407C196.899 87.6531 196.817 88.022 196.817 88.4473C196.817 88.8813 196.904 89.2631 197.077 89.593C197.251 89.9141 197.498 90.1658 197.819 90.348C198.14 90.5216 198.509 90.6084 198.926 90.6084C199.273 90.6084 199.59 90.5477 199.876 90.4262C200.171 90.3047 200.423 90.1224 200.631 89.8794L201.386 90.6475C201.091 90.9947 200.727 91.2594 200.293 91.4416C199.868 91.6239 199.412 91.715 198.926 91.715ZM203.042 91.5848V82.2894H204.213V91.5848H203.042ZM207.959 91.6369L205.277 85.4009H206.579L208.57 90.283H208.154L210.25 85.4009H211.552L208.662 91.6369H207.959ZM206.188 94.1756L208.011 90.4392L208.662 91.6369L207.49 94.1756H206.188ZM18.6778 110.715C18.1136 110.715 17.6016 110.576 17.1416 110.298C16.6816 110.012 16.317 109.626 16.048 109.14C15.7876 108.654 15.6574 108.107 15.6574 107.499C15.6574 106.892 15.7876 106.345 16.048 105.859C16.317 105.373 16.6772 104.987 17.1285 104.7C17.5885 104.414 18.1049 104.271 18.6778 104.271C19.1465 104.271 19.5631 104.37 19.9276 104.57C20.3008 104.761 20.6002 105.03 20.8259 105.377C21.0516 105.716 21.1774 106.111 21.2034 106.562V108.424C21.1774 108.866 21.0516 109.261 20.8259 109.608C20.6089 109.956 20.3138 110.229 19.9406 110.429C19.5761 110.62 19.1551 110.715 18.6778 110.715ZM18.8731 109.608C19.4546 109.608 19.9232 109.413 20.2791 109.023C20.6349 108.623 20.8129 108.116 20.8129 107.499C20.8129 107.074 20.7304 106.705 20.5655 106.393C20.4093 106.072 20.1836 105.824 19.8885 105.651C19.5934 105.468 19.2506 105.377 18.86 105.377C18.4695 105.377 18.1223 105.468 17.8185 105.651C17.5234 105.833 17.2891 106.085 17.1155 106.406C16.9506 106.718 16.8682 107.078 16.8682 107.486C16.8682 107.903 16.9506 108.272 17.1155 108.593C17.2891 108.905 17.5278 109.153 17.8316 109.335C18.1353 109.517 18.4825 109.608 18.8731 109.608ZM20.7348 110.585V108.918L20.9561 107.408L20.7348 105.911V104.401H21.9195V110.585H20.7348ZM27.9997 110.585V106.979C27.9997 106.51 27.8521 106.124 27.5571 105.82C27.262 105.516 26.8801 105.364 26.4114 105.364C26.0989 105.364 25.8212 105.434 25.5782 105.573C25.3352 105.711 25.1442 105.902 25.0054 106.145C24.8665 106.388 24.7971 106.666 24.7971 106.979L24.3154 106.705C24.3154 106.237 24.4195 105.82 24.6278 105.455C24.8361 105.091 25.1269 104.804 25.5001 104.596C25.8733 104.379 26.2942 104.271 26.7629 104.271C27.2316 104.271 27.6438 104.388 27.9997 104.622C28.3642 104.857 28.6506 105.165 28.8589 105.547C29.0672 105.92 29.1714 106.319 29.1714 106.744V110.585H27.9997ZM23.6254 110.585V104.401H24.7971V110.585H23.6254ZM33.3746 110.715C32.8017 110.715 32.2896 110.576 31.8383 110.298C31.387 110.012 31.0268 109.626 30.7578 109.14C30.4974 108.654 30.3672 108.107 30.3672 107.499C30.3672 106.892 30.4974 106.345 30.7578 105.859C31.0268 105.373 31.387 104.987 31.8383 104.7C32.2896 104.414 32.8017 104.271 33.3746 104.271C33.8346 104.271 34.2512 104.37 34.6244 104.57C34.9976 104.761 35.297 105.03 35.5227 105.377C35.757 105.716 35.8872 106.111 35.9132 106.562V108.424C35.8872 108.866 35.7613 109.261 35.5357 109.608C35.31 109.956 35.0106 110.229 34.6374 110.429C34.2642 110.62 33.8432 110.715 33.3746 110.715ZM33.5698 109.608C33.9604 109.608 34.2989 109.517 34.5853 109.335C34.8804 109.153 35.1104 108.905 35.2753 108.593C35.4402 108.272 35.5227 107.907 35.5227 107.499C35.5227 107.074 35.4359 106.705 35.2623 106.393C35.0974 106.08 34.8674 105.833 34.5723 105.651C34.2859 105.468 33.9474 105.377 33.5568 105.377C33.1663 105.377 32.8234 105.468 32.5283 105.651C32.2332 105.833 31.9989 106.085 31.8253 106.406C31.6604 106.718 31.5779 107.078 31.5779 107.486C31.5779 107.903 31.6604 108.272 31.8253 108.593C31.9989 108.905 32.2332 109.153 32.5283 109.335C32.8321 109.517 33.1793 109.608 33.5698 109.608ZM36.6293 110.585H35.4446V108.918L35.6659 107.408L35.4446 105.911V101.289H36.6293V110.585ZM43.9073 110.715C43.2911 110.715 42.7356 110.576 42.2409 110.298C41.7462 110.012 41.3556 109.626 41.0692 109.14C40.7828 108.654 40.6396 108.103 40.6396 107.486C40.6396 106.879 40.7785 106.332 41.0562 105.846C41.3426 105.36 41.7245 104.978 42.2019 104.7C42.6879 104.414 43.2303 104.271 43.8292 104.271C44.402 104.271 44.9054 104.401 45.3394 104.661C45.782 104.922 46.1249 105.282 46.3679 105.742C46.6196 106.202 46.7454 106.723 46.7454 107.304C46.7454 107.391 46.7411 107.486 46.7324 107.59C46.7237 107.686 46.7064 107.799 46.6803 107.929H41.4598V106.953H46.0554L45.6258 107.33C45.6258 106.914 45.552 106.562 45.4045 106.276C45.2569 105.98 45.0486 105.755 44.7796 105.599C44.5105 105.434 44.1851 105.351 43.8032 105.351C43.4039 105.351 43.0524 105.438 42.7486 105.612C42.4449 105.785 42.2105 106.028 42.0456 106.341C41.8807 106.653 41.7983 107.022 41.7983 107.447C41.7983 107.881 41.8851 108.263 42.0586 108.593C42.2322 108.914 42.4796 109.166 42.8007 109.348C43.1219 109.522 43.4907 109.608 43.9073 109.608C44.2545 109.608 44.5713 109.548 44.8577 109.426C45.1528 109.305 45.4045 109.122 45.6128 108.879L46.3679 109.647C46.0728 109.995 45.7083 110.259 45.2743 110.442C44.849 110.624 44.3934 110.715 43.9073 110.715ZM48.7176 110.585V103.724C48.7176 103.247 48.8174 102.83 49.017 102.474C49.2253 102.11 49.5117 101.823 49.8763 101.615C50.2408 101.398 50.6617 101.289 51.1391 101.289C51.6251 101.289 52.0244 101.394 52.3368 101.602C52.6493 101.81 52.8793 102.097 53.0268 102.461C53.1831 102.817 53.2612 103.225 53.2612 103.685L52.4019 103.672C52.3933 103.273 52.2848 102.956 52.0765 102.721C51.8682 102.478 51.5557 102.357 51.1391 102.357C50.7312 102.357 50.4187 102.478 50.2017 102.721C49.9934 102.956 49.8893 103.281 49.8893 103.698V110.585H48.7176ZM47.1944 105.468V104.401H55.5395V105.468H47.1944ZM52.4019 110.585V103.477C52.4019 103.017 52.5017 102.617 52.7014 102.279C52.901 101.932 53.1744 101.658 53.5216 101.459C53.8774 101.259 54.2897 101.159 54.7583 101.159C55.1142 101.159 55.4223 101.22 55.6827 101.341C55.9431 101.463 56.1817 101.641 56.3987 101.875L55.6306 102.63C55.5178 102.509 55.3919 102.418 55.2531 102.357C55.1142 102.287 54.945 102.253 54.7453 102.253C54.3721 102.253 54.0814 102.361 53.8731 102.578C53.6734 102.795 53.5736 103.095 53.5736 103.477V110.585H52.4019ZM56.7195 110.585V104.401H57.8912V110.585H56.7195ZM57.3054 103.164C57.0884 103.164 56.9105 103.095 56.7716 102.956C56.6327 102.808 56.5633 102.626 56.5633 102.409C56.5633 102.201 56.6327 102.027 56.7716 101.888C56.9105 101.741 57.0884 101.667 57.3054 101.667C57.5224 101.667 57.7003 101.741 57.8391 101.888C57.978 102.027 58.0474 102.201 58.0474 102.409C58.0474 102.626 57.978 102.808 57.8391 102.956C57.7003 103.095 57.5224 103.164 57.3054 103.164ZM62.443 110.715C61.8355 110.715 61.2844 110.572 60.7896 110.285C60.3036 109.999 59.9174 109.613 59.631 109.127C59.3532 108.632 59.2144 108.085 59.2144 107.486C59.2144 106.879 59.3532 106.332 59.631 105.846C59.9174 105.36 60.3036 104.978 60.7896 104.7C61.2844 104.414 61.8355 104.271 62.443 104.271C62.9204 104.271 63.363 104.362 63.771 104.544C64.1789 104.718 64.5304 104.974 64.8255 105.312L64.0444 106.093C63.8534 105.868 63.6191 105.698 63.3413 105.586C63.0723 105.464 62.7729 105.403 62.443 105.403C62.0525 105.403 61.7053 105.494 61.4015 105.677C61.0978 105.85 60.8591 106.093 60.6855 106.406C60.5119 106.718 60.4251 107.078 60.4251 107.486C60.4251 107.894 60.5119 108.254 60.6855 108.567C60.8591 108.879 61.0978 109.127 61.4015 109.309C61.7053 109.491 62.0525 109.582 62.443 109.582C62.7729 109.582 63.0723 109.526 63.3413 109.413C63.6191 109.292 63.8578 109.118 64.0574 108.892L64.8255 109.674C64.5391 110.003 64.1876 110.259 63.771 110.442C63.363 110.624 62.9204 110.715 62.443 110.715ZM66.0005 110.585V104.401H67.1722V110.585H66.0005ZM66.5864 103.164C66.3694 103.164 66.1915 103.095 66.0526 102.956C65.9138 102.808 65.8443 102.626 65.8443 102.409C65.8443 102.201 65.9138 102.027 66.0526 101.888C66.1915 101.741 66.3694 101.667 66.5864 101.667C66.8034 101.667 66.9813 101.741 67.1202 101.888C67.259 102.027 67.3285 102.201 67.3285 102.409C67.3285 102.626 67.259 102.808 67.1202 102.956C66.9813 103.095 66.8034 103.164 66.5864 103.164ZM71.7631 110.715C71.1469 110.715 70.5914 110.576 70.0967 110.298C69.602 110.012 69.2114 109.626 68.925 109.14C68.6386 108.654 68.4954 108.103 68.4954 107.486C68.4954 106.879 68.6343 106.332 68.912 105.846C69.1984 105.36 69.5803 104.978 70.0577 104.7C70.5437 104.414 71.0861 104.271 71.685 104.271C72.2578 104.271 72.7612 104.401 73.1952 104.661C73.6378 104.922 73.9807 105.282 74.2237 105.742C74.4754 106.202 74.6012 106.723 74.6012 107.304C74.6012 107.391 74.5969 107.486 74.5882 107.59C74.5795 107.686 74.5622 107.799 74.5361 107.929H69.3156V106.953H73.9112L73.4816 107.33C73.4816 106.914 73.4078 106.562 73.2603 106.276C73.1127 105.98 72.9044 105.755 72.6354 105.599C72.3663 105.434 72.0409 105.351 71.659 105.351C71.2597 105.351 70.9082 105.438 70.6044 105.612C70.3007 105.785 70.0663 106.028 69.9014 106.341C69.7365 106.653 69.6541 107.022 69.6541 107.447C69.6541 107.881 69.7409 108.263 69.9144 108.593C70.088 108.914 70.3354 109.166 70.6565 109.348C70.9777 109.522 71.3465 109.608 71.7631 109.608C72.1103 109.608 72.4271 109.548 72.7135 109.426C73.0086 109.305 73.2603 109.122 73.4686 108.879L74.2237 109.647C73.9286 109.995 73.5641 110.259 73.1301 110.442C72.7048 110.624 72.2492 110.715 71.7631 110.715ZM80.2532 110.585V106.979C80.2532 106.51 80.1056 106.124 79.8105 105.82C79.5154 105.516 79.1335 105.364 78.6649 105.364C78.3524 105.364 78.0747 105.434 77.8316 105.573C77.5886 105.711 77.3977 105.902 77.2588 106.145C77.1199 106.388 77.0505 106.666 77.0505 106.979L76.5688 106.705C76.5688 106.237 76.673 105.82 76.8813 105.455C77.0896 105.091 77.3803 104.804 77.7535 104.596C78.1267 104.379 78.5477 104.271 79.0164 104.271C79.485 104.271 79.8973 104.388 80.2532 104.622C80.6177 104.857 80.9041 105.165 81.1124 105.547C81.3207 105.92 81.4249 106.319 81.4249 106.744V110.585H80.2532ZM75.8788 110.585V104.401H77.0505V110.585H75.8788ZM83.8853 110.585V101.81H85.057V110.585H83.8853ZM82.3621 105.468V104.401H86.5802V105.468H82.3621ZM92.4019 110.715C92.0547 110.715 91.7249 110.672 91.4125 110.585C91.1087 110.489 90.8266 110.359 90.5662 110.194C90.3059 110.021 90.0802 109.817 89.8893 109.582L90.6443 108.827C90.87 109.105 91.1304 109.313 91.4255 109.452C91.7206 109.582 92.0504 109.647 92.4149 109.647C92.7794 109.647 93.0615 109.587 93.2611 109.465C93.4608 109.335 93.5606 109.157 93.5606 108.931C93.5606 108.706 93.4781 108.532 93.3132 108.411C93.157 108.28 92.953 108.176 92.7013 108.098C92.4496 108.011 92.1806 107.929 91.8942 107.851C91.6164 107.764 91.3517 107.656 91.1 107.525C90.8483 107.395 90.64 107.217 90.4751 106.992C90.3189 106.766 90.2408 106.467 90.2408 106.093C90.2408 105.72 90.3319 105.399 90.5142 105.13C90.6964 104.852 90.9481 104.64 91.2693 104.492C91.5991 104.344 91.994 104.271 92.454 104.271C92.94 104.271 93.3696 104.357 93.7428 104.531C94.1247 104.696 94.4372 104.948 94.6802 105.286L93.9251 106.041C93.7515 105.816 93.5345 105.642 93.2742 105.52C93.0225 105.399 92.736 105.338 92.4149 105.338C92.0764 105.338 91.816 105.399 91.6338 105.52C91.4602 105.633 91.3734 105.794 91.3734 106.002C91.3734 106.21 91.4515 106.371 91.6077 106.484C91.764 106.597 91.9679 106.692 92.2196 106.77C92.48 106.848 92.7491 106.931 93.0268 107.018C93.3045 107.096 93.5693 107.204 93.8209 107.343C94.0726 107.482 94.2766 107.669 94.4328 107.903C94.5977 108.137 94.6802 108.445 94.6802 108.827C94.6802 109.409 94.4719 109.869 94.0553 110.207C93.6474 110.546 93.0962 110.715 92.4019 110.715ZM98.8561 110.715C98.2399 110.715 97.6844 110.576 97.1897 110.298C96.695 110.012 96.3044 109.626 96.018 109.14C95.7316 108.654 95.5884 108.103 95.5884 107.486C95.5884 106.879 95.7272 106.332 96.005 105.846C96.2914 105.36 96.6733 104.978 97.1506 104.7C97.6367 104.414 98.1791 104.271 98.778 104.271C99.3508 104.271 99.8542 104.401 100.288 104.661C100.731 104.922 101.074 105.282 101.317 105.742C101.568 106.202 101.694 106.723 101.694 107.304C101.694 107.391 101.69 107.486 101.681 107.59C101.673 107.686 101.655 107.799 101.629 107.929H96.4086V106.953H101.004L100.575 107.33C100.575 106.914 100.501 106.562 100.353 106.276C100.206 105.98 99.9974 105.755 99.7284 105.599C99.4593 105.434 99.1338 105.351 98.752 105.351C98.3527 105.351 98.0012 105.438 97.6974 105.612C97.3936 105.785 97.1593 106.028 96.9944 106.341C96.8295 106.653 96.747 107.022 96.747 107.447C96.747 107.881 96.8338 108.263 97.0074 108.593C97.181 108.914 97.4284 109.166 97.7495 109.348C98.0706 109.522 98.4395 109.608 98.8561 109.608C99.2033 109.608 99.5201 109.548 99.8065 109.426C100.102 109.305 100.353 109.122 100.562 108.879L101.317 109.647C101.022 109.995 100.657 110.259 100.223 110.442C99.7978 110.624 99.3421 110.715 98.8561 110.715ZM102.972 110.585V104.401H104.143V110.585H102.972ZM104.143 107.057L103.701 106.861C103.701 106.072 103.883 105.442 104.248 104.974C104.612 104.505 105.137 104.271 105.823 104.271C106.135 104.271 106.417 104.327 106.669 104.44C106.921 104.544 107.155 104.722 107.372 104.974L106.604 105.768C106.474 105.629 106.331 105.529 106.174 105.468C106.018 105.408 105.836 105.377 105.628 105.377C105.194 105.377 104.838 105.516 104.56 105.794C104.282 106.072 104.143 106.493 104.143 107.057ZM110.205 110.585L107.367 104.401H108.669L110.947 109.621H110.192L112.483 104.401H113.733L110.895 110.585H110.205ZM114.745 110.585V104.401H115.917V110.585H114.745ZM115.331 103.164C115.114 103.164 114.936 103.095 114.797 102.956C114.658 102.808 114.589 102.626 114.589 102.409C114.589 102.201 114.658 102.027 114.797 101.888C114.936 101.741 115.114 101.667 115.331 101.667C115.548 101.667 115.726 101.741 115.865 101.888C116.004 102.027 116.073 102.201 116.073 102.409C116.073 102.626 116.004 102.808 115.865 102.956C115.726 103.095 115.548 103.164 115.331 103.164ZM120.469 110.715C119.861 110.715 119.31 110.572 118.815 110.285C118.329 109.999 117.943 109.613 117.656 109.127C117.379 108.632 117.24 108.085 117.24 107.486C117.24 106.879 117.379 106.332 117.656 105.846C117.943 105.36 118.329 104.978 118.815 104.7C119.31 104.414 119.861 104.271 120.469 104.271C120.946 104.271 121.389 104.362 121.796 104.544C122.204 104.718 122.556 104.974 122.851 105.312L122.07 106.093C121.879 105.868 121.645 105.698 121.367 105.586C121.098 105.464 120.798 105.403 120.469 105.403C120.078 105.403 119.731 105.494 119.427 105.677C119.123 105.85 118.885 106.093 118.711 106.406C118.537 106.718 118.451 107.078 118.451 107.486C118.451 107.894 118.537 108.254 118.711 108.567C118.885 108.879 119.123 109.127 119.427 109.309C119.731 109.491 120.078 109.582 120.469 109.582C120.798 109.582 121.098 109.526 121.367 109.413C121.645 109.292 121.883 109.118 122.083 108.892L122.851 109.674C122.565 110.003 122.213 110.259 121.796 110.442C121.389 110.624 120.946 110.715 120.469 110.715ZM126.75 110.715C126.134 110.715 125.578 110.576 125.084 110.298C124.589 110.012 124.198 109.626 123.912 109.14C123.626 108.654 123.482 108.103 123.482 107.486C123.482 106.879 123.621 106.332 123.899 105.846C124.185 105.36 124.567 104.978 125.045 104.7C125.531 104.414 126.073 104.271 126.672 104.271C127.245 104.271 127.748 104.401 128.182 104.661C128.625 104.922 128.968 105.282 129.211 105.742C129.462 106.202 129.588 106.723 129.588 107.304C129.588 107.391 129.584 107.486 129.575 107.59C129.566 107.686 129.549 107.799 129.523 107.929H124.302V106.953H128.898L128.469 107.33C128.469 106.914 128.395 106.562 128.247 106.276C128.1 105.98 127.891 105.755 127.622 105.599C127.353 105.434 127.028 105.351 126.646 105.351C126.247 105.351 125.895 105.438 125.591 105.612C125.288 105.785 125.053 106.028 124.888 106.341C124.723 106.653 124.641 107.022 124.641 107.447C124.641 107.881 124.728 108.263 124.901 108.593C125.075 108.914 125.322 109.166 125.643 109.348C125.965 109.522 126.333 109.608 126.75 109.608C127.097 109.608 127.414 109.548 127.7 109.426C127.996 109.305 128.247 109.122 128.456 108.879L129.211 109.647C128.916 109.995 128.551 110.259 128.117 110.442C127.692 110.624 127.236 110.715 126.75 110.715ZM136.191 110.715C135.618 110.715 135.106 110.576 134.654 110.298C134.203 110.012 133.843 109.626 133.574 109.14C133.313 108.654 133.183 108.107 133.183 107.499C133.183 106.892 133.313 106.345 133.574 105.859C133.843 105.373 134.203 104.987 134.654 104.7C135.106 104.414 135.618 104.271 136.191 104.271C136.651 104.271 137.067 104.37 137.44 104.57C137.814 104.761 138.113 105.03 138.339 105.377C138.573 105.716 138.703 106.111 138.729 106.562V108.424C138.703 108.866 138.577 109.261 138.352 109.608C138.126 109.956 137.827 110.229 137.453 110.429C137.08 110.62 136.659 110.715 136.191 110.715ZM136.386 109.608C136.776 109.608 137.115 109.517 137.401 109.335C137.696 109.153 137.926 108.905 138.091 108.593C138.256 108.272 138.339 107.907 138.339 107.499C138.339 107.074 138.252 106.705 138.078 106.393C137.913 106.08 137.683 105.833 137.388 105.651C137.102 105.468 136.763 105.377 136.373 105.377C135.982 105.377 135.639 105.468 135.344 105.651C135.049 105.833 134.815 106.085 134.641 106.406C134.476 106.718 134.394 107.078 134.394 107.486C134.394 107.903 134.476 108.272 134.641 108.593C134.815 108.905 135.049 109.153 135.344 109.335C135.648 109.517 135.995 109.608 136.386 109.608ZM139.445 110.585H138.261V108.918L138.482 107.408L138.261 105.911V101.289H139.445V110.585ZM144.015 110.715C143.399 110.715 142.844 110.576 142.349 110.298C141.854 110.012 141.464 109.626 141.177 109.14C140.891 108.654 140.748 108.103 140.748 107.486C140.748 106.879 140.886 106.332 141.164 105.846C141.451 105.36 141.832 104.978 142.31 104.7C142.796 104.414 143.338 104.271 143.937 104.271C144.51 104.271 145.013 104.401 145.447 104.661C145.89 104.922 146.233 105.282 146.476 105.742C146.728 106.202 146.853 106.723 146.853 107.304C146.853 107.391 146.849 107.486 146.84 107.59C146.832 107.686 146.814 107.799 146.788 107.929H141.568V106.953H146.163L145.734 107.33C145.734 106.914 145.66 106.562 145.512 106.276C145.365 105.98 145.157 105.755 144.888 105.599C144.619 105.434 144.293 105.351 143.911 105.351C143.512 105.351 143.16 105.438 142.857 105.612C142.553 105.785 142.319 106.028 142.154 106.341C141.989 106.653 141.906 107.022 141.906 107.447C141.906 107.881 141.993 108.263 142.167 108.593C142.34 108.914 142.588 109.166 142.909 109.348C143.23 109.522 143.599 109.608 144.015 109.608C144.362 109.608 144.679 109.548 144.966 109.426C145.261 109.305 145.512 109.122 145.721 108.879L146.476 109.647C146.181 109.995 145.816 110.259 145.382 110.442C144.957 110.624 144.501 110.715 144.015 110.715ZM148.131 110.585V101.289H149.303V110.585H148.131ZM151.03 110.585V104.401H152.202V110.585H151.03ZM151.616 103.164C151.399 103.164 151.221 103.095 151.082 102.956C150.943 102.808 150.874 102.626 150.874 102.409C150.874 102.201 150.943 102.027 151.082 101.888C151.221 101.741 151.399 101.667 151.616 101.667C151.833 101.667 152.011 101.741 152.15 101.888C152.289 102.027 152.358 102.201 152.358 102.409C152.358 102.626 152.289 102.808 152.15 102.956C152.011 103.095 151.833 103.164 151.616 103.164ZM156.051 110.585L153.212 104.401H154.514L156.793 109.621H156.038L158.329 104.401H159.579L156.741 110.585H156.051ZM163.2 110.715C162.584 110.715 162.029 110.576 161.534 110.298C161.039 110.012 160.649 109.626 160.362 109.14C160.076 108.654 159.933 108.103 159.933 107.486C159.933 106.879 160.071 106.332 160.349 105.846C160.636 105.36 161.017 104.978 161.495 104.7C161.981 104.414 162.523 104.271 163.122 104.271C163.695 104.271 164.198 104.401 164.632 104.661C165.075 104.922 165.418 105.282 165.661 105.742C165.913 106.202 166.038 106.723 166.038 107.304C166.038 107.391 166.034 107.486 166.025 107.59C166.017 107.686 165.999 107.799 165.973 107.929H160.753V106.953H165.348L164.919 107.33C164.919 106.914 164.845 106.562 164.697 106.276C164.55 105.98 164.342 105.755 164.073 105.599C163.804 105.434 163.478 105.351 163.096 105.351C162.697 105.351 162.345 105.438 162.042 105.612C161.738 105.785 161.504 106.028 161.339 106.341C161.174 106.653 161.091 107.022 161.091 107.447C161.091 107.881 161.178 108.263 161.352 108.593C161.525 108.914 161.773 109.166 162.094 109.348C162.415 109.522 162.784 109.608 163.2 109.608C163.547 109.608 163.864 109.548 164.151 109.426C164.446 109.305 164.697 109.122 164.906 108.879L165.661 109.647C165.366 109.995 165.001 110.259 164.567 110.442C164.142 110.624 163.686 110.715 163.2 110.715ZM167.316 110.585V104.401H168.488V110.585H167.316ZM168.488 107.057L168.045 106.861C168.045 106.072 168.227 105.442 168.592 104.974C168.956 104.505 169.481 104.271 170.167 104.271C170.48 104.271 170.762 104.327 171.013 104.44C171.265 104.544 171.499 104.722 171.716 104.974L170.948 105.768C170.818 105.629 170.675 105.529 170.519 105.468C170.362 105.408 170.18 105.377 169.972 105.377C169.538 105.377 169.182 105.516 168.904 105.794C168.627 106.072 168.488 106.493 168.488 107.057ZM174.458 110.637L171.776 104.401H173.078L175.07 109.283H174.653L176.749 104.401H178.051L175.161 110.637H174.458ZM172.687 113.176L174.51 109.439L175.161 110.637L173.989 113.176H172.687ZM179.253 110.715C179.01 110.715 178.806 110.633 178.641 110.468C178.485 110.294 178.407 110.09 178.407 109.856C178.407 109.613 178.485 109.413 178.641 109.257C178.806 109.092 179.01 109.01 179.253 109.01C179.496 109.01 179.696 109.092 179.852 109.257C180.017 109.413 180.099 109.613 180.099 109.856C180.099 110.09 180.017 110.294 179.852 110.468C179.696 110.633 179.496 110.715 179.253 110.715Z" fill="#7D7D7D"/>
</svg>
