<svg width="230" height="159" viewBox="0 0 230 159" fill="none" xmlns="http://www.w3.org/2000/svg">
<mask id="path-1-inside-1_1188_77" fill="white">
<path fill-rule="evenodd" clip-rule="evenodd" d="M9.76415 0C4.37156 0 0 4.37155 0 9.76414V134.528C0 139.921 4.37156 144.292 9.76415 144.292H22.3366L30.5438 158.419L38.6489 144.292H220.236C225.628 144.292 230 139.921 230 134.528V9.76415C230 4.37156 225.628 0 220.236 0H9.76415Z"/>
</mask>
<path fill-rule="evenodd" clip-rule="evenodd" d="M9.76415 0C4.37156 0 0 4.37155 0 9.76414V134.528C0 139.921 4.37156 144.292 9.76415 144.292H22.3366L30.5438 158.419L38.6489 144.292H220.236C225.628 144.292 230 139.921 230 134.528V9.76415C230 4.37156 225.628 0 220.236 0H9.76415Z" fill="#F3F8FF"/>
<path d="M22.3366 144.292L23.2746 143.747L22.961 143.208H22.3366V144.292ZM30.5438 158.419L29.6057 158.964L30.5497 160.589L31.4848 158.959L30.5438 158.419ZM38.6489 144.292V143.208H38.0206L37.7079 143.753L38.6489 144.292ZM1.08491 9.76414C1.08491 4.97073 4.97073 1.08491 9.76415 1.08491V-1.08491C3.77238 -1.08491 -1.08491 3.77237 -1.08491 9.76414H1.08491ZM1.08491 134.528V9.76414H-1.08491V134.528H1.08491ZM9.76415 143.208C4.97073 143.208 1.08491 139.322 1.08491 134.528H-1.08491C-1.08491 140.52 3.77238 145.377 9.76415 145.377V143.208ZM22.3366 143.208H9.76415V145.377H22.3366V143.208ZM31.4819 157.874L23.2746 143.747L21.3985 144.837L29.6057 158.964L31.4819 157.874ZM37.7079 143.753L29.6028 157.879L31.4848 158.959L39.5899 144.832L37.7079 143.753ZM220.236 143.208H38.6489V145.377H220.236V143.208ZM228.915 134.528C228.915 139.322 225.029 143.208 220.236 143.208V145.377C226.228 145.377 231.085 140.52 231.085 134.528H228.915ZM228.915 9.76415V134.528H231.085V9.76415H228.915ZM220.236 1.08491C225.029 1.08491 228.915 4.97073 228.915 9.76415H231.085C231.085 3.77238 226.228 -1.08491 220.236 -1.08491V1.08491ZM9.76415 1.08491H220.236V-1.08491H9.76415V1.08491Z" fill="#0E3988" mask="url(#path-1-inside-1_1188_77)"/>
<path d="M17.0114 34.3584V22.2075H22.1321C23.4282 22.2075 24.5681 22.462 25.5517 22.9712C26.547 23.4804 27.3165 24.1921 27.8604 25.1063C28.4159 26.0205 28.6936 27.0794 28.6936 28.2829C28.6936 29.4864 28.4159 30.5453 27.8604 31.4595C27.3165 32.3737 26.547 33.0854 25.5517 33.5946C24.5681 34.1038 23.4282 34.3584 22.1321 34.3584H17.0114ZM18.7472 32.8482H22.028C23.0348 32.8482 23.9027 32.6573 24.6317 32.2754C25.3724 31.8935 25.9452 31.3612 26.3502 30.6784C26.7553 29.9841 26.9578 29.1856 26.9578 28.2829C26.9578 27.3687 26.7553 26.5702 26.3502 25.8875C25.9452 25.2047 25.3724 24.6724 24.6317 24.2905C23.9027 23.9086 23.0348 23.7176 22.028 23.7176H18.7472V32.8482ZM35.206 34.4625C34.2224 34.4625 33.3545 34.26 32.6023 33.855C31.8616 33.45 31.283 32.8945 30.8664 32.1886C30.4614 31.4827 30.2589 30.6726 30.2589 29.7584C30.2589 28.8442 30.4556 28.0341 30.8491 27.3282C31.2541 26.6223 31.8038 26.0726 32.4981 25.6792C33.204 25.2741 33.9967 25.0716 34.8762 25.0716C35.7673 25.0716 36.5542 25.2683 37.237 25.6618C37.9198 26.0553 38.4521 26.6107 38.834 27.3282C39.2274 28.0341 39.4242 28.8615 39.4242 29.8105C39.4242 29.8799 39.4184 29.9609 39.4068 30.0535C39.4068 30.1461 39.401 30.2329 39.3894 30.3139H31.5608V29.1161H38.5215L37.8445 29.5327C37.8561 28.9425 37.7346 28.416 37.48 27.9531C37.2254 27.4902 36.8725 27.1315 36.4211 26.8769C35.9814 26.6107 35.4664 26.4776 34.8762 26.4776C34.2976 26.4776 33.7826 26.6107 33.3313 26.8769C32.88 27.1315 32.527 27.496 32.2725 27.9705C32.0179 28.4334 31.8906 28.9657 31.8906 29.5675V29.8452C31.8906 30.4585 32.0294 31.0082 32.3072 31.4942C32.5965 31.9687 32.9957 32.339 33.5049 32.6052C34.0141 32.8714 34.5985 33.0044 35.2581 33.0044C35.802 33.0044 36.2938 32.9119 36.7336 32.7267C37.1849 32.5415 37.5784 32.2638 37.914 31.8935L38.834 32.9697C38.4174 33.4558 37.8966 33.8261 37.2717 34.0807C36.6584 34.3353 35.9698 34.4625 35.206 34.4625ZM41.7381 34.3584V21.4784H43.4045V34.3584H41.7381ZM46.5863 34.3584V25.1584H48.2527V34.3584H46.5863ZM47.4195 23.3878C47.0955 23.3878 46.8235 23.2837 46.6037 23.0754C46.3954 22.8671 46.2912 22.6125 46.2912 22.3116C46.2912 21.9992 46.3954 21.7388 46.6037 21.5305C46.8235 21.3222 47.0955 21.218 47.4195 21.218C47.7435 21.218 48.0097 21.3222 48.218 21.5305C48.4379 21.7272 48.5478 21.976 48.5478 22.2769C48.5478 22.5893 48.4437 22.8555 48.2354 23.0754C48.0271 23.2837 47.7551 23.3878 47.4195 23.3878ZM53.8473 34.3584L49.8201 25.1584H51.556L55.1318 33.4905H54.2986L57.9439 25.1584H59.5756L55.5484 34.3584H53.8473ZM64.9731 34.4625C63.9895 34.4625 63.1216 34.26 62.3694 33.855C61.6287 33.45 61.0501 32.8945 60.6335 32.1886C60.2285 31.4827 60.026 30.6726 60.026 29.7584C60.026 28.8442 60.2227 28.0341 60.6162 27.3282C61.0212 26.6223 61.5709 26.0726 62.2652 25.6792C62.9711 25.2741 63.7638 25.0716 64.6433 25.0716C65.5344 25.0716 66.3213 25.2683 67.0041 25.6618C67.6869 26.0553 68.2192 26.6107 68.6011 27.3282C68.9945 28.0341 69.1913 28.8615 69.1913 29.8105C69.1913 29.8799 69.1855 29.9609 69.1739 30.0535C69.1739 30.1461 69.1681 30.2329 69.1565 30.3139H61.3279V29.1161H68.2886L67.6116 29.5327C67.6232 28.9425 67.5017 28.416 67.2471 27.9531C66.9925 27.4902 66.6396 27.1315 66.1882 26.8769C65.7485 26.6107 65.2335 26.4776 64.6433 26.4776C64.0647 26.4776 63.5497 26.6107 63.0984 26.8769C62.6471 27.1315 62.2941 27.496 62.0396 27.9705C61.785 28.4334 61.6577 28.9657 61.6577 29.5675V29.8452C61.6577 30.4585 61.7965 31.0082 62.0743 31.4942C62.3636 31.9687 62.7628 32.339 63.272 32.6052C63.7812 32.8714 64.3656 33.0044 65.0252 33.0044C65.5691 33.0044 66.0609 32.9119 66.5007 32.7267C66.952 32.5415 67.3455 32.2638 67.6811 31.8935L68.6011 32.9697C68.1845 33.4558 67.6637 33.8261 67.0388 34.0807C66.4255 34.3353 65.7369 34.4625 64.9731 34.4625ZM71.5052 34.3584V25.1584H73.1022V27.658L72.946 27.0331C73.2006 26.3966 73.6287 25.9106 74.2305 25.575C74.8323 25.2394 75.5729 25.0716 76.4524 25.0716V26.6859C76.383 26.6744 76.3135 26.6686 76.2441 26.6686C76.1862 26.6686 76.1284 26.6686 76.0705 26.6686C75.1794 26.6686 74.4735 26.9348 73.9528 27.4671C73.432 27.9994 73.1716 28.769 73.1716 29.7758V34.3584H71.5052ZM79.2784 37.8301C78.8387 37.8301 78.4105 37.7549 77.9939 37.6044C77.5773 37.4656 77.2186 37.2573 76.9177 36.9795L77.6294 35.7297C77.8608 35.9496 78.1154 36.1174 78.3932 36.2331C78.6709 36.3488 78.966 36.4067 79.2784 36.4067C79.6835 36.4067 80.0191 36.3025 80.2852 36.0942C80.5514 35.8859 80.8002 35.5156 81.0316 34.9833L81.6045 33.7161L81.7781 33.5078L85.3886 25.1584H87.0203L82.5592 35.2784C82.293 35.9264 81.9921 36.4356 81.6565 36.8059C81.3325 37.1763 80.9738 37.4366 80.5803 37.5871C80.1869 37.7491 79.7529 37.8301 79.2784 37.8301ZM81.4656 34.6535L77.2649 25.1584H79.0007L82.5765 33.3516L81.4656 34.6535ZM96.3965 34.4625C95.4707 34.4625 94.7532 34.2137 94.244 33.7161C93.7348 33.2185 93.4803 32.5068 93.4803 31.581V23.1448H95.1467V31.5116C95.1467 32.0092 95.2682 32.3911 95.5112 32.6573C95.7658 32.9234 96.1245 33.0565 96.5874 33.0565C97.1082 33.0565 97.5421 32.9119 97.8893 32.6225L98.4101 33.8203C98.1555 34.0402 97.8488 34.2022 97.4901 34.3063C97.1429 34.4105 96.7784 34.4625 96.3965 34.4625ZM91.918 26.5297V25.1584H97.7852V26.5297H91.918ZM104.06 34.4625C103.134 34.4625 102.313 34.26 101.595 33.855C100.878 33.45 100.311 32.8945 99.8939 32.1886C99.4773 31.4711 99.269 30.661 99.269 29.7584C99.269 28.8442 99.4773 28.0341 99.8939 27.3282C100.311 26.6223 100.878 26.0726 101.595 25.6792C102.313 25.2741 103.134 25.0716 104.06 25.0716C104.974 25.0716 105.79 25.2741 106.508 25.6792C107.237 26.0726 107.804 26.6223 108.209 27.3282C108.625 28.0225 108.834 28.8326 108.834 29.7584C108.834 30.6726 108.625 31.4827 108.209 32.1886C107.804 32.8945 107.237 33.45 106.508 33.855C105.79 34.26 104.974 34.4625 104.06 34.4625ZM104.06 33.0044C104.65 33.0044 105.177 32.8714 105.64 32.6052C106.114 32.339 106.484 31.9629 106.751 31.4769C107.017 30.9793 107.15 30.4064 107.15 29.7584C107.15 29.0988 107.017 28.5317 106.751 28.0573C106.484 27.5712 106.114 27.1951 105.64 26.929C105.177 26.6628 104.65 26.5297 104.06 26.5297C103.47 26.5297 102.943 26.6628 102.48 26.929C102.017 27.1951 101.647 27.5712 101.369 28.0573C101.092 28.5317 100.953 29.0988 100.953 29.7584C100.953 30.4064 101.092 30.9793 101.369 31.4769C101.647 31.9629 102.017 32.339 102.48 32.6052C102.943 32.8714 103.47 33.0044 104.06 33.0044ZM119.601 34.4625C118.71 34.4625 117.912 34.2658 117.206 33.8724C116.512 33.4789 115.962 32.9292 115.557 32.2233C115.152 31.5174 114.949 30.6958 114.949 29.7584C114.949 28.821 115.152 28.0052 115.557 27.3109C115.962 26.6049 116.512 26.0553 117.206 25.6618C117.912 25.2683 118.71 25.0716 119.601 25.0716C120.377 25.0716 121.077 25.2452 121.702 25.5924C122.327 25.9395 122.824 26.4603 123.195 27.1546C123.576 27.849 123.767 28.7169 123.767 29.7584C123.767 30.7999 123.582 31.6678 123.212 32.3622C122.853 33.0565 122.361 33.5831 121.736 33.9418C121.112 34.289 120.4 34.4625 119.601 34.4625ZM119.74 33.0044C120.319 33.0044 120.84 32.8714 121.303 32.6052C121.777 32.339 122.147 31.9629 122.413 31.4769C122.691 30.9793 122.83 30.4064 122.83 29.7584C122.83 29.0988 122.691 28.5317 122.413 28.0573C122.147 27.5712 121.777 27.1951 121.303 26.929C120.84 26.6628 120.319 26.5297 119.74 26.5297C119.15 26.5297 118.624 26.6628 118.161 26.929C117.698 27.1951 117.327 27.5712 117.05 28.0573C116.772 28.5317 116.633 29.0988 116.633 29.7584C116.633 30.4064 116.772 30.9793 117.05 31.4769C117.327 31.9629 117.698 32.339 118.161 32.6052C118.624 32.8714 119.15 33.0044 119.74 33.0044ZM122.882 34.3584V31.8761L122.986 29.741L122.813 27.6059V21.4784H124.479V34.3584H122.882ZM131.573 34.4625C130.647 34.4625 129.825 34.26 129.108 33.855C128.39 33.45 127.823 32.8945 127.406 32.1886C126.99 31.4711 126.782 30.661 126.782 29.7584C126.782 28.8442 126.99 28.0341 127.406 27.3282C127.823 26.6223 128.39 26.0726 129.108 25.6792C129.825 25.2741 130.647 25.0716 131.573 25.0716C132.487 25.0716 133.303 25.2741 134.02 25.6792C134.749 26.0726 135.316 26.6223 135.721 27.3282C136.138 28.0225 136.346 28.8326 136.346 29.7584C136.346 30.6726 136.138 31.4827 135.721 32.1886C135.316 32.8945 134.749 33.45 134.02 33.855C133.303 34.26 132.487 34.4625 131.573 34.4625ZM131.573 33.0044C132.163 33.0044 132.689 32.8714 133.152 32.6052C133.627 32.339 133.997 31.9629 134.263 31.4769C134.529 30.9793 134.662 30.4064 134.662 29.7584C134.662 29.0988 134.529 28.5317 134.263 28.0573C133.997 27.5712 133.627 27.1951 133.152 26.929C132.689 26.6628 132.163 26.5297 131.573 26.5297C130.982 26.5297 130.456 26.6628 129.993 26.929C129.53 27.1951 129.16 27.5712 128.882 28.0573C128.604 28.5317 128.465 29.0988 128.465 29.7584C128.465 30.4064 128.604 30.9793 128.882 31.4769C129.16 31.9629 129.53 32.339 129.993 32.6052C130.456 32.8714 130.982 33.0044 131.573 33.0044ZM142.591 34.4625C141.665 34.4625 140.844 34.26 140.126 33.855C139.409 33.45 138.842 32.8945 138.425 32.1886C138.008 31.4711 137.8 30.661 137.8 29.7584C137.8 28.8442 138.008 28.0341 138.425 27.3282C138.842 26.6223 139.409 26.0726 140.126 25.6792C140.844 25.2741 141.665 25.0716 142.591 25.0716C143.505 25.0716 144.321 25.2741 145.039 25.6792C145.768 26.0726 146.335 26.6223 146.74 27.3282C147.156 28.0225 147.365 28.8326 147.365 29.7584C147.365 30.6726 147.156 31.4827 146.74 32.1886C146.335 32.8945 145.768 33.45 145.039 33.855C144.321 34.26 143.505 34.4625 142.591 34.4625ZM142.591 33.0044C143.181 33.0044 143.708 32.8714 144.171 32.6052C144.645 32.339 145.015 31.9629 145.282 31.4769C145.548 30.9793 145.681 30.4064 145.681 29.7584C145.681 29.0988 145.548 28.5317 145.282 28.0573C145.015 27.5712 144.645 27.1951 144.171 26.929C143.708 26.6628 143.181 26.5297 142.591 26.5297C142.001 26.5297 141.474 26.6628 141.011 26.929C140.549 27.1951 140.178 27.5712 139.901 28.0573C139.623 28.5317 139.484 29.0988 139.484 29.7584C139.484 30.4064 139.623 30.9793 139.901 31.4769C140.178 31.9629 140.549 32.339 141.011 32.6052C141.474 32.8714 142.001 33.0044 142.591 33.0044ZM149.669 34.3584V25.1584H151.266V27.658L151.11 27.0331C151.365 26.3966 151.793 25.9106 152.395 25.575C152.996 25.2394 153.737 25.0716 154.616 25.0716V26.6859C154.547 26.6744 154.478 26.6686 154.408 26.6686C154.35 26.6686 154.292 26.6686 154.235 26.6686C153.343 26.6686 152.638 26.9348 152.117 27.4671C151.596 27.9994 151.336 28.769 151.336 29.7758V34.3584H149.669Z" fill="#252B42"/>
<path d="M16.2563 62.8207V53.7856H17.1155L20.9431 60.0737H20.3572L24.1848 53.7856H25.044V62.8207H23.8202V55.9337L24.1066 56.0118L21.0863 60.972H20.227L17.2066 56.0118L17.48 55.9337V62.8207H16.2563ZM26.9821 62.8207V56.6367H28.1538V62.8207H26.9821ZM27.5679 55.3999C27.351 55.3999 27.173 55.3305 27.0342 55.1916C26.8953 55.0441 26.8259 54.8618 26.8259 54.6448C26.8259 54.4365 26.8953 54.2629 27.0342 54.1241C27.173 53.9765 27.351 53.9028 27.5679 53.9028C27.7849 53.9028 27.9628 53.9765 28.1017 54.1241C28.2406 54.2629 28.31 54.4365 28.31 54.6448C28.31 54.8618 28.2406 55.0441 28.1017 55.1916C27.9628 55.3305 27.7849 55.3999 27.5679 55.3999ZM30.8309 62.8207V54.046H32.0026V62.8207H30.8309ZM29.3077 57.7043V56.6367H33.5258V57.7043H29.3077ZM34.6866 62.8207V56.6367H35.8583V62.8207H34.6866ZM35.2725 55.3999C35.0555 55.3999 34.8776 55.3305 34.7387 55.1916C34.5998 55.0441 34.5304 54.8618 34.5304 54.6448C34.5304 54.4365 34.5998 54.2629 34.7387 54.1241C34.8776 53.9765 35.0555 53.9028 35.2725 53.9028C35.4894 53.9028 35.6674 53.9765 35.8062 54.1241C35.9451 54.2629 36.0145 54.4365 36.0145 54.6448C36.0145 54.8618 35.9451 55.0441 35.8062 55.1916C35.6674 55.3305 35.4894 55.3999 35.2725 55.3999ZM40.1498 65.5416C39.5162 65.5416 38.952 65.4245 38.4573 65.1901C37.9713 64.9558 37.5807 64.626 37.2856 64.2007L38.0407 63.4326C38.2924 63.7537 38.5918 63.9967 38.939 64.1616C39.2862 64.3352 39.6984 64.422 40.1758 64.422C40.8094 64.422 41.3084 64.2528 41.673 63.9143C42.0462 63.5845 42.2328 63.1375 42.2328 62.5733V61.0371L42.4411 59.6441L42.2328 58.2641V56.6367H43.4045V62.5733C43.4045 63.1635 43.2656 63.6799 42.9879 64.1226C42.7188 64.5652 42.3369 64.9124 41.8422 65.1641C41.3562 65.4158 40.792 65.5416 40.1498 65.5416ZM40.1498 62.7165C39.5856 62.7165 39.0779 62.582 38.6265 62.3129C38.1839 62.0439 37.8324 61.675 37.572 61.2063C37.3116 60.729 37.1815 60.1952 37.1815 59.605C37.1815 59.0148 37.3116 58.4897 37.572 58.0297C37.8324 57.5611 38.1839 57.1922 38.6265 56.9231C39.0779 56.6454 39.5856 56.5065 40.1498 56.5065C40.6358 56.5065 41.0654 56.602 41.4386 56.7929C41.8118 56.9839 42.1069 57.2529 42.3239 57.6001C42.5496 57.9386 42.6711 58.3378 42.6884 58.7978V60.4382C42.6624 60.8895 42.5365 61.2888 42.3109 61.636C42.0939 61.9745 41.7988 62.2392 41.4256 62.4301C41.0524 62.6211 40.6271 62.7165 40.1498 62.7165ZM40.3841 61.6099C40.766 61.6099 41.1001 61.5275 41.3865 61.3626C41.6816 61.1977 41.9073 60.9677 42.0635 60.6726C42.2198 60.3688 42.2979 60.0173 42.2979 59.618C42.2979 59.2188 42.2154 58.8716 42.0505 58.5765C41.8943 58.2728 41.673 58.0384 41.3865 57.8735C41.1001 57.6999 40.7616 57.6131 40.3711 57.6131C39.9805 57.6131 39.6377 57.6999 39.3426 57.8735C39.0475 58.0384 38.8132 58.2728 38.6396 58.5765C38.4747 58.8716 38.3922 59.2145 38.3922 59.605C38.3922 59.9956 38.4747 60.3428 38.6396 60.6465C38.8132 60.9503 39.0475 61.189 39.3426 61.3626C39.6464 61.5275 39.9935 61.6099 40.3841 61.6099ZM47.7541 62.9509C47.1899 62.9509 46.6779 62.812 46.2179 62.5343C45.7579 62.2478 45.3933 61.8616 45.1243 61.3756C44.8639 60.8895 44.7337 60.3428 44.7337 59.7352C44.7337 59.1277 44.8639 58.5809 45.1243 58.0948C45.3933 57.6088 45.7535 57.2226 46.2049 56.9362C46.6649 56.6497 47.1813 56.5065 47.7541 56.5065C48.2228 56.5065 48.6394 56.6063 49.0039 56.806C49.3771 56.9969 49.6765 57.266 49.9022 57.6131C50.1279 57.9516 50.2537 58.3465 50.2798 58.7978V60.6595C50.2537 61.1022 50.1279 61.4971 49.9022 61.8443C49.6852 62.1914 49.3901 62.4648 49.0169 62.6645C48.6524 62.8554 48.2315 62.9509 47.7541 62.9509ZM47.9494 61.8443C48.5309 61.8443 48.9996 61.649 49.3554 61.2584C49.7113 60.8592 49.8892 60.3514 49.8892 59.7352C49.8892 59.3099 49.8067 58.9411 49.6418 58.6286C49.4856 58.3075 49.2599 58.0601 48.9649 57.8865C48.6698 57.7043 48.3269 57.6131 47.9364 57.6131C47.5458 57.6131 47.1986 57.7043 46.8949 57.8865C46.5998 58.0688 46.3654 58.3205 46.1918 58.6416C46.0269 58.9541 45.9445 59.3143 45.9445 59.7222C45.9445 60.1388 46.0269 60.5077 46.1918 60.8288C46.3654 61.1412 46.6041 61.3886 46.9079 61.5709C47.2116 61.7531 47.5588 61.8443 47.9494 61.8443ZM49.8111 62.8207V61.1543L50.0324 59.6441L49.8111 58.1469V56.6367H50.9958V62.8207H49.8111ZM53.6266 62.8207V54.046H54.7983V62.8207H53.6266ZM52.1034 57.7043V56.6367H56.3215V57.7043H52.1034ZM60.1428 62.9509C59.5265 62.9509 58.9711 62.812 58.4764 62.5343C57.9816 62.2478 57.5911 61.8616 57.3047 61.3756C57.0182 60.8895 56.875 60.3384 56.875 59.7222C56.875 59.1146 57.0139 58.5678 57.2916 58.0818C57.5781 57.5958 57.9599 57.2139 58.4373 56.9362C58.9233 56.6497 59.4658 56.5065 60.0647 56.5065C60.6375 56.5065 61.1409 56.6367 61.5748 56.8971C62.0175 57.1575 62.3603 57.5177 62.6033 57.9777C62.855 58.4377 62.9809 58.9584 62.9809 59.5399C62.9809 59.6267 62.9765 59.7222 62.9679 59.8263C62.9592 59.9218 62.9418 60.0346 62.9158 60.1648H57.6952V59.1884H62.2909L61.8613 59.566C61.8613 59.1494 61.7875 58.7978 61.6399 58.5114C61.4924 58.2163 61.2841 57.9907 61.015 57.8345C60.746 57.6695 60.4205 57.5871 60.0386 57.5871C59.6394 57.5871 59.2879 57.6739 58.9841 57.8475C58.6803 58.0211 58.446 58.2641 58.2811 58.5765C58.1162 58.889 58.0337 59.2578 58.0337 59.6831C58.0337 60.1171 58.1205 60.499 58.2941 60.8288C58.4677 61.1499 58.715 61.4016 59.0362 61.5839C59.3573 61.7575 59.7262 61.8443 60.1428 61.8443C60.4899 61.8443 60.8067 61.7835 61.0931 61.662C61.3882 61.5405 61.6399 61.3582 61.8482 61.1152L62.6033 61.8833C62.3082 62.2305 61.9437 62.4952 61.5098 62.6775C61.0845 62.8597 60.6288 62.9509 60.1428 62.9509ZM69.7916 62.9509C69.184 62.9509 68.6329 62.8077 68.1382 62.5212C67.6521 62.2348 67.2659 61.8486 66.9795 61.3626C66.7018 60.8678 66.5629 60.3211 66.5629 59.7222C66.5629 59.1146 66.7018 58.5678 66.9795 58.0818C67.2659 57.5958 67.6521 57.2139 68.1382 56.9362C68.6329 56.6497 69.184 56.5065 69.7916 56.5065C70.2689 56.5065 70.7116 56.5977 71.1195 56.7799C71.5274 56.9535 71.8789 57.2095 72.174 57.548L71.3929 58.3292C71.202 58.1035 70.9676 57.9343 70.6899 57.8214C70.4208 57.6999 70.1214 57.6392 69.7916 57.6392C69.401 57.6392 69.0538 57.7303 68.7501 57.9126C68.4463 58.0862 68.2076 58.3292 68.034 58.6416C67.8605 58.9541 67.7737 59.3143 67.7737 59.7222C67.7737 60.1301 67.8605 60.4903 68.034 60.8028C68.2076 61.1152 68.4463 61.3626 68.7501 61.5448C69.0538 61.7271 69.401 61.8182 69.7916 61.8182C70.1214 61.8182 70.4208 61.7618 70.6899 61.649C70.9676 61.5275 71.2063 61.3539 71.4059 61.1282L72.174 61.9094C71.8876 62.2392 71.5361 62.4952 71.1195 62.6775C70.7116 62.8597 70.2689 62.9509 69.7916 62.9509ZM76.034 62.9509C75.4265 62.9509 74.8797 62.8077 74.3936 62.5212C73.9076 62.2348 73.5214 61.8486 73.235 61.3626C72.9486 60.8678 72.8053 60.3167 72.8053 59.7092C72.8053 59.1103 72.9486 58.5722 73.235 58.0948C73.5214 57.6088 73.9076 57.2226 74.3936 56.9362C74.8797 56.6497 75.4265 56.5065 76.034 56.5065C76.6329 56.5065 77.1753 56.6497 77.6614 56.9362C78.1561 57.2139 78.5467 57.5958 78.8331 58.0818C79.1195 58.5678 79.2627 59.1103 79.2627 59.7092C79.2627 60.3167 79.1195 60.8678 78.8331 61.3626C78.5467 61.8486 78.1561 62.2348 77.6614 62.5212C77.1753 62.8077 76.6329 62.9509 76.034 62.9509ZM76.034 61.8182C76.4246 61.8182 76.7718 61.7271 77.0755 61.5448C77.3793 61.3626 77.618 61.1152 77.7916 60.8028C77.9652 60.4816 78.0519 60.1171 78.0519 59.7092C78.0519 59.3099 77.9608 58.9541 77.7786 58.6416C77.605 58.3292 77.3663 58.0862 77.0625 57.9126C76.7674 57.7303 76.4246 57.6392 76.034 57.6392C75.6435 57.6392 75.2963 57.7303 74.9925 57.9126C74.6887 58.0862 74.4501 58.3292 74.2765 58.6416C74.1029 58.9541 74.0161 59.3099 74.0161 59.7092C74.0161 60.1171 74.1029 60.4816 74.2765 60.8028C74.4501 61.1152 74.6887 61.3626 74.9925 61.5448C75.2963 61.7271 75.6435 61.8182 76.034 61.8182ZM84.9572 62.8207V59.2145C84.9572 58.7458 84.8097 58.3595 84.5146 58.0558C84.2195 57.752 83.8376 57.6001 83.3689 57.6001C83.0565 57.6001 82.7788 57.6695 82.5357 57.8084C82.2927 57.9473 82.1018 58.1382 81.9629 58.3812C81.824 58.6243 81.7546 58.902 81.7546 59.2145L81.2729 58.9411C81.2729 58.4724 81.3771 58.0558 81.5854 57.6912C81.7937 57.3267 82.0844 57.0403 82.4576 56.832C82.8308 56.615 83.2518 56.5065 83.7204 56.5065C84.1891 56.5065 84.6014 56.6237 84.9572 56.858C85.3218 57.0924 85.6082 57.4005 85.8165 57.7824C86.0248 58.1556 86.1289 58.5548 86.1289 58.9801V62.8207H84.9572ZM80.5829 62.8207V56.6367H81.7546V62.8207H80.5829ZM88.5243 62.8207V55.8035C88.5243 55.3695 88.6241 54.9703 88.8237 54.6058C89.0234 54.2412 89.3098 53.9505 89.683 53.7335C90.0649 53.5078 90.5032 53.395 90.9979 53.395V54.4886C90.5726 54.4886 90.2471 54.6188 90.0215 54.8792C89.8045 55.1309 89.696 55.439 89.696 55.8035V62.8207H88.5243ZM87.0011 57.7043V56.6367H92.6903V57.7043H87.0011ZM92.2086 62.8207V53.4731H93.3803V62.8207H92.2086ZM95.115 62.8207V56.6367H96.2867V62.8207H95.115ZM95.7009 55.3999C95.4839 55.3999 95.306 55.3305 95.1671 55.1916C95.0282 55.0441 94.9588 54.8618 94.9588 54.6448C94.9588 54.4365 95.0282 54.2629 95.1671 54.1241C95.306 53.9765 95.4839 53.9028 95.7009 53.9028C95.9178 53.9028 96.0958 53.9765 96.2346 54.1241C96.3735 54.2629 96.4429 54.4365 96.4429 54.6448C96.4429 54.8618 96.3735 55.0441 96.2346 55.1916C96.0958 55.3305 95.9178 55.3999 95.7009 55.3999ZM100.839 62.9509C100.231 62.9509 99.6799 62.8077 99.1851 62.5212C98.6991 62.2348 98.3129 61.8486 98.0265 61.3626C97.7487 60.8678 97.6099 60.3211 97.6099 59.7222C97.6099 59.1146 97.7487 58.5678 98.0265 58.0818C98.3129 57.5958 98.6991 57.2139 99.1851 56.9362C99.6799 56.6497 100.231 56.5065 100.839 56.5065C101.316 56.5065 101.759 56.5977 102.166 56.7799C102.574 56.9535 102.926 57.2095 103.221 57.548L102.44 58.3292C102.249 58.1035 102.015 57.9343 101.737 57.8214C101.468 57.6999 101.168 57.6392 100.839 57.6392C100.448 57.6392 100.101 57.7303 99.797 57.9126C99.4932 58.0862 99.2546 58.3292 99.081 58.6416C98.9074 58.9541 98.8206 59.3143 98.8206 59.7222C98.8206 60.1301 98.9074 60.4903 99.081 60.8028C99.2546 61.1152 99.4932 61.3626 99.797 61.5448C100.101 61.7271 100.448 61.8182 100.839 61.8182C101.168 61.8182 101.468 61.7618 101.737 61.649C102.015 61.5275 102.253 61.3539 102.453 61.1282L103.221 61.9094C102.935 62.2392 102.583 62.4952 102.166 62.6775C101.759 62.8597 101.316 62.9509 100.839 62.9509ZM105.257 62.8207V54.046H106.429V62.8207H105.257ZM103.734 57.7043V56.6367H107.952V57.7043H103.734ZM110.939 62.9509C110.591 62.9509 110.262 62.9075 109.949 62.8207C109.645 62.7252 109.363 62.595 109.103 62.4301C108.842 62.2565 108.617 62.0526 108.426 61.8182L109.181 61.0631C109.407 61.3409 109.667 61.5492 109.962 61.688C110.257 61.8182 110.587 61.8833 110.952 61.8833C111.316 61.8833 111.598 61.8226 111.798 61.7011C111.997 61.5709 112.097 61.3929 112.097 61.1673C112.097 60.9416 112.015 60.768 111.85 60.6465C111.694 60.5163 111.49 60.4122 111.238 60.3341C110.986 60.2473 110.717 60.1648 110.431 60.0867C110.153 59.9999 109.888 59.8914 109.637 59.7612C109.385 59.6311 109.177 59.4531 109.012 59.2275C108.856 59.0018 108.777 58.7024 108.777 58.3292C108.777 57.956 108.869 57.6348 109.051 57.3658C109.233 57.088 109.485 56.8754 109.806 56.7278C110.136 56.5803 110.531 56.5065 110.991 56.5065C111.477 56.5065 111.906 56.5933 112.279 56.7669C112.661 56.9318 112.974 57.1835 113.217 57.522L112.462 58.2771C112.288 58.0514 112.071 57.8778 111.811 57.7563C111.559 57.6348 111.273 57.5741 110.952 57.5741C110.613 57.5741 110.353 57.6348 110.17 57.7563C109.997 57.8692 109.91 58.0297 109.91 58.238C109.91 58.4463 109.988 58.6069 110.144 58.7197C110.301 58.8326 110.505 58.928 110.756 59.0062C111.017 59.0843 111.286 59.1667 111.563 59.2535C111.841 59.3316 112.106 59.4401 112.358 59.579C112.609 59.7178 112.813 59.9045 112.969 60.1388C113.134 60.3731 113.217 60.6812 113.217 61.0631C113.217 61.6446 113.009 62.1046 112.592 62.4431C112.184 62.7816 111.633 62.9509 110.939 62.9509ZM119.866 62.9509C119.302 62.9509 118.79 62.812 118.33 62.5343C117.87 62.2478 117.506 61.8616 117.237 61.3756C116.976 60.8895 116.846 60.3428 116.846 59.7352C116.846 59.1277 116.976 58.5809 117.237 58.0948C117.506 57.6088 117.866 57.2226 118.317 56.9362C118.777 56.6497 119.294 56.5065 119.866 56.5065C120.335 56.5065 120.752 56.6063 121.116 56.806C121.489 56.9969 121.789 57.266 122.015 57.6131C122.24 57.9516 122.366 58.3465 122.392 58.7978V60.6595C122.366 61.1022 122.24 61.4971 122.015 61.8443C121.798 62.1914 121.502 62.4648 121.129 62.6645C120.765 62.8554 120.344 62.9509 119.866 62.9509ZM120.062 61.8443C120.643 61.8443 121.112 61.649 121.468 61.2584C121.824 60.8592 122.002 60.3514 122.002 59.7352C122.002 59.3099 121.919 58.9411 121.754 58.6286C121.598 58.3075 121.372 58.0601 121.077 57.8865C120.782 57.7043 120.439 57.6131 120.049 57.6131C119.658 57.6131 119.311 57.7043 119.007 57.8865C118.712 58.0688 118.478 58.3205 118.304 58.6416C118.139 58.9541 118.057 59.3143 118.057 59.7222C118.057 60.1388 118.139 60.5077 118.304 60.8288C118.478 61.1412 118.716 61.3886 119.02 61.5709C119.324 61.7531 119.671 61.8443 120.062 61.8443ZM121.923 62.8207V61.1543L122.145 59.6441L121.923 58.1469V56.6367H123.108V62.8207H121.923ZM129.188 62.8207V59.2145C129.188 58.7458 129.041 58.3595 128.746 58.0558C128.451 57.752 128.069 57.6001 127.6 57.6001C127.288 57.6001 127.01 57.6695 126.767 57.8084C126.524 57.9473 126.333 58.1382 126.194 58.3812C126.055 58.6243 125.986 58.902 125.986 59.2145L125.504 58.9411C125.504 58.4724 125.608 58.0558 125.816 57.6912C126.025 57.3267 126.316 57.0403 126.689 56.832C127.062 56.615 127.483 56.5065 127.952 56.5065C128.42 56.5065 128.832 56.6237 129.188 56.858C129.553 57.0924 129.839 57.4005 130.048 57.7824C130.256 58.1556 130.36 58.5548 130.36 58.9801V62.8207H129.188ZM124.814 62.8207V56.6367H125.986V62.8207H124.814ZM134.563 62.9509C133.99 62.9509 133.478 62.812 133.027 62.5343C132.576 62.2478 132.215 61.8616 131.946 61.3756C131.686 60.8895 131.556 60.3428 131.556 59.7352C131.556 59.1277 131.686 58.5809 131.946 58.0948C132.215 57.6088 132.576 57.2226 133.027 56.9362C133.478 56.6497 133.99 56.5065 134.563 56.5065C135.023 56.5065 135.44 56.6063 135.813 56.806C136.186 56.9969 136.486 57.266 136.711 57.6131C136.946 57.9516 137.076 58.3465 137.102 58.7978V60.6595C137.076 61.1022 136.95 61.4971 136.724 61.8443C136.499 62.1914 136.199 62.4648 135.826 62.6645C135.453 62.8554 135.032 62.9509 134.563 62.9509ZM134.758 61.8443C135.149 61.8443 135.488 61.7531 135.774 61.5709C136.069 61.3886 136.299 61.1412 136.464 60.8288C136.629 60.5077 136.711 60.1431 136.711 59.7352C136.711 59.3099 136.625 58.9411 136.451 58.6286C136.286 58.3162 136.056 58.0688 135.761 57.8865C135.475 57.7043 135.136 57.6131 134.745 57.6131C134.355 57.6131 134.012 57.7043 133.717 57.8865C133.422 58.0688 133.188 58.3205 133.014 58.6416C132.849 58.9541 132.767 59.3143 132.767 59.7222C132.767 60.1388 132.849 60.5077 133.014 60.8288C133.188 61.1412 133.422 61.3886 133.717 61.5709C134.021 61.7531 134.368 61.8443 134.758 61.8443ZM137.818 62.8207H136.633V61.1543L136.855 59.6441L136.633 58.1469V53.5252H137.818V62.8207ZM143.117 62.8207V55.5171C143.117 55.1092 143.204 54.749 143.377 54.4365C143.56 54.1154 143.811 53.8637 144.133 53.6814C144.454 53.4905 144.823 53.395 145.239 53.395C145.56 53.395 145.842 53.4514 146.085 53.5643C146.328 53.6684 146.554 53.816 146.762 54.0069L145.994 54.775C145.881 54.6795 145.764 54.6101 145.643 54.5667C145.521 54.5146 145.387 54.4886 145.239 54.4886C144.935 54.4886 144.701 54.5841 144.536 54.775C144.371 54.9573 144.289 55.2046 144.289 55.5171V62.8207H143.117ZM141.594 57.7043V56.6367H147.465V57.7043H141.594ZM146.788 62.8207V56.6367H147.973V62.8207H146.788ZM147.374 55.9858C147.166 55.9858 146.992 55.9163 146.854 55.7775C146.715 55.6299 146.645 55.4477 146.645 55.2307C146.645 55.0224 146.715 54.8488 146.854 54.7099C146.992 54.5624 147.166 54.4886 147.374 54.4886C147.6 54.4886 147.778 54.5624 147.908 54.7099C148.047 54.8488 148.116 55.0224 148.116 55.2307C148.116 55.4477 148.047 55.6299 147.908 55.7775C147.778 55.9163 147.6 55.9858 147.374 55.9858ZM154.069 62.8207V59.2145C154.069 58.7458 153.922 58.3595 153.626 58.0558C153.331 57.752 152.95 57.6001 152.481 57.6001C152.168 57.6001 151.891 57.6695 151.648 57.8084C151.405 57.9473 151.214 58.1382 151.075 58.3812C150.936 58.6243 150.866 58.902 150.866 59.2145L150.385 58.9411C150.385 58.4724 150.489 58.0558 150.697 57.6912C150.906 57.3267 151.196 57.0403 151.57 56.832C151.943 56.615 152.364 56.5065 152.832 56.5065C153.301 56.5065 153.713 56.6237 154.069 56.858C154.434 57.0924 154.72 57.4005 154.928 57.7824C155.137 58.1556 155.241 58.5548 155.241 58.9801V62.8207H154.069ZM149.695 62.8207V56.6367H150.866V62.8207H149.695ZM159.457 62.9509C158.893 62.9509 158.381 62.812 157.921 62.5343C157.461 62.2478 157.096 61.8616 156.827 61.3756C156.567 60.8895 156.437 60.3428 156.437 59.7352C156.437 59.1277 156.567 58.5809 156.827 58.0948C157.096 57.6088 157.456 57.2226 157.908 56.9362C158.368 56.6497 158.884 56.5065 159.457 56.5065C159.926 56.5065 160.342 56.6063 160.707 56.806C161.08 56.9969 161.379 57.266 161.605 57.6131C161.831 57.9516 161.957 58.3465 161.983 58.7978V60.6595C161.957 61.1022 161.831 61.4971 161.605 61.8443C161.388 62.1914 161.093 62.4648 160.72 62.6645C160.355 62.8554 159.934 62.9509 159.457 62.9509ZM159.652 61.8443C160.234 61.8443 160.702 61.649 161.058 61.2584C161.414 60.8592 161.592 60.3514 161.592 59.7352C161.592 59.3099 161.51 58.9411 161.345 58.6286C161.189 58.3075 160.963 58.0601 160.668 57.8865C160.373 57.7043 160.03 57.6131 159.639 57.6131C159.249 57.6131 158.902 57.7043 158.598 57.8865C158.303 58.0688 158.068 58.3205 157.895 58.6416C157.73 58.9541 157.647 59.3143 157.647 59.7222C157.647 60.1388 157.73 60.5077 157.895 60.8288C158.068 61.1412 158.307 61.3886 158.611 61.5709C158.915 61.7531 159.262 61.8443 159.652 61.8443ZM161.514 62.8207V61.1543L161.735 59.6441L161.514 58.1469V56.6367H162.699V62.8207H161.514ZM168.779 62.8207V59.2145C168.779 58.7458 168.631 58.3595 168.336 58.0558C168.041 57.752 167.659 57.6001 167.191 57.6001C166.878 57.6001 166.6 57.6695 166.357 57.8084C166.114 57.9473 165.923 58.1382 165.785 58.3812C165.646 58.6243 165.576 58.902 165.576 59.2145L165.095 58.9411C165.095 58.4724 165.199 58.0558 165.407 57.6912C165.615 57.3267 165.906 57.0403 166.279 56.832C166.653 56.615 167.073 56.5065 167.542 56.5065C168.011 56.5065 168.423 56.6237 168.779 56.858C169.143 57.0924 169.43 57.4005 169.638 57.7824C169.846 58.1556 169.951 58.5548 169.951 58.9801V62.8207H168.779ZM164.405 62.8207V56.6367H165.576V62.8207H164.405ZM174.362 62.9509C173.755 62.9509 173.203 62.8077 172.709 62.5212C172.223 62.2348 171.836 61.8486 171.55 61.3626C171.272 60.8678 171.133 60.3211 171.133 59.7222C171.133 59.1146 171.272 58.5678 171.55 58.0818C171.836 57.5958 172.223 57.2139 172.709 56.9362C173.203 56.6497 173.755 56.5065 174.362 56.5065C174.839 56.5065 175.282 56.5977 175.69 56.7799C176.098 56.9535 176.449 57.2095 176.745 57.548L175.963 58.3292C175.772 58.1035 175.538 57.9343 175.26 57.8214C174.991 57.6999 174.692 57.6392 174.362 57.6392C173.972 57.6392 173.624 57.7303 173.321 57.9126C173.017 58.0862 172.778 58.3292 172.605 58.6416C172.431 58.9541 172.344 59.3143 172.344 59.7222C172.344 60.1301 172.431 60.4903 172.605 60.8028C172.778 61.1152 173.017 61.3626 173.321 61.5448C173.624 61.7271 173.972 61.8182 174.362 61.8182C174.692 61.8182 174.991 61.7618 175.26 61.649C175.538 61.5275 175.777 61.3539 175.976 61.1282L176.745 61.9094C176.458 62.2392 176.107 62.4952 175.69 62.6775C175.282 62.8597 174.839 62.9509 174.362 62.9509ZM177.92 62.8207V56.6367H179.091V62.8207H177.92ZM178.505 55.3999C178.288 55.3999 178.111 55.3305 177.972 55.1916C177.833 55.0441 177.763 54.8618 177.763 54.6448C177.763 54.4365 177.833 54.2629 177.972 54.1241C178.111 53.9765 178.288 53.9028 178.505 53.9028C178.722 53.9028 178.9 53.9765 179.039 54.1241C179.178 54.2629 179.248 54.4365 179.248 54.6448C179.248 54.8618 179.178 55.0441 179.039 55.1916C178.9 55.3305 178.722 55.3999 178.505 55.3999ZM183.448 62.9509C182.884 62.9509 182.372 62.812 181.912 62.5343C181.452 62.2478 181.087 61.8616 180.818 61.3756C180.558 60.8895 180.427 60.3428 180.427 59.7352C180.427 59.1277 180.558 58.5809 180.818 58.0948C181.087 57.6088 181.447 57.2226 181.899 56.9362C182.359 56.6497 182.875 56.5065 183.448 56.5065C183.916 56.5065 184.333 56.6063 184.698 56.806C185.071 56.9969 185.37 57.266 185.596 57.6131C185.822 57.9516 185.947 58.3465 185.973 58.7978V60.6595C185.947 61.1022 185.822 61.4971 185.596 61.8443C185.379 62.1914 185.084 62.4648 184.711 62.6645C184.346 62.8554 183.925 62.9509 183.448 62.9509ZM183.643 61.8443C184.225 61.8443 184.693 61.649 185.049 61.2584C185.405 60.8592 185.583 60.3514 185.583 59.7352C185.583 59.3099 185.5 58.9411 185.336 58.6286C185.179 58.3075 184.954 58.0601 184.659 57.8865C184.363 57.7043 184.021 57.6131 183.63 57.6131C183.24 57.6131 182.892 57.7043 182.589 57.8865C182.293 58.0688 182.059 58.3205 181.886 58.6416C181.721 58.9541 181.638 59.3143 181.638 59.7222C181.638 60.1388 181.721 60.5077 181.886 60.8288C182.059 61.1412 182.298 61.3886 182.602 61.5709C182.905 61.7531 183.253 61.8443 183.643 61.8443ZM185.505 62.8207V61.1543L185.726 59.6441L185.505 58.1469V56.6367H186.69V62.8207H185.505ZM188.395 62.8207V53.5252H189.567V62.8207H188.395ZM16.9332 81.8207V74.7124C16.9332 74.2524 17.0331 73.8531 17.2327 73.5146C17.4323 73.1675 17.7057 72.8941 18.0529 72.6945C18.4087 72.4948 18.821 72.395 19.2897 72.395C19.6455 72.395 19.9536 72.4558 20.214 72.5773C20.4744 72.6988 20.7131 72.8767 20.93 73.1111L20.1619 73.8662C20.0491 73.7446 19.9232 73.6535 19.7844 73.5928C19.6455 73.5233 19.4763 73.4886 19.2766 73.4886C18.9034 73.4886 18.6127 73.5971 18.4044 73.8141C18.2048 74.0311 18.1049 74.3305 18.1049 74.7124V81.8207H16.9332ZM15.41 76.7043V75.6367H20.0708V76.7043H15.41ZM21.019 81.8207V75.6367H22.1907V81.8207H21.019ZM22.1907 78.2926L21.7481 78.0973C21.7481 77.3075 21.9304 76.6782 22.2949 76.2095C22.6594 75.7409 23.1845 75.5065 23.8702 75.5065C24.1826 75.5065 24.4647 75.5629 24.7164 75.6758C24.9681 75.7799 25.2024 75.9578 25.4194 76.2095L24.6513 77.0037C24.5211 76.8648 24.3779 76.765 24.2217 76.7043C24.0655 76.6435 23.8832 76.6131 23.6749 76.6131C23.2409 76.6131 22.8851 76.752 22.6073 77.0297C22.3296 77.3075 22.1907 77.7284 22.1907 78.2926ZM28.6708 81.9509C28.1066 81.9509 27.5945 81.812 27.1345 81.5343C26.6745 81.2478 26.31 80.8616 26.041 80.3756C25.7806 79.8895 25.6504 79.3428 25.6504 78.7352C25.6504 78.1277 25.7806 77.5809 26.041 77.0948C26.31 76.6088 26.6702 76.2226 27.1215 75.9362C27.5815 75.6497 28.0979 75.5065 28.6708 75.5065C29.1395 75.5065 29.5561 75.6063 29.9206 75.806C30.2938 75.9969 30.5932 76.266 30.8189 76.6131C31.0445 76.9516 31.1704 77.3465 31.1964 77.7978V79.6595C31.1704 80.1022 31.0445 80.4971 30.8189 80.8443C30.6019 81.1914 30.3068 81.4648 29.9336 81.6645C29.5691 81.8554 29.1481 81.9509 28.6708 81.9509ZM28.8661 80.8443C29.4476 80.8443 29.9162 80.649 30.2721 80.2584C30.6279 79.8592 30.8059 79.3514 30.8059 78.7352C30.8059 78.3099 30.7234 77.9411 30.5585 77.6286C30.4023 77.3075 30.1766 77.0601 29.8815 76.8865C29.5864 76.7043 29.2436 76.6131 28.853 76.6131C28.4625 76.6131 28.1153 76.7043 27.8115 76.8865C27.5164 77.0688 27.2821 77.3205 27.1085 77.6416C26.9436 77.9541 26.8612 78.3143 26.8612 78.7222C26.8612 79.1388 26.9436 79.5077 27.1085 79.8288C27.2821 80.1412 27.5208 80.3886 27.8245 80.5709C28.1283 80.7531 28.4755 80.8443 28.8661 80.8443ZM30.7278 81.8207V80.1543L30.9491 78.6441L30.7278 77.1469V75.6367H31.9125V81.8207H30.7278ZM36.105 81.9509C35.6016 81.9509 35.1459 81.838 34.738 81.6124C34.3387 81.378 34.0263 81.0569 33.8006 80.649C33.575 80.2411 33.4621 79.768 33.4621 79.2299V75.6367H34.6338V79.1778C34.6338 79.5163 34.6902 79.8114 34.8031 80.0631C34.9246 80.3062 35.0982 80.4928 35.3238 80.6229C35.5495 80.7531 35.8142 80.8182 36.118 80.8182C36.578 80.8182 36.9382 80.675 37.1985 80.3886C37.4589 80.0935 37.5891 79.6899 37.5891 79.1778V75.6367H38.7608V79.2299C38.7608 79.768 38.648 80.2411 38.4223 80.649C38.1967 81.0569 37.8842 81.378 37.485 81.6124C37.0944 81.838 36.6344 81.9509 36.105 81.9509ZM42.948 81.9509C42.3752 81.9509 41.8631 81.812 41.4118 81.5343C40.9605 81.2478 40.6003 80.8616 40.3312 80.3756C40.0708 79.8895 39.9406 79.3428 39.9406 78.7352C39.9406 78.1277 40.0708 77.5809 40.3312 77.0948C40.6003 76.6088 40.9605 76.2226 41.4118 75.9362C41.8631 75.6497 42.3752 75.5065 42.948 75.5065C43.408 75.5065 43.8246 75.6063 44.1978 75.806C44.571 75.9969 44.8705 76.266 45.0961 76.6131C45.3305 76.9516 45.4606 77.3465 45.4867 77.7978V79.6595C45.4606 80.1022 45.3348 80.4971 45.1091 80.8443C44.8835 81.1914 44.584 81.4648 44.2108 81.6645C43.8376 81.8554 43.4167 81.9509 42.948 81.9509ZM43.1433 80.8443C43.5338 80.8443 43.8723 80.7531 44.1588 80.5709C44.4538 80.3886 44.6838 80.1412 44.8488 79.8288C45.0137 79.5077 45.0961 79.1431 45.0961 78.7352C45.0961 78.3099 45.0093 77.9411 44.8357 77.6286C44.6708 77.3162 44.4408 77.0688 44.1457 76.8865C43.8593 76.7043 43.5208 76.6131 43.1303 76.6131C42.7397 76.6131 42.3969 76.7043 42.1018 76.8865C41.8067 77.0688 41.5723 77.3205 41.3988 77.6416C41.2338 77.9541 41.1514 78.3143 41.1514 78.7222C41.1514 79.1388 41.2338 79.5077 41.3988 79.8288C41.5723 80.1412 41.8067 80.3886 42.1018 80.5709C42.4055 80.7531 42.7527 80.8443 43.1433 80.8443ZM46.2027 81.8207H45.018V80.1543L45.2393 78.6441L45.018 77.1469V72.5252H46.2027V81.8207ZM50.6166 81.8207V75.6367H51.7883V81.8207H50.6166ZM51.7883 78.2926L51.3457 78.0973C51.3457 77.3075 51.5279 76.6782 51.8925 76.2095C52.257 75.7409 52.7821 75.5065 53.4678 75.5065C53.7802 75.5065 54.0623 75.5629 54.314 75.6758C54.5657 75.7799 54.8 75.9578 55.017 76.2095L54.2489 77.0037C54.1187 76.8648 53.9755 76.765 53.8193 76.7043C53.663 76.6435 53.4808 76.6131 53.2725 76.6131C52.8385 76.6131 52.4827 76.752 52.2049 77.0297C51.9272 77.3075 51.7883 77.7284 51.7883 78.2926ZM55.855 81.8207V75.6367H57.0267V81.8207H55.855ZM56.4408 74.3999C56.2239 74.3999 56.0459 74.3305 55.9071 74.1916C55.7682 74.0441 55.6988 73.8618 55.6988 73.6448C55.6988 73.4365 55.7682 73.2629 55.9071 73.1241C56.0459 72.9765 56.2239 72.9028 56.4408 72.9028C56.6578 72.9028 56.8357 72.9765 56.9746 73.1241C57.1135 73.2629 57.1829 73.4365 57.1829 73.6448C57.1829 73.8618 57.1135 74.0441 56.9746 74.1916C56.8357 74.3305 56.6578 74.3999 56.4408 74.3999ZM60.7193 81.9509C60.3721 81.9509 60.0423 81.9075 59.7298 81.8207C59.4261 81.7252 59.144 81.595 58.8836 81.4301C58.6232 81.2565 58.3976 81.0526 58.2066 80.8182L58.9617 80.0631C59.1874 80.3409 59.4477 80.5492 59.7428 80.688C60.0379 80.8182 60.3678 80.8833 60.7323 80.8833C61.0968 80.8833 61.3789 80.8226 61.5785 80.7011C61.7781 80.5709 61.8779 80.3929 61.8779 80.1673C61.8779 79.9416 61.7955 79.768 61.6306 79.6465C61.4744 79.5163 61.2704 79.4122 61.0187 79.3341C60.767 79.2473 60.4979 79.1648 60.2115 79.0867C59.9338 78.9999 59.6691 78.8914 59.4174 78.7612C59.1657 78.6311 58.9574 78.4531 58.7925 78.2275C58.6362 78.0018 58.5581 77.7024 58.5581 77.3292C58.5581 76.956 58.6493 76.6348 58.8315 76.3658C59.0138 76.088 59.2655 75.8754 59.5866 75.7278C59.9164 75.5803 60.3113 75.5065 60.7713 75.5065C61.2574 75.5065 61.687 75.5933 62.0602 75.7669C62.4421 75.9318 62.7545 76.1835 62.9976 76.522L62.2425 77.2771C62.0689 77.0514 61.8519 76.8778 61.5915 76.7563C61.3398 76.6348 61.0534 76.5741 60.7323 76.5741C60.3938 76.5741 60.1334 76.6348 59.9511 76.7563C59.7776 76.8692 59.6908 77.0297 59.6908 77.238C59.6908 77.4463 59.7689 77.6069 59.9251 77.7197C60.0813 77.8326 60.2853 77.928 60.537 78.0062C60.7974 78.0843 61.0664 78.1667 61.3442 78.2535C61.6219 78.3316 61.8866 78.4401 62.1383 78.579C62.39 78.7178 62.594 78.9045 62.7502 79.1388C62.9151 79.3731 62.9976 79.6812 62.9976 80.0631C62.9976 80.6446 62.7893 81.1046 62.3727 81.4431C61.9647 81.7816 61.4136 81.9509 60.7193 81.9509ZM68.2671 81.8207L65.3769 78.6571L68.241 75.6367H69.6601L66.4704 78.9695L66.5225 78.2926L69.7772 81.8207H68.2671ZM64.3093 81.8207V72.5252H65.481V81.8207H64.3093ZM72.3905 81.9509C72.0433 81.9509 71.7135 81.9075 71.401 81.8207C71.0973 81.7252 70.8152 81.595 70.5548 81.4301C70.2944 81.2565 70.0688 81.0526 69.8778 80.8182L70.6329 80.0631C70.8586 80.3409 71.119 80.5492 71.4141 80.688C71.7091 80.8182 72.039 80.8833 72.4035 80.8833C72.768 80.8833 73.0501 80.8226 73.2497 80.7011C73.4493 80.5709 73.5492 80.3929 73.5492 80.1673C73.5492 79.9416 73.4667 79.768 73.3018 79.6465C73.1456 79.5163 72.9416 79.4122 72.6899 79.3341C72.4382 79.2473 72.1691 79.1648 71.8827 79.0867C71.605 78.9999 71.3403 78.8914 71.0886 78.7612C70.8369 78.6311 70.6286 78.4531 70.4637 78.2275C70.3075 78.0018 70.2293 77.7024 70.2293 77.3292C70.2293 76.956 70.3205 76.6348 70.5027 76.3658C70.685 76.088 70.9367 75.8754 71.2578 75.7278C71.5876 75.5803 71.9825 75.5065 72.4425 75.5065C72.9286 75.5065 73.3582 75.5933 73.7314 75.7669C74.1133 75.9318 74.4258 76.1835 74.6688 76.522L73.9137 77.2771C73.7401 77.0514 73.5231 76.8778 73.2627 76.7563C73.011 76.6348 72.7246 76.5741 72.4035 76.5741C72.065 76.5741 71.8046 76.6348 71.6224 76.7563C71.4488 76.8692 71.362 77.0297 71.362 77.238C71.362 77.4463 71.4401 77.6069 71.5963 77.7197C71.7525 77.8326 71.9565 77.928 72.2082 78.0062C72.4686 78.0843 72.7376 78.1667 73.0154 78.2535C73.2931 78.3316 73.5578 78.4401 73.8095 78.579C74.0612 78.7178 74.2652 78.9045 74.4214 79.1388C74.5863 79.3731 74.6688 79.6812 74.6688 80.0631C74.6688 80.6446 74.4605 81.1046 74.0439 81.4431C73.6359 81.7816 73.0848 81.9509 72.3905 81.9509ZM81.9433 81.9509C81.4746 81.9509 81.0493 81.8554 80.6674 81.6645C80.2942 81.4648 79.9948 81.1914 79.7691 80.8443C79.5435 80.4971 79.4176 80.1022 79.3916 79.6595V77.7978C79.4176 77.3465 79.5435 76.9516 79.7691 76.6131C80.0035 76.266 80.3072 75.9969 80.6804 75.806C81.0623 75.6063 81.4833 75.5065 81.9433 75.5065C82.5074 75.5065 83.0152 75.6497 83.4665 75.9362C83.9265 76.2226 84.2867 76.6088 84.547 77.0948C84.8074 77.5809 84.9376 78.1277 84.9376 78.7352C84.9376 79.3428 84.8074 79.8895 84.547 80.3756C84.2867 80.8616 83.9265 81.2478 83.4665 81.5343C83.0152 81.812 82.5074 81.9509 81.9433 81.9509ZM81.748 80.8443C82.1386 80.8443 82.4814 80.7531 82.7765 80.5709C83.0716 80.3886 83.3059 80.1412 83.4795 79.8288C83.6531 79.5077 83.7399 79.1388 83.7399 78.7222C83.7399 78.3143 83.6531 77.9497 83.4795 77.6286C83.3059 77.3075 83.0716 77.0601 82.7765 76.8865C82.4814 76.7043 82.1429 76.6131 81.761 76.6131C81.3704 76.6131 81.0276 76.7043 80.7325 76.8865C80.4374 77.0601 80.2074 77.3075 80.0425 77.6286C79.8776 77.9497 79.7952 78.3186 79.7952 78.7352C79.7952 79.1431 79.8733 79.5077 80.0295 79.8288C80.1944 80.1412 80.4244 80.3886 80.7195 80.5709C81.0233 80.7531 81.3661 80.8443 81.748 80.8443ZM78.6886 81.8207V72.5252H79.8603V77.1469L79.6389 78.6441L79.8603 80.1543V81.8207H78.6886ZM88.0553 81.8728L85.3734 75.6367H86.6753L88.6672 80.5188H88.2506L90.3466 75.6367H91.6485L88.7583 81.8728H88.0553ZM86.2848 84.4114L88.1074 80.675L88.7583 81.8728L87.5866 84.4114H86.2848ZM95.4198 81.8207V72.5252H96.5915V81.8207H95.4198ZM101.17 81.9509C100.554 81.9509 99.9983 81.812 99.5036 81.5343C99.0089 81.2478 98.6183 80.8616 98.3319 80.3756C98.0455 79.8895 97.9023 79.3384 97.9023 78.7222C97.9023 78.1146 98.0411 77.5678 98.3189 77.0818C98.6053 76.5958 98.9872 76.2139 99.4645 75.9362C99.9506 75.6497 100.493 75.5065 101.092 75.5065C101.665 75.5065 102.168 75.6367 102.602 75.8971C103.045 76.1575 103.388 76.5177 103.631 76.9777C103.882 77.4377 104.008 77.9584 104.008 78.5399C104.008 78.6267 104.004 78.7222 103.995 78.8263C103.986 78.9218 103.969 79.0346 103.943 79.1648H98.7225V78.1884H103.318L102.888 78.566C102.888 78.1494 102.815 77.7978 102.667 77.5114C102.52 77.2163 102.311 76.9907 102.042 76.8345C101.773 76.6695 101.448 76.5871 101.066 76.5871C100.667 76.5871 100.315 76.6739 100.011 76.8475C99.7075 77.0211 99.4732 77.2641 99.3083 77.5765C99.1434 77.889 99.0609 78.2578 99.0609 78.6831C99.0609 79.1171 99.1477 79.499 99.3213 79.8288C99.4949 80.1499 99.7423 80.4016 100.063 80.5839C100.385 80.7575 100.753 80.8443 101.17 80.8443C101.517 80.8443 101.834 80.7835 102.12 80.662C102.415 80.5405 102.667 80.3582 102.875 80.1152L103.631 80.8833C103.335 81.2305 102.971 81.4952 102.537 81.6775C102.112 81.8597 101.656 81.9509 101.17 81.9509ZM107.306 81.8207L104.468 75.6367H105.77L108.048 80.8573H107.293L109.584 75.6367H110.834L107.996 81.8207H107.306ZM114.456 81.9509C113.84 81.9509 113.284 81.812 112.789 81.5343C112.295 81.2478 111.904 80.8616 111.618 80.3756C111.331 79.8895 111.188 79.3384 111.188 78.7222C111.188 78.1146 111.327 77.5678 111.605 77.0818C111.891 76.5958 112.273 76.2139 112.75 75.9362C113.236 75.6497 113.779 75.5065 114.378 75.5065C114.951 75.5065 115.454 75.6367 115.888 75.8971C116.331 76.1575 116.673 76.5177 116.916 76.9777C117.168 77.4377 117.294 77.9584 117.294 78.5399C117.294 78.6267 117.29 78.7222 117.281 78.8263C117.272 78.9218 117.255 79.0346 117.229 79.1648H112.008V78.1884H116.604L116.174 78.566C116.174 78.1494 116.101 77.7978 115.953 77.5114C115.805 77.2163 115.597 76.9907 115.328 76.8345C115.059 76.6695 114.734 76.5871 114.352 76.5871C113.952 76.5871 113.601 76.6739 113.297 76.8475C112.993 77.0211 112.759 77.2641 112.594 77.5765C112.429 77.889 112.347 78.2578 112.347 78.6831C112.347 79.1171 112.434 79.499 112.607 79.8288C112.781 80.1499 113.028 80.4016 113.349 80.5839C113.67 80.7575 114.039 80.8443 114.456 80.8443C114.803 80.8443 115.12 80.7835 115.406 80.662C115.701 80.5405 115.953 80.3582 116.161 80.1152L116.916 80.8833C116.621 81.2305 116.257 81.4952 115.823 81.6775C115.398 81.8597 114.942 81.9509 114.456 81.9509ZM118.572 81.8207V75.6367H119.743V81.8207H118.572ZM119.743 78.2926L119.301 78.0973C119.301 77.3075 119.483 76.6782 119.847 76.2095C120.212 75.7409 120.737 75.5065 121.423 75.5065C121.735 75.5065 122.017 75.5629 122.269 75.6758C122.521 75.7799 122.755 75.9578 122.972 76.2095L122.204 77.0037C122.074 76.8648 121.93 76.765 121.774 76.7043C121.618 76.6435 121.436 76.6131 121.227 76.6131C120.793 76.6131 120.438 76.752 120.16 77.0297C119.882 77.3075 119.743 77.7284 119.743 78.2926ZM126.223 81.9509C125.659 81.9509 125.147 81.812 124.687 81.5343C124.227 81.2478 123.863 80.8616 123.593 80.3756C123.333 79.8895 123.203 79.3428 123.203 78.7352C123.203 78.1277 123.333 77.5809 123.593 77.0948C123.863 76.6088 124.223 76.2226 124.674 75.9362C125.134 75.6497 125.65 75.5065 126.223 75.5065C126.692 75.5065 127.109 75.6063 127.473 75.806C127.846 75.9969 128.146 76.266 128.371 76.6131C128.597 76.9516 128.723 77.3465 128.749 77.7978V79.6595C128.723 80.1022 128.597 80.4971 128.371 80.8443C128.154 81.1914 127.859 81.4648 127.486 81.6645C127.122 81.8554 126.701 81.9509 126.223 81.9509ZM126.419 80.8443C127 80.8443 127.469 80.649 127.825 80.2584C128.18 79.8592 128.358 79.3514 128.358 78.7352C128.358 78.3099 128.276 77.9411 128.111 77.6286C127.955 77.3075 127.729 77.0601 127.434 76.8865C127.139 76.7043 126.796 76.6131 126.406 76.6131C126.015 76.6131 125.668 76.7043 125.364 76.8865C125.069 77.0688 124.835 77.3205 124.661 77.6416C124.496 77.9541 124.414 78.3143 124.414 78.7222C124.414 79.1388 124.496 79.5077 124.661 79.8288C124.835 80.1412 125.073 80.3886 125.377 80.5709C125.681 80.7531 126.028 80.8443 126.419 80.8443ZM128.28 81.8207V80.1543L128.502 78.6441L128.28 77.1469V75.6367H129.465V81.8207H128.28ZM133.736 84.5416C133.102 84.5416 132.538 84.4245 132.043 84.1901C131.557 83.9558 131.167 83.626 130.871 83.2007L131.627 82.4326C131.878 82.7537 132.178 82.9967 132.525 83.1616C132.872 83.3352 133.284 83.422 133.762 83.422C134.395 83.422 134.894 83.2528 135.259 82.9143C135.632 82.5845 135.819 82.1375 135.819 81.5733V80.0371L136.027 78.6441L135.819 77.2641V75.6367H136.99V81.5733C136.99 82.1635 136.851 82.6799 136.574 83.1226C136.305 83.5652 135.923 83.9124 135.428 84.1641C134.942 84.4158 134.378 84.5416 133.736 84.5416ZM133.736 81.7165C133.171 81.7165 132.664 81.582 132.212 81.3129C131.77 81.0439 131.418 80.675 131.158 80.2063C130.897 79.729 130.767 79.1952 130.767 78.605C130.767 78.0148 130.897 77.4897 131.158 77.0297C131.418 76.5611 131.77 76.1922 132.212 75.9231C132.664 75.6454 133.171 75.5065 133.736 75.5065C134.222 75.5065 134.651 75.602 135.024 75.7929C135.398 75.9839 135.693 76.2529 135.91 76.6001C136.135 76.9386 136.257 77.3378 136.274 77.7978V79.4382C136.248 79.8895 136.122 80.2888 135.897 80.636C135.68 80.9745 135.385 81.2392 135.011 81.4301C134.638 81.6211 134.213 81.7165 133.736 81.7165ZM133.97 80.6099C134.352 80.6099 134.686 80.5275 134.972 80.3626C135.267 80.1977 135.493 79.9677 135.649 79.6726C135.806 79.3688 135.884 79.0173 135.884 78.618C135.884 78.2188 135.801 77.8716 135.636 77.5765C135.48 77.2728 135.259 77.0384 134.972 76.8735C134.686 76.6999 134.347 76.6131 133.957 76.6131C133.566 76.6131 133.224 76.6999 132.928 76.8735C132.633 77.0384 132.399 77.2728 132.225 77.5765C132.06 77.8716 131.978 78.2145 131.978 78.605C131.978 78.9956 132.06 79.3428 132.225 79.6465C132.399 79.9503 132.633 80.189 132.928 80.3626C133.232 80.5275 133.579 80.6099 133.97 80.6099ZM138.723 81.8207V75.6367H139.895V81.8207H138.723ZM139.309 74.3999C139.092 74.3999 138.914 74.3305 138.775 74.1916C138.636 74.0441 138.567 73.8618 138.567 73.6448C138.567 73.4365 138.636 73.2629 138.775 73.1241C138.914 72.9765 139.092 72.9028 139.309 72.9028C139.526 72.9028 139.704 72.9765 139.843 73.1241C139.982 73.2629 140.051 73.4365 140.051 73.6448C140.051 73.8618 139.982 74.0441 139.843 74.1916C139.704 74.3305 139.526 74.3999 139.309 74.3999ZM145.996 81.8207V78.2145C145.996 77.7458 145.848 77.3595 145.553 77.0558C145.258 76.752 144.876 76.6001 144.408 76.6001C144.095 76.6001 143.817 76.6695 143.574 76.8084C143.331 76.9473 143.14 77.1382 143.002 77.3812C142.863 77.6243 142.793 77.902 142.793 78.2145L142.312 77.9411C142.312 77.4724 142.416 77.0558 142.624 76.6912C142.832 76.3267 143.123 76.0403 143.496 75.832C143.869 75.615 144.29 75.5065 144.759 75.5065C145.228 75.5065 145.64 75.6237 145.996 75.858C146.36 76.0924 146.647 76.4005 146.855 76.7824C147.063 77.1556 147.168 77.5548 147.168 77.9801V81.8207H145.996ZM141.622 81.8207V75.6367H142.793V81.8207H141.622ZM151.319 84.5416C150.685 84.5416 150.121 84.4245 149.626 84.1901C149.14 83.9558 148.75 83.626 148.455 83.2007L149.21 82.4326C149.461 82.7537 149.761 82.9967 150.108 83.1616C150.455 83.3352 150.867 83.422 151.345 83.422C151.978 83.422 152.477 83.2528 152.842 82.9143C153.215 82.5845 153.402 82.1375 153.402 81.5733V80.0371L153.61 78.6441L153.402 77.2641V75.6367H154.573V81.5733C154.573 82.1635 154.435 82.6799 154.157 83.1226C153.888 83.5652 153.506 83.9124 153.011 84.1641C152.525 84.4158 151.961 84.5416 151.319 84.5416ZM151.319 81.7165C150.755 81.7165 150.247 81.582 149.795 81.3129C149.353 81.0439 149.001 80.675 148.741 80.2063C148.481 79.729 148.35 79.1952 148.35 78.605C148.35 78.0148 148.481 77.4897 148.741 77.0297C149.001 76.5611 149.353 76.1922 149.795 75.9231C150.247 75.6454 150.755 75.5065 151.319 75.5065C151.805 75.5065 152.234 75.602 152.608 75.7929C152.981 75.9839 153.276 76.2529 153.493 76.6001C153.718 76.9386 153.84 77.3378 153.857 77.7978V79.4382C153.831 79.8895 153.705 80.2888 153.48 80.636C153.263 80.9745 152.968 81.2392 152.595 81.4301C152.221 81.6211 151.796 81.7165 151.319 81.7165ZM151.553 80.6099C151.935 80.6099 152.269 80.5275 152.555 80.3626C152.851 80.1977 153.076 79.9677 153.232 79.6726C153.389 79.3688 153.467 79.0173 153.467 78.618C153.467 78.2188 153.384 77.8716 153.219 77.5765C153.063 77.2728 152.842 77.0384 152.555 76.8735C152.269 76.6999 151.931 76.6131 151.54 76.6131C151.149 76.6131 150.807 76.6999 150.512 76.8735C150.216 77.0384 149.982 77.2728 149.808 77.5765C149.644 77.8716 149.561 78.2145 149.561 78.605C149.561 78.9956 149.644 79.3428 149.808 79.6465C149.982 79.9503 150.216 80.189 150.512 80.3626C150.815 80.5275 151.162 80.6099 151.553 80.6099ZM16.061 100.821V94.6367H17.2327V100.821H16.061ZM16.6468 93.3999C16.4299 93.3999 16.2519 93.3305 16.1131 93.1916C15.9742 93.0441 15.9048 92.8618 15.9048 92.6448C15.9048 92.4365 15.9742 92.2629 16.1131 92.1241C16.2519 91.9765 16.4299 91.9028 16.6468 91.9028C16.8638 91.9028 17.0417 91.9765 17.1806 92.1241C17.3195 92.2629 17.3889 92.4365 17.3889 92.6448C17.3889 92.8618 17.3195 93.0441 17.1806 93.1916C17.0417 93.3305 16.8638 93.3999 16.6468 93.3999ZM23.3338 100.821V97.2145C23.3338 96.7458 23.1862 96.3595 22.8911 96.0558C22.596 95.752 22.2141 95.6001 21.7454 95.6001C21.433 95.6001 21.1553 95.6695 20.9122 95.8084C20.6692 95.9473 20.4783 96.1382 20.3394 96.3812C20.2005 96.6243 20.1311 96.902 20.1311 97.2145L19.6494 96.9411C19.6494 96.4724 19.7536 96.0558 19.9619 95.6912C20.1702 95.3267 20.4609 95.0403 20.8341 94.832C21.2073 94.615 21.6283 94.5065 22.097 94.5065C22.5656 94.5065 22.9779 94.6237 23.3338 94.858C23.6983 95.0924 23.9847 95.4005 24.193 95.7824C24.4013 96.1556 24.5054 96.5548 24.5054 96.9801V100.821H23.3338ZM18.9594 100.821V94.6367H20.1311V100.821H18.9594ZM28.7086 100.951C28.1358 100.951 27.6237 100.812 27.1724 100.534C26.7211 100.248 26.3609 99.8616 26.0918 99.3756C25.8314 98.8895 25.7013 98.3428 25.7013 97.7352C25.7013 97.1277 25.8314 96.5809 26.0918 96.0948C26.3609 95.6088 26.7211 95.2226 27.1724 94.9362C27.6237 94.6497 28.1358 94.5065 28.7086 94.5065C29.1686 94.5065 29.5852 94.6063 29.9584 94.806C30.3316 94.9969 30.6311 95.266 30.8567 95.6131C31.0911 95.9516 31.2213 96.3465 31.2473 96.7978V98.6595C31.2213 99.1022 31.0954 99.4971 30.8697 99.8443C30.6441 100.191 30.3446 100.465 29.9714 100.664C29.5982 100.855 29.1773 100.951 28.7086 100.951ZM28.9039 99.8443C29.2945 99.8443 29.633 99.7531 29.9194 99.5709C30.2145 99.3886 30.4445 99.1412 30.6094 98.8288C30.7743 98.5077 30.8567 98.1431 30.8567 97.7352C30.8567 97.3099 30.7699 96.9411 30.5963 96.6286C30.4314 96.3162 30.2014 96.0688 29.9063 95.8865C29.6199 95.7043 29.2814 95.6131 28.8909 95.6131C28.5003 95.6131 28.1575 95.7043 27.8624 95.8865C27.5673 96.0688 27.333 96.3205 27.1594 96.6416C26.9945 96.9541 26.912 97.3143 26.912 97.7222C26.912 98.1388 26.9945 98.5077 27.1594 98.8288C27.333 99.1412 27.5673 99.3886 27.8624 99.5709C28.1662 99.7531 28.5133 99.8443 28.9039 99.8443ZM31.9633 100.821H30.7786V99.1543L30.9999 97.6441L30.7786 96.1469V91.5252H31.9633V100.821ZM36.5334 100.951C35.9171 100.951 35.3617 100.812 34.8669 100.534C34.3722 100.248 33.9817 99.8616 33.6952 99.3756C33.4088 98.8895 33.2656 98.3384 33.2656 97.7222C33.2656 97.1146 33.4045 96.5678 33.6822 96.0818C33.9686 95.5958 34.3505 95.2139 34.8279 94.9362C35.3139 94.6497 35.8564 94.5065 36.4552 94.5065C37.0281 94.5065 37.5315 94.6367 37.9654 94.8971C38.4081 95.1575 38.7509 95.5177 38.9939 95.9777C39.2456 96.4377 39.3715 96.9584 39.3715 97.5399C39.3715 97.6267 39.3671 97.7222 39.3585 97.8263C39.3498 97.9218 39.3324 98.0346 39.3064 98.1648H34.0858V97.1884H38.6815L38.2518 97.566C38.2518 97.1494 38.1781 96.7978 38.0305 96.5114C37.883 96.2163 37.6747 95.9907 37.4056 95.8345C37.1366 95.6695 36.8111 95.5871 36.4292 95.5871C36.03 95.5871 35.6785 95.6739 35.3747 95.8475C35.0709 96.0211 34.8366 96.2641 34.6717 96.5765C34.5068 96.889 34.4243 97.2578 34.4243 97.6831C34.4243 98.1171 34.5111 98.499 34.6847 98.8288C34.8583 99.1499 35.1056 99.4016 35.4268 99.5839C35.7479 99.7575 36.1168 99.8443 36.5334 99.8443C36.8805 99.8443 37.1973 99.7835 37.4837 99.662C37.7788 99.5405 38.0305 99.3582 38.2388 99.1152L38.9939 99.8833C38.6988 100.23 38.3343 100.495 37.9003 100.677C37.4751 100.86 37.0194 100.951 36.5334 100.951ZM43.9038 100.951C43.4351 100.951 43.0098 100.855 42.6279 100.664C42.2547 100.465 41.9553 100.191 41.7296 99.8443C41.504 99.4971 41.3781 99.1022 41.3521 98.6595V96.7978C41.3781 96.3465 41.504 95.9516 41.7296 95.6131C41.964 95.266 42.2677 94.9969 42.6409 94.806C43.0228 94.6063 43.4438 94.5065 43.9038 94.5065C44.4679 94.5065 44.9757 94.6497 45.427 94.9362C45.887 95.2226 46.2472 95.6088 46.5075 96.0948C46.7679 96.5809 46.8981 97.1277 46.8981 97.7352C46.8981 98.3428 46.7679 98.8895 46.5075 99.3756C46.2472 99.8616 45.887 100.248 45.427 100.534C44.9757 100.812 44.4679 100.951 43.9038 100.951ZM43.7085 99.8443C44.099 99.8443 44.4419 99.7531 44.737 99.5709C45.0321 99.3886 45.2664 99.1412 45.44 98.8288C45.6136 98.5077 45.7004 98.1388 45.7004 97.7222C45.7004 97.3143 45.6136 96.9497 45.44 96.6286C45.2664 96.3075 45.0321 96.0601 44.737 95.8865C44.4419 95.7043 44.1034 95.6131 43.7215 95.6131C43.3309 95.6131 42.9881 95.7043 42.693 95.8865C42.3979 96.0601 42.1679 96.3075 42.003 96.6286C41.8381 96.9497 41.7557 97.3186 41.7557 97.7352C41.7557 98.1431 41.8338 98.5077 41.99 98.8288C42.1549 99.1412 42.3849 99.3886 42.68 99.5709C42.9838 99.7531 43.3266 99.8443 43.7085 99.8443ZM40.649 103.411V94.6367H41.8207V96.2641L41.5994 97.7612L41.8207 99.2714V103.411H40.649ZM51.0906 100.951C50.4744 100.951 49.9189 100.812 49.4242 100.534C48.9295 100.248 48.5389 99.8616 48.2525 99.3756C47.9661 98.8895 47.8229 98.3384 47.8229 97.7222C47.8229 97.1146 47.9617 96.5678 48.2395 96.0818C48.5259 95.5958 48.9078 95.2139 49.3851 94.9362C49.8712 94.6497 50.4136 94.5065 51.0125 94.5065C51.5853 94.5065 52.0887 94.6367 52.5227 94.8971C52.9653 95.1575 53.3081 95.5177 53.5512 95.9777C53.8029 96.4377 53.9287 96.9584 53.9287 97.5399C53.9287 97.6267 53.9244 97.7222 53.9157 97.8263C53.907 97.9218 53.8896 98.0346 53.8636 98.1648H48.643V97.1884H53.2387L52.8091 97.566C52.8091 97.1494 52.7353 96.7978 52.5878 96.5114C52.4402 96.2163 52.2319 95.9907 51.9629 95.8345C51.6938 95.6695 51.3683 95.5871 50.9864 95.5871C50.5872 95.5871 50.2357 95.6739 49.9319 95.8475C49.6281 96.0211 49.3938 96.2641 49.2289 96.5765C49.064 96.889 48.9815 97.2578 48.9815 97.6831C48.9815 98.1171 49.0683 98.499 49.2419 98.8288C49.4155 99.1499 49.6629 99.4016 49.984 99.5839C50.3051 99.7575 50.674 99.8443 51.0906 99.8443C51.4378 99.8443 51.7545 99.7835 52.041 99.662C52.3361 99.5405 52.5878 99.3582 52.7961 99.1152L53.5512 99.8833C53.2561 100.23 52.8915 100.495 52.4576 100.677C52.0323 100.86 51.5766 100.951 51.0906 100.951ZM59.5806 100.821V97.2145C59.5806 96.7458 59.4331 96.3595 59.138 96.0558C58.8429 95.752 58.461 95.6001 57.9923 95.6001C57.6799 95.6001 57.4021 95.6695 57.1591 95.8084C56.9161 95.9473 56.7251 96.1382 56.5863 96.3812C56.4474 96.6243 56.378 96.902 56.378 97.2145L55.8963 96.9411C55.8963 96.4724 56.0004 96.0558 56.2087 95.6912C56.417 95.3267 56.7078 95.0403 57.081 94.832C57.4542 94.615 57.8751 94.5065 58.3438 94.5065C58.8125 94.5065 59.2248 94.6237 59.5806 94.858C59.9451 95.0924 60.2316 95.4005 60.4399 95.7824C60.6482 96.1556 60.7523 96.5548 60.7523 96.9801V100.821H59.5806ZM55.2063 100.821V94.6367H56.378V100.821H55.2063ZM64.9555 100.951C64.3826 100.951 63.8706 100.812 63.4193 100.534C62.9679 100.248 62.6077 99.8616 62.3387 99.3756C62.0783 98.8895 61.9481 98.3428 61.9481 97.7352C61.9481 97.1277 62.0783 96.5809 62.3387 96.0948C62.6077 95.6088 62.9679 95.2226 63.4193 94.9362C63.8706 94.6497 64.3826 94.5065 64.9555 94.5065C65.4155 94.5065 65.8321 94.6063 66.2053 94.806C66.5785 94.9969 66.8779 95.266 67.1036 95.6131C67.3379 95.9516 67.4681 96.3465 67.4942 96.7978V98.6595C67.4681 99.1022 67.3423 99.4971 67.1166 99.8443C66.8909 100.191 66.5915 100.465 66.2183 100.664C65.8451 100.855 65.4242 100.951 64.9555 100.951ZM65.1508 99.8443C65.5413 99.8443 65.8798 99.7531 66.1662 99.5709C66.4613 99.3886 66.6913 99.1412 66.8562 98.8288C67.0211 98.5077 67.1036 98.1431 67.1036 97.7352C67.1036 97.3099 67.0168 96.9411 66.8432 96.6286C66.6783 96.3162 66.4483 96.0688 66.1532 95.8865C65.8668 95.7043 65.5283 95.6131 65.1377 95.6131C64.7472 95.6131 64.4043 95.7043 64.1093 95.8865C63.8142 96.0688 63.5798 96.3205 63.4062 96.6416C63.2413 96.9541 63.1589 97.3143 63.1589 97.7222C63.1589 98.1388 63.2413 98.5077 63.4062 98.8288C63.5798 99.1412 63.8142 99.3886 64.1093 99.5709C64.413 99.7531 64.7602 99.8443 65.1508 99.8443ZM68.2102 100.821H67.0255V99.1543L67.2468 97.6441L67.0255 96.1469V91.5252H68.2102V100.821ZM72.7802 100.951C72.164 100.951 71.6085 100.812 71.1138 100.534C70.6191 100.248 70.2285 99.8616 69.9421 99.3756C69.6557 98.8895 69.5125 98.3384 69.5125 97.7222C69.5125 97.1146 69.6514 96.5678 69.9291 96.0818C70.2155 95.5958 70.5974 95.2139 71.0748 94.9362C71.5608 94.6497 72.1032 94.5065 72.7021 94.5065C73.2749 94.5065 73.7783 94.6367 74.2123 94.8971C74.6549 95.1575 74.9978 95.5177 75.2408 95.9777C75.4925 96.4377 75.6183 96.9584 75.6183 97.5399C75.6183 97.6267 75.614 97.7222 75.6053 97.8263C75.5966 97.9218 75.5793 98.0346 75.5532 98.1648H70.3327V97.1884H74.9283L74.4987 97.566C74.4987 97.1494 74.4249 96.7978 74.2774 96.5114C74.1298 96.2163 73.9215 95.9907 73.6525 95.8345C73.3834 95.6695 73.058 95.5871 72.6761 95.5871C72.2768 95.5871 71.9253 95.6739 71.6215 95.8475C71.3178 96.0211 71.0834 96.2641 70.9185 96.5765C70.7536 96.889 70.6712 97.2578 70.6712 97.6831C70.6712 98.1171 70.758 98.499 70.9315 98.8288C71.1051 99.1499 71.3525 99.4016 71.6736 99.5839C71.9948 99.7575 72.3636 99.8443 72.7802 99.8443C73.1274 99.8443 73.4442 99.7835 73.7306 99.662C74.0257 99.5405 74.2774 99.3582 74.4857 99.1152L75.2408 99.8833C74.9457 100.23 74.5812 100.495 74.1472 100.677C73.7219 100.86 73.2663 100.951 72.7802 100.951ZM81.2703 100.821V97.2145C81.2703 96.7458 81.1227 96.3595 80.8276 96.0558C80.5325 95.752 80.1506 95.6001 79.682 95.6001C79.3695 95.6001 79.0918 95.6695 78.8487 95.8084C78.6057 95.9473 78.4148 96.1382 78.2759 96.3812C78.137 96.6243 78.0676 96.902 78.0676 97.2145L77.5859 96.9411C77.5859 96.4724 77.6901 96.0558 77.8984 95.6912C78.1067 95.3267 78.3974 95.0403 78.7706 94.832C79.1438 94.615 79.5648 94.5065 80.0335 94.5065C80.5021 94.5065 80.9144 94.6237 81.2703 94.858C81.6348 95.0924 81.9212 95.4005 82.1295 95.7824C82.3378 96.1556 82.442 96.5548 82.442 96.9801V100.821H81.2703ZM76.8959 100.821V94.6367H78.0676V100.821H76.8959ZM84.9024 100.821V92.046H86.0741V100.821H84.9024ZM83.3792 95.7043V94.6367H87.5973V95.7043H83.3792ZM94.083 100.951C93.5188 100.951 93.0067 100.812 92.5467 100.534C92.0867 100.248 91.7222 99.8616 91.4531 99.3756C91.1928 98.8895 91.0626 98.3428 91.0626 97.7352C91.0626 97.1277 91.1928 96.5809 91.4531 96.0948C91.7222 95.6088 92.0824 95.2226 92.5337 94.9362C92.9937 94.6497 93.5101 94.5065 94.083 94.5065C94.5516 94.5065 94.9682 94.6063 95.3328 94.806C95.706 94.9969 96.0054 95.266 96.2311 95.6131C96.4567 95.9516 96.5826 96.3465 96.6086 96.7978V98.6595C96.5826 99.1022 96.4567 99.4971 96.2311 99.8443C96.0141 100.191 95.719 100.465 95.3458 100.664C94.9813 100.855 94.5603 100.951 94.083 100.951ZM94.2782 99.8443C94.8598 99.8443 95.3284 99.649 95.6843 99.2584C96.0401 98.8592 96.2181 98.3514 96.2181 97.7352C96.2181 97.3099 96.1356 96.9411 95.9707 96.6286C95.8145 96.3075 95.5888 96.0601 95.2937 95.8865C94.9986 95.7043 94.6558 95.6131 94.2652 95.6131C93.8747 95.6131 93.5275 95.7043 93.2237 95.8865C92.9286 96.0688 92.6943 96.3205 92.5207 96.6416C92.3558 96.9541 92.2733 97.3143 92.2733 97.7222C92.2733 98.1388 92.3558 98.5077 92.5207 98.8288C92.6943 99.1412 92.933 99.3886 93.2367 99.5709C93.5405 99.7531 93.8877 99.8443 94.2782 99.8443ZM96.1399 100.821V99.1543L96.3613 97.6441L96.1399 96.1469V94.6367H97.3247V100.821H96.1399ZM101.856 100.951C101.248 100.951 100.697 100.808 100.202 100.521C99.7162 100.235 99.33 99.8486 99.0436 99.3626C98.7658 98.8678 98.6269 98.3211 98.6269 97.7222C98.6269 97.1146 98.7658 96.5678 99.0436 96.0818C99.33 95.5958 99.7162 95.2139 100.202 94.9362C100.697 94.6497 101.248 94.5065 101.856 94.5065C102.333 94.5065 102.776 94.5977 103.184 94.7799C103.591 94.9535 103.943 95.2095 104.238 95.548L103.457 96.3292C103.266 96.1035 103.032 95.9343 102.754 95.8214C102.485 95.6999 102.185 95.6392 101.856 95.6392C101.465 95.6392 101.118 95.7303 100.814 95.9126C100.51 96.0862 100.272 96.3292 100.098 96.6416C99.9245 96.9541 99.8377 97.3143 99.8377 97.7222C99.8377 98.1301 99.9245 98.4903 100.098 98.8028C100.272 99.1152 100.51 99.3626 100.814 99.5448C101.118 99.7271 101.465 99.8182 101.856 99.8182C102.185 99.8182 102.485 99.7618 102.754 99.649C103.032 99.5275 103.27 99.3539 103.47 99.1282L104.238 99.9094C103.952 100.239 103.6 100.495 103.184 100.677C102.776 100.86 102.333 100.951 101.856 100.951ZM108.098 100.951C107.491 100.951 106.939 100.808 106.445 100.521C105.959 100.235 105.572 99.8486 105.286 99.3626C105.008 98.8678 104.869 98.3211 104.869 97.7222C104.869 97.1146 105.008 96.5678 105.286 96.0818C105.572 95.5958 105.959 95.2139 106.445 94.9362C106.939 94.6497 107.491 94.5065 108.098 94.5065C108.575 94.5065 109.018 94.5977 109.426 94.7799C109.834 94.9535 110.185 95.2095 110.481 95.548L109.699 96.3292C109.508 96.1035 109.274 95.9343 108.996 95.8214C108.727 95.6999 108.428 95.6392 108.098 95.6392C107.708 95.6392 107.36 95.7303 107.057 95.9126C106.753 96.0862 106.514 96.3292 106.341 96.6416C106.167 96.9541 106.08 97.3143 106.08 97.7222C106.08 98.1301 106.167 98.4903 106.341 98.8028C106.514 99.1152 106.753 99.3626 107.057 99.5448C107.36 99.7271 107.708 99.8182 108.098 99.8182C108.428 99.8182 108.727 99.7618 108.996 99.649C109.274 99.5275 109.513 99.3539 109.712 99.1282L110.481 99.9094C110.194 100.239 109.843 100.495 109.426 100.677C109.018 100.86 108.575 100.951 108.098 100.951ZM114.341 100.951C113.733 100.951 113.186 100.808 112.7 100.521C112.214 100.235 111.828 99.8486 111.541 99.3626C111.255 98.8678 111.112 98.3167 111.112 97.7092C111.112 97.1103 111.255 96.5722 111.541 96.0948C111.828 95.6088 112.214 95.2226 112.7 94.9362C113.186 94.6497 113.733 94.5065 114.341 94.5065C114.939 94.5065 115.482 94.6497 115.968 94.9362C116.463 95.2139 116.853 95.5958 117.14 96.0818C117.426 96.5678 117.569 97.1103 117.569 97.7092C117.569 98.3167 117.426 98.8678 117.14 99.3626C116.853 99.8486 116.463 100.235 115.968 100.521C115.482 100.808 114.939 100.951 114.341 100.951ZM114.341 99.8182C114.731 99.8182 115.078 99.7271 115.382 99.5448C115.686 99.3626 115.924 99.1152 116.098 98.8028C116.272 98.4816 116.358 98.1171 116.358 97.7092C116.358 97.3099 116.267 96.9541 116.085 96.6416C115.911 96.3292 115.673 96.0862 115.369 95.9126C115.074 95.7303 114.731 95.6392 114.341 95.6392C113.95 95.6392 113.603 95.7303 113.299 95.9126C112.995 96.0862 112.757 96.3292 112.583 96.6416C112.409 96.9541 112.323 97.3099 112.323 97.7092C112.323 98.1171 112.409 98.4816 112.583 98.8028C112.757 99.1152 112.995 99.3626 113.299 99.5448C113.603 99.7271 113.95 99.8182 114.341 99.8182ZM121.376 100.951C120.873 100.951 120.417 100.838 120.009 100.612C119.61 100.378 119.297 100.057 119.072 99.649C118.846 99.2411 118.733 98.768 118.733 98.2299V94.6367H119.905V98.1778C119.905 98.5163 119.961 98.8114 120.074 99.0631C120.196 99.3062 120.369 99.4928 120.595 99.6229C120.821 99.7531 121.085 99.8182 121.389 99.8182C121.849 99.8182 122.209 99.675 122.47 99.3886C122.73 99.0935 122.86 98.6899 122.86 98.1778V94.6367H124.032V98.2299C124.032 98.768 123.919 99.2411 123.693 99.649C123.468 100.057 123.155 100.378 122.756 100.612C122.365 100.838 121.905 100.951 121.376 100.951ZM129.977 100.821V97.2145C129.977 96.7458 129.829 96.3595 129.534 96.0558C129.239 95.752 128.857 95.6001 128.388 95.6001C128.076 95.6001 127.798 95.6695 127.555 95.8084C127.312 95.9473 127.121 96.1382 126.982 96.3812C126.843 96.6243 126.774 96.902 126.774 97.2145L126.292 96.9411C126.292 96.4724 126.396 96.0558 126.605 95.6912C126.813 95.3267 127.104 95.0403 127.477 94.832C127.85 94.615 128.271 94.5065 128.74 94.5065C129.208 94.5065 129.621 94.6237 129.977 94.858C130.341 95.0924 130.628 95.4005 130.836 95.7824C131.044 96.1556 131.148 96.5548 131.148 96.9801V100.821H129.977ZM125.602 100.821V94.6367H126.774V100.821H125.602ZM133.609 100.821V92.046H134.78V100.821H133.609ZM132.086 95.7043V94.6367H136.304V95.7043H132.086ZM137.464 100.821V94.6367H138.636V100.821H137.464ZM138.05 93.3999C137.833 93.3999 137.655 93.3305 137.517 93.1916C137.378 93.0441 137.308 92.8618 137.308 92.6448C137.308 92.4365 137.378 92.2629 137.517 92.1241C137.655 91.9765 137.833 91.9028 138.05 91.9028C138.267 91.9028 138.445 91.9765 138.584 92.1241C138.723 92.2629 138.792 92.4365 138.792 92.6448C138.792 92.8618 138.723 93.0441 138.584 93.1916C138.445 93.3305 138.267 93.3999 138.05 93.3999ZM144.737 100.821V97.2145C144.737 96.7458 144.59 96.3595 144.295 96.0558C143.999 95.752 143.618 95.6001 143.149 95.6001C142.836 95.6001 142.559 95.6695 142.316 95.8084C142.073 95.9473 141.882 96.1382 141.743 96.3812C141.604 96.6243 141.535 96.902 141.535 97.2145L141.053 96.9411C141.053 96.4724 141.157 96.0558 141.365 95.6912C141.574 95.3267 141.864 95.0403 142.238 94.832C142.611 94.615 143.032 94.5065 143.5 94.5065C143.969 94.5065 144.381 94.6237 144.737 94.858C145.102 95.0924 145.388 95.4005 145.596 95.7824C145.805 96.1556 145.909 96.5548 145.909 96.9801V100.821H144.737ZM140.363 100.821V94.6367H141.535V100.821H140.363ZM150.06 103.542C149.426 103.542 148.862 103.424 148.368 103.19C147.882 102.956 147.491 102.626 147.196 102.201L147.951 101.433C148.203 101.754 148.502 101.997 148.849 102.162C149.196 102.335 149.609 102.422 150.086 102.422C150.72 102.422 151.219 102.253 151.583 101.914C151.956 101.584 152.143 101.137 152.143 100.573V99.0371L152.351 97.6441L152.143 96.2641V94.6367H153.315V100.573C153.315 101.164 153.176 101.68 152.898 102.123C152.629 102.565 152.247 102.912 151.752 103.164C151.266 103.416 150.702 103.542 150.06 103.542ZM150.06 100.717C149.496 100.717 148.988 100.582 148.537 100.313C148.094 100.044 147.743 99.675 147.482 99.2063C147.222 98.729 147.092 98.1952 147.092 97.605C147.092 97.0148 147.222 96.4897 147.482 96.0297C147.743 95.5611 148.094 95.1922 148.537 94.9231C148.988 94.6454 149.496 94.5065 150.06 94.5065C150.546 94.5065 150.976 94.602 151.349 94.7929C151.722 94.9839 152.017 95.2529 152.234 95.6001C152.46 95.9386 152.581 96.3378 152.599 96.7978V98.4382C152.573 98.8895 152.447 99.2888 152.221 99.636C152.004 99.9745 151.709 100.239 151.336 100.43C150.963 100.621 150.537 100.717 150.06 100.717ZM150.294 99.6099C150.676 99.6099 151.01 99.5275 151.297 99.3626C151.592 99.1977 151.818 98.9677 151.974 98.6726C152.13 98.3688 152.208 98.0173 152.208 97.618C152.208 97.2188 152.126 96.8716 151.961 96.5765C151.805 96.2728 151.583 96.0384 151.297 95.8735C151.01 95.6999 150.672 95.6131 150.281 95.6131C149.891 95.6131 149.548 95.6999 149.253 95.8735C148.958 96.0384 148.723 96.2728 148.55 96.5765C148.385 96.8716 148.302 97.2145 148.302 97.605C148.302 97.9956 148.385 98.3428 148.55 98.6465C148.723 98.9503 148.958 99.189 149.253 99.3626C149.557 99.5275 149.904 99.6099 150.294 99.6099ZM159.708 100.951C159.361 100.951 159.031 100.907 158.719 100.821C158.415 100.725 158.133 100.595 157.873 100.43C157.612 100.257 157.387 100.053 157.196 99.8182L157.951 99.0631C158.177 99.3409 158.437 99.5492 158.732 99.688C159.027 99.8182 159.357 99.8833 159.721 99.8833C160.086 99.8833 160.368 99.8226 160.568 99.7011C160.767 99.5709 160.867 99.3929 160.867 99.1673C160.867 98.9416 160.785 98.768 160.62 98.6465C160.464 98.5163 160.26 98.4122 160.008 98.3341C159.756 98.2473 159.487 98.1648 159.201 98.0867C158.923 97.9999 158.658 97.8914 158.407 97.7612C158.155 97.6311 157.947 97.4531 157.782 97.2275C157.625 97.0018 157.547 96.7024 157.547 96.3292C157.547 95.956 157.638 95.6348 157.821 95.3658C158.003 95.088 158.255 94.8754 158.576 94.7278C158.906 94.5803 159.301 94.5065 159.761 94.5065C160.247 94.5065 160.676 94.5933 161.049 94.7669C161.431 94.9318 161.744 95.1835 161.987 95.522L161.232 96.2771C161.058 96.0514 160.841 95.8778 160.581 95.7563C160.329 95.6348 160.043 95.5741 159.721 95.5741C159.383 95.5741 159.123 95.6348 158.94 95.7563C158.767 95.8692 158.68 96.0297 158.68 96.238C158.68 96.4463 158.758 96.6069 158.914 96.7197C159.071 96.8326 159.274 96.928 159.526 97.0062C159.787 97.0843 160.056 97.1667 160.333 97.2535C160.611 97.3316 160.876 97.4401 161.127 97.579C161.379 97.7178 161.583 97.9045 161.739 98.1388C161.904 98.3731 161.987 98.6812 161.987 99.0631C161.987 99.6446 161.778 100.105 161.362 100.443C160.954 100.782 160.403 100.951 159.708 100.951ZM166.163 100.951C165.546 100.951 164.991 100.812 164.496 100.534C164.002 100.248 163.611 99.8616 163.325 99.3756C163.038 98.8895 162.895 98.3384 162.895 97.7222C162.895 97.1146 163.034 96.5678 163.312 96.0818C163.598 95.5958 163.98 95.2139 164.457 94.9362C164.943 94.6497 165.486 94.5065 166.085 94.5065C166.657 94.5065 167.161 94.6367 167.595 94.8971C168.037 95.1575 168.38 95.5177 168.623 95.9777C168.875 96.4377 169.001 96.9584 169.001 97.5399C169.001 97.6267 168.996 97.7222 168.988 97.8263C168.979 97.9218 168.962 98.0346 168.936 98.1648H163.715V97.1884H168.311L167.881 97.566C167.881 97.1494 167.807 96.7978 167.66 96.5114C167.512 96.2163 167.304 95.9907 167.035 95.8345C166.766 95.6695 166.44 95.5871 166.058 95.5871C165.659 95.5871 165.308 95.6739 165.004 95.8475C164.7 96.0211 164.466 96.2641 164.301 96.5765C164.136 96.889 164.054 97.2578 164.054 97.6831C164.054 98.1171 164.14 98.499 164.314 98.8288C164.488 99.1499 164.735 99.4016 165.056 99.5839C165.377 99.7575 165.746 99.8443 166.163 99.8443C166.51 99.8443 166.827 99.7835 167.113 99.662C167.408 99.5405 167.66 99.3582 167.868 99.1152L168.623 99.8833C168.328 100.23 167.964 100.495 167.53 100.677C167.104 100.86 166.649 100.951 166.163 100.951ZM170.278 100.821V94.6367H171.45V100.821H170.278ZM171.45 97.2926L171.007 97.0973C171.007 96.3075 171.19 95.6782 171.554 95.2095C171.919 94.7409 172.444 94.5065 173.129 94.5065C173.442 94.5065 173.724 94.5629 173.976 94.6758C174.227 94.7799 174.462 94.9578 174.679 95.2095L173.911 96.0037C173.78 95.8648 173.637 95.765 173.481 95.7043C173.325 95.6435 173.142 95.6131 172.934 95.6131C172.5 95.6131 172.144 95.752 171.867 96.0297C171.589 96.3075 171.45 96.7284 171.45 97.2926ZM177.511 100.821L174.673 94.6367H175.975L178.253 99.8573H177.498L179.79 94.6367H181.039L178.201 100.821H177.511ZM182.052 100.821V94.6367H183.223V100.821H182.052ZM182.637 93.3999C182.42 93.3999 182.242 93.3305 182.104 93.1916C181.965 93.0441 181.895 92.8618 181.895 92.6448C181.895 92.4365 181.965 92.2629 182.104 92.1241C182.242 91.9765 182.42 91.9028 182.637 91.9028C182.854 91.9028 183.032 91.9765 183.171 92.1241C183.31 92.2629 183.379 92.4365 183.379 92.6448C183.379 92.8618 183.31 93.0441 183.171 93.1916C183.032 93.3305 182.854 93.3999 182.637 93.3999ZM187.775 100.951C187.168 100.951 186.616 100.808 186.122 100.521C185.636 100.235 185.249 99.8486 184.963 99.3626C184.685 98.8678 184.546 98.3211 184.546 97.7222C184.546 97.1146 184.685 96.5678 184.963 96.0818C185.249 95.5958 185.636 95.2139 186.122 94.9362C186.616 94.6497 187.168 94.5065 187.775 94.5065C188.252 94.5065 188.695 94.5977 189.103 94.7799C189.511 94.9535 189.862 95.2095 190.158 95.548L189.376 96.3292C189.185 96.1035 188.951 95.9343 188.673 95.8214C188.404 95.6999 188.105 95.6392 187.775 95.6392C187.385 95.6392 187.037 95.7303 186.734 95.9126C186.43 96.0862 186.191 96.3292 186.018 96.6416C185.844 96.9541 185.757 97.3143 185.757 97.7222C185.757 98.1301 185.844 98.4903 186.018 98.8028C186.191 99.1152 186.43 99.3626 186.734 99.5448C187.037 99.7271 187.385 99.8182 187.775 99.8182C188.105 99.8182 188.404 99.7618 188.673 99.649C188.951 99.5275 189.19 99.3539 189.389 99.1282L190.158 99.9094C189.871 100.239 189.52 100.495 189.103 100.677C188.695 100.86 188.252 100.951 187.775 100.951ZM194.057 100.951C193.44 100.951 192.885 100.812 192.39 100.534C191.895 100.248 191.505 99.8616 191.218 99.3756C190.932 98.8895 190.789 98.3384 190.789 97.7222C190.789 97.1146 190.928 96.5678 191.205 96.0818C191.492 95.5958 191.874 95.2139 192.351 94.9362C192.837 94.6497 193.38 94.5065 193.978 94.5065C194.551 94.5065 195.055 94.6367 195.489 94.8971C195.931 95.1575 196.274 95.5177 196.517 95.9777C196.769 96.4377 196.895 96.9584 196.895 97.5399C196.895 97.6267 196.89 97.7222 196.882 97.8263C196.873 97.9218 196.856 98.0346 196.83 98.1648H191.609V97.1884H196.205L195.775 97.566C195.775 97.1494 195.701 96.7978 195.554 96.5114C195.406 96.2163 195.198 95.9907 194.929 95.8345C194.66 95.6695 194.334 95.5871 193.952 95.5871C193.553 95.5871 193.202 95.6739 192.898 95.8475C192.594 96.0211 192.36 96.2641 192.195 96.5765C192.03 96.889 191.948 97.2578 191.948 97.6831C191.948 98.1171 192.034 98.499 192.208 98.8288C192.381 99.1499 192.629 99.4016 192.95 99.5839C193.271 99.7575 193.64 99.8443 194.057 99.8443C194.404 99.8443 194.721 99.7835 195.007 99.662C195.302 99.5405 195.554 99.3582 195.762 99.1152L196.517 99.8833C196.222 100.23 195.858 100.495 195.424 100.677C194.998 100.86 194.543 100.951 194.057 100.951ZM200.138 100.951C199.791 100.951 199.461 100.907 199.149 100.821C198.845 100.725 198.563 100.595 198.302 100.43C198.042 100.257 197.816 100.053 197.625 99.8182L198.381 99.0631C198.606 99.3409 198.867 99.5492 199.162 99.688C199.457 99.8182 199.787 99.8833 200.151 99.8833C200.516 99.8833 200.798 99.8226 200.997 99.7011C201.197 99.5709 201.297 99.3929 201.297 99.1673C201.297 98.9416 201.214 98.768 201.049 98.6465C200.893 98.5163 200.689 98.4122 200.438 98.3341C200.186 98.2473 199.917 98.1648 199.63 98.0867C199.353 97.9999 199.088 97.8914 198.836 97.7612C198.585 97.6311 198.376 97.4531 198.211 97.2275C198.055 97.0018 197.977 96.7024 197.977 96.3292C197.977 95.956 198.068 95.6348 198.25 95.3658C198.433 95.088 198.684 94.8754 199.005 94.7278C199.335 94.5803 199.73 94.5065 200.19 94.5065C200.676 94.5065 201.106 94.5933 201.479 94.7669C201.861 94.9318 202.173 95.1835 202.416 95.522L201.661 96.2771C201.488 96.0514 201.271 95.8778 201.01 95.7563C200.759 95.6348 200.472 95.5741 200.151 95.5741C199.813 95.5741 199.552 95.6348 199.37 95.7563C199.196 95.8692 199.11 96.0297 199.11 96.238C199.11 96.4463 199.188 96.6069 199.344 96.7197C199.5 96.8326 199.704 96.928 199.956 97.0062C200.216 97.0843 200.485 97.1667 200.763 97.2535C201.041 97.3316 201.305 97.4401 201.557 97.579C201.809 97.7178 202.013 97.9045 202.169 98.1388C202.334 98.3731 202.416 98.6812 202.416 99.0631C202.416 99.6446 202.208 100.105 201.792 100.443C201.384 100.782 200.832 100.951 200.138 100.951ZM204.757 100.951C204.514 100.951 204.31 100.868 204.145 100.704C203.989 100.53 203.91 100.326 203.91 100.092C203.91 99.8486 203.989 99.649 204.145 99.4928C204.31 99.3278 204.514 99.2454 204.757 99.2454C205 99.2454 205.199 99.3278 205.356 99.4928C205.52 99.649 205.603 99.8486 205.603 100.092C205.603 100.326 205.52 100.53 205.356 100.704C205.199 100.868 205 100.951 204.757 100.951Z" fill="#7D7D7D"/>
</svg>
