<svg width="230" height="160" viewBox="0 0 230 160" fill="none" xmlns="http://www.w3.org/2000/svg">
<rect x="0.542453" y="1.34226" width="228.915" height="143.208" rx="9.2217" fill="white" stroke="black" stroke-width="1.08491"/>
<path d="M30.544 159.219L22.1452 144.763L38.8643 144.717L30.544 159.219Z" fill="white"/>
<path d="M22.4443 35.2973C21.5185 35.2973 20.6622 35.1469 19.8753 34.846C19.0999 34.5335 18.4229 34.0996 17.8443 33.5441C17.2773 32.9771 16.8317 32.3174 16.5077 31.5652C16.1837 30.813 16.0217 29.9856 16.0217 29.083C16.0217 28.1803 16.1837 27.3529 16.5077 26.6007C16.8317 25.8485 17.2831 25.1947 17.8617 24.6392C18.4403 24.0722 19.1173 23.6382 19.8926 23.3373C20.6795 23.0249 21.5359 22.8686 22.4617 22.8686C23.399 22.8686 24.2612 23.0306 25.0481 23.3547C25.8466 23.6671 26.5236 24.1358 27.079 24.7607L25.9507 25.8543C25.4878 25.3683 24.9671 25.0095 24.3885 24.7781C23.8099 24.5351 23.1907 24.4135 22.5311 24.4135C21.8484 24.4135 21.2119 24.5293 20.6217 24.7607C20.0431 24.9922 19.5397 25.3162 19.1115 25.7328C18.6833 26.1494 18.3477 26.647 18.1047 27.2256C17.8733 27.7927 17.7575 28.4118 17.7575 29.083C17.7575 29.7542 17.8733 30.3791 18.1047 30.9577C18.3477 31.5247 18.6833 32.0166 19.1115 32.4332C19.5397 32.8498 20.0431 33.1738 20.6217 33.4052C21.2119 33.6367 21.8484 33.7524 22.5311 33.7524C23.1907 33.7524 23.8099 33.6367 24.3885 33.4052C24.9671 33.1622 25.4878 32.7919 25.9507 32.2943L27.079 33.3879C26.5236 34.0128 25.8466 34.4873 25.0481 34.8113C24.2612 35.1353 23.3933 35.2973 22.4443 35.2973ZM34.9046 35.1584V33.2143L34.8178 32.8498V29.5343C34.8178 28.8284 34.6095 28.2845 34.1929 27.9026C33.7879 27.5091 33.1745 27.3124 32.3529 27.3124C31.809 27.3124 31.2767 27.405 30.7559 27.5901C30.2352 27.7637 29.7954 28.001 29.4367 28.3018L28.7423 27.052C29.2168 26.6701 29.7838 26.3808 30.4435 26.1841C31.1147 25.9758 31.8148 25.8717 32.5438 25.8717C33.8052 25.8717 34.7773 26.1783 35.4601 26.7917C36.1428 27.405 36.4842 28.3423 36.4842 29.6037V35.1584H34.9046ZM31.8842 35.2626C31.2015 35.2626 30.5997 35.1469 30.0789 34.9154C29.5698 34.684 29.1763 34.3657 28.8986 33.9607C28.6208 33.5441 28.482 33.0754 28.482 32.5547C28.482 32.0571 28.5977 31.6057 28.8291 31.2007C29.0721 30.7957 29.4598 30.4717 29.9921 30.2286C30.536 29.9856 31.2651 29.8641 32.1793 29.8641H35.0955V31.0618H32.2488C31.4155 31.0618 30.8543 31.2007 30.565 31.4784C30.2757 31.7562 30.131 32.0918 30.131 32.4852C30.131 32.9366 30.3104 33.3011 30.6691 33.5788C31.0279 33.845 31.5255 33.9781 32.162 33.9781C32.7869 33.9781 33.3308 33.8392 33.7937 33.5615C34.2681 33.2837 34.6095 32.8787 34.8178 32.3464L35.1476 33.492C34.9277 34.0359 34.5401 34.4699 33.9846 34.7939C33.4291 35.1064 32.729 35.2626 31.8842 35.2626ZM39.5681 35.1584V25.9584H41.165V28.4581L41.0088 27.8332C41.2634 27.1967 41.6916 26.7106 42.2934 26.3751C42.8951 26.0395 43.6357 25.8717 44.5152 25.8717V27.486C44.4458 27.4744 44.3764 27.4686 44.3069 27.4686C44.2491 27.4686 44.1912 27.4686 44.1334 27.4686C43.2423 27.4686 42.5364 27.7348 42.0156 28.2671C41.4949 28.7995 41.2345 29.569 41.2345 30.5758V35.1584H39.5681ZM50.5115 38.6301C49.6667 38.6301 48.8451 38.5086 48.0466 38.2656C47.2597 38.0342 46.6174 37.6986 46.1198 37.2588L46.9183 35.9743C47.3465 36.3446 47.873 36.6339 48.4979 36.8422C49.1228 37.0621 49.7767 37.172 50.4594 37.172C51.5472 37.172 52.3457 36.9174 52.8549 36.4083C53.3641 35.8991 53.6187 35.1237 53.6187 34.0822V32.1381L53.7923 30.3154L53.7055 28.4754V25.9584H55.2851V33.9086C55.2851 35.5288 54.8801 36.7207 54.07 37.4845C53.2599 38.2483 52.0738 38.6301 50.5115 38.6301ZM50.3032 34.7766C49.4121 34.7766 48.6137 34.5914 47.9077 34.2211C47.2134 33.8392 46.6579 33.3127 46.2413 32.6415C45.8363 31.9703 45.6338 31.1949 45.6338 30.3154C45.6338 29.4244 45.8363 28.649 46.2413 27.9894C46.6579 27.3182 47.2134 26.7974 47.9077 26.4271C48.6137 26.0568 49.4121 25.8717 50.3032 25.8717C51.0901 25.8717 51.8076 26.0337 52.4557 26.3577C53.1037 26.6701 53.6187 27.1562 54.0006 27.8158C54.394 28.4754 54.5908 29.3086 54.5908 30.3154C54.5908 31.3106 54.394 32.1381 54.0006 32.7977C53.6187 33.4573 53.1037 33.9549 52.4557 34.2905C51.8076 34.6145 51.0901 34.7766 50.3032 34.7766ZM50.4942 33.3184C51.1075 33.3184 51.6514 33.1912 52.1259 32.9366C52.6003 32.682 52.9706 32.329 53.2368 31.8777C53.5145 31.4264 53.6534 30.9056 53.6534 30.3154C53.6534 29.7252 53.5145 29.2045 53.2368 28.7532C52.9706 28.3018 52.6003 27.9547 52.1259 27.7117C51.6514 27.4571 51.1075 27.3298 50.4942 27.3298C49.8808 27.3298 49.3311 27.4571 48.8451 27.7117C48.3706 27.9547 47.9945 28.3018 47.7168 28.7532C47.4506 29.2045 47.3176 29.7252 47.3176 30.3154C47.3176 30.9056 47.4506 31.4264 47.7168 31.8777C47.9945 32.329 48.3706 32.682 48.8451 32.9366C49.3311 33.1912 49.8808 33.3184 50.4942 33.3184ZM62.4095 35.2626C61.4837 35.2626 60.6621 35.0601 59.9446 34.6551C59.2271 34.25 58.6601 33.6945 58.2435 32.9886C57.8269 32.2712 57.6186 31.4611 57.6186 30.5584C57.6186 29.6442 57.8269 28.8342 58.2435 28.1283C58.6601 27.4223 59.2271 26.8727 59.9446 26.4792C60.6621 26.0742 61.4837 25.8717 62.4095 25.8717C63.3237 25.8717 64.1396 26.0742 64.8571 26.4792C65.5861 26.8727 66.1532 27.4223 66.5582 28.1283C66.9748 28.8226 67.1831 29.6327 67.1831 30.5584C67.1831 31.4727 66.9748 32.2827 66.5582 32.9886C66.1532 33.6945 65.5861 34.25 64.8571 34.6551C64.1396 35.0601 63.3237 35.2626 62.4095 35.2626ZM62.4095 33.8045C62.9997 33.8045 63.5263 33.6714 63.9892 33.4052C64.4636 33.1391 64.8339 32.763 65.1001 32.2769C65.3663 31.7793 65.4993 31.2065 65.4993 30.5584C65.4993 29.8988 65.3663 29.3318 65.1001 28.8573C64.8339 28.3713 64.4636 27.9952 63.9892 27.729C63.5263 27.4628 62.9997 27.3298 62.4095 27.3298C61.8193 27.3298 61.2928 27.4628 60.8299 27.729C60.367 27.9952 59.9967 28.3713 59.719 28.8573C59.4412 29.3318 59.3024 29.8988 59.3024 30.5584C59.3024 31.2065 59.4412 31.7793 59.719 32.2769C59.9967 32.763 60.367 33.1391 60.8299 33.4052C61.2928 33.6714 61.8193 33.8045 62.4095 33.8045ZM83.1064 23.0075H84.8423V35.1584H83.1064V23.0075ZM76.1283 35.1584H74.3925V23.0075H76.1283V35.1584ZM83.2626 29.7426H75.9547V28.2324H83.2626V29.7426ZM93.9472 35.1584V33.2143L93.8604 32.8498V29.5343C93.8604 28.8284 93.6521 28.2845 93.2355 27.9026C92.8305 27.5091 92.2171 27.3124 91.3955 27.3124C90.8516 27.3124 90.3193 27.405 89.7985 27.5901C89.2778 27.7637 88.838 28.001 88.4793 28.3018L87.7849 27.052C88.2594 26.6701 88.8264 26.3808 89.4861 26.1841C90.1573 25.9758 90.8574 25.8717 91.5864 25.8717C92.8478 25.8717 93.8199 26.1783 94.5027 26.7917C95.1854 27.405 95.5268 28.3423 95.5268 29.6037V35.1584H93.9472ZM90.9268 35.2626C90.2441 35.2626 89.6423 35.1469 89.1215 34.9154C88.6124 34.684 88.2189 34.3657 87.9412 33.9607C87.6634 33.5441 87.5246 33.0754 87.5246 32.5547C87.5246 32.0571 87.6403 31.6057 87.8717 31.2007C88.1147 30.7957 88.5024 30.4717 89.0347 30.2286C89.5786 29.9856 90.3077 29.8641 91.2219 29.8641H94.1381V31.0618H91.2913C90.4581 31.0618 89.8969 31.2007 89.6076 31.4784C89.3183 31.7562 89.1736 32.0918 89.1736 32.4852C89.1736 32.9366 89.353 33.3011 89.7117 33.5788C90.0705 33.845 90.5681 33.9781 91.2046 33.9781C91.8295 33.9781 92.3734 33.8392 92.8363 33.5615C93.3107 33.2837 93.6521 32.8787 93.8604 32.3464L94.1902 33.492C93.9703 34.0359 93.5827 34.4699 93.0272 34.7939C92.4717 35.1064 91.7716 35.2626 90.9268 35.2626ZM103.523 25.8717C104.275 25.8717 104.935 26.0163 105.502 26.3056C106.081 26.5949 106.532 27.0347 106.856 27.6249C107.18 28.2151 107.342 28.9615 107.342 29.8641V35.1584H105.676V30.0551C105.676 29.164 105.456 28.4928 105.016 28.0415C104.588 27.5901 103.98 27.3645 103.193 27.3645C102.603 27.3645 102.088 27.4802 101.648 27.7117C101.209 27.9431 100.867 28.2845 100.624 28.7358C100.393 29.1871 100.277 29.7484 100.277 30.4196V35.1584H98.6107V25.9584H100.208V28.4407L99.9473 27.7811C100.248 27.1793 100.711 26.7106 101.336 26.3751C101.961 26.0395 102.69 25.8717 103.523 25.8717ZM114.227 35.2626C113.336 35.2626 112.538 35.0659 111.832 34.6724C111.138 34.279 110.588 33.7293 110.183 33.0234C109.778 32.3174 109.575 31.4958 109.575 30.5584C109.575 29.6211 109.778 28.8052 110.183 28.1109C110.588 27.405 111.138 26.8553 111.832 26.4618C112.538 26.0684 113.336 25.8717 114.227 25.8717C115.003 25.8717 115.703 26.0452 116.328 26.3924C116.953 26.7396 117.45 27.2603 117.821 27.9547C118.203 28.649 118.394 29.5169 118.394 30.5584C118.394 31.6 118.208 32.4679 117.838 33.1622C117.479 33.8566 116.987 34.3831 116.363 34.7418C115.738 35.089 115.026 35.2626 114.227 35.2626ZM114.366 33.8045C114.945 33.8045 115.466 33.6714 115.929 33.4052C116.403 33.1391 116.773 32.763 117.04 32.2769C117.317 31.7793 117.456 31.2065 117.456 30.5584C117.456 29.8988 117.317 29.3318 117.04 28.8573C116.773 28.3713 116.403 27.9952 115.929 27.729C115.466 27.4628 114.945 27.3298 114.366 27.3298C113.776 27.3298 113.25 27.4628 112.787 27.729C112.324 27.9952 111.954 28.3713 111.676 28.8573C111.398 29.3318 111.259 29.8988 111.259 30.5584C111.259 31.2065 111.398 31.7793 111.676 32.2769C111.954 32.763 112.324 33.1391 112.787 33.4052C113.25 33.6714 113.776 33.8045 114.366 33.8045ZM117.508 35.1584V32.6762L117.612 30.5411L117.439 28.406V22.2784H119.105V35.1584H117.508ZM122.258 35.1584V22.2784H123.925V35.1584H122.258ZM127.106 35.1584V25.9584H128.773V35.1584H127.106ZM127.94 24.1879C127.616 24.1879 127.344 24.0837 127.124 23.8754C126.915 23.6671 126.811 23.4125 126.811 23.1117C126.811 22.7992 126.915 22.5388 127.124 22.3305C127.344 22.1222 127.616 22.0181 127.94 22.0181C128.264 22.0181 128.53 22.1222 128.738 22.3305C128.958 22.5273 129.068 22.7761 129.068 23.0769C129.068 23.3894 128.964 23.6556 128.755 23.8754C128.547 24.0837 128.275 24.1879 127.94 24.1879ZM136.867 25.8717C137.619 25.8717 138.279 26.0163 138.846 26.3056C139.424 26.5949 139.876 27.0347 140.2 27.6249C140.524 28.2151 140.686 28.9615 140.686 29.8641V35.1584H139.019V30.0551C139.019 29.164 138.8 28.4928 138.36 28.0415C137.932 27.5901 137.324 27.3645 136.537 27.3645C135.947 27.3645 135.432 27.4802 134.992 27.7117C134.553 27.9431 134.211 28.2845 133.968 28.7358C133.737 29.1871 133.621 29.7484 133.621 30.4196V35.1584H131.955V25.9584H133.552V28.4407L133.291 27.7811C133.592 27.1793 134.055 26.7106 134.68 26.3751C135.305 26.0395 136.034 25.8717 136.867 25.8717ZM147.797 38.6301C146.952 38.6301 146.131 38.5086 145.332 38.2656C144.545 38.0342 143.903 37.6986 143.405 37.2588L144.204 35.9743C144.632 36.3446 145.159 36.6339 145.783 36.8422C146.408 37.0621 147.062 37.172 147.745 37.172C148.833 37.172 149.631 36.9174 150.14 36.4083C150.65 35.8991 150.904 35.1237 150.904 34.0822V32.1381L151.078 30.3154L150.991 28.4754V25.9584H152.571V33.9086C152.571 35.5288 152.166 36.7207 151.356 37.4845C150.545 38.2483 149.359 38.6301 147.797 38.6301ZM147.589 34.7766C146.698 34.7766 145.899 34.5914 145.193 34.2211C144.499 33.8392 143.943 33.3127 143.527 32.6415C143.122 31.9703 142.919 31.1949 142.919 30.3154C142.919 29.4244 143.122 28.649 143.527 27.9894C143.943 27.3182 144.499 26.7974 145.193 26.4271C145.899 26.0568 146.698 25.8717 147.589 25.8717C148.376 25.8717 149.093 26.0337 149.741 26.3577C150.389 26.6701 150.904 27.1562 151.286 27.8158C151.68 28.4754 151.876 29.3086 151.876 30.3154C151.876 31.3106 151.68 32.1381 151.286 32.7977C150.904 33.4573 150.389 33.9549 149.741 34.2905C149.093 34.6145 148.376 34.7766 147.589 34.7766ZM147.78 33.3184C148.393 33.3184 148.937 33.1912 149.411 32.9366C149.886 32.682 150.256 32.329 150.522 31.8777C150.8 31.4264 150.939 30.9056 150.939 30.3154C150.939 29.7252 150.8 29.2045 150.522 28.7532C150.256 28.3018 149.886 27.9547 149.411 27.7117C148.937 27.4571 148.393 27.3298 147.78 27.3298C147.166 27.3298 146.617 27.4571 146.131 27.7117C145.656 27.9547 145.28 28.3018 145.002 28.7532C144.736 29.2045 144.603 29.7252 144.603 30.3154C144.603 30.9056 144.736 31.4264 145.002 31.8777C145.28 32.329 145.656 32.682 146.131 32.9366C146.617 33.1912 147.166 33.3184 147.78 33.3184Z" fill="#252B42"/>
<path d="M15.5921 63.6206L19.2894 54.5855H20.1747L23.859 63.6206H22.5311L19.4977 55.9785H19.9534L16.8939 63.6206H15.5921ZM17.3496 61.5766V60.5091H22.1015V61.5766H17.3496ZM27.5436 63.7508C26.936 63.7508 26.3849 63.6076 25.8902 63.3212C25.4042 63.0348 25.0179 62.6485 24.7315 62.1625C24.4538 61.6678 24.3149 61.121 24.3149 60.5221C24.3149 59.9146 24.4538 59.3678 24.7315 58.8817C25.0179 58.3957 25.4042 58.0138 25.8902 57.7361C26.3849 57.4497 26.936 57.3065 27.5436 57.3065C28.0209 57.3065 28.4636 57.3976 28.8715 57.5799C29.2794 57.7534 29.6309 58.0095 29.926 58.348L29.1449 59.1291C28.954 58.9034 28.7196 58.7342 28.4419 58.6214C28.1728 58.4999 27.8734 58.4391 27.5436 58.4391C27.153 58.4391 26.8058 58.5302 26.5021 58.7125C26.1983 58.8861 25.9596 59.1291 25.786 59.4415C25.6125 59.754 25.5257 60.1142 25.5257 60.5221C25.5257 60.93 25.6125 61.2902 25.786 61.6027C25.9596 61.9151 26.1983 62.1625 26.5021 62.3448C26.8058 62.527 27.153 62.6182 27.5436 62.6182C27.8734 62.6182 28.1728 62.5617 28.4419 62.4489C28.7196 62.3274 28.9583 62.1538 29.1579 61.9282L29.926 62.7093C29.6396 63.0391 29.2881 63.2951 28.8715 63.4774C28.4636 63.6597 28.0209 63.7508 27.5436 63.7508ZM33.786 63.7508C33.1785 63.7508 32.6274 63.6076 32.1326 63.3212C31.6466 63.0348 31.2604 62.6485 30.974 62.1625C30.6962 61.6678 30.5574 61.121 30.5574 60.5221C30.5574 59.9146 30.6962 59.3678 30.974 58.8817C31.2604 58.3957 31.6466 58.0138 32.1326 57.7361C32.6274 57.4497 33.1785 57.3065 33.786 57.3065C34.2634 57.3065 34.706 57.3976 35.114 57.5799C35.5219 57.7534 35.8734 58.0095 36.1685 58.348L35.3874 59.1291C35.1964 58.9034 34.9621 58.7342 34.6843 58.6214C34.4153 58.4999 34.1158 58.4391 33.786 58.4391C33.3955 58.4391 33.0483 58.5302 32.7445 58.7125C32.4407 58.8861 32.2021 59.1291 32.0285 59.4415C31.8549 59.754 31.7681 60.1142 31.7681 60.5221C31.7681 60.93 31.8549 61.2902 32.0285 61.6027C32.2021 61.9151 32.4407 62.1625 32.7445 62.3448C33.0483 62.527 33.3955 62.6182 33.786 62.6182C34.1158 62.6182 34.4153 62.5617 34.6843 62.4489C34.9621 62.3274 35.2007 62.1538 35.4004 61.9282L36.1685 62.7093C35.8821 63.0391 35.5306 63.2951 35.114 63.4774C34.706 63.6597 34.2634 63.7508 33.786 63.7508ZM40.0675 63.7508C39.4513 63.7508 38.8958 63.6119 38.4011 63.3342C37.9064 63.0478 37.5158 62.6615 37.2294 62.1755C36.943 61.6895 36.7998 61.1383 36.7998 60.5221C36.7998 59.9146 36.9387 59.3678 37.2164 58.8817C37.5028 58.3957 37.8847 58.0138 38.3621 57.7361C38.8481 57.4497 39.3906 57.3065 39.9894 57.3065C40.5622 57.3065 41.0656 57.4366 41.4996 57.697C41.9422 57.9574 42.2851 58.3176 42.5281 58.7776C42.7798 59.2376 42.9056 59.7583 42.9056 60.3399C42.9056 60.4266 42.9013 60.5221 42.8926 60.6263C42.8839 60.7217 42.8666 60.8346 42.8406 60.9648H37.62V59.9883H42.2156L41.786 60.3659C41.786 59.9493 41.7122 59.5978 41.5647 59.3114C41.4172 59.0163 41.2089 58.7906 40.9398 58.6344C40.6707 58.4695 40.3453 58.387 39.9634 58.387C39.5641 58.387 39.2126 58.4738 38.9089 58.6474C38.6051 58.821 38.3707 59.064 38.2058 59.3765C38.0409 59.6889 37.9585 60.0578 37.9585 60.4831C37.9585 60.917 38.0453 61.2989 38.2189 61.6287C38.3924 61.9499 38.6398 62.2015 38.9609 62.3838C39.2821 62.5574 39.6509 62.6442 40.0675 62.6442C40.4147 62.6442 40.7315 62.5834 41.0179 62.4619C41.313 62.3404 41.5647 62.1582 41.773 61.9151L42.5281 62.6832C42.233 63.0304 41.8685 63.2951 41.4345 63.4774C41.0092 63.6597 40.5536 63.7508 40.0675 63.7508ZM46.1491 63.7508C45.8019 63.7508 45.4721 63.7074 45.1596 63.6206C44.8559 63.5251 44.5738 63.3949 44.3134 63.23C44.053 63.0565 43.8274 62.8525 43.6364 62.6182L44.3915 61.8631C44.6172 62.1408 44.8776 62.3491 45.1727 62.488C45.4678 62.6182 45.7976 62.6832 46.1621 62.6832C46.5266 62.6832 46.8087 62.6225 47.0083 62.501C47.2079 62.3708 47.3078 62.1929 47.3078 61.9672C47.3078 61.7415 47.2253 61.568 47.0604 61.4465C46.9042 61.3163 46.7002 61.2121 46.4485 61.134C46.1968 61.0472 45.9278 60.9648 45.6413 60.8866C45.3636 60.7999 45.0989 60.6914 44.8472 60.5612C44.5955 60.431 44.3872 60.2531 44.2223 60.0274C44.0661 59.8017 43.9879 59.5023 43.9879 59.1291C43.9879 58.7559 44.0791 58.4348 44.2613 58.1657C44.4436 57.888 44.6953 57.6753 45.0164 57.5278C45.3462 57.3802 45.7411 57.3065 46.2011 57.3065C46.6872 57.3065 47.1168 57.3932 47.49 57.5668C47.8719 57.7317 48.1844 57.9834 48.4274 58.3219L47.6723 59.077C47.4987 58.8514 47.2817 58.6778 47.0213 58.5563C46.7696 58.4348 46.4832 58.374 46.1621 58.374C45.8236 58.374 45.5632 58.4348 45.381 58.5563C45.2074 58.6691 45.1206 58.8297 45.1206 59.038C45.1206 59.2463 45.1987 59.4068 45.3549 59.5197C45.5111 59.6325 45.7151 59.728 45.9668 59.8061C46.2272 59.8842 46.4962 59.9666 46.774 60.0534C47.0517 60.1315 47.3164 60.24 47.5681 60.3789C47.8198 60.5178 48.0238 60.7044 48.18 60.9387C48.3449 61.1731 48.4274 61.4812 48.4274 61.8631C48.4274 62.4446 48.2191 62.9046 47.8025 63.2431C47.3945 63.5815 46.8434 63.7508 46.1491 63.7508ZM51.705 63.7508C51.3578 63.7508 51.028 63.7074 50.7155 63.6206C50.4118 63.5251 50.1297 63.3949 49.8693 63.23C49.6089 63.0565 49.3833 62.8525 49.1923 62.6182L49.9474 61.8631C50.1731 62.1408 50.4335 62.3491 50.7286 62.488C51.0237 62.6182 51.3535 62.6832 51.718 62.6832C52.0825 62.6832 52.3646 62.6225 52.5642 62.501C52.7638 62.3708 52.8637 62.1929 52.8637 61.9672C52.8637 61.7415 52.7812 61.568 52.6163 61.4465C52.4601 61.3163 52.2561 61.2121 52.0044 61.134C51.7527 61.0472 51.4837 60.9648 51.1972 60.8866C50.9195 60.7999 50.6548 60.6914 50.4031 60.5612C50.1514 60.431 49.9431 60.2531 49.7782 60.0274C49.622 59.8017 49.5438 59.5023 49.5438 59.1291C49.5438 58.7559 49.635 58.4348 49.8172 58.1657C49.9995 57.888 50.2512 57.6753 50.5723 57.5278C50.9021 57.3802 51.2971 57.3065 51.7571 57.3065C52.2431 57.3065 52.6727 57.3932 53.0459 57.5668C53.4278 57.7317 53.7403 57.9834 53.9833 58.3219L53.2282 59.077C53.0546 58.8514 52.8376 58.6778 52.5772 58.5563C52.3255 58.4348 52.0391 58.374 51.718 58.374C51.3795 58.374 51.1191 58.4348 50.9369 58.5563C50.7633 58.6691 50.6765 58.8297 50.6765 59.038C50.6765 59.2463 50.7546 59.4068 50.9108 59.5197C51.0671 59.6325 51.271 59.728 51.5227 59.8061C51.7831 59.8842 52.0521 59.9666 52.3299 60.0534C52.6076 60.1315 52.8723 60.24 53.124 60.3789C53.3757 60.5178 53.5797 60.7044 53.7359 60.9387C53.9008 61.1731 53.9833 61.4812 53.9833 61.8631C53.9833 62.4446 53.775 62.9046 53.3584 63.2431C52.9504 63.5815 52.3993 63.7508 51.705 63.7508ZM59.9689 63.7508C59.6217 63.7508 59.2919 63.7074 58.9795 63.6206C58.6757 63.5251 58.3936 63.3949 58.1332 63.23C57.8729 63.0565 57.6472 62.8525 57.4563 62.6182L58.2114 61.8631C58.437 62.1408 58.6974 62.3491 58.9925 62.488C59.2876 62.6182 59.6174 62.6832 59.9819 62.6832C60.3465 62.6832 60.6285 62.6225 60.8282 62.501C61.0278 62.3708 61.1276 62.1929 61.1276 61.9672C61.1276 61.7415 61.0451 61.568 60.8802 61.4465C60.724 61.3163 60.52 61.2121 60.2683 61.134C60.0166 61.0472 59.7476 60.9648 59.4612 60.8866C59.1834 60.7999 58.9187 60.6914 58.667 60.5612C58.4153 60.431 58.207 60.2531 58.0421 60.0274C57.8859 59.8017 57.8078 59.5023 57.8078 59.1291C57.8078 58.7559 57.8989 58.4348 58.0812 58.1657C58.2634 57.888 58.5151 57.6753 58.8363 57.5278C59.1661 57.3802 59.561 57.3065 60.021 57.3065C60.507 57.3065 60.9366 57.3932 61.3098 57.5668C61.6917 57.7317 62.0042 57.9834 62.2472 58.3219L61.4921 59.077C61.3185 58.8514 61.1015 58.6778 60.8412 58.5563C60.5895 58.4348 60.3031 58.374 59.9819 58.374C59.6434 58.374 59.3831 58.4348 59.2008 58.5563C59.0272 58.6691 58.9404 58.8297 58.9404 59.038C58.9404 59.2463 59.0185 59.4068 59.1748 59.5197C59.331 59.6325 59.5349 59.728 59.7866 59.8061C60.047 59.8842 60.3161 59.9666 60.5938 60.0534C60.8715 60.1315 61.1363 60.24 61.388 60.3789C61.6397 60.5178 61.8436 60.7044 61.9998 60.9387C62.1648 61.1731 62.2472 61.4812 62.2472 61.8631C62.2472 62.4446 62.0389 62.9046 61.6223 63.2431C61.2144 63.5815 60.6632 63.7508 59.9689 63.7508ZM67.5167 63.6206L64.6265 60.457L67.4907 57.4366H68.9097L65.7201 60.7695L65.7722 60.0925L69.0269 63.6206H67.5167ZM63.559 63.6206V54.3251H64.7307V63.6206H63.559ZM69.8271 63.6206V57.4366H70.9988V63.6206H69.8271ZM70.413 56.1999C70.196 56.1999 70.0181 56.1304 69.8792 55.9915C69.7403 55.844 69.6709 55.6617 69.6709 55.4448C69.6709 55.2365 69.7403 55.0629 69.8792 54.924C70.0181 54.7765 70.196 54.7027 70.413 54.7027C70.63 54.7027 70.8079 54.7765 70.9468 54.924C71.0856 55.0629 71.1551 55.2365 71.1551 55.4448C71.1551 55.6617 71.0856 55.844 70.9468 55.9915C70.8079 56.1304 70.63 56.1999 70.413 56.1999ZM72.7256 63.6206V54.3251H73.8973V63.6206H72.7256ZM75.6116 63.6206V54.3251H76.7833V63.6206H75.6116ZM81.3618 63.7508C80.7455 63.7508 80.1901 63.6119 79.6953 63.3342C79.2006 63.0478 78.8101 62.6615 78.5236 62.1755C78.2372 61.6895 78.094 61.1383 78.094 60.5221C78.094 59.9146 78.2329 59.3678 78.5106 58.8817C78.797 58.3957 79.1789 58.0138 79.6563 57.7361C80.1423 57.4497 80.6848 57.3065 81.2836 57.3065C81.8565 57.3065 82.3599 57.4366 82.7938 57.697C83.2365 57.9574 83.5793 58.3176 83.8223 58.7776C84.074 59.2376 84.1999 59.7583 84.1999 60.3399C84.1999 60.4266 84.1955 60.5221 84.1868 60.6263C84.1782 60.7217 84.1608 60.8346 84.1348 60.9648H78.9142V59.9883H83.5099L83.0802 60.3659C83.0802 59.9493 83.0065 59.5978 82.8589 59.3114C82.7114 59.0163 82.5031 58.7906 82.234 58.6344C81.965 58.4695 81.6395 58.387 81.2576 58.387C80.8584 58.387 80.5068 58.4738 80.2031 58.6474C79.8993 58.821 79.665 59.064 79.5001 59.3765C79.3351 59.6889 79.2527 60.0578 79.2527 60.4831C79.2527 60.917 79.3395 61.2989 79.5131 61.6287C79.6867 61.9499 79.934 62.2015 80.2551 62.3838C80.5763 62.5574 80.9451 62.6442 81.3618 62.6442C81.7089 62.6442 82.0257 62.5834 82.3121 62.4619C82.6072 62.3404 82.8589 62.1582 83.0672 61.9151L83.8223 62.6832C83.5272 63.0304 83.1627 63.2951 82.7287 63.4774C82.3034 63.6597 81.8478 63.7508 81.3618 63.7508ZM88.0942 63.7508C87.5214 63.7508 87.0093 63.6119 86.558 63.3342C86.1067 63.0478 85.7465 62.6615 85.4774 62.1755C85.2171 61.6895 85.0869 61.1427 85.0869 60.5351C85.0869 59.9276 85.2171 59.3808 85.4774 58.8948C85.7465 58.4087 86.1067 58.0225 86.558 57.7361C87.0093 57.4497 87.5214 57.3065 88.0942 57.3065C88.5542 57.3065 88.9708 57.4063 89.3441 57.6059C89.7173 57.7968 90.0167 58.0659 90.2424 58.4131C90.4767 58.7515 90.6069 59.1465 90.6329 59.5978V61.4595C90.6069 61.9021 90.481 62.297 90.2554 62.6442C90.0297 62.9914 89.7303 63.2648 89.3571 63.4644C88.9839 63.6553 88.5629 63.7508 88.0942 63.7508ZM88.2895 62.6442C88.6801 62.6442 89.0186 62.5531 89.305 62.3708C89.6001 62.1885 89.8301 61.9412 89.995 61.6287C90.1599 61.3076 90.2424 60.9431 90.2424 60.5351C90.2424 60.1099 90.1556 59.741 89.982 59.4285C89.8171 59.1161 89.5871 58.8687 89.292 58.6865C89.0056 58.5042 88.6671 58.4131 88.2765 58.4131C87.8859 58.4131 87.5431 58.5042 87.248 58.6865C86.9529 58.8687 86.7186 59.1204 86.545 59.4415C86.3801 59.754 86.2976 60.1142 86.2976 60.5221C86.2976 60.9387 86.3801 61.3076 86.545 61.6287C86.7186 61.9412 86.9529 62.1885 87.248 62.3708C87.5518 62.5531 87.899 62.6442 88.2895 62.6442ZM91.349 63.6206H90.1642V61.9542L90.3856 60.444L90.1642 58.9468V54.3251H91.349V63.6206ZM98.3927 63.7508C97.8285 63.7508 97.3164 63.6119 96.8564 63.3342C96.3964 63.0478 96.0319 62.6615 95.7629 62.1755C95.5025 61.6895 95.3723 61.1427 95.3723 60.5351C95.3723 59.9276 95.5025 59.3808 95.7629 58.8948C96.0319 58.4087 96.3921 58.0225 96.8434 57.7361C97.3034 57.4497 97.8198 57.3065 98.3927 57.3065C98.8613 57.3065 99.278 57.4063 99.6425 57.6059C100.016 57.7968 100.315 58.0659 100.541 58.4131C100.766 58.7515 100.892 59.1465 100.918 59.5978V61.4595C100.892 61.9021 100.766 62.297 100.541 62.6442C100.324 62.9914 100.029 63.2648 99.6555 63.4644C99.291 63.6553 98.87 63.7508 98.3927 63.7508ZM98.588 62.6442C99.1695 62.6442 99.6381 62.4489 99.994 62.0583C100.35 61.6591 100.528 61.1514 100.528 60.5351C100.528 60.1099 100.445 59.741 100.28 59.4285C100.124 59.1074 99.8985 58.86 99.6034 58.6865C99.3083 58.5042 98.9655 58.4131 98.5749 58.4131C98.1844 58.4131 97.8372 58.5042 97.5334 58.6865C97.2383 58.8687 97.004 59.1204 96.8304 59.4415C96.6655 59.754 96.583 60.1142 96.583 60.5221C96.583 60.9387 96.6655 61.3076 96.8304 61.6287C97.004 61.9412 97.2427 62.1885 97.5464 62.3708C97.8502 62.5531 98.1974 62.6442 98.588 62.6442ZM100.45 63.6206V61.9542L100.671 60.444L100.45 58.9468V57.4366H101.634V63.6206H100.45ZM107.715 63.6206V60.0144C107.715 59.5457 107.567 59.1595 107.272 58.8557C106.977 58.5519 106.595 58.4 106.126 58.4C105.814 58.4 105.536 58.4695 105.293 58.6083C105.05 58.7472 104.859 58.9382 104.72 59.1812C104.581 59.4242 104.512 59.7019 104.512 60.0144L104.03 59.741C104.03 59.2723 104.134 58.8557 104.343 58.4912C104.551 58.1266 104.842 57.8402 105.215 57.6319C105.588 57.4149 106.009 57.3065 106.478 57.3065C106.946 57.3065 107.359 57.4236 107.715 57.658C108.079 57.8923 108.366 58.2004 108.574 58.5823C108.782 58.9555 108.886 59.3548 108.886 59.78V63.6206H107.715ZM103.34 63.6206V57.4366H104.512V63.6206H103.34ZM113.089 63.7508C112.517 63.7508 112.005 63.6119 111.553 63.3342C111.102 63.0478 110.742 62.6615 110.473 62.1755C110.212 61.6895 110.082 61.1427 110.082 60.5351C110.082 59.9276 110.212 59.3808 110.473 58.8948C110.742 58.4087 111.102 58.0225 111.553 57.7361C112.005 57.4497 112.517 57.3065 113.089 57.3065C113.549 57.3065 113.966 57.4063 114.339 57.6059C114.712 57.7968 115.012 58.0659 115.238 58.4131C115.472 58.7515 115.602 59.1465 115.628 59.5978V61.4595C115.602 61.9021 115.476 62.297 115.251 62.6442C115.025 62.9914 114.725 63.2648 114.352 63.4644C113.979 63.6553 113.558 63.7508 113.089 63.7508ZM113.285 62.6442C113.675 62.6442 114.014 62.5531 114.3 62.3708C114.595 62.1885 114.825 61.9412 114.99 61.6287C115.155 61.3076 115.238 60.9431 115.238 60.5351C115.238 60.1099 115.151 59.741 114.977 59.4285C114.812 59.1161 114.582 58.8687 114.287 58.6865C114.001 58.5042 113.662 58.4131 113.272 58.4131C112.881 58.4131 112.538 58.5042 112.243 58.6865C111.948 58.8687 111.714 59.1204 111.54 59.4415C111.375 59.754 111.293 60.1142 111.293 60.5221C111.293 60.9387 111.375 61.3076 111.54 61.6287C111.714 61.9412 111.948 62.1885 112.243 62.3708C112.547 62.5531 112.894 62.6442 113.285 62.6442ZM116.344 63.6206H115.159V61.9542L115.381 60.444L115.159 58.9468V54.3251H116.344V63.6206ZM124.013 63.7508C123.544 63.7508 123.119 63.6553 122.737 63.4644C122.364 63.2648 122.064 62.9914 121.839 62.6442C121.613 62.297 121.487 61.9021 121.461 61.4595V59.5978C121.487 59.1465 121.613 58.7515 121.839 58.4131C122.073 58.0659 122.377 57.7968 122.75 57.6059C123.132 57.4063 123.553 57.3065 124.013 57.3065C124.577 57.3065 125.085 57.4497 125.536 57.7361C125.996 58.0225 126.356 58.4087 126.617 58.8948C126.877 59.3808 127.007 59.9276 127.007 60.5351C127.007 61.1427 126.877 61.6895 126.617 62.1755C126.356 62.6615 125.996 63.0478 125.536 63.3342C125.085 63.6119 124.577 63.7508 124.013 63.7508ZM123.817 62.6442C124.208 62.6442 124.551 62.5531 124.846 62.3708C125.141 62.1885 125.375 61.9412 125.549 61.6287C125.723 61.3076 125.809 60.9387 125.809 60.5221C125.809 60.1142 125.723 59.7497 125.549 59.4285C125.375 59.1074 125.141 58.86 124.846 58.6865C124.551 58.5042 124.212 58.4131 123.831 58.4131C123.44 58.4131 123.097 58.5042 122.802 58.6865C122.507 58.86 122.277 59.1074 122.112 59.4285C121.947 59.7497 121.865 60.1185 121.865 60.5351C121.865 60.9431 121.943 61.3076 122.099 61.6287C122.264 61.9412 122.494 62.1885 122.789 62.3708C123.093 62.5531 123.436 62.6442 123.817 62.6442ZM120.758 66.2114V57.4366H121.93V59.064L121.708 60.5612L121.93 62.0714V66.2114H120.758ZM128.335 63.6206V57.4366H129.507V63.6206H128.335ZM129.507 60.0925L129.065 59.8972C129.065 59.1074 129.247 58.4782 129.611 58.0095C129.976 57.5408 130.501 57.3065 131.187 57.3065C131.499 57.3065 131.781 57.3629 132.033 57.4757C132.285 57.5799 132.519 57.7578 132.736 58.0095L131.968 58.8036C131.838 58.6648 131.694 58.5649 131.538 58.5042C131.382 58.4434 131.2 58.4131 130.991 58.4131C130.557 58.4131 130.201 58.5519 129.924 58.8297C129.646 59.1074 129.507 59.5283 129.507 60.0925ZM136.182 63.7508C135.575 63.7508 135.028 63.6076 134.542 63.3212C134.056 63.0348 133.67 62.6485 133.383 62.1625C133.097 61.6678 132.954 61.1166 132.954 60.5091C132.954 59.9102 133.097 59.3721 133.383 58.8948C133.67 58.4087 134.056 58.0225 134.542 57.7361C135.028 57.4497 135.575 57.3065 136.182 57.3065C136.781 57.3065 137.324 57.4497 137.81 57.7361C138.305 58.0138 138.695 58.3957 138.982 58.8817C139.268 59.3678 139.411 59.9102 139.411 60.5091C139.411 61.1166 139.268 61.6678 138.982 62.1625C138.695 62.6485 138.305 63.0348 137.81 63.3212C137.324 63.6076 136.781 63.7508 136.182 63.7508ZM136.182 62.6182C136.573 62.6182 136.92 62.527 137.224 62.3448C137.528 62.1625 137.766 61.9151 137.94 61.6027C138.114 61.2815 138.2 60.917 138.2 60.5091C138.2 60.1099 138.109 59.754 137.927 59.4415C137.753 59.1291 137.515 58.8861 137.211 58.7125C136.916 58.5302 136.573 58.4391 136.182 58.4391C135.792 58.4391 135.445 58.5302 135.141 58.7125C134.837 58.8861 134.599 59.1291 134.425 59.4415C134.251 59.754 134.165 60.1099 134.165 60.5091C134.165 60.917 134.251 61.2815 134.425 61.6027C134.599 61.9151 134.837 62.1625 135.141 62.3448C135.445 62.527 135.792 62.6182 136.182 62.6182ZM141.426 63.6206V56.5123C141.426 56.0523 141.526 55.6531 141.725 55.3146C141.925 54.9674 142.198 54.694 142.546 54.4944C142.901 54.2948 143.314 54.1949 143.782 54.1949C144.138 54.1949 144.446 54.2557 144.707 54.3772C144.967 54.4987 145.206 54.6766 145.423 54.911L144.655 55.6661C144.542 55.5446 144.416 55.4534 144.277 55.3927C144.138 55.3232 143.969 55.2885 143.769 55.2885C143.396 55.2885 143.105 55.397 142.897 55.614C142.697 55.831 142.598 56.1304 142.598 56.5123V63.6206H141.426ZM139.903 58.5042V57.4366H144.563V58.5042H139.903ZM148.249 63.7508C147.632 63.7508 147.077 63.6119 146.582 63.3342C146.088 63.0478 145.697 62.6615 145.411 62.1755C145.124 61.6895 144.981 61.1383 144.981 60.5221C144.981 59.9146 145.12 59.3678 145.398 58.8817C145.684 58.3957 146.066 58.0138 146.543 57.7361C147.029 57.4497 147.572 57.3065 148.171 57.3065C148.743 57.3065 149.247 57.4366 149.681 57.697C150.123 57.9574 150.466 58.3176 150.709 58.7776C150.961 59.2376 151.087 59.7583 151.087 60.3399C151.087 60.4266 151.082 60.5221 151.074 60.6263C151.065 60.7217 151.048 60.8346 151.022 60.9648H145.801V59.9883H150.397L149.967 60.3659C149.967 59.9493 149.893 59.5978 149.746 59.3114C149.598 59.0163 149.39 58.7906 149.121 58.6344C148.852 58.4695 148.526 58.387 148.145 58.387C147.745 58.387 147.394 58.4738 147.09 58.6474C146.786 58.821 146.552 59.064 146.387 59.3765C146.222 59.6889 146.14 60.0578 146.14 60.4831C146.14 60.917 146.226 61.2989 146.4 61.6287C146.574 61.9499 146.821 62.2015 147.142 62.3838C147.463 62.5574 147.832 62.6442 148.249 62.6442C148.596 62.6442 148.913 62.5834 149.199 62.4619C149.494 62.3404 149.746 62.1582 149.954 61.9151L150.709 62.6832C150.414 63.0304 150.05 63.2951 149.616 63.4774C149.19 63.6597 148.735 63.7508 148.249 63.7508ZM154.33 63.7508C153.983 63.7508 153.653 63.7074 153.341 63.6206C153.037 63.5251 152.755 63.3949 152.495 63.23C152.234 63.0565 152.009 62.8525 151.818 62.6182L152.573 61.8631C152.798 62.1408 153.059 62.3491 153.354 62.488C153.649 62.6182 153.979 62.6832 154.343 62.6832C154.708 62.6832 154.99 62.6225 155.19 62.501C155.389 62.3708 155.489 62.1929 155.489 61.9672C155.489 61.7415 155.406 61.568 155.242 61.4465C155.085 61.3163 154.881 61.2121 154.63 61.134C154.378 61.0472 154.109 60.9648 153.823 60.8866C153.545 60.7999 153.28 60.6914 153.028 60.5612C152.777 60.431 152.568 60.2531 152.403 60.0274C152.247 59.8017 152.169 59.5023 152.169 59.1291C152.169 58.7559 152.26 58.4348 152.443 58.1657C152.625 57.888 152.876 57.6753 153.198 57.5278C153.527 57.3802 153.922 57.3065 154.382 57.3065C154.868 57.3065 155.298 57.3932 155.671 57.5668C156.053 57.7317 156.366 57.9834 156.609 58.3219L155.853 59.077C155.68 58.8514 155.463 58.6778 155.203 58.5563C154.951 58.4348 154.664 58.374 154.343 58.374C154.005 58.374 153.744 58.4348 153.562 58.5563C153.389 58.6691 153.302 58.8297 153.302 59.038C153.302 59.2463 153.38 59.4068 153.536 59.5197C153.692 59.6325 153.896 59.728 154.148 59.8061C154.408 59.8842 154.677 59.9666 154.955 60.0534C155.233 60.1315 155.498 60.24 155.749 60.3789C156.001 60.5178 156.205 60.7044 156.361 60.9387C156.526 61.1731 156.609 61.4812 156.609 61.8631C156.609 62.4446 156.4 62.9046 155.984 63.2431C155.576 63.5815 155.025 63.7508 154.33 63.7508ZM159.886 63.7508C159.539 63.7508 159.209 63.7074 158.897 63.6206C158.593 63.5251 158.311 63.3949 158.051 63.23C157.79 63.0565 157.564 62.8525 157.374 62.6182L158.129 61.8631C158.354 62.1408 158.615 62.3491 158.91 62.488C159.205 62.6182 159.535 62.6832 159.899 62.6832C160.264 62.6832 160.546 62.6225 160.745 62.501C160.945 62.3708 161.045 62.1929 161.045 61.9672C161.045 61.7415 160.962 61.568 160.797 61.4465C160.641 61.3163 160.437 61.2121 160.186 61.134C159.934 61.0472 159.665 60.9648 159.378 60.8866C159.101 60.7999 158.836 60.6914 158.584 60.5612C158.333 60.431 158.124 60.2531 157.959 60.0274C157.803 59.8017 157.725 59.5023 157.725 59.1291C157.725 58.7559 157.816 58.4348 157.998 58.1657C158.181 57.888 158.432 57.6753 158.754 57.5278C159.083 57.3802 159.478 57.3065 159.938 57.3065C160.424 57.3065 160.854 57.3932 161.227 57.5668C161.609 57.7317 161.921 57.9834 162.164 58.3219L161.409 59.077C161.236 58.8514 161.019 58.6778 160.758 58.5563C160.507 58.4348 160.22 58.374 159.899 58.374C159.561 58.374 159.3 58.4348 159.118 58.5563C158.944 58.6691 158.858 58.8297 158.858 59.038C158.858 59.2463 158.936 59.4068 159.092 59.5197C159.248 59.6325 159.452 59.728 159.704 59.8061C159.964 59.8842 160.233 59.9666 160.511 60.0534C160.789 60.1315 161.054 60.24 161.305 60.3789C161.557 60.5178 161.761 60.7044 161.917 60.9387C162.082 61.1731 162.164 61.4812 162.164 61.8631C162.164 62.4446 161.956 62.9046 161.54 63.2431C161.132 63.5815 160.581 63.7508 159.886 63.7508ZM163.489 63.6206V57.4366H164.661V63.6206H163.489ZM164.075 56.1999C163.858 56.1999 163.68 56.1304 163.541 55.9915C163.402 55.844 163.333 55.6617 163.333 55.4448C163.333 55.2365 163.402 55.0629 163.541 54.924C163.68 54.7765 163.858 54.7027 164.075 54.7027C164.292 54.7027 164.47 54.7765 164.609 54.924C164.748 55.0629 164.817 55.2365 164.817 55.4448C164.817 55.6617 164.748 55.844 164.609 55.9915C164.47 56.1304 164.292 56.1999 164.075 56.1999ZM169.213 63.7508C168.605 63.7508 168.058 63.6076 167.572 63.3212C167.086 63.0348 166.7 62.6485 166.414 62.1625C166.127 61.6678 165.984 61.1166 165.984 60.5091C165.984 59.9102 166.127 59.3721 166.414 58.8948C166.7 58.4087 167.086 58.0225 167.572 57.7361C168.058 57.4497 168.605 57.3065 169.213 57.3065C169.812 57.3065 170.354 57.4497 170.84 57.7361C171.335 58.0138 171.725 58.3957 172.012 58.8817C172.298 59.3678 172.441 59.9102 172.441 60.5091C172.441 61.1166 172.298 61.6678 172.012 62.1625C171.725 62.6485 171.335 63.0348 170.84 63.3212C170.354 63.6076 169.812 63.7508 169.213 63.7508ZM169.213 62.6182C169.603 62.6182 169.951 62.527 170.254 62.3448C170.558 62.1625 170.797 61.9151 170.97 61.6027C171.144 61.2815 171.231 60.917 171.231 60.5091C171.231 60.1099 171.14 59.754 170.957 59.4415C170.784 59.1291 170.545 58.8861 170.241 58.7125C169.946 58.5302 169.603 58.4391 169.213 58.4391C168.822 58.4391 168.475 58.5302 168.171 58.7125C167.867 58.8861 167.629 59.1291 167.455 59.4415C167.282 59.754 167.195 60.1099 167.195 60.5091C167.195 60.917 167.282 61.2815 167.455 61.6027C167.629 61.9151 167.867 62.1625 168.171 62.3448C168.475 62.527 168.822 62.6182 169.213 62.6182ZM178.136 63.6206V60.0144C178.136 59.5457 177.988 59.1595 177.693 58.8557C177.398 58.5519 177.016 58.4 176.548 58.4C176.235 58.4 175.957 58.4695 175.714 58.6083C175.471 58.7472 175.281 58.9382 175.142 59.1812C175.003 59.4242 174.933 59.7019 174.933 60.0144L174.452 59.741C174.452 59.2723 174.556 58.8557 174.764 58.4912C174.972 58.1266 175.263 57.8402 175.636 57.6319C176.01 57.4149 176.431 57.3065 176.899 57.3065C177.368 57.3065 177.78 57.4236 178.136 57.658C178.501 57.8923 178.787 58.2004 178.995 58.5823C179.204 58.9555 179.308 59.3548 179.308 59.78V63.6206H178.136ZM173.762 63.6206V57.4366H174.933V63.6206H173.762ZM183.524 63.7508C182.96 63.7508 182.448 63.6119 181.988 63.3342C181.528 63.0478 181.163 62.6615 180.894 62.1755C180.634 61.6895 180.503 61.1427 180.503 60.5351C180.503 59.9276 180.634 59.3808 180.894 58.8948C181.163 58.4087 181.523 58.0225 181.975 57.7361C182.435 57.4497 182.951 57.3065 183.524 57.3065C183.993 57.3065 184.409 57.4063 184.774 57.6059C185.147 57.7968 185.446 58.0659 185.672 58.4131C185.898 58.7515 186.023 59.1465 186.05 59.5978V61.4595C186.023 61.9021 185.898 62.297 185.672 62.6442C185.455 62.9914 185.16 63.2648 184.787 63.4644C184.422 63.6553 184.001 63.7508 183.524 63.7508ZM183.719 62.6442C184.301 62.6442 184.769 62.4489 185.125 62.0583C185.481 61.6591 185.659 61.1514 185.659 60.5351C185.659 60.1099 185.577 59.741 185.412 59.4285C185.255 59.1074 185.03 58.86 184.735 58.6865C184.44 58.5042 184.097 58.4131 183.706 58.4131C183.316 58.4131 182.968 58.5042 182.665 58.6865C182.37 58.8687 182.135 59.1204 181.962 59.4415C181.797 59.754 181.714 60.1142 181.714 60.5221C181.714 60.9387 181.797 61.3076 181.962 61.6287C182.135 61.9412 182.374 62.1885 182.678 62.3708C182.981 62.5531 183.329 62.6442 183.719 62.6442ZM185.581 63.6206V61.9542L185.802 60.444L185.581 58.9468V57.4366H186.766V63.6206H185.581ZM188.471 63.6206V54.3251H189.643V63.6206H188.471ZM16.0477 82.6206V76.4366H17.2194V82.6206H16.0477ZM17.2194 79.0925L16.7768 78.8972C16.7768 78.1074 16.959 77.4782 17.3236 77.0095C17.6881 76.5408 18.2132 76.3065 18.8989 76.3065C19.2113 76.3065 19.4934 76.3629 19.7451 76.4757C19.9968 76.5799 20.2311 76.7578 20.4481 77.0095L19.68 77.8036C19.5498 77.6648 19.4066 77.5649 19.2504 77.5042C19.0941 77.4434 18.9119 77.4131 18.7036 77.4131C18.2696 77.4131 17.9138 77.5519 17.636 77.8297C17.3583 78.1074 17.2194 78.5283 17.2194 79.0925ZM23.9338 82.7508C23.3176 82.7508 22.7621 82.6119 22.2674 82.3342C21.7727 82.0478 21.3821 81.6615 21.0957 81.1755C20.8093 80.6895 20.6661 80.1383 20.6661 79.5221C20.6661 78.9146 20.8049 78.3678 21.0827 77.8817C21.3691 77.3957 21.751 77.0138 22.2283 76.7361C22.7144 76.4497 23.2568 76.3065 23.8557 76.3065C24.4285 76.3065 24.9319 76.4366 25.3659 76.697C25.8085 76.9574 26.1513 77.3176 26.3944 77.7776C26.6461 78.2376 26.7719 78.7583 26.7719 79.3399C26.7719 79.4266 26.7676 79.5221 26.7589 79.6263C26.7502 79.7217 26.7329 79.8346 26.7068 79.9648H21.4863V78.9883H26.0819L25.6523 79.3659C25.6523 78.9493 25.5785 78.5978 25.431 78.3114C25.2834 78.0163 25.0751 77.7906 24.8061 77.6344C24.537 77.4695 24.2115 77.387 23.8296 77.387C23.4304 77.387 23.0789 77.4738 22.7751 77.6474C22.4713 77.821 22.237 78.064 22.0721 78.3765C21.9072 78.6889 21.8247 79.0578 21.8247 79.4831C21.8247 79.917 21.9115 80.2989 22.0851 80.6287C22.2587 80.9499 22.5061 81.2015 22.8272 81.3838C23.1483 81.5574 23.5172 81.6442 23.9338 81.6442C24.281 81.6442 24.5978 81.5834 24.8842 81.4619C25.1793 81.3404 25.431 81.1582 25.6393 80.9151L26.3944 81.6832C26.0993 82.0304 25.7347 82.2951 25.3008 82.4774C24.8755 82.6597 24.4198 82.7508 23.9338 82.7508ZM30.0153 82.7508C29.6682 82.7508 29.3384 82.7074 29.0259 82.6206C28.7221 82.5251 28.4401 82.3949 28.1797 82.23C27.9193 82.0565 27.6936 81.8525 27.5027 81.6182L28.2578 80.8631C28.4835 81.1408 28.7438 81.3491 29.0389 81.488C29.334 81.6182 29.6638 81.6832 30.0284 81.6832C30.3929 81.6832 30.675 81.6225 30.8746 81.501C31.0742 81.3708 31.174 81.1929 31.174 80.9672C31.174 80.7415 31.0916 80.568 30.9267 80.4465C30.7704 80.3163 30.5665 80.2121 30.3148 80.134C30.0631 80.0472 29.794 79.9648 29.5076 79.8866C29.2299 79.7999 28.9652 79.6914 28.7135 79.5612C28.4618 79.431 28.2535 79.2531 28.0885 79.0274C27.9323 78.8017 27.8542 78.5023 27.8542 78.1291C27.8542 77.7559 27.9453 77.4348 28.1276 77.1657C28.3099 76.888 28.5616 76.6753 28.8827 76.5278C29.2125 76.3802 29.6074 76.3065 30.0674 76.3065C30.5535 76.3065 30.9831 76.3932 31.3563 76.5668C31.7382 76.7317 32.0506 76.9834 32.2936 77.3219L31.5385 78.077C31.365 77.8514 31.148 77.6778 30.8876 77.5563C30.6359 77.4348 30.3495 77.374 30.0284 77.374C29.6899 77.374 29.4295 77.4348 29.2472 77.5563C29.0736 77.6691 28.9868 77.8297 28.9868 78.038C28.9868 78.2463 29.065 78.4068 29.2212 78.5197C29.3774 78.6325 29.5814 78.728 29.8331 78.8061C30.0935 78.8842 30.3625 78.9666 30.6402 79.0534C30.918 79.1315 31.1827 79.24 31.4344 79.3789C31.6861 79.5178 31.8901 79.7044 32.0463 79.9387C32.2112 80.1731 32.2936 80.4812 32.2936 80.8631C32.2936 81.4446 32.0853 81.9046 31.6687 82.2431C31.2608 82.5815 30.7097 82.7508 30.0153 82.7508ZM36.4305 82.7508C35.8229 82.7508 35.2761 82.6076 34.7901 82.3212C34.3041 82.0348 33.9178 81.6485 33.6314 81.1625C33.345 80.6678 33.2018 80.1166 33.2018 79.5091C33.2018 78.9102 33.345 78.3721 33.6314 77.8948C33.9178 77.4087 34.3041 77.0225 34.7901 76.7361C35.2761 76.4497 35.8229 76.3065 36.4305 76.3065C37.0294 76.3065 37.5718 76.4497 38.0578 76.7361C38.5526 77.0138 38.9431 77.3957 39.2295 77.8817C39.516 78.3678 39.6592 78.9102 39.6592 79.5091C39.6592 80.1166 39.516 80.6678 39.2295 81.1625C38.9431 81.6485 38.5526 82.0348 38.0578 82.3212C37.5718 82.6076 37.0294 82.7508 36.4305 82.7508ZM36.4305 81.6182C36.8211 81.6182 37.1682 81.527 37.472 81.3448C37.7758 81.1625 38.0145 80.9151 38.188 80.6027C38.3616 80.2815 38.4484 79.917 38.4484 79.5091C38.4484 79.1099 38.3573 78.754 38.175 78.4415C38.0014 78.1291 37.7628 77.8861 37.459 77.7125C37.1639 77.5302 36.8211 77.4391 36.4305 77.4391C36.0399 77.4391 35.6928 77.5302 35.389 77.7125C35.0852 77.8861 34.8465 78.1291 34.6729 78.4415C34.4994 78.754 34.4126 79.1099 34.4126 79.5091C34.4126 79.917 34.4994 80.2815 34.6729 80.6027C34.8465 80.9151 35.0852 81.1625 35.389 81.3448C35.6928 81.527 36.0399 81.6182 36.4305 81.6182ZM43.466 82.7508C42.9626 82.7508 42.5069 82.638 42.099 82.4123C41.6997 82.178 41.3873 81.8568 41.1616 81.4489C40.936 81.041 40.8231 80.568 40.8231 80.0299V76.4366H41.9948V79.9778C41.9948 80.3163 42.0512 80.6114 42.1641 80.8631C42.2856 81.1061 42.4592 81.2927 42.6848 81.4229C42.9105 81.5531 43.1752 81.6182 43.479 81.6182C43.939 81.6182 44.2992 81.4749 44.5596 81.1885C44.8199 80.8934 44.9501 80.4899 44.9501 79.9778V76.4366H46.1218V80.0299C46.1218 80.568 46.009 81.041 45.7833 81.4489C45.5577 81.8568 45.2452 82.178 44.846 82.4123C44.4554 82.638 43.9954 82.7508 43.466 82.7508ZM47.6922 82.6206V76.4366H48.8639V82.6206H47.6922ZM48.8639 79.0925L48.4213 78.8972C48.4213 78.1074 48.6035 77.4782 48.9681 77.0095C49.3326 76.5408 49.8577 76.3065 50.5433 76.3065C50.8558 76.3065 51.1379 76.3629 51.3896 76.4757C51.6413 76.5799 51.8756 76.7578 52.0926 77.0095L51.3245 77.8036C51.1943 77.6648 51.0511 77.5649 50.8949 77.5042C50.7386 77.4434 50.5564 77.4131 50.3481 77.4131C49.9141 77.4131 49.5583 77.5519 49.2805 77.8297C49.0028 78.1074 48.8639 78.5283 48.8639 79.0925ZM55.5392 82.7508C54.9317 82.7508 54.3806 82.6076 53.8858 82.3212C53.3998 82.0348 53.0136 81.6485 52.7272 81.1625C52.4494 80.6678 52.3106 80.121 52.3106 79.5221C52.3106 78.9146 52.4494 78.3678 52.7272 77.8817C53.0136 77.3957 53.3998 77.0138 53.8858 76.7361C54.3806 76.4497 54.9317 76.3065 55.5392 76.3065C56.0166 76.3065 56.4592 76.3976 56.8672 76.5799C57.2751 76.7534 57.6266 77.0095 57.9217 77.348L57.1406 78.1291C56.9496 77.9034 56.7153 77.7342 56.4375 77.6214C56.1685 77.4999 55.869 77.4391 55.5392 77.4391C55.1487 77.4391 54.8015 77.5302 54.4977 77.7125C54.194 77.8861 53.9553 78.1291 53.7817 78.4415C53.6081 78.754 53.5213 79.1142 53.5213 79.5221C53.5213 79.93 53.6081 80.2902 53.7817 80.6027C53.9553 80.9151 54.194 81.1625 54.4977 81.3448C54.8015 81.527 55.1487 81.6182 55.5392 81.6182C55.869 81.6182 56.1685 81.5617 56.4375 81.4489C56.7153 81.3274 56.954 81.1538 57.1536 80.9282L57.9217 81.7093C57.6353 82.0391 57.2838 82.2951 56.8672 82.4774C56.4592 82.6597 56.0166 82.7508 55.5392 82.7508ZM61.8207 82.7508C61.2045 82.7508 60.649 82.6119 60.1543 82.3342C59.6596 82.0478 59.269 81.6615 58.9826 81.1755C58.6962 80.6895 58.553 80.1383 58.553 79.5221C58.553 78.9146 58.6919 78.3678 58.9696 77.8817C59.256 77.3957 59.6379 77.0138 60.1153 76.7361C60.6013 76.4497 61.1438 76.3065 61.7426 76.3065C62.3155 76.3065 62.8189 76.4366 63.2528 76.697C63.6955 76.9574 64.0383 77.3176 64.2813 77.7776C64.533 78.2376 64.6589 78.7583 64.6589 79.3399C64.6589 79.4266 64.6545 79.5221 64.6458 79.6263C64.6372 79.7217 64.6198 79.8346 64.5938 79.9648H59.3732V78.9883H63.9689L63.5392 79.3659C63.5392 78.9493 63.4655 78.5978 63.3179 78.3114C63.1704 78.0163 62.9621 77.7906 62.693 77.6344C62.4239 77.4695 62.0985 77.387 61.7166 77.387C61.3173 77.387 60.9658 77.4738 60.6621 77.6474C60.3583 77.821 60.1239 78.064 59.959 78.3765C59.7941 78.6889 59.7117 79.0578 59.7117 79.4831C59.7117 79.917 59.7985 80.2989 59.9721 80.6287C60.1456 80.9499 60.393 81.2015 60.7141 81.3838C61.0353 81.5574 61.4041 81.6442 61.8207 81.6442C62.1679 81.6442 62.4847 81.5834 62.7711 81.4619C63.0662 81.3404 63.3179 81.1582 63.5262 80.9151L64.2813 81.6832C63.9862 82.0304 63.6217 82.2951 63.1877 82.4774C62.7624 82.6597 62.3068 82.7508 61.8207 82.7508ZM67.9023 82.7508C67.5551 82.7508 67.2253 82.7074 66.9128 82.6206C66.6091 82.5251 66.327 82.3949 66.0666 82.23C65.8062 82.0565 65.5806 81.8525 65.3896 81.6182L66.1447 80.8631C66.3704 81.1408 66.6308 81.3491 66.9259 81.488C67.221 81.6182 67.5508 81.6832 67.9153 81.6832C68.2798 81.6832 68.5619 81.6225 68.7615 81.501C68.9611 81.3708 69.061 81.1929 69.061 80.9672C69.061 80.7415 68.9785 80.568 68.8136 80.4465C68.6574 80.3163 68.4534 80.2121 68.2017 80.134C67.95 80.0472 67.681 79.9648 67.3945 79.8866C67.1168 79.7999 66.8521 79.6914 66.6004 79.5612C66.3487 79.431 66.1404 79.2531 65.9755 79.0274C65.8193 78.8017 65.7411 78.5023 65.7411 78.1291C65.7411 77.7559 65.8323 77.4348 66.0145 77.1657C66.1968 76.888 66.4485 76.6753 66.7696 76.5278C67.0994 76.3802 67.4944 76.3065 67.9544 76.3065C68.4404 76.3065 68.87 76.3932 69.2432 76.5668C69.6251 76.7317 69.9376 76.9834 70.1806 77.3219L69.4255 78.077C69.2519 77.8514 69.0349 77.6778 68.7745 77.5563C68.5228 77.4348 68.2364 77.374 67.9153 77.374C67.5768 77.374 67.3164 77.4348 67.1342 77.5563C66.9606 77.6691 66.8738 77.8297 66.8738 78.038C66.8738 78.2463 66.9519 78.4068 67.1081 78.5197C67.2644 78.6325 67.4683 78.728 67.72 78.8061C67.9804 78.8842 68.2494 78.9666 68.5272 79.0534C68.8049 79.1315 69.0696 79.24 69.3213 79.3789C69.573 79.5178 69.777 79.7044 69.9332 79.9387C70.0981 80.1731 70.1806 80.4812 70.1806 80.8631C70.1806 81.4446 69.9723 81.9046 69.5557 82.2431C69.1477 82.5815 68.5966 82.7508 67.9023 82.7508ZM75.1507 82.6206V73.8459H76.3224V82.6206H75.1507ZM73.6275 77.5042V76.4366H77.8456V77.5042H73.6275ZM81.6278 82.7508C81.0203 82.7508 80.4735 82.6076 79.9874 82.3212C79.5014 82.0348 79.1152 81.6485 78.8288 81.1625C78.5424 80.6678 78.3991 80.1166 78.3991 79.5091C78.3991 78.9102 78.5424 78.3721 78.8288 77.8948C79.1152 77.4087 79.5014 77.0225 79.9874 76.7361C80.4735 76.4497 81.0203 76.3065 81.6278 76.3065C82.2267 76.3065 82.7691 76.4497 83.2552 76.7361C83.7499 77.0138 84.1405 77.3957 84.4269 77.8817C84.7133 78.3678 84.8565 78.9102 84.8565 79.5091C84.8565 80.1166 84.7133 80.6678 84.4269 81.1625C84.1405 81.6485 83.7499 82.0348 83.2552 82.3212C82.7691 82.6076 82.2267 82.7508 81.6278 82.7508ZM81.6278 81.6182C82.0184 81.6182 82.3656 81.527 82.6693 81.3448C82.9731 81.1625 83.2118 80.9151 83.3854 80.6027C83.559 80.2815 83.6457 79.917 83.6457 79.5091C83.6457 79.1099 83.5546 78.754 83.3724 78.4415C83.1988 78.1291 82.9601 77.8861 82.6563 77.7125C82.3612 77.5302 82.0184 77.4391 81.6278 77.4391C81.2373 77.4391 80.8901 77.5302 80.5863 77.7125C80.2825 77.8861 80.0439 78.1291 79.8703 78.4415C79.6967 78.754 79.6099 79.1099 79.6099 79.5091C79.6099 79.917 79.6967 80.2815 79.8703 80.6027C80.0439 80.9151 80.2825 81.1625 80.5863 81.3448C80.8901 81.527 81.2373 81.6182 81.6278 81.6182ZM91.7489 82.7508C91.1327 82.7508 90.5772 82.6119 90.0825 82.3342C89.5877 82.0478 89.1972 81.6615 88.9108 81.1755C88.6244 80.6895 88.4811 80.1383 88.4811 79.5221C88.4811 78.9146 88.62 78.3678 88.8977 77.8817C89.1842 77.3957 89.566 77.0138 90.0434 76.7361C90.5294 76.4497 91.0719 76.3065 91.6708 76.3065C92.2436 76.3065 92.747 76.4366 93.181 76.697C93.6236 76.9574 93.9664 77.3176 94.2094 77.7776C94.4611 78.2376 94.587 78.7583 94.587 79.3399C94.587 79.4266 94.5827 79.5221 94.574 79.6263C94.5653 79.7217 94.5479 79.8346 94.5219 79.9648H89.3013V78.9883H93.897L93.4674 79.3659C93.4674 78.9493 93.3936 78.5978 93.246 78.3114C93.0985 78.0163 92.8902 77.7906 92.6211 77.6344C92.3521 77.4695 92.0266 77.387 91.6447 77.387C91.2455 77.387 90.894 77.4738 90.5902 77.6474C90.2864 77.821 90.0521 78.064 89.8872 78.3765C89.7223 78.6889 89.6398 79.0578 89.6398 79.4831C89.6398 79.917 89.7266 80.2989 89.9002 80.6287C90.0738 80.9499 90.3211 81.2015 90.6423 81.3838C90.9634 81.5574 91.3323 81.6442 91.7489 81.6442C92.096 81.6442 92.4128 81.5834 92.6993 81.4619C92.9944 81.3404 93.246 81.1582 93.4544 80.9151L94.2094 81.6832C93.9144 82.0304 93.5498 82.2951 93.1159 82.4774C92.6906 82.6597 92.2349 82.7508 91.7489 82.7508ZM95.8646 82.6206V73.3251H97.0363V82.6206H95.8646ZM101.615 82.7508C100.999 82.7508 100.443 82.6119 99.9483 82.3342C99.4536 82.0478 99.063 81.6615 98.7766 81.1755C98.4902 80.6895 98.347 80.1383 98.347 79.5221C98.347 78.9146 98.4859 78.3678 98.7636 77.8817C99.05 77.3957 99.4319 77.0138 99.9093 76.7361C100.395 76.4497 100.938 76.3065 101.537 76.3065C102.109 76.3065 102.613 76.4366 103.047 76.697C103.489 76.9574 103.832 77.3176 104.075 77.7776C104.327 78.2376 104.453 78.7583 104.453 79.3399C104.453 79.4266 104.449 79.5221 104.44 79.6263C104.431 79.7217 104.414 79.8346 104.388 79.9648H99.1672V78.9883H103.763L103.333 79.3659C103.333 78.9493 103.259 78.5978 103.112 78.3114C102.964 78.0163 102.756 77.7906 102.487 77.6344C102.218 77.4695 101.892 77.387 101.511 77.387C101.111 77.387 100.76 77.4738 100.456 77.6474C100.152 77.821 99.9179 78.064 99.753 78.3765C99.5881 78.6889 99.5057 79.0578 99.5057 79.4831C99.5057 79.917 99.5925 80.2989 99.7661 80.6287C99.9396 80.9499 100.187 81.2015 100.508 81.3838C100.829 81.5574 101.198 81.6442 101.615 81.6442C101.962 81.6442 102.279 81.5834 102.565 81.4619C102.86 81.3404 103.112 81.1582 103.32 80.9151L104.075 81.6832C103.78 82.0304 103.416 82.2951 102.982 82.4774C102.556 82.6597 102.101 82.7508 101.615 82.7508ZM107.751 82.6206L104.913 76.4366H106.215L108.493 81.6572H107.738L110.029 76.4366H111.279L108.441 82.6206H107.751ZM114.666 82.7508C114.102 82.7508 113.59 82.6119 113.13 82.3342C112.67 82.0478 112.306 81.6615 112.036 81.1755C111.776 80.6895 111.646 80.1427 111.646 79.5351C111.646 78.9276 111.776 78.3808 112.036 77.8948C112.306 77.4087 112.666 77.0225 113.117 76.7361C113.577 76.4497 114.093 76.3065 114.666 76.3065C115.135 76.3065 115.552 76.4063 115.916 76.6059C116.289 76.7968 116.589 77.0659 116.814 77.4131C117.04 77.7515 117.166 78.1465 117.192 78.5978V80.4595C117.166 80.9021 117.04 81.297 116.814 81.6442C116.597 81.9914 116.302 82.2648 115.929 82.4644C115.565 82.6553 115.144 82.7508 114.666 82.7508ZM114.862 81.6442C115.443 81.6442 115.912 81.4489 116.268 81.0583C116.623 80.6591 116.801 80.1514 116.801 79.5351C116.801 79.1099 116.719 78.741 116.554 78.4285C116.398 78.1074 116.172 77.86 115.877 77.6865C115.582 77.5042 115.239 77.4131 114.849 77.4131C114.458 77.4131 114.111 77.5042 113.807 77.6865C113.512 77.8687 113.278 78.1204 113.104 78.4415C112.939 78.754 112.857 79.1142 112.857 79.5221C112.857 79.9387 112.939 80.3076 113.104 80.6287C113.278 80.9412 113.516 81.1885 113.82 81.3708C114.124 81.5531 114.471 81.6442 114.862 81.6442ZM116.723 82.6206V80.9542L116.945 79.444L116.723 77.9468V76.4366H117.908V82.6206H116.723ZM120.539 82.6206V73.8459H121.71V82.6206H120.539ZM119.016 77.5042V76.4366H123.234V77.5042H119.016ZM127.055 82.7508C126.439 82.7508 125.883 82.6119 125.389 82.3342C124.894 82.0478 124.503 81.6615 124.217 81.1755C123.93 80.6895 123.787 80.1383 123.787 79.5221C123.787 78.9146 123.926 78.3678 124.204 77.8817C124.49 77.3957 124.872 77.0138 125.349 76.7361C125.835 76.4497 126.378 76.3065 126.977 76.3065C127.55 76.3065 128.053 76.4366 128.487 76.697C128.93 76.9574 129.272 77.3176 129.515 77.7776C129.767 78.2376 129.893 78.7583 129.893 79.3399C129.893 79.4266 129.889 79.5221 129.88 79.6263C129.871 79.7217 129.854 79.8346 129.828 79.9648H124.607V78.9883H129.203L128.773 79.3659C128.773 78.9493 128.7 78.5978 128.552 78.3114C128.405 78.0163 128.196 77.7906 127.927 77.6344C127.658 77.4695 127.333 77.387 126.951 77.387C126.552 77.387 126.2 77.4738 125.896 77.6474C125.592 77.821 125.358 78.064 125.193 78.3765C125.028 78.6889 124.946 79.0578 124.946 79.4831C124.946 79.917 125.033 80.2989 125.206 80.6287C125.38 80.9499 125.627 81.2015 125.948 81.3838C126.269 81.5574 126.638 81.6442 127.055 81.6442C127.402 81.6442 127.719 81.5834 128.005 81.4619C128.3 81.3404 128.552 81.1582 128.76 80.9151L129.515 81.6832C129.22 82.0304 128.856 82.2951 128.422 82.4774C127.997 82.6597 127.541 82.7508 127.055 82.7508ZM135.91 82.6727L133.228 76.4366H134.53L136.521 81.3187H136.105L138.201 76.4366H139.503L136.613 82.6727H135.91ZM134.139 85.2114L135.962 81.4749L136.613 82.6727L135.441 85.2114H134.139ZM143.048 82.7508C142.44 82.7508 141.894 82.6076 141.408 82.3212C140.921 82.0348 140.535 81.6485 140.249 81.1625C139.962 80.6678 139.819 80.1166 139.819 79.5091C139.819 78.9102 139.962 78.3721 140.249 77.8948C140.535 77.4087 140.921 77.0225 141.408 76.7361C141.894 76.4497 142.44 76.3065 143.048 76.3065C143.647 76.3065 144.189 76.4497 144.675 76.7361C145.17 77.0138 145.561 77.3957 145.847 77.8817C146.133 78.3678 146.277 78.9102 146.277 79.5091C146.277 80.1166 146.133 80.6678 145.847 81.1625C145.561 81.6485 145.17 82.0348 144.675 82.3212C144.189 82.6076 143.647 82.7508 143.048 82.7508ZM143.048 81.6182C143.438 81.6182 143.786 81.527 144.089 81.3448C144.393 81.1625 144.632 80.9151 144.805 80.6027C144.979 80.2815 145.066 79.917 145.066 79.5091C145.066 79.1099 144.975 78.754 144.792 78.4415C144.619 78.1291 144.38 77.8861 144.076 77.7125C143.781 77.5302 143.438 77.4391 143.048 77.4391C142.657 77.4391 142.31 77.5302 142.006 77.7125C141.703 77.8861 141.464 78.1291 141.29 78.4415C141.117 78.754 141.03 79.1099 141.03 79.5091C141.03 79.917 141.117 80.2815 141.29 80.6027C141.464 80.9151 141.703 81.1625 142.006 81.3448C142.31 81.527 142.657 81.6182 143.048 81.6182ZM150.083 82.7508C149.58 82.7508 149.124 82.638 148.716 82.4123C148.317 82.178 148.005 81.8568 147.779 81.4489C147.553 81.041 147.441 80.568 147.441 80.0299V76.4366H148.612V79.9778C148.612 80.3163 148.669 80.6114 148.781 80.8631C148.903 81.1061 149.077 81.2927 149.302 81.4229C149.528 81.5531 149.793 81.6182 150.096 81.6182C150.556 81.6182 150.917 81.4749 151.177 81.1885C151.437 80.8934 151.568 80.4899 151.568 79.9778V76.4366H152.739V80.0299C152.739 80.568 152.626 81.041 152.401 81.4489C152.175 81.8568 151.863 82.178 151.463 82.4123C151.073 82.638 150.613 82.7508 150.083 82.7508ZM154.31 82.6206V76.4366H155.481V82.6206H154.31ZM155.481 79.0925L155.039 78.8972C155.039 78.1074 155.221 77.4782 155.585 77.0095C155.95 76.5408 156.475 76.3065 157.161 76.3065C157.473 76.3065 157.755 76.3629 158.007 76.4757C158.259 76.5799 158.493 76.7578 158.71 77.0095L157.942 77.8036C157.812 77.6648 157.668 77.5649 157.512 77.5042C157.356 77.4434 157.174 77.4131 156.965 77.4131C156.532 77.4131 156.176 77.5519 155.898 77.8297C155.62 78.1074 155.481 78.5283 155.481 79.0925ZM18.8728 101.751C18.2653 101.751 17.7185 101.608 17.2324 101.321C16.7464 101.035 16.3602 100.649 16.0738 100.162C15.7873 99.6678 15.6441 99.1166 15.6441 98.5091C15.6441 97.9102 15.7873 97.3721 16.0738 96.8948C16.3602 96.4087 16.7464 96.0225 17.2324 95.7361C17.7185 95.4497 18.2653 95.3065 18.8728 95.3065C19.4717 95.3065 20.0141 95.4497 20.5002 95.7361C20.9949 96.0138 21.3855 96.3957 21.6719 96.8817C21.9583 97.3678 22.1015 97.9102 22.1015 98.5091C22.1015 99.1166 21.9583 99.6678 21.6719 100.162C21.3855 100.649 20.9949 101.035 20.5002 101.321C20.0141 101.608 19.4717 101.751 18.8728 101.751ZM18.8728 100.618C19.2634 100.618 19.6106 100.527 19.9143 100.345C20.2181 100.162 20.4568 99.9151 20.6304 99.6027C20.8039 99.2815 20.8907 98.917 20.8907 98.5091C20.8907 98.1099 20.7996 97.754 20.6173 97.4415C20.4438 97.1291 20.2051 96.8861 19.9013 96.7125C19.6062 96.5302 19.2634 96.4391 18.8728 96.4391C18.4823 96.4391 18.1351 96.5302 17.8313 96.7125C17.5275 96.8861 17.2889 97.1291 17.1153 97.4415C16.9417 97.754 16.8549 98.1099 16.8549 98.5091C16.8549 98.917 16.9417 99.2815 17.1153 99.6027C17.2889 99.9151 17.5275 100.162 17.8313 100.345C18.1351 100.527 18.4823 100.618 18.8728 100.618ZM26.6764 101.751C26.2077 101.751 25.7824 101.655 25.4006 101.464C25.0274 101.265 24.7279 100.991 24.5023 100.644C24.2766 100.297 24.1507 99.9021 24.1247 99.4595V97.5978C24.1507 97.1465 24.2766 96.7515 24.5023 96.4131C24.7366 96.0659 25.0404 95.7968 25.4136 95.6059C25.7955 95.4063 26.2164 95.3065 26.6764 95.3065C27.2406 95.3065 27.7483 95.4497 28.1996 95.7361C28.6596 96.0225 29.0198 96.4087 29.2802 96.8948C29.5406 97.3808 29.6707 97.9276 29.6707 98.5351C29.6707 99.1427 29.5406 99.6895 29.2802 100.176C29.0198 100.662 28.6596 101.048 28.1996 101.334C27.7483 101.612 27.2406 101.751 26.6764 101.751ZM26.4811 100.644C26.8717 100.644 27.2145 100.553 27.5096 100.371C27.8047 100.189 28.039 99.9412 28.2126 99.6287C28.3862 99.3076 28.473 98.9387 28.473 98.5221C28.473 98.1142 28.3862 97.7497 28.2126 97.4285C28.039 97.1074 27.8047 96.86 27.5096 96.6865C27.2145 96.5042 26.876 96.4131 26.4941 96.4131C26.1036 96.4131 25.7607 96.5042 25.4657 96.6865C25.1706 96.86 24.9406 97.1074 24.7757 97.4285C24.6107 97.7497 24.5283 98.1185 24.5283 98.5351C24.5283 98.9431 24.6064 99.3076 24.7626 99.6287C24.9275 99.9412 25.1575 100.189 25.4526 100.371C25.7564 100.553 26.0992 100.644 26.4811 100.644ZM23.4217 104.211V95.4366H24.5934V97.064L24.3721 98.5612L24.5934 100.071V104.211H23.4217ZM33.8632 101.751C33.247 101.751 32.6915 101.612 32.1968 101.334C31.7021 101.048 31.3115 100.662 31.0251 100.176C30.7387 99.6895 30.5955 99.1383 30.5955 98.5221C30.5955 97.9146 30.7344 97.3678 31.0121 96.8817C31.2985 96.3957 31.6804 96.0138 32.1578 95.7361C32.6438 95.4497 33.1862 95.3065 33.7851 95.3065C34.3579 95.3065 34.8613 95.4366 35.2953 95.697C35.7379 95.9574 36.0808 96.3176 36.3238 96.7776C36.5755 97.2376 36.7013 97.7583 36.7013 98.3399C36.7013 98.4266 36.697 98.5221 36.6883 98.6263C36.6796 98.7217 36.6623 98.8346 36.6362 98.9648H31.4157V97.9883H36.0113L35.5817 98.3659C35.5817 97.9493 35.5079 97.5978 35.3604 97.3114C35.2129 97.0163 35.0045 96.7906 34.7355 96.6344C34.4664 96.4695 34.141 96.387 33.7591 96.387C33.3598 96.387 33.0083 96.4738 32.7045 96.6474C32.4008 96.821 32.1664 97.064 32.0015 97.3765C31.8366 97.6889 31.7542 98.0578 31.7542 98.4831C31.7542 98.917 31.841 99.2989 32.0145 99.6287C32.1881 99.9499 32.4355 100.202 32.7566 100.384C33.0778 100.557 33.4466 100.644 33.8632 100.644C34.2104 100.644 34.5272 100.583 34.8136 100.462C35.1087 100.34 35.3604 100.158 35.5687 99.9151L36.3238 100.683C36.0287 101.03 35.6642 101.295 35.2302 101.477C34.8049 101.66 34.3493 101.751 33.8632 101.751ZM37.9789 101.621V95.4366H39.1506V101.621H37.9789ZM39.1506 98.0925L38.708 97.8972C38.708 97.1074 38.8902 96.4782 39.2548 96.0095C39.6193 95.5408 40.1444 95.3065 40.8301 95.3065C41.1425 95.3065 41.4246 95.3629 41.6763 95.4757C41.928 95.5799 42.1623 95.7578 42.3793 96.0095L41.6112 96.8036C41.481 96.6648 41.3378 96.5649 41.1816 96.5042C41.0253 96.4434 40.8431 96.4131 40.6348 96.4131C40.2008 96.4131 39.845 96.5519 39.5672 96.8297C39.2895 97.1074 39.1506 97.5283 39.1506 98.0925ZM45.6307 101.751C45.0665 101.751 44.5544 101.612 44.0944 101.334C43.6344 101.048 43.2699 100.662 43.0008 100.176C42.7405 99.6895 42.6103 99.1427 42.6103 98.5351C42.6103 97.9276 42.7405 97.3808 43.0008 96.8948C43.2699 96.4087 43.6301 96.0225 44.0814 95.7361C44.5414 95.4497 45.0578 95.3065 45.6307 95.3065C46.0993 95.3065 46.5159 95.4063 46.8805 95.6059C47.2537 95.7968 47.5531 96.0659 47.7788 96.4131C48.0044 96.7515 48.1303 97.1465 48.1563 97.5978V99.4595C48.1303 99.9021 48.0044 100.297 47.7788 100.644C47.5618 100.991 47.2667 101.265 46.8935 101.464C46.529 101.655 46.108 101.751 45.6307 101.751ZM45.8259 100.644C46.4075 100.644 46.8761 100.449 47.232 100.058C47.5878 99.6591 47.7658 99.1514 47.7658 98.5351C47.7658 98.1099 47.6833 97.741 47.5184 97.4285C47.3622 97.1074 47.1365 96.86 46.8414 96.6865C46.5463 96.5042 46.2035 96.4131 45.8129 96.4131C45.4224 96.4131 45.0752 96.5042 44.7714 96.6865C44.4763 96.8687 44.242 97.1204 44.0684 97.4415C43.9035 97.754 43.821 98.1142 43.821 98.5221C43.821 98.9387 43.9035 99.3076 44.0684 99.6287C44.242 99.9412 44.4807 100.189 44.7844 100.371C45.0882 100.553 45.4354 100.644 45.8259 100.644ZM47.6876 101.621V99.9542L47.909 98.444L47.6876 96.9468V95.4366H48.8724V101.621H47.6876ZM51.5032 101.621V92.8459H52.6749V101.621H51.5032ZM49.98 96.5042V95.4366H54.1981V96.5042H49.98ZM55.3589 101.621V95.4366H56.5306V101.621H55.3589ZM55.9448 94.1999C55.7278 94.1999 55.5498 94.1304 55.411 93.9915C55.2721 93.844 55.2027 93.6617 55.2027 93.4448C55.2027 93.2365 55.2721 93.0629 55.411 92.924C55.5498 92.7765 55.7278 92.7027 55.9448 92.7027C56.1617 92.7027 56.3397 92.7765 56.4785 92.924C56.6174 93.0629 56.6868 93.2365 56.6868 93.4448C56.6868 93.6617 56.6174 93.844 56.4785 93.9915C56.3397 94.1304 56.1617 94.1999 55.9448 94.1999ZM61.0824 101.751C60.4749 101.751 59.9281 101.608 59.442 101.321C58.956 101.035 58.5698 100.649 58.2834 100.162C57.997 99.6678 57.8537 99.1166 57.8537 98.5091C57.8537 97.9102 57.997 97.3721 58.2834 96.8948C58.5698 96.4087 58.956 96.0225 59.442 95.7361C59.9281 95.4497 60.4749 95.3065 61.0824 95.3065C61.6813 95.3065 62.2237 95.4497 62.7098 95.7361C63.2045 96.0138 63.5951 96.3957 63.8815 96.8817C64.1679 97.3678 64.3111 97.9102 64.3111 98.5091C64.3111 99.1166 64.1679 99.6678 63.8815 100.162C63.5951 100.649 63.2045 101.035 62.7098 101.321C62.2237 101.608 61.6813 101.751 61.0824 101.751ZM61.0824 100.618C61.473 100.618 61.8202 100.527 62.1239 100.345C62.4277 100.162 62.6664 99.9151 62.84 99.6027C63.0136 99.2815 63.1004 98.917 63.1004 98.5091C63.1004 98.1099 63.0092 97.754 62.827 97.4415C62.6534 97.1291 62.4147 96.8861 62.1109 96.7125C61.8158 96.5302 61.473 96.4391 61.0824 96.4391C60.6919 96.4391 60.3447 96.5302 60.0409 96.7125C59.7371 96.8861 59.4985 97.1291 59.3249 97.4415C59.1513 97.754 59.0645 98.1099 59.0645 98.5091C59.0645 98.917 59.1513 99.2815 59.3249 99.6027C59.4985 99.9151 59.7371 100.162 60.0409 100.345C60.3447 100.527 60.6919 100.618 61.0824 100.618ZM70.0056 101.621V98.0144C70.0056 97.5457 69.8581 97.1595 69.563 96.8557C69.2679 96.5519 68.886 96.4 68.4173 96.4C68.1049 96.4 67.8272 96.4695 67.5841 96.6083C67.3411 96.7472 67.1502 96.9382 67.0113 97.1812C66.8724 97.4242 66.803 97.7019 66.803 98.0144L66.3213 97.741C66.3213 97.2723 66.4255 96.8557 66.6338 96.4912C66.8421 96.1266 67.1328 95.8402 67.506 95.6319C67.8792 95.4149 68.3002 95.3065 68.7688 95.3065C69.2375 95.3065 69.6498 95.4236 70.0056 95.658C70.3702 95.8923 70.6566 96.2004 70.8649 96.5823C71.0732 96.9555 71.1773 97.3548 71.1773 97.78V101.621H70.0056ZM65.6313 101.621V95.4366H66.803V101.621H65.6313ZM74.7296 101.751C74.3824 101.751 74.0526 101.707 73.7401 101.621C73.4363 101.525 73.1543 101.395 72.8939 101.23C72.6335 101.056 72.4079 100.852 72.2169 100.618L72.972 99.8631C73.1977 100.141 73.458 100.349 73.7531 100.488C74.0482 100.618 74.378 100.683 74.7426 100.683C75.1071 100.683 75.3892 100.622 75.5888 100.501C75.7884 100.371 75.8882 100.193 75.8882 99.9672C75.8882 99.7415 75.8058 99.568 75.6409 99.4465C75.4846 99.3163 75.2807 99.2121 75.029 99.134C74.7773 99.0472 74.5082 98.9648 74.2218 98.8866C73.9441 98.7999 73.6794 98.6914 73.4277 98.5612C73.176 98.431 72.9677 98.2531 72.8028 98.0274C72.6465 97.8017 72.5684 97.5023 72.5684 97.1291C72.5684 96.7559 72.6596 96.4348 72.8418 96.1657C73.0241 95.888 73.2758 95.6753 73.5969 95.5278C73.9267 95.3802 74.3216 95.3065 74.7816 95.3065C75.2677 95.3065 75.6973 95.3932 76.0705 95.5668C76.4524 95.7317 76.7648 95.9834 77.0079 96.3219L76.2528 97.077C76.0792 96.8514 75.8622 96.6778 75.6018 96.5563C75.3501 96.4348 75.0637 96.374 74.7426 96.374C74.4041 96.374 74.1437 96.4348 73.9614 96.5563C73.7879 96.6691 73.7011 96.8297 73.7011 97.038C73.7011 97.2463 73.7792 97.4068 73.9354 97.5197C74.0916 97.6325 74.2956 97.728 74.5473 97.8061C74.8077 97.8842 75.0767 97.9666 75.3545 98.0534C75.6322 98.1315 75.8969 98.24 76.1486 98.3789C76.4003 98.5178 76.6043 98.7044 76.7605 98.9387C76.9254 99.1731 77.0079 99.4812 77.0079 99.8631C77.0079 100.445 76.7996 100.905 76.383 101.243C75.975 101.582 75.4239 101.751 74.7296 101.751ZM79.3481 101.751C79.1051 101.751 78.9011 101.668 78.7362 101.503C78.58 101.33 78.5019 101.126 78.5019 100.892C78.5019 100.649 78.58 100.449 78.7362 100.293C78.9011 100.128 79.1051 100.045 79.3481 100.045C79.5911 100.045 79.7907 100.128 79.947 100.293C80.1119 100.449 80.1943 100.649 80.1943 100.892C80.1943 101.126 80.1119 101.33 79.947 101.503C79.7907 101.668 79.5911 101.751 79.3481 101.751Z" fill="#7D7D7D"/>
</svg>
