<svg width="230" height="139" viewBox="0 0 230 139" fill="none" xmlns="http://www.w3.org/2000/svg">
<rect x="10.8784" y="1.12153" width="218.604" height="136.757" rx="8.80631" fill="white" stroke="black" stroke-width="1.03604"/>
<path d="M1.09924e-07 68.8755L13.827 60.8925L13.827 76.8585L1.09924e-07 68.8755Z" fill="white"/>
<path d="M100.719 110.883V99.2792H102.625V110.883H100.719ZM102.028 105.91V104.169H107.93V105.91H102.028ZM102.028 101.02V99.2792H108.211V101.02H102.028ZM109.859 110.883V98.9477H111.683V110.883H109.859ZM113.729 110.883V102.926H115.552V110.883H113.729ZM114.64 101.467C114.331 101.467 114.071 101.362 113.861 101.152C113.662 100.942 113.563 100.683 113.563 100.373C113.563 100.064 113.662 99.8041 113.861 99.5942C114.071 99.3842 114.331 99.2792 114.64 99.2792C114.961 99.2792 115.22 99.3842 115.419 99.5942C115.618 99.8041 115.718 100.064 115.718 100.373C115.718 100.683 115.618 100.942 115.419 101.152C115.22 101.362 114.961 101.467 114.64 101.467ZM120.912 114.364C120.073 114.364 119.338 114.209 118.708 113.9C118.078 113.601 117.569 113.176 117.183 112.623L118.376 111.43C118.697 111.828 119.061 112.126 119.47 112.325C119.879 112.524 120.371 112.623 120.946 112.623C121.664 112.623 122.233 112.435 122.653 112.06C123.073 111.695 123.283 111.192 123.283 110.551V108.595L123.598 106.838L123.283 105.064V102.926H125.106V110.551C125.106 111.314 124.929 111.977 124.576 112.54C124.222 113.115 123.73 113.563 123.101 113.883C122.471 114.204 121.741 114.364 120.912 114.364ZM120.83 110.717C120.122 110.717 119.481 110.546 118.907 110.203C118.343 109.85 117.896 109.369 117.564 108.761C117.243 108.153 117.083 107.474 117.083 106.722C117.083 105.971 117.243 105.297 117.564 104.7C117.896 104.103 118.343 103.633 118.907 103.291C119.481 102.937 120.122 102.76 120.83 102.76C121.459 102.76 122.012 102.887 122.487 103.142C122.962 103.396 123.333 103.749 123.598 104.202C123.863 104.644 123.996 105.164 123.996 105.761V107.717C123.996 108.302 123.858 108.822 123.581 109.275C123.316 109.728 122.946 110.082 122.471 110.336C121.995 110.59 121.448 110.717 120.83 110.717ZM121.194 108.993C121.636 108.993 122.023 108.899 122.355 108.711C122.686 108.523 122.94 108.264 123.117 107.932C123.305 107.59 123.399 107.192 123.399 106.739C123.399 106.286 123.305 105.893 123.117 105.562C122.94 105.219 122.686 104.954 122.355 104.766C122.023 104.578 121.636 104.484 121.194 104.484C120.752 104.484 120.36 104.578 120.017 104.766C119.686 104.954 119.426 105.219 119.238 105.562C119.05 105.893 118.956 106.286 118.956 106.739C118.956 107.181 119.05 107.573 119.238 107.916C119.426 108.258 119.686 108.523 120.017 108.711C120.36 108.899 120.752 108.993 121.194 108.993ZM132.586 110.883V106.291C132.586 105.761 132.414 105.324 132.072 104.982C131.74 104.639 131.309 104.468 130.779 104.468C130.425 104.468 130.11 104.545 129.834 104.7C129.558 104.854 129.342 105.07 129.187 105.346C129.033 105.623 128.955 105.937 128.955 106.291L128.243 105.893C128.243 105.285 128.375 104.749 128.64 104.285C128.906 103.81 129.27 103.44 129.734 103.175C130.21 102.898 130.74 102.76 131.326 102.76C131.923 102.76 132.453 102.893 132.917 103.158C133.381 103.423 133.746 103.794 134.011 104.269C134.276 104.733 134.409 105.274 134.409 105.893V110.883H132.586ZM127.132 110.883V98.9477H128.955V110.883H127.132ZM137.375 110.883V99.6107H139.198V110.883H137.375ZM135.469 104.584V102.926H141.105V104.584H135.469Z" fill="black"/>
<path d="M76.4832 47.0038C76.4832 53.9053 64.531 65.5499 64.531 65.5499C64.531 65.5499 52.5842 53.9053 52.5842 47.0038C52.5842 40.1023 57.9371 34.512 64.5364 34.512C71.1357 34.5066 76.4832 40.1023 76.4832 47.0038Z" fill="#017836"/>
<path d="M76.4832 47.0038C76.4832 53.9053 64.531 65.5499 64.531 65.5499C64.531 65.5499 52.5842 53.9053 52.5842 47.0038C52.5842 40.1023 57.9371 34.512 64.5364 34.512C71.1357 34.5066 76.4832 40.1023 76.4832 47.0038Z" fill="url(#paint0_linear_1180_103)"/>
<path d="M76.4832 47.0038C76.4832 53.9053 64.531 65.5499 64.531 65.5499C64.531 65.5499 52.5842 53.9053 52.5842 47.0038C52.5842 40.1023 57.9371 34.512 64.5364 34.512C71.1357 34.5066 76.4832 40.1023 76.4832 47.0038Z" fill="#064372"/>
<path d="M65.1192 43.7931V42.8812C65.1192 42.7247 64.9897 42.5952 64.8332 42.5952H62.0651C61.9086 42.5952 61.7791 42.7247 61.7791 42.8812V44.3543C61.7791 44.8831 61.3474 45.3148 60.8186 45.3148H59.394C59.2375 45.3148 59.108 45.4443 59.108 45.6008V48.3689C59.108 48.5254 59.2375 48.6549 59.394 48.6549H60.2304C60.484 48.6549 60.8779 48.86 60.8779 49.1082L60.9265 51.0022C60.9265 51.4717 61.0668 51.8494 61.5362 51.8494H62.1352C62.3402 51.8494 62.5237 51.9195 62.6694 51.8008H64.6983C64.9357 51.8008 65.13 51.6066 65.13 51.3691V49.5507C65.13 49.0542 65.5347 48.6495 66.0311 48.6495H67.8981C68.0546 48.6495 68.1841 48.52 68.1841 48.3635V45.1259C68.1841 44.7752 67.9035 44.4946 67.5528 44.4946H65.8423C65.4376 44.5054 65.1192 44.187 65.1192 43.7931Z" fill="white"/>
<path d="M64.5256 52.2757H61.5254C61.2988 52.2757 61.083 52.184 60.9211 52.0221C60.7592 51.8602 60.6675 51.6444 60.6675 51.4177V49.4914C60.6675 49.378 60.6243 49.2701 60.5434 49.1892C60.4624 49.1082 60.3545 49.0651 60.2412 49.0651H58.3148C57.84 49.0651 57.4568 48.6819 57.4568 48.2071V45.2069C57.4568 44.9803 57.5486 44.7644 57.7105 44.6026C57.8723 44.4407 58.0882 44.3489 58.3148 44.3489H58.3526V44.7806H58.3148C58.2015 44.7806 58.0936 44.8238 58.0126 44.9047C57.9317 44.9857 57.8885 45.0936 57.8885 45.2069V48.2071C57.8885 48.4445 58.0774 48.6334 58.3148 48.6334H60.2412C60.4732 48.6334 60.6837 48.7251 60.8509 48.887C61.0128 49.0489 61.1046 49.2647 61.1046 49.4967V51.4231C61.1046 51.6606 61.2934 51.8494 61.5308 51.8494H64.531C64.7685 51.8494 64.9573 51.6606 64.9573 51.4231V49.4967C64.9573 49.2647 65.0491 49.0543 65.2109 48.887C65.3728 48.7251 65.5887 48.6334 65.8207 48.6334H67.7471C67.8604 48.6334 67.9683 48.5902 68.0492 48.5093C68.1302 48.4283 68.1733 48.3204 68.1733 48.2071V45.2069C68.1733 44.9695 67.9845 44.7806 67.7471 44.7806H65.8207C65.3458 44.7806 64.9627 44.3975 64.9627 43.9227V41.9963C64.9627 41.7589 64.7739 41.57 64.5364 41.57H61.5362C61.2988 41.57 61.11 41.7589 61.11 41.9963V43.9227C61.11 44.1547 61.0182 44.3651 60.8563 44.5324C60.6945 44.6943 60.4786 44.786 60.2466 44.786H59.7663V44.3543H60.2466C60.3599 44.3543 60.4678 44.3112 60.5488 44.2302C60.6297 44.1493 60.6729 44.0414 60.6729 43.9281V42.0017C60.6729 41.5268 61.056 41.1437 61.5308 41.1437H64.531C65.0059 41.1437 65.389 41.5268 65.389 42.0017V43.9281C65.389 44.1655 65.5833 44.3543 65.8153 44.3543H67.7417C68.2165 44.3543 68.5996 44.7375 68.5996 45.2123V48.2125C68.5996 48.4391 68.5079 48.655 68.346 48.8169C68.1841 48.9787 67.9683 49.0705 67.7417 49.0705H65.8153C65.702 49.0705 65.594 49.1136 65.5131 49.1946C65.4322 49.2755 65.389 49.3834 65.389 49.4967V51.4231C65.3836 51.8872 64.9951 52.2757 64.5256 52.2757Z" fill="#017836"/>
<path d="M64.5256 52.2757H61.5254C61.2988 52.2757 61.083 52.184 60.9211 52.0221C60.7592 51.8602 60.6675 51.6444 60.6675 51.4177V49.4914C60.6675 49.378 60.6243 49.2701 60.5434 49.1892C60.4624 49.1082 60.3545 49.0651 60.2412 49.0651H58.3148C57.84 49.0651 57.4568 48.6819 57.4568 48.2071V45.2069C57.4568 44.9803 57.5486 44.7644 57.7105 44.6026C57.8723 44.4407 58.0882 44.3489 58.3148 44.3489H58.3526V44.7806H58.3148C58.2015 44.7806 58.0936 44.8238 58.0126 44.9047C57.9317 44.9857 57.8885 45.0936 57.8885 45.2069V48.2071C57.8885 48.4445 58.0774 48.6334 58.3148 48.6334H60.2412C60.4732 48.6334 60.6837 48.7251 60.8509 48.887C61.0128 49.0489 61.1046 49.2647 61.1046 49.4967V51.4231C61.1046 51.6606 61.2934 51.8494 61.5308 51.8494H64.531C64.7685 51.8494 64.9573 51.6606 64.9573 51.4231V49.4967C64.9573 49.2647 65.0491 49.0543 65.2109 48.887C65.3728 48.7251 65.5887 48.6334 65.8207 48.6334H67.7471C67.8604 48.6334 67.9683 48.5902 68.0492 48.5093C68.1302 48.4283 68.1733 48.3204 68.1733 48.2071V45.2069C68.1733 44.9695 67.9845 44.7806 67.7471 44.7806H65.8207C65.3458 44.7806 64.9627 44.3975 64.9627 43.9227V41.9963C64.9627 41.7589 64.7739 41.57 64.5364 41.57H61.5362C61.2988 41.57 61.11 41.7589 61.11 41.9963V43.9227C61.11 44.1547 61.0182 44.3651 60.8563 44.5324C60.6945 44.6943 60.4786 44.786 60.2466 44.786H59.7663V44.3543H60.2466C60.3599 44.3543 60.4678 44.3112 60.5488 44.2302C60.6297 44.1493 60.6729 44.0414 60.6729 43.9281V42.0017C60.6729 41.5268 61.056 41.1437 61.5308 41.1437H64.531C65.0059 41.1437 65.389 41.5268 65.389 42.0017V43.9281C65.389 44.1655 65.5833 44.3543 65.8153 44.3543H67.7417C68.2165 44.3543 68.5996 44.7375 68.5996 45.2123V48.2125C68.5996 48.4391 68.5079 48.655 68.346 48.8169C68.1841 48.9787 67.9683 49.0705 67.7417 49.0705H65.8153C65.702 49.0705 65.594 49.1136 65.5131 49.1946C65.4322 49.2755 65.389 49.3834 65.389 49.4967V51.4231C65.3836 51.8872 64.9951 52.2757 64.5256 52.2757Z" fill="#85A3BA"/>
<path d="M63.0903 67.05L62.8151 66.791C62.7827 66.7586 59.4102 63.6073 56.0809 59.5873C51.5806 54.1427 49.2927 49.7827 49.2927 46.6153C49.2927 42.9298 50.728 39.4655 53.3343 36.8593C55.9406 34.253 59.4048 32.8176 63.0903 32.8176C66.7758 32.8176 70.24 34.253 72.8463 36.8593C75.4526 39.4655 76.8879 42.9298 76.8879 46.6153C76.8879 49.7773 74.6054 54.1427 70.0997 59.5873C66.7758 63.6073 63.4033 66.7586 63.3655 66.791L63.0903 67.05ZM63.0903 33.627C59.6206 33.627 56.3615 34.9761 53.9063 37.4312C51.4511 39.8864 50.1021 43.1456 50.1021 46.6153C50.1021 50.3115 53.6904 55.427 56.7014 59.0639C59.448 62.3824 62.2215 65.1074 63.0903 65.9384C63.959 65.1074 66.738 62.3824 69.4846 59.0639C72.4956 55.427 76.0839 50.3115 76.0839 46.6153C76.0839 43.1456 74.7349 39.8864 72.2797 37.4312C69.8245 34.9761 66.5599 33.627 63.0903 33.627Z" fill="#999999"/>
<path d="M63.0687 79.504L50.933 76.4499L39.078 77.2863L46.913 63.7476L53.4098 62.8843L53.5177 63.6883L47.4148 64.4977L40.5403 76.3689L51.0032 75.6351L63.0633 78.6676L74.2492 75.6351L85.1114 76.2826L78.5229 64.4977L72.5549 63.6883L72.6628 62.8843L79.0355 63.7476L86.5414 77.1783L74.3302 76.4499L63.0687 79.504Z" fill="#999999"/>
<path d="M186.994 47.0038C186.994 53.9053 175.042 65.5499 175.042 65.5499C175.042 65.5499 163.095 53.9053 163.095 47.0038C163.095 40.1023 168.448 34.512 175.047 34.512C181.646 34.5066 186.994 40.1023 186.994 47.0038Z" fill="#017836"/>
<path d="M186.994 47.0038C186.994 53.9053 175.042 65.5499 175.042 65.5499C175.042 65.5499 163.095 53.9053 163.095 47.0038C163.095 40.1023 168.448 34.512 175.047 34.512C181.646 34.5066 186.994 40.1023 186.994 47.0038Z" fill="url(#paint1_linear_1180_103)"/>
<path d="M186.994 47.0038C186.994 53.9053 175.042 65.5499 175.042 65.5499C175.042 65.5499 163.095 53.9053 163.095 47.0038C163.095 40.1023 168.448 34.512 175.047 34.512C181.646 34.5066 186.994 40.1023 186.994 47.0038Z" fill="#064372"/>
<path d="M175.63 43.7931V42.8812C175.63 42.7247 175.5 42.5952 175.344 42.5952H172.576C172.419 42.5952 172.29 42.7247 172.29 42.8812V44.3543C172.29 44.8831 171.858 45.3148 171.329 45.3148H169.905C169.748 45.3148 169.619 45.4443 169.619 45.6008V48.3689C169.619 48.5254 169.748 48.6549 169.905 48.6549H170.741C170.995 48.6549 171.388 48.86 171.388 49.1082L171.437 51.0022C171.437 51.4716 171.577 51.8494 172.047 51.8494H172.646C172.851 51.8494 173.034 51.9195 173.18 51.8008H175.209C175.446 51.8008 175.64 51.6065 175.64 51.3691V49.5507C175.64 49.0542 176.045 48.6495 176.542 48.6495H178.409C178.565 48.6495 178.695 48.52 178.695 48.3635V45.1259C178.695 44.7752 178.414 44.4946 178.063 44.4946H176.353C175.948 44.5054 175.63 44.187 175.63 43.7931Z" fill="white"/>
<path d="M175.036 52.2757H172.036C171.809 52.2757 171.593 52.184 171.432 52.0221C171.27 51.8602 171.178 51.6444 171.178 51.4177V49.4914C171.178 49.378 171.135 49.2701 171.054 49.1892C170.973 49.1082 170.865 49.0651 170.752 49.0651H168.825C168.35 49.0651 167.967 48.6819 167.967 48.2071V45.2069C167.967 44.9803 168.059 44.7644 168.221 44.6026C168.383 44.4407 168.599 44.3489 168.825 44.3489H168.863V44.7806H168.825C168.712 44.7806 168.604 44.8238 168.523 44.9047C168.442 44.9857 168.399 45.0936 168.399 45.2069V48.2071C168.399 48.4445 168.588 48.6334 168.825 48.6334H170.752C170.984 48.6334 171.194 48.7251 171.361 48.887C171.523 49.0489 171.615 49.2647 171.615 49.4967V51.4231C171.615 51.6606 171.804 51.8494 172.041 51.8494H175.042C175.279 51.8494 175.468 51.6606 175.468 51.4231V49.4967C175.468 49.2647 175.56 49.0543 175.721 48.887C175.883 48.7251 176.099 48.6334 176.331 48.6334H178.258C178.371 48.6334 178.479 48.5902 178.56 48.5093C178.641 48.4283 178.684 48.3204 178.684 48.2071V45.2069C178.684 44.9695 178.495 44.7806 178.258 44.7806H176.331C175.856 44.7806 175.473 44.3975 175.473 43.9227V41.9963C175.473 41.7589 175.284 41.57 175.047 41.57H172.047C171.809 41.57 171.62 41.7589 171.62 41.9963V43.9227C171.62 44.1547 171.529 44.3651 171.367 44.5324C171.205 44.6943 170.989 44.786 170.757 44.786H170.277V44.3543H170.757C170.87 44.3543 170.978 44.3112 171.059 44.2302C171.14 44.1493 171.183 44.0414 171.183 43.9281V42.0017C171.183 41.5268 171.566 41.1437 172.041 41.1437H175.042C175.516 41.1437 175.899 41.5268 175.899 42.0017V43.9281C175.899 44.1655 176.094 44.3543 176.326 44.3543H178.252C178.727 44.3543 179.11 44.7375 179.11 45.2123V48.2125C179.11 48.4391 179.018 48.655 178.857 48.8169C178.695 48.9787 178.479 49.0705 178.252 49.0705H176.326C176.212 49.0705 176.105 49.1136 176.024 49.1946C175.943 49.2755 175.899 49.3834 175.899 49.4967V51.4231C175.894 51.8872 175.506 52.2757 175.036 52.2757Z" fill="#017836"/>
<path d="M175.036 52.2757H172.036C171.809 52.2757 171.593 52.184 171.432 52.0221C171.27 51.8602 171.178 51.6444 171.178 51.4177V49.4914C171.178 49.378 171.135 49.2701 171.054 49.1892C170.973 49.1082 170.865 49.0651 170.752 49.0651H168.825C168.35 49.0651 167.967 48.6819 167.967 48.2071V45.2069C167.967 44.9803 168.059 44.7644 168.221 44.6026C168.383 44.4407 168.599 44.3489 168.825 44.3489H168.863V44.7806H168.825C168.712 44.7806 168.604 44.8238 168.523 44.9047C168.442 44.9857 168.399 45.0936 168.399 45.2069V48.2071C168.399 48.4445 168.588 48.6334 168.825 48.6334H170.752C170.984 48.6334 171.194 48.7251 171.361 48.887C171.523 49.0489 171.615 49.2647 171.615 49.4967V51.4231C171.615 51.6606 171.804 51.8494 172.041 51.8494H175.042C175.279 51.8494 175.468 51.6606 175.468 51.4231V49.4967C175.468 49.2647 175.56 49.0543 175.721 48.887C175.883 48.7251 176.099 48.6334 176.331 48.6334H178.258C178.371 48.6334 178.479 48.5902 178.56 48.5093C178.641 48.4283 178.684 48.3204 178.684 48.2071V45.2069C178.684 44.9695 178.495 44.7806 178.258 44.7806H176.331C175.856 44.7806 175.473 44.3975 175.473 43.9227V41.9963C175.473 41.7589 175.284 41.57 175.047 41.57H172.047C171.809 41.57 171.62 41.7589 171.62 41.9963V43.9227C171.62 44.1547 171.529 44.3651 171.367 44.5324C171.205 44.6943 170.989 44.786 170.757 44.786H170.277V44.3543H170.757C170.87 44.3543 170.978 44.3112 171.059 44.2302C171.14 44.1493 171.183 44.0414 171.183 43.9281V42.0017C171.183 41.5268 171.566 41.1437 172.041 41.1437H175.042C175.516 41.1437 175.899 41.5268 175.899 42.0017V43.9281C175.899 44.1655 176.094 44.3543 176.326 44.3543H178.252C178.727 44.3543 179.11 44.7375 179.11 45.2123V48.2125C179.11 48.4391 179.018 48.655 178.857 48.8169C178.695 48.9787 178.479 49.0705 178.252 49.0705H176.326C176.212 49.0705 176.105 49.1136 176.024 49.1946C175.943 49.2755 175.899 49.3834 175.899 49.4967V51.4231C175.894 51.8872 175.506 52.2757 175.036 52.2757Z" fill="#85A3BA"/>
<path d="M173.601 67.05L173.325 66.791C173.293 66.7586 169.921 63.6074 166.591 59.5873C162.091 54.1427 159.803 49.7828 159.803 46.6153C159.803 42.9298 161.238 39.4656 163.845 36.8593C166.451 34.253 169.915 32.8177 173.601 32.8177C177.286 32.8177 180.75 34.253 183.357 36.8593C185.963 39.4656 187.398 42.9298 187.398 46.6153C187.398 49.7774 185.116 54.1427 180.61 59.5873C177.286 63.6074 173.914 66.7586 173.876 66.791L173.601 67.05ZM173.601 33.6271C170.131 33.6271 166.872 34.9761 164.417 37.4313C161.961 39.8865 160.612 43.1456 160.612 46.6153C160.612 50.3116 164.201 55.427 167.212 59.0639C169.958 62.3825 172.732 65.1075 173.601 65.9384C174.469 65.1075 177.248 62.3825 179.995 59.0639C183.006 55.427 186.594 50.3116 186.594 46.6153C186.594 43.1456 185.245 39.8865 182.79 37.4313C180.335 34.9761 177.07 33.6271 173.601 33.6271Z" fill="#999999"/>
<path d="M173.579 79.504L161.443 76.4499L149.588 77.2863L157.423 63.7476L163.92 62.8843L164.028 63.6883L157.925 64.4977L151.051 76.3689L161.514 75.6351L173.574 78.6676L184.76 75.6351L195.622 76.2826L189.033 64.4977L183.065 63.6883L183.173 62.8843L189.546 63.7476L197.052 77.1783L184.841 76.4499L173.579 79.504Z" fill="#999999"/>
<line x1="75.1318" y1="55.8969" x2="165.996" y2="55.8969" stroke="black" stroke-width="0.613947" stroke-dasharray="1.23 1.23"/>
<g clip-path="url(#clip0_1180_103)">
<path d="M129.492 57.4625L125.314 57.4625L125.301 57.4862L121.048 64.913C120.947 65.0678 120.812 65.1967 120.652 65.2892C120.492 65.3818 120.313 65.4355 120.129 65.4458L119.082 65.4458C119.008 65.4515 118.935 65.4386 118.868 65.4083C118.8 65.378 118.742 65.3312 118.698 65.2724C118.653 65.2135 118.625 65.1445 118.614 65.0716C118.604 64.9987 118.612 64.9244 118.638 64.8554L120.376 58.8252L120.377 57.4625L116.776 57.4625C116.385 57.4403 116 57.3646 115.63 57.2376L114.709 58.9623C114.614 59.1188 114.482 59.2498 114.324 59.3439C114.167 59.438 113.989 59.4924 113.805 59.5024L113.485 59.5033C113.322 59.5027 113.166 59.4378 113.051 59.3227C112.936 59.2077 112.871 59.0518 112.87 58.8891L112.87 56.989L112.871 56.9543L112.87 55.5158L112.87 55.4792L112.87 53.5809C112.871 53.4182 112.936 53.2624 113.051 53.1473C113.166 53.0323 113.322 52.9674 113.485 52.9667L113.806 52.9667C113.989 52.9772 114.167 53.032 114.324 53.1264C114.481 53.2208 114.613 53.352 114.708 53.5087L115.631 55.2315C116.001 55.1047 116.386 55.0291 116.777 55.0067L120.378 55.0067L120.376 53.6449L118.638 47.6147C118.612 47.5457 118.604 47.4713 118.614 47.3985C118.625 47.3256 118.653 47.2565 118.698 47.1977C118.742 47.1388 118.8 47.0921 118.868 47.0618C118.935 47.0315 119.008 47.0186 119.082 47.0242L120.129 47.0242C120.313 47.0347 120.492 47.0884 120.652 47.181C120.812 47.2735 120.947 47.4024 121.048 47.5571L125.301 54.9838L125.314 55.0076L129.492 55.0076C130.171 55.0058 131.906 55.5569 131.908 56.235C131.906 56.9132 130.171 57.4625 129.492 57.4625Z" fill="black"/>
</g>
<defs>
<linearGradient id="paint0_linear_1180_103" x1="64.5337" y1="34.512" x2="64.5337" y2="65.5499" gradientUnits="userSpaceOnUse">
<stop stop-color="#1599FE"/>
<stop offset="1" stop-color="#245276"/>
</linearGradient>
<linearGradient id="paint1_linear_1180_103" x1="175.044" y1="34.512" x2="175.044" y2="65.5499" gradientUnits="userSpaceOnUse">
<stop stop-color="#1599FE"/>
<stop offset="1" stop-color="#245276"/>
</linearGradient>
<clipPath id="clip0_1180_103">
<rect width="24.5579" height="24.5579" fill="white" transform="translate(120.738 39.0134) rotate(45)"/>
</clipPath>
</defs>
</svg>
