<svg width="30" height="30" viewBox="0 0 30 30" fill="none" xmlns="http://www.w3.org/2000/svg">
<circle cx="15" cy="15" r="15" fill="#E4E4E4"/>
<circle cx="15" cy="15" r="15" fill="#F3F8FF"/>
<circle cx="15" cy="15" r="15" fill="#DFEBE6"/>
<g clip-path="url(#clip0_1156_179)">
<path fill-rule="evenodd" clip-rule="evenodd" d="M19.5231 17.8888C19.2021 17.4846 18.6808 16.8988 18.2346 16.8433C17.9631 16.8096 17.6511 17.0346 17.3436 17.2468C17.2836 17.2768 16.8201 17.5528 16.7638 17.5693C16.4668 17.6541 15.8331 17.6788 15.4498 17.3293C15.0808 16.9918 14.4973 16.3671 14.0263 15.7948C13.5763 15.2053 13.1046 14.4966 12.8631 14.0616C12.6111 13.6108 12.7926 13.0146 12.9486 12.7521C12.9771 12.7048 13.3221 12.3501 13.3993 12.2676L13.4106 12.2811C13.6963 12.0411 13.9956 11.7973 14.0293 11.5333C14.0848 11.0938 13.6356 10.4541 13.3146 10.0491C12.9936 9.6433 12.4963 8.93305 11.8191 9.03355C11.5641 9.07105 11.3443 9.1603 11.1276 9.28855L11.1216 9.2818C11.1171 9.2848 11.0961 9.3013 11.0856 9.30955C11.0788 9.3133 11.0728 9.31555 11.0668 9.3193L11.0691 9.3223C10.9446 9.4183 10.5891 9.6838 10.5486 9.7198C10.1091 10.1106 9.44756 11.0308 9.95906 12.6861C10.3386 13.9161 11.1478 15.3606 12.2503 16.8216L12.2443 16.8268C12.2983 16.8973 12.3538 16.9611 12.4101 17.0293C12.4626 17.0991 12.5143 17.1681 12.5683 17.2371L12.5758 17.2318C13.7458 18.6411 14.9728 19.7676 16.0926 20.4321C17.6001 21.3261 18.6718 20.9233 19.1668 20.6031C19.2133 20.5723 19.5673 20.2971 19.6873 20.2063L19.6903 20.2093C19.6948 20.2048 19.6978 20.1988 19.7038 20.1943C19.7128 20.1876 19.7323 20.1726 19.7361 20.1696L19.7316 20.1636C19.9131 19.9881 20.0586 19.8006 20.1591 19.5643C20.4223 18.9426 19.8441 18.2946 19.5231 17.8888Z" fill="#136058"/>
</g>
<defs>
<clipPath id="clip0_1156_179">
<rect width="12" height="12" fill="white" transform="translate(9 9)"/>
</clipPath>
</defs>
</svg>
