<svg width="35" height="34" viewBox="0 0 35 34" fill="none" xmlns="http://www.w3.org/2000/svg">
<circle cx="17.7998" cy="17" r="17" fill="#F3F8FF"/>
<circle cx="17.7998" cy="17" r="17" fill="#E4E4E4"/>
<circle cx="17.7998" cy="17" r="17" fill="#F3F8FF"/>
<circle cx="17.7998" cy="17" r="17" fill="#DFEBE6"/>
<circle cx="17.7998" cy="17" r="17" fill="#DFF1FF"/>
<path fill-rule="evenodd" clip-rule="evenodd" d="M25.779 17.3931C25.779 13.1527 22.3613 9.71436 18.1463 9.71436C13.9313 9.71436 10.5137 13.1527 10.5137 17.3931C10.5137 21.2256 13.3044 24.4024 16.9537 24.979V19.6134H15.0152V17.3931H16.9537V15.7014C16.9537 13.7772 18.0935 12.7135 19.8368 12.7135C20.6719 12.7135 21.5456 12.8637 21.5456 12.8637V14.7535H20.5826C19.635 14.7535 19.3386 15.3452 19.3386 15.9533V17.3931H21.4553L21.1173 19.6134H19.3389V24.9797C22.9883 24.4034 25.779 21.2267 25.779 17.3931V17.3931Z" fill="#136058"/>
<path fill-rule="evenodd" clip-rule="evenodd" d="M25.779 17.3931C25.779 13.1527 22.3613 9.71436 18.1463 9.71436C13.9313 9.71436 10.5137 13.1527 10.5137 17.3931C10.5137 21.2256 13.3044 24.4024 16.9537 24.979V19.6134H15.0152V17.3931H16.9537V15.7014C16.9537 13.7772 18.0935 12.7135 19.8368 12.7135C20.6719 12.7135 21.5456 12.8637 21.5456 12.8637V14.7535H20.5826C19.635 14.7535 19.3386 15.3452 19.3386 15.9533V17.3931H21.4553L21.1173 19.6134H19.3389V24.9797C22.9883 24.4034 25.779 21.2267 25.779 17.3931V17.3931Z" fill="#064372"/>
</svg>
