<svg width="62" height="51" viewBox="0 0 62 51" fill="none" xmlns="http://www.w3.org/2000/svg">
<path d="M3.7678 35.1757C4.03028 35.1757 4.29426 35.2091 4.55232 35.2748C9.12051 36.4384 14.3502 37.6633 18.5019 37.9256C18.7024 37.9384 18.9556 37.9447 19.2548 37.9447C22.4183 37.9449 27.4225 37.3532 28.3304 36.872C28.97 36.533 29.3757 36.113 29.6329 35.7106H22.4398C20.6324 35.7106 19.1426 34.6682 18.642 33.1884H4.24489C2.36161 33.1884 0.829483 31.638 0.829483 29.7322V3.45614C0.829483 1.55041 2.36161 0 4.24489 0H34.1417C36.0249 0 37.557 1.55041 37.557 3.45601V25.6745C40.6641 25.7808 44.9516 26.6852 47.6829 28.9684C48.7802 29.8855 49.5714 30.5112 50.2072 31.0138C50.6184 31.339 50.9734 31.6197 51.3078 31.8976C52.6563 33.0181 53.8211 33.9857 60.5516 33.9857C61.3516 33.9857 62 34.6419 62 35.4513V49.5343C62 50.0111 61.7708 50.4582 61.3855 50.7327C61.138 50.909 60.8462 51 60.5515 51C60.3873 51 60.2221 50.9717 60.0635 50.9142C54.3245 48.8349 53.2995 48.5315 50.8299 47.8002L50.8266 47.7993L50.6043 47.7335C50.3985 47.6725 50.1996 47.6112 50.0038 47.5507L50.0034 47.5506C48.8635 47.1988 47.9631 46.9209 46.2713 46.9209C44.4217 46.9209 41.9063 47.2563 38.3546 47.9764C31.403 49.3859 28.054 50.0036 25.1598 50.0036H25.1596C23.4791 50.0036 21.9443 49.8034 19.9596 49.5206C15.8214 48.931 7.68536 46.1821 3.53379 43.9709C2.21212 43.267 0 42.0887 0 39.5745V39.4791C0.00025177 37.4436 1.5475 35.1757 3.7678 35.1757ZM22.5066 2.93143H15.8802V15.1111H22.5066V2.93143ZM34.1417 2.93143H25.4033V16.5767C25.4033 17.3861 24.755 18.0423 23.955 18.0423H14.4318C13.6318 18.0423 12.9834 17.3861 12.9834 16.5767V2.93131H4.24489C3.95899 2.93131 3.72624 3.1667 3.72624 3.45614V29.7322C3.72624 30.0217 3.95899 30.2571 4.24489 30.2571H18.5948C19.0038 28.5405 20.4065 27.3189 22.2 27.2015C23.933 27.0881 26.6901 26.7497 29.3565 26.4223C31.303 26.1833 33.163 25.9552 34.6601 25.8071V3.45614C34.6602 3.16683 34.4276 2.93143 34.1417 2.93143ZM2.89701 39.5745C2.89701 40.1451 3.36112 40.5662 4.88318 41.377C8.73688 43.4296 16.5493 46.0745 20.3636 46.618C22.2308 46.8841 23.6677 47.0724 25.1598 47.0723C27.6486 47.0723 30.4951 46.5805 37.7857 45.1023C41.5295 44.3433 44.226 43.9897 46.2715 43.9897C48.3949 43.9897 49.6423 44.3747 50.8483 44.7469L50.849 44.7471C51.0348 44.8045 51.223 44.8626 51.4181 44.9203L51.64 44.9861L51.6405 44.9862C53.8606 45.6435 54.9387 45.9627 59.1034 47.4562V36.9011C53.0629 36.7607 51.3311 35.7095 49.4699 34.1632C49.1656 33.9105 48.827 33.6427 48.4355 33.3331L48.4238 33.3238L48.4177 33.3191C47.7692 32.8063 46.9623 32.1682 45.8382 31.2286C43.662 29.4094 39.7996 28.595 36.9371 28.595C36.6079 28.595 36.2954 28.6062 36.0089 28.6287C34.4466 28.7502 32.1437 29.0329 29.7055 29.3323C26.9996 29.6646 24.2013 30.008 22.3872 30.1268C21.8107 30.1645 21.4228 30.565 21.3752 31.1661C21.3686 31.268 21.3612 31.7349 21.3583 32.0959C21.3583 32.5621 22.0037 32.7794 22.4398 32.7794H31.5236C32.2956 32.7794 32.9319 33.3922 32.9702 34.1724C32.9771 34.3136 33.1003 37.6527 29.6745 39.4686C27.8092 40.4575 21.4646 40.876 19.2548 40.876C18.8957 40.876 18.5816 40.8677 18.3214 40.8512C13.9343 40.574 8.54179 39.3136 3.84526 38.1174C3.81768 38.1104 3.79236 38.107 3.7678 38.107C3.44022 38.107 2.89701 38.7716 2.89701 39.4792V39.5745Z" fill="white"/>
<path d="M3.7678 35.1757C4.03028 35.1757 4.29426 35.2091 4.55232 35.2748C9.12051 36.4384 14.3502 37.6633 18.5019 37.9256C18.7024 37.9384 18.9556 37.9447 19.2548 37.9447C22.4183 37.9449 27.4225 37.3532 28.3304 36.872C28.97 36.533 29.3757 36.113 29.6329 35.7106H22.4398C20.6324 35.7106 19.1426 34.6682 18.642 33.1884H4.24489C2.36161 33.1884 0.829483 31.638 0.829483 29.7322V3.45614C0.829483 1.55041 2.36161 0 4.24489 0H34.1417C36.0249 0 37.557 1.55041 37.557 3.45601V25.6745C40.6641 25.7808 44.9516 26.6852 47.6829 28.9684C48.7802 29.8855 49.5714 30.5112 50.2072 31.0138C50.6184 31.339 50.9734 31.6197 51.3078 31.8976C52.6563 33.0181 53.8211 33.9857 60.5516 33.9857C61.3516 33.9857 62 34.6419 62 35.4513V49.5343C62 50.0111 61.7708 50.4582 61.3855 50.7327C61.138 50.909 60.8462 51 60.5515 51C60.3873 51 60.2221 50.9717 60.0635 50.9142C54.3245 48.8349 53.2995 48.5315 50.8299 47.8002L50.8266 47.7993L50.6043 47.7335C50.3985 47.6725 50.1996 47.6112 50.0038 47.5507L50.0034 47.5506C48.8635 47.1988 47.9631 46.9209 46.2713 46.9209C44.4217 46.9209 41.9063 47.2563 38.3546 47.9764C31.403 49.3859 28.054 50.0036 25.1598 50.0036H25.1596C23.4791 50.0036 21.9443 49.8034 19.9596 49.5206C15.8214 48.931 7.68536 46.1821 3.53379 43.9709C2.21212 43.267 0 42.0887 0 39.5745V39.4791C0.00025177 37.4436 1.5475 35.1757 3.7678 35.1757ZM22.5066 2.93143H15.8802V15.1111H22.5066V2.93143ZM34.1417 2.93143H25.4033V16.5767C25.4033 17.3861 24.755 18.0423 23.955 18.0423H14.4318C13.6318 18.0423 12.9834 17.3861 12.9834 16.5767V2.93131H4.24489C3.95899 2.93131 3.72624 3.1667 3.72624 3.45614V29.7322C3.72624 30.0217 3.95899 30.2571 4.24489 30.2571H18.5948C19.0038 28.5405 20.4065 27.3189 22.2 27.2015C23.933 27.0881 26.6901 26.7497 29.3565 26.4223C31.303 26.1833 33.163 25.9552 34.6601 25.8071V3.45614C34.6602 3.16683 34.4276 2.93143 34.1417 2.93143ZM2.89701 39.5745C2.89701 40.1451 3.36112 40.5662 4.88318 41.377C8.73688 43.4296 16.5493 46.0745 20.3636 46.618C22.2308 46.8841 23.6677 47.0724 25.1598 47.0723C27.6486 47.0723 30.4951 46.5805 37.7857 45.1023C41.5295 44.3433 44.226 43.9897 46.2715 43.9897C48.3949 43.9897 49.6423 44.3747 50.8483 44.7469L50.849 44.7471C51.0348 44.8045 51.223 44.8626 51.4181 44.9203L51.64 44.9861L51.6405 44.9862C53.8606 45.6435 54.9387 45.9627 59.1034 47.4562V36.9011C53.0629 36.7607 51.3311 35.7095 49.4699 34.1632C49.1656 33.9105 48.827 33.6427 48.4355 33.3331L48.4238 33.3238L48.4177 33.3191C47.7692 32.8063 46.9623 32.1682 45.8382 31.2286C43.662 29.4094 39.7996 28.595 36.9371 28.595C36.6079 28.595 36.2954 28.6062 36.0089 28.6287C34.4466 28.7502 32.1437 29.0329 29.7055 29.3323C26.9996 29.6646 24.2013 30.008 22.3872 30.1268C21.8107 30.1645 21.4228 30.565 21.3752 31.1661C21.3686 31.268 21.3612 31.7349 21.3583 32.0959C21.3583 32.5621 22.0037 32.7794 22.4398 32.7794H31.5236C32.2956 32.7794 32.9319 33.3922 32.9702 34.1724C32.9771 34.3136 33.1003 37.6527 29.6745 39.4686C27.8092 40.4575 21.4646 40.876 19.2548 40.876C18.8957 40.876 18.5816 40.8677 18.3214 40.8512C13.9343 40.574 8.54179 39.3136 3.84526 38.1174C3.81768 38.1104 3.79236 38.107 3.7678 38.107C3.44022 38.107 2.89701 38.7716 2.89701 39.4792V39.5745Z" stroke="white"/>
</svg>
