<svg width="60" height="60" viewBox="0 0 60 60" fill="none" xmlns="http://www.w3.org/2000/svg">
<path d="M29.3139 42.7546C29.0664 42.2108 28.5539 41.8141 27.9336 41.7436C27.4084 41.6836 26.8941 41.5711 26.4051 41.4088C26.1859 41.3351 25.9801 41.2546 25.7896 41.1683L26.1061 40.3056C26.3296 40.4053 26.5599 40.4966 26.7956 40.5791L26.8054 40.5826L26.8154 40.5858C27.5719 40.8358 28.3164 40.9626 29.0276 40.9626C29.7419 40.9626 30.2596 40.8668 30.6574 40.6616L30.6811 40.6493L30.7044 40.6358C31.3069 40.2901 31.6526 39.6958 31.6526 39.0051C31.6526 38.2386 31.2391 37.6023 30.5179 37.2586C30.1551 37.0821 29.6399 36.9136 28.8976 36.7291C28.1364 36.5366 27.4969 36.3323 27.0009 36.1231C26.6384 35.9591 26.3238 35.6973 26.0403 35.3231C25.7963 34.9891 25.6729 34.4868 25.6729 33.8296C25.6729 33.0366 25.8961 32.3821 26.3556 31.8286C26.7646 31.3436 27.3454 31.0141 28.1249 30.8293C28.7031 30.6923 29.1541 30.2796 29.3568 29.7466C29.5861 30.2868 30.0739 30.6886 30.6809 30.7853C31.1878 30.8661 31.6534 30.9948 32.0719 31.1691L31.7806 32.0146C30.9904 31.6973 30.2126 31.5371 29.4603 31.5371C26.9621 31.5371 26.8356 33.2606 26.8356 33.6061C26.8356 34.3551 27.2401 34.9831 27.9453 35.3293L27.9651 35.3391L27.9851 35.3481C28.3414 35.5071 28.8468 35.6603 29.5763 35.8303C30.3306 36.0008 30.9596 36.1961 31.4539 36.4126L31.4641 36.4171L31.4743 36.4213C31.8413 36.5741 32.1561 36.8291 32.4366 37.2011L32.4411 37.2068L32.4456 37.2128C32.6909 37.5298 32.8153 38.0201 32.8153 38.6701C32.8153 39.4203 32.5981 40.0553 32.1511 40.6116C31.7634 41.0941 31.2221 41.4281 30.4959 41.6326C29.9351 41.7906 29.5001 42.2193 29.3139 42.7546Z" fill="white"/>
<path d="M29.946 45H28.7423C28.473 45 28.2548 44.7762 28.2548 44.5V43.4963C28.2548 43.2323 28.0545 43.0153 27.7985 42.986C27.189 42.9168 26.5995 42.7875 26.0298 42.5985C25.4763 42.412 24.9967 42.191 24.5912 41.9347C24.4048 41.817 24.337 41.578 24.4141 41.368L25.2398 39.1165C25.351 38.8135 25.7098 38.6975 25.986 38.8543C26.359 39.0655 26.76 39.2463 27.1885 39.3963C27.8273 39.6073 28.4403 39.7128 29.0273 39.7128C29.532 39.7128 29.8928 39.657 30.109 39.5452C30.3253 39.421 30.4335 39.241 30.4335 39.0053C30.4335 38.7323 30.2893 38.5275 30.0008 38.391C29.7228 38.2545 29.259 38.1055 28.6103 37.9443C27.7758 37.7333 27.0805 37.5098 26.5243 37.274C25.968 37.0258 25.4838 36.6285 25.0718 36.0825C24.6597 35.524 24.4537 34.773 24.4537 33.8298C24.4537 32.7375 24.7782 31.8005 25.427 31.0185C26.012 30.325 26.8195 29.856 27.85 29.6117C28.082 29.5567 28.2548 29.3502 28.2548 29.1062V28C28.2548 27.7237 28.473 27.5 28.7423 27.5H29.946C30.2153 27.5 30.4335 27.7237 30.4335 28V29.043C30.4335 29.2985 30.6215 29.5112 30.8675 29.5505C31.7703 29.6942 32.5635 29.9665 33.247 30.3673C33.441 30.481 33.518 30.723 33.4435 30.939L32.6708 33.1813C32.5685 33.4785 32.2273 33.6043 31.9528 33.4623C31.0823 33.0123 30.2515 32.7872 29.46 32.7872C28.5225 32.7872 28.0538 33.0603 28.0538 33.6063C28.0538 33.867 28.193 34.0655 28.471 34.2022C28.7493 34.3262 29.2075 34.4627 29.8463 34.6117C30.6703 34.798 31.3658 35.015 31.9323 35.2632C32.4988 35.499 32.988 35.89 33.4003 36.4363C33.8225 36.9823 34.0338 37.727 34.0338 38.6702C34.0338 39.7127 33.7195 40.625 33.091 41.407C32.5438 42.0885 31.786 42.5655 30.8183 42.8382C30.5958 42.901 30.4335 43.103 30.4335 43.3395V44.5C30.4335 44.7762 30.2153 45 29.946 45Z" fill="white"/>
<path d="M29.946 45H28.7423C28.473 45 28.2548 44.7762 28.2548 44.5V43.4963C28.2548 43.2323 28.0545 43.0153 27.7985 42.986C27.189 42.9168 26.5995 42.7875 26.0298 42.5985C25.4763 42.412 24.9967 42.191 24.5912 41.9347C24.4048 41.817 24.337 41.578 24.4141 41.368L25.2398 39.1165C25.351 38.8135 25.7098 38.6975 25.986 38.8543C26.359 39.0655 26.76 39.2463 27.1885 39.3963C27.8273 39.6073 28.4403 39.7128 29.0273 39.7128C29.532 39.7128 29.8928 39.657 30.109 39.5452C30.3253 39.421 30.4335 39.241 30.4335 39.0053C30.4335 38.7323 30.2893 38.5275 30.0008 38.391C29.7228 38.2545 29.259 38.1055 28.6103 37.9443C27.7758 37.7333 27.0805 37.5098 26.5243 37.274C25.968 37.0258 25.4838 36.6285 25.0718 36.0825C24.6597 35.524 24.4537 34.773 24.4537 33.8298C24.4537 32.7375 24.7782 31.8005 25.427 31.0185C26.012 30.325 26.8195 29.856 27.85 29.6117C28.082 29.5567 28.2548 29.3502 28.2548 29.1062V28C28.2548 27.7237 28.473 27.5 28.7423 27.5H29.946C30.2153 27.5 30.4335 27.7237 30.4335 28V29.043C30.4335 29.2985 30.6215 29.5112 30.8675 29.5505C31.7703 29.6942 32.5635 29.9665 33.247 30.3673C33.441 30.481 33.518 30.723 33.4435 30.939L32.6708 33.1813C32.5685 33.4785 32.2273 33.6043 31.9528 33.4623C31.0823 33.0123 30.2515 32.7872 29.46 32.7872C28.5225 32.7872 28.0538 33.0603 28.0538 33.6063C28.0538 33.867 28.193 34.0655 28.471 34.2022C28.7493 34.3262 29.2075 34.4627 29.8463 34.6117C30.6703 34.798 31.3658 35.015 31.9323 35.2632C32.4988 35.499 32.988 35.89 33.4003 36.4363C33.8225 36.9823 34.0338 37.727 34.0338 38.6702C34.0338 39.7127 33.7195 40.625 33.091 41.407C32.5438 42.0885 31.786 42.5655 30.8183 42.8382C30.5958 42.901 30.4335 43.103 30.4335 43.3395V44.5C30.4335 44.7762 30.2153 45 29.946 45Z" fill="white"/>
<path fill-rule="evenodd" clip-rule="evenodd" d="M23.9809 12.5H34.5352C37.2385 12.5 35.754 16.66 34.6595 19.1975L33.414 22.1075L33.2457 22.5C34.4255 22.4413 35.5922 22.7763 36.5705 23.455C40.2302 26.8895 43.2005 31.0245 45.314 35.6275C46.1375 37.3295 46.4642 39.2395 46.2547 41.1275C46.0032 45.9397 42.239 49.7745 37.5455 50H20.9706C16.2758 49.7812 12.506 45.9505 12.2492 41.1375C12.0397 39.2495 12.3664 37.3395 13.1901 35.6375C15.306 31.03 18.2804 26.8912 21.9456 23.455C22.924 22.7763 24.0905 22.4413 25.2702 22.5L25.0752 22.0475L23.8566 19.1975C22.767 16.66 21.2752 12.5 23.9809 12.5Z" stroke="white" stroke-width="3.75" stroke-linecap="round" stroke-linejoin="round"/>
<path fill-rule="evenodd" clip-rule="evenodd" d="M23.9809 12.5H34.5352C37.2385 12.5 35.754 16.66 34.6595 19.1975L33.414 22.1075L33.2457 22.5C34.4255 22.4413 35.5922 22.7763 36.5705 23.455C40.2302 26.8895 43.2005 31.0245 45.314 35.6275C46.1375 37.3295 46.4642 39.2395 46.2547 41.1275C46.0032 45.9397 42.239 49.7745 37.5455 50H20.9706C16.2758 49.7812 12.506 45.9505 12.2492 41.1375C12.0397 39.2495 12.3664 37.3395 13.1901 35.6375C15.306 31.03 18.2804 26.8912 21.9456 23.455C22.924 22.7763 24.0905 22.4413 25.2702 22.5L25.0752 22.0475L23.8566 19.1975C22.767 16.66 21.2752 12.5 23.9809 12.5Z" stroke="white" stroke-width="3.75" stroke-linecap="round" stroke-linejoin="round"/>
<path d="M33.2459 24.3749C34.2814 24.3749 35.1209 23.5354 35.1209 22.4999C35.1209 21.4643 34.2814 20.6249 33.2459 20.6249V24.3749ZM25.2704 20.6249C24.2349 20.6249 23.3954 21.4643 23.3954 22.4999C23.3954 23.5354 24.2349 24.3749 25.2704 24.3749V20.6249ZM39.9441 21.6246C40.8414 21.1077 41.1499 19.9612 40.6329 19.0639C40.1159 18.1666 38.9696 17.8583 38.0724 18.3752L39.9441 21.6246ZM33.4141 22.1074L33.7759 23.9471L33.7814 23.9461L33.4141 22.1074ZM25.0754 22.0474L25.4636 20.2129L25.4466 20.2094L25.0754 22.0474ZM20.4151 18.3588C19.5088 17.8579 18.368 18.1866 17.8671 19.0929C17.3662 19.9993 17.6949 21.14 18.6012 21.6409L20.4151 18.3588ZM33.2459 20.6249H25.2704V24.3749H33.2459V20.6249ZM38.0724 18.3752C36.5049 19.2781 34.8084 19.9169 33.0469 20.2687L33.7814 23.9461C35.9446 23.5141 38.0254 22.7299 39.9441 21.6246L38.0724 18.3752ZM33.0524 20.2676C30.5439 20.7609 27.9654 20.7422 25.4636 20.2129L24.6873 23.8817C27.6831 24.5156 30.7716 24.5379 33.7759 23.9471L33.0524 20.2676ZM25.4466 20.2094C23.6898 19.8548 21.9937 19.2312 20.4151 18.3588L18.6012 21.6409C20.5133 22.6976 22.5706 23.4545 24.7043 23.8853L25.4466 20.2094Z" fill="white"/>
</svg>
