<svg width="56" height="56" viewBox="0 0 56 56" fill="none" xmlns="http://www.w3.org/2000/svg">
<g clip-path="url(#clip0_325_1781)">
<path d="M47.8405 30.7589H45.5386C47.3797 26.9767 48.6036 23.4082 48.6036 20.6037C48.6036 18.6004 48.3166 16.6198 47.7502 14.7172C47.6115 14.2513 47.1217 13.9863 46.6552 14.1245C46.1891 14.2633 45.9238 14.7534 46.0625 15.2195C46.5802 16.959 46.8428 18.7705 46.8428 20.6037C46.8428 29.9323 31.4434 49.4758 28 53.7287C24.5564 49.4758 9.15704 29.9324 9.15704 20.6037C9.15704 10.2138 17.6099 1.76094 27.9998 1.76094C35.134 1.76094 41.5749 5.71495 44.8092 12.0799C45.0296 12.5136 45.5596 12.6863 45.9931 12.466C46.4266 12.2456 46.5995 11.7156 46.3792 11.2821C44.6818 7.94172 42.1039 5.12323 38.9238 3.13086C35.654 1.08281 31.8765 0 27.9998 0C17.2388 0 8.37961 8.29281 7.47387 18.823C4.39682 19.1651 1.99561 21.7807 1.99561 24.9476V26.3564C1.99561 29.7549 4.76061 32.5199 8.15911 32.5199H11.3534C13.2026 36.0358 15.492 39.66 17.7556 42.9685H8.86337C5.46487 42.9685 2.69987 45.7335 2.69987 49.132V49.8364C2.70009 53.235 5.46509 56 8.86359 56H27.765C28.2398 56 28.8243 55.5251 29.1134 55.1538C30.8762 52.8888 33.5219 49.7022 37.0289 44.7192C37.0707 44.7253 37.1134 44.7295 37.157 44.7295H47.8405C51.239 44.7295 54.004 41.9645 54.004 38.566V36.9224C54.0041 33.5239 51.239 30.7589 47.8405 30.7589ZM8.15921 30.7589C5.73164 30.7589 3.75665 28.784 3.75665 26.3563V24.9475C3.75665 22.7803 5.33122 20.975 7.39621 20.6125C7.39884 23.4155 8.62187 26.9805 10.4611 30.7588H8.15921V30.7589ZM8.86359 54.239C6.43601 54.239 4.46103 52.2641 4.46103 49.8364V49.132C4.46103 46.7044 6.4359 44.7295 8.86359 44.7295H18.9782C21.9025 48.884 24.6377 52.3688 26.1435 54.2388L8.86359 54.239ZM52.243 38.5661C52.243 40.9936 50.2682 42.9686 47.8405 42.9686H38.2439C40.5075 39.66 42.797 36.0359 44.6461 32.52H47.8405C50.268 32.52 52.243 34.4949 52.243 36.9226V38.5661Z" fill="white"/>
<path d="M28 4.46118C19.099 4.46118 11.8574 11.7028 11.8574 20.6037C11.8574 22.1232 12.0685 23.6273 12.4847 25.0741C12.6192 25.5414 13.1072 25.8116 13.5743 25.677C14.0415 25.5424 14.3115 25.0546 14.1772 24.5874C13.8064 23.2987 13.6185 21.9584 13.6185 20.6037C13.6185 12.6737 20.07 6.22223 28 6.22223C35.93 6.22223 42.3815 12.6737 42.3815 20.6037C42.3815 28.5337 35.93 34.9853 28 34.9853C22.7235 34.9853 17.8785 32.1025 15.3558 27.4622C15.1236 27.035 14.589 26.8767 14.1617 27.1091C13.7344 27.3413 13.5765 27.876 13.8087 28.3032C16.6397 33.5111 22.0776 36.7463 28 36.7463C36.9009 36.7463 44.1425 29.5047 44.1425 20.6037C44.1425 11.7028 36.9009 4.46118 28 4.46118Z" fill="white"/>
<path d="M38.331 12.6793H17.6686C17.1822 12.6793 16.7881 13.0734 16.7881 13.5598V28.587C16.7881 29.0734 17.1822 29.4675 17.6686 29.4675H38.331C38.8174 29.4675 39.2115 29.0734 39.2115 28.587V13.5598C39.2115 13.0734 38.8174 12.6793 38.331 12.6793ZM23.9495 14.4402H26.8845V19.2536H23.9495V14.4402ZM32.7545 27.7065H18.549V14.4402H22.1885V20.1342C22.1885 20.6206 22.5826 21.0147 23.0689 21.0147H27.765C28.2514 21.0147 28.6454 20.6206 28.6454 20.1342V14.4402H32.7544L32.7545 27.7065ZM37.4506 27.7065H34.5156V14.4402H37.4506V27.7065Z" fill="white"/>
<path d="M30.8177 22.5409H20.7213C20.2349 22.5409 19.8408 22.935 19.8408 23.4213C19.8408 23.9077 20.2349 24.3018 20.7213 24.3018H30.8177C31.3041 24.3018 31.6982 23.9077 31.6982 23.4213C31.6982 22.935 31.3041 22.5409 30.8177 22.5409Z" fill="white"/>
<path d="M30.8177 25.1237H20.7213C20.2349 25.1237 19.8408 25.5177 19.8408 26.0041C19.8408 26.4905 20.2349 26.8846 20.7213 26.8846H30.8177C31.3041 26.8846 31.6982 26.4905 31.6982 26.0041C31.6982 25.5177 31.3041 25.1237 30.8177 25.1237Z" fill="white"/>
</g>
<defs>
<clipPath id="clip0_325_1781">
<rect width="56" height="56" fill="white"/>
</clipPath>
</defs>
</svg>
