<svg width="49" height="48" viewBox="0 0 49 48" fill="none" xmlns="http://www.w3.org/2000/svg">
<g clip-path="url(#clip0_1165_239)">
<path d="M46.7 9.48885V1.89659C46.7 0.847537 45.842 0 44.78 0H4.22003C3.15803 0 2.30004 0.847537 2.30004 1.89659V9.48885C1.29804 9.54812 0.500037 10.372 0.500037 11.3795V19.1851C0.496195 20.6197 0.790253 22.0398 1.36404 23.3576C1.62204 23.9622 1.94004 24.5311 2.30004 25.0705V45.518C2.30004 46.5612 3.15803 47.4146 4.22003 47.4146H44.78C45.842 47.4146 46.7 46.5671 46.7 45.518V25.0705C47.0657 24.5298 47.379 23.9563 47.636 23.3576C48.206 22.036 48.5 20.6313 48.5 19.1851V11.3795C48.5 10.372 47.702 9.54812 46.7 9.48885ZM6.62003 4.26732H42.38V9.48293H6.62003V4.26732ZM28.34 43.1532H20.66V36.9834H28.34V43.1532ZM42.404 43.1532H32.18V35.0868C32.18 34.0378 31.322 33.1902 30.26 33.1902H18.74C17.678 33.1902 16.82 34.0378 16.82 35.0868V43.1532H6.62003V28.7985C6.79403 28.8814 6.97403 28.9644 7.16003 29.0355C8.49803 29.5927 9.92003 29.8712 11.384 29.8712C12.848 29.8712 14.264 29.5927 15.608 29.0355C16.436 28.6918 17.216 28.2532 17.93 27.7257C17.942 27.7198 17.954 27.7198 17.966 27.7257C18.6822 28.2554 19.4622 28.6954 20.288 29.0355C21.626 29.5927 23.048 29.8712 24.512 29.8712C25.976 29.8712 27.392 29.5927 28.736 29.0355C29.564 28.6918 30.344 28.2532 31.058 27.7257C31.07 27.7198 31.082 27.7198 31.094 27.7257C31.8102 28.2554 32.5902 28.6954 33.416 29.0355C34.754 29.5927 36.176 29.8712 37.64 29.8712C39.104 29.8712 40.52 29.5927 41.864 29.0355C42.044 28.9585 42.224 28.8814 42.404 28.7985V43.1532V43.1532ZM44.18 19.1851C44.18 22.7294 41.24 25.6039 37.622 25.6039C35.174 25.6039 33.038 24.2941 31.91 22.3501C31.736 22.0537 31.424 21.87 31.076 21.87H31.04C30.698 21.87 30.38 22.0537 30.206 22.3501C29.6304 23.3417 28.7992 24.1652 27.797 24.7367C26.7948 25.3082 25.6572 25.6074 24.5 25.6039C22.058 25.6039 19.928 24.3 18.8 22.3619C18.62 22.0597 18.296 21.87 17.942 21.87C17.588 21.87 17.258 22.0597 17.084 22.3619C16.505 23.3498 15.6728 24.1695 14.6711 24.7387C13.6694 25.3078 12.5336 25.6062 11.378 25.6039C7.76003 25.6039 4.82003 22.7294 4.82003 19.1851V13.7799C4.82003 13.7621 4.83203 13.7502 4.85003 13.7502H44.15C44.168 13.7502 44.18 13.7621 44.18 13.7799V19.1851Z" fill="url(#paint0_linear_1165_239)"/>
<path d="M46.7 9.48885V1.89659C46.7 0.847537 45.842 0 44.78 0H4.22003C3.15803 0 2.30004 0.847537 2.30004 1.89659V9.48885C1.29804 9.54812 0.500037 10.372 0.500037 11.3795V19.1851C0.496195 20.6197 0.790253 22.0398 1.36404 23.3576C1.62204 23.9622 1.94004 24.5311 2.30004 25.0705V45.518C2.30004 46.5612 3.15803 47.4146 4.22003 47.4146H44.78C45.842 47.4146 46.7 46.5671 46.7 45.518V25.0705C47.0657 24.5298 47.379 23.9563 47.636 23.3576C48.206 22.036 48.5 20.6313 48.5 19.1851V11.3795C48.5 10.372 47.702 9.54812 46.7 9.48885ZM6.62003 4.26732H42.38V9.48293H6.62003V4.26732ZM28.34 43.1532H20.66V36.9834H28.34V43.1532ZM42.404 43.1532H32.18V35.0868C32.18 34.0378 31.322 33.1902 30.26 33.1902H18.74C17.678 33.1902 16.82 34.0378 16.82 35.0868V43.1532H6.62003V28.7985C6.79403 28.8814 6.97403 28.9644 7.16003 29.0355C8.49803 29.5927 9.92003 29.8712 11.384 29.8712C12.848 29.8712 14.264 29.5927 15.608 29.0355C16.436 28.6918 17.216 28.2532 17.93 27.7257C17.942 27.7198 17.954 27.7198 17.966 27.7257C18.6822 28.2554 19.4622 28.6954 20.288 29.0355C21.626 29.5927 23.048 29.8712 24.512 29.8712C25.976 29.8712 27.392 29.5927 28.736 29.0355C29.564 28.6918 30.344 28.2532 31.058 27.7257C31.07 27.7198 31.082 27.7198 31.094 27.7257C31.8102 28.2554 32.5902 28.6954 33.416 29.0355C34.754 29.5927 36.176 29.8712 37.64 29.8712C39.104 29.8712 40.52 29.5927 41.864 29.0355C42.044 28.9585 42.224 28.8814 42.404 28.7985V43.1532V43.1532ZM44.18 19.1851C44.18 22.7294 41.24 25.6039 37.622 25.6039C35.174 25.6039 33.038 24.2941 31.91 22.3501C31.736 22.0537 31.424 21.87 31.076 21.87H31.04C30.698 21.87 30.38 22.0537 30.206 22.3501C29.6304 23.3417 28.7992 24.1652 27.797 24.7367C26.7948 25.3082 25.6572 25.6074 24.5 25.6039C22.058 25.6039 19.928 24.3 18.8 22.3619C18.62 22.0597 18.296 21.87 17.942 21.87C17.588 21.87 17.258 22.0597 17.084 22.3619C16.505 23.3498 15.6728 24.1695 14.6711 24.7387C13.6694 25.3078 12.5336 25.6062 11.378 25.6039C7.76003 25.6039 4.82003 22.7294 4.82003 19.1851V13.7799C4.82003 13.7621 4.83203 13.7502 4.85003 13.7502H44.15C44.168 13.7502 44.18 13.7621 44.18 13.7799V19.1851Z" fill="url(#paint1_linear_1165_239)"/>
<path d="M46.7 9.48885V1.89659C46.7 0.847537 45.842 0 44.78 0H4.22003C3.15803 0 2.30004 0.847537 2.30004 1.89659V9.48885C1.29804 9.54812 0.500037 10.372 0.500037 11.3795V19.1851C0.496195 20.6197 0.790253 22.0398 1.36404 23.3576C1.62204 23.9622 1.94004 24.5311 2.30004 25.0705V45.518C2.30004 46.5612 3.15803 47.4146 4.22003 47.4146H44.78C45.842 47.4146 46.7 46.5671 46.7 45.518V25.0705C47.0657 24.5298 47.379 23.9563 47.636 23.3576C48.206 22.036 48.5 20.6313 48.5 19.1851V11.3795C48.5 10.372 47.702 9.54812 46.7 9.48885ZM6.62003 4.26732H42.38V9.48293H6.62003V4.26732ZM28.34 43.1532H20.66V36.9834H28.34V43.1532ZM42.404 43.1532H32.18V35.0868C32.18 34.0378 31.322 33.1902 30.26 33.1902H18.74C17.678 33.1902 16.82 34.0378 16.82 35.0868V43.1532H6.62003V28.7985C6.79403 28.8814 6.97403 28.9644 7.16003 29.0355C8.49803 29.5927 9.92003 29.8712 11.384 29.8712C12.848 29.8712 14.264 29.5927 15.608 29.0355C16.436 28.6918 17.216 28.2532 17.93 27.7257C17.942 27.7198 17.954 27.7198 17.966 27.7257C18.6822 28.2554 19.4622 28.6954 20.288 29.0355C21.626 29.5927 23.048 29.8712 24.512 29.8712C25.976 29.8712 27.392 29.5927 28.736 29.0355C29.564 28.6918 30.344 28.2532 31.058 27.7257C31.07 27.7198 31.082 27.7198 31.094 27.7257C31.8102 28.2554 32.5902 28.6954 33.416 29.0355C34.754 29.5927 36.176 29.8712 37.64 29.8712C39.104 29.8712 40.52 29.5927 41.864 29.0355C42.044 28.9585 42.224 28.8814 42.404 28.7985V43.1532V43.1532ZM44.18 19.1851C44.18 22.7294 41.24 25.6039 37.622 25.6039C35.174 25.6039 33.038 24.2941 31.91 22.3501C31.736 22.0537 31.424 21.87 31.076 21.87H31.04C30.698 21.87 30.38 22.0537 30.206 22.3501C29.6304 23.3417 28.7992 24.1652 27.797 24.7367C26.7948 25.3082 25.6572 25.6074 24.5 25.6039C22.058 25.6039 19.928 24.3 18.8 22.3619C18.62 22.0597 18.296 21.87 17.942 21.87C17.588 21.87 17.258 22.0597 17.084 22.3619C16.505 23.3498 15.6728 24.1695 14.6711 24.7387C13.6694 25.3078 12.5336 25.6062 11.378 25.6039C7.76003 25.6039 4.82003 22.7294 4.82003 19.1851V13.7799C4.82003 13.7621 4.83203 13.7502 4.85003 13.7502H44.15C44.168 13.7502 44.18 13.7621 44.18 13.7799V19.1851Z" fill="url(#paint2_linear_1165_239)"/>
<path d="M46.7 9.48885V1.89659C46.7 0.847537 45.842 0 44.78 0H4.22003C3.15803 0 2.30004 0.847537 2.30004 1.89659V9.48885C1.29804 9.54812 0.500037 10.372 0.500037 11.3795V19.1851C0.496195 20.6197 0.790253 22.0398 1.36404 23.3576C1.62204 23.9622 1.94004 24.5311 2.30004 25.0705V45.518C2.30004 46.5612 3.15803 47.4146 4.22003 47.4146H44.78C45.842 47.4146 46.7 46.5671 46.7 45.518V25.0705C47.0657 24.5298 47.379 23.9563 47.636 23.3576C48.206 22.036 48.5 20.6313 48.5 19.1851V11.3795C48.5 10.372 47.702 9.54812 46.7 9.48885ZM6.62003 4.26732H42.38V9.48293H6.62003V4.26732ZM28.34 43.1532H20.66V36.9834H28.34V43.1532ZM42.404 43.1532H32.18V35.0868C32.18 34.0378 31.322 33.1902 30.26 33.1902H18.74C17.678 33.1902 16.82 34.0378 16.82 35.0868V43.1532H6.62003V28.7985C6.79403 28.8814 6.97403 28.9644 7.16003 29.0355C8.49803 29.5927 9.92003 29.8712 11.384 29.8712C12.848 29.8712 14.264 29.5927 15.608 29.0355C16.436 28.6918 17.216 28.2532 17.93 27.7257C17.942 27.7198 17.954 27.7198 17.966 27.7257C18.6822 28.2554 19.4622 28.6954 20.288 29.0355C21.626 29.5927 23.048 29.8712 24.512 29.8712C25.976 29.8712 27.392 29.5927 28.736 29.0355C29.564 28.6918 30.344 28.2532 31.058 27.7257C31.07 27.7198 31.082 27.7198 31.094 27.7257C31.8102 28.2554 32.5902 28.6954 33.416 29.0355C34.754 29.5927 36.176 29.8712 37.64 29.8712C39.104 29.8712 40.52 29.5927 41.864 29.0355C42.044 28.9585 42.224 28.8814 42.404 28.7985V43.1532V43.1532ZM44.18 19.1851C44.18 22.7294 41.24 25.6039 37.622 25.6039C35.174 25.6039 33.038 24.2941 31.91 22.3501C31.736 22.0537 31.424 21.87 31.076 21.87H31.04C30.698 21.87 30.38 22.0537 30.206 22.3501C29.6304 23.3417 28.7992 24.1652 27.797 24.7367C26.7948 25.3082 25.6572 25.6074 24.5 25.6039C22.058 25.6039 19.928 24.3 18.8 22.3619C18.62 22.0597 18.296 21.87 17.942 21.87C17.588 21.87 17.258 22.0597 17.084 22.3619C16.505 23.3498 15.6728 24.1695 14.6711 24.7387C13.6694 25.3078 12.5336 25.6062 11.378 25.6039C7.76003 25.6039 4.82003 22.7294 4.82003 19.1851V13.7799C4.82003 13.7621 4.83203 13.7502 4.85003 13.7502H44.15C44.168 13.7502 44.18 13.7621 44.18 13.7799V19.1851Z" fill="url(#paint3_linear_1165_239)"/>
<path d="M46.7 9.48885V1.89659C46.7 0.847537 45.842 0 44.78 0H4.22003C3.15803 0 2.30004 0.847537 2.30004 1.89659V9.48885C1.29804 9.54812 0.500037 10.372 0.500037 11.3795V19.1851C0.496195 20.6197 0.790253 22.0398 1.36404 23.3576C1.62204 23.9622 1.94004 24.5311 2.30004 25.0705V45.518C2.30004 46.5612 3.15803 47.4146 4.22003 47.4146H44.78C45.842 47.4146 46.7 46.5671 46.7 45.518V25.0705C47.0657 24.5298 47.379 23.9563 47.636 23.3576C48.206 22.036 48.5 20.6313 48.5 19.1851V11.3795C48.5 10.372 47.702 9.54812 46.7 9.48885ZM6.62003 4.26732H42.38V9.48293H6.62003V4.26732ZM28.34 43.1532H20.66V36.9834H28.34V43.1532ZM42.404 43.1532H32.18V35.0868C32.18 34.0378 31.322 33.1902 30.26 33.1902H18.74C17.678 33.1902 16.82 34.0378 16.82 35.0868V43.1532H6.62003V28.7985C6.79403 28.8814 6.97403 28.9644 7.16003 29.0355C8.49803 29.5927 9.92003 29.8712 11.384 29.8712C12.848 29.8712 14.264 29.5927 15.608 29.0355C16.436 28.6918 17.216 28.2532 17.93 27.7257C17.942 27.7198 17.954 27.7198 17.966 27.7257C18.6822 28.2554 19.4622 28.6954 20.288 29.0355C21.626 29.5927 23.048 29.8712 24.512 29.8712C25.976 29.8712 27.392 29.5927 28.736 29.0355C29.564 28.6918 30.344 28.2532 31.058 27.7257C31.07 27.7198 31.082 27.7198 31.094 27.7257C31.8102 28.2554 32.5902 28.6954 33.416 29.0355C34.754 29.5927 36.176 29.8712 37.64 29.8712C39.104 29.8712 40.52 29.5927 41.864 29.0355C42.044 28.9585 42.224 28.8814 42.404 28.7985V43.1532V43.1532ZM44.18 19.1851C44.18 22.7294 41.24 25.6039 37.622 25.6039C35.174 25.6039 33.038 24.2941 31.91 22.3501C31.736 22.0537 31.424 21.87 31.076 21.87H31.04C30.698 21.87 30.38 22.0537 30.206 22.3501C29.6304 23.3417 28.7992 24.1652 27.797 24.7367C26.7948 25.3082 25.6572 25.6074 24.5 25.6039C22.058 25.6039 19.928 24.3 18.8 22.3619C18.62 22.0597 18.296 21.87 17.942 21.87C17.588 21.87 17.258 22.0597 17.084 22.3619C16.505 23.3498 15.6728 24.1695 14.6711 24.7387C13.6694 25.3078 12.5336 25.6062 11.378 25.6039C7.76003 25.6039 4.82003 22.7294 4.82003 19.1851V13.7799C4.82003 13.7621 4.83203 13.7502 4.85003 13.7502H44.15C44.168 13.7502 44.18 13.7621 44.18 13.7799V19.1851Z" fill="#064372"/>
<path d="M46.7 9.48885V1.89659C46.7 0.847537 45.842 0 44.78 0H4.22003C3.15803 0 2.30004 0.847537 2.30004 1.89659V9.48885C1.29804 9.54812 0.500037 10.372 0.500037 11.3795V19.1851C0.496195 20.6197 0.790253 22.0398 1.36404 23.3576C1.62204 23.9622 1.94004 24.5311 2.30004 25.0705V45.518C2.30004 46.5612 3.15803 47.4146 4.22003 47.4146H44.78C45.842 47.4146 46.7 46.5671 46.7 45.518V25.0705C47.0657 24.5298 47.379 23.9563 47.636 23.3576C48.206 22.036 48.5 20.6313 48.5 19.1851V11.3795C48.5 10.372 47.702 9.54812 46.7 9.48885ZM6.62003 4.26732H42.38V9.48293H6.62003V4.26732ZM28.34 43.1532H20.66V36.9834H28.34V43.1532ZM42.404 43.1532H32.18V35.0868C32.18 34.0378 31.322 33.1902 30.26 33.1902H18.74C17.678 33.1902 16.82 34.0378 16.82 35.0868V43.1532H6.62003V28.7985C6.79403 28.8814 6.97403 28.9644 7.16003 29.0355C8.49803 29.5927 9.92003 29.8712 11.384 29.8712C12.848 29.8712 14.264 29.5927 15.608 29.0355C16.436 28.6918 17.216 28.2532 17.93 27.7257C17.942 27.7198 17.954 27.7198 17.966 27.7257C18.6822 28.2554 19.4622 28.6954 20.288 29.0355C21.626 29.5927 23.048 29.8712 24.512 29.8712C25.976 29.8712 27.392 29.5927 28.736 29.0355C29.564 28.6918 30.344 28.2532 31.058 27.7257C31.07 27.7198 31.082 27.7198 31.094 27.7257C31.8102 28.2554 32.5902 28.6954 33.416 29.0355C34.754 29.5927 36.176 29.8712 37.64 29.8712C39.104 29.8712 40.52 29.5927 41.864 29.0355C42.044 28.9585 42.224 28.8814 42.404 28.7985V43.1532V43.1532ZM44.18 19.1851C44.18 22.7294 41.24 25.6039 37.622 25.6039C35.174 25.6039 33.038 24.2941 31.91 22.3501C31.736 22.0537 31.424 21.87 31.076 21.87H31.04C30.698 21.87 30.38 22.0537 30.206 22.3501C29.6304 23.3417 28.7992 24.1652 27.797 24.7367C26.7948 25.3082 25.6572 25.6074 24.5 25.6039C22.058 25.6039 19.928 24.3 18.8 22.3619C18.62 22.0597 18.296 21.87 17.942 21.87C17.588 21.87 17.258 22.0597 17.084 22.3619C16.505 23.3498 15.6728 24.1695 14.6711 24.7387C13.6694 25.3078 12.5336 25.6062 11.378 25.6039C7.76003 25.6039 4.82003 22.7294 4.82003 19.1851V13.7799C4.82003 13.7621 4.83203 13.7502 4.85003 13.7502H44.15C44.168 13.7502 44.18 13.7621 44.18 13.7799V19.1851Z" fill="url(#paint4_linear_1165_239)"/>
<path d="M46.7 9.48885V1.89659C46.7 0.847537 45.842 0 44.78 0H4.22003C3.15803 0 2.30004 0.847537 2.30004 1.89659V9.48885C1.29804 9.54812 0.500037 10.372 0.500037 11.3795V19.1851C0.496195 20.6197 0.790253 22.0398 1.36404 23.3576C1.62204 23.9622 1.94004 24.5311 2.30004 25.0705V45.518C2.30004 46.5612 3.15803 47.4146 4.22003 47.4146H44.78C45.842 47.4146 46.7 46.5671 46.7 45.518V25.0705C47.0657 24.5298 47.379 23.9563 47.636 23.3576C48.206 22.036 48.5 20.6313 48.5 19.1851V11.3795C48.5 10.372 47.702 9.54812 46.7 9.48885ZM6.62003 4.26732H42.38V9.48293H6.62003V4.26732ZM28.34 43.1532H20.66V36.9834H28.34V43.1532ZM42.404 43.1532H32.18V35.0868C32.18 34.0378 31.322 33.1902 30.26 33.1902H18.74C17.678 33.1902 16.82 34.0378 16.82 35.0868V43.1532H6.62003V28.7985C6.79403 28.8814 6.97403 28.9644 7.16003 29.0355C8.49803 29.5927 9.92003 29.8712 11.384 29.8712C12.848 29.8712 14.264 29.5927 15.608 29.0355C16.436 28.6918 17.216 28.2532 17.93 27.7257C17.942 27.7198 17.954 27.7198 17.966 27.7257C18.6822 28.2554 19.4622 28.6954 20.288 29.0355C21.626 29.5927 23.048 29.8712 24.512 29.8712C25.976 29.8712 27.392 29.5927 28.736 29.0355C29.564 28.6918 30.344 28.2532 31.058 27.7257C31.07 27.7198 31.082 27.7198 31.094 27.7257C31.8102 28.2554 32.5902 28.6954 33.416 29.0355C34.754 29.5927 36.176 29.8712 37.64 29.8712C39.104 29.8712 40.52 29.5927 41.864 29.0355C42.044 28.9585 42.224 28.8814 42.404 28.7985V43.1532V43.1532ZM44.18 19.1851C44.18 22.7294 41.24 25.6039 37.622 25.6039C35.174 25.6039 33.038 24.2941 31.91 22.3501C31.736 22.0537 31.424 21.87 31.076 21.87H31.04C30.698 21.87 30.38 22.0537 30.206 22.3501C29.6304 23.3417 28.7992 24.1652 27.797 24.7367C26.7948 25.3082 25.6572 25.6074 24.5 25.6039C22.058 25.6039 19.928 24.3 18.8 22.3619C18.62 22.0597 18.296 21.87 17.942 21.87C17.588 21.87 17.258 22.0597 17.084 22.3619C16.505 23.3498 15.6728 24.1695 14.6711 24.7387C13.6694 25.3078 12.5336 25.6062 11.378 25.6039C7.76003 25.6039 4.82003 22.7294 4.82003 19.1851V13.7799C4.82003 13.7621 4.83203 13.7502 4.85003 13.7502H44.15C44.168 13.7502 44.18 13.7621 44.18 13.7799V19.1851Z" fill="#064372"/>
</g>
<defs>
<linearGradient id="paint0_linear_1165_239" x1="24.5" y1="0" x2="24.5" y2="47.4146" gradientUnits="userSpaceOnUse">
<stop stop-color="#0E3988"/>
<stop offset="1" stop-color="#FD3626"/>
</linearGradient>
<linearGradient id="paint1_linear_1165_239" x1="25.78" y1="-7.59723e-08" x2="25.78" y2="47.4146" gradientUnits="userSpaceOnUse">
<stop stop-color="#2D8B38"/>
<stop offset="1" stop-color="#0B5361"/>
</linearGradient>
<linearGradient id="paint2_linear_1165_239" x1="24.5" y1="0" x2="24.5" y2="47.4146" gradientUnits="userSpaceOnUse">
<stop stop-color="#1599FE"/>
<stop offset="1" stop-color="#06243C"/>
</linearGradient>
<linearGradient id="paint3_linear_1165_239" x1="24.5" y1="0" x2="24.5" y2="47.4146" gradientUnits="userSpaceOnUse">
<stop stop-color="#1599FE"/>
<stop offset="1" stop-color="#245276"/>
</linearGradient>
<linearGradient id="paint4_linear_1165_239" x1="26.1835" y1="47.4146" x2="26.1835" y2="-1.37042e-06" gradientUnits="userSpaceOnUse">
<stop stop-color="#064372"/>
<stop offset="1" stop-color="#2D903E"/>
</linearGradient>
<clipPath id="clip0_1165_239">
<rect width="48" height="47.4146" fill="white" transform="translate(0.5)"/>
</clipPath>
</defs>
</svg>
