<svg width="52" height="52" viewBox="0 0 52 52" fill="none" xmlns="http://www.w3.org/2000/svg">
<g clip-path="url(#clip0_1168_267)">
<path d="M18.3277 52.0002C15.405 52.0002 13.01 50.1329 12.5229 47.4538L9.19422 47.8597C8.99126 47.9003 8.7477 47.9003 8.50414 47.9003C5.66261 47.9003 3.55176 45.8707 3.55176 43.2321V9.86441C3.55176 7.18525 5.7032 5.15559 8.54473 5.15559C8.7477 5.15559 8.99126 5.15559 9.19422 5.19618L12.5229 5.56152C13.0506 2.92296 15.4456 1.05566 18.3683 1.05566C18.6525 1.05566 18.896 1.05566 19.1396 1.09626L43.3332 3.73482C46.1341 4.05957 48.4073 6.69813 48.3667 9.62085V43.1915C48.3667 46.1548 46.0935 48.7934 43.2926 49.1181L19.099 51.9596C18.8554 51.9596 18.5713 52.0002 18.3277 52.0002ZM17.7188 3.28829C16.6634 3.28829 15.4862 3.8566 15.4862 5.11499V47.9003C15.4862 49.1181 16.6228 49.6864 17.6376 49.6864C17.7594 49.6864 17.9218 49.6864 18.0436 49.6458L44.0639 46.6013C44.9975 46.4796 45.8094 45.4647 45.8094 44.4093V8.28127C45.8094 7.26644 44.9975 6.2516 44.1045 6.12982L18.0842 3.28829C17.9624 3.32889 17.8406 3.28829 17.7188 3.28829ZM7.28634 7.67237C6.71803 7.67237 5.78439 7.87534 5.78439 8.52483V44.4905C5.78439 45.3023 7.08337 45.3023 7.24575 45.3023H7.57049L12.5635 44.8558V8.1189L7.61109 7.67237H7.28634Z" fill="white"/>
<path d="M18.3277 52.0002C15.405 52.0002 13.01 50.1329 12.5229 47.4538L9.19422 47.8597C8.99126 47.9003 8.7477 47.9003 8.50414 47.9003C5.66261 47.9003 3.55176 45.8707 3.55176 43.2321V9.86441C3.55176 7.18525 5.7032 5.15559 8.54473 5.15559C8.7477 5.15559 8.99126 5.15559 9.19422 5.19618L12.5229 5.56152C13.0506 2.92296 15.4456 1.05566 18.3683 1.05566C18.6525 1.05566 18.896 1.05566 19.1396 1.09626L43.3332 3.73482C46.1341 4.05957 48.4073 6.69813 48.3667 9.62085V43.1915C48.3667 46.1548 46.0935 48.7934 43.2926 49.1181L19.099 51.9596C18.8554 51.9596 18.5713 52.0002 18.3277 52.0002ZM17.7188 3.28829C16.6634 3.28829 15.4862 3.8566 15.4862 5.11499V47.9003C15.4862 49.1181 16.6228 49.6864 17.6376 49.6864C17.7594 49.6864 17.9218 49.6864 18.0436 49.6458L44.0639 46.6013C44.9975 46.4796 45.8094 45.4647 45.8094 44.4093V8.28127C45.8094 7.26644 44.9975 6.2516 44.1045 6.12982L18.0842 3.28829C17.9624 3.32889 17.8406 3.28829 17.7188 3.28829ZM7.28634 7.67237C6.71803 7.67237 5.78439 7.87534 5.78439 8.52483V44.4905C5.78439 45.3023 7.08337 45.3023 7.24575 45.3023H7.57049L12.5635 44.8558V8.1189L7.61109 7.67237H7.28634Z" fill="white"/>
<path d="M20.0737 29.7145C19.749 29.7145 19.4648 29.4304 19.4648 29.1056V23.9097C19.4648 23.5849 19.749 23.3008 20.0737 23.3008H20.4797C20.8044 23.3008 21.0886 23.5849 21.0886 23.9097V29.1056C21.0886 29.4304 20.8044 29.7145 20.4797 29.7145H20.0737Z" fill="white"/>
<path d="M20.4791 29.6739H20.0732C19.7484 29.6739 19.5049 29.4303 19.5049 29.1056V23.9096C19.5049 23.5849 19.7484 23.3413 20.0732 23.3413H20.4791C20.8039 23.3413 21.0474 23.5849 21.0474 23.9096V29.1056C21.088 29.4303 20.8039 29.6739 20.4791 29.6739Z" fill="white"/>
</g>
<defs>
<clipPath id="clip0_1168_267">
<rect width="52" height="52" fill="white"/>
</clipPath>
</defs>
</svg>
