<svg width="49" height="45" viewBox="0 0 49 45" fill="none" xmlns="http://www.w3.org/2000/svg">
<g clip-path="url(#clip0_1165_247)">
<path d="M24.3406 20.8025C28.6448 20.8025 31.9925 17.3071 31.9925 13.0173C31.9925 8.72759 28.4854 5.39111 24.1812 5.39111C19.877 5.39111 16.5293 8.88647 16.5293 13.0173C16.5293 17.3071 20.0364 20.8025 24.3406 20.8025ZM24.1812 8.56871C24.3406 8.56871 24.3406 8.56871 24.1812 8.56871C26.7318 8.56871 28.8042 10.6342 28.8042 13.1762C28.8042 15.7183 26.7318 17.6249 24.1812 17.6249C21.6306 17.6249 19.7176 15.5594 19.7176 13.1762C19.7176 10.6342 21.79 8.56871 24.1812 8.56871V8.56871Z" fill="url(#paint0_linear_1165_247)"/>
<path d="M24.3406 20.8025C28.6448 20.8025 31.9925 17.3071 31.9925 13.0173C31.9925 8.72759 28.4854 5.39111 24.1812 5.39111C19.877 5.39111 16.5293 8.88647 16.5293 13.0173C16.5293 17.3071 20.0364 20.8025 24.3406 20.8025ZM24.1812 8.56871C24.3406 8.56871 24.3406 8.56871 24.1812 8.56871C26.7318 8.56871 28.8042 10.6342 28.8042 13.1762C28.8042 15.7183 26.7318 17.6249 24.1812 17.6249C21.6306 17.6249 19.7176 15.5594 19.7176 13.1762C19.7176 10.6342 21.79 8.56871 24.1812 8.56871V8.56871Z" fill="url(#paint1_linear_1165_247)"/>
<path d="M24.3406 20.8025C28.6448 20.8025 31.9925 17.3071 31.9925 13.0173C31.9925 8.72759 28.4854 5.39111 24.1812 5.39111C19.877 5.39111 16.5293 8.88647 16.5293 13.0173C16.5293 17.3071 20.0364 20.8025 24.3406 20.8025ZM24.1812 8.56871C24.3406 8.56871 24.3406 8.56871 24.1812 8.56871C26.7318 8.56871 28.8042 10.6342 28.8042 13.1762C28.8042 15.7183 26.7318 17.6249 24.1812 17.6249C21.6306 17.6249 19.7176 15.5594 19.7176 13.1762C19.7176 10.6342 21.79 8.56871 24.1812 8.56871V8.56871Z" fill="url(#paint2_linear_1165_247)"/>
<path d="M24.3406 20.8025C28.6448 20.8025 31.9925 17.3071 31.9925 13.0173C31.9925 8.72759 28.4854 5.39111 24.1812 5.39111C19.877 5.39111 16.5293 8.88647 16.5293 13.0173C16.5293 17.3071 20.0364 20.8025 24.3406 20.8025ZM24.1812 8.56871C24.3406 8.56871 24.3406 8.56871 24.1812 8.56871C26.7318 8.56871 28.8042 10.6342 28.8042 13.1762C28.8042 15.7183 26.7318 17.6249 24.1812 17.6249C21.6306 17.6249 19.7176 15.5594 19.7176 13.1762C19.7176 10.6342 21.79 8.56871 24.1812 8.56871V8.56871Z" fill="url(#paint3_linear_1165_247)"/>
<path d="M24.3406 20.8025C28.6448 20.8025 31.9925 17.3071 31.9925 13.0173C31.9925 8.72759 28.4854 5.39111 24.1812 5.39111C19.877 5.39111 16.5293 8.88647 16.5293 13.0173C16.5293 17.3071 20.0364 20.8025 24.3406 20.8025ZM24.1812 8.56871C24.3406 8.56871 24.3406 8.56871 24.1812 8.56871C26.7318 8.56871 28.8042 10.6342 28.8042 13.1762C28.8042 15.7183 26.7318 17.6249 24.1812 17.6249C21.6306 17.6249 19.7176 15.5594 19.7176 13.1762C19.7176 10.6342 21.79 8.56871 24.1812 8.56871V8.56871Z" fill="#064372"/>
<path d="M24.3406 20.8025C28.6448 20.8025 31.9925 17.3071 31.9925 13.0173C31.9925 8.72759 28.4854 5.39111 24.1812 5.39111C19.877 5.39111 16.5293 8.88647 16.5293 13.0173C16.5293 17.3071 20.0364 20.8025 24.3406 20.8025ZM24.1812 8.56871C24.3406 8.56871 24.3406 8.56871 24.1812 8.56871C26.7318 8.56871 28.8042 10.6342 28.8042 13.1762C28.8042 15.7183 26.7318 17.6249 24.1812 17.6249C21.6306 17.6249 19.7176 15.5594 19.7176 13.1762C19.7176 10.6342 21.79 8.56871 24.1812 8.56871V8.56871Z" fill="url(#paint4_linear_1165_247)"/>
<path d="M24.3406 20.8025C28.6448 20.8025 31.9925 17.3071 31.9925 13.0173C31.9925 8.72759 28.4854 5.39111 24.1812 5.39111C19.877 5.39111 16.5293 8.88647 16.5293 13.0173C16.5293 17.3071 20.0364 20.8025 24.3406 20.8025ZM24.1812 8.56871C24.3406 8.56871 24.3406 8.56871 24.1812 8.56871C26.7318 8.56871 28.8042 10.6342 28.8042 13.1762C28.8042 15.7183 26.7318 17.6249 24.1812 17.6249C21.6306 17.6249 19.7176 15.5594 19.7176 13.1762C19.7176 10.6342 21.79 8.56871 24.1812 8.56871V8.56871Z" fill="#064372"/>
<path d="M47.9335 19.8487C44.9046 17.1477 40.9193 15.7178 36.7745 15.8767H35.4992C35.1804 17.1477 34.7021 18.2599 34.0645 19.2132C35.0209 19.0543 35.818 19.0543 36.7745 19.0543C39.8034 18.8954 42.8323 19.8487 45.2235 21.5964V33.0357H48.4118V20.3253L47.9335 19.8487Z" fill="url(#paint5_linear_1165_247)"/>
<path d="M47.9335 19.8487C44.9046 17.1477 40.9193 15.7178 36.7745 15.8767H35.4992C35.1804 17.1477 34.7021 18.2599 34.0645 19.2132C35.0209 19.0543 35.818 19.0543 36.7745 19.0543C39.8034 18.8954 42.8323 19.8487 45.2235 21.5964V33.0357H48.4118V20.3253L47.9335 19.8487Z" fill="url(#paint6_linear_1165_247)"/>
<path d="M47.9335 19.8487C44.9046 17.1477 40.9193 15.7178 36.7745 15.8767H35.4992C35.1804 17.1477 34.7021 18.2599 34.0645 19.2132C35.0209 19.0543 35.818 19.0543 36.7745 19.0543C39.8034 18.8954 42.8323 19.8487 45.2235 21.5964V33.0357H48.4118V20.3253L47.9335 19.8487Z" fill="url(#paint7_linear_1165_247)"/>
<path d="M47.9335 19.8487C44.9046 17.1477 40.9193 15.7178 36.7745 15.8767H35.4992C35.1804 17.1477 34.7021 18.2599 34.0645 19.2132C35.0209 19.0543 35.818 19.0543 36.7745 19.0543C39.8034 18.8954 42.8323 19.8487 45.2235 21.5964V33.0357H48.4118V20.3253L47.9335 19.8487Z" fill="url(#paint8_linear_1165_247)"/>
<path d="M47.9335 19.8487C44.9046 17.1477 40.9193 15.7178 36.7745 15.8767H35.4992C35.1804 17.1477 34.7021 18.2599 34.0645 19.2132C35.0209 19.0543 35.818 19.0543 36.7745 19.0543C39.8034 18.8954 42.8323 19.8487 45.2235 21.5964V33.0357H48.4118V20.3253L47.9335 19.8487Z" fill="#064372"/>
<path d="M47.9335 19.8487C44.9046 17.1477 40.9193 15.7178 36.7745 15.8767H35.4992C35.1804 17.1477 34.7021 18.2599 34.0645 19.2132C35.0209 19.0543 35.818 19.0543 36.7745 19.0543C39.8034 18.8954 42.8323 19.8487 45.2235 21.5964V33.0357H48.4118V20.3253L47.9335 19.8487Z" fill="url(#paint9_linear_1165_247)"/>
<path d="M47.9335 19.8487C44.9046 17.1477 40.9193 15.7178 36.7745 15.8767H35.4992C35.1804 17.1477 34.7021 18.2599 34.0645 19.2132C35.0209 19.0543 35.818 19.0543 36.7745 19.0543C39.8034 18.8954 42.8323 19.8487 45.2235 21.5964V33.0357H48.4118V20.3253L47.9335 19.8487Z" fill="#064372"/>
<path d="M33.1088 5.70826C33.9058 3.8017 36.1376 2.84842 38.21 3.64282C40.123 4.43722 41.0795 6.66154 40.2824 8.72697C39.6448 10.1569 38.21 11.1102 36.7753 11.1102C36.4565 11.1102 35.9782 11.1102 35.6594 10.9513C35.8188 11.7457 35.8188 12.5401 35.8188 13.1756V14.1289C36.1376 14.1289 36.4565 14.2878 36.7753 14.2878C40.7607 14.2878 43.949 11.1102 43.949 7.29706C43.949 3.32506 40.7607 0.147461 36.9347 0.147461C34.3841 0.147461 32.1523 1.4185 30.877 3.64282C31.674 4.11946 32.4711 4.75498 33.1088 5.70826V5.70826Z" fill="url(#paint10_linear_1165_247)"/>
<path d="M33.1088 5.70826C33.9058 3.8017 36.1376 2.84842 38.21 3.64282C40.123 4.43722 41.0795 6.66154 40.2824 8.72697C39.6448 10.1569 38.21 11.1102 36.7753 11.1102C36.4565 11.1102 35.9782 11.1102 35.6594 10.9513C35.8188 11.7457 35.8188 12.5401 35.8188 13.1756V14.1289C36.1376 14.1289 36.4565 14.2878 36.7753 14.2878C40.7607 14.2878 43.949 11.1102 43.949 7.29706C43.949 3.32506 40.7607 0.147461 36.9347 0.147461C34.3841 0.147461 32.1523 1.4185 30.877 3.64282C31.674 4.11946 32.4711 4.75498 33.1088 5.70826V5.70826Z" fill="url(#paint11_linear_1165_247)"/>
<path d="M33.1088 5.70826C33.9058 3.8017 36.1376 2.84842 38.21 3.64282C40.123 4.43722 41.0795 6.66154 40.2824 8.72697C39.6448 10.1569 38.21 11.1102 36.7753 11.1102C36.4565 11.1102 35.9782 11.1102 35.6594 10.9513C35.8188 11.7457 35.8188 12.5401 35.8188 13.1756V14.1289C36.1376 14.1289 36.4565 14.2878 36.7753 14.2878C40.7607 14.2878 43.949 11.1102 43.949 7.29706C43.949 3.32506 40.7607 0.147461 36.9347 0.147461C34.3841 0.147461 32.1523 1.4185 30.877 3.64282C31.674 4.11946 32.4711 4.75498 33.1088 5.70826V5.70826Z" fill="url(#paint12_linear_1165_247)"/>
<path d="M33.1088 5.70826C33.9058 3.8017 36.1376 2.84842 38.21 3.64282C40.123 4.43722 41.0795 6.66154 40.2824 8.72697C39.6448 10.1569 38.21 11.1102 36.7753 11.1102C36.4565 11.1102 35.9782 11.1102 35.6594 10.9513C35.8188 11.7457 35.8188 12.5401 35.8188 13.1756V14.1289C36.1376 14.1289 36.4565 14.2878 36.7753 14.2878C40.7607 14.2878 43.949 11.1102 43.949 7.29706C43.949 3.32506 40.7607 0.147461 36.9347 0.147461C34.3841 0.147461 32.1523 1.4185 30.877 3.64282C31.674 4.11946 32.4711 4.75498 33.1088 5.70826V5.70826Z" fill="url(#paint13_linear_1165_247)"/>
<path d="M33.1088 5.70826C33.9058 3.8017 36.1376 2.84842 38.21 3.64282C40.123 4.43722 41.0795 6.66154 40.2824 8.72697C39.6448 10.1569 38.21 11.1102 36.7753 11.1102C36.4565 11.1102 35.9782 11.1102 35.6594 10.9513C35.8188 11.7457 35.8188 12.5401 35.8188 13.1756V14.1289C36.1376 14.1289 36.4565 14.2878 36.7753 14.2878C40.7607 14.2878 43.949 11.1102 43.949 7.29706C43.949 3.32506 40.7607 0.147461 36.9347 0.147461C34.3841 0.147461 32.1523 1.4185 30.877 3.64282C31.674 4.11946 32.4711 4.75498 33.1088 5.70826V5.70826Z" fill="#064372"/>
<path d="M33.1088 5.70826C33.9058 3.8017 36.1376 2.84842 38.21 3.64282C40.123 4.43722 41.0795 6.66154 40.2824 8.72697C39.6448 10.1569 38.21 11.1102 36.7753 11.1102C36.4565 11.1102 35.9782 11.1102 35.6594 10.9513C35.8188 11.7457 35.8188 12.5401 35.8188 13.1756V14.1289C36.1376 14.1289 36.4565 14.2878 36.7753 14.2878C40.7607 14.2878 43.949 11.1102 43.949 7.29706C43.949 3.32506 40.7607 0.147461 36.9347 0.147461C34.3841 0.147461 32.1523 1.4185 30.877 3.64282C31.674 4.11946 32.4711 4.75498 33.1088 5.70826V5.70826Z" fill="url(#paint14_linear_1165_247)"/>
<path d="M33.1088 5.70826C33.9058 3.8017 36.1376 2.84842 38.21 3.64282C40.123 4.43722 41.0795 6.66154 40.2824 8.72697C39.6448 10.1569 38.21 11.1102 36.7753 11.1102C36.4565 11.1102 35.9782 11.1102 35.6594 10.9513C35.8188 11.7457 35.8188 12.5401 35.8188 13.1756V14.1289C36.1376 14.1289 36.4565 14.2878 36.7753 14.2878C40.7607 14.2878 43.949 11.1102 43.949 7.29706C43.949 3.32506 40.7607 0.147461 36.9347 0.147461C34.3841 0.147461 32.1523 1.4185 30.877 3.64282C31.674 4.11946 32.4711 4.75498 33.1088 5.70826V5.70826Z" fill="#064372"/>
<path d="M14.9352 19.3724C14.2975 18.4191 13.8193 17.3069 13.5005 16.0359H12.2252C8.08037 15.877 4.09501 17.3069 1.06613 19.849L0.587891 20.3257V33.0361H3.77618V21.5967C6.32681 19.849 9.19628 18.8957 12.2252 19.0546C13.1816 19.0546 14.1381 19.2135 14.9352 19.3724Z" fill="url(#paint15_linear_1165_247)"/>
<path d="M14.9352 19.3724C14.2975 18.4191 13.8193 17.3069 13.5005 16.0359H12.2252C8.08037 15.877 4.09501 17.3069 1.06613 19.849L0.587891 20.3257V33.0361H3.77618V21.5967C6.32681 19.849 9.19628 18.8957 12.2252 19.0546C13.1816 19.0546 14.1381 19.2135 14.9352 19.3724Z" fill="url(#paint16_linear_1165_247)"/>
<path d="M14.9352 19.3724C14.2975 18.4191 13.8193 17.3069 13.5005 16.0359H12.2252C8.08037 15.877 4.09501 17.3069 1.06613 19.849L0.587891 20.3257V33.0361H3.77618V21.5967C6.32681 19.849 9.19628 18.8957 12.2252 19.0546C13.1816 19.0546 14.1381 19.2135 14.9352 19.3724Z" fill="url(#paint17_linear_1165_247)"/>
<path d="M14.9352 19.3724C14.2975 18.4191 13.8193 17.3069 13.5005 16.0359H12.2252C8.08037 15.877 4.09501 17.3069 1.06613 19.849L0.587891 20.3257V33.0361H3.77618V21.5967C6.32681 19.849 9.19628 18.8957 12.2252 19.0546C13.1816 19.0546 14.1381 19.2135 14.9352 19.3724Z" fill="url(#paint18_linear_1165_247)"/>
<path d="M14.9352 19.3724C14.2975 18.4191 13.8193 17.3069 13.5005 16.0359H12.2252C8.08037 15.877 4.09501 17.3069 1.06613 19.849L0.587891 20.3257V33.0361H3.77618V21.5967C6.32681 19.849 9.19628 18.8957 12.2252 19.0546C13.1816 19.0546 14.1381 19.2135 14.9352 19.3724Z" fill="#064372"/>
<path d="M14.9352 19.3724C14.2975 18.4191 13.8193 17.3069 13.5005 16.0359H12.2252C8.08037 15.877 4.09501 17.3069 1.06613 19.849L0.587891 20.3257V33.0361H3.77618V21.5967C6.32681 19.849 9.19628 18.8957 12.2252 19.0546C13.1816 19.0546 14.1381 19.2135 14.9352 19.3724Z" fill="url(#paint19_linear_1165_247)"/>
<path d="M14.9352 19.3724C14.2975 18.4191 13.8193 17.3069 13.5005 16.0359H12.2252C8.08037 15.877 4.09501 17.3069 1.06613 19.849L0.587891 20.3257V33.0361H3.77618V21.5967C6.32681 19.849 9.19628 18.8957 12.2252 19.0546C13.1816 19.0546 14.1381 19.2135 14.9352 19.3724Z" fill="#064372"/>
<path d="M12.2246 14.1295C12.5435 14.1295 12.8623 14.1295 13.1811 13.9706V13.0174C13.1811 12.223 13.1811 11.4286 13.3405 10.793C13.0217 10.9519 12.5435 10.9519 12.2246 10.9519C10.1522 10.9519 8.39869 9.20424 8.39869 7.1388C8.39869 5.07336 10.1522 3.32568 12.2246 3.32568C13.8188 3.32568 15.2535 4.27896 15.8912 5.70888C16.5288 4.91448 17.4853 4.12008 18.2824 3.48456C16.21 0.148085 11.9058 -0.964075 8.5581 1.10136C5.2104 3.1668 4.09449 7.45656 6.16688 10.793C7.4422 12.8585 9.674 14.1295 12.2246 14.1295V14.1295Z" fill="url(#paint20_linear_1165_247)"/>
<path d="M12.2246 14.1295C12.5435 14.1295 12.8623 14.1295 13.1811 13.9706V13.0174C13.1811 12.223 13.1811 11.4286 13.3405 10.793C13.0217 10.9519 12.5435 10.9519 12.2246 10.9519C10.1522 10.9519 8.39869 9.20424 8.39869 7.1388C8.39869 5.07336 10.1522 3.32568 12.2246 3.32568C13.8188 3.32568 15.2535 4.27896 15.8912 5.70888C16.5288 4.91448 17.4853 4.12008 18.2824 3.48456C16.21 0.148085 11.9058 -0.964075 8.5581 1.10136C5.2104 3.1668 4.09449 7.45656 6.16688 10.793C7.4422 12.8585 9.674 14.1295 12.2246 14.1295V14.1295Z" fill="url(#paint21_linear_1165_247)"/>
<path d="M12.2246 14.1295C12.5435 14.1295 12.8623 14.1295 13.1811 13.9706V13.0174C13.1811 12.223 13.1811 11.4286 13.3405 10.793C13.0217 10.9519 12.5435 10.9519 12.2246 10.9519C10.1522 10.9519 8.39869 9.20424 8.39869 7.1388C8.39869 5.07336 10.1522 3.32568 12.2246 3.32568C13.8188 3.32568 15.2535 4.27896 15.8912 5.70888C16.5288 4.91448 17.4853 4.12008 18.2824 3.48456C16.21 0.148085 11.9058 -0.964075 8.5581 1.10136C5.2104 3.1668 4.09449 7.45656 6.16688 10.793C7.4422 12.8585 9.674 14.1295 12.2246 14.1295V14.1295Z" fill="url(#paint22_linear_1165_247)"/>
<path d="M12.2246 14.1295C12.5435 14.1295 12.8623 14.1295 13.1811 13.9706V13.0174C13.1811 12.223 13.1811 11.4286 13.3405 10.793C13.0217 10.9519 12.5435 10.9519 12.2246 10.9519C10.1522 10.9519 8.39869 9.20424 8.39869 7.1388C8.39869 5.07336 10.1522 3.32568 12.2246 3.32568C13.8188 3.32568 15.2535 4.27896 15.8912 5.70888C16.5288 4.91448 17.4853 4.12008 18.2824 3.48456C16.21 0.148085 11.9058 -0.964075 8.5581 1.10136C5.2104 3.1668 4.09449 7.45656 6.16688 10.793C7.4422 12.8585 9.674 14.1295 12.2246 14.1295V14.1295Z" fill="url(#paint23_linear_1165_247)"/>
<path d="M12.2246 14.1295C12.5435 14.1295 12.8623 14.1295 13.1811 13.9706V13.0174C13.1811 12.223 13.1811 11.4286 13.3405 10.793C13.0217 10.9519 12.5435 10.9519 12.2246 10.9519C10.1522 10.9519 8.39869 9.20424 8.39869 7.1388C8.39869 5.07336 10.1522 3.32568 12.2246 3.32568C13.8188 3.32568 15.2535 4.27896 15.8912 5.70888C16.5288 4.91448 17.4853 4.12008 18.2824 3.48456C16.21 0.148085 11.9058 -0.964075 8.5581 1.10136C5.2104 3.1668 4.09449 7.45656 6.16688 10.793C7.4422 12.8585 9.674 14.1295 12.2246 14.1295V14.1295Z" fill="#064372"/>
<path d="M12.2246 14.1295C12.5435 14.1295 12.8623 14.1295 13.1811 13.9706V13.0174C13.1811 12.223 13.1811 11.4286 13.3405 10.793C13.0217 10.9519 12.5435 10.9519 12.2246 10.9519C10.1522 10.9519 8.39869 9.20424 8.39869 7.1388C8.39869 5.07336 10.1522 3.32568 12.2246 3.32568C13.8188 3.32568 15.2535 4.27896 15.8912 5.70888C16.5288 4.91448 17.4853 4.12008 18.2824 3.48456C16.21 0.148085 11.9058 -0.964075 8.5581 1.10136C5.2104 3.1668 4.09449 7.45656 6.16688 10.793C7.4422 12.8585 9.674 14.1295 12.2246 14.1295V14.1295Z" fill="url(#paint24_linear_1165_247)"/>
<path d="M12.2246 14.1295C12.5435 14.1295 12.8623 14.1295 13.1811 13.9706V13.0174C13.1811 12.223 13.1811 11.4286 13.3405 10.793C13.0217 10.9519 12.5435 10.9519 12.2246 10.9519C10.1522 10.9519 8.39869 9.20424 8.39869 7.1388C8.39869 5.07336 10.1522 3.32568 12.2246 3.32568C13.8188 3.32568 15.2535 4.27896 15.8912 5.70888C16.5288 4.91448 17.4853 4.12008 18.2824 3.48456C16.21 0.148085 11.9058 -0.964075 8.5581 1.10136C5.2104 3.1668 4.09449 7.45656 6.16688 10.793C7.4422 12.8585 9.674 14.1295 12.2246 14.1295V14.1295Z" fill="#064372"/>
<path d="M37.4128 29.3817L37.094 28.9051C33.9057 25.4097 29.4421 23.3443 24.6596 23.5032C19.8772 23.3443 15.2542 25.4097 12.0659 28.9051L11.7471 29.3817V41.4566C11.7471 42.8865 12.863 44.1576 14.4571 44.1576H34.8622C36.2969 44.1576 37.5722 42.8865 37.5722 41.4566V29.3817H37.4128ZM34.2245 40.98H14.9354V30.4939C17.486 27.9518 20.9931 26.6808 24.6596 26.6808C28.1668 26.5219 31.6739 27.9518 34.2245 30.4939V40.98Z" fill="url(#paint25_linear_1165_247)"/>
<path d="M37.4128 29.3817L37.094 28.9051C33.9057 25.4097 29.4421 23.3443 24.6596 23.5032C19.8772 23.3443 15.2542 25.4097 12.0659 28.9051L11.7471 29.3817V41.4566C11.7471 42.8865 12.863 44.1576 14.4571 44.1576H34.8622C36.2969 44.1576 37.5722 42.8865 37.5722 41.4566V29.3817H37.4128ZM34.2245 40.98H14.9354V30.4939C17.486 27.9518 20.9931 26.6808 24.6596 26.6808C28.1668 26.5219 31.6739 27.9518 34.2245 30.4939V40.98Z" fill="url(#paint26_linear_1165_247)"/>
<path d="M37.4128 29.3817L37.094 28.9051C33.9057 25.4097 29.4421 23.3443 24.6596 23.5032C19.8772 23.3443 15.2542 25.4097 12.0659 28.9051L11.7471 29.3817V41.4566C11.7471 42.8865 12.863 44.1576 14.4571 44.1576H34.8622C36.2969 44.1576 37.5722 42.8865 37.5722 41.4566V29.3817H37.4128ZM34.2245 40.98H14.9354V30.4939C17.486 27.9518 20.9931 26.6808 24.6596 26.6808C28.1668 26.5219 31.6739 27.9518 34.2245 30.4939V40.98Z" fill="url(#paint27_linear_1165_247)"/>
<path d="M37.4128 29.3817L37.094 28.9051C33.9057 25.4097 29.4421 23.3443 24.6596 23.5032C19.8772 23.3443 15.2542 25.4097 12.0659 28.9051L11.7471 29.3817V41.4566C11.7471 42.8865 12.863 44.1576 14.4571 44.1576H34.8622C36.2969 44.1576 37.5722 42.8865 37.5722 41.4566V29.3817H37.4128ZM34.2245 40.98H14.9354V30.4939C17.486 27.9518 20.9931 26.6808 24.6596 26.6808C28.1668 26.5219 31.6739 27.9518 34.2245 30.4939V40.98Z" fill="url(#paint28_linear_1165_247)"/>
<path d="M37.4128 29.3817L37.094 28.9051C33.9057 25.4097 29.4421 23.3443 24.6596 23.5032C19.8772 23.3443 15.2542 25.4097 12.0659 28.9051L11.7471 29.3817V41.4566C11.7471 42.8865 12.863 44.1576 14.4571 44.1576H34.8622C36.2969 44.1576 37.5722 42.8865 37.5722 41.4566V29.3817H37.4128ZM34.2245 40.98H14.9354V30.4939C17.486 27.9518 20.9931 26.6808 24.6596 26.6808C28.1668 26.5219 31.6739 27.9518 34.2245 30.4939V40.98Z" fill="#064372"/>
<path d="M37.4128 29.3817L37.094 28.9051C33.9057 25.4097 29.4421 23.3443 24.6596 23.5032C19.8772 23.3443 15.2542 25.4097 12.0659 28.9051L11.7471 29.3817V41.4566C11.7471 42.8865 12.863 44.1576 14.4571 44.1576H34.8622C36.2969 44.1576 37.5722 42.8865 37.5722 41.4566V29.3817H37.4128ZM34.2245 40.98H14.9354V30.4939C17.486 27.9518 20.9931 26.6808 24.6596 26.6808C28.1668 26.5219 31.6739 27.9518 34.2245 30.4939V40.98Z" fill="url(#paint29_linear_1165_247)"/>
<path d="M37.4128 29.3817L37.094 28.9051C33.9057 25.4097 29.4421 23.3443 24.6596 23.5032C19.8772 23.3443 15.2542 25.4097 12.0659 28.9051L11.7471 29.3817V41.4566C11.7471 42.8865 12.863 44.1576 14.4571 44.1576H34.8622C36.2969 44.1576 37.5722 42.8865 37.5722 41.4566V29.3817H37.4128ZM34.2245 40.98H14.9354V30.4939C17.486 27.9518 20.9931 26.6808 24.6596 26.6808C28.1668 26.5219 31.6739 27.9518 34.2245 30.4939V40.98Z" fill="#064372"/>
</g>
<defs>
<linearGradient id="paint0_linear_1165_247" x1="24.2609" y1="5.39111" x2="24.2609" y2="20.8025" gradientUnits="userSpaceOnUse">
<stop stop-color="#0E3988"/>
<stop offset="1" stop-color="#FD3626"/>
</linearGradient>
<linearGradient id="paint1_linear_1165_247" x1="24.6733" y1="5.39111" x2="24.6733" y2="20.8025" gradientUnits="userSpaceOnUse">
<stop stop-color="#2D8B38"/>
<stop offset="1" stop-color="#0B5361"/>
</linearGradient>
<linearGradient id="paint2_linear_1165_247" x1="24.2609" y1="5.39111" x2="24.2609" y2="20.8025" gradientUnits="userSpaceOnUse">
<stop stop-color="#1599FE"/>
<stop offset="1" stop-color="#06243C"/>
</linearGradient>
<linearGradient id="paint3_linear_1165_247" x1="24.2609" y1="5.39111" x2="24.2609" y2="20.8025" gradientUnits="userSpaceOnUse">
<stop stop-color="#1599FE"/>
<stop offset="1" stop-color="#245276"/>
</linearGradient>
<linearGradient id="paint4_linear_1165_247" x1="24.8032" y1="20.8025" x2="24.8032" y2="5.39111" gradientUnits="userSpaceOnUse">
<stop stop-color="#064372"/>
<stop offset="1" stop-color="#2D903E"/>
</linearGradient>
<linearGradient id="paint5_linear_1165_247" x1="41.2381" y1="15.8647" x2="41.2381" y2="33.0357" gradientUnits="userSpaceOnUse">
<stop stop-color="#0E3988"/>
<stop offset="1" stop-color="#FD3626"/>
</linearGradient>
<linearGradient id="paint6_linear_1165_247" x1="41.6207" y1="15.8647" x2="41.6207" y2="33.0357" gradientUnits="userSpaceOnUse">
<stop stop-color="#2D8B38"/>
<stop offset="1" stop-color="#0B5361"/>
</linearGradient>
<linearGradient id="paint7_linear_1165_247" x1="41.2381" y1="15.8647" x2="41.2381" y2="33.0357" gradientUnits="userSpaceOnUse">
<stop stop-color="#1599FE"/>
<stop offset="1" stop-color="#06243C"/>
</linearGradient>
<linearGradient id="paint8_linear_1165_247" x1="41.2381" y1="15.8647" x2="41.2381" y2="33.0357" gradientUnits="userSpaceOnUse">
<stop stop-color="#1599FE"/>
<stop offset="1" stop-color="#245276"/>
</linearGradient>
<linearGradient id="paint9_linear_1165_247" x1="41.7413" y1="33.0357" x2="41.7413" y2="15.8647" gradientUnits="userSpaceOnUse">
<stop stop-color="#064372"/>
<stop offset="1" stop-color="#2D903E"/>
</linearGradient>
<linearGradient id="paint10_linear_1165_247" x1="37.413" y1="0.147461" x2="37.413" y2="14.2878" gradientUnits="userSpaceOnUse">
<stop stop-color="#0E3988"/>
<stop offset="1" stop-color="#FD3626"/>
</linearGradient>
<linearGradient id="paint11_linear_1165_247" x1="37.7615" y1="0.147461" x2="37.7615" y2="14.2878" gradientUnits="userSpaceOnUse">
<stop stop-color="#2D8B38"/>
<stop offset="1" stop-color="#0B5361"/>
</linearGradient>
<linearGradient id="paint12_linear_1165_247" x1="37.413" y1="0.147461" x2="37.413" y2="14.2878" gradientUnits="userSpaceOnUse">
<stop stop-color="#1599FE"/>
<stop offset="1" stop-color="#06243C"/>
</linearGradient>
<linearGradient id="paint13_linear_1165_247" x1="37.413" y1="0.147461" x2="37.413" y2="14.2878" gradientUnits="userSpaceOnUse">
<stop stop-color="#1599FE"/>
<stop offset="1" stop-color="#245276"/>
</linearGradient>
<linearGradient id="paint14_linear_1165_247" x1="37.8714" y1="14.2878" x2="37.8714" y2="0.147461" gradientUnits="userSpaceOnUse">
<stop stop-color="#064372"/>
<stop offset="1" stop-color="#2D903E"/>
</linearGradient>
<linearGradient id="paint15_linear_1165_247" x1="7.76154" y1="16.0239" x2="7.76154" y2="33.0361" gradientUnits="userSpaceOnUse">
<stop stop-color="#0E3988"/>
<stop offset="1" stop-color="#FD3626"/>
</linearGradient>
<linearGradient id="paint16_linear_1165_247" x1="8.14414" y1="16.0239" x2="8.14414" y2="33.0361" gradientUnits="userSpaceOnUse">
<stop stop-color="#2D8B38"/>
<stop offset="1" stop-color="#0B5361"/>
</linearGradient>
<linearGradient id="paint17_linear_1165_247" x1="7.76154" y1="16.0239" x2="7.76154" y2="33.0361" gradientUnits="userSpaceOnUse">
<stop stop-color="#1599FE"/>
<stop offset="1" stop-color="#06243C"/>
</linearGradient>
<linearGradient id="paint18_linear_1165_247" x1="7.76154" y1="16.0239" x2="7.76154" y2="33.0361" gradientUnits="userSpaceOnUse">
<stop stop-color="#1599FE"/>
<stop offset="1" stop-color="#245276"/>
</linearGradient>
<linearGradient id="paint19_linear_1165_247" x1="8.26475" y1="33.0361" x2="8.26475" y2="16.0239" gradientUnits="userSpaceOnUse">
<stop stop-color="#064372"/>
<stop offset="1" stop-color="#2D903E"/>
</linearGradient>
<linearGradient id="paint20_linear_1165_247" x1="11.7017" y1="0.059082" x2="11.7017" y2="14.1295" gradientUnits="userSpaceOnUse">
<stop stop-color="#0E3988"/>
<stop offset="1" stop-color="#FD3626"/>
</linearGradient>
<linearGradient id="paint21_linear_1165_247" x1="12.0527" y1="0.059082" x2="12.0527" y2="14.1295" gradientUnits="userSpaceOnUse">
<stop stop-color="#2D8B38"/>
<stop offset="1" stop-color="#0B5361"/>
</linearGradient>
<linearGradient id="paint22_linear_1165_247" x1="11.7017" y1="0.059082" x2="11.7017" y2="14.1295" gradientUnits="userSpaceOnUse">
<stop stop-color="#1599FE"/>
<stop offset="1" stop-color="#06243C"/>
</linearGradient>
<linearGradient id="paint23_linear_1165_247" x1="11.7017" y1="0.059082" x2="11.7017" y2="14.1295" gradientUnits="userSpaceOnUse">
<stop stop-color="#1599FE"/>
<stop offset="1" stop-color="#245276"/>
</linearGradient>
<linearGradient id="paint24_linear_1165_247" x1="12.1634" y1="14.1295" x2="12.1634" y2="0.0590816" gradientUnits="userSpaceOnUse">
<stop stop-color="#064372"/>
<stop offset="1" stop-color="#2D903E"/>
</linearGradient>
<linearGradient id="paint25_linear_1165_247" x1="24.6596" y1="23.4946" x2="24.6596" y2="44.1576" gradientUnits="userSpaceOnUse">
<stop stop-color="#0E3988"/>
<stop offset="1" stop-color="#FD3626"/>
</linearGradient>
<linearGradient id="paint26_linear_1165_247" x1="25.3483" y1="23.4946" x2="25.3483" y2="44.1576" gradientUnits="userSpaceOnUse">
<stop stop-color="#2D8B38"/>
<stop offset="1" stop-color="#0B5361"/>
</linearGradient>
<linearGradient id="paint27_linear_1165_247" x1="24.6596" y1="23.4946" x2="24.6596" y2="44.1576" gradientUnits="userSpaceOnUse">
<stop stop-color="#1599FE"/>
<stop offset="1" stop-color="#06243C"/>
</linearGradient>
<linearGradient id="paint28_linear_1165_247" x1="24.6596" y1="23.4946" x2="24.6596" y2="44.1576" gradientUnits="userSpaceOnUse">
<stop stop-color="#1599FE"/>
<stop offset="1" stop-color="#245276"/>
</linearGradient>
<linearGradient id="paint29_linear_1165_247" x1="25.5654" y1="44.1576" x2="25.5654" y2="23.4946" gradientUnits="userSpaceOnUse">
<stop stop-color="#064372"/>
<stop offset="1" stop-color="#2D903E"/>
</linearGradient>
<clipPath id="clip0_1165_247">
<rect width="48" height="44.2105" fill="white" transform="translate(0.5)"/>
</clipPath>
</defs>
</svg>
