<svg width="76" height="76" viewBox="0 0 76 76" fill="none" xmlns="http://www.w3.org/2000/svg">
<path d="M37.131 54.156C36.8175 53.4673 36.1683 52.9647 35.3827 52.8754C34.7173 52.7994 34.066 52.6569 33.4466 52.4514C33.1688 52.358 32.9082 52.256 32.6669 52.1468L33.0678 51.0539C33.3509 51.1803 33.6426 51.2959 33.9412 51.4004L33.9535 51.4048L33.9662 51.4089C34.9244 51.7256 35.8675 51.8861 36.7684 51.8861C37.6731 51.8861 38.3289 51.7649 38.8327 51.5049L38.8628 51.4894L38.8923 51.4723C39.6554 51.0343 40.0934 50.2816 40.0934 49.4066C40.0934 48.4358 39.5696 47.6298 38.656 47.1944C38.1966 46.9708 37.5439 46.7574 36.6037 46.5237C35.6395 46.2799 34.8294 46.0212 34.2012 45.7561C33.742 45.5484 33.3436 45.2168 32.9845 44.7428C32.6755 44.3197 32.519 43.6835 32.519 42.851C32.519 41.8465 32.8018 41.0175 33.3839 40.3164C33.9019 39.7021 34.6375 39.2847 35.6249 39.0507C36.3574 38.8772 36.9286 38.3543 37.1854 37.6792C37.4758 38.3635 38.0936 38.8724 38.8625 38.995C39.5047 39.0972 40.0943 39.2603 40.6244 39.481L40.2555 40.552C39.2545 40.1502 38.2694 39.9472 37.3165 39.9472C34.1521 39.9472 33.9919 42.1303 33.9919 42.5679C33.9919 43.5166 34.5042 44.3121 35.3975 44.7507L35.4226 44.763L35.4479 44.7744C35.8991 44.9758 36.5394 45.17 37.4635 45.3853C38.4189 45.6013 39.2156 45.8486 39.8416 46.1228L39.8546 46.1285L39.8676 46.1339C40.3325 46.3274 40.7312 46.6504 41.0865 47.1216L41.0922 47.1289L41.0979 47.1365C41.4085 47.538 41.5662 48.159 41.5662 48.9823C41.5662 49.9326 41.291 50.737 40.7248 51.4415C40.2337 52.0527 39.5481 52.4758 38.6282 52.7348C37.9179 52.9349 37.3669 53.478 37.131 54.156Z" fill="white"/>
<path d="M37.932 57H36.4072C36.0662 57 35.7897 56.7166 35.7897 56.3667V55.0952C35.7897 54.7608 35.5361 54.486 35.2118 54.4489C34.4398 54.3612 33.6931 54.1975 32.9714 53.9581C32.2703 53.7219 31.6629 53.4419 31.1492 53.1173C30.9131 52.9682 30.8272 52.6655 30.9248 52.3995L31.9707 49.5476C32.1116 49.1638 32.5661 49.0168 32.916 49.2154C33.3884 49.483 33.8964 49.7119 34.4391 49.9019C35.2482 50.1692 36.0247 50.3028 36.7682 50.3028C37.4076 50.3028 37.8645 50.2322 38.1384 50.0906C38.4124 49.9333 38.5495 49.7053 38.5495 49.4066C38.5495 49.0608 38.3668 48.8015 38.0013 48.6286C37.6492 48.4557 37.0618 48.267 36.24 48.0627C35.183 47.7954 34.3023 47.5123 33.5978 47.2137C32.8932 46.8993 32.2798 46.3961 31.7579 45.7045C31.2359 44.9971 30.975 44.0458 30.975 42.851C30.975 41.4675 31.386 40.2806 32.2079 39.2901C32.9489 38.4117 33.9717 37.8176 35.277 37.5082C35.5709 37.4385 35.7897 37.177 35.7897 36.8679V35.4667C35.7897 35.1167 36.0662 34.8333 36.4072 34.8333H37.932C38.273 34.8333 38.5495 35.1167 38.5495 35.4667V36.7878C38.5495 37.1114 38.7876 37.3809 39.0992 37.4306C40.2427 37.6127 41.2475 37.9576 42.1132 38.4652C42.359 38.6093 42.4565 38.9158 42.3621 39.1894L41.3833 42.0296C41.2538 42.4061 40.8216 42.5654 40.4739 42.3855C39.3712 41.8155 38.3189 41.5305 37.3164 41.5305C36.1289 41.5305 35.5351 41.8763 35.5351 42.5679C35.5351 42.8982 35.7115 43.1496 36.0636 43.3228C36.4161 43.4799 36.9965 43.6528 37.8056 43.8415C38.8494 44.0775 39.7303 44.3523 40.4479 44.6668C41.1655 44.9654 41.7852 45.4607 42.3074 46.1526C42.8422 46.8442 43.1098 47.7875 43.1098 48.9823C43.1098 50.3028 42.7117 51.4583 41.9156 52.4489C41.2225 53.3121 40.2626 53.9163 39.0368 54.2618C38.755 54.3413 38.5495 54.5971 38.5495 54.8967V56.3667C38.5495 56.7166 38.273 57 37.932 57Z" fill="white"/>
<path fill-rule="evenodd" clip-rule="evenodd" d="M30.3758 15.8333H43.7446C47.1688 15.8333 45.2884 21.1027 43.902 24.3168L42.3244 28.0028L42.1113 28.5C43.6056 28.4256 45.0835 28.85 46.3226 29.7097C50.9583 34.06 54.7206 39.2977 57.3977 45.1282C58.4408 47.284 58.8547 49.7034 58.5893 52.0948C58.2708 58.1903 53.5027 63.0477 47.5576 63.3333H26.5627C20.616 63.0562 15.8409 58.204 15.5156 52.1075C15.2502 49.716 15.6641 47.2967 16.7074 45.1408C19.3877 39.3047 23.1552 34.0622 27.7977 29.7097C29.0371 28.85 30.5147 28.4256 32.009 28.5L31.762 27.9268L30.2183 24.3168C28.8382 21.1027 26.9486 15.8333 30.3758 15.8333Z" stroke="white" stroke-width="3" stroke-linecap="round" stroke-linejoin="round"/>
<path d="M42.1115 30.875C43.4231 30.875 44.4865 29.8117 44.4865 28.5C44.4865 27.1883 43.4231 26.125 42.1115 26.125V30.875ZM32.0092 26.125C30.6976 26.125 29.6342 27.1883 29.6342 28.5C29.6342 29.8117 30.6976 30.875 32.0092 30.875V26.125ZM50.5959 27.3913C51.7324 26.7366 52.1232 25.2844 51.4683 24.1478C50.8135 23.0113 49.3616 22.6206 48.225 23.2754L50.5959 27.3913ZM42.3246 28.0028L42.7828 30.3332L42.7898 30.3319L42.3246 28.0028ZM31.7622 27.9268L32.254 25.6032L32.2324 25.5988L31.7622 27.9268ZM25.8592 23.2546C24.7112 22.6202 23.2662 23.0365 22.6317 24.1845C21.9973 25.3326 22.4136 26.7776 23.5616 27.412L25.8592 23.2546ZM42.1115 26.125H32.0092V30.875H42.1115V26.125ZM48.225 23.2754C46.2395 24.4191 44.0906 25.2283 41.8594 25.6738L42.7898 30.3319C45.5299 29.7847 48.1655 28.7914 50.5959 27.3913L48.225 23.2754ZM41.8664 25.6725C38.6889 26.2973 35.4228 26.2737 32.254 25.6032L31.2706 30.2504C35.0653 31.0533 38.9774 31.0815 42.7828 30.3332L41.8664 25.6725ZM32.2324 25.5988C30.0071 25.1495 27.8588 24.3597 25.8592 23.2546L23.5616 27.412C25.9835 28.7505 28.5894 29.7092 31.2922 30.2549L32.2324 25.5988Z" fill="white"/>
</svg>
