<svg width="60" height="60" viewBox="0 0 60 60" fill="none" xmlns="http://www.w3.org/2000/svg">
<path d="M41.7422 22.7812V21.9375L37.7813 16.0781C36.5625 14.3906 35.1328 13.6172 33.1641 13.6172H26.7187C24.7266 13.6172 23.3203 14.4609 22.1016 16.0781L18.1406 21.9375V22.7812C10.1016 32.6953 6.42188 41.2031 6.42188 52.2422L7.82812 52.3359C7.82812 52.2422 8.20312 50.4609 11.3203 50.6484C13.3125 50.7422 14.4375 51.5859 15.4687 52.3359C16.4062 52.9922 17.25 53.6484 18.4922 53.6484C19.2422 53.6484 20.1797 53.3672 21.4219 52.6172C22.3594 52.0547 23.2969 51.6797 24.1641 51.3984H24.2109V55.7344C24.2109 57.2109 25.3828 58.3828 26.8594 58.3828C28.3359 58.3828 29.5078 57.2109 29.5078 55.7344V51.3984H30.5859V55.7344C30.5859 57.2109 31.7578 58.3828 33.2344 58.3828C34.7109 58.3828 35.8828 57.2109 35.8828 55.7344V51.4453C36.6797 51.6562 37.5469 52.0078 38.4375 52.6172C39.5625 53.3672 40.5234 53.6484 41.3672 53.6484C42.5859 53.6484 43.4531 52.9922 44.3906 52.3359C45.4219 51.5859 46.6641 50.7422 48.5391 50.6484C51.6563 50.4609 52.0313 52.2422 52.0313 52.3359L53.4375 52.2422C53.4375 41.2031 49.6875 32.6953 41.7422 22.7812ZM30.5859 50.5781H29.5078V36.2578C29.5078 35.9531 29.7187 35.7187 30.0469 35.7187C30.3516 35.7187 30.5859 35.9297 30.5859 36.2578V50.5781ZM48.4688 49.7109C46.1953 49.8047 44.8828 50.8359 43.7578 51.5859C42.3516 52.6172 41.3906 53.3672 38.9531 51.8672C37.9219 51.1875 36.8906 50.8125 35.9297 50.6016V31.0547H36.7266V29.2969H35.9297V31.0312H32.2266C31.8984 31.8516 31.1016 32.4375 30.1406 32.4375C29.1797 32.4375 28.3828 31.8516 28.0547 31.0312H24.1875L24.2109 50.5312H23.8828C22.8516 50.7188 21.7031 51.1875 20.5781 51.8438C18.2109 53.3438 17.2734 52.6875 15.7734 51.5625C14.6484 50.7187 13.3125 49.7812 11.0625 49.6875C9.28125 49.5937 8.13281 50.0625 7.47656 50.625C8.13281 40.875 11.25 33.375 18.1641 24.5859V33.8203C18.1641 34.9453 19.1016 35.9062 20.25 35.9062C21.3984 35.9062 22.3359 34.9688 22.3359 33.8203V23.6016L24.2109 20.8594L24.2344 29.2734H28.1016C28.4531 28.5 29.2266 27.9844 30.1172 27.9844C31.0078 27.9844 31.7812 28.5234 32.1328 29.2734H35.9062V20.8359L37.7813 23.5781V33.7969C37.7813 34.9219 38.7188 35.8828 39.8672 35.8828C40.9922 35.8828 41.9531 34.9453 41.9531 33.7969V24.5625C48.8672 33.3516 51.9844 40.9453 52.2656 50.6016C51.3984 50.1094 50.25 49.6172 48.4688 49.7109Z" fill="white"/>
<path d="M41.7422 22.7812V21.9375L37.7813 16.0781C36.5625 14.3906 35.1328 13.6172 33.1641 13.6172H26.7187C24.7266 13.6172 23.3203 14.4609 22.1016 16.0781L18.1406 21.9375V22.7812C10.1016 32.6953 6.42188 41.2031 6.42188 52.2422L7.82812 52.3359C7.82812 52.2422 8.20312 50.4609 11.3203 50.6484C13.3125 50.7422 14.4375 51.5859 15.4687 52.3359C16.4062 52.9922 17.25 53.6484 18.4922 53.6484C19.2422 53.6484 20.1797 53.3672 21.4219 52.6172C22.3594 52.0547 23.2969 51.6797 24.1641 51.3984H24.2109V55.7344C24.2109 57.2109 25.3828 58.3828 26.8594 58.3828C28.3359 58.3828 29.5078 57.2109 29.5078 55.7344V51.3984H30.5859V55.7344C30.5859 57.2109 31.7578 58.3828 33.2344 58.3828C34.7109 58.3828 35.8828 57.2109 35.8828 55.7344V51.4453C36.6797 51.6562 37.5469 52.0078 38.4375 52.6172C39.5625 53.3672 40.5234 53.6484 41.3672 53.6484C42.5859 53.6484 43.4531 52.9922 44.3906 52.3359C45.4219 51.5859 46.6641 50.7422 48.5391 50.6484C51.6563 50.4609 52.0313 52.2422 52.0313 52.3359L53.4375 52.2422C53.4375 41.2031 49.6875 32.6953 41.7422 22.7812ZM30.5859 50.5781H29.5078V36.2578C29.5078 35.9531 29.7187 35.7187 30.0469 35.7187C30.3516 35.7187 30.5859 35.9297 30.5859 36.2578V50.5781ZM48.4688 49.7109C46.1953 49.8047 44.8828 50.8359 43.7578 51.5859C42.3516 52.6172 41.3906 53.3672 38.9531 51.8672C37.9219 51.1875 36.8906 50.8125 35.9297 50.6016V31.0547H36.7266V29.2969H35.9297V31.0312H32.2266C31.8984 31.8516 31.1016 32.4375 30.1406 32.4375C29.1797 32.4375 28.3828 31.8516 28.0547 31.0312H24.1875L24.2109 50.5312H23.8828C22.8516 50.7188 21.7031 51.1875 20.5781 51.8438C18.2109 53.3438 17.2734 52.6875 15.7734 51.5625C14.6484 50.7187 13.3125 49.7812 11.0625 49.6875C9.28125 49.5937 8.13281 50.0625 7.47656 50.625C8.13281 40.875 11.25 33.375 18.1641 24.5859V33.8203C18.1641 34.9453 19.1016 35.9062 20.25 35.9062C21.3984 35.9062 22.3359 34.9688 22.3359 33.8203V23.6016L24.2109 20.8594L24.2344 29.2734H28.1016C28.4531 28.5 29.2266 27.9844 30.1172 27.9844C31.0078 27.9844 31.7812 28.5234 32.1328 29.2734H35.9062V20.8359L37.7813 23.5781V33.7969C37.7813 34.9219 38.7188 35.8828 39.8672 35.8828C40.9922 35.8828 41.9531 34.9453 41.9531 33.7969V24.5625C48.8672 33.3516 51.9844 40.9453 52.2656 50.6016C51.3984 50.1094 50.25 49.6172 48.4688 49.7109Z" fill="white"/>
<path d="M23.3906 29.2969V31.0547H24.1875V31.0312V29.2969H23.3906Z" fill="white"/>
<path d="M30 11.7422C32.6794 11.7422 34.8516 9.57007 34.8516 6.89063C34.8516 4.21118 32.6794 2.03906 30 2.03906C27.3206 2.03906 25.1484 4.21118 25.1484 6.89063C25.1484 9.57007 27.3206 11.7422 30 11.7422Z" fill="white"/>
<path d="M30 11.7422C32.6794 11.7422 34.8516 9.57007 34.8516 6.89063C34.8516 4.21118 32.6794 2.03906 30 2.03906C27.3206 2.03906 25.1484 4.21118 25.1484 6.89063C25.1484 9.57007 27.3206 11.7422 30 11.7422Z" fill="white"/>
</svg>
