<svg width="56" height="56" viewBox="0 0 56 56" fill="none" xmlns="http://www.w3.org/2000/svg">
<g clip-path="url(#clip0_325_1797)">
<path d="M19.2501 53.13H5.25012V51.87H19.2501V53.13ZM21.6301 50.75H20.3701V36.75H21.6301V50.75ZM4.13012 50.75H2.87012V36.75H4.13012V50.75ZM46.3751 47.005H41.1251C40.7769 47.005 40.4951 46.7232 40.4951 46.375V44.38H24.5001V43.12H40.4951V41.125C40.4951 40.7767 40.7769 40.495 41.1251 40.495H43.1201V24.5H44.3819V40.495H46.3769C46.7251 40.495 47.0069 40.7767 47.0069 41.125V46.375C47.0051 46.7232 46.7234 47.005 46.3751 47.005ZM41.7551 45.745H45.7434V41.755H41.7551V45.745ZM14.8751 47.005H9.62512C9.27687 47.005 8.99512 46.7232 8.99512 46.375V41.125C8.99512 40.7767 9.27687 40.495 9.62512 40.495H14.8751C15.2234 40.495 15.5051 40.7767 15.5051 41.125V46.375C15.5051 46.7232 15.2234 47.005 14.8751 47.005ZM10.2551 45.745H14.2451V41.755H10.2551V45.745ZM19.2501 35.63H5.25012V34.37H19.2501V35.63ZM12.8801 31.5H11.6201V24.5H12.8801V31.5ZM50.7501 21.63H36.7501V20.37H50.7501V21.63ZM19.2501 21.63H5.25012V20.37H19.2501V21.63ZM53.1301 19.25H51.8701V5.25H53.1319L53.1301 19.25ZM35.6301 19.25H34.3701V5.25H35.6319L35.6301 19.25ZM21.6301 19.25H20.3701V5.25H21.6301V19.25ZM4.13012 19.25H2.87012V5.25H4.13012V19.25ZM46.3751 15.505H41.1251C40.7769 15.505 40.4951 15.2232 40.4951 14.875V9.625C40.4951 9.27675 40.7769 8.995 41.1251 8.995H46.3751C46.7234 8.995 47.0051 9.27675 47.0051 9.625V14.875C47.0051 15.2232 46.7234 15.505 46.3751 15.505ZM41.7551 14.245H45.7434V10.255H41.7551V14.245ZM14.8751 15.505H9.62512C9.27687 15.505 8.99512 15.2232 8.99512 14.875V9.625C8.99512 9.27675 9.27687 8.995 9.62512 8.995H14.8751C15.2234 8.995 15.5051 9.27675 15.5051 9.625V14.875C15.5051 15.2232 15.2234 15.505 14.8751 15.505ZM10.2551 14.245H14.2451V10.255H10.2551V14.245ZM31.5001 12.88H24.5001V11.62H31.5001V12.88ZM50.7501 4.12999H36.7501V2.87H50.7501V4.12999ZM19.2501 4.12999H5.25012V2.87H19.2501V4.12999Z" fill="white"/>
</g>
<defs>
<clipPath id="clip0_325_1797">
<rect width="56" height="56" fill="white"/>
</clipPath>
</defs>
</svg>
