<svg width="34" height="34" viewBox="0 0 34 34" fill="none" xmlns="http://www.w3.org/2000/svg">
<circle cx="17" cy="17" r="17" fill="#F3F8FF"/>
<circle cx="17" cy="17" r="17" fill="#E4E4E4"/>
<circle cx="17" cy="17" r="17" fill="#F3F8FF"/>
<circle cx="17" cy="17" r="17" fill="#DFEBE6"/>
<circle cx="17" cy="17" r="17" fill="#DFF1FF"/>
<path d="M20.5277 10.9864C21.3704 10.9889 22.1779 11.3248 22.7738 11.9207C23.3697 12.5166 23.7056 13.3241 23.7082 14.1668V20.5272C23.7056 21.3699 23.3697 22.1774 22.7738 22.7733C22.1779 23.3693 21.3704 23.7051 20.5277 23.7077H14.1673C13.3246 23.7051 12.5171 23.3693 11.9212 22.7733C11.3253 22.1774 10.9894 21.3699 10.9868 20.5272V14.1668C10.9894 13.3241 11.3253 12.5166 11.9212 11.9207C12.5171 11.3248 13.3246 10.9889 14.1673 10.9864H20.5277V10.9864ZM20.5277 9.71436H14.1673C11.7184 9.71436 9.71484 11.7179 9.71484 14.1668V20.5272C9.71484 22.9761 11.7184 24.9797 14.1673 24.9797H20.5277C22.9766 24.9797 24.9801 22.9761 24.9801 20.5272V14.1668C24.9801 11.7179 22.9766 9.71436 20.5277 9.71436V9.71436Z" fill="#136058"/>
<path d="M20.5277 10.9864C21.3704 10.9889 22.1779 11.3248 22.7738 11.9207C23.3697 12.5166 23.7056 13.3241 23.7082 14.1668V20.5272C23.7056 21.3699 23.3697 22.1774 22.7738 22.7733C22.1779 23.3693 21.3704 23.7051 20.5277 23.7077H14.1673C13.3246 23.7051 12.5171 23.3693 11.9212 22.7733C11.3253 22.1774 10.9894 21.3699 10.9868 20.5272V14.1668C10.9894 13.3241 11.3253 12.5166 11.9212 11.9207C12.5171 11.3248 13.3246 10.9889 14.1673 10.9864H20.5277V10.9864ZM20.5277 9.71436H14.1673C11.7184 9.71436 9.71484 11.7179 9.71484 14.1668V20.5272C9.71484 22.9761 11.7184 24.9797 14.1673 24.9797H20.5277C22.9766 24.9797 24.9801 22.9761 24.9801 20.5272V14.1668C24.9801 11.7179 22.9766 9.71436 20.5277 9.71436V9.71436Z" fill="#064372"/>
<path d="M21.4818 14.1674C21.2931 14.1674 21.1087 14.1115 20.9518 14.0066C20.7949 13.9018 20.6726 13.7528 20.6004 13.5785C20.5281 13.4041 20.5093 13.2123 20.5461 13.0272C20.5829 12.8422 20.6737 12.6722 20.8072 12.5387C20.9406 12.4053 21.1106 12.3144 21.2957 12.2776C21.4808 12.2408 21.6726 12.2597 21.8469 12.3319C22.0213 12.4041 22.1703 12.5264 22.2751 12.6833C22.3799 12.8402 22.4359 13.0247 22.4359 13.2134C22.4362 13.3387 22.4117 13.4629 22.3638 13.5788C22.316 13.6947 22.2457 13.8 22.1571 13.8886C22.0684 13.9772 21.9631 14.0475 21.8472 14.0954C21.7314 14.1432 21.6072 14.1677 21.4818 14.1674V14.1674ZM17.3476 14.8033C17.8508 14.8033 18.3427 14.9525 18.7611 15.2321C19.1795 15.5116 19.5057 15.909 19.6982 16.3739C19.8908 16.8388 19.9412 17.3504 19.843 17.844C19.7448 18.3375 19.5025 18.7909 19.1467 19.1467C18.7909 19.5025 18.3375 19.7449 17.844 19.843C17.3504 19.9412 16.8388 19.8908 16.3739 19.6983C15.909 19.5057 15.5116 19.1796 15.232 18.7612C14.9525 18.3427 14.8032 17.8508 14.8032 17.3476C14.804 16.673 15.0723 16.0263 15.5493 15.5493C16.0263 15.0723 16.673 14.804 17.3476 14.8033V14.8033ZM17.3476 13.5313C16.5928 13.5313 15.8549 13.7551 15.2273 14.1744C14.5997 14.5938 14.1106 15.1898 13.8218 15.8872C13.5329 16.5845 13.4573 17.3518 13.6046 18.0921C13.7518 18.8324 14.1153 19.5124 14.649 20.0462C15.1828 20.5799 15.8628 20.9433 16.603 21.0906C17.3433 21.2379 18.1107 21.1623 18.808 20.8734C19.5054 20.5846 20.1014 20.0954 20.5207 19.4678C20.9401 18.8402 21.1639 18.1024 21.1639 17.3476C21.1639 16.3354 20.7618 15.3647 20.0461 14.649C19.3304 13.9333 18.3597 13.5313 17.3476 13.5313V13.5313Z" fill="#136058"/>
<path d="M21.4818 14.1674C21.2931 14.1674 21.1087 14.1115 20.9518 14.0066C20.7949 13.9018 20.6726 13.7528 20.6004 13.5785C20.5281 13.4041 20.5093 13.2123 20.5461 13.0272C20.5829 12.8422 20.6737 12.6722 20.8072 12.5387C20.9406 12.4053 21.1106 12.3144 21.2957 12.2776C21.4808 12.2408 21.6726 12.2597 21.8469 12.3319C22.0213 12.4041 22.1703 12.5264 22.2751 12.6833C22.3799 12.8402 22.4359 13.0247 22.4359 13.2134C22.4362 13.3387 22.4117 13.4629 22.3638 13.5788C22.316 13.6947 22.2457 13.8 22.1571 13.8886C22.0684 13.9772 21.9631 14.0475 21.8472 14.0954C21.7314 14.1432 21.6072 14.1677 21.4818 14.1674V14.1674ZM17.3476 14.8033C17.8508 14.8033 18.3427 14.9525 18.7611 15.2321C19.1795 15.5116 19.5057 15.909 19.6982 16.3739C19.8908 16.8388 19.9412 17.3504 19.843 17.844C19.7448 18.3375 19.5025 18.7909 19.1467 19.1467C18.7909 19.5025 18.3375 19.7449 17.844 19.843C17.3504 19.9412 16.8388 19.8908 16.3739 19.6983C15.909 19.5057 15.5116 19.1796 15.232 18.7612C14.9525 18.3427 14.8032 17.8508 14.8032 17.3476C14.804 16.673 15.0723 16.0263 15.5493 15.5493C16.0263 15.0723 16.673 14.804 17.3476 14.8033V14.8033ZM17.3476 13.5313C16.5928 13.5313 15.8549 13.7551 15.2273 14.1744C14.5997 14.5938 14.1106 15.1898 13.8218 15.8872C13.5329 16.5845 13.4573 17.3518 13.6046 18.0921C13.7518 18.8324 14.1153 19.5124 14.649 20.0462C15.1828 20.5799 15.8628 20.9433 16.603 21.0906C17.3433 21.2379 18.1107 21.1623 18.808 20.8734C19.5054 20.5846 20.1014 20.0954 20.5207 19.4678C20.9401 18.8402 21.1639 18.1024 21.1639 17.3476C21.1639 16.3354 20.7618 15.3647 20.0461 14.649C19.3304 13.9333 18.3597 13.5313 17.3476 13.5313V13.5313Z" fill="#064372"/>
</svg>
