<svg width="35" height="34" viewBox="0 0 35 34" fill="none" xmlns="http://www.w3.org/2000/svg">
<circle cx="17.4004" cy="17" r="17" fill="#F3F8FF"/>
<circle cx="17.4004" cy="17" r="17" fill="#E4E4E4"/>
<circle cx="17.4004" cy="17" r="17" fill="#F3F8FF"/>
<circle cx="17.4004" cy="17" r="17" fill="#DFEBE6"/>
<circle cx="17.4004" cy="17" r="17" fill="#DFF1FF"/>
<g clip-path="url(#clip0_1164_230)">
<path d="M17.7479 9.71436C13.532 9.71436 10.1152 13.1312 10.1152 17.347C10.1152 21.5629 13.532 24.9797 17.7479 24.9797C21.9637 24.9797 25.3805 21.5629 25.3805 17.347C25.3805 13.1312 21.9637 9.71436 17.7479 9.71436ZM15.6131 20.5402H14.1254V15.7787H15.6131V20.5402ZM14.829 15.1824H14.8171C14.2774 15.1824 13.9286 14.8187 13.9286 14.3566C13.9286 13.8855 14.2893 13.5307 14.8379 13.5307C15.3865 13.5307 15.7234 13.8855 15.7354 14.3566C15.7384 14.8157 15.3895 15.1824 14.829 15.1824ZM21.5642 20.5402H19.8767V18.0775C19.8767 17.4335 19.6143 16.9922 19.0329 16.9922C18.5887 16.9922 18.3412 17.2904 18.2279 17.5766C18.1862 17.678 18.1921 17.8211 18.1921 17.9672V20.5402H16.5195C16.5195 20.5402 16.5404 16.1753 16.5195 15.7787H18.1921V16.5271C18.2905 16.1991 18.8242 15.734 19.6769 15.734C20.7354 15.734 21.5642 16.4198 21.5642 17.8926V20.5402Z" fill="#136058"/>
<path d="M17.7479 9.71436C13.532 9.71436 10.1152 13.1312 10.1152 17.347C10.1152 21.5629 13.532 24.9797 17.7479 24.9797C21.9637 24.9797 25.3805 21.5629 25.3805 17.347C25.3805 13.1312 21.9637 9.71436 17.7479 9.71436ZM15.6131 20.5402H14.1254V15.7787H15.6131V20.5402ZM14.829 15.1824H14.8171C14.2774 15.1824 13.9286 14.8187 13.9286 14.3566C13.9286 13.8855 14.2893 13.5307 14.8379 13.5307C15.3865 13.5307 15.7234 13.8855 15.7354 14.3566C15.7384 14.8157 15.3895 15.1824 14.829 15.1824ZM21.5642 20.5402H19.8767V18.0775C19.8767 17.4335 19.6143 16.9922 19.0329 16.9922C18.5887 16.9922 18.3412 17.2904 18.2279 17.5766C18.1862 17.678 18.1921 17.8211 18.1921 17.9672V20.5402H16.5195C16.5195 20.5402 16.5404 16.1753 16.5195 15.7787H18.1921V16.5271C18.2905 16.1991 18.8242 15.734 19.6769 15.734C20.7354 15.734 21.5642 16.4198 21.5642 17.8926V20.5402Z" fill="#064372"/>
</g>
<defs>
<clipPath id="clip0_1164_230">
<rect width="15.2653" height="15.2653" fill="white" transform="translate(10.1152 9.71436)"/>
</clipPath>
</defs>
</svg>
