<svg width="210" height="208" viewBox="0 0 210 208" fill="none" xmlns="http://www.w3.org/2000/svg">
<path d="M25.7431 0.947054L209.743 0.94707L209.743 185.947C162.543 207.947 91.0764 209.114 61.2431 206.947C-27.9569 196.147 0.409772 65.1137 25.7431 0.947054Z" fill="#FFE2E3"/>
<path d="M25.7431 0.947054L209.743 0.94707L209.743 185.947C162.543 207.947 91.0764 209.114 61.2431 206.947C-27.9569 196.147 0.409772 65.1137 25.7431 0.947054Z" fill="#FBE69A"/>
<path d="M25.7431 0.947054L209.743 0.94707L209.743 185.947C162.543 207.947 91.0764 209.114 61.2431 206.947C-27.9569 196.147 0.409772 65.1137 25.7431 0.947054Z" fill="url(#paint0_linear_1171_296)"/>
<path d="M25.7431 0.947054L209.743 0.94707L209.743 185.947C162.543 207.947 91.0764 209.114 61.2431 206.947C-27.9569 196.147 0.409772 65.1137 25.7431 0.947054Z" fill="#064372"/>
<defs>
<linearGradient id="paint0_linear_1171_296" x1="112.461" y1="0.947068" x2="112.461" y2="207.709" gradientUnits="userSpaceOnUse">
<stop stop-color="#064372"/>
<stop offset="1" stop-color="#2D903E"/>
</linearGradient>
</defs>
</svg>
