<svg width="210" height="208" viewBox="0 0 210 208" fill="none" xmlns="http://www.w3.org/2000/svg">
<path d="M184.501 207.709H0.501053V22.7087C47.7011 0.708714 119.168 -0.457954 149.001 1.70871C238.201 12.5087 209.834 143.542 184.501 207.709Z" fill="#FFE2E3"/>
<path d="M184.501 207.709H0.501053V22.7087C47.7011 0.708714 119.168 -0.457954 149.001 1.70871C238.201 12.5087 209.834 143.542 184.501 207.709Z" fill="#FBE69A"/>
<path d="M184.501 207.709H0.501053V22.7087C47.7011 0.708714 119.168 -0.457954 149.001 1.70871C238.201 12.5087 209.834 143.542 184.501 207.709Z" fill="url(#paint0_linear_1171_295)"/>
<path d="M184.501 207.709H0.501053V22.7087C47.7011 0.708714 119.168 -0.457954 149.001 1.70871C238.201 12.5087 209.834 143.542 184.501 207.709Z" fill="#064372"/>
<defs>
<linearGradient id="paint0_linear_1171_295" x1="97.7833" y1="207.709" x2="97.7833" y2="0.946771" gradientUnits="userSpaceOnUse">
<stop stop-color="#064372"/>
<stop offset="1" stop-color="#2D903E"/>
</linearGradient>
</defs>
</svg>
