<svg width="210" height="208" viewBox="0 0 210 208" fill="none" xmlns="http://www.w3.org/2000/svg">
<path d="M25.7431 207.709H209.743V22.7087C162.543 0.708714 91.0764 -0.457954 61.2431 1.70871C-27.9569 12.5087 0.40976 143.542 25.7431 207.709Z" fill="#FFE2E3"/>
<path d="M25.7431 207.709H209.743V22.7087C162.543 0.708714 91.0764 -0.457954 61.2431 1.70871C-27.9569 12.5087 0.40976 143.542 25.7431 207.709Z" fill="#FBE69A"/>
<path d="M25.7431 207.709H209.743V22.7087C162.543 0.708714 91.0764 -0.457954 61.2431 1.70871C-27.9569 12.5087 0.40976 143.542 25.7431 207.709Z" fill="url(#paint0_linear_1171_294)"/>
<path d="M25.7431 207.709H209.743V22.7087C162.543 0.708714 91.0764 -0.457954 61.2431 1.70871C-27.9569 12.5087 0.40976 143.542 25.7431 207.709Z" fill="#064372"/>
<defs>
<linearGradient id="paint0_linear_1171_294" x1="112.461" y1="207.709" x2="112.461" y2="0.946771" gradientUnits="userSpaceOnUse">
<stop stop-color="#064372"/>
<stop offset="1" stop-color="#2D903E"/>
</linearGradient>
</defs>
</svg>
