<svg width="210" height="208" viewBox="0 0 210 208" fill="none" xmlns="http://www.w3.org/2000/svg">
<path d="M184.501 0.94705L0.501071 0.947034L0.501055 185.947C47.7011 207.947 119.168 209.114 149.001 206.947C238.201 196.147 209.834 65.1137 184.501 0.94705Z" fill="#FFE2E3"/>
<path d="M184.501 0.94705L0.501071 0.947034L0.501055 185.947C47.7011 207.947 119.168 209.114 149.001 206.947C238.201 196.147 209.834 65.1137 184.501 0.94705Z" fill="#FBE69A"/>
<path d="M184.501 0.94705L0.501071 0.947034L0.501055 185.947C47.7011 207.947 119.168 209.114 149.001 206.947C238.201 196.147 209.834 65.1137 184.501 0.94705Z" fill="url(#paint0_linear_1171_297)"/>
<path d="M184.501 0.94705L0.501071 0.947034L0.501055 185.947C47.7011 207.947 119.168 209.114 149.001 206.947C238.201 196.147 209.834 65.1137 184.501 0.94705Z" fill="#064372"/>
<defs>
<linearGradient id="paint0_linear_1171_297" x1="97.7833" y1="0.947048" x2="97.7833" y2="207.709" gradientUnits="userSpaceOnUse">
<stop stop-color="#064372"/>
<stop offset="1" stop-color="#2D903E"/>
</linearGradient>
</defs>
</svg>
